<?xml version="1.0" encoding="utf-8" standalone="no"?>
<!DOCTYPE svg PUBLIC "-//W3C//DTD SVG 1.1//EN"
  "http://www.w3.org/Graphics/SVG/1.1/DTD/svg11.dtd">
<svg xmlns:xlink="http://www.w3.org/1999/xlink" width="792pt" height="273.6pt" viewBox="0 0 792 273.6" xmlns="http://www.w3.org/2000/svg" version="1.1">
 <metadata>
  <rdf:RDF xmlns:dc="http://purl.org/dc/elements/1.1/" xmlns:cc="http://creativecommons.org/ns#" xmlns:rdf="http://www.w3.org/1999/02/22-rdf-syntax-ns#">
   <cc:Work>
    <dc:type rdf:resource="http://purl.org/dc/dcmitype/StillImage"/>
    <dc:date>2025-11-19T19:44:27.347884</dc:date>
    <dc:format>image/svg+xml</dc:format>
    <dc:creator>
     <cc:Agent>
      <dc:title>Matplotlib v3.9.4, https://matplotlib.org/</dc:title>
     </cc:Agent>
    </dc:creator>
   </cc:Work>
  </rdf:RDF>
 </metadata>
 <defs>
  <style type="text/css">*{stroke-linejoin: round; stroke-linecap: butt}</style>
 </defs>
 <g id="figure_1">
  <g id="patch_1">
   <path d="M 0 273.6 
L 792 273.6 
L 792 0 
L 0 0 
z
" style="fill: #ffffff"/>
  </g>
  <g id="axes_1">
   <g id="patch_2">
    <path d="M 48.92 231.16 
L 283.48 231.16 
L 283.48 25.92 
L 48.92 25.92 
z
" style="fill: #ffffff"/>
   </g>
   <g id="PolyCollection_1">
    <defs>
     <path id="m058b359925" d="M 48.92 -204.019422 
L 48.92 -140.624545 
L 50.098693 -140.239665 
L 51.277387 -139.854126 
L 52.45608 -139.467916 
L 53.634774 -139.081022 
L 54.813467 -138.693432 
L 55.992161 -138.305134 
L 57.170854 -137.916117 
L 58.349548 -137.526371 
L 59.528241 -137.135884 
L 60.706935 -136.744646 
L 61.885628 -136.352648 
L 63.064322 -135.95988 
L 64.243015 -135.566334 
L 65.421709 -135.172001 
L 66.600402 -134.776873 
L 67.779095 -134.380943 
L 68.957789 -133.984204 
L 70.136482 -133.586649 
L 71.315176 -133.188272 
L 72.493869 -132.789069 
L 73.672563 -132.389034 
L 74.851256 -131.988164 
L 76.02995 -131.586455 
L 77.208643 -131.183904 
L 78.387337 -130.780509 
L 79.56603 -130.376269 
L 80.744724 -129.971182 
L 81.923417 -129.565248 
L 83.102111 -129.158469 
L 84.280804 -128.750844 
L 85.459497 -128.342376 
L 86.638191 -127.933068 
L 87.816884 -127.522924 
L 88.995578 -127.111946 
L 90.174271 -126.700141 
L 91.352965 -126.287515 
L 92.531658 -125.874072 
L 93.710352 -125.459822 
L 94.889045 -125.044772 
L 96.067739 -124.628932 
L 97.246432 -124.21231 
L 98.425126 -123.794918 
L 99.603819 -123.376766 
L 100.782513 -122.957868 
L 101.961206 -122.538236 
L 103.139899 -122.117883 
L 104.318593 -121.696826 
L 105.497286 -121.275078 
L 106.67598 -120.852658 
L 107.854673 -120.42958 
L 109.033367 -120.005864 
L 110.21206 -119.581528 
L 111.390754 -119.156592 
L 112.569447 -118.731075 
L 113.748141 -118.304999 
L 114.926834 -117.878385 
L 116.105528 -117.451256 
L 117.284221 -117.023635 
L 118.462915 -116.595545 
L 119.641608 -116.167012 
L 120.820302 -115.73806 
L 121.998995 -115.308715 
L 123.177688 -114.879003 
L 124.356382 -114.448952 
L 125.535075 -114.018589 
L 126.713769 -113.587942 
L 127.892462 -113.157039 
L 129.071156 -112.72591 
L 130.249849 -112.294585 
L 131.428543 -111.863093 
L 132.607236 -111.431465 
L 133.78593 -110.999732 
L 134.964623 -110.567924 
L 136.143317 -110.136075 
L 137.32201 -109.704214 
L 138.500704 -109.272376 
L 139.679397 -108.840591 
L 140.85809 -108.408893 
L 142.036784 -107.977314 
L 143.215477 -107.545888 
L 144.394171 -107.114647 
L 145.572864 -106.683626 
L 146.751558 -106.252857 
L 147.930251 -105.822374 
L 149.108945 -105.39221 
L 150.287638 -104.9624 
L 151.466332 -104.532975 
L 152.645025 -104.103971 
L 153.823719 -103.675419 
L 155.002412 -103.247355 
L 156.181106 -102.81981 
L 157.359799 -102.392817 
L 158.538492 -101.966411 
L 159.717186 -101.540623 
L 160.895879 -101.115486 
L 162.074573 -100.691033 
L 163.253266 -100.267295 
L 164.43196 -99.844304 
L 165.610653 -99.422092 
L 166.789347 -99.00069 
L 167.96804 -98.580129 
L 169.146734 -98.16044 
L 170.325427 -97.741653 
L 171.504121 -97.323798 
L 172.682814 -96.906904 
L 173.861508 -96.491001 
L 175.040201 -96.076118 
L 176.218894 -95.662282 
L 177.397588 -95.249523 
L 178.576281 -94.837867 
L 179.754975 -94.427341 
L 180.933668 -94.017973 
L 182.112362 -93.609788 
L 183.291055 -93.202813 
L 184.469749 -92.797072 
L 185.648442 -92.392591 
L 186.827136 -91.989394 
L 188.005829 -91.587505 
L 189.184523 -91.186947 
L 190.363216 -90.787743 
L 191.54191 -90.389916 
L 192.720603 -89.993488 
L 193.899296 -89.59848 
L 195.07799 -89.204914 
L 196.256683 -88.812809 
L 197.435377 -88.422186 
L 198.61407 -88.033064 
L 199.792764 -87.645462 
L 200.971457 -87.2594 
L 202.150151 -86.874894 
L 203.328844 -86.491963 
L 204.507538 -86.110623 
L 205.686231 -85.730892 
L 206.864925 -85.352785 
L 208.043618 -84.976318 
L 209.222312 -84.601506 
L 210.401005 -84.228364 
L 211.579698 -83.856906 
L 212.758392 -83.487146 
L 213.937085 -83.119097 
L 215.115779 -82.752772 
L 216.294472 -82.388183 
L 217.473166 -82.025343 
L 218.651859 -81.664263 
L 219.830553 -81.304953 
L 221.009246 -80.947425 
L 222.18794 -80.591689 
L 223.366633 -80.237755 
L 224.545327 -79.885631 
L 225.72402 -79.535328 
L 226.902714 -79.186853 
L 228.081407 -78.840215 
L 229.260101 -78.495421 
L 230.438794 -78.152479 
L 231.617487 -77.811396 
L 232.796181 -77.472179 
L 233.974874 -77.134833 
L 235.153568 -76.799365 
L 236.332261 -76.465779 
L 237.510955 -76.134083 
L 238.689648 -75.804279 
L 239.868342 -75.476373 
L 241.047035 -75.150369 
L 242.225729 -74.826271 
L 243.404422 -74.504081 
L 244.583116 -74.183804 
L 245.761809 -73.865442 
L 246.940503 -73.548998 
L 248.119196 -73.234473 
L 249.297889 -72.921871 
L 250.476583 -72.611192 
L 251.655276 -72.302438 
L 252.83397 -71.99561 
L 254.012663 -71.690709 
L 255.191357 -71.387735 
L 256.37005 -71.086689 
L 257.548744 -70.787571 
L 258.727437 -70.49038 
L 259.906131 -70.195117 
L 261.084824 -69.901779 
L 262.263518 -69.610367 
L 263.442211 -69.32088 
L 264.620905 -69.033315 
L 265.799598 -68.747672 
L 266.978291 -68.463947 
L 268.156985 -68.18214 
L 269.335678 -67.902249 
L 270.514372 -67.624269 
L 271.693065 -67.3482 
L 272.871759 -67.074037 
L 274.050452 -66.801779 
L 275.229146 -66.531421 
L 276.407839 -66.262961 
L 277.586533 -65.996394 
L 278.765226 -65.731718 
L 279.94392 -65.468927 
L 281.122613 -65.208018 
L 282.301307 -64.948987 
L 283.48 -64.691829 
L 283.48 -108.683746 
L 283.48 -108.683746 
L 282.301307 -108.965158 
L 281.122613 -109.247537 
L 279.94392 -109.530888 
L 278.765226 -109.815218 
L 277.586533 -110.100531 
L 276.407839 -110.386833 
L 275.229146 -110.674131 
L 274.050452 -110.96243 
L 272.871759 -111.251736 
L 271.693065 -111.542055 
L 270.514372 -111.833395 
L 269.335678 -112.125762 
L 268.156985 -112.419162 
L 266.978291 -112.713602 
L 265.799598 -113.00909 
L 264.620905 -113.305633 
L 263.442211 -113.603237 
L 262.263518 -113.901912 
L 261.084824 -114.201664 
L 259.906131 -114.502502 
L 258.727437 -114.804433 
L 257.548744 -115.107466 
L 256.37005 -115.41161 
L 255.191357 -115.716873 
L 254.012663 -116.023264 
L 252.83397 -116.330792 
L 251.655276 -116.639467 
L 250.476583 -116.949299 
L 249.297889 -117.260296 
L 248.119196 -117.57247 
L 246.940503 -117.88583 
L 245.761809 -118.200386 
L 244.583116 -118.51615 
L 243.404422 -118.833133 
L 242.225729 -119.151346 
L 241.047035 -119.470799 
L 239.868342 -119.791505 
L 238.689648 -120.113477 
L 237.510955 -120.436725 
L 236.332261 -120.761263 
L 235.153568 -121.087103 
L 233.974874 -121.414259 
L 232.796181 -121.742744 
L 231.617487 -122.072571 
L 230.438794 -122.403754 
L 229.260101 -122.736308 
L 228.081407 -123.070247 
L 226.902714 -123.405587 
L 225.72402 -123.742341 
L 224.545327 -124.080526 
L 223.366633 -124.420157 
L 222.18794 -124.761251 
L 221.009246 -125.103824 
L 219.830553 -125.447893 
L 218.651859 -125.793475 
L 217.473166 -126.140586 
L 216.294472 -126.489247 
L 215.115779 -126.839473 
L 213.937085 -127.191284 
L 212.758392 -127.544699 
L 211.579698 -127.899737 
L 210.401005 -128.256417 
L 209.222312 -128.61476 
L 208.043618 -128.974785 
L 206.864925 -129.336514 
L 205.686231 -129.699968 
L 204.507538 -130.065167 
L 203.328844 -130.432135 
L 202.150151 -130.800892 
L 200.971457 -131.171462 
L 199.792764 -131.543868 
L 198.61407 -131.918132 
L 197.435377 -132.294279 
L 196.256683 -132.672333 
L 195.07799 -133.052318 
L 193.899296 -133.434259 
L 192.720603 -133.818182 
L 191.54191 -134.204112 
L 190.363216 -134.592075 
L 189.184523 -134.982098 
L 188.005829 -135.374206 
L 186.827136 -135.768429 
L 185.648442 -136.164792 
L 184.469749 -136.563324 
L 183.291055 -136.964053 
L 182.112362 -137.367007 
L 180.933668 -137.772216 
L 179.754975 -138.179709 
L 178.576281 -138.589515 
L 177.397588 -139.001665 
L 176.218894 -139.416188 
L 175.040201 -139.833114 
L 173.861508 -140.252476 
L 172.682814 -140.674304 
L 171.504121 -141.098629 
L 170.325427 -141.525482 
L 169.146734 -141.954897 
L 167.96804 -142.386904 
L 166.789347 -142.821536 
L 165.610653 -143.258826 
L 164.43196 -143.698807 
L 163.253266 -144.14151 
L 162.074573 -144.58697 
L 160.895879 -145.03522 
L 159.717186 -145.486291 
L 158.538492 -145.940219 
L 157.359799 -146.397036 
L 156.181106 -146.856776 
L 155.002412 -147.319473 
L 153.823719 -147.785159 
L 152.645025 -148.253868 
L 151.466332 -148.725634 
L 150.287638 -149.200491 
L 149.108945 -149.678471 
L 147.930251 -150.159607 
L 146.751558 -150.643933 
L 145.572864 -151.131481 
L 144.394171 -151.622285 
L 143.215477 -152.116376 
L 142.036784 -152.613787 
L 140.85809 -153.114549 
L 139.679397 -153.618695 
L 138.500704 -154.126254 
L 137.32201 -154.637259 
L 136.143317 -155.15174 
L 134.964623 -155.669727 
L 133.78593 -156.191249 
L 132.607236 -156.716336 
L 131.428543 -157.245015 
L 130.249849 -157.777316 
L 129.071156 -158.313266 
L 127.892462 -158.852891 
L 126.713769 -159.396218 
L 125.535075 -159.943272 
L 124.356382 -160.494079 
L 123.177688 -161.048663 
L 121.998995 -161.607047 
L 120.820302 -162.169253 
L 119.641608 -162.735306 
L 118.462915 -163.305224 
L 117.284221 -163.879029 
L 116.105528 -164.45674 
L 114.926834 -165.038377 
L 113.748141 -165.623956 
L 112.569447 -166.213495 
L 111.390754 -166.80701 
L 110.21206 -167.404516 
L 109.033367 -168.006027 
L 107.854673 -168.611557 
L 106.67598 -169.221117 
L 105.497286 -169.83472 
L 104.318593 -170.452374 
L 103.139899 -171.074091 
L 101.961206 -171.699878 
L 100.782513 -172.329742 
L 99.603819 -172.96369 
L 98.425126 -173.601727 
L 97.246432 -174.243858 
L 96.067739 -174.890086 
L 94.889045 -175.540412 
L 93.710352 -176.194839 
L 92.531658 -176.853367 
L 91.352965 -177.515995 
L 90.174271 -178.182722 
L 88.995578 -178.853544 
L 87.816884 -179.528458 
L 86.638191 -180.207459 
L 85.459497 -180.890543 
L 84.280804 -181.577701 
L 83.102111 -182.268928 
L 81.923417 -182.964214 
L 80.744724 -183.663549 
L 79.56603 -184.366924 
L 78.387337 -185.074328 
L 77.208643 -185.785748 
L 76.02995 -186.501172 
L 74.851256 -187.220586 
L 73.672563 -187.943974 
L 72.493869 -188.671323 
L 71.315176 -189.402614 
L 70.136482 -190.137832 
L 68.957789 -190.876959 
L 67.779095 -191.619976 
L 66.600402 -192.366863 
L 65.421709 -193.117601 
L 64.243015 -193.872168 
L 63.064322 -194.630544 
L 61.885628 -195.392706 
L 60.706935 -196.158632 
L 59.528241 -196.928297 
L 58.349548 -197.701679 
L 57.170854 -198.478752 
L 55.992161 -199.25949 
L 54.813467 -200.043869 
L 53.634774 -200.831862 
L 52.45608 -201.623441 
L 51.277387 -202.41858 
L 50.098693 -203.21725 
L 48.92 -204.019422 
z
" style="stroke: #5e81ac; stroke-opacity: 0.15"/>
    </defs>
    <g clip-path="url(#pf918c81abc)">
     <use xlink:href="#m058b359925" x="0" y="273.6" style="fill: #5e81ac; fill-opacity: 0.15; stroke: #5e81ac; stroke-opacity: 0.15"/>
    </g>
   </g>
   <g id="matplotlib.axis_1">
    <g id="xtick_1">
     <g id="line2d_1">
      <path d="M 66.294815 231.16 
L 66.294815 25.92 
" clip-path="url(#pf918c81abc)" style="fill: none; stroke: #d8dee9; stroke-opacity: 0.4; stroke-width: 0.8; stroke-linecap: square"/>
     </g>
     <g id="line2d_2">
      <defs>
       <path id="mfa62304947" d="M 0 0 
L 0 3.5 
" style="stroke: #434c5e; stroke-width: 0.8"/>
      </defs>
      <g>
       <use xlink:href="#mfa62304947" x="66.294815" y="231.16" style="fill: #434c5e; stroke: #434c5e; stroke-width: 0.8"/>
      </g>
     </g>
     <g id="text_1">
      <!-- 20 -->
      <g style="fill: #434c5e" transform="translate(59.296065 246.518281) scale(0.11 -0.11)">
       <defs>
        <path id="DejaVuSans-32" d="M 1228 531 
L 3431 531 
L 3431 0 
L 469 0 
L 469 531 
Q 828 903 1448 1529 
Q 2069 2156 2228 2338 
Q 2531 2678 2651 2914 
Q 2772 3150 2772 3378 
Q 2772 3750 2511 3984 
Q 2250 4219 1831 4219 
Q 1534 4219 1204 4116 
Q 875 4013 500 3803 
L 500 4441 
Q 881 4594 1212 4672 
Q 1544 4750 1819 4750 
Q 2544 4750 2975 4387 
Q 3406 4025 3406 3419 
Q 3406 3131 3298 2873 
Q 3191 2616 2906 2266 
Q 2828 2175 2409 1742 
Q 1991 1309 1228 531 
z
" transform="scale(0.015625)"/>
        <path id="DejaVuSans-30" d="M 2034 4250 
Q 1547 4250 1301 3770 
Q 1056 3291 1056 2328 
Q 1056 1369 1301 889 
Q 1547 409 2034 409 
Q 2525 409 2770 889 
Q 3016 1369 3016 2328 
Q 3016 3291 2770 3770 
Q 2525 4250 2034 4250 
z
M 2034 4750 
Q 2819 4750 3233 4129 
Q 3647 3509 3647 2328 
Q 3647 1150 3233 529 
Q 2819 -91 2034 -91 
Q 1250 -91 836 529 
Q 422 1150 422 2328 
Q 422 3509 836 4129 
Q 1250 4750 2034 4750 
z
" transform="scale(0.015625)"/>
       </defs>
       <use xlink:href="#DejaVuSans-32"/>
       <use xlink:href="#DejaVuSans-30" x="63.623047"/>
      </g>
     </g>
    </g>
    <g id="xtick_2">
     <g id="line2d_3">
      <path d="M 109.731852 231.16 
L 109.731852 25.92 
" clip-path="url(#pf918c81abc)" style="fill: none; stroke: #d8dee9; stroke-opacity: 0.4; stroke-width: 0.8; stroke-linecap: square"/>
     </g>
     <g id="line2d_4">
      <g>
       <use xlink:href="#mfa62304947" x="109.731852" y="231.16" style="fill: #434c5e; stroke: #434c5e; stroke-width: 0.8"/>
      </g>
     </g>
     <g id="text_2">
      <!-- 25 -->
      <g style="fill: #434c5e" transform="translate(102.733102 246.518281) scale(0.11 -0.11)">
       <defs>
        <path id="DejaVuSans-35" d="M 691 4666 
L 3169 4666 
L 3169 4134 
L 1269 4134 
L 1269 2991 
Q 1406 3038 1543 3061 
Q 1681 3084 1819 3084 
Q 2600 3084 3056 2656 
Q 3513 2228 3513 1497 
Q 3513 744 3044 326 
Q 2575 -91 1722 -91 
Q 1428 -91 1123 -41 
Q 819 9 494 109 
L 494 744 
Q 775 591 1075 516 
Q 1375 441 1709 441 
Q 2250 441 2565 725 
Q 2881 1009 2881 1497 
Q 2881 1984 2565 2268 
Q 2250 2553 1709 2553 
Q 1456 2553 1204 2497 
Q 953 2441 691 2322 
L 691 4666 
z
" transform="scale(0.015625)"/>
       </defs>
       <use xlink:href="#DejaVuSans-32"/>
       <use xlink:href="#DejaVuSans-35" x="63.623047"/>
      </g>
     </g>
    </g>
    <g id="xtick_3">
     <g id="line2d_5">
      <path d="M 153.168889 231.16 
L 153.168889 25.92 
" clip-path="url(#pf918c81abc)" style="fill: none; stroke: #d8dee9; stroke-opacity: 0.4; stroke-width: 0.8; stroke-linecap: square"/>
     </g>
     <g id="line2d_6">
      <g>
       <use xlink:href="#mfa62304947" x="153.168889" y="231.16" style="fill: #434c5e; stroke: #434c5e; stroke-width: 0.8"/>
      </g>
     </g>
     <g id="text_3">
      <!-- 30 -->
      <g style="fill: #434c5e" transform="translate(146.170139 246.518281) scale(0.11 -0.11)">
       <defs>
        <path id="DejaVuSans-33" d="M 2597 2516 
Q 3050 2419 3304 2112 
Q 3559 1806 3559 1356 
Q 3559 666 3084 287 
Q 2609 -91 1734 -91 
Q 1441 -91 1130 -33 
Q 819 25 488 141 
L 488 750 
Q 750 597 1062 519 
Q 1375 441 1716 441 
Q 2309 441 2620 675 
Q 2931 909 2931 1356 
Q 2931 1769 2642 2001 
Q 2353 2234 1838 2234 
L 1294 2234 
L 1294 2753 
L 1863 2753 
Q 2328 2753 2575 2939 
Q 2822 3125 2822 3475 
Q 2822 3834 2567 4026 
Q 2313 4219 1838 4219 
Q 1578 4219 1281 4162 
Q 984 4106 628 3988 
L 628 4550 
Q 988 4650 1302 4700 
Q 1616 4750 1894 4750 
Q 2613 4750 3031 4423 
Q 3450 4097 3450 3541 
Q 3450 3153 3228 2886 
Q 3006 2619 2597 2516 
z
" transform="scale(0.015625)"/>
       </defs>
       <use xlink:href="#DejaVuSans-33"/>
       <use xlink:href="#DejaVuSans-30" x="63.623047"/>
      </g>
     </g>
    </g>
    <g id="xtick_4">
     <g id="line2d_7">
      <path d="M 196.605926 231.16 
L 196.605926 25.92 
" clip-path="url(#pf918c81abc)" style="fill: none; stroke: #d8dee9; stroke-opacity: 0.4; stroke-width: 0.8; stroke-linecap: square"/>
     </g>
     <g id="line2d_8">
      <g>
       <use xlink:href="#mfa62304947" x="196.605926" y="231.16" style="fill: #434c5e; stroke: #434c5e; stroke-width: 0.8"/>
      </g>
     </g>
     <g id="text_4">
      <!-- 35 -->
      <g style="fill: #434c5e" transform="translate(189.607176 246.518281) scale(0.11 -0.11)">
       <use xlink:href="#DejaVuSans-33"/>
       <use xlink:href="#DejaVuSans-35" x="63.623047"/>
      </g>
     </g>
    </g>
    <g id="xtick_5">
     <g id="line2d_9">
      <path d="M 240.042963 231.16 
L 240.042963 25.92 
" clip-path="url(#pf918c81abc)" style="fill: none; stroke: #d8dee9; stroke-opacity: 0.4; stroke-width: 0.8; stroke-linecap: square"/>
     </g>
     <g id="line2d_10">
      <g>
       <use xlink:href="#mfa62304947" x="240.042963" y="231.16" style="fill: #434c5e; stroke: #434c5e; stroke-width: 0.8"/>
      </g>
     </g>
     <g id="text_5">
      <!-- 40 -->
      <g style="fill: #434c5e" transform="translate(233.044213 246.518281) scale(0.11 -0.11)">
       <defs>
        <path id="DejaVuSans-34" d="M 2419 4116 
L 825 1625 
L 2419 1625 
L 2419 4116 
z
M 2253 4666 
L 3047 4666 
L 3047 1625 
L 3713 1625 
L 3713 1100 
L 3047 1100 
L 3047 0 
L 2419 0 
L 2419 1100 
L 313 1100 
L 313 1709 
L 2253 4666 
z
" transform="scale(0.015625)"/>
       </defs>
       <use xlink:href="#DejaVuSans-34"/>
       <use xlink:href="#DejaVuSans-30" x="63.623047"/>
      </g>
     </g>
    </g>
    <g id="xtick_6">
     <g id="line2d_11">
      <path d="M 283.48 231.16 
L 283.48 25.92 
" clip-path="url(#pf918c81abc)" style="fill: none; stroke: #d8dee9; stroke-opacity: 0.4; stroke-width: 0.8; stroke-linecap: square"/>
     </g>
     <g id="line2d_12">
      <g>
       <use xlink:href="#mfa62304947" x="283.48" y="231.16" style="fill: #434c5e; stroke: #434c5e; stroke-width: 0.8"/>
      </g>
     </g>
     <g id="text_6">
      <!-- 45 -->
      <g style="fill: #434c5e" transform="translate(276.48125 246.518281) scale(0.11 -0.11)">
       <use xlink:href="#DejaVuSans-34"/>
       <use xlink:href="#DejaVuSans-35" x="63.623047"/>
      </g>
     </g>
    </g>
    <g id="text_7">
     <!-- BMI (kg/m²) -->
     <g style="fill: #434c5e" transform="translate(136.860937 260.404375) scale(0.1 -0.1)">
      <defs>
       <path id="DejaVuSans-42" d="M 1259 2228 
L 1259 519 
L 2272 519 
Q 2781 519 3026 730 
Q 3272 941 3272 1375 
Q 3272 1813 3026 2020 
Q 2781 2228 2272 2228 
L 1259 2228 
z
M 1259 4147 
L 1259 2741 
L 2194 2741 
Q 2656 2741 2882 2914 
Q 3109 3088 3109 3444 
Q 3109 3797 2882 3972 
Q 2656 4147 2194 4147 
L 1259 4147 
z
M 628 4666 
L 2241 4666 
Q 2963 4666 3353 4366 
Q 3744 4066 3744 3513 
Q 3744 3084 3544 2831 
Q 3344 2578 2956 2516 
Q 3422 2416 3680 2098 
Q 3938 1781 3938 1306 
Q 3938 681 3513 340 
Q 3088 0 2303 0 
L 628 0 
L 628 4666 
z
" transform="scale(0.015625)"/>
       <path id="DejaVuSans-4d" d="M 628 4666 
L 1569 4666 
L 2759 1491 
L 3956 4666 
L 4897 4666 
L 4897 0 
L 4281 0 
L 4281 4097 
L 3078 897 
L 2444 897 
L 1241 4097 
L 1241 0 
L 628 0 
L 628 4666 
z
" transform="scale(0.015625)"/>
       <path id="DejaVuSans-49" d="M 628 4666 
L 1259 4666 
L 1259 0 
L 628 0 
L 628 4666 
z
" transform="scale(0.015625)"/>
       <path id="DejaVuSans-20" transform="scale(0.015625)"/>
       <path id="DejaVuSans-28" d="M 1984 4856 
Q 1566 4138 1362 3434 
Q 1159 2731 1159 2009 
Q 1159 1288 1364 580 
Q 1569 -128 1984 -844 
L 1484 -844 
Q 1016 -109 783 600 
Q 550 1309 550 2009 
Q 550 2706 781 3412 
Q 1013 4119 1484 4856 
L 1984 4856 
z
" transform="scale(0.015625)"/>
       <path id="DejaVuSans-6b" d="M 581 4863 
L 1159 4863 
L 1159 1991 
L 2875 3500 
L 3609 3500 
L 1753 1863 
L 3688 0 
L 2938 0 
L 1159 1709 
L 1159 0 
L 581 0 
L 581 4863 
z
" transform="scale(0.015625)"/>
       <path id="DejaVuSans-67" d="M 2906 1791 
Q 2906 2416 2648 2759 
Q 2391 3103 1925 3103 
Q 1463 3103 1205 2759 
Q 947 2416 947 1791 
Q 947 1169 1205 825 
Q 1463 481 1925 481 
Q 2391 481 2648 825 
Q 2906 1169 2906 1791 
z
M 3481 434 
Q 3481 -459 3084 -895 
Q 2688 -1331 1869 -1331 
Q 1566 -1331 1297 -1286 
Q 1028 -1241 775 -1147 
L 775 -588 
Q 1028 -725 1275 -790 
Q 1522 -856 1778 -856 
Q 2344 -856 2625 -561 
Q 2906 -266 2906 331 
L 2906 616 
Q 2728 306 2450 153 
Q 2172 0 1784 0 
Q 1141 0 747 490 
Q 353 981 353 1791 
Q 353 2603 747 3093 
Q 1141 3584 1784 3584 
Q 2172 3584 2450 3431 
Q 2728 3278 2906 2969 
L 2906 3500 
L 3481 3500 
L 3481 434 
z
" transform="scale(0.015625)"/>
       <path id="DejaVuSans-2f" d="M 1625 4666 
L 2156 4666 
L 531 -594 
L 0 -594 
L 1625 4666 
z
" transform="scale(0.015625)"/>
       <path id="DejaVuSans-6d" d="M 3328 2828 
Q 3544 3216 3844 3400 
Q 4144 3584 4550 3584 
Q 5097 3584 5394 3201 
Q 5691 2819 5691 2113 
L 5691 0 
L 5113 0 
L 5113 2094 
Q 5113 2597 4934 2840 
Q 4756 3084 4391 3084 
Q 3944 3084 3684 2787 
Q 3425 2491 3425 1978 
L 3425 0 
L 2847 0 
L 2847 2094 
Q 2847 2600 2669 2842 
Q 2491 3084 2119 3084 
Q 1678 3084 1418 2786 
Q 1159 2488 1159 1978 
L 1159 0 
L 581 0 
L 581 3500 
L 1159 3500 
L 1159 2956 
Q 1356 3278 1631 3431 
Q 1906 3584 2284 3584 
Q 2666 3584 2933 3390 
Q 3200 3197 3328 2828 
z
" transform="scale(0.015625)"/>
       <path id="DejaVuSans-b2" d="M 838 2444 
L 2163 2444 
L 2163 2088 
L 294 2088 
L 294 2431 
Q 400 2528 597 2703 
Q 1672 3656 1672 3950 
Q 1672 4156 1509 4282 
Q 1347 4409 1081 4409 
Q 919 4409 728 4354 
Q 538 4300 313 4191 
L 313 4575 
Q 553 4663 761 4706 
Q 969 4750 1147 4750 
Q 1600 4750 1872 4544 
Q 2144 4338 2144 4000 
Q 2144 3566 1109 2678 
Q 934 2528 838 2444 
z
" transform="scale(0.015625)"/>
       <path id="DejaVuSans-29" d="M 513 4856 
L 1013 4856 
Q 1481 4119 1714 3412 
Q 1947 2706 1947 2009 
Q 1947 1309 1714 600 
Q 1481 -109 1013 -844 
L 513 -844 
Q 928 -128 1133 580 
Q 1338 1288 1338 2009 
Q 1338 2731 1133 3434 
Q 928 4138 513 4856 
z
" transform="scale(0.015625)"/>
      </defs>
      <use xlink:href="#DejaVuSans-42"/>
      <use xlink:href="#DejaVuSans-4d" x="68.603516"/>
      <use xlink:href="#DejaVuSans-49" x="154.882812"/>
      <use xlink:href="#DejaVuSans-20" x="184.375"/>
      <use xlink:href="#DejaVuSans-28" x="216.162109"/>
      <use xlink:href="#DejaVuSans-6b" x="255.175781"/>
      <use xlink:href="#DejaVuSans-67" x="313.085938"/>
      <use xlink:href="#DejaVuSans-2f" x="376.5625"/>
      <use xlink:href="#DejaVuSans-6d" x="410.253906"/>
      <use xlink:href="#DejaVuSans-b2" x="507.666016"/>
      <use xlink:href="#DejaVuSans-29" x="547.753906"/>
     </g>
    </g>
   </g>
   <g id="matplotlib.axis_2">
    <g id="ytick_1">
     <g id="line2d_13">
      <path d="M 48.92 231.16 
L 283.48 231.16 
" clip-path="url(#pf918c81abc)" style="fill: none; stroke: #d8dee9; stroke-opacity: 0.4; stroke-width: 0.8; stroke-linecap: square"/>
     </g>
     <g id="line2d_14">
      <defs>
       <path id="m9493532846" d="M 0 0 
L -3.5 0 
" style="stroke: #434c5e; stroke-width: 0.8"/>
      </defs>
      <g>
       <use xlink:href="#m9493532846" x="48.92" y="231.16" style="fill: #434c5e; stroke: #434c5e; stroke-width: 0.8"/>
      </g>
     </g>
     <g id="text_8">
      <!-- 0.0 -->
      <g style="fill: #434c5e" transform="translate(24.426563 235.339141) scale(0.11 -0.11)">
       <defs>
        <path id="DejaVuSans-2e" d="M 684 794 
L 1344 794 
L 1344 0 
L 684 0 
L 684 794 
z
" transform="scale(0.015625)"/>
       </defs>
       <use xlink:href="#DejaVuSans-30"/>
       <use xlink:href="#DejaVuSans-2e" x="63.623047"/>
       <use xlink:href="#DejaVuSans-30" x="95.410156"/>
      </g>
     </g>
    </g>
    <g id="ytick_2">
     <g id="line2d_15">
      <path d="M 48.92 190.112 
L 283.48 190.112 
" clip-path="url(#pf918c81abc)" style="fill: none; stroke: #d8dee9; stroke-opacity: 0.4; stroke-width: 0.8; stroke-linecap: square"/>
     </g>
     <g id="line2d_16">
      <g>
       <use xlink:href="#m9493532846" x="48.92" y="190.112" style="fill: #434c5e; stroke: #434c5e; stroke-width: 0.8"/>
      </g>
     </g>
     <g id="text_9">
      <!-- 0.1 -->
      <g style="fill: #434c5e" transform="translate(24.426563 194.291141) scale(0.11 -0.11)">
       <defs>
        <path id="DejaVuSans-31" d="M 794 531 
L 1825 531 
L 1825 4091 
L 703 3866 
L 703 4441 
L 1819 4666 
L 2450 4666 
L 2450 531 
L 3481 531 
L 3481 0 
L 794 0 
L 794 531 
z
" transform="scale(0.015625)"/>
       </defs>
       <use xlink:href="#DejaVuSans-30"/>
       <use xlink:href="#DejaVuSans-2e" x="63.623047"/>
       <use xlink:href="#DejaVuSans-31" x="95.410156"/>
      </g>
     </g>
    </g>
    <g id="ytick_3">
     <g id="line2d_17">
      <path d="M 48.92 149.064 
L 283.48 149.064 
" clip-path="url(#pf918c81abc)" style="fill: none; stroke: #d8dee9; stroke-opacity: 0.4; stroke-width: 0.8; stroke-linecap: square"/>
     </g>
     <g id="line2d_18">
      <g>
       <use xlink:href="#m9493532846" x="48.92" y="149.064" style="fill: #434c5e; stroke: #434c5e; stroke-width: 0.8"/>
      </g>
     </g>
     <g id="text_10">
      <!-- 0.2 -->
      <g style="fill: #434c5e" transform="translate(24.426563 153.243141) scale(0.11 -0.11)">
       <use xlink:href="#DejaVuSans-30"/>
       <use xlink:href="#DejaVuSans-2e" x="63.623047"/>
       <use xlink:href="#DejaVuSans-32" x="95.410156"/>
      </g>
     </g>
    </g>
    <g id="ytick_4">
     <g id="line2d_19">
      <path d="M 48.92 108.016 
L 283.48 108.016 
" clip-path="url(#pf918c81abc)" style="fill: none; stroke: #d8dee9; stroke-opacity: 0.4; stroke-width: 0.8; stroke-linecap: square"/>
     </g>
     <g id="line2d_20">
      <g>
       <use xlink:href="#m9493532846" x="48.92" y="108.016" style="fill: #434c5e; stroke: #434c5e; stroke-width: 0.8"/>
      </g>
     </g>
     <g id="text_11">
      <!-- 0.3 -->
      <g style="fill: #434c5e" transform="translate(24.426563 112.195141) scale(0.11 -0.11)">
       <use xlink:href="#DejaVuSans-30"/>
       <use xlink:href="#DejaVuSans-2e" x="63.623047"/>
       <use xlink:href="#DejaVuSans-33" x="95.410156"/>
      </g>
     </g>
    </g>
    <g id="ytick_5">
     <g id="line2d_21">
      <path d="M 48.92 66.968 
L 283.48 66.968 
" clip-path="url(#pf918c81abc)" style="fill: none; stroke: #d8dee9; stroke-opacity: 0.4; stroke-width: 0.8; stroke-linecap: square"/>
     </g>
     <g id="line2d_22">
      <g>
       <use xlink:href="#m9493532846" x="48.92" y="66.968" style="fill: #434c5e; stroke: #434c5e; stroke-width: 0.8"/>
      </g>
     </g>
     <g id="text_12">
      <!-- 0.4 -->
      <g style="fill: #434c5e" transform="translate(24.426563 71.147141) scale(0.11 -0.11)">
       <use xlink:href="#DejaVuSans-30"/>
       <use xlink:href="#DejaVuSans-2e" x="63.623047"/>
       <use xlink:href="#DejaVuSans-34" x="95.410156"/>
      </g>
     </g>
    </g>
    <g id="ytick_6">
     <g id="line2d_23">
      <path d="M 48.92 25.92 
L 283.48 25.92 
" clip-path="url(#pf918c81abc)" style="fill: none; stroke: #d8dee9; stroke-opacity: 0.4; stroke-width: 0.8; stroke-linecap: square"/>
     </g>
     <g id="line2d_24">
      <g>
       <use xlink:href="#m9493532846" x="48.92" y="25.92" style="fill: #434c5e; stroke: #434c5e; stroke-width: 0.8"/>
      </g>
     </g>
     <g id="text_13">
      <!-- 0.5 -->
      <g style="fill: #434c5e" transform="translate(24.426563 30.099141) scale(0.11 -0.11)">
       <use xlink:href="#DejaVuSans-30"/>
       <use xlink:href="#DejaVuSans-2e" x="63.623047"/>
       <use xlink:href="#DejaVuSans-35" x="95.410156"/>
      </g>
     </g>
    </g>
    <g id="text_14">
     <!-- Probabilité BP -->
     <g style="fill: #434c5e" transform="translate(18.346875 163.120469) rotate(-90) scale(0.1 -0.1)">
      <defs>
       <path id="DejaVuSans-50" d="M 1259 4147 
L 1259 2394 
L 2053 2394 
Q 2494 2394 2734 2622 
Q 2975 2850 2975 3272 
Q 2975 3691 2734 3919 
Q 2494 4147 2053 4147 
L 1259 4147 
z
M 628 4666 
L 2053 4666 
Q 2838 4666 3239 4311 
Q 3641 3956 3641 3272 
Q 3641 2581 3239 2228 
Q 2838 1875 2053 1875 
L 1259 1875 
L 1259 0 
L 628 0 
L 628 4666 
z
" transform="scale(0.015625)"/>
       <path id="DejaVuSans-72" d="M 2631 2963 
Q 2534 3019 2420 3045 
Q 2306 3072 2169 3072 
Q 1681 3072 1420 2755 
Q 1159 2438 1159 1844 
L 1159 0 
L 581 0 
L 581 3500 
L 1159 3500 
L 1159 2956 
Q 1341 3275 1631 3429 
Q 1922 3584 2338 3584 
Q 2397 3584 2469 3576 
Q 2541 3569 2628 3553 
L 2631 2963 
z
" transform="scale(0.015625)"/>
       <path id="DejaVuSans-6f" d="M 1959 3097 
Q 1497 3097 1228 2736 
Q 959 2375 959 1747 
Q 959 1119 1226 758 
Q 1494 397 1959 397 
Q 2419 397 2687 759 
Q 2956 1122 2956 1747 
Q 2956 2369 2687 2733 
Q 2419 3097 1959 3097 
z
M 1959 3584 
Q 2709 3584 3137 3096 
Q 3566 2609 3566 1747 
Q 3566 888 3137 398 
Q 2709 -91 1959 -91 
Q 1206 -91 779 398 
Q 353 888 353 1747 
Q 353 2609 779 3096 
Q 1206 3584 1959 3584 
z
" transform="scale(0.015625)"/>
       <path id="DejaVuSans-62" d="M 3116 1747 
Q 3116 2381 2855 2742 
Q 2594 3103 2138 3103 
Q 1681 3103 1420 2742 
Q 1159 2381 1159 1747 
Q 1159 1113 1420 752 
Q 1681 391 2138 391 
Q 2594 391 2855 752 
Q 3116 1113 3116 1747 
z
M 1159 2969 
Q 1341 3281 1617 3432 
Q 1894 3584 2278 3584 
Q 2916 3584 3314 3078 
Q 3713 2572 3713 1747 
Q 3713 922 3314 415 
Q 2916 -91 2278 -91 
Q 1894 -91 1617 61 
Q 1341 213 1159 525 
L 1159 0 
L 581 0 
L 581 4863 
L 1159 4863 
L 1159 2969 
z
" transform="scale(0.015625)"/>
       <path id="DejaVuSans-61" d="M 2194 1759 
Q 1497 1759 1228 1600 
Q 959 1441 959 1056 
Q 959 750 1161 570 
Q 1363 391 1709 391 
Q 2188 391 2477 730 
Q 2766 1069 2766 1631 
L 2766 1759 
L 2194 1759 
z
M 3341 1997 
L 3341 0 
L 2766 0 
L 2766 531 
Q 2569 213 2275 61 
Q 1981 -91 1556 -91 
Q 1019 -91 701 211 
Q 384 513 384 1019 
Q 384 1609 779 1909 
Q 1175 2209 1959 2209 
L 2766 2209 
L 2766 2266 
Q 2766 2663 2505 2880 
Q 2244 3097 1772 3097 
Q 1472 3097 1187 3025 
Q 903 2953 641 2809 
L 641 3341 
Q 956 3463 1253 3523 
Q 1550 3584 1831 3584 
Q 2591 3584 2966 3190 
Q 3341 2797 3341 1997 
z
" transform="scale(0.015625)"/>
       <path id="DejaVuSans-69" d="M 603 3500 
L 1178 3500 
L 1178 0 
L 603 0 
L 603 3500 
z
M 603 4863 
L 1178 4863 
L 1178 4134 
L 603 4134 
L 603 4863 
z
" transform="scale(0.015625)"/>
       <path id="DejaVuSans-6c" d="M 603 4863 
L 1178 4863 
L 1178 0 
L 603 0 
L 603 4863 
z
" transform="scale(0.015625)"/>
       <path id="DejaVuSans-74" d="M 1172 4494 
L 1172 3500 
L 2356 3500 
L 2356 3053 
L 1172 3053 
L 1172 1153 
Q 1172 725 1289 603 
Q 1406 481 1766 481 
L 2356 481 
L 2356 0 
L 1766 0 
Q 1100 0 847 248 
Q 594 497 594 1153 
L 594 3053 
L 172 3053 
L 172 3500 
L 594 3500 
L 594 4494 
L 1172 4494 
z
" transform="scale(0.015625)"/>
       <path id="DejaVuSans-e9" d="M 3597 1894 
L 3597 1613 
L 953 1613 
Q 991 1019 1311 708 
Q 1631 397 2203 397 
Q 2534 397 2845 478 
Q 3156 559 3463 722 
L 3463 178 
Q 3153 47 2828 -22 
Q 2503 -91 2169 -91 
Q 1331 -91 842 396 
Q 353 884 353 1716 
Q 353 2575 817 3079 
Q 1281 3584 2069 3584 
Q 2775 3584 3186 3129 
Q 3597 2675 3597 1894 
z
M 3022 2063 
Q 3016 2534 2758 2815 
Q 2500 3097 2075 3097 
Q 1594 3097 1305 2825 
Q 1016 2553 972 2059 
L 3022 2063 
z
M 2466 5119 
L 3088 5119 
L 2070 3944 
L 1591 3944 
L 2466 5119 
z
" transform="scale(0.015625)"/>
      </defs>
      <use xlink:href="#DejaVuSans-50"/>
      <use xlink:href="#DejaVuSans-72" x="58.552734"/>
      <use xlink:href="#DejaVuSans-6f" x="97.416016"/>
      <use xlink:href="#DejaVuSans-62" x="158.597656"/>
      <use xlink:href="#DejaVuSans-61" x="222.074219"/>
      <use xlink:href="#DejaVuSans-62" x="283.353516"/>
      <use xlink:href="#DejaVuSans-69" x="346.830078"/>
      <use xlink:href="#DejaVuSans-6c" x="374.613281"/>
      <use xlink:href="#DejaVuSans-69" x="402.396484"/>
      <use xlink:href="#DejaVuSans-74" x="430.179688"/>
      <use xlink:href="#DejaVuSans-e9" x="469.388672"/>
      <use xlink:href="#DejaVuSans-20" x="530.912109"/>
      <use xlink:href="#DejaVuSans-42" x="562.699219"/>
      <use xlink:href="#DejaVuSans-50" x="631.302734"/>
     </g>
    </g>
   </g>
   <g id="line2d_25">
    <path d="M 48.92 101.278017 
L 64.243015 108.880749 
L 79.56603 116.228403 
L 93.710352 122.772669 
L 107.854673 129.079432 
L 121.998995 135.142119 
L 136.143317 140.956092 
L 150.287638 146.518555 
L 164.43196 151.828445 
L 178.576281 156.886309 
L 192.720603 161.694165 
L 206.864925 166.25535 
L 221.009246 170.574375 
L 235.153568 174.656766 
L 249.297889 178.508917 
L 263.442211 182.137941 
L 277.586533 185.551537 
L 283.48 186.912212 
L 283.48 186.912212 
" clip-path="url(#pf918c81abc)" style="fill: none; stroke: #5e81ac; stroke-width: 1.5; stroke-linecap: square"/>
   </g>
   <g id="patch_3">
    <path d="M 48.92 231.16 
L 48.92 25.92 
" style="fill: none; stroke: #434c5e; stroke-width: 0.8; stroke-linejoin: miter; stroke-linecap: square"/>
   </g>
   <g id="patch_4">
    <path d="M 283.48 231.16 
L 283.48 25.92 
" style="fill: none; stroke: #434c5e; stroke-width: 0.8; stroke-linejoin: miter; stroke-linecap: square"/>
   </g>
   <g id="patch_5">
    <path d="M 48.92 231.16 
L 283.48 231.16 
" style="fill: none; stroke: #434c5e; stroke-width: 0.8; stroke-linejoin: miter; stroke-linecap: square"/>
   </g>
   <g id="patch_6">
    <path d="M 48.92 25.92 
L 283.48 25.92 
" style="fill: none; stroke: #434c5e; stroke-width: 0.8; stroke-linejoin: miter; stroke-linecap: square"/>
   </g>
   <g id="text_15">
    <!-- Low -->
    <g style="fill: #4c566a" transform="translate(154.38375 19.92) scale(0.12 -0.12)">
     <defs>
      <path id="DejaVuSans-4c" d="M 628 4666 
L 1259 4666 
L 1259 531 
L 3531 531 
L 3531 0 
L 628 0 
L 628 4666 
z
" transform="scale(0.015625)"/>
      <path id="DejaVuSans-77" d="M 269 3500 
L 844 3500 
L 1563 769 
L 2278 3500 
L 2956 3500 
L 3675 769 
L 4391 3500 
L 4966 3500 
L 4050 0 
L 3372 0 
L 2619 2869 
L 1863 0 
L 1184 0 
L 269 3500 
z
" transform="scale(0.015625)"/>
     </defs>
     <use xlink:href="#DejaVuSans-4c"/>
     <use xlink:href="#DejaVuSans-6f" x="53.962891"/>
     <use xlink:href="#DejaVuSans-77" x="115.144531"/>
    </g>
   </g>
  </g>
  <g id="axes_2">
   <g id="patch_7">
    <path d="M 297.78 231.16 
L 532.34 231.16 
L 532.34 25.92 
L 297.78 25.92 
z
" style="fill: #ffffff"/>
   </g>
   <g id="PolyCollection_2">
    <defs>
     <path id="me2afb334c7" d="M 297.78 -208.56235 
L 297.78 -146.943152 
L 298.958693 -146.574978 
L 300.137387 -146.206301 
L 301.31608 -145.837111 
L 302.494774 -145.467394 
L 303.673467 -145.097141 
L 304.852161 -144.72634 
L 306.030854 -144.35498 
L 307.209548 -143.983051 
L 308.388241 -143.610542 
L 309.566935 -143.237442 
L 310.745628 -142.863742 
L 311.924322 -142.489432 
L 313.103015 -142.114502 
L 314.281709 -141.738944 
L 315.460402 -141.362747 
L 316.639095 -140.985904 
L 317.817789 -140.608406 
L 318.996482 -140.230244 
L 320.175176 -139.851412 
L 321.353869 -139.471902 
L 322.532563 -139.091706 
L 323.711256 -138.710819 
L 324.88995 -138.329233 
L 326.068643 -137.946943 
L 327.247337 -137.563944 
L 328.42603 -137.180229 
L 329.604724 -136.795795 
L 330.783417 -136.410638 
L 331.962111 -136.024753 
L 333.140804 -135.638138 
L 334.319497 -135.25079 
L 335.498191 -134.862705 
L 336.676884 -134.473884 
L 337.855578 -134.084323 
L 339.034271 -133.694024 
L 340.212965 -133.302984 
L 341.391658 -132.911206 
L 342.570352 -132.518689 
L 343.749045 -132.125435 
L 344.927739 -131.731447 
L 346.106432 -131.336726 
L 347.285126 -130.941277 
L 348.463819 -130.545103 
L 349.642513 -130.148208 
L 350.821206 -129.750599 
L 351.999899 -129.35228 
L 353.178593 -128.953258 
L 354.357286 -128.553539 
L 355.53598 -128.153133 
L 356.714673 -127.752046 
L 357.893367 -127.350289 
L 359.07206 -126.947869 
L 360.250754 -126.544799 
L 361.429447 -126.141088 
L 362.608141 -125.736749 
L 363.786834 -125.331793 
L 364.965528 -124.926234 
L 366.144221 -124.520084 
L 367.322915 -124.113358 
L 368.501608 -123.706071 
L 369.680302 -123.298238 
L 370.858995 -122.889876 
L 372.037688 -122.480999 
L 373.216382 -122.071627 
L 374.395075 -121.661777 
L 375.573769 -121.251466 
L 376.752462 -120.840715 
L 377.931156 -120.429542 
L 379.109849 -120.017968 
L 380.288543 -119.606013 
L 381.467236 -119.193698 
L 382.64593 -118.781045 
L 383.824623 -118.368076 
L 385.003317 -117.954813 
L 386.18201 -117.541279 
L 387.360704 -117.127498 
L 388.539397 -116.713494 
L 389.71809 -116.299291 
L 390.896784 -115.884913 
L 392.075477 -115.470385 
L 393.254171 -115.055733 
L 394.432864 -114.640982 
L 395.611558 -114.226158 
L 396.790251 -113.811288 
L 397.968945 -113.396397 
L 399.147638 -112.981512 
L 400.326332 -112.566661 
L 401.505025 -112.15187 
L 402.683719 -111.737166 
L 403.862412 -111.322577 
L 405.041106 -110.90813 
L 406.219799 -110.493854 
L 407.398492 -110.079775 
L 408.577186 -109.665921 
L 409.755879 -109.252321 
L 410.934573 -108.839001 
L 412.113266 -108.425991 
L 413.29196 -108.013317 
L 414.470653 -107.601008 
L 415.649347 -107.189091 
L 416.82804 -106.777594 
L 418.006734 -106.366545 
L 419.185427 -105.955971 
L 420.364121 -105.545899 
L 421.542814 -105.136357 
L 422.721508 -104.727372 
L 423.900201 -104.318971 
L 425.078894 -103.91118 
L 426.257588 -103.504026 
L 427.436281 -103.097535 
L 428.614975 -102.691734 
L 429.793668 -102.286649 
L 430.972362 -101.882304 
L 432.151055 -101.478727 
L 433.329749 -101.07594 
L 434.508442 -100.67397 
L 435.687136 -100.272842 
L 436.865829 -99.872578 
L 438.044523 -99.473204 
L 439.223216 -99.074742 
L 440.40191 -98.677217 
L 441.580603 -98.280651 
L 442.759296 -97.885067 
L 443.93799 -97.490487 
L 445.116683 -97.096933 
L 446.295377 -96.704427 
L 447.47407 -96.312989 
L 448.652764 -95.922642 
L 449.831457 -95.533405 
L 451.010151 -95.145299 
L 452.188844 -94.758343 
L 453.367538 -94.372557 
L 454.546231 -93.98796 
L 455.724925 -93.60457 
L 456.903618 -93.222406 
L 458.082312 -92.841486 
L 459.261005 -92.461827 
L 460.439698 -92.083446 
L 461.618392 -91.70636 
L 462.797085 -91.330586 
L 463.975779 -90.956139 
L 465.154472 -90.583036 
L 466.333166 -90.211291 
L 467.511859 -89.840918 
L 468.690553 -89.471934 
L 469.869246 -89.104351 
L 471.04794 -88.738184 
L 472.226633 -88.373446 
L 473.405327 -88.010149 
L 474.58402 -87.648307 
L 475.762714 -87.287932 
L 476.941407 -86.929035 
L 478.120101 -86.571629 
L 479.298794 -86.215723 
L 480.477487 -85.86133 
L 481.656181 -85.50846 
L 482.834874 -85.157122 
L 484.013568 -84.807327 
L 485.192261 -84.459084 
L 486.370955 -84.112402 
L 487.549648 -83.767291 
L 488.728342 -83.423757 
L 489.907035 -83.08181 
L 491.085729 -82.741458 
L 492.264422 -82.402707 
L 493.443116 -82.065566 
L 494.621809 -81.73004 
L 495.800503 -81.396137 
L 496.979196 -81.063863 
L 498.157889 -80.733224 
L 499.336583 -80.404225 
L 500.515276 -80.076873 
L 501.69397 -79.751171 
L 502.872663 -79.427126 
L 504.051357 -79.104741 
L 505.23005 -78.78402 
L 506.408744 -78.464969 
L 507.587437 -78.14759 
L 508.766131 -77.831888 
L 509.944824 -77.517865 
L 511.123518 -77.205525 
L 512.302211 -76.89487 
L 513.480905 -76.585903 
L 514.659598 -76.278626 
L 515.838291 -75.973041 
L 517.016985 -75.669151 
L 518.195678 -75.366956 
L 519.374372 -75.066458 
L 520.553065 -74.767659 
L 521.731759 -74.470559 
L 522.910452 -74.175159 
L 524.089146 -73.88146 
L 525.267839 -73.589462 
L 526.446533 -73.299165 
L 527.625226 -73.010569 
L 528.80392 -72.723674 
L 529.982613 -72.438479 
L 531.161307 -72.154985 
L 532.34 -71.873189 
L 532.34 -114.924154 
L 532.34 -114.924154 
L 531.161307 -115.205936 
L 529.982613 -115.48865 
L 528.80392 -115.772303 
L 527.625226 -116.056901 
L 526.446533 -116.342451 
L 525.267839 -116.628958 
L 524.089146 -116.916431 
L 522.910452 -117.204876 
L 521.731759 -117.4943 
L 520.553065 -117.78471 
L 519.374372 -118.076115 
L 518.195678 -118.368521 
L 517.016985 -118.661937 
L 515.838291 -118.956371 
L 514.659598 -119.25183 
L 513.480905 -119.548323 
L 512.302211 -119.845859 
L 511.123518 -120.144446 
L 509.944824 -120.444093 
L 508.766131 -120.744809 
L 507.587437 -121.046603 
L 506.408744 -121.349486 
L 505.23005 -121.653466 
L 504.051357 -121.958553 
L 502.872663 -122.264758 
L 501.69397 -122.572091 
L 500.515276 -122.880562 
L 499.336583 -123.190182 
L 498.157889 -123.500962 
L 496.979196 -123.812913 
L 495.800503 -124.126047 
L 494.621809 -124.440374 
L 493.443116 -124.755907 
L 492.264422 -125.072659 
L 491.085729 -125.390641 
L 489.907035 -125.709865 
L 488.728342 -126.030345 
L 487.549648 -126.352094 
L 486.370955 -126.675125 
L 485.192261 -126.999452 
L 484.013568 -127.325088 
L 482.834874 -127.652048 
L 481.656181 -127.980346 
L 480.477487 -128.309996 
L 479.298794 -128.641013 
L 478.120101 -128.973413 
L 476.941407 -129.307212 
L 475.762714 -129.642424 
L 474.58402 -129.979065 
L 473.405327 -130.317153 
L 472.226633 -130.656704 
L 471.04794 -130.997733 
L 469.869246 -131.34026 
L 468.690553 -131.684301 
L 467.511859 -132.029873 
L 466.333166 -132.376995 
L 465.154472 -132.725686 
L 463.975779 -133.075963 
L 462.797085 -133.427846 
L 461.618392 -133.781353 
L 460.439698 -134.136505 
L 459.261005 -134.493321 
L 458.082312 -134.851822 
L 456.903618 -135.212027 
L 455.724925 -135.573957 
L 454.546231 -135.937634 
L 453.367538 -136.303078 
L 452.188844 -136.670312 
L 451.010151 -137.039356 
L 449.831457 -137.410234 
L 448.652764 -137.782966 
L 447.47407 -138.157577 
L 446.295377 -138.53409 
L 445.116683 -138.912526 
L 443.93799 -139.29291 
L 442.759296 -139.675266 
L 441.580603 -140.059618 
L 440.40191 -140.445989 
L 439.223216 -140.834405 
L 438.044523 -141.224889 
L 436.865829 -141.617468 
L 435.687136 -142.012166 
L 434.508442 -142.409009 
L 433.329749 -142.808021 
L 432.151055 -143.20923 
L 430.972362 -143.612661 
L 429.793668 -144.018339 
L 428.614975 -144.426292 
L 427.436281 -144.836546 
L 426.257588 -145.249127 
L 425.078894 -145.664063 
L 423.900201 -146.081379 
L 422.721508 -146.501103 
L 421.542814 -146.923262 
L 420.364121 -147.347883 
L 419.185427 -147.774993 
L 418.006734 -148.204619 
L 416.82804 -148.636789 
L 415.649347 -149.071529 
L 414.470653 -149.508867 
L 413.29196 -149.948829 
L 412.113266 -150.391444 
L 410.934573 -150.836738 
L 409.755879 -151.284737 
L 408.577186 -151.735469 
L 407.398492 -152.188961 
L 406.219799 -152.645239 
L 405.041106 -153.104329 
L 403.862412 -153.566257 
L 402.683719 -154.03105 
L 401.505025 -154.498733 
L 400.326332 -154.969332 
L 399.147638 -155.442872 
L 397.968945 -155.919377 
L 396.790251 -156.398873 
L 395.611558 -156.881384 
L 394.432864 -157.366933 
L 393.254171 -157.855545 
L 392.075477 -158.347242 
L 390.896784 -158.842046 
L 389.71809 -159.339981 
L 388.539397 -159.841068 
L 387.360704 -160.345328 
L 386.18201 -160.852783 
L 385.003317 -161.363451 
L 383.824623 -161.877354 
L 382.64593 -162.39451 
L 381.467236 -162.914937 
L 380.288543 -163.438655 
L 379.109849 -163.965679 
L 377.931156 -164.496027 
L 376.752462 -165.029716 
L 375.573769 -165.566759 
L 374.395075 -166.107173 
L 373.216382 -166.65097 
L 372.037688 -167.198165 
L 370.858995 -167.74877 
L 369.680302 -168.302797 
L 368.501608 -168.860257 
L 367.322915 -169.42116 
L 366.144221 -169.985517 
L 364.965528 -170.553335 
L 363.786834 -171.124624 
L 362.608141 -171.699389 
L 361.429447 -172.277639 
L 360.250754 -172.859379 
L 359.07206 -173.444614 
L 357.893367 -174.033347 
L 356.714673 -174.625583 
L 355.53598 -175.221323 
L 354.357286 -175.820571 
L 353.178593 -176.423326 
L 351.999899 -177.029589 
L 350.821206 -177.63936 
L 349.642513 -178.252636 
L 348.463819 -178.869417 
L 347.285126 -179.489699 
L 346.106432 -180.113479 
L 344.927739 -180.740751 
L 343.749045 -181.371512 
L 342.570352 -182.005754 
L 341.391658 -182.643472 
L 340.212965 -183.284657 
L 339.034271 -183.929303 
L 337.855578 -184.5774 
L 336.676884 -185.228938 
L 335.498191 -185.883908 
L 334.319497 -186.542298 
L 333.140804 -187.204098 
L 331.962111 -187.869294 
L 330.783417 -188.537874 
L 329.604724 -189.209825 
L 328.42603 -189.885132 
L 327.247337 -190.563781 
L 326.068643 -191.245757 
L 324.88995 -191.931043 
L 323.711256 -192.619624 
L 322.532563 -193.311482 
L 321.353869 -194.006599 
L 320.175176 -194.704959 
L 318.996482 -195.406542 
L 317.817789 -196.111329 
L 316.639095 -196.819301 
L 315.460402 -197.530437 
L 314.281709 -198.244718 
L 313.103015 -198.962122 
L 311.924322 -199.682628 
L 310.745628 -200.406215 
L 309.566935 -201.132859 
L 308.388241 -201.862539 
L 307.209548 -202.595232 
L 306.030854 -203.330913 
L 304.852161 -204.069561 
L 303.673467 -204.811149 
L 302.494774 -205.555655 
L 301.31608 -206.303053 
L 300.137387 -207.053319 
L 298.958693 -207.806426 
L 297.78 -208.56235 
z
" style="stroke: #d08770; stroke-opacity: 0.15"/>
    </defs>
    <g clip-path="url(#pf80c0b5dad)">
     <use xlink:href="#me2afb334c7" x="0" y="273.6" style="fill: #d08770; fill-opacity: 0.15; stroke: #d08770; stroke-opacity: 0.15"/>
    </g>
   </g>
   <g id="matplotlib.axis_3">
    <g id="xtick_7">
     <g id="line2d_26">
      <path d="M 315.154815 231.16 
L 315.154815 25.92 
" clip-path="url(#pf80c0b5dad)" style="fill: none; stroke: #d8dee9; stroke-opacity: 0.4; stroke-width: 0.8; stroke-linecap: square"/>
     </g>
     <g id="line2d_27">
      <g>
       <use xlink:href="#mfa62304947" x="315.154815" y="231.16" style="fill: #434c5e; stroke: #434c5e; stroke-width: 0.8"/>
      </g>
     </g>
     <g id="text_16">
      <!-- 20 -->
      <g style="fill: #434c5e" transform="translate(308.156065 246.518281) scale(0.11 -0.11)">
       <use xlink:href="#DejaVuSans-32"/>
       <use xlink:href="#DejaVuSans-30" x="63.623047"/>
      </g>
     </g>
    </g>
    <g id="xtick_8">
     <g id="line2d_28">
      <path d="M 358.591852 231.16 
L 358.591852 25.92 
" clip-path="url(#pf80c0b5dad)" style="fill: none; stroke: #d8dee9; stroke-opacity: 0.4; stroke-width: 0.8; stroke-linecap: square"/>
     </g>
     <g id="line2d_29">
      <g>
       <use xlink:href="#mfa62304947" x="358.591852" y="231.16" style="fill: #434c5e; stroke: #434c5e; stroke-width: 0.8"/>
      </g>
     </g>
     <g id="text_17">
      <!-- 25 -->
      <g style="fill: #434c5e" transform="translate(351.593102 246.518281) scale(0.11 -0.11)">
       <use xlink:href="#DejaVuSans-32"/>
       <use xlink:href="#DejaVuSans-35" x="63.623047"/>
      </g>
     </g>
    </g>
    <g id="xtick_9">
     <g id="line2d_30">
      <path d="M 402.028889 231.16 
L 402.028889 25.92 
" clip-path="url(#pf80c0b5dad)" style="fill: none; stroke: #d8dee9; stroke-opacity: 0.4; stroke-width: 0.8; stroke-linecap: square"/>
     </g>
     <g id="line2d_31">
      <g>
       <use xlink:href="#mfa62304947" x="402.028889" y="231.16" style="fill: #434c5e; stroke: #434c5e; stroke-width: 0.8"/>
      </g>
     </g>
     <g id="text_18">
      <!-- 30 -->
      <g style="fill: #434c5e" transform="translate(395.030139 246.518281) scale(0.11 -0.11)">
       <use xlink:href="#DejaVuSans-33"/>
       <use xlink:href="#DejaVuSans-30" x="63.623047"/>
      </g>
     </g>
    </g>
    <g id="xtick_10">
     <g id="line2d_32">
      <path d="M 445.465926 231.16 
L 445.465926 25.92 
" clip-path="url(#pf80c0b5dad)" style="fill: none; stroke: #d8dee9; stroke-opacity: 0.4; stroke-width: 0.8; stroke-linecap: square"/>
     </g>
     <g id="line2d_33">
      <g>
       <use xlink:href="#mfa62304947" x="445.465926" y="231.16" style="fill: #434c5e; stroke: #434c5e; stroke-width: 0.8"/>
      </g>
     </g>
     <g id="text_19">
      <!-- 35 -->
      <g style="fill: #434c5e" transform="translate(438.467176 246.518281) scale(0.11 -0.11)">
       <use xlink:href="#DejaVuSans-33"/>
       <use xlink:href="#DejaVuSans-35" x="63.623047"/>
      </g>
     </g>
    </g>
    <g id="xtick_11">
     <g id="line2d_34">
      <path d="M 488.902963 231.16 
L 488.902963 25.92 
" clip-path="url(#pf80c0b5dad)" style="fill: none; stroke: #d8dee9; stroke-opacity: 0.4; stroke-width: 0.8; stroke-linecap: square"/>
     </g>
     <g id="line2d_35">
      <g>
       <use xlink:href="#mfa62304947" x="488.902963" y="231.16" style="fill: #434c5e; stroke: #434c5e; stroke-width: 0.8"/>
      </g>
     </g>
     <g id="text_20">
      <!-- 40 -->
      <g style="fill: #434c5e" transform="translate(481.904213 246.518281) scale(0.11 -0.11)">
       <use xlink:href="#DejaVuSans-34"/>
       <use xlink:href="#DejaVuSans-30" x="63.623047"/>
      </g>
     </g>
    </g>
    <g id="xtick_12">
     <g id="line2d_36">
      <path d="M 532.34 231.16 
L 532.34 25.92 
" clip-path="url(#pf80c0b5dad)" style="fill: none; stroke: #d8dee9; stroke-opacity: 0.4; stroke-width: 0.8; stroke-linecap: square"/>
     </g>
     <g id="line2d_37">
      <g>
       <use xlink:href="#mfa62304947" x="532.34" y="231.16" style="fill: #434c5e; stroke: #434c5e; stroke-width: 0.8"/>
      </g>
     </g>
     <g id="text_21">
      <!-- 45 -->
      <g style="fill: #434c5e" transform="translate(525.34125 246.518281) scale(0.11 -0.11)">
       <use xlink:href="#DejaVuSans-34"/>
       <use xlink:href="#DejaVuSans-35" x="63.623047"/>
      </g>
     </g>
    </g>
    <g id="text_22">
     <!-- BMI (kg/m²) -->
     <g style="fill: #434c5e" transform="translate(385.720937 260.404375) scale(0.1 -0.1)">
      <use xlink:href="#DejaVuSans-42"/>
      <use xlink:href="#DejaVuSans-4d" x="68.603516"/>
      <use xlink:href="#DejaVuSans-49" x="154.882812"/>
      <use xlink:href="#DejaVuSans-20" x="184.375"/>
      <use xlink:href="#DejaVuSans-28" x="216.162109"/>
      <use xlink:href="#DejaVuSans-6b" x="255.175781"/>
      <use xlink:href="#DejaVuSans-67" x="313.085938"/>
      <use xlink:href="#DejaVuSans-2f" x="376.5625"/>
      <use xlink:href="#DejaVuSans-6d" x="410.253906"/>
      <use xlink:href="#DejaVuSans-b2" x="507.666016"/>
      <use xlink:href="#DejaVuSans-29" x="547.753906"/>
     </g>
    </g>
   </g>
   <g id="matplotlib.axis_4">
    <g id="ytick_7">
     <g id="line2d_38">
      <path d="M 297.78 231.16 
L 532.34 231.16 
" clip-path="url(#pf80c0b5dad)" style="fill: none; stroke: #d8dee9; stroke-opacity: 0.4; stroke-width: 0.8; stroke-linecap: square"/>
     </g>
     <g id="line2d_39">
      <g>
       <use xlink:href="#m9493532846" x="297.78" y="231.16" style="fill: #434c5e; stroke: #434c5e; stroke-width: 0.8"/>
      </g>
     </g>
    </g>
    <g id="ytick_8">
     <g id="line2d_40">
      <path d="M 297.78 190.112 
L 532.34 190.112 
" clip-path="url(#pf80c0b5dad)" style="fill: none; stroke: #d8dee9; stroke-opacity: 0.4; stroke-width: 0.8; stroke-linecap: square"/>
     </g>
     <g id="line2d_41">
      <g>
       <use xlink:href="#m9493532846" x="297.78" y="190.112" style="fill: #434c5e; stroke: #434c5e; stroke-width: 0.8"/>
      </g>
     </g>
    </g>
    <g id="ytick_9">
     <g id="line2d_42">
      <path d="M 297.78 149.064 
L 532.34 149.064 
" clip-path="url(#pf80c0b5dad)" style="fill: none; stroke: #d8dee9; stroke-opacity: 0.4; stroke-width: 0.8; stroke-linecap: square"/>
     </g>
     <g id="line2d_43">
      <g>
       <use xlink:href="#m9493532846" x="297.78" y="149.064" style="fill: #434c5e; stroke: #434c5e; stroke-width: 0.8"/>
      </g>
     </g>
    </g>
    <g id="ytick_10">
     <g id="line2d_44">
      <path d="M 297.78 108.016 
L 532.34 108.016 
" clip-path="url(#pf80c0b5dad)" style="fill: none; stroke: #d8dee9; stroke-opacity: 0.4; stroke-width: 0.8; stroke-linecap: square"/>
     </g>
     <g id="line2d_45">
      <g>
       <use xlink:href="#m9493532846" x="297.78" y="108.016" style="fill: #434c5e; stroke: #434c5e; stroke-width: 0.8"/>
      </g>
     </g>
    </g>
    <g id="ytick_11">
     <g id="line2d_46">
      <path d="M 297.78 66.968 
L 532.34 66.968 
" clip-path="url(#pf80c0b5dad)" style="fill: none; stroke: #d8dee9; stroke-opacity: 0.4; stroke-width: 0.8; stroke-linecap: square"/>
     </g>
     <g id="line2d_47">
      <g>
       <use xlink:href="#m9493532846" x="297.78" y="66.968" style="fill: #434c5e; stroke: #434c5e; stroke-width: 0.8"/>
      </g>
     </g>
    </g>
    <g id="ytick_12">
     <g id="line2d_48">
      <path d="M 297.78 25.92 
L 532.34 25.92 
" clip-path="url(#pf80c0b5dad)" style="fill: none; stroke: #d8dee9; stroke-opacity: 0.4; stroke-width: 0.8; stroke-linecap: square"/>
     </g>
     <g id="line2d_49">
      <g>
       <use xlink:href="#m9493532846" x="297.78" y="25.92" style="fill: #434c5e; stroke: #434c5e; stroke-width: 0.8"/>
      </g>
     </g>
    </g>
   </g>
   <g id="line2d_50">
    <path d="M 297.78 95.847249 
L 314.281709 103.608169 
L 330.783417 111.125744 
L 346.106432 117.874898 
L 361.429447 124.390636 
L 376.752462 130.664785 
L 392.075477 136.691187 
L 407.398492 142.465632 
L 422.721508 147.985762 
L 438.044523 153.250953 
L 453.367538 158.262182 
L 468.690553 163.021883 
L 484.013568 167.533792 
L 499.336583 171.802796 
L 514.659598 175.834772 
L 529.982613 179.636435 
L 532.34 180.201329 
L 532.34 180.201329 
" clip-path="url(#pf80c0b5dad)" style="fill: none; stroke: #d08770; stroke-width: 1.5; stroke-linecap: square"/>
   </g>
   <g id="patch_8">
    <path d="M 297.78 231.16 
L 297.78 25.92 
" style="fill: none; stroke: #434c5e; stroke-width: 0.8; stroke-linejoin: miter; stroke-linecap: square"/>
   </g>
   <g id="patch_9">
    <path d="M 532.34 231.16 
L 532.34 25.92 
" style="fill: none; stroke: #434c5e; stroke-width: 0.8; stroke-linejoin: miter; stroke-linecap: square"/>
   </g>
   <g id="patch_10">
    <path d="M 297.78 231.16 
L 532.34 231.16 
" style="fill: none; stroke: #434c5e; stroke-width: 0.8; stroke-linejoin: miter; stroke-linecap: square"/>
   </g>
   <g id="patch_11">
    <path d="M 297.78 25.92 
L 532.34 25.92 
" style="fill: none; stroke: #434c5e; stroke-width: 0.8; stroke-linejoin: miter; stroke-linecap: square"/>
   </g>
   <g id="text_23">
    <!-- Mid -->
    <g style="fill: #4c566a" transform="translate(404.407188 19.92) scale(0.12 -0.12)">
     <defs>
      <path id="DejaVuSans-64" d="M 2906 2969 
L 2906 4863 
L 3481 4863 
L 3481 0 
L 2906 0 
L 2906 525 
Q 2725 213 2448 61 
Q 2172 -91 1784 -91 
Q 1150 -91 751 415 
Q 353 922 353 1747 
Q 353 2572 751 3078 
Q 1150 3584 1784 3584 
Q 2172 3584 2448 3432 
Q 2725 3281 2906 2969 
z
M 947 1747 
Q 947 1113 1208 752 
Q 1469 391 1925 391 
Q 2381 391 2643 752 
Q 2906 1113 2906 1747 
Q 2906 2381 2643 2742 
Q 2381 3103 1925 3103 
Q 1469 3103 1208 2742 
Q 947 2381 947 1747 
z
" transform="scale(0.015625)"/>
     </defs>
     <use xlink:href="#DejaVuSans-4d"/>
     <use xlink:href="#DejaVuSans-69" x="86.279297"/>
     <use xlink:href="#DejaVuSans-64" x="114.0625"/>
    </g>
   </g>
  </g>
  <g id="axes_3">
   <g id="patch_12">
    <path d="M 546.64 231.16 
L 781.2 231.16 
L 781.2 25.92 
L 546.64 25.92 
z
" style="fill: #ffffff"/>
   </g>
   <g id="PolyCollection_3">
    <defs>
     <path id="mc6d9a72f31" d="M 546.64 -224.753831 
L 546.64 -157.040452 
L 547.818693 -156.749347 
L 548.997387 -156.458171 
L 550.17608 -156.166916 
L 551.354774 -155.875577 
L 552.533467 -155.584146 
L 553.712161 -155.292615 
L 554.890854 -155.000977 
L 556.069548 -154.709226 
L 557.248241 -154.417354 
L 558.426935 -154.125353 
L 559.605628 -153.833216 
L 560.784322 -153.540936 
L 561.963015 -153.248506 
L 563.141709 -152.955919 
L 564.320402 -152.663166 
L 565.499095 -152.370241 
L 566.677789 -152.077136 
L 567.856482 -151.783844 
L 569.035176 -151.490358 
L 570.213869 -151.196669 
L 571.392563 -150.902772 
L 572.571256 -150.608658 
L 573.74995 -150.31432 
L 574.928643 -150.019751 
L 576.107337 -149.724944 
L 577.28603 -149.42989 
L 578.464724 -149.134584 
L 579.643417 -148.839017 
L 580.822111 -148.543182 
L 582.000804 -148.247072 
L 583.179497 -147.95068 
L 584.358191 -147.653999 
L 585.536884 -147.357021 
L 586.715578 -147.059739 
L 587.894271 -146.762147 
L 589.072965 -146.464237 
L 590.251658 -146.166001 
L 591.430352 -145.867435 
L 592.609045 -145.568529 
L 593.787739 -145.269278 
L 594.966432 -144.969675 
L 596.145126 -144.669712 
L 597.323819 -144.369384 
L 598.502513 -144.068684 
L 599.681206 -143.767605 
L 600.859899 -143.46614 
L 602.038593 -143.164285 
L 603.217286 -142.862031 
L 604.39598 -142.559373 
L 605.574673 -142.256305 
L 606.753367 -141.952821 
L 607.93206 -141.648916 
L 609.110754 -141.344583 
L 610.289447 -141.039816 
L 611.468141 -140.734611 
L 612.646834 -140.428962 
L 613.825528 -140.122863 
L 615.004221 -139.81631 
L 616.182915 -139.509298 
L 617.361608 -139.201822 
L 618.540302 -138.893876 
L 619.718995 -138.585458 
L 620.897688 -138.276562 
L 622.076382 -137.967184 
L 623.255075 -137.657321 
L 624.433769 -137.346969 
L 625.612462 -137.036123 
L 626.791156 -136.724781 
L 627.969849 -136.41294 
L 629.148543 -136.100596 
L 630.327236 -135.787747 
L 631.50593 -135.47439 
L 632.684623 -135.160524 
L 633.863317 -134.846145 
L 635.04201 -134.531252 
L 636.220704 -134.215844 
L 637.399397 -133.899919 
L 638.57809 -133.583477 
L 639.756784 -133.266516 
L 640.935477 -132.949035 
L 642.114171 -132.631035 
L 643.292864 -132.312516 
L 644.471558 -131.993477 
L 645.650251 -131.67392 
L 646.828945 -131.353845 
L 648.007638 -131.033254 
L 649.186332 -130.712147 
L 650.365025 -130.390528 
L 651.543719 -130.068397 
L 652.722412 -129.745757 
L 653.901106 -129.422611 
L 655.079799 -129.098962 
L 656.258492 -128.774813 
L 657.437186 -128.450167 
L 658.615879 -128.12503 
L 659.794573 -127.799405 
L 660.973266 -127.473297 
L 662.15196 -127.14671 
L 663.330653 -126.81965 
L 664.509347 -126.492123 
L 665.68804 -126.164135 
L 666.866734 -125.835691 
L 668.045427 -125.5068 
L 669.224121 -125.177466 
L 670.402814 -124.847698 
L 671.581508 -124.517504 
L 672.760201 -124.186891 
L 673.938894 -123.855868 
L 675.117588 -123.524442 
L 676.296281 -123.192624 
L 677.474975 -122.860422 
L 678.653668 -122.527846 
L 679.832362 -122.194905 
L 681.011055 -121.86161 
L 682.189749 -121.527971 
L 683.368442 -121.193999 
L 684.547136 -120.859705 
L 685.725829 -120.525101 
L 686.904523 -120.190197 
L 688.083216 -119.855005 
L 689.26191 -119.519539 
L 690.440603 -119.18381 
L 691.619296 -118.84783 
L 692.79799 -118.511613 
L 693.976683 -118.175172 
L 695.155377 -117.83852 
L 696.33407 -117.501671 
L 697.512764 -117.164638 
L 698.691457 -116.827436 
L 699.870151 -116.490078 
L 701.048844 -116.15258 
L 702.227538 -115.814955 
L 703.406231 -115.477218 
L 704.584925 -115.139385 
L 705.763618 -114.80147 
L 706.942312 -114.463488 
L 708.121005 -114.125455 
L 709.299698 -113.787386 
L 710.478392 -113.449297 
L 711.657085 -113.111203 
L 712.835779 -112.773121 
L 714.014472 -112.435066 
L 715.193166 -112.097053 
L 716.371859 -111.7591 
L 717.550553 -111.421222 
L 718.729246 -111.083435 
L 719.90794 -110.745755 
L 721.086633 -110.408199 
L 722.265327 -110.070783 
L 723.44402 -109.733522 
L 724.622714 -109.396434 
L 725.801407 -109.059535 
L 726.980101 -108.72284 
L 728.158794 -108.386367 
L 729.337487 -108.05013 
L 730.516181 -107.714147 
L 731.694874 -107.378434 
L 732.873568 -107.043006 
L 734.052261 -106.707879 
L 735.230955 -106.373071 
L 736.409648 -106.038595 
L 737.588342 -105.704469 
L 738.767035 -105.370708 
L 739.945729 -105.037327 
L 741.124422 -104.704342 
L 742.303116 -104.371769 
L 743.481809 -104.039623 
L 744.660503 -103.707919 
L 745.839196 -103.376673 
L 747.017889 -103.045898 
L 748.196583 -102.715611 
L 749.375276 -102.385825 
L 750.55397 -102.056555 
L 751.732663 -101.727817 
L 752.911357 -101.399623 
L 754.09005 -101.071989 
L 755.268744 -100.744927 
L 756.447437 -100.418453 
L 757.626131 -100.092579 
L 758.804824 -99.76732 
L 759.983518 -99.442688 
L 761.162211 -99.118696 
L 762.340905 -98.795358 
L 763.519598 -98.472687 
L 764.698291 -98.150695 
L 765.876985 -97.829394 
L 767.055678 -97.508797 
L 768.234372 -97.188916 
L 769.413065 -96.869763 
L 770.591759 -96.55135 
L 771.770452 -96.233688 
L 772.949146 -95.916788 
L 774.127839 -95.600663 
L 775.306533 -95.285321 
L 776.485226 -94.970776 
L 777.66392 -94.657036 
L 778.842613 -94.344113 
L 780.021307 -94.032017 
L 781.2 -93.720758 
L 781.2 -131.310973 
L 781.2 -131.310973 
L 780.021307 -131.595844 
L 778.842613 -131.881849 
L 777.66392 -132.169 
L 776.485226 -132.457309 
L 775.306533 -132.746788 
L 774.127839 -133.03745 
L 772.949146 -133.329307 
L 771.770452 -133.622372 
L 770.591759 -133.916657 
L 769.413065 -134.212176 
L 768.234372 -134.508942 
L 767.055678 -134.806967 
L 765.876985 -135.106266 
L 764.698291 -135.406851 
L 763.519598 -135.708737 
L 762.340905 -136.011937 
L 761.162211 -136.316466 
L 759.983518 -136.622336 
L 758.804824 -136.929563 
L 757.626131 -137.238161 
L 756.447437 -137.548144 
L 755.268744 -137.859527 
L 754.09005 -138.172324 
L 752.911357 -138.486551 
L 751.732663 -138.802221 
L 750.55397 -139.119352 
L 749.375276 -139.437956 
L 748.196583 -139.75805 
L 747.017889 -140.079649 
L 745.839196 -140.402769 
L 744.660503 -140.727424 
L 743.481809 -141.053631 
L 742.303116 -141.381406 
L 741.124422 -141.710763 
L 739.945729 -142.041719 
L 738.767035 -142.374289 
L 737.588342 -142.70849 
L 736.409648 -143.044338 
L 735.230955 -143.381848 
L 734.052261 -143.721036 
L 732.873568 -144.06192 
L 731.694874 -144.404514 
L 730.516181 -144.748835 
L 729.337487 -145.094898 
L 728.158794 -145.442721 
L 726.980101 -145.792319 
L 725.801407 -146.143709 
L 724.622714 -146.496905 
L 723.44402 -146.851925 
L 722.265327 -147.208785 
L 721.086633 -147.567499 
L 719.90794 -147.928085 
L 718.729246 -148.290557 
L 717.550553 -148.654933 
L 716.371859 -149.021226 
L 715.193166 -149.389453 
L 714.014472 -149.75963 
L 712.835779 -150.131771 
L 711.657085 -150.505892 
L 710.478392 -150.882008 
L 709.299698 -151.260133 
L 708.121005 -151.640283 
L 706.942312 -152.022472 
L 705.763618 -152.406715 
L 704.584925 -152.793026 
L 703.406231 -153.181418 
L 702.227538 -153.571906 
L 701.048844 -153.964503 
L 699.870151 -154.359223 
L 698.691457 -154.756079 
L 697.512764 -155.155084 
L 696.33407 -155.556251 
L 695.155377 -155.959592 
L 693.976683 -156.365119 
L 692.79799 -156.772844 
L 691.619296 -157.182779 
L 690.440603 -157.594936 
L 689.26191 -158.009324 
L 688.083216 -158.425956 
L 686.904523 -158.844841 
L 685.725829 -159.26599 
L 684.547136 -159.689413 
L 683.368442 -160.115118 
L 682.189749 -160.543115 
L 681.011055 -160.973413 
L 679.832362 -161.406021 
L 678.653668 -161.840946 
L 677.474975 -162.278196 
L 676.296281 -162.717778 
L 675.117588 -163.1597 
L 673.938894 -163.603968 
L 672.760201 -164.050588 
L 671.581508 -164.499566 
L 670.402814 -164.950908 
L 669.224121 -165.404619 
L 668.045427 -165.860703 
L 666.866734 -166.319165 
L 665.68804 -166.780009 
L 664.509347 -167.243238 
L 663.330653 -167.708855 
L 662.15196 -168.176864 
L 660.973266 -168.647266 
L 659.794573 -169.120063 
L 658.615879 -169.595258 
L 657.437186 -170.072851 
L 656.258492 -170.552842 
L 655.079799 -171.035234 
L 653.901106 -171.520024 
L 652.722412 -172.007214 
L 651.543719 -172.496802 
L 650.365025 -172.988787 
L 649.186332 -173.483168 
L 648.007638 -173.979942 
L 646.828945 -174.479108 
L 645.650251 -174.980663 
L 644.471558 -175.484603 
L 643.292864 -175.990927 
L 642.114171 -176.499629 
L 640.935477 -177.010705 
L 639.756784 -177.524152 
L 638.57809 -178.039965 
L 637.399397 -178.558138 
L 636.220704 -179.078667 
L 635.04201 -179.601544 
L 633.863317 -180.126765 
L 632.684623 -180.654323 
L 631.50593 -181.184212 
L 630.327236 -181.716423 
L 629.148543 -182.250951 
L 627.969849 -182.787787 
L 626.791156 -183.326923 
L 625.612462 -183.868352 
L 624.433769 -184.412065 
L 623.255075 -184.958054 
L 622.076382 -185.506309 
L 620.897688 -186.056821 
L 619.718995 -186.60958 
L 618.540302 -187.164578 
L 617.361608 -187.721804 
L 616.182915 -188.281248 
L 615.004221 -188.8429 
L 613.825528 -189.406748 
L 612.646834 -189.972782 
L 611.468141 -190.540992 
L 610.289447 -191.111365 
L 609.110754 -191.68389 
L 607.93206 -192.258557 
L 606.753367 -192.835352 
L 605.574673 -193.414264 
L 604.39598 -193.99528 
L 603.217286 -194.578389 
L 602.038593 -195.163578 
L 600.859899 -195.750834 
L 599.681206 -196.340144 
L 598.502513 -196.931495 
L 597.323819 -197.524874 
L 596.145126 -198.120268 
L 594.966432 -198.717663 
L 593.787739 -199.317046 
L 592.609045 -199.918403 
L 591.430352 -200.52172 
L 590.251658 -201.126984 
L 589.072965 -201.734179 
L 587.894271 -202.343293 
L 586.715578 -202.95431 
L 585.536884 -203.567217 
L 584.358191 -204.181998 
L 583.179497 -204.79864 
L 582.000804 -205.417127 
L 580.822111 -206.037445 
L 579.643417 -206.659579 
L 578.464724 -207.283514 
L 577.28603 -207.909234 
L 576.107337 -208.536725 
L 574.928643 -209.165971 
L 573.74995 -209.796958 
L 572.571256 -210.42967 
L 571.392563 -211.06409 
L 570.213869 -211.700205 
L 569.035176 -212.337998 
L 567.856482 -212.977454 
L 566.677789 -213.618556 
L 565.499095 -214.26129 
L 564.320402 -214.905639 
L 563.141709 -215.551588 
L 561.963015 -216.199121 
L 560.784322 -216.848221 
L 559.605628 -217.498873 
L 558.426935 -218.15106 
L 557.248241 -218.804767 
L 556.069548 -219.459978 
L 554.890854 -220.116675 
L 553.712161 -220.774844 
L 552.533467 -221.434467 
L 551.354774 -222.095529 
L 550.17608 -222.758012 
L 548.997387 -223.421901 
L 547.818693 -224.08718 
L 546.64 -224.753831 
z
" style="stroke: #a3be8c; stroke-opacity: 0.15"/>
    </defs>
    <g clip-path="url(#p6b882496c2)">
     <use xlink:href="#mc6d9a72f31" x="0" y="273.6" style="fill: #a3be8c; fill-opacity: 0.15; stroke: #a3be8c; stroke-opacity: 0.15"/>
    </g>
   </g>
   <g id="matplotlib.axis_5">
    <g id="xtick_13">
     <g id="line2d_51">
      <path d="M 564.014815 231.16 
L 564.014815 25.92 
" clip-path="url(#p6b882496c2)" style="fill: none; stroke: #d8dee9; stroke-opacity: 0.4; stroke-width: 0.8; stroke-linecap: square"/>
     </g>
     <g id="line2d_52">
      <g>
       <use xlink:href="#mfa62304947" x="564.014815" y="231.16" style="fill: #434c5e; stroke: #434c5e; stroke-width: 0.8"/>
      </g>
     </g>
     <g id="text_24">
      <!-- 20 -->
      <g style="fill: #434c5e" transform="translate(557.016065 246.518281) scale(0.11 -0.11)">
       <use xlink:href="#DejaVuSans-32"/>
       <use xlink:href="#DejaVuSans-30" x="63.623047"/>
      </g>
     </g>
    </g>
    <g id="xtick_14">
     <g id="line2d_53">
      <path d="M 607.451852 231.16 
L 607.451852 25.92 
" clip-path="url(#p6b882496c2)" style="fill: none; stroke: #d8dee9; stroke-opacity: 0.4; stroke-width: 0.8; stroke-linecap: square"/>
     </g>
     <g id="line2d_54">
      <g>
       <use xlink:href="#mfa62304947" x="607.451852" y="231.16" style="fill: #434c5e; stroke: #434c5e; stroke-width: 0.8"/>
      </g>
     </g>
     <g id="text_25">
      <!-- 25 -->
      <g style="fill: #434c5e" transform="translate(600.453102 246.518281) scale(0.11 -0.11)">
       <use xlink:href="#DejaVuSans-32"/>
       <use xlink:href="#DejaVuSans-35" x="63.623047"/>
      </g>
     </g>
    </g>
    <g id="xtick_15">
     <g id="line2d_55">
      <path d="M 650.888889 231.16 
L 650.888889 25.92 
" clip-path="url(#p6b882496c2)" style="fill: none; stroke: #d8dee9; stroke-opacity: 0.4; stroke-width: 0.8; stroke-linecap: square"/>
     </g>
     <g id="line2d_56">
      <g>
       <use xlink:href="#mfa62304947" x="650.888889" y="231.16" style="fill: #434c5e; stroke: #434c5e; stroke-width: 0.8"/>
      </g>
     </g>
     <g id="text_26">
      <!-- 30 -->
      <g style="fill: #434c5e" transform="translate(643.890139 246.518281) scale(0.11 -0.11)">
       <use xlink:href="#DejaVuSans-33"/>
       <use xlink:href="#DejaVuSans-30" x="63.623047"/>
      </g>
     </g>
    </g>
    <g id="xtick_16">
     <g id="line2d_57">
      <path d="M 694.325926 231.16 
L 694.325926 25.92 
" clip-path="url(#p6b882496c2)" style="fill: none; stroke: #d8dee9; stroke-opacity: 0.4; stroke-width: 0.8; stroke-linecap: square"/>
     </g>
     <g id="line2d_58">
      <g>
       <use xlink:href="#mfa62304947" x="694.325926" y="231.16" style="fill: #434c5e; stroke: #434c5e; stroke-width: 0.8"/>
      </g>
     </g>
     <g id="text_27">
      <!-- 35 -->
      <g style="fill: #434c5e" transform="translate(687.327176 246.518281) scale(0.11 -0.11)">
       <use xlink:href="#DejaVuSans-33"/>
       <use xlink:href="#DejaVuSans-35" x="63.623047"/>
      </g>
     </g>
    </g>
    <g id="xtick_17">
     <g id="line2d_59">
      <path d="M 737.762963 231.16 
L 737.762963 25.92 
" clip-path="url(#p6b882496c2)" style="fill: none; stroke: #d8dee9; stroke-opacity: 0.4; stroke-width: 0.8; stroke-linecap: square"/>
     </g>
     <g id="line2d_60">
      <g>
       <use xlink:href="#mfa62304947" x="737.762963" y="231.16" style="fill: #434c5e; stroke: #434c5e; stroke-width: 0.8"/>
      </g>
     </g>
     <g id="text_28">
      <!-- 40 -->
      <g style="fill: #434c5e" transform="translate(730.764213 246.518281) scale(0.11 -0.11)">
       <use xlink:href="#DejaVuSans-34"/>
       <use xlink:href="#DejaVuSans-30" x="63.623047"/>
      </g>
     </g>
    </g>
    <g id="xtick_18">
     <g id="line2d_61">
      <path d="M 781.2 231.16 
L 781.2 25.92 
" clip-path="url(#p6b882496c2)" style="fill: none; stroke: #d8dee9; stroke-opacity: 0.4; stroke-width: 0.8; stroke-linecap: square"/>
     </g>
     <g id="line2d_62">
      <g>
       <use xlink:href="#mfa62304947" x="781.2" y="231.16" style="fill: #434c5e; stroke: #434c5e; stroke-width: 0.8"/>
      </g>
     </g>
     <g id="text_29">
      <!-- 45 -->
      <g style="fill: #434c5e" transform="translate(774.20125 246.518281) scale(0.11 -0.11)">
       <use xlink:href="#DejaVuSans-34"/>
       <use xlink:href="#DejaVuSans-35" x="63.623047"/>
      </g>
     </g>
    </g>
    <g id="text_30">
     <!-- BMI (kg/m²) -->
     <g style="fill: #434c5e" transform="translate(634.580938 260.404375) scale(0.1 -0.1)">
      <use xlink:href="#DejaVuSans-42"/>
      <use xlink:href="#DejaVuSans-4d" x="68.603516"/>
      <use xlink:href="#DejaVuSans-49" x="154.882812"/>
      <use xlink:href="#DejaVuSans-20" x="184.375"/>
      <use xlink:href="#DejaVuSans-28" x="216.162109"/>
      <use xlink:href="#DejaVuSans-6b" x="255.175781"/>
      <use xlink:href="#DejaVuSans-67" x="313.085938"/>
      <use xlink:href="#DejaVuSans-2f" x="376.5625"/>
      <use xlink:href="#DejaVuSans-6d" x="410.253906"/>
      <use xlink:href="#DejaVuSans-b2" x="507.666016"/>
      <use xlink:href="#DejaVuSans-29" x="547.753906"/>
     </g>
    </g>
   </g>
   <g id="matplotlib.axis_6">
    <g id="ytick_13">
     <g id="line2d_63">
      <path d="M 546.64 231.16 
L 781.2 231.16 
" clip-path="url(#p6b882496c2)" style="fill: none; stroke: #d8dee9; stroke-opacity: 0.4; stroke-width: 0.8; stroke-linecap: square"/>
     </g>
     <g id="line2d_64">
      <g>
       <use xlink:href="#m9493532846" x="546.64" y="231.16" style="fill: #434c5e; stroke: #434c5e; stroke-width: 0.8"/>
      </g>
     </g>
    </g>
    <g id="ytick_14">
     <g id="line2d_65">
      <path d="M 546.64 190.112 
L 781.2 190.112 
" clip-path="url(#p6b882496c2)" style="fill: none; stroke: #d8dee9; stroke-opacity: 0.4; stroke-width: 0.8; stroke-linecap: square"/>
     </g>
     <g id="line2d_66">
      <g>
       <use xlink:href="#m9493532846" x="546.64" y="190.112" style="fill: #434c5e; stroke: #434c5e; stroke-width: 0.8"/>
      </g>
     </g>
    </g>
    <g id="ytick_15">
     <g id="line2d_67">
      <path d="M 546.64 149.064 
L 781.2 149.064 
" clip-path="url(#p6b882496c2)" style="fill: none; stroke: #d8dee9; stroke-opacity: 0.4; stroke-width: 0.8; stroke-linecap: square"/>
     </g>
     <g id="line2d_68">
      <g>
       <use xlink:href="#m9493532846" x="546.64" y="149.064" style="fill: #434c5e; stroke: #434c5e; stroke-width: 0.8"/>
      </g>
     </g>
    </g>
    <g id="ytick_16">
     <g id="line2d_69">
      <path d="M 546.64 108.016 
L 781.2 108.016 
" clip-path="url(#p6b882496c2)" style="fill: none; stroke: #d8dee9; stroke-opacity: 0.4; stroke-width: 0.8; stroke-linecap: square"/>
     </g>
     <g id="line2d_70">
      <g>
       <use xlink:href="#m9493532846" x="546.64" y="108.016" style="fill: #434c5e; stroke: #434c5e; stroke-width: 0.8"/>
      </g>
     </g>
    </g>
    <g id="ytick_17">
     <g id="line2d_71">
      <path d="M 546.64 66.968 
L 781.2 66.968 
" clip-path="url(#p6b882496c2)" style="fill: none; stroke: #d8dee9; stroke-opacity: 0.4; stroke-width: 0.8; stroke-linecap: square"/>
     </g>
     <g id="line2d_72">
      <g>
       <use xlink:href="#m9493532846" x="546.64" y="66.968" style="fill: #434c5e; stroke: #434c5e; stroke-width: 0.8"/>
      </g>
     </g>
    </g>
    <g id="ytick_18">
     <g id="line2d_73">
      <path d="M 546.64 25.92 
L 781.2 25.92 
" clip-path="url(#p6b882496c2)" style="fill: none; stroke: #d8dee9; stroke-opacity: 0.4; stroke-width: 0.8; stroke-linecap: square"/>
     </g>
     <g id="line2d_74">
      <g>
       <use xlink:href="#m9493532846" x="546.64" y="25.92" style="fill: #434c5e; stroke: #434c5e; stroke-width: 0.8"/>
      </g>
     </g>
    </g>
   </g>
   <g id="line2d_75">
    <path d="M 546.64 82.702858 
L 569.035176 91.685822 
L 590.251658 99.953507 
L 610.289447 107.524409 
L 629.148543 114.424227 
L 648.007638 121.093402 
L 666.866734 127.522572 
L 685.725829 133.704455 
L 703.406231 139.270682 
L 721.086633 144.612151 
L 738.767035 149.727502 
L 756.447437 154.616702 
L 774.127839 159.280944 
L 781.2 161.084135 
L 781.2 161.084135 
" clip-path="url(#p6b882496c2)" style="fill: none; stroke: #a3be8c; stroke-width: 1.5; stroke-linecap: square"/>
   </g>
   <g id="patch_13">
    <path d="M 546.64 231.16 
L 546.64 25.92 
" style="fill: none; stroke: #434c5e; stroke-width: 0.8; stroke-linejoin: miter; stroke-linecap: square"/>
   </g>
   <g id="patch_14">
    <path d="M 781.2 231.16 
L 781.2 25.92 
" style="fill: none; stroke: #434c5e; stroke-width: 0.8; stroke-linejoin: miter; stroke-linecap: square"/>
   </g>
   <g id="patch_15">
    <path d="M 546.64 231.16 
L 781.2 231.16 
" style="fill: none; stroke: #434c5e; stroke-width: 0.8; stroke-linejoin: miter; stroke-linecap: square"/>
   </g>
   <g id="patch_16">
    <path d="M 546.64 25.92 
L 781.2 25.92 
" style="fill: none; stroke: #434c5e; stroke-width: 0.8; stroke-linejoin: miter; stroke-linecap: square"/>
   </g>
   <g id="text_31">
    <!-- High -->
    <g style="fill: #4c566a" transform="translate(650.129375 19.92) scale(0.12 -0.12)">
     <defs>
      <path id="DejaVuSans-48" d="M 628 4666 
L 1259 4666 
L 1259 2753 
L 3553 2753 
L 3553 4666 
L 4184 4666 
L 4184 0 
L 3553 0 
L 3553 2222 
L 1259 2222 
L 1259 0 
L 628 0 
L 628 4666 
z
" transform="scale(0.015625)"/>
      <path id="DejaVuSans-68" d="M 3513 2113 
L 3513 0 
L 2938 0 
L 2938 2094 
Q 2938 2591 2744 2837 
Q 2550 3084 2163 3084 
Q 1697 3084 1428 2787 
Q 1159 2491 1159 1978 
L 1159 0 
L 581 0 
L 581 4863 
L 1159 4863 
L 1159 2956 
Q 1366 3272 1645 3428 
Q 1925 3584 2291 3584 
Q 2894 3584 3203 3211 
Q 3513 2838 3513 2113 
z
" transform="scale(0.015625)"/>
     </defs>
     <use xlink:href="#DejaVuSans-48"/>
     <use xlink:href="#DejaVuSans-69" x="75.195312"/>
     <use xlink:href="#DejaVuSans-67" x="102.978516"/>
     <use xlink:href="#DejaVuSans-68" x="166.455078"/>
    </g>
   </g>
  </g>
 </g>
 <defs>
  <clipPath id="pf918c81abc">
   <rect x="48.92" y="25.92" width="234.56" height="205.24"/>
  </clipPath>
  <clipPath id="pf80c0b5dad">
   <rect x="297.78" y="25.92" width="234.56" height="205.24"/>
  </clipPath>
  <clipPath id="p6b882496c2">
   <rect x="546.64" y="25.92" width="234.56" height="205.24"/>
  </clipPath>
 </defs>
</svg>
