<?xml version="1.0" encoding="utf-8" standalone="no"?>
<!DOCTYPE svg PUBLIC "-//W3C//DTD SVG 1.1//EN"
  "http://www.w3.org/Graphics/SVG/1.1/DTD/svg11.dtd">
<svg xmlns:xlink="http://www.w3.org/1999/xlink" width="504pt" height="288pt" viewBox="0 0 504 288" xmlns="http://www.w3.org/2000/svg" version="1.1">
 <metadata>
  <rdf:RDF xmlns:dc="http://purl.org/dc/elements/1.1/" xmlns:cc="http://creativecommons.org/ns#" xmlns:rdf="http://www.w3.org/1999/02/22-rdf-syntax-ns#">
   <cc:Work>
    <dc:type rdf:resource="http://purl.org/dc/dcmitype/StillImage"/>
    <dc:date>2025-12-01T23:13:32.512514</dc:date>
    <dc:format>image/svg+xml</dc:format>
    <dc:creator>
     <cc:Agent>
      <dc:title>Matplotlib v3.10.6, https://matplotlib.org/</dc:title>
     </cc:Agent>
    </dc:creator>
   </cc:Work>
  </rdf:RDF>
 </metadata>
 <defs>
  <style type="text/css">*{stroke-linejoin: round; stroke-linecap: butt}</style>
 </defs>
 <g id="figure_1">
  <g id="patch_1">
   <path d="M 0 288 
L 504 288 
L 504 0 
L 0 0 
z
" style="fill: #ffffff"/>
  </g>
  <g id="axes_1">
   <g id="patch_2">
    <path d="M 48.92 245.56 
L 486.21 245.56 
L 486.21 25.92 
L 48.92 25.92 
z
" style="fill: #ffffff"/>
   </g>
   <g id="FillBetweenPolyCollection_1">
    <defs>
     <path id="mf88c0c9bda" d="M 48.92 -215.564472 
L 48.92 -144.622627 
L 51.117437 -144.197044 
L 53.314874 -143.77124 
L 55.512312 -143.345201 
L 57.709749 -142.918913 
L 59.907186 -142.492361 
L 62.104623 -142.065533 
L 64.30206 -141.638415 
L 66.499497 -141.210993 
L 68.696935 -140.783255 
L 70.894372 -140.355188 
L 73.091809 -139.92678 
L 75.289246 -139.498018 
L 77.486683 -139.068892 
L 79.684121 -138.63939 
L 81.881558 -138.2095 
L 84.078995 -137.779213 
L 86.276432 -137.348517 
L 88.473869 -136.917404 
L 90.671307 -136.485863 
L 92.868744 -136.053885 
L 95.066181 -135.621462 
L 97.263618 -135.188585 
L 99.461055 -134.755247 
L 101.658492 -134.321441 
L 103.85593 -133.887159 
L 106.053367 -133.452396 
L 108.250804 -133.017146 
L 110.448241 -132.581403 
L 112.645678 -132.145164 
L 114.843116 -131.708423 
L 117.040553 -131.271178 
L 119.23799 -130.833425 
L 121.435427 -130.395163 
L 123.632864 -129.95639 
L 125.830302 -129.517104 
L 128.027739 -129.077306 
L 130.225176 -128.636996 
L 132.422613 -128.196175 
L 134.62005 -127.754844 
L 136.817487 -127.313007 
L 139.014925 -126.870666 
L 141.212362 -126.427825 
L 143.409799 -125.984489 
L 145.607236 -125.540663 
L 147.804673 -125.096354 
L 150.002111 -124.651569 
L 152.199548 -124.206314 
L 154.396985 -123.760599 
L 156.594422 -123.314433 
L 158.791859 -122.867827 
L 160.989296 -122.42079 
L 163.186734 -121.973334 
L 165.384171 -121.525473 
L 167.581608 -121.077219 
L 169.779045 -120.628587 
L 171.976482 -120.17959 
L 174.17392 -119.730246 
L 176.371357 -119.28057 
L 178.568794 -118.830579 
L 180.766231 -118.380292 
L 182.963668 -117.929728 
L 185.161106 -117.478905 
L 187.358543 -117.027844 
L 189.55598 -116.576566 
L 191.753417 -116.125093 
L 193.950854 -115.673448 
L 196.148291 -115.221652 
L 198.345729 -114.769731 
L 200.543166 -114.317708 
L 202.740603 -113.865609 
L 204.93804 -113.413459 
L 207.135477 -112.961285 
L 209.332915 -112.509114 
L 211.530352 -112.056973 
L 213.727789 -111.604889 
L 215.925226 -111.152892 
L 218.122663 -110.701011 
L 220.320101 -110.249274 
L 222.517538 -109.797712 
L 224.714975 -109.346355 
L 226.912412 -108.895234 
L 229.109849 -108.44438 
L 231.307286 -107.993824 
L 233.504724 -107.543597 
L 235.702161 -107.093732 
L 237.899598 -106.644261 
L 240.097035 -106.195216 
L 242.294472 -105.74663 
L 244.49191 -105.298536 
L 246.689347 -104.850965 
L 248.886784 -104.403952 
L 251.084221 -103.957529 
L 253.281658 -103.51173 
L 255.479095 -103.066587 
L 257.676533 -102.622133 
L 259.87397 -102.178402 
L 262.071407 -101.735427 
L 264.268844 -101.29324 
L 266.466281 -100.851875 
L 268.663719 -100.411363 
L 270.861156 -99.971738 
L 273.058593 -99.533031 
L 275.25603 -99.095276 
L 277.453467 -98.658503 
L 279.650905 -98.222744 
L 281.848342 -97.788032 
L 284.045779 -97.354395 
L 286.243216 -96.921867 
L 288.440653 -96.490477 
L 290.63809 -96.060254 
L 292.835528 -95.63123 
L 295.032965 -95.203433 
L 297.230402 -94.776892 
L 299.427839 -94.351635 
L 301.625276 -93.927692 
L 303.822714 -93.505089 
L 306.020151 -93.083854 
L 308.217588 -92.664015 
L 310.415025 -92.245596 
L 312.612462 -91.828624 
L 314.809899 -91.413125 
L 317.007337 -90.999123 
L 319.204774 -90.586643 
L 321.402211 -90.175708 
L 323.599648 -89.766343 
L 325.797085 -89.35857 
L 327.994523 -88.952412 
L 330.19196 -88.54789 
L 332.389397 -88.145025 
L 334.586834 -87.74384 
L 336.784271 -87.344353 
L 338.981709 -86.946585 
L 341.179146 -86.550554 
L 343.376583 -86.156281 
L 345.57402 -85.763782 
L 347.771457 -85.373075 
L 349.968894 -84.984179 
L 352.166332 -84.597108 
L 354.363769 -84.211879 
L 356.561206 -83.828509 
L 358.758643 -83.447011 
L 360.95608 -83.0674 
L 363.153518 -82.68969 
L 365.350955 -82.313896 
L 367.548392 -81.940029 
L 369.745829 -81.568102 
L 371.943266 -81.198128 
L 374.140704 -80.830117 
L 376.338141 -80.46408 
L 378.535578 -80.100029 
L 380.733015 -79.737973 
L 382.930452 -79.377922 
L 385.127889 -79.019884 
L 387.325327 -78.663869 
L 389.522764 -78.309885 
L 391.720201 -77.957938 
L 393.917638 -77.608038 
L 396.115075 -77.260189 
L 398.312513 -76.9144 
L 400.50995 -76.570675 
L 402.707387 -76.229021 
L 404.904824 -75.889442 
L 407.102261 -75.551943 
L 409.299698 -75.216529 
L 411.497136 -74.883203 
L 413.694573 -74.55197 
L 415.89201 -74.222832 
L 418.089447 -73.895791 
L 420.286884 -73.570852 
L 422.484322 -73.248015 
L 424.681759 -72.927282 
L 426.879196 -72.608655 
L 429.076633 -72.292135 
L 431.27407 -71.977723 
L 433.471508 -71.665418 
L 435.668945 -71.355221 
L 437.866382 -71.047133 
L 440.063819 -70.741151 
L 442.261256 -70.437276 
L 444.458693 -70.135506 
L 446.656131 -69.83584 
L 448.853568 -69.538276 
L 451.051005 -69.242813 
L 453.248442 -68.949447 
L 455.445879 -68.658177 
L 457.643317 -68.368999 
L 459.840754 -68.081911 
L 462.038191 -67.79691 
L 464.235628 -67.513991 
L 466.433065 -67.233152 
L 468.630503 -66.954388 
L 470.82794 -66.677695 
L 473.025377 -66.403069 
L 475.222814 -66.130505 
L 477.420251 -65.859998 
L 479.617688 -65.591544 
L 481.815126 -65.325137 
L 484.012563 -65.060771 
L 486.21 -64.798442 
L 486.21 -105.2464 
L 486.21 -105.2464 
L 484.012563 -105.549673 
L 481.815126 -105.85422 
L 479.617688 -106.160049 
L 477.420251 -106.467166 
L 475.222814 -106.775582 
L 473.025377 -107.085303 
L 470.82794 -107.39634 
L 468.630503 -107.7087 
L 466.433065 -108.022393 
L 464.235628 -108.337427 
L 462.038191 -108.653813 
L 459.840754 -108.971559 
L 457.643317 -109.290676 
L 455.445879 -109.611174 
L 453.248442 -109.933063 
L 451.051005 -110.256352 
L 448.853568 -110.581053 
L 446.656131 -110.907177 
L 444.458693 -111.234735 
L 442.261256 -111.563738 
L 440.063819 -111.894197 
L 437.866382 -112.226124 
L 435.668945 -112.559532 
L 433.471508 -112.894433 
L 431.27407 -113.230838 
L 429.076633 -113.568762 
L 426.879196 -113.908217 
L 424.681759 -114.249216 
L 422.484322 -114.591773 
L 420.286884 -114.935902 
L 418.089447 -115.281618 
L 415.89201 -115.628933 
L 413.694573 -115.977865 
L 411.497136 -116.328426 
L 409.299698 -116.680634 
L 407.102261 -117.034503 
L 404.904824 -117.39005 
L 402.707387 -117.74729 
L 400.50995 -118.106241 
L 398.312513 -118.46692 
L 396.115075 -118.829344 
L 393.917638 -119.19353 
L 391.720201 -119.559497 
L 389.522764 -119.927263 
L 387.325327 -120.296847 
L 385.127889 -120.668268 
L 382.930452 -121.041545 
L 380.733015 -121.416698 
L 378.535578 -121.793748 
L 376.338141 -122.172715 
L 374.140704 -122.553619 
L 371.943266 -122.936483 
L 369.745829 -123.321329 
L 367.548392 -123.708177 
L 365.350955 -124.097052 
L 363.153518 -124.487975 
L 360.95608 -124.88097 
L 358.758643 -125.276061 
L 356.561206 -125.673272 
L 354.363769 -126.072628 
L 352.166332 -126.474153 
L 349.968894 -126.877873 
L 347.771457 -127.283814 
L 345.57402 -127.692002 
L 343.376583 -128.102463 
L 341.179146 -128.515225 
L 338.981709 -128.930315 
L 336.784271 -129.347761 
L 334.586834 -129.767591 
L 332.389397 -130.189834 
L 330.19196 -130.614519 
L 327.994523 -131.041675 
L 325.797085 -131.471332 
L 323.599648 -131.903521 
L 321.402211 -132.338272 
L 319.204774 -132.775616 
L 317.007337 -133.215585 
L 314.809899 -133.65821 
L 312.612462 -134.103523 
L 310.415025 -134.551557 
L 308.217588 -135.002345 
L 306.020151 -135.45592 
L 303.822714 -135.912315 
L 301.625276 -136.371564 
L 299.427839 -136.833701 
L 297.230402 -137.298761 
L 295.032965 -137.766778 
L 292.835528 -138.237788 
L 290.63809 -138.711824 
L 288.440653 -139.188923 
L 286.243216 -139.66912 
L 284.045779 -140.152451 
L 281.848342 -140.638952 
L 279.650905 -141.128659 
L 277.453467 -141.621608 
L 275.25603 -142.117836 
L 273.058593 -142.617378 
L 270.861156 -143.120272 
L 268.663719 -143.626554 
L 266.466281 -144.136261 
L 264.268844 -144.649429 
L 262.071407 -145.166094 
L 259.87397 -145.686294 
L 257.676533 -146.210064 
L 255.479095 -146.737442 
L 253.281658 -147.268462 
L 251.084221 -147.803162 
L 248.886784 -148.341576 
L 246.689347 -148.883742 
L 244.49191 -149.429693 
L 242.294472 -149.979465 
L 240.097035 -150.533093 
L 237.899598 -151.090612 
L 235.702161 -151.652055 
L 233.504724 -152.217456 
L 231.307286 -152.786848 
L 229.109849 -153.360264 
L 226.912412 -153.937737 
L 224.714975 -154.519298 
L 222.517538 -155.104978 
L 220.320101 -155.694809 
L 218.122663 -156.28882 
L 215.925226 -156.887041 
L 213.727789 -157.4895 
L 211.530352 -158.096226 
L 209.332915 -158.707246 
L 207.135477 -159.322586 
L 204.93804 -159.942273 
L 202.740603 -160.566331 
L 200.543166 -161.194786 
L 198.345729 -161.827659 
L 196.148291 -162.464975 
L 193.950854 -163.106754 
L 191.753417 -163.753017 
L 189.55598 -164.403785 
L 187.358543 -165.059076 
L 185.161106 -165.718908 
L 182.963668 -166.383299 
L 180.766231 -167.052263 
L 178.568794 -167.725817 
L 176.371357 -168.403975 
L 174.17392 -169.086749 
L 171.976482 -169.774151 
L 169.779045 -170.466193 
L 167.581608 -171.162883 
L 165.384171 -171.864232 
L 163.186734 -172.570247 
L 160.989296 -173.280935 
L 158.791859 -173.996301 
L 156.594422 -174.716351 
L 154.396985 -175.441087 
L 152.199548 -176.170512 
L 150.002111 -176.904627 
L 147.804673 -177.643434 
L 145.607236 -178.386932 
L 143.409799 -179.135118 
L 141.212362 -179.88799 
L 139.014925 -180.645544 
L 136.817487 -181.407776 
L 134.62005 -182.17468 
L 132.422613 -182.946249 
L 130.225176 -183.722475 
L 128.027739 -184.503349 
L 125.830302 -185.288863 
L 123.632864 -186.079004 
L 121.435427 -186.873761 
L 119.23799 -187.673122 
L 117.040553 -188.477073 
L 114.843116 -189.2856 
L 112.645678 -190.098688 
L 110.448241 -190.91632 
L 108.250804 -191.738479 
L 106.053367 -192.565147 
L 103.85593 -193.396306 
L 101.658492 -194.231936 
L 99.461055 -195.072016 
L 97.263618 -195.916525 
L 95.066181 -196.765442 
L 92.868744 -197.618744 
L 90.671307 -198.476407 
L 88.473869 -199.338407 
L 86.276432 -200.204719 
L 84.078995 -201.075318 
L 81.881558 -201.950177 
L 79.684121 -202.829269 
L 77.486683 -203.712566 
L 75.289246 -204.600041 
L 73.091809 -205.491665 
L 70.894372 -206.387407 
L 68.696935 -207.287238 
L 66.499497 -208.191128 
L 64.30206 -209.099044 
L 62.104623 -210.010956 
L 59.907186 -210.92683 
L 57.709749 -211.846634 
L 55.512312 -212.770334 
L 53.314874 -213.697897 
L 51.117437 -214.629288 
L 48.92 -215.564472 
z
" style="stroke: #5e81ac; stroke-opacity: 0.15"/>
    </defs>
    <g clip-path="url(#pdf8d960e0f)">
     <use xlink:href="#mf88c0c9bda" x="0" y="288" style="fill: #5e81ac; fill-opacity: 0.15; stroke: #5e81ac; stroke-opacity: 0.15"/>
    </g>
   </g>
   <g id="FillBetweenPolyCollection_2">
    <defs>
     <path id="m95a2772449" d="M 48.92 -223.486325 
L 48.92 -156.295655 
L 51.117437 -155.912769 
L 53.314874 -155.529573 
L 55.512312 -155.146053 
L 57.709749 -154.762199 
L 59.907186 -154.377998 
L 62.104623 -153.993439 
L 64.30206 -153.60851 
L 66.499497 -153.2232 
L 68.696935 -152.837497 
L 70.894372 -152.45139 
L 73.091809 -152.064868 
L 75.289246 -151.67792 
L 77.486683 -151.290535 
L 79.684121 -150.902702 
L 81.881558 -150.51441 
L 84.078995 -150.12565 
L 86.276432 -149.736411 
L 88.473869 -149.346682 
L 90.671307 -148.956454 
L 92.868744 -148.565718 
L 95.066181 -148.174463 
L 97.263618 -147.782681 
L 99.461055 -147.390362 
L 101.658492 -146.997498 
L 103.85593 -146.60408 
L 106.053367 -146.210099 
L 108.250804 -145.815549 
L 110.448241 -145.420421 
L 112.645678 -145.024708 
L 114.843116 -144.628403 
L 117.040553 -144.231499 
L 119.23799 -143.833989 
L 121.435427 -143.435868 
L 123.632864 -143.03713 
L 125.830302 -142.637769 
L 128.027739 -142.237781 
L 130.225176 -141.837161 
L 132.422613 -141.435905 
L 134.62005 -141.034008 
L 136.817487 -140.631469 
L 139.014925 -140.228284 
L 141.212362 -139.82445 
L 143.409799 -139.419966 
L 145.607236 -139.01483 
L 147.804673 -138.609041 
L 150.002111 -138.202599 
L 152.199548 -137.795504 
L 154.396985 -137.387757 
L 156.594422 -136.979357 
L 158.791859 -136.570308 
L 160.989296 -136.160611 
L 163.186734 -135.750269 
L 165.384171 -135.339285 
L 167.581608 -134.927663 
L 169.779045 -134.515408 
L 171.976482 -134.102524 
L 174.17392 -133.689017 
L 176.371357 -133.274894 
L 178.568794 -132.860161 
L 180.766231 -132.444825 
L 182.963668 -132.028895 
L 185.161106 -131.612379 
L 187.358543 -131.195286 
L 189.55598 -130.777626 
L 191.753417 -130.35941 
L 193.950854 -129.940649 
L 196.148291 -129.521354 
L 198.345729 -129.101538 
L 200.543166 -128.681213 
L 202.740603 -128.260393 
L 204.93804 -127.839092 
L 207.135477 -127.417325 
L 209.332915 -126.995106 
L 211.530352 -126.572452 
L 213.727789 -126.149379 
L 215.925226 -125.725904 
L 218.122663 -125.302044 
L 220.320101 -124.877818 
L 222.517538 -124.453244 
L 224.714975 -124.028341 
L 226.912412 -123.603128 
L 229.109849 -123.177626 
L 231.307286 -122.751855 
L 233.504724 -122.325836 
L 235.702161 -121.899591 
L 237.899598 -121.473141 
L 240.097035 -121.046509 
L 242.294472 -120.619717 
L 244.49191 -120.192789 
L 246.689347 -119.765748 
L 248.886784 -119.338617 
L 251.084221 -118.911421 
L 253.281658 -118.484184 
L 255.479095 -118.056931 
L 257.676533 -117.629687 
L 259.87397 -117.202476 
L 262.071407 -116.775326 
L 264.268844 -116.34826 
L 266.466281 -115.921306 
L 268.663719 -115.494488 
L 270.861156 -115.067834 
L 273.058593 -114.641369 
L 275.25603 -114.21512 
L 277.453467 -113.789114 
L 279.650905 -113.363376 
L 281.848342 -112.937935 
L 284.045779 -112.512816 
L 286.243216 -112.088047 
L 288.440653 -111.663653 
L 290.63809 -111.239662 
L 292.835528 -110.8161 
L 295.032965 -110.392995 
L 297.230402 -109.970372 
L 299.427839 -109.548258 
L 301.625276 -109.126679 
L 303.822714 -108.705663 
L 306.020151 -108.285234 
L 308.217588 -107.865419 
L 310.415025 -107.446244 
L 312.612462 -107.027734 
L 314.809899 -106.609914 
L 317.007337 -106.192811 
L 319.204774 -105.77645 
L 321.402211 -105.360854 
L 323.599648 -104.946049 
L 325.797085 -104.532058 
L 327.994523 -104.118907 
L 330.19196 -103.706619 
L 332.389397 -103.295217 
L 334.586834 -102.884725 
L 336.784271 -102.475166 
L 338.981709 -102.066562 
L 341.179146 -101.658936 
L 343.376583 -101.25231 
L 345.57402 -100.846706 
L 347.771457 -100.442145 
L 349.968894 -100.038647 
L 352.166332 -99.636235 
L 354.363769 -99.234928 
L 356.561206 -98.834746 
L 358.758643 -98.43571 
L 360.95608 -98.037838 
L 363.153518 -97.641149 
L 365.350955 -97.245663 
L 367.548392 -96.851396 
L 369.745829 -96.458369 
L 371.943266 -96.066597 
L 374.140704 -95.676098 
L 376.338141 -95.286889 
L 378.535578 -94.898986 
L 380.733015 -94.512407 
L 382.930452 -94.127165 
L 385.127889 -93.743277 
L 387.325327 -93.360757 
L 389.522764 -92.979621 
L 391.720201 -92.599882 
L 393.917638 -92.221555 
L 396.115075 -91.844653 
L 398.312513 -91.469189 
L 400.50995 -91.095176 
L 402.707387 -90.722627 
L 404.904824 -90.351553 
L 407.102261 -89.981967 
L 409.299698 -89.61388 
L 411.497136 -89.247303 
L 413.694573 -88.882247 
L 415.89201 -88.518721 
L 418.089447 -88.156737 
L 420.286884 -87.796305 
L 422.484322 -87.437432 
L 424.681759 -87.080129 
L 426.879196 -86.724404 
L 429.076633 -86.370267 
L 431.27407 -86.017724 
L 433.471508 -85.666783 
L 435.668945 -85.317453 
L 437.866382 -84.96974 
L 440.063819 -84.623652 
L 442.261256 -84.279195 
L 444.458693 -83.936374 
L 446.656131 -83.595198 
L 448.853568 -83.25567 
L 451.051005 -82.917797 
L 453.248442 -82.581583 
L 455.445879 -82.247034 
L 457.643317 -81.914154 
L 459.840754 -81.582948 
L 462.038191 -81.25342 
L 464.235628 -80.925574 
L 466.433065 -80.599412 
L 468.630503 -80.27494 
L 470.82794 -79.952159 
L 473.025377 -79.631072 
L 475.222814 -79.311683 
L 477.420251 -78.993994 
L 479.617688 -78.678007 
L 481.815126 -78.363723 
L 484.012563 -78.051145 
L 486.21 -77.740274 
L 486.21 -120.751972 
L 486.21 -120.751972 
L 484.012563 -121.05568 
L 481.815126 -121.360464 
L 479.617688 -121.666334 
L 477.420251 -121.973297 
L 475.222814 -122.281362 
L 473.025377 -122.590538 
L 470.82794 -122.900835 
L 468.630503 -123.212261 
L 466.433065 -123.524826 
L 464.235628 -123.83854 
L 462.038191 -124.153412 
L 459.840754 -124.469453 
L 457.643317 -124.786674 
L 455.445879 -125.105083 
L 453.248442 -125.424693 
L 451.051005 -125.745514 
L 448.853568 -126.067557 
L 446.656131 -126.390834 
L 444.458693 -126.715356 
L 442.261256 -127.041134 
L 440.063819 -127.368182 
L 437.866382 -127.69651 
L 435.668945 -128.026133 
L 433.471508 -128.357061 
L 431.27407 -128.689309 
L 429.076633 -129.022889 
L 426.879196 -129.357816 
L 424.681759 -129.694101 
L 422.484322 -130.031761 
L 420.286884 -130.370808 
L 418.089447 -130.711257 
L 415.89201 -131.053123 
L 413.694573 -131.396421 
L 411.497136 -131.741166 
L 409.299698 -132.087373 
L 407.102261 -132.435059 
L 404.904824 -132.784239 
L 402.707387 -133.13493 
L 400.50995 -133.487149 
L 398.312513 -133.840911 
L 396.115075 -134.196235 
L 393.917638 -134.553137 
L 391.720201 -134.911636 
L 389.522764 -135.27175 
L 387.325327 -135.633496 
L 385.127889 -135.996893 
L 382.930452 -136.361961 
L 380.733015 -136.728718 
L 378.535578 -137.097183 
L 376.338141 -137.467377 
L 374.140704 -137.839319 
L 371.943266 -138.213029 
L 369.745829 -138.588529 
L 367.548392 -138.965839 
L 365.350955 -139.344979 
L 363.153518 -139.725972 
L 360.95608 -140.10884 
L 358.758643 -140.493603 
L 356.561206 -140.880284 
L 354.363769 -141.268906 
L 352.166332 -141.659492 
L 349.968894 -142.052063 
L 347.771457 -142.446644 
L 345.57402 -142.843259 
L 343.376583 -143.24193 
L 341.179146 -143.642682 
L 338.981709 -144.045538 
L 336.784271 -144.450525 
L 334.586834 -144.857665 
L 332.389397 -145.266983 
L 330.19196 -145.678506 
L 327.994523 -146.092258 
L 325.797085 -146.508264 
L 323.599648 -146.92655 
L 321.402211 -147.347142 
L 319.204774 -147.770066 
L 317.007337 -148.195348 
L 314.809899 -148.623014 
L 312.612462 -149.053089 
L 310.415025 -149.485602 
L 308.217588 -149.920578 
L 306.020151 -150.358043 
L 303.822714 -150.798025 
L 301.625276 -151.24055 
L 299.427839 -151.685644 
L 297.230402 -152.133335 
L 295.032965 -152.58365 
L 292.835528 -153.036614 
L 290.63809 -153.492255 
L 288.440653 -153.9506 
L 286.243216 -154.411674 
L 284.045779 -154.875505 
L 281.848342 -155.342119 
L 279.650905 -155.811542 
L 277.453467 -156.2838 
L 275.25603 -156.75892 
L 273.058593 -157.236927 
L 270.861156 -157.717846 
L 268.663719 -158.201704 
L 266.466281 -158.688525 
L 264.268844 -159.178334 
L 262.071407 -159.671157 
L 259.87397 -160.167016 
L 257.676533 -160.665937 
L 255.479095 -161.167942 
L 253.281658 -161.673056 
L 251.084221 -162.181301 
L 248.886784 -162.6927 
L 246.689347 -163.207275 
L 244.49191 -163.725047 
L 242.294472 -164.246038 
L 240.097035 -164.770269 
L 237.899598 -165.297759 
L 235.702161 -165.828529 
L 233.504724 -166.362598 
L 231.307286 -166.899985 
L 229.109849 -167.440707 
L 226.912412 -167.984782 
L 224.714975 -168.532228 
L 222.517538 -169.08306 
L 220.320101 -169.637294 
L 218.122663 -170.194945 
L 215.925226 -170.756028 
L 213.727789 -171.320557 
L 211.530352 -171.888544 
L 209.332915 -172.460002 
L 207.135477 -173.034943 
L 204.93804 -173.613378 
L 202.740603 -174.195317 
L 200.543166 -174.780769 
L 198.345729 -175.369743 
L 196.148291 -175.962248 
L 193.950854 -176.558291 
L 191.753417 -177.157879 
L 189.55598 -177.761017 
L 187.358543 -178.367711 
L 185.161106 -178.977964 
L 182.963668 -179.591781 
L 180.766231 -180.209165 
L 178.568794 -180.830117 
L 176.371357 -181.45464 
L 174.17392 -182.082733 
L 171.976482 -182.714396 
L 169.779045 -183.349629 
L 167.581608 -183.988431 
L 165.384171 -184.630798 
L 163.186734 -185.276728 
L 160.989296 -185.926217 
L 158.791859 -186.57926 
L 156.594422 -187.235853 
L 154.396985 -187.895989 
L 152.199548 -188.559663 
L 150.002111 -189.226865 
L 147.804673 -189.89759 
L 145.607236 -190.571827 
L 143.409799 -191.249569 
L 141.212362 -191.930804 
L 139.014925 -192.615523 
L 136.817487 -193.303714 
L 134.62005 -193.995365 
L 132.422613 -194.690465 
L 130.225176 -195.389 
L 128.027739 -196.090956 
L 125.830302 -196.79632 
L 123.632864 -197.505077 
L 121.435427 -198.217212 
L 119.23799 -198.932708 
L 117.040553 -199.651551 
L 114.843116 -200.373722 
L 112.645678 -201.099205 
L 110.448241 -201.827983 
L 108.250804 -202.560036 
L 106.053367 -203.295346 
L 103.85593 -204.033895 
L 101.658492 -204.775662 
L 99.461055 -205.520627 
L 97.263618 -206.268771 
L 95.066181 -207.020073 
L 92.868744 -207.774511 
L 90.671307 -208.532063 
L 88.473869 -209.292709 
L 86.276432 -210.056425 
L 84.078995 -210.823189 
L 81.881558 -211.592979 
L 79.684121 -212.36577 
L 77.486683 -213.14154 
L 75.289246 -213.920264 
L 73.091809 -214.701918 
L 70.894372 -215.486478 
L 68.696935 -216.273919 
L 66.499497 -217.064216 
L 64.30206 -217.857344 
L 62.104623 -218.653277 
L 59.907186 -219.45199 
L 57.709749 -220.253455 
L 55.512312 -221.057648 
L 53.314874 -221.864542 
L 51.117437 -222.67411 
L 48.92 -223.486325 
z
" style="stroke: #d08770; stroke-opacity: 0.15"/>
    </defs>
    <g clip-path="url(#pdf8d960e0f)">
     <use xlink:href="#m95a2772449" x="0" y="288" style="fill: #d08770; fill-opacity: 0.15; stroke: #d08770; stroke-opacity: 0.15"/>
    </g>
   </g>
   <g id="FillBetweenPolyCollection_3">
    <defs>
     <path id="m3c65f26880" d="M 48.92 -293.393408 
L 48.92 -173.630205 
L 51.117437 -173.54768 
L 53.314874 -173.464141 
L 55.512312 -173.379584 
L 57.709749 -173.294005 
L 59.907186 -173.207402 
L 62.104623 -173.11977 
L 64.30206 -173.031107 
L 66.499497 -172.94141 
L 68.696935 -172.850674 
L 70.894372 -172.758898 
L 73.091809 -172.666078 
L 75.289246 -172.57221 
L 77.486683 -172.477293 
L 79.684121 -172.381323 
L 81.881558 -172.284297 
L 84.078995 -172.186213 
L 86.276432 -172.087068 
L 88.473869 -171.986859 
L 90.671307 -171.885584 
L 92.868744 -171.78324 
L 95.066181 -171.679824 
L 97.263618 -171.575335 
L 99.461055 -171.46977 
L 101.658492 -171.363127 
L 103.85593 -171.255403 
L 106.053367 -171.146597 
L 108.250804 -171.036706 
L 110.448241 -170.925729 
L 112.645678 -170.813664 
L 114.843116 -170.700508 
L 117.040553 -170.586261 
L 119.23799 -170.47092 
L 121.435427 -170.354484 
L 123.632864 -170.236951 
L 125.830302 -170.11832 
L 128.027739 -169.99859 
L 130.225176 -169.877759 
L 132.422613 -169.755826 
L 134.62005 -169.63279 
L 136.817487 -169.50865 
L 139.014925 -169.383405 
L 141.212362 -169.257054 
L 143.409799 -169.129596 
L 145.607236 -169.001031 
L 147.804673 -168.871358 
L 150.002111 -168.740576 
L 152.199548 -168.608685 
L 154.396985 -168.475684 
L 156.594422 -168.341574 
L 158.791859 -168.206353 
L 160.989296 -168.070023 
L 163.186734 -167.932582 
L 165.384171 -167.794031 
L 167.581608 -167.65437 
L 169.779045 -167.513599 
L 171.976482 -167.371718 
L 174.17392 -167.228728 
L 176.371357 -167.084629 
L 178.568794 -166.939422 
L 180.766231 -166.793108 
L 182.963668 -166.645686 
L 185.161106 -166.497158 
L 187.358543 -166.347526 
L 189.55598 -166.196788 
L 191.753417 -166.044948 
L 193.950854 -165.892005 
L 196.148291 -165.737962 
L 198.345729 -165.582819 
L 200.543166 -165.426578 
L 202.740603 -165.26924 
L 204.93804 -165.110806 
L 207.135477 -164.95128 
L 209.332915 -164.790661 
L 211.530352 -164.628953 
L 213.727789 -164.466156 
L 215.925226 -164.302273 
L 218.122663 -164.137307 
L 220.320101 -163.971258 
L 222.517538 -163.804129 
L 224.714975 -163.635923 
L 226.912412 -163.466642 
L 229.109849 -163.296289 
L 231.307286 -163.124865 
L 233.504724 -162.952374 
L 235.702161 -162.778818 
L 237.899598 -162.6042 
L 240.097035 -162.428523 
L 242.294472 -162.25179 
L 244.49191 -162.074004 
L 246.689347 -161.895168 
L 248.886784 -161.715284 
L 251.084221 -161.534357 
L 253.281658 -161.352389 
L 255.479095 -161.169385 
L 257.676533 -160.985346 
L 259.87397 -160.800278 
L 262.071407 -160.614183 
L 264.268844 -160.427065 
L 266.466281 -160.238928 
L 268.663719 -160.049775 
L 270.861156 -159.859611 
L 273.058593 -159.668439 
L 275.25603 -159.476264 
L 277.453467 -159.283089 
L 279.650905 -159.088918 
L 281.848342 -158.893756 
L 284.045779 -158.697607 
L 286.243216 -158.500476 
L 288.440653 -158.302365 
L 290.63809 -158.103281 
L 292.835528 -157.903227 
L 295.032965 -157.702208 
L 297.230402 -157.500229 
L 299.427839 -157.297293 
L 301.625276 -157.093407 
L 303.822714 -156.888573 
L 306.020151 -156.682799 
L 308.217588 -156.476087 
L 310.415025 -156.268443 
L 312.612462 -156.059873 
L 314.809899 -155.85038 
L 317.007337 -155.63997 
L 319.204774 -155.428648 
L 321.402211 -155.21642 
L 323.599648 -155.003289 
L 325.797085 -154.789262 
L 327.994523 -154.574344 
L 330.19196 -154.35854 
L 332.389397 -154.141855 
L 334.586834 -153.924294 
L 336.784271 -153.705864 
L 338.981709 -153.486569 
L 341.179146 -153.266415 
L 343.376583 -153.045407 
L 345.57402 -152.823551 
L 347.771457 -152.600852 
L 349.968894 -152.377317 
L 352.166332 -152.15295 
L 354.363769 -151.927757 
L 356.561206 -151.701744 
L 358.758643 -151.474917 
L 360.95608 -151.247281 
L 363.153518 -151.018841 
L 365.350955 -150.789605 
L 367.548392 -150.559577 
L 369.745829 -150.328764 
L 371.943266 -150.097171 
L 374.140704 -149.864803 
L 376.338141 -149.631668 
L 378.535578 -149.39777 
L 380.733015 -149.163115 
L 382.930452 -148.927711 
L 385.127889 -148.691561 
L 387.325327 -148.454673 
L 389.522764 -148.217052 
L 391.720201 -147.978704 
L 393.917638 -147.739636 
L 396.115075 -147.499852 
L 398.312513 -147.25936 
L 400.50995 -147.018164 
L 402.707387 -146.776272 
L 404.904824 -146.533689 
L 407.102261 -146.29042 
L 409.299698 -146.046473 
L 411.497136 -145.801853 
L 413.694573 -145.556566 
L 415.89201 -145.310618 
L 418.089447 -145.064015 
L 420.286884 -144.816763 
L 422.484322 -144.568868 
L 424.681759 -144.320336 
L 426.879196 -144.071174 
L 429.076633 -143.821386 
L 431.27407 -143.57098 
L 433.471508 -143.31996 
L 435.668945 -143.068334 
L 437.866382 -142.816107 
L 440.063819 -142.563285 
L 442.261256 -142.309874 
L 444.458693 -142.05588 
L 446.656131 -141.801309 
L 448.853568 -141.546167 
L 451.051005 -141.29046 
L 453.248442 -141.034193 
L 455.445879 -140.777374 
L 457.643317 -140.520007 
L 459.840754 -140.262098 
L 462.038191 -140.003654 
L 464.235628 -139.74468 
L 466.433065 -139.485182 
L 468.630503 -139.225166 
L 470.82794 -138.964638 
L 473.025377 -138.703603 
L 475.222814 -138.442068 
L 477.420251 -138.180039 
L 479.617688 -137.91752 
L 481.815126 -137.654518 
L 484.012563 -137.391038 
L 486.21 -137.127087 
L 486.21 -264.431758 
L 486.21 -264.431758 
L 484.012563 -264.485621 
L 481.815126 -264.54009 
L 479.617688 -264.59517 
L 477.420251 -264.650866 
L 475.222814 -264.707185 
L 473.025377 -264.764131 
L 470.82794 -264.82171 
L 468.630503 -264.879927 
L 466.433065 -264.938789 
L 464.235628 -264.9983 
L 462.038191 -265.058466 
L 459.840754 -265.119292 
L 457.643317 -265.180785 
L 455.445879 -265.24295 
L 453.248442 -265.305792 
L 451.051005 -265.369317 
L 448.853568 -265.433531 
L 446.656131 -265.498438 
L 444.458693 -265.564046 
L 442.261256 -265.630359 
L 440.063819 -265.697383 
L 437.866382 -265.765124 
L 435.668945 -265.833588 
L 433.471508 -265.902779 
L 431.27407 -265.972705 
L 429.076633 -266.043369 
L 426.879196 -266.114779 
L 424.681759 -266.18694 
L 422.484322 -266.259858 
L 420.286884 -266.333537 
L 418.089447 -266.407985 
L 415.89201 -266.483206 
L 413.694573 -266.559206 
L 411.497136 -266.635992 
L 409.299698 -266.713568 
L 407.102261 -266.791941 
L 404.904824 -266.871115 
L 402.707387 -266.951098 
L 400.50995 -267.031894 
L 398.312513 -267.113509 
L 396.115075 -267.195948 
L 393.917638 -267.279219 
L 391.720201 -267.363325 
L 389.522764 -267.448273 
L 387.325327 -267.534069 
L 385.127889 -267.620717 
L 382.930452 -267.708225 
L 380.733015 -267.796596 
L 378.535578 -267.885837 
L 376.338141 -267.975954 
L 374.140704 -268.066951 
L 371.943266 -268.158836 
L 369.745829 -268.251612 
L 367.548392 -268.345285 
L 365.350955 -268.439862 
L 363.153518 -268.535347 
L 360.95608 -268.631746 
L 358.758643 -268.729065 
L 356.561206 -268.827308 
L 354.363769 -268.926481 
L 352.166332 -269.02659 
L 349.968894 -269.12764 
L 347.771457 -269.229636 
L 345.57402 -269.332583 
L 343.376583 -269.436487 
L 341.179146 -269.541353 
L 338.981709 -269.647185 
L 336.784271 -269.75399 
L 334.586834 -269.861773 
L 332.389397 -269.970537 
L 330.19196 -270.08029 
L 327.994523 -270.191034 
L 325.797085 -270.302776 
L 323.599648 -270.415521 
L 321.402211 -270.529272 
L 319.204774 -270.644036 
L 317.007337 -270.759817 
L 314.809899 -270.876619 
L 312.612462 -270.994448 
L 310.415025 -271.113308 
L 308.217588 -271.233204 
L 306.020151 -271.35414 
L 303.822714 -271.476121 
L 301.625276 -271.599152 
L 299.427839 -271.723236 
L 297.230402 -271.848378 
L 295.032965 -271.974583 
L 292.835528 -272.101855 
L 290.63809 -272.230198 
L 288.440653 -272.359616 
L 286.243216 -272.490114 
L 284.045779 -272.621694 
L 281.848342 -272.754363 
L 279.650905 -272.888123 
L 277.453467 -273.022978 
L 275.25603 -273.158932 
L 273.058593 -273.295989 
L 270.861156 -273.434152 
L 268.663719 -273.573426 
L 266.466281 -273.713813 
L 264.268844 -273.855318 
L 262.071407 -273.997943 
L 259.87397 -274.141693 
L 257.676533 -274.286569 
L 255.479095 -274.432577 
L 253.281658 -274.579718 
L 251.084221 -274.727996 
L 248.886784 -274.877414 
L 246.689347 -275.027974 
L 244.49191 -275.17968 
L 242.294472 -275.332535 
L 240.097035 -275.486541 
L 237.899598 -275.641701 
L 235.702161 -275.798017 
L 233.504724 -275.955493 
L 231.307286 -276.114129 
L 229.109849 -276.273929 
L 226.912412 -276.434896 
L 224.714975 -276.59703 
L 222.517538 -276.760334 
L 220.320101 -276.924811 
L 218.122663 -277.090462 
L 215.925226 -277.257289 
L 213.727789 -277.425294 
L 211.530352 -277.594478 
L 209.332915 -277.764844 
L 207.135477 -277.936392 
L 204.93804 -278.109125 
L 202.740603 -278.283043 
L 200.543166 -278.458147 
L 198.345729 -278.63444 
L 196.148291 -278.811922 
L 193.950854 -278.990593 
L 191.753417 -279.170456 
L 189.55598 -279.351511 
L 187.358543 -279.533759 
L 185.161106 -279.7172 
L 182.963668 -279.901835 
L 180.766231 -280.087664 
L 178.568794 -280.274688 
L 176.371357 -280.462908 
L 174.17392 -280.652323 
L 171.976482 -280.842934 
L 169.779045 -281.03474 
L 167.581608 -281.227743 
L 165.384171 -281.421941 
L 163.186734 -281.617335 
L 160.989296 -281.813923 
L 158.791859 -282.011707 
L 156.594422 -282.210686 
L 154.396985 -282.410858 
L 152.199548 -282.612224 
L 150.002111 -282.814783 
L 147.804673 -283.018534 
L 145.607236 -283.223475 
L 143.409799 -283.429607 
L 141.212362 -283.636929 
L 139.014925 -283.845438 
L 136.817487 -284.055135 
L 134.62005 -284.266017 
L 132.422613 -284.478083 
L 130.225176 -284.691333 
L 128.027739 -284.905764 
L 125.830302 -285.121375 
L 123.632864 -285.338164 
L 121.435427 -285.556129 
L 119.23799 -285.77527 
L 117.040553 -285.995583 
L 114.843116 -286.217067 
L 112.645678 -286.43972 
L 110.448241 -286.663539 
L 108.250804 -286.888524 
L 106.053367 -287.11467 
L 103.85593 -287.341976 
L 101.658492 -287.57044 
L 99.461055 -287.800059 
L 97.263618 -288.030831 
L 95.066181 -288.262752 
L 92.868744 -288.495821 
L 90.671307 -288.730034 
L 88.473869 -288.965389 
L 86.276432 -289.201883 
L 84.078995 -289.439512 
L 81.881558 -289.678275 
L 79.684121 -289.918167 
L 77.486683 -290.159185 
L 75.289246 -290.401327 
L 73.091809 -290.644589 
L 70.894372 -290.888968 
L 68.696935 -291.13446 
L 66.499497 -291.381063 
L 64.30206 -291.628772 
L 62.104623 -291.877583 
L 59.907186 -292.127494 
L 57.709749 -292.378501 
L 55.512312 -292.630599 
L 53.314874 -292.883786 
L 51.117437 -293.138057 
L 48.92 -293.393408 
z
" style="stroke: #a3be8c; stroke-opacity: 0.15"/>
    </defs>
    <g clip-path="url(#pdf8d960e0f)">
     <use xlink:href="#m3c65f26880" x="0" y="288" style="fill: #a3be8c; fill-opacity: 0.15; stroke: #a3be8c; stroke-opacity: 0.15"/>
    </g>
   </g>
   <g id="matplotlib.axis_1">
    <g id="xtick_1">
     <g id="line2d_1">
      <path d="M 81.311852 245.56 
L 81.311852 25.92 
" clip-path="url(#pdf8d960e0f)" style="fill: none; stroke: #d8dee9; stroke-opacity: 0.4; stroke-width: 0.8; stroke-linecap: square"/>
     </g>
     <g id="line2d_2">
      <defs>
       <path id="mf7214f284b" d="M 0 0 
L 0 3.5 
" style="stroke: #434c5e; stroke-width: 0.8"/>
      </defs>
      <g>
       <use xlink:href="#mf7214f284b" x="81.311852" y="245.56" style="fill: #434c5e; stroke: #434c5e; stroke-width: 0.8"/>
      </g>
     </g>
     <g id="text_1">
      <!-- 20 -->
      <g style="fill: #434c5e" transform="translate(74.313102 260.918281) scale(0.11 -0.11)">
       <defs>
        <path id="DejaVuSans-32" d="M 1228 531 
L 3431 531 
L 3431 0 
L 469 0 
L 469 531 
Q 828 903 1448 1529 
Q 2069 2156 2228 2338 
Q 2531 2678 2651 2914 
Q 2772 3150 2772 3378 
Q 2772 3750 2511 3984 
Q 2250 4219 1831 4219 
Q 1534 4219 1204 4116 
Q 875 4013 500 3803 
L 500 4441 
Q 881 4594 1212 4672 
Q 1544 4750 1819 4750 
Q 2544 4750 2975 4387 
Q 3406 4025 3406 3419 
Q 3406 3131 3298 2873 
Q 3191 2616 2906 2266 
Q 2828 2175 2409 1742 
Q 1991 1309 1228 531 
z
" transform="scale(0.015625)"/>
        <path id="DejaVuSans-30" d="M 2034 4250 
Q 1547 4250 1301 3770 
Q 1056 3291 1056 2328 
Q 1056 1369 1301 889 
Q 1547 409 2034 409 
Q 2525 409 2770 889 
Q 3016 1369 3016 2328 
Q 3016 3291 2770 3770 
Q 2525 4250 2034 4250 
z
M 2034 4750 
Q 2819 4750 3233 4129 
Q 3647 3509 3647 2328 
Q 3647 1150 3233 529 
Q 2819 -91 2034 -91 
Q 1250 -91 836 529 
Q 422 1150 422 2328 
Q 422 3509 836 4129 
Q 1250 4750 2034 4750 
z
" transform="scale(0.015625)"/>
       </defs>
       <use xlink:href="#DejaVuSans-32"/>
       <use xlink:href="#DejaVuSans-30" transform="translate(63.623047 0)"/>
      </g>
     </g>
    </g>
    <g id="xtick_2">
     <g id="line2d_3">
      <path d="M 162.291481 245.56 
L 162.291481 25.92 
" clip-path="url(#pdf8d960e0f)" style="fill: none; stroke: #d8dee9; stroke-opacity: 0.4; stroke-width: 0.8; stroke-linecap: square"/>
     </g>
     <g id="line2d_4">
      <g>
       <use xlink:href="#mf7214f284b" x="162.291481" y="245.56" style="fill: #434c5e; stroke: #434c5e; stroke-width: 0.8"/>
      </g>
     </g>
     <g id="text_2">
      <!-- 25 -->
      <g style="fill: #434c5e" transform="translate(155.292731 260.918281) scale(0.11 -0.11)">
       <defs>
        <path id="DejaVuSans-35" d="M 691 4666 
L 3169 4666 
L 3169 4134 
L 1269 4134 
L 1269 2991 
Q 1406 3038 1543 3061 
Q 1681 3084 1819 3084 
Q 2600 3084 3056 2656 
Q 3513 2228 3513 1497 
Q 3513 744 3044 326 
Q 2575 -91 1722 -91 
Q 1428 -91 1123 -41 
Q 819 9 494 109 
L 494 744 
Q 775 591 1075 516 
Q 1375 441 1709 441 
Q 2250 441 2565 725 
Q 2881 1009 2881 1497 
Q 2881 1984 2565 2268 
Q 2250 2553 1709 2553 
Q 1456 2553 1204 2497 
Q 953 2441 691 2322 
L 691 4666 
z
" transform="scale(0.015625)"/>
       </defs>
       <use xlink:href="#DejaVuSans-32"/>
       <use xlink:href="#DejaVuSans-35" transform="translate(63.623047 0)"/>
      </g>
     </g>
    </g>
    <g id="xtick_3">
     <g id="line2d_5">
      <path d="M 243.271111 245.56 
L 243.271111 25.92 
" clip-path="url(#pdf8d960e0f)" style="fill: none; stroke: #d8dee9; stroke-opacity: 0.4; stroke-width: 0.8; stroke-linecap: square"/>
     </g>
     <g id="line2d_6">
      <g>
       <use xlink:href="#mf7214f284b" x="243.271111" y="245.56" style="fill: #434c5e; stroke: #434c5e; stroke-width: 0.8"/>
      </g>
     </g>
     <g id="text_3">
      <!-- 30 -->
      <g style="fill: #434c5e" transform="translate(236.272361 260.918281) scale(0.11 -0.11)">
       <defs>
        <path id="DejaVuSans-33" d="M 2597 2516 
Q 3050 2419 3304 2112 
Q 3559 1806 3559 1356 
Q 3559 666 3084 287 
Q 2609 -91 1734 -91 
Q 1441 -91 1130 -33 
Q 819 25 488 141 
L 488 750 
Q 750 597 1062 519 
Q 1375 441 1716 441 
Q 2309 441 2620 675 
Q 2931 909 2931 1356 
Q 2931 1769 2642 2001 
Q 2353 2234 1838 2234 
L 1294 2234 
L 1294 2753 
L 1863 2753 
Q 2328 2753 2575 2939 
Q 2822 3125 2822 3475 
Q 2822 3834 2567 4026 
Q 2313 4219 1838 4219 
Q 1578 4219 1281 4162 
Q 984 4106 628 3988 
L 628 4550 
Q 988 4650 1302 4700 
Q 1616 4750 1894 4750 
Q 2613 4750 3031 4423 
Q 3450 4097 3450 3541 
Q 3450 3153 3228 2886 
Q 3006 2619 2597 2516 
z
" transform="scale(0.015625)"/>
       </defs>
       <use xlink:href="#DejaVuSans-33"/>
       <use xlink:href="#DejaVuSans-30" transform="translate(63.623047 0)"/>
      </g>
     </g>
    </g>
    <g id="xtick_4">
     <g id="line2d_7">
      <path d="M 324.250741 245.56 
L 324.250741 25.92 
" clip-path="url(#pdf8d960e0f)" style="fill: none; stroke: #d8dee9; stroke-opacity: 0.4; stroke-width: 0.8; stroke-linecap: square"/>
     </g>
     <g id="line2d_8">
      <g>
       <use xlink:href="#mf7214f284b" x="324.250741" y="245.56" style="fill: #434c5e; stroke: #434c5e; stroke-width: 0.8"/>
      </g>
     </g>
     <g id="text_4">
      <!-- 35 -->
      <g style="fill: #434c5e" transform="translate(317.251991 260.918281) scale(0.11 -0.11)">
       <use xlink:href="#DejaVuSans-33"/>
       <use xlink:href="#DejaVuSans-35" transform="translate(63.623047 0)"/>
      </g>
     </g>
    </g>
    <g id="xtick_5">
     <g id="line2d_9">
      <path d="M 405.23037 245.56 
L 405.23037 25.92 
" clip-path="url(#pdf8d960e0f)" style="fill: none; stroke: #d8dee9; stroke-opacity: 0.4; stroke-width: 0.8; stroke-linecap: square"/>
     </g>
     <g id="line2d_10">
      <g>
       <use xlink:href="#mf7214f284b" x="405.23037" y="245.56" style="fill: #434c5e; stroke: #434c5e; stroke-width: 0.8"/>
      </g>
     </g>
     <g id="text_5">
      <!-- 40 -->
      <g style="fill: #434c5e" transform="translate(398.23162 260.918281) scale(0.11 -0.11)">
       <defs>
        <path id="DejaVuSans-34" d="M 2419 4116 
L 825 1625 
L 2419 1625 
L 2419 4116 
z
M 2253 4666 
L 3047 4666 
L 3047 1625 
L 3713 1625 
L 3713 1100 
L 3047 1100 
L 3047 0 
L 2419 0 
L 2419 1100 
L 313 1100 
L 313 1709 
L 2253 4666 
z
" transform="scale(0.015625)"/>
       </defs>
       <use xlink:href="#DejaVuSans-34"/>
       <use xlink:href="#DejaVuSans-30" transform="translate(63.623047 0)"/>
      </g>
     </g>
    </g>
    <g id="xtick_6">
     <g id="line2d_11">
      <path d="M 486.21 245.56 
L 486.21 25.92 
" clip-path="url(#pdf8d960e0f)" style="fill: none; stroke: #d8dee9; stroke-opacity: 0.4; stroke-width: 0.8; stroke-linecap: square"/>
     </g>
     <g id="line2d_12">
      <g>
       <use xlink:href="#mf7214f284b" x="486.21" y="245.56" style="fill: #434c5e; stroke: #434c5e; stroke-width: 0.8"/>
      </g>
     </g>
     <g id="text_6">
      <!-- 45 -->
      <g style="fill: #434c5e" transform="translate(479.21125 260.918281) scale(0.11 -0.11)">
       <use xlink:href="#DejaVuSans-34"/>
       <use xlink:href="#DejaVuSans-35" transform="translate(63.623047 0)"/>
      </g>
     </g>
    </g>
    <g id="text_7">
     <!-- BMI (kg/m²) -->
     <g style="fill: #434c5e" transform="translate(238.225938 274.804375) scale(0.1 -0.1)">
      <defs>
       <path id="DejaVuSans-42" d="M 1259 2228 
L 1259 519 
L 2272 519 
Q 2781 519 3026 730 
Q 3272 941 3272 1375 
Q 3272 1813 3026 2020 
Q 2781 2228 2272 2228 
L 1259 2228 
z
M 1259 4147 
L 1259 2741 
L 2194 2741 
Q 2656 2741 2882 2914 
Q 3109 3088 3109 3444 
Q 3109 3797 2882 3972 
Q 2656 4147 2194 4147 
L 1259 4147 
z
M 628 4666 
L 2241 4666 
Q 2963 4666 3353 4366 
Q 3744 4066 3744 3513 
Q 3744 3084 3544 2831 
Q 3344 2578 2956 2516 
Q 3422 2416 3680 2098 
Q 3938 1781 3938 1306 
Q 3938 681 3513 340 
Q 3088 0 2303 0 
L 628 0 
L 628 4666 
z
" transform="scale(0.015625)"/>
       <path id="DejaVuSans-4d" d="M 628 4666 
L 1569 4666 
L 2759 1491 
L 3956 4666 
L 4897 4666 
L 4897 0 
L 4281 0 
L 4281 4097 
L 3078 897 
L 2444 897 
L 1241 4097 
L 1241 0 
L 628 0 
L 628 4666 
z
" transform="scale(0.015625)"/>
       <path id="DejaVuSans-49" d="M 628 4666 
L 1259 4666 
L 1259 0 
L 628 0 
L 628 4666 
z
" transform="scale(0.015625)"/>
       <path id="DejaVuSans-20" transform="scale(0.015625)"/>
       <path id="DejaVuSans-28" d="M 1984 4856 
Q 1566 4138 1362 3434 
Q 1159 2731 1159 2009 
Q 1159 1288 1364 580 
Q 1569 -128 1984 -844 
L 1484 -844 
Q 1016 -109 783 600 
Q 550 1309 550 2009 
Q 550 2706 781 3412 
Q 1013 4119 1484 4856 
L 1984 4856 
z
" transform="scale(0.015625)"/>
       <path id="DejaVuSans-6b" d="M 581 4863 
L 1159 4863 
L 1159 1991 
L 2875 3500 
L 3609 3500 
L 1753 1863 
L 3688 0 
L 2938 0 
L 1159 1709 
L 1159 0 
L 581 0 
L 581 4863 
z
" transform="scale(0.015625)"/>
       <path id="DejaVuSans-67" d="M 2906 1791 
Q 2906 2416 2648 2759 
Q 2391 3103 1925 3103 
Q 1463 3103 1205 2759 
Q 947 2416 947 1791 
Q 947 1169 1205 825 
Q 1463 481 1925 481 
Q 2391 481 2648 825 
Q 2906 1169 2906 1791 
z
M 3481 434 
Q 3481 -459 3084 -895 
Q 2688 -1331 1869 -1331 
Q 1566 -1331 1297 -1286 
Q 1028 -1241 775 -1147 
L 775 -588 
Q 1028 -725 1275 -790 
Q 1522 -856 1778 -856 
Q 2344 -856 2625 -561 
Q 2906 -266 2906 331 
L 2906 616 
Q 2728 306 2450 153 
Q 2172 0 1784 0 
Q 1141 0 747 490 
Q 353 981 353 1791 
Q 353 2603 747 3093 
Q 1141 3584 1784 3584 
Q 2172 3584 2450 3431 
Q 2728 3278 2906 2969 
L 2906 3500 
L 3481 3500 
L 3481 434 
z
" transform="scale(0.015625)"/>
       <path id="DejaVuSans-2f" d="M 1625 4666 
L 2156 4666 
L 531 -594 
L 0 -594 
L 1625 4666 
z
" transform="scale(0.015625)"/>
       <path id="DejaVuSans-6d" d="M 3328 2828 
Q 3544 3216 3844 3400 
Q 4144 3584 4550 3584 
Q 5097 3584 5394 3201 
Q 5691 2819 5691 2113 
L 5691 0 
L 5113 0 
L 5113 2094 
Q 5113 2597 4934 2840 
Q 4756 3084 4391 3084 
Q 3944 3084 3684 2787 
Q 3425 2491 3425 1978 
L 3425 0 
L 2847 0 
L 2847 2094 
Q 2847 2600 2669 2842 
Q 2491 3084 2119 3084 
Q 1678 3084 1418 2786 
Q 1159 2488 1159 1978 
L 1159 0 
L 581 0 
L 581 3500 
L 1159 3500 
L 1159 2956 
Q 1356 3278 1631 3431 
Q 1906 3584 2284 3584 
Q 2666 3584 2933 3390 
Q 3200 3197 3328 2828 
z
" transform="scale(0.015625)"/>
       <path id="DejaVuSans-b2" d="M 838 2444 
L 2163 2444 
L 2163 2088 
L 294 2088 
L 294 2431 
Q 400 2528 597 2703 
Q 1672 3656 1672 3950 
Q 1672 4156 1509 4282 
Q 1347 4409 1081 4409 
Q 919 4409 728 4354 
Q 538 4300 313 4191 
L 313 4575 
Q 553 4663 761 4706 
Q 969 4750 1147 4750 
Q 1600 4750 1872 4544 
Q 2144 4338 2144 4000 
Q 2144 3566 1109 2678 
Q 934 2528 838 2444 
z
" transform="scale(0.015625)"/>
       <path id="DejaVuSans-29" d="M 513 4856 
L 1013 4856 
Q 1481 4119 1714 3412 
Q 1947 2706 1947 2009 
Q 1947 1309 1714 600 
Q 1481 -109 1013 -844 
L 513 -844 
Q 928 -128 1133 580 
Q 1338 1288 1338 2009 
Q 1338 2731 1133 3434 
Q 928 4138 513 4856 
z
" transform="scale(0.015625)"/>
      </defs>
      <use xlink:href="#DejaVuSans-42"/>
      <use xlink:href="#DejaVuSans-4d" transform="translate(68.603516 0)"/>
      <use xlink:href="#DejaVuSans-49" transform="translate(154.882812 0)"/>
      <use xlink:href="#DejaVuSans-20" transform="translate(184.375 0)"/>
      <use xlink:href="#DejaVuSans-28" transform="translate(216.162109 0)"/>
      <use xlink:href="#DejaVuSans-6b" transform="translate(255.175781 0)"/>
      <use xlink:href="#DejaVuSans-67" transform="translate(313.085938 0)"/>
      <use xlink:href="#DejaVuSans-2f" transform="translate(376.5625 0)"/>
      <use xlink:href="#DejaVuSans-6d" transform="translate(410.253906 0)"/>
      <use xlink:href="#DejaVuSans-b2" transform="translate(507.666016 0)"/>
      <use xlink:href="#DejaVuSans-29" transform="translate(547.753906 0)"/>
     </g>
    </g>
   </g>
   <g id="matplotlib.axis_2">
    <g id="ytick_1">
     <g id="line2d_13">
      <path d="M 48.92 245.56 
L 486.21 245.56 
" clip-path="url(#pdf8d960e0f)" style="fill: none; stroke: #d8dee9; stroke-opacity: 0.4; stroke-width: 0.8; stroke-linecap: square"/>
     </g>
     <g id="line2d_14">
      <defs>
       <path id="m5ac77c4fb1" d="M 0 0 
L -3.5 0 
" style="stroke: #434c5e; stroke-width: 0.8"/>
      </defs>
      <g>
       <use xlink:href="#m5ac77c4fb1" x="48.92" y="245.56" style="fill: #434c5e; stroke: #434c5e; stroke-width: 0.8"/>
      </g>
     </g>
     <g id="text_8">
      <!-- 0.0 -->
      <g style="fill: #434c5e" transform="translate(24.426563 249.739141) scale(0.11 -0.11)">
       <defs>
        <path id="DejaVuSans-2e" d="M 684 794 
L 1344 794 
L 1344 0 
L 684 0 
L 684 794 
z
" transform="scale(0.015625)"/>
       </defs>
       <use xlink:href="#DejaVuSans-30"/>
       <use xlink:href="#DejaVuSans-2e" transform="translate(63.623047 0)"/>
       <use xlink:href="#DejaVuSans-30" transform="translate(95.410156 0)"/>
      </g>
     </g>
    </g>
    <g id="ytick_2">
     <g id="line2d_15">
      <path d="M 48.92 201.632 
L 486.21 201.632 
" clip-path="url(#pdf8d960e0f)" style="fill: none; stroke: #d8dee9; stroke-opacity: 0.4; stroke-width: 0.8; stroke-linecap: square"/>
     </g>
     <g id="line2d_16">
      <g>
       <use xlink:href="#m5ac77c4fb1" x="48.92" y="201.632" style="fill: #434c5e; stroke: #434c5e; stroke-width: 0.8"/>
      </g>
     </g>
     <g id="text_9">
      <!-- 0.1 -->
      <g style="fill: #434c5e" transform="translate(24.426563 205.811141) scale(0.11 -0.11)">
       <defs>
        <path id="DejaVuSans-31" d="M 794 531 
L 1825 531 
L 1825 4091 
L 703 3866 
L 703 4441 
L 1819 4666 
L 2450 4666 
L 2450 531 
L 3481 531 
L 3481 0 
L 794 0 
L 794 531 
z
" transform="scale(0.015625)"/>
       </defs>
       <use xlink:href="#DejaVuSans-30"/>
       <use xlink:href="#DejaVuSans-2e" transform="translate(63.623047 0)"/>
       <use xlink:href="#DejaVuSans-31" transform="translate(95.410156 0)"/>
      </g>
     </g>
    </g>
    <g id="ytick_3">
     <g id="line2d_17">
      <path d="M 48.92 157.704 
L 486.21 157.704 
" clip-path="url(#pdf8d960e0f)" style="fill: none; stroke: #d8dee9; stroke-opacity: 0.4; stroke-width: 0.8; stroke-linecap: square"/>
     </g>
     <g id="line2d_18">
      <g>
       <use xlink:href="#m5ac77c4fb1" x="48.92" y="157.704" style="fill: #434c5e; stroke: #434c5e; stroke-width: 0.8"/>
      </g>
     </g>
     <g id="text_10">
      <!-- 0.2 -->
      <g style="fill: #434c5e" transform="translate(24.426563 161.883141) scale(0.11 -0.11)">
       <use xlink:href="#DejaVuSans-30"/>
       <use xlink:href="#DejaVuSans-2e" transform="translate(63.623047 0)"/>
       <use xlink:href="#DejaVuSans-32" transform="translate(95.410156 0)"/>
      </g>
     </g>
    </g>
    <g id="ytick_4">
     <g id="line2d_19">
      <path d="M 48.92 113.776 
L 486.21 113.776 
" clip-path="url(#pdf8d960e0f)" style="fill: none; stroke: #d8dee9; stroke-opacity: 0.4; stroke-width: 0.8; stroke-linecap: square"/>
     </g>
     <g id="line2d_20">
      <g>
       <use xlink:href="#m5ac77c4fb1" x="48.92" y="113.776" style="fill: #434c5e; stroke: #434c5e; stroke-width: 0.8"/>
      </g>
     </g>
     <g id="text_11">
      <!-- 0.3 -->
      <g style="fill: #434c5e" transform="translate(24.426563 117.955141) scale(0.11 -0.11)">
       <use xlink:href="#DejaVuSans-30"/>
       <use xlink:href="#DejaVuSans-2e" transform="translate(63.623047 0)"/>
       <use xlink:href="#DejaVuSans-33" transform="translate(95.410156 0)"/>
      </g>
     </g>
    </g>
    <g id="ytick_5">
     <g id="line2d_21">
      <path d="M 48.92 69.848 
L 486.21 69.848 
" clip-path="url(#pdf8d960e0f)" style="fill: none; stroke: #d8dee9; stroke-opacity: 0.4; stroke-width: 0.8; stroke-linecap: square"/>
     </g>
     <g id="line2d_22">
      <g>
       <use xlink:href="#m5ac77c4fb1" x="48.92" y="69.848" style="fill: #434c5e; stroke: #434c5e; stroke-width: 0.8"/>
      </g>
     </g>
     <g id="text_12">
      <!-- 0.4 -->
      <g style="fill: #434c5e" transform="translate(24.426563 74.027141) scale(0.11 -0.11)">
       <use xlink:href="#DejaVuSans-30"/>
       <use xlink:href="#DejaVuSans-2e" transform="translate(63.623047 0)"/>
       <use xlink:href="#DejaVuSans-34" transform="translate(95.410156 0)"/>
      </g>
     </g>
    </g>
    <g id="ytick_6">
     <g id="line2d_23">
      <path d="M 48.92 25.92 
L 486.21 25.92 
" clip-path="url(#pdf8d960e0f)" style="fill: none; stroke: #d8dee9; stroke-opacity: 0.4; stroke-width: 0.8; stroke-linecap: square"/>
     </g>
     <g id="line2d_24">
      <g>
       <use xlink:href="#m5ac77c4fb1" x="48.92" y="25.92" style="fill: #434c5e; stroke: #434c5e; stroke-width: 0.8"/>
      </g>
     </g>
     <g id="text_13">
      <!-- 0.5 -->
      <g style="fill: #434c5e" transform="translate(24.426563 30.099141) scale(0.11 -0.11)">
       <use xlink:href="#DejaVuSans-30"/>
       <use xlink:href="#DejaVuSans-2e" transform="translate(63.623047 0)"/>
       <use xlink:href="#DejaVuSans-35" transform="translate(95.410156 0)"/>
      </g>
     </g>
    </g>
    <g id="text_14">
     <!-- Probabilité de Best Performer -->
     <g style="fill: #434c5e" transform="translate(18.346875 209.131406) rotate(-90) scale(0.1 -0.1)">
      <defs>
       <path id="DejaVuSans-50" d="M 1259 4147 
L 1259 2394 
L 2053 2394 
Q 2494 2394 2734 2622 
Q 2975 2850 2975 3272 
Q 2975 3691 2734 3919 
Q 2494 4147 2053 4147 
L 1259 4147 
z
M 628 4666 
L 2053 4666 
Q 2838 4666 3239 4311 
Q 3641 3956 3641 3272 
Q 3641 2581 3239 2228 
Q 2838 1875 2053 1875 
L 1259 1875 
L 1259 0 
L 628 0 
L 628 4666 
z
" transform="scale(0.015625)"/>
       <path id="DejaVuSans-72" d="M 2631 2963 
Q 2534 3019 2420 3045 
Q 2306 3072 2169 3072 
Q 1681 3072 1420 2755 
Q 1159 2438 1159 1844 
L 1159 0 
L 581 0 
L 581 3500 
L 1159 3500 
L 1159 2956 
Q 1341 3275 1631 3429 
Q 1922 3584 2338 3584 
Q 2397 3584 2469 3576 
Q 2541 3569 2628 3553 
L 2631 2963 
z
" transform="scale(0.015625)"/>
       <path id="DejaVuSans-6f" d="M 1959 3097 
Q 1497 3097 1228 2736 
Q 959 2375 959 1747 
Q 959 1119 1226 758 
Q 1494 397 1959 397 
Q 2419 397 2687 759 
Q 2956 1122 2956 1747 
Q 2956 2369 2687 2733 
Q 2419 3097 1959 3097 
z
M 1959 3584 
Q 2709 3584 3137 3096 
Q 3566 2609 3566 1747 
Q 3566 888 3137 398 
Q 2709 -91 1959 -91 
Q 1206 -91 779 398 
Q 353 888 353 1747 
Q 353 2609 779 3096 
Q 1206 3584 1959 3584 
z
" transform="scale(0.015625)"/>
       <path id="DejaVuSans-62" d="M 3116 1747 
Q 3116 2381 2855 2742 
Q 2594 3103 2138 3103 
Q 1681 3103 1420 2742 
Q 1159 2381 1159 1747 
Q 1159 1113 1420 752 
Q 1681 391 2138 391 
Q 2594 391 2855 752 
Q 3116 1113 3116 1747 
z
M 1159 2969 
Q 1341 3281 1617 3432 
Q 1894 3584 2278 3584 
Q 2916 3584 3314 3078 
Q 3713 2572 3713 1747 
Q 3713 922 3314 415 
Q 2916 -91 2278 -91 
Q 1894 -91 1617 61 
Q 1341 213 1159 525 
L 1159 0 
L 581 0 
L 581 4863 
L 1159 4863 
L 1159 2969 
z
" transform="scale(0.015625)"/>
       <path id="DejaVuSans-61" d="M 2194 1759 
Q 1497 1759 1228 1600 
Q 959 1441 959 1056 
Q 959 750 1161 570 
Q 1363 391 1709 391 
Q 2188 391 2477 730 
Q 2766 1069 2766 1631 
L 2766 1759 
L 2194 1759 
z
M 3341 1997 
L 3341 0 
L 2766 0 
L 2766 531 
Q 2569 213 2275 61 
Q 1981 -91 1556 -91 
Q 1019 -91 701 211 
Q 384 513 384 1019 
Q 384 1609 779 1909 
Q 1175 2209 1959 2209 
L 2766 2209 
L 2766 2266 
Q 2766 2663 2505 2880 
Q 2244 3097 1772 3097 
Q 1472 3097 1187 3025 
Q 903 2953 641 2809 
L 641 3341 
Q 956 3463 1253 3523 
Q 1550 3584 1831 3584 
Q 2591 3584 2966 3190 
Q 3341 2797 3341 1997 
z
" transform="scale(0.015625)"/>
       <path id="DejaVuSans-69" d="M 603 3500 
L 1178 3500 
L 1178 0 
L 603 0 
L 603 3500 
z
M 603 4863 
L 1178 4863 
L 1178 4134 
L 603 4134 
L 603 4863 
z
" transform="scale(0.015625)"/>
       <path id="DejaVuSans-6c" d="M 603 4863 
L 1178 4863 
L 1178 0 
L 603 0 
L 603 4863 
z
" transform="scale(0.015625)"/>
       <path id="DejaVuSans-74" d="M 1172 4494 
L 1172 3500 
L 2356 3500 
L 2356 3053 
L 1172 3053 
L 1172 1153 
Q 1172 725 1289 603 
Q 1406 481 1766 481 
L 2356 481 
L 2356 0 
L 1766 0 
Q 1100 0 847 248 
Q 594 497 594 1153 
L 594 3053 
L 172 3053 
L 172 3500 
L 594 3500 
L 594 4494 
L 1172 4494 
z
" transform="scale(0.015625)"/>
       <path id="DejaVuSans-e9" d="M 3597 1894 
L 3597 1613 
L 953 1613 
Q 991 1019 1311 708 
Q 1631 397 2203 397 
Q 2534 397 2845 478 
Q 3156 559 3463 722 
L 3463 178 
Q 3153 47 2828 -22 
Q 2503 -91 2169 -91 
Q 1331 -91 842 396 
Q 353 884 353 1716 
Q 353 2575 817 3079 
Q 1281 3584 2069 3584 
Q 2775 3584 3186 3129 
Q 3597 2675 3597 1894 
z
M 3022 2063 
Q 3016 2534 2758 2815 
Q 2500 3097 2075 3097 
Q 1594 3097 1305 2825 
Q 1016 2553 972 2059 
L 3022 2063 
z
M 2466 5119 
L 3088 5119 
L 2070 3944 
L 1591 3944 
L 2466 5119 
z
" transform="scale(0.015625)"/>
       <path id="DejaVuSans-64" d="M 2906 2969 
L 2906 4863 
L 3481 4863 
L 3481 0 
L 2906 0 
L 2906 525 
Q 2725 213 2448 61 
Q 2172 -91 1784 -91 
Q 1150 -91 751 415 
Q 353 922 353 1747 
Q 353 2572 751 3078 
Q 1150 3584 1784 3584 
Q 2172 3584 2448 3432 
Q 2725 3281 2906 2969 
z
M 947 1747 
Q 947 1113 1208 752 
Q 1469 391 1925 391 
Q 2381 391 2643 752 
Q 2906 1113 2906 1747 
Q 2906 2381 2643 2742 
Q 2381 3103 1925 3103 
Q 1469 3103 1208 2742 
Q 947 2381 947 1747 
z
" transform="scale(0.015625)"/>
       <path id="DejaVuSans-65" d="M 3597 1894 
L 3597 1613 
L 953 1613 
Q 991 1019 1311 708 
Q 1631 397 2203 397 
Q 2534 397 2845 478 
Q 3156 559 3463 722 
L 3463 178 
Q 3153 47 2828 -22 
Q 2503 -91 2169 -91 
Q 1331 -91 842 396 
Q 353 884 353 1716 
Q 353 2575 817 3079 
Q 1281 3584 2069 3584 
Q 2775 3584 3186 3129 
Q 3597 2675 3597 1894 
z
M 3022 2063 
Q 3016 2534 2758 2815 
Q 2500 3097 2075 3097 
Q 1594 3097 1305 2825 
Q 1016 2553 972 2059 
L 3022 2063 
z
" transform="scale(0.015625)"/>
       <path id="DejaVuSans-73" d="M 2834 3397 
L 2834 2853 
Q 2591 2978 2328 3040 
Q 2066 3103 1784 3103 
Q 1356 3103 1142 2972 
Q 928 2841 928 2578 
Q 928 2378 1081 2264 
Q 1234 2150 1697 2047 
L 1894 2003 
Q 2506 1872 2764 1633 
Q 3022 1394 3022 966 
Q 3022 478 2636 193 
Q 2250 -91 1575 -91 
Q 1294 -91 989 -36 
Q 684 19 347 128 
L 347 722 
Q 666 556 975 473 
Q 1284 391 1588 391 
Q 1994 391 2212 530 
Q 2431 669 2431 922 
Q 2431 1156 2273 1281 
Q 2116 1406 1581 1522 
L 1381 1569 
Q 847 1681 609 1914 
Q 372 2147 372 2553 
Q 372 3047 722 3315 
Q 1072 3584 1716 3584 
Q 2034 3584 2315 3537 
Q 2597 3491 2834 3397 
z
" transform="scale(0.015625)"/>
       <path id="DejaVuSans-66" d="M 2375 4863 
L 2375 4384 
L 1825 4384 
Q 1516 4384 1395 4259 
Q 1275 4134 1275 3809 
L 1275 3500 
L 2222 3500 
L 2222 3053 
L 1275 3053 
L 1275 0 
L 697 0 
L 697 3053 
L 147 3053 
L 147 3500 
L 697 3500 
L 697 3744 
Q 697 4328 969 4595 
Q 1241 4863 1831 4863 
L 2375 4863 
z
" transform="scale(0.015625)"/>
      </defs>
      <use xlink:href="#DejaVuSans-50"/>
      <use xlink:href="#DejaVuSans-72" transform="translate(58.552734 0)"/>
      <use xlink:href="#DejaVuSans-6f" transform="translate(97.416016 0)"/>
      <use xlink:href="#DejaVuSans-62" transform="translate(158.597656 0)"/>
      <use xlink:href="#DejaVuSans-61" transform="translate(222.074219 0)"/>
      <use xlink:href="#DejaVuSans-62" transform="translate(283.353516 0)"/>
      <use xlink:href="#DejaVuSans-69" transform="translate(346.830078 0)"/>
      <use xlink:href="#DejaVuSans-6c" transform="translate(374.613281 0)"/>
      <use xlink:href="#DejaVuSans-69" transform="translate(402.396484 0)"/>
      <use xlink:href="#DejaVuSans-74" transform="translate(430.179688 0)"/>
      <use xlink:href="#DejaVuSans-e9" transform="translate(469.388672 0)"/>
      <use xlink:href="#DejaVuSans-20" transform="translate(530.912109 0)"/>
      <use xlink:href="#DejaVuSans-64" transform="translate(562.699219 0)"/>
      <use xlink:href="#DejaVuSans-65" transform="translate(626.175781 0)"/>
      <use xlink:href="#DejaVuSans-20" transform="translate(687.699219 0)"/>
      <use xlink:href="#DejaVuSans-42" transform="translate(719.486328 0)"/>
      <use xlink:href="#DejaVuSans-65" transform="translate(788.089844 0)"/>
      <use xlink:href="#DejaVuSans-73" transform="translate(849.613281 0)"/>
      <use xlink:href="#DejaVuSans-74" transform="translate(901.712891 0)"/>
      <use xlink:href="#DejaVuSans-20" transform="translate(940.921875 0)"/>
      <use xlink:href="#DejaVuSans-50" transform="translate(972.708984 0)"/>
      <use xlink:href="#DejaVuSans-65" transform="translate(1029.386719 0)"/>
      <use xlink:href="#DejaVuSans-72" transform="translate(1090.910156 0)"/>
      <use xlink:href="#DejaVuSans-66" transform="translate(1132.023438 0)"/>
      <use xlink:href="#DejaVuSans-6f" transform="translate(1167.228516 0)"/>
      <use xlink:href="#DejaVuSans-72" transform="translate(1228.410156 0)"/>
      <use xlink:href="#DejaVuSans-6d" transform="translate(1267.773438 0)"/>
      <use xlink:href="#DejaVuSans-65" transform="translate(1365.185547 0)"/>
      <use xlink:href="#DejaVuSans-72" transform="translate(1426.708984 0)"/>
     </g>
    </g>
   </g>
   <g id="line2d_25">
    <path d="M 48.92 107.906451 
L 73.091809 115.290778 
L 97.263618 122.447445 
L 121.435427 129.365538 
L 145.607236 136.036203 
L 167.581608 141.879949 
L 189.55598 147.509824 
L 211.530352 152.923401 
L 233.504724 158.119474 
L 255.479095 163.097986 
L 277.453467 167.859945 
L 299.427839 172.407332 
L 321.402211 176.74301 
L 343.376583 180.870628 
L 367.548392 185.175897 
L 391.720201 189.241282 
L 415.89201 193.074117 
L 440.063819 196.682326 
L 464.235628 200.074291 
L 486.21 202.977579 
L 486.21 202.977579 
" clip-path="url(#pdf8d960e0f)" style="fill: none; stroke: #5e81ac; stroke-width: 1.5; stroke-linecap: square"/>
   </g>
   <g id="line2d_26">
    <path d="M 48.92 98.10901 
L 79.684121 106.365764 
L 108.250804 113.812207 
L 136.817487 121.032409 
L 165.384171 128.014959 
L 191.753417 134.241355 
L 218.122663 140.251505 
L 244.49191 146.041082 
L 270.861156 151.60716 
L 297.230402 156.948146 
L 323.599648 162.063701 
L 349.968894 166.954645 
L 376.338141 171.622867 
L 402.707387 176.071221 
L 429.076633 180.303422 
L 455.445879 184.323941 
L 484.012563 188.446588 
L 486.21 188.753877 
L 486.21 188.753877 
" clip-path="url(#pdf8d960e0f)" style="fill: none; stroke: #d08770; stroke-width: 1.5; stroke-linecap: square"/>
   </g>
   <g id="line2d_27">
    <path d="M 48.92 54.488193 
L 218.122663 67.386116 
L 363.153518 78.222906 
L 486.21 87.220578 
L 486.21 87.220578 
" clip-path="url(#pdf8d960e0f)" style="fill: none; stroke: #a3be8c; stroke-width: 1.5; stroke-linecap: square"/>
   </g>
   <g id="patch_3">
    <path d="M 48.92 245.56 
L 48.92 25.92 
" style="fill: none; stroke: #434c5e; stroke-width: 0.8; stroke-linejoin: miter; stroke-linecap: square"/>
   </g>
   <g id="patch_4">
    <path d="M 486.21 245.56 
L 486.21 25.92 
" style="fill: none; stroke: #434c5e; stroke-width: 0.8; stroke-linejoin: miter; stroke-linecap: square"/>
   </g>
   <g id="patch_5">
    <path d="M 48.92 245.56 
L 486.21 245.56 
" style="fill: none; stroke: #434c5e; stroke-width: 0.8; stroke-linejoin: miter; stroke-linecap: square"/>
   </g>
   <g id="patch_6">
    <path d="M 48.92 25.92 
L 486.21 25.92 
" style="fill: none; stroke: #434c5e; stroke-width: 0.8; stroke-linejoin: miter; stroke-linecap: square"/>
   </g>
   <g id="text_15">
    <!-- Interaction p=0.002 -->
    <g style="fill: #4c566a" transform="translate(57.6658 221.3005) scale(0.1 -0.1)">
     <defs>
      <path id="DejaVuSans-6e" d="M 3513 2113 
L 3513 0 
L 2938 0 
L 2938 2094 
Q 2938 2591 2744 2837 
Q 2550 3084 2163 3084 
Q 1697 3084 1428 2787 
Q 1159 2491 1159 1978 
L 1159 0 
L 581 0 
L 581 3500 
L 1159 3500 
L 1159 2956 
Q 1366 3272 1645 3428 
Q 1925 3584 2291 3584 
Q 2894 3584 3203 3211 
Q 3513 2838 3513 2113 
z
" transform="scale(0.015625)"/>
      <path id="DejaVuSans-63" d="M 3122 3366 
L 3122 2828 
Q 2878 2963 2633 3030 
Q 2388 3097 2138 3097 
Q 1578 3097 1268 2742 
Q 959 2388 959 1747 
Q 959 1106 1268 751 
Q 1578 397 2138 397 
Q 2388 397 2633 464 
Q 2878 531 3122 666 
L 3122 134 
Q 2881 22 2623 -34 
Q 2366 -91 2075 -91 
Q 1284 -91 818 406 
Q 353 903 353 1747 
Q 353 2603 823 3093 
Q 1294 3584 2113 3584 
Q 2378 3584 2631 3529 
Q 2884 3475 3122 3366 
z
" transform="scale(0.015625)"/>
      <path id="DejaVuSans-70" d="M 1159 525 
L 1159 -1331 
L 581 -1331 
L 581 3500 
L 1159 3500 
L 1159 2969 
Q 1341 3281 1617 3432 
Q 1894 3584 2278 3584 
Q 2916 3584 3314 3078 
Q 3713 2572 3713 1747 
Q 3713 922 3314 415 
Q 2916 -91 2278 -91 
Q 1894 -91 1617 61 
Q 1341 213 1159 525 
z
M 3116 1747 
Q 3116 2381 2855 2742 
Q 2594 3103 2138 3103 
Q 1681 3103 1420 2742 
Q 1159 2381 1159 1747 
Q 1159 1113 1420 752 
Q 1681 391 2138 391 
Q 2594 391 2855 752 
Q 3116 1113 3116 1747 
z
" transform="scale(0.015625)"/>
      <path id="DejaVuSans-3d" d="M 678 2906 
L 4684 2906 
L 4684 2381 
L 678 2381 
L 678 2906 
z
M 678 1631 
L 4684 1631 
L 4684 1100 
L 678 1100 
L 678 1631 
z
" transform="scale(0.015625)"/>
     </defs>
     <use xlink:href="#DejaVuSans-49"/>
     <use xlink:href="#DejaVuSans-6e" transform="translate(29.492188 0)"/>
     <use xlink:href="#DejaVuSans-74" transform="translate(92.871094 0)"/>
     <use xlink:href="#DejaVuSans-65" transform="translate(132.080078 0)"/>
     <use xlink:href="#DejaVuSans-72" transform="translate(193.603516 0)"/>
     <use xlink:href="#DejaVuSans-61" transform="translate(234.716797 0)"/>
     <use xlink:href="#DejaVuSans-63" transform="translate(295.996094 0)"/>
     <use xlink:href="#DejaVuSans-74" transform="translate(350.976562 0)"/>
     <use xlink:href="#DejaVuSans-69" transform="translate(390.185547 0)"/>
     <use xlink:href="#DejaVuSans-6f" transform="translate(417.96875 0)"/>
     <use xlink:href="#DejaVuSans-6e" transform="translate(479.150391 0)"/>
     <use xlink:href="#DejaVuSans-20" transform="translate(542.529297 0)"/>
     <use xlink:href="#DejaVuSans-70" transform="translate(574.316406 0)"/>
     <use xlink:href="#DejaVuSans-3d" transform="translate(637.792969 0)"/>
     <use xlink:href="#DejaVuSans-30" transform="translate(721.582031 0)"/>
     <use xlink:href="#DejaVuSans-2e" transform="translate(785.205078 0)"/>
     <use xlink:href="#DejaVuSans-30" transform="translate(816.992188 0)"/>
     <use xlink:href="#DejaVuSans-30" transform="translate(880.615234 0)"/>
     <use xlink:href="#DejaVuSans-32" transform="translate(944.238281 0)"/>
    </g>
    <!-- BMI 40: ΔHigh-Low=0.30 (0.13,0.46); p=0.000 -->
    <g style="fill: #4c566a" transform="translate(57.6658 232.498312) scale(0.1 -0.1)">
     <defs>
      <path id="DejaVuSans-3a" d="M 750 794 
L 1409 794 
L 1409 0 
L 750 0 
L 750 794 
z
M 750 3309 
L 1409 3309 
L 1409 2516 
L 750 2516 
L 750 3309 
z
" transform="scale(0.015625)"/>
      <path id="DejaVuSans-394" d="M 2188 4044 
L 906 525 
L 3472 525 
L 2188 4044 
z
M 50 0 
L 1831 4666 
L 2547 4666 
L 4325 0 
L 50 0 
z
" transform="scale(0.015625)"/>
      <path id="DejaVuSans-48" d="M 628 4666 
L 1259 4666 
L 1259 2753 
L 3553 2753 
L 3553 4666 
L 4184 4666 
L 4184 0 
L 3553 0 
L 3553 2222 
L 1259 2222 
L 1259 0 
L 628 0 
L 628 4666 
z
" transform="scale(0.015625)"/>
      <path id="DejaVuSans-68" d="M 3513 2113 
L 3513 0 
L 2938 0 
L 2938 2094 
Q 2938 2591 2744 2837 
Q 2550 3084 2163 3084 
Q 1697 3084 1428 2787 
Q 1159 2491 1159 1978 
L 1159 0 
L 581 0 
L 581 4863 
L 1159 4863 
L 1159 2956 
Q 1366 3272 1645 3428 
Q 1925 3584 2291 3584 
Q 2894 3584 3203 3211 
Q 3513 2838 3513 2113 
z
" transform="scale(0.015625)"/>
      <path id="DejaVuSans-2d" d="M 313 2009 
L 1997 2009 
L 1997 1497 
L 313 1497 
L 313 2009 
z
" transform="scale(0.015625)"/>
      <path id="DejaVuSans-4c" d="M 628 4666 
L 1259 4666 
L 1259 531 
L 3531 531 
L 3531 0 
L 628 0 
L 628 4666 
z
" transform="scale(0.015625)"/>
      <path id="DejaVuSans-77" d="M 269 3500 
L 844 3500 
L 1563 769 
L 2278 3500 
L 2956 3500 
L 3675 769 
L 4391 3500 
L 4966 3500 
L 4050 0 
L 3372 0 
L 2619 2869 
L 1863 0 
L 1184 0 
L 269 3500 
z
" transform="scale(0.015625)"/>
      <path id="DejaVuSans-2c" d="M 750 794 
L 1409 794 
L 1409 256 
L 897 -744 
L 494 -744 
L 750 256 
L 750 794 
z
" transform="scale(0.015625)"/>
      <path id="DejaVuSans-36" d="M 2113 2584 
Q 1688 2584 1439 2293 
Q 1191 2003 1191 1497 
Q 1191 994 1439 701 
Q 1688 409 2113 409 
Q 2538 409 2786 701 
Q 3034 994 3034 1497 
Q 3034 2003 2786 2293 
Q 2538 2584 2113 2584 
z
M 3366 4563 
L 3366 3988 
Q 3128 4100 2886 4159 
Q 2644 4219 2406 4219 
Q 1781 4219 1451 3797 
Q 1122 3375 1075 2522 
Q 1259 2794 1537 2939 
Q 1816 3084 2150 3084 
Q 2853 3084 3261 2657 
Q 3669 2231 3669 1497 
Q 3669 778 3244 343 
Q 2819 -91 2113 -91 
Q 1303 -91 875 529 
Q 447 1150 447 2328 
Q 447 3434 972 4092 
Q 1497 4750 2381 4750 
Q 2619 4750 2861 4703 
Q 3103 4656 3366 4563 
z
" transform="scale(0.015625)"/>
      <path id="DejaVuSans-3b" d="M 750 3309 
L 1409 3309 
L 1409 2516 
L 750 2516 
L 750 3309 
z
M 750 794 
L 1409 794 
L 1409 256 
L 897 -744 
L 494 -744 
L 750 256 
L 750 794 
z
" transform="scale(0.015625)"/>
     </defs>
     <use xlink:href="#DejaVuSans-42"/>
     <use xlink:href="#DejaVuSans-4d" transform="translate(68.603516 0)"/>
     <use xlink:href="#DejaVuSans-49" transform="translate(154.882812 0)"/>
     <use xlink:href="#DejaVuSans-20" transform="translate(184.375 0)"/>
     <use xlink:href="#DejaVuSans-34" transform="translate(216.162109 0)"/>
     <use xlink:href="#DejaVuSans-30" transform="translate(279.785156 0)"/>
     <use xlink:href="#DejaVuSans-3a" transform="translate(343.408203 0)"/>
     <use xlink:href="#DejaVuSans-20" transform="translate(377.099609 0)"/>
     <use xlink:href="#DejaVuSans-394" transform="translate(408.886719 0)"/>
     <use xlink:href="#DejaVuSans-48" transform="translate(477.294922 0)"/>
     <use xlink:href="#DejaVuSans-69" transform="translate(552.490234 0)"/>
     <use xlink:href="#DejaVuSans-67" transform="translate(580.273438 0)"/>
     <use xlink:href="#DejaVuSans-68" transform="translate(643.75 0)"/>
     <use xlink:href="#DejaVuSans-2d" transform="translate(707.128906 0)"/>
     <use xlink:href="#DejaVuSans-4c" transform="translate(743.212891 0)"/>
     <use xlink:href="#DejaVuSans-6f" transform="translate(797.175781 0)"/>
     <use xlink:href="#DejaVuSans-77" transform="translate(858.357422 0)"/>
     <use xlink:href="#DejaVuSans-3d" transform="translate(940.144531 0)"/>
     <use xlink:href="#DejaVuSans-30" transform="translate(1023.933594 0)"/>
     <use xlink:href="#DejaVuSans-2e" transform="translate(1087.556641 0)"/>
     <use xlink:href="#DejaVuSans-33" transform="translate(1119.34375 0)"/>
     <use xlink:href="#DejaVuSans-30" transform="translate(1182.966797 0)"/>
     <use xlink:href="#DejaVuSans-20" transform="translate(1246.589844 0)"/>
     <use xlink:href="#DejaVuSans-28" transform="translate(1278.376953 0)"/>
     <use xlink:href="#DejaVuSans-30" transform="translate(1317.390625 0)"/>
     <use xlink:href="#DejaVuSans-2e" transform="translate(1381.013672 0)"/>
     <use xlink:href="#DejaVuSans-31" transform="translate(1412.800781 0)"/>
     <use xlink:href="#DejaVuSans-33" transform="translate(1476.423828 0)"/>
     <use xlink:href="#DejaVuSans-2c" transform="translate(1540.046875 0)"/>
     <use xlink:href="#DejaVuSans-30" transform="translate(1571.833984 0)"/>
     <use xlink:href="#DejaVuSans-2e" transform="translate(1635.457031 0)"/>
     <use xlink:href="#DejaVuSans-34" transform="translate(1667.244141 0)"/>
     <use xlink:href="#DejaVuSans-36" transform="translate(1730.867188 0)"/>
     <use xlink:href="#DejaVuSans-29" transform="translate(1794.490234 0)"/>
     <use xlink:href="#DejaVuSans-3b" transform="translate(1833.503906 0)"/>
     <use xlink:href="#DejaVuSans-20" transform="translate(1867.195312 0)"/>
     <use xlink:href="#DejaVuSans-70" transform="translate(1898.982422 0)"/>
     <use xlink:href="#DejaVuSans-3d" transform="translate(1962.458984 0)"/>
     <use xlink:href="#DejaVuSans-30" transform="translate(2046.248047 0)"/>
     <use xlink:href="#DejaVuSans-2e" transform="translate(2109.871094 0)"/>
     <use xlink:href="#DejaVuSans-30" transform="translate(2141.658203 0)"/>
     <use xlink:href="#DejaVuSans-30" transform="translate(2205.28125 0)"/>
     <use xlink:href="#DejaVuSans-30" transform="translate(2268.904297 0)"/>
    </g>
   </g>
   <g id="text_16">
    <!-- Interaction BMI × volume : tiers de centre -->
    <g style="fill: #4c566a" transform="translate(141.35125 19.92) scale(0.12 -0.12)">
     <defs>
      <path id="DejaVuSans-d7" d="M 4488 3438 
L 3059 2003 
L 4488 575 
L 4116 197 
L 2681 1631 
L 1247 197 
L 878 575 
L 2303 2003 
L 878 3438 
L 1247 3816 
L 2681 2381 
L 4116 3816 
L 4488 3438 
z
" transform="scale(0.015625)"/>
      <path id="DejaVuSans-76" d="M 191 3500 
L 800 3500 
L 1894 563 
L 2988 3500 
L 3597 3500 
L 2284 0 
L 1503 0 
L 191 3500 
z
" transform="scale(0.015625)"/>
      <path id="DejaVuSans-75" d="M 544 1381 
L 544 3500 
L 1119 3500 
L 1119 1403 
Q 1119 906 1312 657 
Q 1506 409 1894 409 
Q 2359 409 2629 706 
Q 2900 1003 2900 1516 
L 2900 3500 
L 3475 3500 
L 3475 0 
L 2900 0 
L 2900 538 
Q 2691 219 2414 64 
Q 2138 -91 1772 -91 
Q 1169 -91 856 284 
Q 544 659 544 1381 
z
M 1991 3584 
L 1991 3584 
z
" transform="scale(0.015625)"/>
     </defs>
     <use xlink:href="#DejaVuSans-49"/>
     <use xlink:href="#DejaVuSans-6e" transform="translate(29.492188 0)"/>
     <use xlink:href="#DejaVuSans-74" transform="translate(92.871094 0)"/>
     <use xlink:href="#DejaVuSans-65" transform="translate(132.080078 0)"/>
     <use xlink:href="#DejaVuSans-72" transform="translate(193.603516 0)"/>
     <use xlink:href="#DejaVuSans-61" transform="translate(234.716797 0)"/>
     <use xlink:href="#DejaVuSans-63" transform="translate(295.996094 0)"/>
     <use xlink:href="#DejaVuSans-74" transform="translate(350.976562 0)"/>
     <use xlink:href="#DejaVuSans-69" transform="translate(390.185547 0)"/>
     <use xlink:href="#DejaVuSans-6f" transform="translate(417.96875 0)"/>
     <use xlink:href="#DejaVuSans-6e" transform="translate(479.150391 0)"/>
     <use xlink:href="#DejaVuSans-20" transform="translate(542.529297 0)"/>
     <use xlink:href="#DejaVuSans-42" transform="translate(574.316406 0)"/>
     <use xlink:href="#DejaVuSans-4d" transform="translate(642.919922 0)"/>
     <use xlink:href="#DejaVuSans-49" transform="translate(729.199219 0)"/>
     <use xlink:href="#DejaVuSans-20" transform="translate(758.691406 0)"/>
     <use xlink:href="#DejaVuSans-d7" transform="translate(790.478516 0)"/>
     <use xlink:href="#DejaVuSans-20" transform="translate(874.267578 0)"/>
     <use xlink:href="#DejaVuSans-76" transform="translate(906.054688 0)"/>
     <use xlink:href="#DejaVuSans-6f" transform="translate(965.234375 0)"/>
     <use xlink:href="#DejaVuSans-6c" transform="translate(1026.416016 0)"/>
     <use xlink:href="#DejaVuSans-75" transform="translate(1054.199219 0)"/>
     <use xlink:href="#DejaVuSans-6d" transform="translate(1117.578125 0)"/>
     <use xlink:href="#DejaVuSans-65" transform="translate(1214.990234 0)"/>
     <use xlink:href="#DejaVuSans-20" transform="translate(1276.513672 0)"/>
     <use xlink:href="#DejaVuSans-3a" transform="translate(1308.300781 0)"/>
     <use xlink:href="#DejaVuSans-20" transform="translate(1341.992188 0)"/>
     <use xlink:href="#DejaVuSans-74" transform="translate(1373.779297 0)"/>
     <use xlink:href="#DejaVuSans-69" transform="translate(1412.988281 0)"/>
     <use xlink:href="#DejaVuSans-65" transform="translate(1440.771484 0)"/>
     <use xlink:href="#DejaVuSans-72" transform="translate(1502.294922 0)"/>
     <use xlink:href="#DejaVuSans-73" transform="translate(1543.408203 0)"/>
     <use xlink:href="#DejaVuSans-20" transform="translate(1595.507812 0)"/>
     <use xlink:href="#DejaVuSans-64" transform="translate(1627.294922 0)"/>
     <use xlink:href="#DejaVuSans-65" transform="translate(1690.771484 0)"/>
     <use xlink:href="#DejaVuSans-20" transform="translate(1752.294922 0)"/>
     <use xlink:href="#DejaVuSans-63" transform="translate(1784.082031 0)"/>
     <use xlink:href="#DejaVuSans-65" transform="translate(1839.0625 0)"/>
     <use xlink:href="#DejaVuSans-6e" transform="translate(1900.585938 0)"/>
     <use xlink:href="#DejaVuSans-74" transform="translate(1963.964844 0)"/>
     <use xlink:href="#DejaVuSans-72" transform="translate(2003.173828 0)"/>
     <use xlink:href="#DejaVuSans-65" transform="translate(2042.037109 0)"/>
    </g>
   </g>
   <g id="legend_1">
    <g id="text_17">
     <!-- Volume -->
     <g transform="translate(64.815313 190.445937) scale(0.1 -0.1)">
      <defs>
       <path id="DejaVuSans-56" d="M 1831 0 
L 50 4666 
L 709 4666 
L 2188 738 
L 3669 4666 
L 4325 4666 
L 2547 0 
L 1831 0 
z
" transform="scale(0.015625)"/>
      </defs>
      <use xlink:href="#DejaVuSans-56"/>
      <use xlink:href="#DejaVuSans-6f" transform="translate(60.658203 0)"/>
      <use xlink:href="#DejaVuSans-6c" transform="translate(121.839844 0)"/>
      <use xlink:href="#DejaVuSans-75" transform="translate(149.623047 0)"/>
      <use xlink:href="#DejaVuSans-6d" transform="translate(213.001953 0)"/>
      <use xlink:href="#DejaVuSans-65" transform="translate(310.414062 0)"/>
     </g>
    </g>
    <g id="line2d_28">
     <path d="M 57.92 201.624062 
L 67.92 201.624062 
L 77.92 201.624062 
" style="fill: none; stroke: #5e81ac; stroke-width: 1.5; stroke-linecap: square"/>
    </g>
    <g id="text_18">
     <!-- Low -->
     <g transform="translate(85.92 205.124062) scale(0.1 -0.1)">
      <use xlink:href="#DejaVuSans-4c"/>
      <use xlink:href="#DejaVuSans-6f" transform="translate(53.962891 0)"/>
      <use xlink:href="#DejaVuSans-77" transform="translate(115.144531 0)"/>
     </g>
    </g>
    <g id="line2d_29">
     <path d="M 57.92 216.302187 
L 67.92 216.302187 
L 77.92 216.302187 
" style="fill: none; stroke: #d08770; stroke-width: 1.5; stroke-linecap: square"/>
    </g>
    <g id="text_19">
     <!-- Mid -->
     <g transform="translate(85.92 219.802187) scale(0.1 -0.1)">
      <use xlink:href="#DejaVuSans-4d"/>
      <use xlink:href="#DejaVuSans-69" transform="translate(86.279297 0)"/>
      <use xlink:href="#DejaVuSans-64" transform="translate(114.0625 0)"/>
     </g>
    </g>
    <g id="line2d_30">
     <path d="M 57.92 230.980312 
L 67.92 230.980312 
L 77.92 230.980312 
" style="fill: none; stroke: #a3be8c; stroke-width: 1.5; stroke-linecap: square"/>
    </g>
    <g id="text_20">
     <!-- High -->
     <g transform="translate(85.92 234.480312) scale(0.1 -0.1)">
      <use xlink:href="#DejaVuSans-48"/>
      <use xlink:href="#DejaVuSans-69" transform="translate(75.195312 0)"/>
      <use xlink:href="#DejaVuSans-67" transform="translate(102.978516 0)"/>
      <use xlink:href="#DejaVuSans-68" transform="translate(166.455078 0)"/>
     </g>
    </g>
   </g>
  </g>
 </g>
 <defs>
  <clipPath id="pdf8d960e0f">
   <rect x="48.92" y="25.92" width="437.29" height="219.64"/>
  </clipPath>
 </defs>
</svg>
