<?xml version="1.0" encoding="utf-8" standalone="no"?>
<!DOCTYPE svg PUBLIC "-//W3C//DTD SVG 1.1//EN"
  "http://www.w3.org/Graphics/SVG/1.1/DTD/svg11.dtd">
<svg xmlns:xlink="http://www.w3.org/1999/xlink" width="504pt" height="288pt" viewBox="0 0 504 288" xmlns="http://www.w3.org/2000/svg" version="1.1">
 <metadata>
  <rdf:RDF xmlns:dc="http://purl.org/dc/elements/1.1/" xmlns:cc="http://creativecommons.org/ns#" xmlns:rdf="http://www.w3.org/1999/02/22-rdf-syntax-ns#">
   <cc:Work>
    <dc:type rdf:resource="http://purl.org/dc/dcmitype/StillImage"/>
    <dc:date>2025-12-01T23:13:32.613044</dc:date>
    <dc:format>image/svg+xml</dc:format>
    <dc:creator>
     <cc:Agent>
      <dc:title>Matplotlib v3.10.6, https://matplotlib.org/</dc:title>
     </cc:Agent>
    </dc:creator>
   </cc:Work>
  </rdf:RDF>
 </metadata>
 <defs>
  <style type="text/css">*{stroke-linejoin: round; stroke-linecap: butt}</style>
 </defs>
 <g id="figure_1">
  <g id="patch_1">
   <path d="M 0 288 
L 504 288 
L 504 0 
L 0 0 
z
" style="fill: #ffffff"/>
  </g>
  <g id="axes_1">
   <g id="patch_2">
    <path d="M 65.84 245.56 
L 486.21 245.56 
L 486.21 26.64 
L 65.84 26.64 
z
" style="fill: #ffffff"/>
   </g>
   <g id="FillBetweenPolyCollection_1">
    <defs>
     <path id="m97d8123623" d="M 65.84 -296.129565 
L 65.84 -140.778303 
L 67.952412 -141.554612 
L 70.064824 -142.325963 
L 72.177236 -143.092345 
L 74.289648 -143.853749 
L 76.40206 -144.610166 
L 78.514472 -145.36159 
L 80.626884 -146.108012 
L 82.739296 -146.849426 
L 84.851709 -147.585829 
L 86.964121 -148.317214 
L 89.076533 -149.043579 
L 91.188945 -149.76492 
L 93.301357 -150.481235 
L 95.413769 -151.192524 
L 97.526181 -151.898785 
L 99.638593 -152.600018 
L 101.751005 -153.296225 
L 103.863417 -153.987407 
L 105.975829 -154.673567 
L 108.088241 -155.354707 
L 110.200653 -156.030832 
L 112.313065 -156.701946 
L 114.425477 -157.368053 
L 116.537889 -158.029161 
L 118.650302 -158.685275 
L 120.762714 -159.336402 
L 122.875126 -159.98255 
L 124.987538 -160.623728 
L 127.09995 -161.259945 
L 129.212362 -161.891209 
L 131.324774 -162.517531 
L 133.437186 -163.138922 
L 135.549598 -163.755393 
L 137.66201 -164.366956 
L 139.774422 -164.973623 
L 141.886834 -165.575406 
L 143.999246 -166.172319 
L 146.111658 -166.764375 
L 148.22407 -167.351589 
L 150.336482 -167.933976 
L 152.448894 -168.51155 
L 154.561307 -169.084326 
L 156.673719 -169.652322 
L 158.786131 -170.215552 
L 160.898543 -170.774033 
L 163.010955 -171.327783 
L 165.123367 -171.876819 
L 167.235779 -172.421158 
L 169.348191 -172.960819 
L 171.460603 -173.495818 
L 173.573015 -174.026176 
L 175.685427 -174.551911 
L 177.797839 -175.073042 
L 179.910251 -175.589587 
L 182.022663 -176.101568 
L 184.135075 -176.609002 
L 186.247487 -177.111912 
L 188.359899 -177.610315 
L 190.472312 -178.104234 
L 192.584724 -178.593687 
L 194.697136 -179.078697 
L 196.809548 -179.559283 
L 198.92196 -180.035467 
L 201.034372 -180.507269 
L 203.146784 -180.974711 
L 205.259196 -181.437814 
L 207.371608 -181.896599 
L 209.48402 -182.351088 
L 211.596432 -182.801302 
L 213.708844 -183.247262 
L 215.821256 -183.68899 
L 217.933668 -184.126508 
L 220.04608 -184.559837 
L 222.158492 -184.988999 
L 224.270905 -185.414015 
L 226.383317 -185.834907 
L 228.495729 -186.251696 
L 230.608141 -186.664405 
L 232.720553 -187.073054 
L 234.832965 -187.477665 
L 236.945377 -187.87826 
L 239.057789 -188.27486 
L 241.170201 -188.667486 
L 243.282613 -189.05616 
L 245.395025 -189.440902 
L 247.507437 -189.821735 
L 249.619849 -190.198678 
L 251.732261 -190.571754 
L 253.844673 -190.940982 
L 255.957085 -191.306384 
L 258.069497 -191.66798 
L 260.18191 -192.025791 
L 262.294322 -192.379837 
L 264.406734 -192.730139 
L 266.519146 -193.076717 
L 268.631558 -193.41959 
L 270.74397 -193.75878 
L 272.856382 -194.094305 
L 274.968794 -194.426185 
L 277.081206 -194.75444 
L 279.193618 -195.07909 
L 281.30603 -195.400153 
L 283.418442 -195.717649 
L 285.530854 -196.031597 
L 287.643266 -196.342015 
L 289.755678 -196.648922 
L 291.86809 -196.952337 
L 293.980503 -197.252279 
L 296.092915 -197.548764 
L 298.205327 -197.841812 
L 300.317739 -198.13144 
L 302.430151 -198.417667 
L 304.542563 -198.700509 
L 306.654975 -198.979984 
L 308.767387 -199.25611 
L 310.879799 -199.528903 
L 312.992211 -199.798381 
L 315.104623 -200.064559 
L 317.217035 -200.327456 
L 319.329447 -200.587088 
L 321.441859 -200.84347 
L 323.554271 -201.096618 
L 325.666683 -201.34655 
L 327.779095 -201.593281 
L 329.891508 -201.836826 
L 332.00392 -202.077202 
L 334.116332 -202.314422 
L 336.228744 -202.548504 
L 338.341156 -202.779461 
L 340.453568 -203.007309 
L 342.56598 -203.232063 
L 344.678392 -203.453737 
L 346.790804 -203.672346 
L 348.903216 -203.887903 
L 351.015628 -204.100425 
L 353.12804 -204.309923 
L 355.240452 -204.516413 
L 357.352864 -204.719909 
L 359.465276 -204.920423 
L 361.577688 -205.117969 
L 363.690101 -205.312562 
L 365.802513 -205.504214 
L 367.914925 -205.692938 
L 370.027337 -205.878747 
L 372.139749 -206.061654 
L 374.252161 -206.241673 
L 376.364573 -206.418816 
L 378.476985 -206.593094 
L 380.589397 -206.764522 
L 382.701809 -206.93311 
L 384.814221 -207.098872 
L 386.926633 -207.261819 
L 389.039045 -207.421964 
L 391.151457 -207.579318 
L 393.263869 -207.733893 
L 395.376281 -207.885701 
L 397.488693 -208.034754 
L 399.601106 -208.181062 
L 401.713518 -208.324638 
L 403.82593 -208.465493 
L 405.938342 -208.603637 
L 408.050754 -208.739083 
L 410.163166 -208.871841 
L 412.275578 -209.001922 
L 414.38799 -209.129337 
L 416.500402 -209.254098 
L 418.612814 -209.376213 
L 420.725226 -209.495696 
L 422.837638 -209.612555 
L 424.95005 -209.726802 
L 427.062462 -209.838447 
L 429.174874 -209.9475 
L 431.287286 -210.053972 
L 433.399698 -210.157874 
L 435.512111 -210.259214 
L 437.624523 -210.358005 
L 439.736935 -210.454255 
L 441.849347 -210.547974 
L 443.961759 -210.639174 
L 446.074171 -210.727863 
L 448.186583 -210.814052 
L 450.298995 -210.89775 
L 452.411407 -210.978968 
L 454.523819 -211.057715 
L 456.636231 -211.134001 
L 458.748643 -211.207836 
L 460.861055 -211.279229 
L 462.973467 -211.34819 
L 465.085879 -211.414728 
L 467.198291 -211.478854 
L 469.310704 -211.540577 
L 471.423116 -211.599906 
L 473.535528 -211.65685 
L 475.64794 -211.71142 
L 477.760352 -211.763625 
L 479.872764 -211.813473 
L 481.985176 -211.860976 
L 484.097588 -211.906141 
L 486.21 -211.948978 
L 486.21 -380.29487 
L 486.21 -380.29487 
L 484.097588 -380.028987 
L 481.985176 -379.761476 
L 479.872764 -379.492328 
L 477.760352 -379.221535 
L 475.64794 -378.94909 
L 473.535528 -378.674985 
L 471.423116 -378.399213 
L 469.310704 -378.121765 
L 467.198291 -377.842634 
L 465.085879 -377.561813 
L 462.973467 -377.279295 
L 460.861055 -376.995071 
L 458.748643 -376.709135 
L 456.636231 -376.421479 
L 454.523819 -376.132097 
L 452.411407 -375.840981 
L 450.298995 -375.548124 
L 448.186583 -375.253519 
L 446.074171 -374.95716 
L 443.961759 -374.659039 
L 441.849347 -374.359151 
L 439.736935 -374.057488 
L 437.624523 -373.754045 
L 435.512111 -373.448815 
L 433.399698 -373.141792 
L 431.287286 -372.832969 
L 429.174874 -372.522341 
L 427.062462 -372.209903 
L 424.95005 -371.895647 
L 422.837638 -371.57957 
L 420.725226 -371.261665 
L 418.612814 -370.941927 
L 416.500402 -370.620351 
L 414.38799 -370.296932 
L 412.275578 -369.971665 
L 410.163166 -369.644545 
L 408.050754 -369.315569 
L 405.938342 -368.984731 
L 403.82593 -368.652027 
L 401.713518 -368.317454 
L 399.601106 -367.981007 
L 397.488693 -367.642684 
L 395.376281 -367.30248 
L 393.263869 -366.960391 
L 391.151457 -366.616416 
L 389.039045 -366.270552 
L 386.926633 -365.922794 
L 384.814221 -365.573142 
L 382.701809 -365.221593 
L 380.589397 -364.868144 
L 378.476985 -364.512794 
L 376.364573 -364.155541 
L 374.252161 -363.796385 
L 372.139749 -363.435323 
L 370.027337 -363.072355 
L 367.914925 -362.70748 
L 365.802513 -362.340698 
L 363.690101 -361.972008 
L 361.577688 -361.601412 
L 359.465276 -361.228908 
L 357.352864 -360.854498 
L 355.240452 -360.478182 
L 353.12804 -360.099962 
L 351.015628 -359.71984 
L 348.903216 -359.337816 
L 346.790804 -358.953892 
L 344.678392 -358.568072 
L 342.56598 -358.180358 
L 340.453568 -357.790752 
L 338.341156 -357.399258 
L 336.228744 -357.005879 
L 334.116332 -356.610618 
L 332.00392 -356.213481 
L 329.891508 -355.814471 
L 327.779095 -355.413594 
L 325.666683 -355.010853 
L 323.554271 -354.606255 
L 321.441859 -354.199805 
L 319.329447 -353.791509 
L 317.217035 -353.381374 
L 315.104623 -352.969406 
L 312.992211 -352.555613 
L 310.879799 -352.140001 
L 308.767387 -351.722579 
L 306.654975 -351.303354 
L 304.542563 -350.882335 
L 302.430151 -350.459531 
L 300.317739 -350.034951 
L 298.205327 -349.608604 
L 296.092915 -349.1805 
L 293.980503 -348.750649 
L 291.86809 -348.319063 
L 289.755678 -347.885752 
L 287.643266 -347.450727 
L 285.530854 -347.013999 
L 283.418442 -346.575582 
L 281.30603 -346.135488 
L 279.193618 -345.693728 
L 277.081206 -345.250317 
L 274.968794 -344.805267 
L 272.856382 -344.358594 
L 270.74397 -343.91031 
L 268.631558 -343.460432 
L 266.519146 -343.008972 
L 264.406734 -342.555948 
L 262.294322 -342.101375 
L 260.18191 -341.645269 
L 258.069497 -341.187646 
L 255.957085 -340.728524 
L 253.844673 -340.267919 
L 251.732261 -339.805849 
L 249.619849 -339.342332 
L 247.507437 -338.877386 
L 245.395025 -338.41103 
L 243.282613 -337.943283 
L 241.170201 -337.474164 
L 239.057789 -337.003693 
L 236.945377 -336.531889 
L 234.832965 -336.058774 
L 232.720553 -335.584368 
L 230.608141 -335.108692 
L 228.495729 -334.631766 
L 226.383317 -334.153614 
L 224.270905 -333.674256 
L 222.158492 -333.193715 
L 220.04608 -332.712013 
L 217.933668 -332.229174 
L 215.821256 -331.74522 
L 213.708844 -331.260175 
L 211.596432 -330.774062 
L 209.48402 -330.286906 
L 207.371608 -329.79873 
L 205.259196 -329.309559 
L 203.146784 -328.819417 
L 201.034372 -328.32833 
L 198.92196 -327.836322 
L 196.809548 -327.343419 
L 194.697136 -326.849647 
L 192.584724 -326.35503 
L 190.472312 -325.859595 
L 188.359899 -325.363369 
L 186.247487 -324.866376 
L 184.135075 -324.368644 
L 182.022663 -323.870198 
L 179.910251 -323.371067 
L 177.797839 -322.871275 
L 175.685427 -322.370851 
L 173.573015 -321.869821 
L 171.460603 -321.368212 
L 169.348191 -320.866052 
L 167.235779 -320.363367 
L 165.123367 -319.860184 
L 163.010955 -319.356531 
L 160.898543 -318.852435 
L 158.786131 -318.347924 
L 156.673719 -317.843024 
L 154.561307 -317.337763 
L 152.448894 -316.832167 
L 150.336482 -316.326265 
L 148.22407 -315.820083 
L 146.111658 -315.313648 
L 143.999246 -314.806987 
L 141.886834 -314.300127 
L 139.774422 -313.793094 
L 137.66201 -313.285916 
L 135.549598 -312.778618 
L 133.437186 -312.271227 
L 131.324774 -311.763768 
L 129.212362 -311.256269 
L 127.09995 -310.748754 
L 124.987538 -310.241249 
L 122.875126 -309.733779 
L 120.762714 -309.226369 
L 118.650302 -308.719045 
L 116.537889 -308.21183 
L 114.425477 -307.704749 
L 112.313065 -307.197826 
L 110.200653 -306.691085 
L 108.088241 -306.184548 
L 105.975829 -305.67824 
L 103.863417 -305.172182 
L 101.751005 -304.666397 
L 99.638593 -304.160907 
L 97.526181 -303.655733 
L 95.413769 -303.150897 
L 93.301357 -302.64642 
L 91.188945 -302.142322 
L 89.076533 -301.638623 
L 86.964121 -301.135342 
L 84.851709 -300.6325 
L 82.739296 -300.130114 
L 80.626884 -299.628203 
L 78.514472 -299.126785 
L 76.40206 -298.625877 
L 74.289648 -298.125496 
L 72.177236 -297.625659 
L 70.064824 -297.126381 
L 67.952412 -296.627678 
L 65.84 -296.129565 
z
" style="stroke: #a3be8c; stroke-opacity: 0.15"/>
    </defs>
    <g clip-path="url(#p8a381a6f7f)">
     <use xlink:href="#m97d8123623" x="0" y="288" style="fill: #a3be8c; fill-opacity: 0.15; stroke: #a3be8c; stroke-opacity: 0.15"/>
    </g>
   </g>
   <g id="FillBetweenPolyCollection_2">
    <defs>
     <path id="m0a05750176" d="M 65.84 -270.358882 
L 65.84 -142.135677 
L 67.952412 -142.75826 
L 70.064824 -143.377073 
L 72.177236 -143.99211 
L 74.289648 -144.603362 
L 76.40206 -145.210822 
L 78.514472 -145.814484 
L 80.626884 -146.414341 
L 82.739296 -147.010388 
L 84.851709 -147.602619 
L 86.964121 -148.191031 
L 89.076533 -148.775619 
L 91.188945 -149.356381 
L 93.301357 -149.933312 
L 95.413769 -150.506411 
L 97.526181 -151.075677 
L 99.638593 -151.641107 
L 101.751005 -152.202701 
L 103.863417 -152.760459 
L 105.975829 -153.314381 
L 108.088241 -153.864467 
L 110.200653 -154.41072 
L 112.313065 -154.953141 
L 114.425477 -155.491731 
L 116.537889 -156.026494 
L 118.650302 -156.557433 
L 120.762714 -157.084552 
L 122.875126 -157.607854 
L 124.987538 -158.127344 
L 127.09995 -158.643027 
L 129.212362 -159.154908 
L 131.324774 -159.662993 
L 133.437186 -160.167289 
L 135.549598 -160.667802 
L 137.66201 -161.164539 
L 139.774422 -161.657507 
L 141.886834 -162.146714 
L 143.999246 -162.632169 
L 146.111658 -163.113879 
L 148.22407 -163.591854 
L 150.336482 -164.066103 
L 152.448894 -164.536635 
L 154.561307 -165.00346 
L 156.673719 -165.466589 
L 158.786131 -165.926032 
L 160.898543 -166.381799 
L 163.010955 -166.833902 
L 165.123367 -167.282352 
L 167.235779 -167.72716 
L 169.348191 -168.168339 
L 171.460603 -168.605901 
L 173.573015 -169.039857 
L 175.685427 -169.470221 
L 177.797839 -169.897005 
L 179.910251 -170.320222 
L 182.022663 -170.739886 
L 184.135075 -171.15601 
L 186.247487 -171.568607 
L 188.359899 -171.977691 
L 190.472312 -172.383276 
L 192.584724 -172.785376 
L 194.697136 -173.184006 
L 196.809548 -173.57918 
L 198.92196 -173.970911 
L 201.034372 -174.359216 
L 203.146784 -174.744108 
L 205.259196 -175.125602 
L 207.371608 -175.503714 
L 209.48402 -175.878458 
L 211.596432 -176.249849 
L 213.708844 -176.617903 
L 215.821256 -176.982635 
L 217.933668 -177.34406 
L 220.04608 -177.702194 
L 222.158492 -178.057051 
L 224.270905 -178.408648 
L 226.383317 -178.757 
L 228.495729 -179.102122 
L 230.608141 -179.44403 
L 232.720553 -179.782739 
L 234.832965 -180.118265 
L 236.945377 -180.450624 
L 239.057789 -180.77983 
L 241.170201 -181.1059 
L 243.282613 -181.428849 
L 245.395025 -181.748693 
L 247.507437 -182.065446 
L 249.619849 -182.379125 
L 251.732261 -182.689745 
L 253.844673 -182.997321 
L 255.957085 -183.301868 
L 258.069497 -183.603402 
L 260.18191 -183.901937 
L 262.294322 -184.19749 
L 264.406734 -184.490075 
L 266.519146 -184.779707 
L 268.631558 -185.066401 
L 270.74397 -185.350172 
L 272.856382 -185.631035 
L 274.968794 -185.909004 
L 277.081206 -186.184094 
L 279.193618 -186.45632 
L 281.30603 -186.725696 
L 283.418442 -186.992237 
L 285.530854 -187.255957 
L 287.643266 -187.516869 
L 289.755678 -187.774989 
L 291.86809 -188.03033 
L 293.980503 -188.282906 
L 296.092915 -188.532731 
L 298.205327 -188.779818 
L 300.317739 -189.024182 
L 302.430151 -189.265835 
L 304.542563 -189.504792 
L 306.654975 -189.741064 
L 308.767387 -189.974667 
L 310.879799 -190.205612 
L 312.992211 -190.433912 
L 315.104623 -190.659581 
L 317.217035 -190.882631 
L 319.329447 -191.103075 
L 321.441859 -191.320925 
L 323.554271 -191.536193 
L 325.666683 -191.748893 
L 327.779095 -191.959036 
L 329.891508 -192.166634 
L 332.00392 -192.371699 
L 334.116332 -192.574243 
L 336.228744 -192.774278 
L 338.341156 -192.971815 
L 340.453568 -193.166866 
L 342.56598 -193.359442 
L 344.678392 -193.549554 
L 346.790804 -193.737214 
L 348.903216 -193.922433 
L 351.015628 -194.105222 
L 353.12804 -194.28559 
L 355.240452 -194.463551 
L 357.352864 -194.639112 
L 359.465276 -194.812287 
L 361.577688 -194.983084 
L 363.690101 -195.151514 
L 365.802513 -195.317587 
L 367.914925 -195.481314 
L 370.027337 -195.642704 
L 372.139749 -195.801767 
L 374.252161 -195.958513 
L 376.364573 -196.112952 
L 378.476985 -196.265093 
L 380.589397 -196.414947 
L 382.701809 -196.562521 
L 384.814221 -196.707826 
L 386.926633 -196.850871 
L 389.039045 -196.991665 
L 391.151457 -197.130216 
L 393.263869 -197.266535 
L 395.376281 -197.40063 
L 397.488693 -197.532509 
L 399.601106 -197.662181 
L 401.713518 -197.789656 
L 403.82593 -197.91494 
L 405.938342 -198.038044 
L 408.050754 -198.158975 
L 410.163166 -198.277742 
L 412.275578 -198.394353 
L 414.38799 -198.508815 
L 416.500402 -198.621138 
L 418.612814 -198.731329 
L 420.725226 -198.839396 
L 422.837638 -198.945347 
L 424.95005 -199.049189 
L 427.062462 -199.150931 
L 429.174874 -199.25058 
L 431.287286 -199.348144 
L 433.399698 -199.443631 
L 435.512111 -199.537047 
L 437.624523 -199.628401 
L 439.736935 -199.717699 
L 441.849347 -199.804949 
L 443.961759 -199.890158 
L 446.074171 -199.973334 
L 448.186583 -200.054484 
L 450.298995 -200.133614 
L 452.411407 -200.210733 
L 454.523819 -200.285846 
L 456.636231 -200.358961 
L 458.748643 -200.430085 
L 460.861055 -200.499225 
L 462.973467 -200.566387 
L 465.085879 -200.631579 
L 467.198291 -200.694807 
L 469.310704 -200.756078 
L 471.423116 -200.815398 
L 473.535528 -200.872775 
L 475.64794 -200.928215 
L 477.760352 -200.981725 
L 479.872764 -201.03331 
L 481.985176 -201.082979 
L 484.097588 -201.130736 
L 486.21 -201.17659 
L 486.21 -355.62457 
L 486.21 -355.62457 
L 484.097588 -355.300684 
L 481.985176 -354.9754 
L 479.872764 -354.648718 
L 477.760352 -354.320633 
L 475.64794 -353.991145 
L 473.535528 -353.66025 
L 471.423116 -353.327947 
L 469.310704 -352.994233 
L 467.198291 -352.659107 
L 465.085879 -352.322567 
L 462.973467 -351.984611 
L 460.861055 -351.645237 
L 458.748643 -351.304444 
L 456.636231 -350.962231 
L 454.523819 -350.618595 
L 452.411407 -350.273537 
L 450.298995 -349.927054 
L 448.186583 -349.579146 
L 446.074171 -349.229811 
L 443.961759 -348.87905 
L 441.849347 -348.52686 
L 439.736935 -348.173243 
L 437.624523 -347.818197 
L 435.512111 -347.461722 
L 433.399698 -347.103818 
L 431.287286 -346.744485 
L 429.174874 -346.383724 
L 427.062462 -346.021533 
L 424.95005 -345.657914 
L 422.837638 -345.292868 
L 420.725226 -344.926394 
L 418.612814 -344.558494 
L 416.500402 -344.189169 
L 414.38799 -343.818419 
L 412.275578 -343.446247 
L 410.163166 -343.072653 
L 408.050754 -342.69764 
L 405.938342 -342.321208 
L 403.82593 -341.94336 
L 401.713518 -341.564098 
L 399.601106 -341.183425 
L 397.488693 -340.801342 
L 395.376281 -340.417852 
L 393.263869 -340.032958 
L 391.151457 -339.646663 
L 389.039045 -339.25897 
L 386.926633 -338.869883 
L 384.814221 -338.479405 
L 382.701809 -338.087539 
L 380.589397 -337.69429 
L 378.476985 -337.299662 
L 376.364573 -336.903659 
L 374.252161 -336.506285 
L 372.139749 -336.107545 
L 370.027337 -335.707444 
L 367.914925 -335.305988 
L 365.802513 -334.903181 
L 363.690101 -334.499028 
L 361.577688 -334.093537 
L 359.465276 -333.686712 
L 357.352864 -333.27856 
L 355.240452 -332.869086 
L 353.12804 -332.458299 
L 351.015628 -332.046204 
L 348.903216 -331.632809 
L 346.790804 -331.21812 
L 344.678392 -330.802146 
L 342.56598 -330.384894 
L 340.453568 -329.966372 
L 338.341156 -329.546588 
L 336.228744 -329.12555 
L 334.116332 -328.703268 
L 332.00392 -328.27975 
L 329.891508 -327.855005 
L 327.779095 -327.429042 
L 325.666683 -327.001872 
L 323.554271 -326.573504 
L 321.441859 -326.143948 
L 319.329447 -325.713215 
L 317.217035 -325.281314 
L 315.104623 -324.848258 
L 312.992211 -324.414056 
L 310.879799 -323.97872 
L 308.767387 -323.542263 
L 306.654975 -323.104694 
L 304.542563 -322.666028 
L 302.430151 -322.226275 
L 300.317739 -321.785449 
L 298.205327 -321.343563 
L 296.092915 -320.900628 
L 293.980503 -320.456659 
L 291.86809 -320.01167 
L 289.755678 -319.565673 
L 287.643266 -319.118683 
L 285.530854 -318.670715 
L 283.418442 -318.221782 
L 281.30603 -317.7719 
L 279.193618 -317.321083 
L 277.081206 -316.869348 
L 274.968794 -316.416708 
L 272.856382 -315.96318 
L 270.74397 -315.508781 
L 268.631558 -315.053525 
L 266.519146 -314.59743 
L 264.406734 -314.140512 
L 262.294322 -313.682788 
L 260.18191 -313.224276 
L 258.069497 -312.764991 
L 255.957085 -312.304953 
L 253.844673 -311.844179 
L 251.732261 -311.382686 
L 249.619849 -310.920494 
L 247.507437 -310.457619 
L 245.395025 -309.994082 
L 243.282613 -309.5299 
L 241.170201 -309.065093 
L 239.057789 -308.599679 
L 236.945377 -308.133679 
L 234.832965 -307.667112 
L 232.720553 -307.199997 
L 230.608141 -306.732354 
L 228.495729 -306.264204 
L 226.383317 -305.795566 
L 224.270905 -305.326461 
L 222.158492 -304.856909 
L 220.04608 -304.386932 
L 217.933668 -303.91655 
L 215.821256 -303.445783 
L 213.708844 -302.974653 
L 211.596432 -302.503181 
L 209.48402 -302.031389 
L 207.371608 -301.559297 
L 205.259196 -301.086928 
L 203.146784 -300.614302 
L 201.034372 -300.141442 
L 198.92196 -299.668369 
L 196.809548 -299.195105 
L 194.697136 -298.721672 
L 192.584724 -298.248091 
L 190.472312 -297.774386 
L 188.359899 -297.300577 
L 186.247487 -296.826687 
L 184.135075 -296.352738 
L 182.022663 -295.878751 
L 179.910251 -295.40475 
L 177.797839 -294.930756 
L 175.685427 -294.456791 
L 173.573015 -293.982878 
L 171.460603 -293.509037 
L 169.348191 -293.035292 
L 167.235779 -292.561663 
L 165.123367 -292.088174 
L 163.010955 -291.614845 
L 160.898543 -291.141699 
L 158.786131 -290.668757 
L 156.673719 -290.19604 
L 154.561307 -289.723571 
L 152.448894 -289.25137 
L 150.336482 -288.779458 
L 148.22407 -288.307857 
L 146.111658 -287.836587 
L 143.999246 -287.36567 
L 141.886834 -286.895125 
L 139.774422 -286.424974 
L 137.66201 -285.955236 
L 135.549598 -285.485932 
L 133.437186 -285.017081 
L 131.324774 -284.548703 
L 129.212362 -284.080818 
L 127.09995 -283.613445 
L 124.987538 -283.146603 
L 122.875126 -282.68031 
L 120.762714 -282.214586 
L 118.650302 -281.749447 
L 116.537889 -281.284914 
L 114.425477 -280.821002 
L 112.313065 -280.357729 
L 110.200653 -279.895114 
L 108.088241 -279.433172 
L 105.975829 -278.97192 
L 103.863417 -278.511374 
L 101.751005 -278.051551 
L 99.638593 -277.592466 
L 97.526181 -277.134134 
L 95.413769 -276.67657 
L 93.301357 -276.219789 
L 91.188945 -275.763805 
L 89.076533 -275.308632 
L 86.964121 -274.854284 
L 84.851709 -274.400773 
L 82.739296 -273.948113 
L 80.626884 -273.496317 
L 78.514472 -273.045396 
L 76.40206 -272.595362 
L 74.289648 -272.146226 
L 72.177236 -271.698 
L 70.064824 -271.250693 
L 67.952412 -270.804317 
L 65.84 -270.358882 
z
" style="stroke: #d08770; stroke-opacity: 0.15"/>
    </defs>
    <g clip-path="url(#p8a381a6f7f)">
     <use xlink:href="#m0a05750176" x="0" y="288" style="fill: #d08770; fill-opacity: 0.15; stroke: #d08770; stroke-opacity: 0.15"/>
    </g>
   </g>
   <g id="matplotlib.axis_1">
    <g id="xtick_1">
     <g id="line2d_1">
      <path d="M 96.978519 245.56 
L 96.978519 26.64 
" clip-path="url(#p8a381a6f7f)" style="fill: none; stroke: #d8dee9; stroke-opacity: 0.4; stroke-width: 0.8; stroke-linecap: square"/>
     </g>
     <g id="line2d_2">
      <defs>
       <path id="md8b727ded6" d="M 0 0 
L 0 3.5 
" style="stroke: #434c5e; stroke-width: 0.8"/>
      </defs>
      <g>
       <use xlink:href="#md8b727ded6" x="96.978519" y="245.56" style="fill: #434c5e; stroke: #434c5e; stroke-width: 0.8"/>
      </g>
     </g>
     <g id="text_1">
      <!-- 20 -->
      <g style="fill: #434c5e" transform="translate(89.979769 260.918281) scale(0.11 -0.11)">
       <defs>
        <path id="DejaVuSans-32" d="M 1228 531 
L 3431 531 
L 3431 0 
L 469 0 
L 469 531 
Q 828 903 1448 1529 
Q 2069 2156 2228 2338 
Q 2531 2678 2651 2914 
Q 2772 3150 2772 3378 
Q 2772 3750 2511 3984 
Q 2250 4219 1831 4219 
Q 1534 4219 1204 4116 
Q 875 4013 500 3803 
L 500 4441 
Q 881 4594 1212 4672 
Q 1544 4750 1819 4750 
Q 2544 4750 2975 4387 
Q 3406 4025 3406 3419 
Q 3406 3131 3298 2873 
Q 3191 2616 2906 2266 
Q 2828 2175 2409 1742 
Q 1991 1309 1228 531 
z
" transform="scale(0.015625)"/>
        <path id="DejaVuSans-30" d="M 2034 4250 
Q 1547 4250 1301 3770 
Q 1056 3291 1056 2328 
Q 1056 1369 1301 889 
Q 1547 409 2034 409 
Q 2525 409 2770 889 
Q 3016 1369 3016 2328 
Q 3016 3291 2770 3770 
Q 2525 4250 2034 4250 
z
M 2034 4750 
Q 2819 4750 3233 4129 
Q 3647 3509 3647 2328 
Q 3647 1150 3233 529 
Q 2819 -91 2034 -91 
Q 1250 -91 836 529 
Q 422 1150 422 2328 
Q 422 3509 836 4129 
Q 1250 4750 2034 4750 
z
" transform="scale(0.015625)"/>
       </defs>
       <use xlink:href="#DejaVuSans-32"/>
       <use xlink:href="#DejaVuSans-30" transform="translate(63.623047 0)"/>
      </g>
     </g>
    </g>
    <g id="xtick_2">
     <g id="line2d_3">
      <path d="M 174.824815 245.56 
L 174.824815 26.64 
" clip-path="url(#p8a381a6f7f)" style="fill: none; stroke: #d8dee9; stroke-opacity: 0.4; stroke-width: 0.8; stroke-linecap: square"/>
     </g>
     <g id="line2d_4">
      <g>
       <use xlink:href="#md8b727ded6" x="174.824815" y="245.56" style="fill: #434c5e; stroke: #434c5e; stroke-width: 0.8"/>
      </g>
     </g>
     <g id="text_2">
      <!-- 25 -->
      <g style="fill: #434c5e" transform="translate(167.826065 260.918281) scale(0.11 -0.11)">
       <defs>
        <path id="DejaVuSans-35" d="M 691 4666 
L 3169 4666 
L 3169 4134 
L 1269 4134 
L 1269 2991 
Q 1406 3038 1543 3061 
Q 1681 3084 1819 3084 
Q 2600 3084 3056 2656 
Q 3513 2228 3513 1497 
Q 3513 744 3044 326 
Q 2575 -91 1722 -91 
Q 1428 -91 1123 -41 
Q 819 9 494 109 
L 494 744 
Q 775 591 1075 516 
Q 1375 441 1709 441 
Q 2250 441 2565 725 
Q 2881 1009 2881 1497 
Q 2881 1984 2565 2268 
Q 2250 2553 1709 2553 
Q 1456 2553 1204 2497 
Q 953 2441 691 2322 
L 691 4666 
z
" transform="scale(0.015625)"/>
       </defs>
       <use xlink:href="#DejaVuSans-32"/>
       <use xlink:href="#DejaVuSans-35" transform="translate(63.623047 0)"/>
      </g>
     </g>
    </g>
    <g id="xtick_3">
     <g id="line2d_5">
      <path d="M 252.671111 245.56 
L 252.671111 26.64 
" clip-path="url(#p8a381a6f7f)" style="fill: none; stroke: #d8dee9; stroke-opacity: 0.4; stroke-width: 0.8; stroke-linecap: square"/>
     </g>
     <g id="line2d_6">
      <g>
       <use xlink:href="#md8b727ded6" x="252.671111" y="245.56" style="fill: #434c5e; stroke: #434c5e; stroke-width: 0.8"/>
      </g>
     </g>
     <g id="text_3">
      <!-- 30 -->
      <g style="fill: #434c5e" transform="translate(245.672361 260.918281) scale(0.11 -0.11)">
       <defs>
        <path id="DejaVuSans-33" d="M 2597 2516 
Q 3050 2419 3304 2112 
Q 3559 1806 3559 1356 
Q 3559 666 3084 287 
Q 2609 -91 1734 -91 
Q 1441 -91 1130 -33 
Q 819 25 488 141 
L 488 750 
Q 750 597 1062 519 
Q 1375 441 1716 441 
Q 2309 441 2620 675 
Q 2931 909 2931 1356 
Q 2931 1769 2642 2001 
Q 2353 2234 1838 2234 
L 1294 2234 
L 1294 2753 
L 1863 2753 
Q 2328 2753 2575 2939 
Q 2822 3125 2822 3475 
Q 2822 3834 2567 4026 
Q 2313 4219 1838 4219 
Q 1578 4219 1281 4162 
Q 984 4106 628 3988 
L 628 4550 
Q 988 4650 1302 4700 
Q 1616 4750 1894 4750 
Q 2613 4750 3031 4423 
Q 3450 4097 3450 3541 
Q 3450 3153 3228 2886 
Q 3006 2619 2597 2516 
z
" transform="scale(0.015625)"/>
       </defs>
       <use xlink:href="#DejaVuSans-33"/>
       <use xlink:href="#DejaVuSans-30" transform="translate(63.623047 0)"/>
      </g>
     </g>
    </g>
    <g id="xtick_4">
     <g id="line2d_7">
      <path d="M 330.517407 245.56 
L 330.517407 26.64 
" clip-path="url(#p8a381a6f7f)" style="fill: none; stroke: #d8dee9; stroke-opacity: 0.4; stroke-width: 0.8; stroke-linecap: square"/>
     </g>
     <g id="line2d_8">
      <g>
       <use xlink:href="#md8b727ded6" x="330.517407" y="245.56" style="fill: #434c5e; stroke: #434c5e; stroke-width: 0.8"/>
      </g>
     </g>
     <g id="text_4">
      <!-- 35 -->
      <g style="fill: #434c5e" transform="translate(323.518657 260.918281) scale(0.11 -0.11)">
       <use xlink:href="#DejaVuSans-33"/>
       <use xlink:href="#DejaVuSans-35" transform="translate(63.623047 0)"/>
      </g>
     </g>
    </g>
    <g id="xtick_5">
     <g id="line2d_9">
      <path d="M 408.363704 245.56 
L 408.363704 26.64 
" clip-path="url(#p8a381a6f7f)" style="fill: none; stroke: #d8dee9; stroke-opacity: 0.4; stroke-width: 0.8; stroke-linecap: square"/>
     </g>
     <g id="line2d_10">
      <g>
       <use xlink:href="#md8b727ded6" x="408.363704" y="245.56" style="fill: #434c5e; stroke: #434c5e; stroke-width: 0.8"/>
      </g>
     </g>
     <g id="text_5">
      <!-- 40 -->
      <g style="fill: #434c5e" transform="translate(401.364954 260.918281) scale(0.11 -0.11)">
       <defs>
        <path id="DejaVuSans-34" d="M 2419 4116 
L 825 1625 
L 2419 1625 
L 2419 4116 
z
M 2253 4666 
L 3047 4666 
L 3047 1625 
L 3713 1625 
L 3713 1100 
L 3047 1100 
L 3047 0 
L 2419 0 
L 2419 1100 
L 313 1100 
L 313 1709 
L 2253 4666 
z
" transform="scale(0.015625)"/>
       </defs>
       <use xlink:href="#DejaVuSans-34"/>
       <use xlink:href="#DejaVuSans-30" transform="translate(63.623047 0)"/>
      </g>
     </g>
    </g>
    <g id="xtick_6">
     <g id="line2d_11">
      <path d="M 486.21 245.56 
L 486.21 26.64 
" clip-path="url(#p8a381a6f7f)" style="fill: none; stroke: #d8dee9; stroke-opacity: 0.4; stroke-width: 0.8; stroke-linecap: square"/>
     </g>
     <g id="line2d_12">
      <g>
       <use xlink:href="#md8b727ded6" x="486.21" y="245.56" style="fill: #434c5e; stroke: #434c5e; stroke-width: 0.8"/>
      </g>
     </g>
     <g id="text_6">
      <!-- 45 -->
      <g style="fill: #434c5e" transform="translate(479.21125 260.918281) scale(0.11 -0.11)">
       <use xlink:href="#DejaVuSans-34"/>
       <use xlink:href="#DejaVuSans-35" transform="translate(63.623047 0)"/>
      </g>
     </g>
    </g>
    <g id="text_7">
     <!-- BMI (kg/m²) -->
     <g style="fill: #434c5e" transform="translate(246.685938 274.804375) scale(0.1 -0.1)">
      <defs>
       <path id="DejaVuSans-42" d="M 1259 2228 
L 1259 519 
L 2272 519 
Q 2781 519 3026 730 
Q 3272 941 3272 1375 
Q 3272 1813 3026 2020 
Q 2781 2228 2272 2228 
L 1259 2228 
z
M 1259 4147 
L 1259 2741 
L 2194 2741 
Q 2656 2741 2882 2914 
Q 3109 3088 3109 3444 
Q 3109 3797 2882 3972 
Q 2656 4147 2194 4147 
L 1259 4147 
z
M 628 4666 
L 2241 4666 
Q 2963 4666 3353 4366 
Q 3744 4066 3744 3513 
Q 3744 3084 3544 2831 
Q 3344 2578 2956 2516 
Q 3422 2416 3680 2098 
Q 3938 1781 3938 1306 
Q 3938 681 3513 340 
Q 3088 0 2303 0 
L 628 0 
L 628 4666 
z
" transform="scale(0.015625)"/>
       <path id="DejaVuSans-4d" d="M 628 4666 
L 1569 4666 
L 2759 1491 
L 3956 4666 
L 4897 4666 
L 4897 0 
L 4281 0 
L 4281 4097 
L 3078 897 
L 2444 897 
L 1241 4097 
L 1241 0 
L 628 0 
L 628 4666 
z
" transform="scale(0.015625)"/>
       <path id="DejaVuSans-49" d="M 628 4666 
L 1259 4666 
L 1259 0 
L 628 0 
L 628 4666 
z
" transform="scale(0.015625)"/>
       <path id="DejaVuSans-20" transform="scale(0.015625)"/>
       <path id="DejaVuSans-28" d="M 1984 4856 
Q 1566 4138 1362 3434 
Q 1159 2731 1159 2009 
Q 1159 1288 1364 580 
Q 1569 -128 1984 -844 
L 1484 -844 
Q 1016 -109 783 600 
Q 550 1309 550 2009 
Q 550 2706 781 3412 
Q 1013 4119 1484 4856 
L 1984 4856 
z
" transform="scale(0.015625)"/>
       <path id="DejaVuSans-6b" d="M 581 4863 
L 1159 4863 
L 1159 1991 
L 2875 3500 
L 3609 3500 
L 1753 1863 
L 3688 0 
L 2938 0 
L 1159 1709 
L 1159 0 
L 581 0 
L 581 4863 
z
" transform="scale(0.015625)"/>
       <path id="DejaVuSans-67" d="M 2906 1791 
Q 2906 2416 2648 2759 
Q 2391 3103 1925 3103 
Q 1463 3103 1205 2759 
Q 947 2416 947 1791 
Q 947 1169 1205 825 
Q 1463 481 1925 481 
Q 2391 481 2648 825 
Q 2906 1169 2906 1791 
z
M 3481 434 
Q 3481 -459 3084 -895 
Q 2688 -1331 1869 -1331 
Q 1566 -1331 1297 -1286 
Q 1028 -1241 775 -1147 
L 775 -588 
Q 1028 -725 1275 -790 
Q 1522 -856 1778 -856 
Q 2344 -856 2625 -561 
Q 2906 -266 2906 331 
L 2906 616 
Q 2728 306 2450 153 
Q 2172 0 1784 0 
Q 1141 0 747 490 
Q 353 981 353 1791 
Q 353 2603 747 3093 
Q 1141 3584 1784 3584 
Q 2172 3584 2450 3431 
Q 2728 3278 2906 2969 
L 2906 3500 
L 3481 3500 
L 3481 434 
z
" transform="scale(0.015625)"/>
       <path id="DejaVuSans-2f" d="M 1625 4666 
L 2156 4666 
L 531 -594 
L 0 -594 
L 1625 4666 
z
" transform="scale(0.015625)"/>
       <path id="DejaVuSans-6d" d="M 3328 2828 
Q 3544 3216 3844 3400 
Q 4144 3584 4550 3584 
Q 5097 3584 5394 3201 
Q 5691 2819 5691 2113 
L 5691 0 
L 5113 0 
L 5113 2094 
Q 5113 2597 4934 2840 
Q 4756 3084 4391 3084 
Q 3944 3084 3684 2787 
Q 3425 2491 3425 1978 
L 3425 0 
L 2847 0 
L 2847 2094 
Q 2847 2600 2669 2842 
Q 2491 3084 2119 3084 
Q 1678 3084 1418 2786 
Q 1159 2488 1159 1978 
L 1159 0 
L 581 0 
L 581 3500 
L 1159 3500 
L 1159 2956 
Q 1356 3278 1631 3431 
Q 1906 3584 2284 3584 
Q 2666 3584 2933 3390 
Q 3200 3197 3328 2828 
z
" transform="scale(0.015625)"/>
       <path id="DejaVuSans-b2" d="M 838 2444 
L 2163 2444 
L 2163 2088 
L 294 2088 
L 294 2431 
Q 400 2528 597 2703 
Q 1672 3656 1672 3950 
Q 1672 4156 1509 4282 
Q 1347 4409 1081 4409 
Q 919 4409 728 4354 
Q 538 4300 313 4191 
L 313 4575 
Q 553 4663 761 4706 
Q 969 4750 1147 4750 
Q 1600 4750 1872 4544 
Q 2144 4338 2144 4000 
Q 2144 3566 1109 2678 
Q 934 2528 838 2444 
z
" transform="scale(0.015625)"/>
       <path id="DejaVuSans-29" d="M 513 4856 
L 1013 4856 
Q 1481 4119 1714 3412 
Q 1947 2706 1947 2009 
Q 1947 1309 1714 600 
Q 1481 -109 1013 -844 
L 513 -844 
Q 928 -128 1133 580 
Q 1338 1288 1338 2009 
Q 1338 2731 1133 3434 
Q 928 4138 513 4856 
z
" transform="scale(0.015625)"/>
      </defs>
      <use xlink:href="#DejaVuSans-42"/>
      <use xlink:href="#DejaVuSans-4d" transform="translate(68.603516 0)"/>
      <use xlink:href="#DejaVuSans-49" transform="translate(154.882812 0)"/>
      <use xlink:href="#DejaVuSans-20" transform="translate(184.375 0)"/>
      <use xlink:href="#DejaVuSans-28" transform="translate(216.162109 0)"/>
      <use xlink:href="#DejaVuSans-6b" transform="translate(255.175781 0)"/>
      <use xlink:href="#DejaVuSans-67" transform="translate(313.085938 0)"/>
      <use xlink:href="#DejaVuSans-2f" transform="translate(376.5625 0)"/>
      <use xlink:href="#DejaVuSans-6d" transform="translate(410.253906 0)"/>
      <use xlink:href="#DejaVuSans-b2" transform="translate(507.666016 0)"/>
      <use xlink:href="#DejaVuSans-29" transform="translate(547.753906 0)"/>
     </g>
    </g>
   </g>
   <g id="matplotlib.axis_2">
    <g id="ytick_1">
     <g id="line2d_13">
      <path d="M 65.84 245.56 
L 486.21 245.56 
" clip-path="url(#p8a381a6f7f)" style="fill: none; stroke: #d8dee9; stroke-opacity: 0.4; stroke-width: 0.8; stroke-linecap: square"/>
     </g>
     <g id="line2d_14">
      <defs>
       <path id="m42456ac5ab" d="M 0 0 
L -3.5 0 
" style="stroke: #434c5e; stroke-width: 0.8"/>
      </defs>
      <g>
       <use xlink:href="#m42456ac5ab" x="65.84" y="245.56" style="fill: #434c5e; stroke: #434c5e; stroke-width: 0.8"/>
      </g>
     </g>
     <g id="text_8">
      <!-- −0.20 -->
      <g style="fill: #434c5e" transform="translate(25.130156 249.739141) scale(0.11 -0.11)">
       <defs>
        <path id="DejaVuSans-2212" d="M 678 2272 
L 4684 2272 
L 4684 1741 
L 678 1741 
L 678 2272 
z
" transform="scale(0.015625)"/>
        <path id="DejaVuSans-2e" d="M 684 794 
L 1344 794 
L 1344 0 
L 684 0 
L 684 794 
z
" transform="scale(0.015625)"/>
       </defs>
       <use xlink:href="#DejaVuSans-2212"/>
       <use xlink:href="#DejaVuSans-30" transform="translate(83.789062 0)"/>
       <use xlink:href="#DejaVuSans-2e" transform="translate(147.412109 0)"/>
       <use xlink:href="#DejaVuSans-32" transform="translate(179.199219 0)"/>
       <use xlink:href="#DejaVuSans-30" transform="translate(242.822266 0)"/>
      </g>
     </g>
    </g>
    <g id="ytick_2">
     <g id="line2d_15">
      <path d="M 65.84 218.195 
L 486.21 218.195 
" clip-path="url(#p8a381a6f7f)" style="fill: none; stroke: #d8dee9; stroke-opacity: 0.4; stroke-width: 0.8; stroke-linecap: square"/>
     </g>
     <g id="line2d_16">
      <g>
       <use xlink:href="#m42456ac5ab" x="65.84" y="218.195" style="fill: #434c5e; stroke: #434c5e; stroke-width: 0.8"/>
      </g>
     </g>
     <g id="text_9">
      <!-- −0.15 -->
      <g style="fill: #434c5e" transform="translate(25.130156 222.374141) scale(0.11 -0.11)">
       <defs>
        <path id="DejaVuSans-31" d="M 794 531 
L 1825 531 
L 1825 4091 
L 703 3866 
L 703 4441 
L 1819 4666 
L 2450 4666 
L 2450 531 
L 3481 531 
L 3481 0 
L 794 0 
L 794 531 
z
" transform="scale(0.015625)"/>
       </defs>
       <use xlink:href="#DejaVuSans-2212"/>
       <use xlink:href="#DejaVuSans-30" transform="translate(83.789062 0)"/>
       <use xlink:href="#DejaVuSans-2e" transform="translate(147.412109 0)"/>
       <use xlink:href="#DejaVuSans-31" transform="translate(179.199219 0)"/>
       <use xlink:href="#DejaVuSans-35" transform="translate(242.822266 0)"/>
      </g>
     </g>
    </g>
    <g id="ytick_3">
     <g id="line2d_17">
      <path d="M 65.84 190.83 
L 486.21 190.83 
" clip-path="url(#p8a381a6f7f)" style="fill: none; stroke: #d8dee9; stroke-opacity: 0.4; stroke-width: 0.8; stroke-linecap: square"/>
     </g>
     <g id="line2d_18">
      <g>
       <use xlink:href="#m42456ac5ab" x="65.84" y="190.83" style="fill: #434c5e; stroke: #434c5e; stroke-width: 0.8"/>
      </g>
     </g>
     <g id="text_10">
      <!-- −0.10 -->
      <g style="fill: #434c5e" transform="translate(25.130156 195.009141) scale(0.11 -0.11)">
       <use xlink:href="#DejaVuSans-2212"/>
       <use xlink:href="#DejaVuSans-30" transform="translate(83.789062 0)"/>
       <use xlink:href="#DejaVuSans-2e" transform="translate(147.412109 0)"/>
       <use xlink:href="#DejaVuSans-31" transform="translate(179.199219 0)"/>
       <use xlink:href="#DejaVuSans-30" transform="translate(242.822266 0)"/>
      </g>
     </g>
    </g>
    <g id="ytick_4">
     <g id="line2d_19">
      <path d="M 65.84 163.465 
L 486.21 163.465 
" clip-path="url(#p8a381a6f7f)" style="fill: none; stroke: #d8dee9; stroke-opacity: 0.4; stroke-width: 0.8; stroke-linecap: square"/>
     </g>
     <g id="line2d_20">
      <g>
       <use xlink:href="#m42456ac5ab" x="65.84" y="163.465" style="fill: #434c5e; stroke: #434c5e; stroke-width: 0.8"/>
      </g>
     </g>
     <g id="text_11">
      <!-- −0.05 -->
      <g style="fill: #434c5e" transform="translate(25.130156 167.644141) scale(0.11 -0.11)">
       <use xlink:href="#DejaVuSans-2212"/>
       <use xlink:href="#DejaVuSans-30" transform="translate(83.789062 0)"/>
       <use xlink:href="#DejaVuSans-2e" transform="translate(147.412109 0)"/>
       <use xlink:href="#DejaVuSans-30" transform="translate(179.199219 0)"/>
       <use xlink:href="#DejaVuSans-35" transform="translate(242.822266 0)"/>
      </g>
     </g>
    </g>
    <g id="ytick_5">
     <g id="line2d_21">
      <path d="M 65.84 136.1 
L 486.21 136.1 
" clip-path="url(#p8a381a6f7f)" style="fill: none; stroke: #d8dee9; stroke-opacity: 0.4; stroke-width: 0.8; stroke-linecap: square"/>
     </g>
     <g id="line2d_22">
      <g>
       <use xlink:href="#m42456ac5ab" x="65.84" y="136.1" style="fill: #434c5e; stroke: #434c5e; stroke-width: 0.8"/>
      </g>
     </g>
     <g id="text_12">
      <!-- 0.00 -->
      <g style="fill: #434c5e" transform="translate(34.347813 140.279141) scale(0.11 -0.11)">
       <use xlink:href="#DejaVuSans-30"/>
       <use xlink:href="#DejaVuSans-2e" transform="translate(63.623047 0)"/>
       <use xlink:href="#DejaVuSans-30" transform="translate(95.410156 0)"/>
       <use xlink:href="#DejaVuSans-30" transform="translate(159.033203 0)"/>
      </g>
     </g>
    </g>
    <g id="ytick_6">
     <g id="line2d_23">
      <path d="M 65.84 108.735 
L 486.21 108.735 
" clip-path="url(#p8a381a6f7f)" style="fill: none; stroke: #d8dee9; stroke-opacity: 0.4; stroke-width: 0.8; stroke-linecap: square"/>
     </g>
     <g id="line2d_24">
      <g>
       <use xlink:href="#m42456ac5ab" x="65.84" y="108.735" style="fill: #434c5e; stroke: #434c5e; stroke-width: 0.8"/>
      </g>
     </g>
     <g id="text_13">
      <!-- 0.05 -->
      <g style="fill: #434c5e" transform="translate(34.347813 112.914141) scale(0.11 -0.11)">
       <use xlink:href="#DejaVuSans-30"/>
       <use xlink:href="#DejaVuSans-2e" transform="translate(63.623047 0)"/>
       <use xlink:href="#DejaVuSans-30" transform="translate(95.410156 0)"/>
       <use xlink:href="#DejaVuSans-35" transform="translate(159.033203 0)"/>
      </g>
     </g>
    </g>
    <g id="ytick_7">
     <g id="line2d_25">
      <path d="M 65.84 81.37 
L 486.21 81.37 
" clip-path="url(#p8a381a6f7f)" style="fill: none; stroke: #d8dee9; stroke-opacity: 0.4; stroke-width: 0.8; stroke-linecap: square"/>
     </g>
     <g id="line2d_26">
      <g>
       <use xlink:href="#m42456ac5ab" x="65.84" y="81.37" style="fill: #434c5e; stroke: #434c5e; stroke-width: 0.8"/>
      </g>
     </g>
     <g id="text_14">
      <!-- 0.10 -->
      <g style="fill: #434c5e" transform="translate(34.347813 85.549141) scale(0.11 -0.11)">
       <use xlink:href="#DejaVuSans-30"/>
       <use xlink:href="#DejaVuSans-2e" transform="translate(63.623047 0)"/>
       <use xlink:href="#DejaVuSans-31" transform="translate(95.410156 0)"/>
       <use xlink:href="#DejaVuSans-30" transform="translate(159.033203 0)"/>
      </g>
     </g>
    </g>
    <g id="ytick_8">
     <g id="line2d_27">
      <path d="M 65.84 54.005 
L 486.21 54.005 
" clip-path="url(#p8a381a6f7f)" style="fill: none; stroke: #d8dee9; stroke-opacity: 0.4; stroke-width: 0.8; stroke-linecap: square"/>
     </g>
     <g id="line2d_28">
      <g>
       <use xlink:href="#m42456ac5ab" x="65.84" y="54.005" style="fill: #434c5e; stroke: #434c5e; stroke-width: 0.8"/>
      </g>
     </g>
     <g id="text_15">
      <!-- 0.15 -->
      <g style="fill: #434c5e" transform="translate(34.347813 58.184141) scale(0.11 -0.11)">
       <use xlink:href="#DejaVuSans-30"/>
       <use xlink:href="#DejaVuSans-2e" transform="translate(63.623047 0)"/>
       <use xlink:href="#DejaVuSans-31" transform="translate(95.410156 0)"/>
       <use xlink:href="#DejaVuSans-35" transform="translate(159.033203 0)"/>
      </g>
     </g>
    </g>
    <g id="ytick_9">
     <g id="line2d_29">
      <path d="M 65.84 26.64 
L 486.21 26.64 
" clip-path="url(#p8a381a6f7f)" style="fill: none; stroke: #d8dee9; stroke-opacity: 0.4; stroke-width: 0.8; stroke-linecap: square"/>
     </g>
     <g id="line2d_30">
      <g>
       <use xlink:href="#m42456ac5ab" x="65.84" y="26.64" style="fill: #434c5e; stroke: #434c5e; stroke-width: 0.8"/>
      </g>
     </g>
     <g id="text_16">
      <!-- 0.20 -->
      <g style="fill: #434c5e" transform="translate(34.347813 30.819141) scale(0.11 -0.11)">
       <use xlink:href="#DejaVuSans-30"/>
       <use xlink:href="#DejaVuSans-2e" transform="translate(63.623047 0)"/>
       <use xlink:href="#DejaVuSans-32" transform="translate(95.410156 0)"/>
       <use xlink:href="#DejaVuSans-30" transform="translate(159.033203 0)"/>
      </g>
     </g>
    </g>
    <g id="text_17">
     <!-- Δ Probabilité (High − autre) -->
     <g style="fill: #434c5e" transform="translate(19.050469 205.21875) rotate(-90) scale(0.1 -0.1)">
      <defs>
       <path id="DejaVuSans-394" d="M 2188 4044 
L 906 525 
L 3472 525 
L 2188 4044 
z
M 50 0 
L 1831 4666 
L 2547 4666 
L 4325 0 
L 50 0 
z
" transform="scale(0.015625)"/>
       <path id="DejaVuSans-50" d="M 1259 4147 
L 1259 2394 
L 2053 2394 
Q 2494 2394 2734 2622 
Q 2975 2850 2975 3272 
Q 2975 3691 2734 3919 
Q 2494 4147 2053 4147 
L 1259 4147 
z
M 628 4666 
L 2053 4666 
Q 2838 4666 3239 4311 
Q 3641 3956 3641 3272 
Q 3641 2581 3239 2228 
Q 2838 1875 2053 1875 
L 1259 1875 
L 1259 0 
L 628 0 
L 628 4666 
z
" transform="scale(0.015625)"/>
       <path id="DejaVuSans-72" d="M 2631 2963 
Q 2534 3019 2420 3045 
Q 2306 3072 2169 3072 
Q 1681 3072 1420 2755 
Q 1159 2438 1159 1844 
L 1159 0 
L 581 0 
L 581 3500 
L 1159 3500 
L 1159 2956 
Q 1341 3275 1631 3429 
Q 1922 3584 2338 3584 
Q 2397 3584 2469 3576 
Q 2541 3569 2628 3553 
L 2631 2963 
z
" transform="scale(0.015625)"/>
       <path id="DejaVuSans-6f" d="M 1959 3097 
Q 1497 3097 1228 2736 
Q 959 2375 959 1747 
Q 959 1119 1226 758 
Q 1494 397 1959 397 
Q 2419 397 2687 759 
Q 2956 1122 2956 1747 
Q 2956 2369 2687 2733 
Q 2419 3097 1959 3097 
z
M 1959 3584 
Q 2709 3584 3137 3096 
Q 3566 2609 3566 1747 
Q 3566 888 3137 398 
Q 2709 -91 1959 -91 
Q 1206 -91 779 398 
Q 353 888 353 1747 
Q 353 2609 779 3096 
Q 1206 3584 1959 3584 
z
" transform="scale(0.015625)"/>
       <path id="DejaVuSans-62" d="M 3116 1747 
Q 3116 2381 2855 2742 
Q 2594 3103 2138 3103 
Q 1681 3103 1420 2742 
Q 1159 2381 1159 1747 
Q 1159 1113 1420 752 
Q 1681 391 2138 391 
Q 2594 391 2855 752 
Q 3116 1113 3116 1747 
z
M 1159 2969 
Q 1341 3281 1617 3432 
Q 1894 3584 2278 3584 
Q 2916 3584 3314 3078 
Q 3713 2572 3713 1747 
Q 3713 922 3314 415 
Q 2916 -91 2278 -91 
Q 1894 -91 1617 61 
Q 1341 213 1159 525 
L 1159 0 
L 581 0 
L 581 4863 
L 1159 4863 
L 1159 2969 
z
" transform="scale(0.015625)"/>
       <path id="DejaVuSans-61" d="M 2194 1759 
Q 1497 1759 1228 1600 
Q 959 1441 959 1056 
Q 959 750 1161 570 
Q 1363 391 1709 391 
Q 2188 391 2477 730 
Q 2766 1069 2766 1631 
L 2766 1759 
L 2194 1759 
z
M 3341 1997 
L 3341 0 
L 2766 0 
L 2766 531 
Q 2569 213 2275 61 
Q 1981 -91 1556 -91 
Q 1019 -91 701 211 
Q 384 513 384 1019 
Q 384 1609 779 1909 
Q 1175 2209 1959 2209 
L 2766 2209 
L 2766 2266 
Q 2766 2663 2505 2880 
Q 2244 3097 1772 3097 
Q 1472 3097 1187 3025 
Q 903 2953 641 2809 
L 641 3341 
Q 956 3463 1253 3523 
Q 1550 3584 1831 3584 
Q 2591 3584 2966 3190 
Q 3341 2797 3341 1997 
z
" transform="scale(0.015625)"/>
       <path id="DejaVuSans-69" d="M 603 3500 
L 1178 3500 
L 1178 0 
L 603 0 
L 603 3500 
z
M 603 4863 
L 1178 4863 
L 1178 4134 
L 603 4134 
L 603 4863 
z
" transform="scale(0.015625)"/>
       <path id="DejaVuSans-6c" d="M 603 4863 
L 1178 4863 
L 1178 0 
L 603 0 
L 603 4863 
z
" transform="scale(0.015625)"/>
       <path id="DejaVuSans-74" d="M 1172 4494 
L 1172 3500 
L 2356 3500 
L 2356 3053 
L 1172 3053 
L 1172 1153 
Q 1172 725 1289 603 
Q 1406 481 1766 481 
L 2356 481 
L 2356 0 
L 1766 0 
Q 1100 0 847 248 
Q 594 497 594 1153 
L 594 3053 
L 172 3053 
L 172 3500 
L 594 3500 
L 594 4494 
L 1172 4494 
z
" transform="scale(0.015625)"/>
       <path id="DejaVuSans-e9" d="M 3597 1894 
L 3597 1613 
L 953 1613 
Q 991 1019 1311 708 
Q 1631 397 2203 397 
Q 2534 397 2845 478 
Q 3156 559 3463 722 
L 3463 178 
Q 3153 47 2828 -22 
Q 2503 -91 2169 -91 
Q 1331 -91 842 396 
Q 353 884 353 1716 
Q 353 2575 817 3079 
Q 1281 3584 2069 3584 
Q 2775 3584 3186 3129 
Q 3597 2675 3597 1894 
z
M 3022 2063 
Q 3016 2534 2758 2815 
Q 2500 3097 2075 3097 
Q 1594 3097 1305 2825 
Q 1016 2553 972 2059 
L 3022 2063 
z
M 2466 5119 
L 3088 5119 
L 2070 3944 
L 1591 3944 
L 2466 5119 
z
" transform="scale(0.015625)"/>
       <path id="DejaVuSans-48" d="M 628 4666 
L 1259 4666 
L 1259 2753 
L 3553 2753 
L 3553 4666 
L 4184 4666 
L 4184 0 
L 3553 0 
L 3553 2222 
L 1259 2222 
L 1259 0 
L 628 0 
L 628 4666 
z
" transform="scale(0.015625)"/>
       <path id="DejaVuSans-68" d="M 3513 2113 
L 3513 0 
L 2938 0 
L 2938 2094 
Q 2938 2591 2744 2837 
Q 2550 3084 2163 3084 
Q 1697 3084 1428 2787 
Q 1159 2491 1159 1978 
L 1159 0 
L 581 0 
L 581 4863 
L 1159 4863 
L 1159 2956 
Q 1366 3272 1645 3428 
Q 1925 3584 2291 3584 
Q 2894 3584 3203 3211 
Q 3513 2838 3513 2113 
z
" transform="scale(0.015625)"/>
       <path id="DejaVuSans-75" d="M 544 1381 
L 544 3500 
L 1119 3500 
L 1119 1403 
Q 1119 906 1312 657 
Q 1506 409 1894 409 
Q 2359 409 2629 706 
Q 2900 1003 2900 1516 
L 2900 3500 
L 3475 3500 
L 3475 0 
L 2900 0 
L 2900 538 
Q 2691 219 2414 64 
Q 2138 -91 1772 -91 
Q 1169 -91 856 284 
Q 544 659 544 1381 
z
M 1991 3584 
L 1991 3584 
z
" transform="scale(0.015625)"/>
       <path id="DejaVuSans-65" d="M 3597 1894 
L 3597 1613 
L 953 1613 
Q 991 1019 1311 708 
Q 1631 397 2203 397 
Q 2534 397 2845 478 
Q 3156 559 3463 722 
L 3463 178 
Q 3153 47 2828 -22 
Q 2503 -91 2169 -91 
Q 1331 -91 842 396 
Q 353 884 353 1716 
Q 353 2575 817 3079 
Q 1281 3584 2069 3584 
Q 2775 3584 3186 3129 
Q 3597 2675 3597 1894 
z
M 3022 2063 
Q 3016 2534 2758 2815 
Q 2500 3097 2075 3097 
Q 1594 3097 1305 2825 
Q 1016 2553 972 2059 
L 3022 2063 
z
" transform="scale(0.015625)"/>
      </defs>
      <use xlink:href="#DejaVuSans-394"/>
      <use xlink:href="#DejaVuSans-20" transform="translate(68.408203 0)"/>
      <use xlink:href="#DejaVuSans-50" transform="translate(100.195312 0)"/>
      <use xlink:href="#DejaVuSans-72" transform="translate(158.748047 0)"/>
      <use xlink:href="#DejaVuSans-6f" transform="translate(197.611328 0)"/>
      <use xlink:href="#DejaVuSans-62" transform="translate(258.792969 0)"/>
      <use xlink:href="#DejaVuSans-61" transform="translate(322.269531 0)"/>
      <use xlink:href="#DejaVuSans-62" transform="translate(383.548828 0)"/>
      <use xlink:href="#DejaVuSans-69" transform="translate(447.025391 0)"/>
      <use xlink:href="#DejaVuSans-6c" transform="translate(474.808594 0)"/>
      <use xlink:href="#DejaVuSans-69" transform="translate(502.591797 0)"/>
      <use xlink:href="#DejaVuSans-74" transform="translate(530.375 0)"/>
      <use xlink:href="#DejaVuSans-e9" transform="translate(569.583984 0)"/>
      <use xlink:href="#DejaVuSans-20" transform="translate(631.107422 0)"/>
      <use xlink:href="#DejaVuSans-28" transform="translate(662.894531 0)"/>
      <use xlink:href="#DejaVuSans-48" transform="translate(701.908203 0)"/>
      <use xlink:href="#DejaVuSans-69" transform="translate(777.103516 0)"/>
      <use xlink:href="#DejaVuSans-67" transform="translate(804.886719 0)"/>
      <use xlink:href="#DejaVuSans-68" transform="translate(868.363281 0)"/>
      <use xlink:href="#DejaVuSans-20" transform="translate(931.742188 0)"/>
      <use xlink:href="#DejaVuSans-2212" transform="translate(963.529297 0)"/>
      <use xlink:href="#DejaVuSans-20" transform="translate(1047.318359 0)"/>
      <use xlink:href="#DejaVuSans-61" transform="translate(1079.105469 0)"/>
      <use xlink:href="#DejaVuSans-75" transform="translate(1140.384766 0)"/>
      <use xlink:href="#DejaVuSans-74" transform="translate(1203.763672 0)"/>
      <use xlink:href="#DejaVuSans-72" transform="translate(1242.972656 0)"/>
      <use xlink:href="#DejaVuSans-65" transform="translate(1281.835938 0)"/>
      <use xlink:href="#DejaVuSans-29" transform="translate(1343.359375 0)"/>
     </g>
    </g>
   </g>
   <g id="line2d_31">
    <path d="M 65.84 69.546066 
L 86.964121 63.273722 
L 108.088241 57.230372 
L 129.212362 51.426261 
L 150.336482 45.869879 
L 169.348191 41.086565 
L 188.359899 36.513158 
L 207.371608 32.152335 
L 226.383317 28.00574 
L 245.395025 24.074034 
L 264.406734 20.356956 
L 283.418442 16.853384 
L 302.430151 13.561401 
L 321.441859 10.478363 
L 340.453568 7.600969 
L 361.577688 4.64031 
L 382.701809 1.922649 
L 403.82593 -0.55876 
L 407.803164 -1 
L 407.803164 -1 
" clip-path="url(#p8a381a6f7f)" style="fill: none; stroke: #a3be8c; stroke-width: 1.5; stroke-linecap: square"/>
   </g>
   <g id="line2d_32">
    <path d="M 65.84 81.752721 
L 93.301357 74.92345 
L 118.650302 68.84656 
L 143.999246 63.001081 
L 169.348191 57.398184 
L 192.584724 52.483266 
L 215.821256 47.785791 
L 239.057789 43.310245 
L 262.294322 39.059861 
L 285.530854 35.036664 
L 308.767387 31.241535 
L 332.00392 27.674276 
L 355.240452 24.333681 
L 378.476985 21.217622 
L 401.713518 18.323123 
L 424.95005 15.646448 
L 448.186583 13.183185 
L 471.423116 10.928327 
L 486.21 9.59942 
L 486.21 9.59942 
" clip-path="url(#p8a381a6f7f)" style="fill: none; stroke: #d08770; stroke-width: 1.5; stroke-linecap: square"/>
   </g>
   <g id="line2d_33">
    <path d="M 65.84 136.1 
L 486.21 136.1 
" clip-path="url(#p8a381a6f7f)" style="fill: none; stroke: #d8dee9; stroke-linecap: square"/>
   </g>
   <g id="patch_3">
    <path d="M 65.84 245.56 
L 65.84 26.64 
" style="fill: none; stroke: #434c5e; stroke-width: 0.8; stroke-linejoin: miter; stroke-linecap: square"/>
   </g>
   <g id="patch_4">
    <path d="M 486.21 245.56 
L 486.21 26.64 
" style="fill: none; stroke: #434c5e; stroke-width: 0.8; stroke-linejoin: miter; stroke-linecap: square"/>
   </g>
   <g id="patch_5">
    <path d="M 65.84 245.56 
L 486.21 245.56 
" style="fill: none; stroke: #434c5e; stroke-width: 0.8; stroke-linejoin: miter; stroke-linecap: square"/>
   </g>
   <g id="patch_6">
    <path d="M 65.84 26.64 
L 486.21 26.64 
" style="fill: none; stroke: #434c5e; stroke-width: 0.8; stroke-linejoin: miter; stroke-linecap: square"/>
   </g>
   <g id="text_18">
    <!-- Interaction p=0.002 -->
    <g style="fill: #4c566a" transform="translate(74.2474 234.614) scale(0.1 -0.1)">
     <defs>
      <path id="DejaVuSans-6e" d="M 3513 2113 
L 3513 0 
L 2938 0 
L 2938 2094 
Q 2938 2591 2744 2837 
Q 2550 3084 2163 3084 
Q 1697 3084 1428 2787 
Q 1159 2491 1159 1978 
L 1159 0 
L 581 0 
L 581 3500 
L 1159 3500 
L 1159 2956 
Q 1366 3272 1645 3428 
Q 1925 3584 2291 3584 
Q 2894 3584 3203 3211 
Q 3513 2838 3513 2113 
z
" transform="scale(0.015625)"/>
      <path id="DejaVuSans-63" d="M 3122 3366 
L 3122 2828 
Q 2878 2963 2633 3030 
Q 2388 3097 2138 3097 
Q 1578 3097 1268 2742 
Q 959 2388 959 1747 
Q 959 1106 1268 751 
Q 1578 397 2138 397 
Q 2388 397 2633 464 
Q 2878 531 3122 666 
L 3122 134 
Q 2881 22 2623 -34 
Q 2366 -91 2075 -91 
Q 1284 -91 818 406 
Q 353 903 353 1747 
Q 353 2603 823 3093 
Q 1294 3584 2113 3584 
Q 2378 3584 2631 3529 
Q 2884 3475 3122 3366 
z
" transform="scale(0.015625)"/>
      <path id="DejaVuSans-70" d="M 1159 525 
L 1159 -1331 
L 581 -1331 
L 581 3500 
L 1159 3500 
L 1159 2969 
Q 1341 3281 1617 3432 
Q 1894 3584 2278 3584 
Q 2916 3584 3314 3078 
Q 3713 2572 3713 1747 
Q 3713 922 3314 415 
Q 2916 -91 2278 -91 
Q 1894 -91 1617 61 
Q 1341 213 1159 525 
z
M 3116 1747 
Q 3116 2381 2855 2742 
Q 2594 3103 2138 3103 
Q 1681 3103 1420 2742 
Q 1159 2381 1159 1747 
Q 1159 1113 1420 752 
Q 1681 391 2138 391 
Q 2594 391 2855 752 
Q 3116 1113 3116 1747 
z
" transform="scale(0.015625)"/>
      <path id="DejaVuSans-3d" d="M 678 2906 
L 4684 2906 
L 4684 2381 
L 678 2381 
L 678 2906 
z
M 678 1631 
L 4684 1631 
L 4684 1100 
L 678 1100 
L 678 1631 
z
" transform="scale(0.015625)"/>
     </defs>
     <use xlink:href="#DejaVuSans-49"/>
     <use xlink:href="#DejaVuSans-6e" transform="translate(29.492188 0)"/>
     <use xlink:href="#DejaVuSans-74" transform="translate(92.871094 0)"/>
     <use xlink:href="#DejaVuSans-65" transform="translate(132.080078 0)"/>
     <use xlink:href="#DejaVuSans-72" transform="translate(193.603516 0)"/>
     <use xlink:href="#DejaVuSans-61" transform="translate(234.716797 0)"/>
     <use xlink:href="#DejaVuSans-63" transform="translate(295.996094 0)"/>
     <use xlink:href="#DejaVuSans-74" transform="translate(350.976562 0)"/>
     <use xlink:href="#DejaVuSans-69" transform="translate(390.185547 0)"/>
     <use xlink:href="#DejaVuSans-6f" transform="translate(417.96875 0)"/>
     <use xlink:href="#DejaVuSans-6e" transform="translate(479.150391 0)"/>
     <use xlink:href="#DejaVuSans-20" transform="translate(542.529297 0)"/>
     <use xlink:href="#DejaVuSans-70" transform="translate(574.316406 0)"/>
     <use xlink:href="#DejaVuSans-3d" transform="translate(637.792969 0)"/>
     <use xlink:href="#DejaVuSans-30" transform="translate(721.582031 0)"/>
     <use xlink:href="#DejaVuSans-2e" transform="translate(785.205078 0)"/>
     <use xlink:href="#DejaVuSans-30" transform="translate(816.992188 0)"/>
     <use xlink:href="#DejaVuSans-30" transform="translate(880.615234 0)"/>
     <use xlink:href="#DejaVuSans-32" transform="translate(944.238281 0)"/>
    </g>
   </g>
   <g id="text_19">
    <!-- Interaction BMI×volume – différence de probabilité -->
    <g style="fill: #4c566a" transform="translate(122.757813 20.64) scale(0.12 -0.12)">
     <defs>
      <path id="DejaVuSans-d7" d="M 4488 3438 
L 3059 2003 
L 4488 575 
L 4116 197 
L 2681 1631 
L 1247 197 
L 878 575 
L 2303 2003 
L 878 3438 
L 1247 3816 
L 2681 2381 
L 4116 3816 
L 4488 3438 
z
" transform="scale(0.015625)"/>
      <path id="DejaVuSans-76" d="M 191 3500 
L 800 3500 
L 1894 563 
L 2988 3500 
L 3597 3500 
L 2284 0 
L 1503 0 
L 191 3500 
z
" transform="scale(0.015625)"/>
      <path id="DejaVuSans-2013" d="M 313 1978 
L 2888 1978 
L 2888 1528 
L 313 1528 
L 313 1978 
z
" transform="scale(0.015625)"/>
      <path id="DejaVuSans-64" d="M 2906 2969 
L 2906 4863 
L 3481 4863 
L 3481 0 
L 2906 0 
L 2906 525 
Q 2725 213 2448 61 
Q 2172 -91 1784 -91 
Q 1150 -91 751 415 
Q 353 922 353 1747 
Q 353 2572 751 3078 
Q 1150 3584 1784 3584 
Q 2172 3584 2448 3432 
Q 2725 3281 2906 2969 
z
M 947 1747 
Q 947 1113 1208 752 
Q 1469 391 1925 391 
Q 2381 391 2643 752 
Q 2906 1113 2906 1747 
Q 2906 2381 2643 2742 
Q 2381 3103 1925 3103 
Q 1469 3103 1208 2742 
Q 947 2381 947 1747 
z
" transform="scale(0.015625)"/>
      <path id="DejaVuSans-66" d="M 2375 4863 
L 2375 4384 
L 1825 4384 
Q 1516 4384 1395 4259 
Q 1275 4134 1275 3809 
L 1275 3500 
L 2222 3500 
L 2222 3053 
L 1275 3053 
L 1275 0 
L 697 0 
L 697 3053 
L 147 3053 
L 147 3500 
L 697 3500 
L 697 3744 
Q 697 4328 969 4595 
Q 1241 4863 1831 4863 
L 2375 4863 
z
" transform="scale(0.015625)"/>
     </defs>
     <use xlink:href="#DejaVuSans-49"/>
     <use xlink:href="#DejaVuSans-6e" transform="translate(29.492188 0)"/>
     <use xlink:href="#DejaVuSans-74" transform="translate(92.871094 0)"/>
     <use xlink:href="#DejaVuSans-65" transform="translate(132.080078 0)"/>
     <use xlink:href="#DejaVuSans-72" transform="translate(193.603516 0)"/>
     <use xlink:href="#DejaVuSans-61" transform="translate(234.716797 0)"/>
     <use xlink:href="#DejaVuSans-63" transform="translate(295.996094 0)"/>
     <use xlink:href="#DejaVuSans-74" transform="translate(350.976562 0)"/>
     <use xlink:href="#DejaVuSans-69" transform="translate(390.185547 0)"/>
     <use xlink:href="#DejaVuSans-6f" transform="translate(417.96875 0)"/>
     <use xlink:href="#DejaVuSans-6e" transform="translate(479.150391 0)"/>
     <use xlink:href="#DejaVuSans-20" transform="translate(542.529297 0)"/>
     <use xlink:href="#DejaVuSans-42" transform="translate(574.316406 0)"/>
     <use xlink:href="#DejaVuSans-4d" transform="translate(642.919922 0)"/>
     <use xlink:href="#DejaVuSans-49" transform="translate(729.199219 0)"/>
     <use xlink:href="#DejaVuSans-d7" transform="translate(758.691406 0)"/>
     <use xlink:href="#DejaVuSans-76" transform="translate(842.480469 0)"/>
     <use xlink:href="#DejaVuSans-6f" transform="translate(901.660156 0)"/>
     <use xlink:href="#DejaVuSans-6c" transform="translate(962.841797 0)"/>
     <use xlink:href="#DejaVuSans-75" transform="translate(990.625 0)"/>
     <use xlink:href="#DejaVuSans-6d" transform="translate(1054.003906 0)"/>
     <use xlink:href="#DejaVuSans-65" transform="translate(1151.416016 0)"/>
     <use xlink:href="#DejaVuSans-20" transform="translate(1212.939453 0)"/>
     <use xlink:href="#DejaVuSans-2013" transform="translate(1244.726562 0)"/>
     <use xlink:href="#DejaVuSans-20" transform="translate(1294.726562 0)"/>
     <use xlink:href="#DejaVuSans-64" transform="translate(1326.513672 0)"/>
     <use xlink:href="#DejaVuSans-69" transform="translate(1389.990234 0)"/>
     <use xlink:href="#DejaVuSans-66" transform="translate(1417.773438 0)"/>
     <use xlink:href="#DejaVuSans-66" transform="translate(1452.978516 0)"/>
     <use xlink:href="#DejaVuSans-e9" transform="translate(1488.183594 0)"/>
     <use xlink:href="#DejaVuSans-72" transform="translate(1549.707031 0)"/>
     <use xlink:href="#DejaVuSans-65" transform="translate(1588.570312 0)"/>
     <use xlink:href="#DejaVuSans-6e" transform="translate(1650.09375 0)"/>
     <use xlink:href="#DejaVuSans-63" transform="translate(1713.472656 0)"/>
     <use xlink:href="#DejaVuSans-65" transform="translate(1768.453125 0)"/>
     <use xlink:href="#DejaVuSans-20" transform="translate(1829.976562 0)"/>
     <use xlink:href="#DejaVuSans-64" transform="translate(1861.763672 0)"/>
     <use xlink:href="#DejaVuSans-65" transform="translate(1925.240234 0)"/>
     <use xlink:href="#DejaVuSans-20" transform="translate(1986.763672 0)"/>
     <use xlink:href="#DejaVuSans-70" transform="translate(2018.550781 0)"/>
     <use xlink:href="#DejaVuSans-72" transform="translate(2082.027344 0)"/>
     <use xlink:href="#DejaVuSans-6f" transform="translate(2120.890625 0)"/>
     <use xlink:href="#DejaVuSans-62" transform="translate(2182.072266 0)"/>
     <use xlink:href="#DejaVuSans-61" transform="translate(2245.548828 0)"/>
     <use xlink:href="#DejaVuSans-62" transform="translate(2306.828125 0)"/>
     <use xlink:href="#DejaVuSans-69" transform="translate(2370.304688 0)"/>
     <use xlink:href="#DejaVuSans-6c" transform="translate(2398.087891 0)"/>
     <use xlink:href="#DejaVuSans-69" transform="translate(2425.871094 0)"/>
     <use xlink:href="#DejaVuSans-74" transform="translate(2453.654297 0)"/>
     <use xlink:href="#DejaVuSans-e9" transform="translate(2492.863281 0)"/>
    </g>
   </g>
   <g id="legend_1">
    <g id="text_20">
     <!-- Comparaison -->
     <g transform="translate(407.06625 205.124062) scale(0.1 -0.1)">
      <defs>
       <path id="DejaVuSans-43" d="M 4122 4306 
L 4122 3641 
Q 3803 3938 3442 4084 
Q 3081 4231 2675 4231 
Q 1875 4231 1450 3742 
Q 1025 3253 1025 2328 
Q 1025 1406 1450 917 
Q 1875 428 2675 428 
Q 3081 428 3442 575 
Q 3803 722 4122 1019 
L 4122 359 
Q 3791 134 3420 21 
Q 3050 -91 2638 -91 
Q 1578 -91 968 557 
Q 359 1206 359 2328 
Q 359 3453 968 4101 
Q 1578 4750 2638 4750 
Q 3056 4750 3426 4639 
Q 3797 4528 4122 4306 
z
" transform="scale(0.015625)"/>
       <path id="DejaVuSans-73" d="M 2834 3397 
L 2834 2853 
Q 2591 2978 2328 3040 
Q 2066 3103 1784 3103 
Q 1356 3103 1142 2972 
Q 928 2841 928 2578 
Q 928 2378 1081 2264 
Q 1234 2150 1697 2047 
L 1894 2003 
Q 2506 1872 2764 1633 
Q 3022 1394 3022 966 
Q 3022 478 2636 193 
Q 2250 -91 1575 -91 
Q 1294 -91 989 -36 
Q 684 19 347 128 
L 347 722 
Q 666 556 975 473 
Q 1284 391 1588 391 
Q 1994 391 2212 530 
Q 2431 669 2431 922 
Q 2431 1156 2273 1281 
Q 2116 1406 1581 1522 
L 1381 1569 
Q 847 1681 609 1914 
Q 372 2147 372 2553 
Q 372 3047 722 3315 
Q 1072 3584 1716 3584 
Q 2034 3584 2315 3537 
Q 2597 3491 2834 3397 
z
" transform="scale(0.015625)"/>
      </defs>
      <use xlink:href="#DejaVuSans-43"/>
      <use xlink:href="#DejaVuSans-6f" transform="translate(69.824219 0)"/>
      <use xlink:href="#DejaVuSans-6d" transform="translate(131.005859 0)"/>
      <use xlink:href="#DejaVuSans-70" transform="translate(228.417969 0)"/>
      <use xlink:href="#DejaVuSans-61" transform="translate(291.894531 0)"/>
      <use xlink:href="#DejaVuSans-72" transform="translate(353.173828 0)"/>
      <use xlink:href="#DejaVuSans-61" transform="translate(394.287109 0)"/>
      <use xlink:href="#DejaVuSans-69" transform="translate(455.566406 0)"/>
      <use xlink:href="#DejaVuSans-73" transform="translate(483.349609 0)"/>
      <use xlink:href="#DejaVuSans-6f" transform="translate(535.449219 0)"/>
      <use xlink:href="#DejaVuSans-6e" transform="translate(596.630859 0)"/>
     </g>
    </g>
    <g id="line2d_34">
     <path d="M 402.924063 216.302187 
L 412.924063 216.302187 
L 422.924063 216.302187 
" style="fill: none; stroke: #a3be8c; stroke-width: 1.5; stroke-linecap: square"/>
    </g>
    <g id="text_21">
     <!-- High-Low -->
     <g transform="translate(430.924063 219.802187) scale(0.1 -0.1)">
      <defs>
       <path id="DejaVuSans-2d" d="M 313 2009 
L 1997 2009 
L 1997 1497 
L 313 1497 
L 313 2009 
z
" transform="scale(0.015625)"/>
       <path id="DejaVuSans-4c" d="M 628 4666 
L 1259 4666 
L 1259 531 
L 3531 531 
L 3531 0 
L 628 0 
L 628 4666 
z
" transform="scale(0.015625)"/>
       <path id="DejaVuSans-77" d="M 269 3500 
L 844 3500 
L 1563 769 
L 2278 3500 
L 2956 3500 
L 3675 769 
L 4391 3500 
L 4966 3500 
L 4050 0 
L 3372 0 
L 2619 2869 
L 1863 0 
L 1184 0 
L 269 3500 
z
" transform="scale(0.015625)"/>
      </defs>
      <use xlink:href="#DejaVuSans-48"/>
      <use xlink:href="#DejaVuSans-69" transform="translate(75.195312 0)"/>
      <use xlink:href="#DejaVuSans-67" transform="translate(102.978516 0)"/>
      <use xlink:href="#DejaVuSans-68" transform="translate(166.455078 0)"/>
      <use xlink:href="#DejaVuSans-2d" transform="translate(229.833984 0)"/>
      <use xlink:href="#DejaVuSans-4c" transform="translate(265.917969 0)"/>
      <use xlink:href="#DejaVuSans-6f" transform="translate(319.880859 0)"/>
      <use xlink:href="#DejaVuSans-77" transform="translate(381.0625 0)"/>
     </g>
    </g>
    <g id="line2d_35">
     <path d="M 402.924063 230.980312 
L 412.924063 230.980312 
L 422.924063 230.980312 
" style="fill: none; stroke: #d08770; stroke-width: 1.5; stroke-linecap: square"/>
    </g>
    <g id="text_22">
     <!-- High-Mid -->
     <g transform="translate(430.924063 234.480312) scale(0.1 -0.1)">
      <use xlink:href="#DejaVuSans-48"/>
      <use xlink:href="#DejaVuSans-69" transform="translate(75.195312 0)"/>
      <use xlink:href="#DejaVuSans-67" transform="translate(102.978516 0)"/>
      <use xlink:href="#DejaVuSans-68" transform="translate(166.455078 0)"/>
      <use xlink:href="#DejaVuSans-2d" transform="translate(229.833984 0)"/>
      <use xlink:href="#DejaVuSans-4d" transform="translate(265.917969 0)"/>
      <use xlink:href="#DejaVuSans-69" transform="translate(352.197266 0)"/>
      <use xlink:href="#DejaVuSans-64" transform="translate(379.980469 0)"/>
     </g>
    </g>
   </g>
  </g>
 </g>
 <defs>
  <clipPath id="p8a381a6f7f">
   <rect x="65.84" y="26.64" width="420.37" height="218.92"/>
  </clipPath>
 </defs>
</svg>
