<?xml version="1.0" encoding="utf-8" standalone="no"?>
<!DOCTYPE svg PUBLIC "-//W3C//DTD SVG 1.1//EN"
  "http://www.w3.org/Graphics/SVG/1.1/DTD/svg11.dtd">
<svg xmlns:xlink="http://www.w3.org/1999/xlink" width="792pt" height="273.6pt" viewBox="0 0 792 273.6" xmlns="http://www.w3.org/2000/svg" version="1.1">
 <metadata>
  <rdf:RDF xmlns:dc="http://purl.org/dc/elements/1.1/" xmlns:cc="http://creativecommons.org/ns#" xmlns:rdf="http://www.w3.org/1999/02/22-rdf-syntax-ns#">
   <cc:Work>
    <dc:type rdf:resource="http://purl.org/dc/dcmitype/StillImage"/>
    <dc:date>2025-12-02T17:22:18.583984</dc:date>
    <dc:format>image/svg+xml</dc:format>
    <dc:creator>
     <cc:Agent>
      <dc:title>Matplotlib v3.10.6, https://matplotlib.org/</dc:title>
     </cc:Agent>
    </dc:creator>
   </cc:Work>
  </rdf:RDF>
 </metadata>
 <defs>
  <style type="text/css">*{stroke-linejoin: round; stroke-linecap: butt}</style>
 </defs>
 <g id="figure_1">
  <g id="patch_1">
   <path d="M 0 273.6 
L 792 273.6 
L 792 0 
L 0 0 
z
" style="fill: #ffffff"/>
  </g>
  <g id="axes_1">
   <g id="patch_2">
    <path d="M 48.92 231.16 
L 283.48 231.16 
L 283.48 25.92 
L 48.92 25.92 
z
" style="fill: #ffffff"/>
   </g>
   <g id="FillBetweenPolyCollection_1">
    <defs>
     <path id="m0b4b8e4aaf" d="M 48.92 -204.214115 
L 48.92 -137.923347 
L 50.098693 -137.525666 
L 51.277387 -137.127779 
L 52.45608 -136.729672 
L 53.634774 -136.331332 
L 54.813467 -135.932746 
L 55.992161 -135.533901 
L 57.170854 -135.134785 
L 58.349548 -134.735386 
L 59.528241 -134.335691 
L 60.706935 -133.935689 
L 61.885628 -133.535368 
L 63.064322 -133.134717 
L 64.243015 -132.733725 
L 65.421709 -132.332382 
L 66.600402 -131.930677 
L 67.779095 -131.5286 
L 68.957789 -131.126142 
L 70.136482 -130.723292 
L 71.315176 -130.320044 
L 72.493869 -129.916387 
L 73.672563 -129.512315 
L 74.851256 -129.107818 
L 76.02995 -128.702891 
L 77.208643 -128.297525 
L 78.387337 -127.891716 
L 79.56603 -127.485457 
L 80.744724 -127.078743 
L 81.923417 -126.671568 
L 83.102111 -126.263929 
L 84.280804 -125.855822 
L 85.459497 -125.447243 
L 86.638191 -125.038191 
L 87.816884 -124.628662 
L 88.995578 -124.218655 
L 90.174271 -123.80817 
L 91.352965 -123.397206 
L 92.531658 -122.985763 
L 93.710352 -122.573843 
L 94.889045 -122.161447 
L 96.067739 -121.748577 
L 97.246432 -121.335237 
L 98.425126 -120.921429 
L 99.603819 -120.507159 
L 100.782513 -120.092432 
L 101.961206 -119.677252 
L 103.139899 -119.261628 
L 104.318593 -118.845565 
L 105.497286 -118.429072 
L 106.67598 -118.012158 
L 107.854673 -117.594831 
L 109.033367 -117.177103 
L 110.21206 -116.758983 
L 111.390754 -116.340485 
L 112.569447 -115.921619 
L 113.748141 -115.5024 
L 114.926834 -115.082841 
L 116.105528 -114.662956 
L 117.284221 -114.242761 
L 118.462915 -113.822273 
L 119.641608 -113.401508 
L 120.820302 -112.980483 
L 121.998995 -112.559217 
L 123.177688 -112.137729 
L 124.356382 -111.716037 
L 125.535075 -111.294164 
L 126.713769 -110.872129 
L 127.892462 -110.449954 
L 129.071156 -110.027662 
L 130.249849 -109.605274 
L 131.428543 -109.182816 
L 132.607236 -108.76031 
L 133.78593 -108.337781 
L 134.964623 -107.915255 
L 136.143317 -107.492757 
L 137.32201 -107.070313 
L 138.500704 -106.647949 
L 139.679397 -106.225694 
L 140.85809 -105.803574 
L 142.036784 -105.381617 
L 143.215477 -104.959852 
L 144.394171 -104.538308 
L 145.572864 -104.117012 
L 146.751558 -103.695995 
L 147.930251 -103.275286 
L 149.108945 -102.854916 
L 150.287638 -102.434913 
L 151.466332 -102.015308 
L 152.645025 -101.596132 
L 153.823719 -101.177415 
L 155.002412 -100.759188 
L 156.181106 -100.341482 
L 157.359799 -99.924328 
L 158.538492 -99.507756 
L 159.717186 -99.091797 
L 160.895879 -98.676483 
L 162.074573 -98.261844 
L 163.253266 -97.847911 
L 164.43196 -97.434714 
L 165.610653 -97.022285 
L 166.789347 -96.610655 
L 167.96804 -96.199852 
L 169.146734 -95.789908 
L 170.325427 -95.380852 
L 171.504121 -94.972715 
L 172.682814 -94.565526 
L 173.861508 -94.159313 
L 175.040201 -93.754107 
L 176.218894 -93.349936 
L 177.397588 -92.946829 
L 178.576281 -92.544812 
L 179.754975 -92.143916 
L 180.933668 -91.744165 
L 182.112362 -91.345589 
L 183.291055 -90.948214 
L 184.469749 -90.552065 
L 185.648442 -90.157169 
L 186.827136 -89.763551 
L 188.005829 -89.371236 
L 189.184523 -88.98025 
L 190.363216 -88.590615 
L 191.54191 -88.202357 
L 192.720603 -87.815498 
L 193.899296 -87.430061 
L 195.07799 -87.046068 
L 196.256683 -86.663542 
L 197.435377 -86.282503 
L 198.61407 -85.902973 
L 199.792764 -85.524972 
L 200.971457 -85.14852 
L 202.150151 -84.773637 
L 203.328844 -84.400341 
L 204.507538 -84.028652 
L 205.686231 -83.658586 
L 206.864925 -83.290161 
L 208.043618 -82.923396 
L 209.222312 -82.558305 
L 210.401005 -82.194904 
L 211.579698 -81.833211 
L 212.758392 -81.473239 
L 213.937085 -81.115002 
L 215.115779 -80.758516 
L 216.294472 -80.403793 
L 217.473166 -80.050847 
L 218.651859 -79.69969 
L 219.830553 -79.350335 
L 221.009246 -79.002792 
L 222.18794 -78.657074 
L 223.366633 -78.31319 
L 224.545327 -77.971152 
L 225.72402 -77.630969 
L 226.902714 -77.29265 
L 228.081407 -76.956204 
L 229.260101 -76.62164 
L 230.438794 -76.288966 
L 231.617487 -75.958189 
L 232.796181 -75.629317 
L 233.974874 -75.302357 
L 235.153568 -74.977314 
L 236.332261 -74.654195 
L 237.510955 -74.333006 
L 238.689648 -74.013751 
L 239.868342 -73.696435 
L 241.047035 -73.381064 
L 242.225729 -73.06764 
L 243.404422 -72.756168 
L 244.583116 -72.44665 
L 245.761809 -72.139091 
L 246.940503 -71.833492 
L 248.119196 -71.529856 
L 249.297889 -71.228185 
L 250.476583 -70.92848 
L 251.655276 -70.630743 
L 252.83397 -70.334975 
L 254.012663 -70.041175 
L 255.191357 -69.749346 
L 256.37005 -69.459487 
L 257.548744 -69.171597 
L 258.727437 -68.885676 
L 259.906131 -68.601723 
L 261.084824 -68.319738 
L 262.263518 -68.039719 
L 263.442211 -67.761664 
L 264.620905 -67.485571 
L 265.799598 -67.211439 
L 266.978291 -66.939265 
L 268.156985 -66.669047 
L 269.335678 -66.400781 
L 270.514372 -66.134464 
L 271.693065 -65.870095 
L 272.871759 -65.607668 
L 274.050452 -65.34718 
L 275.229146 -65.088628 
L 276.407839 -64.832007 
L 277.586533 -64.577312 
L 278.765226 -64.32454 
L 279.94392 -64.073686 
L 281.122613 -63.824745 
L 282.301307 -63.577712 
L 283.48 -63.332581 
L 283.48 -101.128697 
L 283.48 -101.128697 
L 282.301307 -101.412088 
L 281.122613 -101.696668 
L 279.94392 -101.982446 
L 278.765226 -102.269428 
L 277.586533 -102.557623 
L 276.407839 -102.847039 
L 275.229146 -103.137683 
L 274.050452 -103.429565 
L 272.871759 -103.722691 
L 271.693065 -104.017071 
L 270.514372 -104.312714 
L 269.335678 -104.609629 
L 268.156985 -104.907824 
L 266.978291 -105.207309 
L 265.799598 -105.508094 
L 264.620905 -105.810188 
L 263.442211 -106.113601 
L 262.263518 -106.418344 
L 261.084824 -106.724426 
L 259.906131 -107.031859 
L 258.727437 -107.340653 
L 257.548744 -107.650818 
L 256.37005 -107.962367 
L 255.191357 -108.275311 
L 254.012663 -108.589662 
L 252.83397 -108.90543 
L 251.655276 -109.22263 
L 250.476583 -109.541272 
L 249.297889 -109.861371 
L 248.119196 -110.182938 
L 246.940503 -110.505988 
L 245.761809 -110.830533 
L 244.583116 -111.156588 
L 243.404422 -111.484166 
L 242.225729 -111.813282 
L 241.047035 -112.143951 
L 239.868342 -112.476187 
L 238.689648 -112.810006 
L 237.510955 -113.145424 
L 236.332261 -113.482456 
L 235.153568 -113.821119 
L 233.974874 -114.161428 
L 232.796181 -114.503402 
L 231.617487 -114.847056 
L 230.438794 -115.19241 
L 229.260101 -115.539479 
L 228.081407 -115.888284 
L 226.902714 -116.238841 
L 225.72402 -116.591171 
L 224.545327 -116.945292 
L 223.366633 -117.301224 
L 222.18794 -117.658987 
L 221.009246 -118.018601 
L 219.830553 -118.380087 
L 218.651859 -118.743466 
L 217.473166 -119.108759 
L 216.294472 -119.475989 
L 215.115779 -119.845177 
L 213.937085 -120.216346 
L 212.758392 -120.58952 
L 211.579698 -120.96472 
L 210.401005 -121.341972 
L 209.222312 -121.721298 
L 208.043618 -122.102725 
L 206.864925 -122.486275 
L 205.686231 -122.871976 
L 204.507538 -123.259852 
L 203.328844 -123.649929 
L 202.150151 -124.042234 
L 200.971457 -124.436794 
L 199.792764 -124.833636 
L 198.61407 -125.232787 
L 197.435377 -125.634275 
L 196.256683 -126.038129 
L 195.07799 -126.444377 
L 193.899296 -126.853048 
L 192.720603 -127.264171 
L 191.54191 -127.677777 
L 190.363216 -128.093895 
L 189.184523 -128.512555 
L 188.005829 -128.933788 
L 186.827136 -129.357626 
L 185.648442 -129.784099 
L 184.469749 -130.213239 
L 183.291055 -130.645078 
L 182.112362 -131.079648 
L 180.933668 -131.516981 
L 179.754975 -131.95711 
L 178.576281 -132.400067 
L 177.397588 -132.845887 
L 176.218894 -133.294601 
L 175.040201 -133.746244 
L 173.861508 -134.200849 
L 172.682814 -134.65845 
L 171.504121 -135.11908 
L 170.325427 -135.582774 
L 169.146734 -136.049566 
L 167.96804 -136.519489 
L 166.789347 -136.992579 
L 165.610653 -137.468868 
L 164.43196 -137.948392 
L 163.253266 -138.431184 
L 162.074573 -138.917278 
L 160.895879 -139.406709 
L 159.717186 -139.899511 
L 158.538492 -140.395716 
L 157.359799 -140.89536 
L 156.181106 -141.398475 
L 155.002412 -141.905095 
L 153.823719 -142.415253 
L 152.645025 -142.928981 
L 151.466332 -143.446313 
L 150.287638 -143.967279 
L 149.108945 -144.491913 
L 147.930251 -145.020245 
L 146.751558 -145.552307 
L 145.572864 -146.088129 
L 144.394171 -146.627741 
L 143.215477 -147.171174 
L 142.036784 -147.718456 
L 140.85809 -148.269617 
L 139.679397 -148.824683 
L 138.500704 -149.383684 
L 137.32201 -149.946644 
L 136.143317 -150.513592 
L 134.964623 -151.084552 
L 133.78593 -151.65955 
L 132.607236 -152.238609 
L 131.428543 -152.821753 
L 130.249849 -153.409005 
L 129.071156 -154.000386 
L 127.892462 -154.595918 
L 126.713769 -155.195621 
L 125.535075 -155.799514 
L 124.356382 -156.407616 
L 123.177688 -157.019945 
L 121.998995 -157.636518 
L 120.820302 -158.257349 
L 119.641608 -158.882456 
L 118.462915 -159.51185 
L 117.284221 -160.145546 
L 116.105528 -160.783556 
L 114.926834 -161.425891 
L 113.748141 -162.072561 
L 112.569447 -162.723576 
L 111.390754 -163.378943 
L 110.21206 -164.03867 
L 109.033367 -164.702764 
L 107.854673 -165.37123 
L 106.67598 -166.044071 
L 105.497286 -166.721292 
L 104.318593 -167.402895 
L 103.139899 -168.088881 
L 101.961206 -168.77925 
L 100.782513 -169.474002 
L 99.603819 -170.173136 
L 98.425126 -170.876648 
L 97.246432 -171.584536 
L 96.067739 -172.296795 
L 94.889045 -173.013419 
L 93.710352 -173.734402 
L 92.531658 -174.459738 
L 91.352965 -175.189416 
L 90.174271 -175.92343 
L 88.995578 -176.661768 
L 87.816884 -177.404419 
L 86.638191 -178.151373 
L 85.459497 -178.902616 
L 84.280804 -179.658134 
L 83.102111 -180.417914 
L 81.923417 -181.181941 
L 80.744724 -181.950197 
L 79.56603 -182.722668 
L 78.387337 -183.499334 
L 77.208643 -184.280179 
L 76.02995 -185.065182 
L 74.851256 -185.854324 
L 73.672563 -186.647584 
L 72.493869 -187.444942 
L 71.315176 -188.246375 
L 70.136482 -189.051861 
L 68.957789 -189.861376 
L 67.779095 -190.674896 
L 66.600402 -191.492398 
L 65.421709 -192.313855 
L 64.243015 -193.139242 
L 63.064322 -193.968532 
L 61.885628 -194.801699 
L 60.706935 -195.638715 
L 59.528241 -196.479552 
L 58.349548 -197.324181 
L 57.170854 -198.172572 
L 55.992161 -199.024697 
L 54.813467 -199.880525 
L 53.634774 -200.740025 
L 52.45608 -201.603166 
L 51.277387 -202.469916 
L 50.098693 -203.340243 
L 48.92 -204.214115 
z
" style="stroke: #5e81ac; stroke-opacity: 0.15"/>
    </defs>
    <g clip-path="url(#p8ef0ada091)">
     <use xlink:href="#m0b4b8e4aaf" x="0" y="273.6" style="fill: #5e81ac; fill-opacity: 0.15; stroke: #5e81ac; stroke-opacity: 0.15"/>
    </g>
   </g>
   <g id="matplotlib.axis_1">
    <g id="xtick_1">
     <g id="line2d_1">
      <path d="M 66.294815 231.16 
L 66.294815 25.92 
" clip-path="url(#p8ef0ada091)" style="fill: none; stroke: #d8dee9; stroke-opacity: 0.4; stroke-width: 0.8; stroke-linecap: square"/>
     </g>
     <g id="line2d_2">
      <defs>
       <path id="mc7350df323" d="M 0 0 
L 0 3.5 
" style="stroke: #434c5e; stroke-width: 0.8"/>
      </defs>
      <g>
       <use xlink:href="#mc7350df323" x="66.294815" y="231.16" style="fill: #434c5e; stroke: #434c5e; stroke-width: 0.8"/>
      </g>
     </g>
     <g id="text_1">
      <!-- 20 -->
      <g style="fill: #434c5e" transform="translate(59.296065 246.518281) scale(0.11 -0.11)">
       <defs>
        <path id="DejaVuSans-32" d="M 1228 531 
L 3431 531 
L 3431 0 
L 469 0 
L 469 531 
Q 828 903 1448 1529 
Q 2069 2156 2228 2338 
Q 2531 2678 2651 2914 
Q 2772 3150 2772 3378 
Q 2772 3750 2511 3984 
Q 2250 4219 1831 4219 
Q 1534 4219 1204 4116 
Q 875 4013 500 3803 
L 500 4441 
Q 881 4594 1212 4672 
Q 1544 4750 1819 4750 
Q 2544 4750 2975 4387 
Q 3406 4025 3406 3419 
Q 3406 3131 3298 2873 
Q 3191 2616 2906 2266 
Q 2828 2175 2409 1742 
Q 1991 1309 1228 531 
z
" transform="scale(0.015625)"/>
        <path id="DejaVuSans-30" d="M 2034 4250 
Q 1547 4250 1301 3770 
Q 1056 3291 1056 2328 
Q 1056 1369 1301 889 
Q 1547 409 2034 409 
Q 2525 409 2770 889 
Q 3016 1369 3016 2328 
Q 3016 3291 2770 3770 
Q 2525 4250 2034 4250 
z
M 2034 4750 
Q 2819 4750 3233 4129 
Q 3647 3509 3647 2328 
Q 3647 1150 3233 529 
Q 2819 -91 2034 -91 
Q 1250 -91 836 529 
Q 422 1150 422 2328 
Q 422 3509 836 4129 
Q 1250 4750 2034 4750 
z
" transform="scale(0.015625)"/>
       </defs>
       <use xlink:href="#DejaVuSans-32"/>
       <use xlink:href="#DejaVuSans-30" transform="translate(63.623047 0)"/>
      </g>
     </g>
    </g>
    <g id="xtick_2">
     <g id="line2d_3">
      <path d="M 109.731852 231.16 
L 109.731852 25.92 
" clip-path="url(#p8ef0ada091)" style="fill: none; stroke: #d8dee9; stroke-opacity: 0.4; stroke-width: 0.8; stroke-linecap: square"/>
     </g>
     <g id="line2d_4">
      <g>
       <use xlink:href="#mc7350df323" x="109.731852" y="231.16" style="fill: #434c5e; stroke: #434c5e; stroke-width: 0.8"/>
      </g>
     </g>
     <g id="text_2">
      <!-- 25 -->
      <g style="fill: #434c5e" transform="translate(102.733102 246.518281) scale(0.11 -0.11)">
       <defs>
        <path id="DejaVuSans-35" d="M 691 4666 
L 3169 4666 
L 3169 4134 
L 1269 4134 
L 1269 2991 
Q 1406 3038 1543 3061 
Q 1681 3084 1819 3084 
Q 2600 3084 3056 2656 
Q 3513 2228 3513 1497 
Q 3513 744 3044 326 
Q 2575 -91 1722 -91 
Q 1428 -91 1123 -41 
Q 819 9 494 109 
L 494 744 
Q 775 591 1075 516 
Q 1375 441 1709 441 
Q 2250 441 2565 725 
Q 2881 1009 2881 1497 
Q 2881 1984 2565 2268 
Q 2250 2553 1709 2553 
Q 1456 2553 1204 2497 
Q 953 2441 691 2322 
L 691 4666 
z
" transform="scale(0.015625)"/>
       </defs>
       <use xlink:href="#DejaVuSans-32"/>
       <use xlink:href="#DejaVuSans-35" transform="translate(63.623047 0)"/>
      </g>
     </g>
    </g>
    <g id="xtick_3">
     <g id="line2d_5">
      <path d="M 153.168889 231.16 
L 153.168889 25.92 
" clip-path="url(#p8ef0ada091)" style="fill: none; stroke: #d8dee9; stroke-opacity: 0.4; stroke-width: 0.8; stroke-linecap: square"/>
     </g>
     <g id="line2d_6">
      <g>
       <use xlink:href="#mc7350df323" x="153.168889" y="231.16" style="fill: #434c5e; stroke: #434c5e; stroke-width: 0.8"/>
      </g>
     </g>
     <g id="text_3">
      <!-- 30 -->
      <g style="fill: #434c5e" transform="translate(146.170139 246.518281) scale(0.11 -0.11)">
       <defs>
        <path id="DejaVuSans-33" d="M 2597 2516 
Q 3050 2419 3304 2112 
Q 3559 1806 3559 1356 
Q 3559 666 3084 287 
Q 2609 -91 1734 -91 
Q 1441 -91 1130 -33 
Q 819 25 488 141 
L 488 750 
Q 750 597 1062 519 
Q 1375 441 1716 441 
Q 2309 441 2620 675 
Q 2931 909 2931 1356 
Q 2931 1769 2642 2001 
Q 2353 2234 1838 2234 
L 1294 2234 
L 1294 2753 
L 1863 2753 
Q 2328 2753 2575 2939 
Q 2822 3125 2822 3475 
Q 2822 3834 2567 4026 
Q 2313 4219 1838 4219 
Q 1578 4219 1281 4162 
Q 984 4106 628 3988 
L 628 4550 
Q 988 4650 1302 4700 
Q 1616 4750 1894 4750 
Q 2613 4750 3031 4423 
Q 3450 4097 3450 3541 
Q 3450 3153 3228 2886 
Q 3006 2619 2597 2516 
z
" transform="scale(0.015625)"/>
       </defs>
       <use xlink:href="#DejaVuSans-33"/>
       <use xlink:href="#DejaVuSans-30" transform="translate(63.623047 0)"/>
      </g>
     </g>
    </g>
    <g id="xtick_4">
     <g id="line2d_7">
      <path d="M 196.605926 231.16 
L 196.605926 25.92 
" clip-path="url(#p8ef0ada091)" style="fill: none; stroke: #d8dee9; stroke-opacity: 0.4; stroke-width: 0.8; stroke-linecap: square"/>
     </g>
     <g id="line2d_8">
      <g>
       <use xlink:href="#mc7350df323" x="196.605926" y="231.16" style="fill: #434c5e; stroke: #434c5e; stroke-width: 0.8"/>
      </g>
     </g>
     <g id="text_4">
      <!-- 35 -->
      <g style="fill: #434c5e" transform="translate(189.607176 246.518281) scale(0.11 -0.11)">
       <use xlink:href="#DejaVuSans-33"/>
       <use xlink:href="#DejaVuSans-35" transform="translate(63.623047 0)"/>
      </g>
     </g>
    </g>
    <g id="xtick_5">
     <g id="line2d_9">
      <path d="M 240.042963 231.16 
L 240.042963 25.92 
" clip-path="url(#p8ef0ada091)" style="fill: none; stroke: #d8dee9; stroke-opacity: 0.4; stroke-width: 0.8; stroke-linecap: square"/>
     </g>
     <g id="line2d_10">
      <g>
       <use xlink:href="#mc7350df323" x="240.042963" y="231.16" style="fill: #434c5e; stroke: #434c5e; stroke-width: 0.8"/>
      </g>
     </g>
     <g id="text_5">
      <!-- 40 -->
      <g style="fill: #434c5e" transform="translate(233.044213 246.518281) scale(0.11 -0.11)">
       <defs>
        <path id="DejaVuSans-34" d="M 2419 4116 
L 825 1625 
L 2419 1625 
L 2419 4116 
z
M 2253 4666 
L 3047 4666 
L 3047 1625 
L 3713 1625 
L 3713 1100 
L 3047 1100 
L 3047 0 
L 2419 0 
L 2419 1100 
L 313 1100 
L 313 1709 
L 2253 4666 
z
" transform="scale(0.015625)"/>
       </defs>
       <use xlink:href="#DejaVuSans-34"/>
       <use xlink:href="#DejaVuSans-30" transform="translate(63.623047 0)"/>
      </g>
     </g>
    </g>
    <g id="xtick_6">
     <g id="line2d_11">
      <path d="M 283.48 231.16 
L 283.48 25.92 
" clip-path="url(#p8ef0ada091)" style="fill: none; stroke: #d8dee9; stroke-opacity: 0.4; stroke-width: 0.8; stroke-linecap: square"/>
     </g>
     <g id="line2d_12">
      <g>
       <use xlink:href="#mc7350df323" x="283.48" y="231.16" style="fill: #434c5e; stroke: #434c5e; stroke-width: 0.8"/>
      </g>
     </g>
     <g id="text_6">
      <!-- 45 -->
      <g style="fill: #434c5e" transform="translate(276.48125 246.518281) scale(0.11 -0.11)">
       <use xlink:href="#DejaVuSans-34"/>
       <use xlink:href="#DejaVuSans-35" transform="translate(63.623047 0)"/>
      </g>
     </g>
    </g>
    <g id="text_7">
     <!-- BMI (kg/m²) -->
     <g style="fill: #434c5e" transform="translate(136.860937 260.404375) scale(0.1 -0.1)">
      <defs>
       <path id="DejaVuSans-42" d="M 1259 2228 
L 1259 519 
L 2272 519 
Q 2781 519 3026 730 
Q 3272 941 3272 1375 
Q 3272 1813 3026 2020 
Q 2781 2228 2272 2228 
L 1259 2228 
z
M 1259 4147 
L 1259 2741 
L 2194 2741 
Q 2656 2741 2882 2914 
Q 3109 3088 3109 3444 
Q 3109 3797 2882 3972 
Q 2656 4147 2194 4147 
L 1259 4147 
z
M 628 4666 
L 2241 4666 
Q 2963 4666 3353 4366 
Q 3744 4066 3744 3513 
Q 3744 3084 3544 2831 
Q 3344 2578 2956 2516 
Q 3422 2416 3680 2098 
Q 3938 1781 3938 1306 
Q 3938 681 3513 340 
Q 3088 0 2303 0 
L 628 0 
L 628 4666 
z
" transform="scale(0.015625)"/>
       <path id="DejaVuSans-4d" d="M 628 4666 
L 1569 4666 
L 2759 1491 
L 3956 4666 
L 4897 4666 
L 4897 0 
L 4281 0 
L 4281 4097 
L 3078 897 
L 2444 897 
L 1241 4097 
L 1241 0 
L 628 0 
L 628 4666 
z
" transform="scale(0.015625)"/>
       <path id="DejaVuSans-49" d="M 628 4666 
L 1259 4666 
L 1259 0 
L 628 0 
L 628 4666 
z
" transform="scale(0.015625)"/>
       <path id="DejaVuSans-20" transform="scale(0.015625)"/>
       <path id="DejaVuSans-28" d="M 1984 4856 
Q 1566 4138 1362 3434 
Q 1159 2731 1159 2009 
Q 1159 1288 1364 580 
Q 1569 -128 1984 -844 
L 1484 -844 
Q 1016 -109 783 600 
Q 550 1309 550 2009 
Q 550 2706 781 3412 
Q 1013 4119 1484 4856 
L 1984 4856 
z
" transform="scale(0.015625)"/>
       <path id="DejaVuSans-6b" d="M 581 4863 
L 1159 4863 
L 1159 1991 
L 2875 3500 
L 3609 3500 
L 1753 1863 
L 3688 0 
L 2938 0 
L 1159 1709 
L 1159 0 
L 581 0 
L 581 4863 
z
" transform="scale(0.015625)"/>
       <path id="DejaVuSans-67" d="M 2906 1791 
Q 2906 2416 2648 2759 
Q 2391 3103 1925 3103 
Q 1463 3103 1205 2759 
Q 947 2416 947 1791 
Q 947 1169 1205 825 
Q 1463 481 1925 481 
Q 2391 481 2648 825 
Q 2906 1169 2906 1791 
z
M 3481 434 
Q 3481 -459 3084 -895 
Q 2688 -1331 1869 -1331 
Q 1566 -1331 1297 -1286 
Q 1028 -1241 775 -1147 
L 775 -588 
Q 1028 -725 1275 -790 
Q 1522 -856 1778 -856 
Q 2344 -856 2625 -561 
Q 2906 -266 2906 331 
L 2906 616 
Q 2728 306 2450 153 
Q 2172 0 1784 0 
Q 1141 0 747 490 
Q 353 981 353 1791 
Q 353 2603 747 3093 
Q 1141 3584 1784 3584 
Q 2172 3584 2450 3431 
Q 2728 3278 2906 2969 
L 2906 3500 
L 3481 3500 
L 3481 434 
z
" transform="scale(0.015625)"/>
       <path id="DejaVuSans-2f" d="M 1625 4666 
L 2156 4666 
L 531 -594 
L 0 -594 
L 1625 4666 
z
" transform="scale(0.015625)"/>
       <path id="DejaVuSans-6d" d="M 3328 2828 
Q 3544 3216 3844 3400 
Q 4144 3584 4550 3584 
Q 5097 3584 5394 3201 
Q 5691 2819 5691 2113 
L 5691 0 
L 5113 0 
L 5113 2094 
Q 5113 2597 4934 2840 
Q 4756 3084 4391 3084 
Q 3944 3084 3684 2787 
Q 3425 2491 3425 1978 
L 3425 0 
L 2847 0 
L 2847 2094 
Q 2847 2600 2669 2842 
Q 2491 3084 2119 3084 
Q 1678 3084 1418 2786 
Q 1159 2488 1159 1978 
L 1159 0 
L 581 0 
L 581 3500 
L 1159 3500 
L 1159 2956 
Q 1356 3278 1631 3431 
Q 1906 3584 2284 3584 
Q 2666 3584 2933 3390 
Q 3200 3197 3328 2828 
z
" transform="scale(0.015625)"/>
       <path id="DejaVuSans-b2" d="M 838 2444 
L 2163 2444 
L 2163 2088 
L 294 2088 
L 294 2431 
Q 400 2528 597 2703 
Q 1672 3656 1672 3950 
Q 1672 4156 1509 4282 
Q 1347 4409 1081 4409 
Q 919 4409 728 4354 
Q 538 4300 313 4191 
L 313 4575 
Q 553 4663 761 4706 
Q 969 4750 1147 4750 
Q 1600 4750 1872 4544 
Q 2144 4338 2144 4000 
Q 2144 3566 1109 2678 
Q 934 2528 838 2444 
z
" transform="scale(0.015625)"/>
       <path id="DejaVuSans-29" d="M 513 4856 
L 1013 4856 
Q 1481 4119 1714 3412 
Q 1947 2706 1947 2009 
Q 1947 1309 1714 600 
Q 1481 -109 1013 -844 
L 513 -844 
Q 928 -128 1133 580 
Q 1338 1288 1338 2009 
Q 1338 2731 1133 3434 
Q 928 4138 513 4856 
z
" transform="scale(0.015625)"/>
      </defs>
      <use xlink:href="#DejaVuSans-42"/>
      <use xlink:href="#DejaVuSans-4d" transform="translate(68.603516 0)"/>
      <use xlink:href="#DejaVuSans-49" transform="translate(154.882812 0)"/>
      <use xlink:href="#DejaVuSans-20" transform="translate(184.375 0)"/>
      <use xlink:href="#DejaVuSans-28" transform="translate(216.162109 0)"/>
      <use xlink:href="#DejaVuSans-6b" transform="translate(255.175781 0)"/>
      <use xlink:href="#DejaVuSans-67" transform="translate(313.085938 0)"/>
      <use xlink:href="#DejaVuSans-2f" transform="translate(376.5625 0)"/>
      <use xlink:href="#DejaVuSans-6d" transform="translate(410.253906 0)"/>
      <use xlink:href="#DejaVuSans-b2" transform="translate(507.666016 0)"/>
      <use xlink:href="#DejaVuSans-29" transform="translate(547.753906 0)"/>
     </g>
    </g>
   </g>
   <g id="matplotlib.axis_2">
    <g id="ytick_1">
     <g id="line2d_13">
      <path d="M 48.92 231.16 
L 283.48 231.16 
" clip-path="url(#p8ef0ada091)" style="fill: none; stroke: #d8dee9; stroke-opacity: 0.4; stroke-width: 0.8; stroke-linecap: square"/>
     </g>
     <g id="line2d_14">
      <defs>
       <path id="m01e8f97951" d="M 0 0 
L -3.5 0 
" style="stroke: #434c5e; stroke-width: 0.8"/>
      </defs>
      <g>
       <use xlink:href="#m01e8f97951" x="48.92" y="231.16" style="fill: #434c5e; stroke: #434c5e; stroke-width: 0.8"/>
      </g>
     </g>
     <g id="text_8">
      <!-- 0.0 -->
      <g style="fill: #434c5e" transform="translate(24.426563 235.339141) scale(0.11 -0.11)">
       <defs>
        <path id="DejaVuSans-2e" d="M 684 794 
L 1344 794 
L 1344 0 
L 684 0 
L 684 794 
z
" transform="scale(0.015625)"/>
       </defs>
       <use xlink:href="#DejaVuSans-30"/>
       <use xlink:href="#DejaVuSans-2e" transform="translate(63.623047 0)"/>
       <use xlink:href="#DejaVuSans-30" transform="translate(95.410156 0)"/>
      </g>
     </g>
    </g>
    <g id="ytick_2">
     <g id="line2d_15">
      <path d="M 48.92 190.112 
L 283.48 190.112 
" clip-path="url(#p8ef0ada091)" style="fill: none; stroke: #d8dee9; stroke-opacity: 0.4; stroke-width: 0.8; stroke-linecap: square"/>
     </g>
     <g id="line2d_16">
      <g>
       <use xlink:href="#m01e8f97951" x="48.92" y="190.112" style="fill: #434c5e; stroke: #434c5e; stroke-width: 0.8"/>
      </g>
     </g>
     <g id="text_9">
      <!-- 0.1 -->
      <g style="fill: #434c5e" transform="translate(24.426563 194.291141) scale(0.11 -0.11)">
       <defs>
        <path id="DejaVuSans-31" d="M 794 531 
L 1825 531 
L 1825 4091 
L 703 3866 
L 703 4441 
L 1819 4666 
L 2450 4666 
L 2450 531 
L 3481 531 
L 3481 0 
L 794 0 
L 794 531 
z
" transform="scale(0.015625)"/>
       </defs>
       <use xlink:href="#DejaVuSans-30"/>
       <use xlink:href="#DejaVuSans-2e" transform="translate(63.623047 0)"/>
       <use xlink:href="#DejaVuSans-31" transform="translate(95.410156 0)"/>
      </g>
     </g>
    </g>
    <g id="ytick_3">
     <g id="line2d_17">
      <path d="M 48.92 149.064 
L 283.48 149.064 
" clip-path="url(#p8ef0ada091)" style="fill: none; stroke: #d8dee9; stroke-opacity: 0.4; stroke-width: 0.8; stroke-linecap: square"/>
     </g>
     <g id="line2d_18">
      <g>
       <use xlink:href="#m01e8f97951" x="48.92" y="149.064" style="fill: #434c5e; stroke: #434c5e; stroke-width: 0.8"/>
      </g>
     </g>
     <g id="text_10">
      <!-- 0.2 -->
      <g style="fill: #434c5e" transform="translate(24.426563 153.243141) scale(0.11 -0.11)">
       <use xlink:href="#DejaVuSans-30"/>
       <use xlink:href="#DejaVuSans-2e" transform="translate(63.623047 0)"/>
       <use xlink:href="#DejaVuSans-32" transform="translate(95.410156 0)"/>
      </g>
     </g>
    </g>
    <g id="ytick_4">
     <g id="line2d_19">
      <path d="M 48.92 108.016 
L 283.48 108.016 
" clip-path="url(#p8ef0ada091)" style="fill: none; stroke: #d8dee9; stroke-opacity: 0.4; stroke-width: 0.8; stroke-linecap: square"/>
     </g>
     <g id="line2d_20">
      <g>
       <use xlink:href="#m01e8f97951" x="48.92" y="108.016" style="fill: #434c5e; stroke: #434c5e; stroke-width: 0.8"/>
      </g>
     </g>
     <g id="text_11">
      <!-- 0.3 -->
      <g style="fill: #434c5e" transform="translate(24.426563 112.195141) scale(0.11 -0.11)">
       <use xlink:href="#DejaVuSans-30"/>
       <use xlink:href="#DejaVuSans-2e" transform="translate(63.623047 0)"/>
       <use xlink:href="#DejaVuSans-33" transform="translate(95.410156 0)"/>
      </g>
     </g>
    </g>
    <g id="ytick_5">
     <g id="line2d_21">
      <path d="M 48.92 66.968 
L 283.48 66.968 
" clip-path="url(#p8ef0ada091)" style="fill: none; stroke: #d8dee9; stroke-opacity: 0.4; stroke-width: 0.8; stroke-linecap: square"/>
     </g>
     <g id="line2d_22">
      <g>
       <use xlink:href="#m01e8f97951" x="48.92" y="66.968" style="fill: #434c5e; stroke: #434c5e; stroke-width: 0.8"/>
      </g>
     </g>
     <g id="text_12">
      <!-- 0.4 -->
      <g style="fill: #434c5e" transform="translate(24.426563 71.147141) scale(0.11 -0.11)">
       <use xlink:href="#DejaVuSans-30"/>
       <use xlink:href="#DejaVuSans-2e" transform="translate(63.623047 0)"/>
       <use xlink:href="#DejaVuSans-34" transform="translate(95.410156 0)"/>
      </g>
     </g>
    </g>
    <g id="ytick_6">
     <g id="line2d_23">
      <path d="M 48.92 25.92 
L 283.48 25.92 
" clip-path="url(#p8ef0ada091)" style="fill: none; stroke: #d8dee9; stroke-opacity: 0.4; stroke-width: 0.8; stroke-linecap: square"/>
     </g>
     <g id="line2d_24">
      <g>
       <use xlink:href="#m01e8f97951" x="48.92" y="25.92" style="fill: #434c5e; stroke: #434c5e; stroke-width: 0.8"/>
      </g>
     </g>
     <g id="text_13">
      <!-- 0.5 -->
      <g style="fill: #434c5e" transform="translate(24.426563 30.099141) scale(0.11 -0.11)">
       <use xlink:href="#DejaVuSans-30"/>
       <use xlink:href="#DejaVuSans-2e" transform="translate(63.623047 0)"/>
       <use xlink:href="#DejaVuSans-35" transform="translate(95.410156 0)"/>
      </g>
     </g>
    </g>
    <g id="text_14">
     <!-- Probabilité BP -->
     <g style="fill: #434c5e" transform="translate(18.346875 163.120469) rotate(-90) scale(0.1 -0.1)">
      <defs>
       <path id="DejaVuSans-50" d="M 1259 4147 
L 1259 2394 
L 2053 2394 
Q 2494 2394 2734 2622 
Q 2975 2850 2975 3272 
Q 2975 3691 2734 3919 
Q 2494 4147 2053 4147 
L 1259 4147 
z
M 628 4666 
L 2053 4666 
Q 2838 4666 3239 4311 
Q 3641 3956 3641 3272 
Q 3641 2581 3239 2228 
Q 2838 1875 2053 1875 
L 1259 1875 
L 1259 0 
L 628 0 
L 628 4666 
z
" transform="scale(0.015625)"/>
       <path id="DejaVuSans-72" d="M 2631 2963 
Q 2534 3019 2420 3045 
Q 2306 3072 2169 3072 
Q 1681 3072 1420 2755 
Q 1159 2438 1159 1844 
L 1159 0 
L 581 0 
L 581 3500 
L 1159 3500 
L 1159 2956 
Q 1341 3275 1631 3429 
Q 1922 3584 2338 3584 
Q 2397 3584 2469 3576 
Q 2541 3569 2628 3553 
L 2631 2963 
z
" transform="scale(0.015625)"/>
       <path id="DejaVuSans-6f" d="M 1959 3097 
Q 1497 3097 1228 2736 
Q 959 2375 959 1747 
Q 959 1119 1226 758 
Q 1494 397 1959 397 
Q 2419 397 2687 759 
Q 2956 1122 2956 1747 
Q 2956 2369 2687 2733 
Q 2419 3097 1959 3097 
z
M 1959 3584 
Q 2709 3584 3137 3096 
Q 3566 2609 3566 1747 
Q 3566 888 3137 398 
Q 2709 -91 1959 -91 
Q 1206 -91 779 398 
Q 353 888 353 1747 
Q 353 2609 779 3096 
Q 1206 3584 1959 3584 
z
" transform="scale(0.015625)"/>
       <path id="DejaVuSans-62" d="M 3116 1747 
Q 3116 2381 2855 2742 
Q 2594 3103 2138 3103 
Q 1681 3103 1420 2742 
Q 1159 2381 1159 1747 
Q 1159 1113 1420 752 
Q 1681 391 2138 391 
Q 2594 391 2855 752 
Q 3116 1113 3116 1747 
z
M 1159 2969 
Q 1341 3281 1617 3432 
Q 1894 3584 2278 3584 
Q 2916 3584 3314 3078 
Q 3713 2572 3713 1747 
Q 3713 922 3314 415 
Q 2916 -91 2278 -91 
Q 1894 -91 1617 61 
Q 1341 213 1159 525 
L 1159 0 
L 581 0 
L 581 4863 
L 1159 4863 
L 1159 2969 
z
" transform="scale(0.015625)"/>
       <path id="DejaVuSans-61" d="M 2194 1759 
Q 1497 1759 1228 1600 
Q 959 1441 959 1056 
Q 959 750 1161 570 
Q 1363 391 1709 391 
Q 2188 391 2477 730 
Q 2766 1069 2766 1631 
L 2766 1759 
L 2194 1759 
z
M 3341 1997 
L 3341 0 
L 2766 0 
L 2766 531 
Q 2569 213 2275 61 
Q 1981 -91 1556 -91 
Q 1019 -91 701 211 
Q 384 513 384 1019 
Q 384 1609 779 1909 
Q 1175 2209 1959 2209 
L 2766 2209 
L 2766 2266 
Q 2766 2663 2505 2880 
Q 2244 3097 1772 3097 
Q 1472 3097 1187 3025 
Q 903 2953 641 2809 
L 641 3341 
Q 956 3463 1253 3523 
Q 1550 3584 1831 3584 
Q 2591 3584 2966 3190 
Q 3341 2797 3341 1997 
z
" transform="scale(0.015625)"/>
       <path id="DejaVuSans-69" d="M 603 3500 
L 1178 3500 
L 1178 0 
L 603 0 
L 603 3500 
z
M 603 4863 
L 1178 4863 
L 1178 4134 
L 603 4134 
L 603 4863 
z
" transform="scale(0.015625)"/>
       <path id="DejaVuSans-6c" d="M 603 4863 
L 1178 4863 
L 1178 0 
L 603 0 
L 603 4863 
z
" transform="scale(0.015625)"/>
       <path id="DejaVuSans-74" d="M 1172 4494 
L 1172 3500 
L 2356 3500 
L 2356 3053 
L 1172 3053 
L 1172 1153 
Q 1172 725 1289 603 
Q 1406 481 1766 481 
L 2356 481 
L 2356 0 
L 1766 0 
Q 1100 0 847 248 
Q 594 497 594 1153 
L 594 3053 
L 172 3053 
L 172 3500 
L 594 3500 
L 594 4494 
L 1172 4494 
z
" transform="scale(0.015625)"/>
       <path id="DejaVuSans-e9" d="M 3597 1894 
L 3597 1613 
L 953 1613 
Q 991 1019 1311 708 
Q 1631 397 2203 397 
Q 2534 397 2845 478 
Q 3156 559 3463 722 
L 3463 178 
Q 3153 47 2828 -22 
Q 2503 -91 2169 -91 
Q 1331 -91 842 396 
Q 353 884 353 1716 
Q 353 2575 817 3079 
Q 1281 3584 2069 3584 
Q 2775 3584 3186 3129 
Q 3597 2675 3597 1894 
z
M 3022 2063 
Q 3016 2534 2758 2815 
Q 2500 3097 2075 3097 
Q 1594 3097 1305 2825 
Q 1016 2553 972 2059 
L 3022 2063 
z
M 2466 5119 
L 3088 5119 
L 2070 3944 
L 1591 3944 
L 2466 5119 
z
" transform="scale(0.015625)"/>
      </defs>
      <use xlink:href="#DejaVuSans-50"/>
      <use xlink:href="#DejaVuSans-72" transform="translate(58.552734 0)"/>
      <use xlink:href="#DejaVuSans-6f" transform="translate(97.416016 0)"/>
      <use xlink:href="#DejaVuSans-62" transform="translate(158.597656 0)"/>
      <use xlink:href="#DejaVuSans-61" transform="translate(222.074219 0)"/>
      <use xlink:href="#DejaVuSans-62" transform="translate(283.353516 0)"/>
      <use xlink:href="#DejaVuSans-69" transform="translate(346.830078 0)"/>
      <use xlink:href="#DejaVuSans-6c" transform="translate(374.613281 0)"/>
      <use xlink:href="#DejaVuSans-69" transform="translate(402.396484 0)"/>
      <use xlink:href="#DejaVuSans-74" transform="translate(430.179688 0)"/>
      <use xlink:href="#DejaVuSans-e9" transform="translate(469.388672 0)"/>
      <use xlink:href="#DejaVuSans-20" transform="translate(530.912109 0)"/>
      <use xlink:href="#DejaVuSans-42" transform="translate(562.699219 0)"/>
      <use xlink:href="#DejaVuSans-50" transform="translate(631.302734 0)"/>
     </g>
    </g>
   </g>
   <g id="line2d_25">
    <path d="M 48.92 102.531269 
L 63.064322 110.048375 
L 77.208643 117.311148 
L 91.352965 124.306689 
L 104.318593 130.47577 
L 117.284221 136.405846 
L 130.249849 142.092861 
L 143.215477 147.534487 
L 156.181106 152.730021 
L 169.146734 157.680263 
L 182.112362 162.387382 
L 195.07799 166.854778 
L 208.043618 171.08694 
L 221.009246 175.089303 
L 233.974874 178.868107 
L 246.940503 182.43026 
L 261.084824 186.077918 
L 275.229146 189.486844 
L 283.48 191.369361 
L 283.48 191.369361 
" clip-path="url(#p8ef0ada091)" style="fill: none; stroke: #5e81ac; stroke-width: 1.5; stroke-linecap: square"/>
   </g>
   <g id="patch_3">
    <path d="M 48.92 231.16 
L 48.92 25.92 
" style="fill: none; stroke: #434c5e; stroke-width: 0.8; stroke-linejoin: miter; stroke-linecap: square"/>
   </g>
   <g id="patch_4">
    <path d="M 283.48 231.16 
L 283.48 25.92 
" style="fill: none; stroke: #434c5e; stroke-width: 0.8; stroke-linejoin: miter; stroke-linecap: square"/>
   </g>
   <g id="patch_5">
    <path d="M 48.92 231.16 
L 283.48 231.16 
" style="fill: none; stroke: #434c5e; stroke-width: 0.8; stroke-linejoin: miter; stroke-linecap: square"/>
   </g>
   <g id="patch_6">
    <path d="M 48.92 25.92 
L 283.48 25.92 
" style="fill: none; stroke: #434c5e; stroke-width: 0.8; stroke-linejoin: miter; stroke-linecap: square"/>
   </g>
   <g id="text_15">
    <!-- Low -->
    <g style="fill: #4c566a" transform="translate(154.38375 19.92) scale(0.12 -0.12)">
     <defs>
      <path id="DejaVuSans-4c" d="M 628 4666 
L 1259 4666 
L 1259 531 
L 3531 531 
L 3531 0 
L 628 0 
L 628 4666 
z
" transform="scale(0.015625)"/>
      <path id="DejaVuSans-77" d="M 269 3500 
L 844 3500 
L 1563 769 
L 2278 3500 
L 2956 3500 
L 3675 769 
L 4391 3500 
L 4966 3500 
L 4050 0 
L 3372 0 
L 2619 2869 
L 1863 0 
L 1184 0 
L 269 3500 
z
" transform="scale(0.015625)"/>
     </defs>
     <use xlink:href="#DejaVuSans-4c"/>
     <use xlink:href="#DejaVuSans-6f" transform="translate(53.962891 0)"/>
     <use xlink:href="#DejaVuSans-77" transform="translate(115.144531 0)"/>
    </g>
   </g>
  </g>
  <g id="axes_2">
   <g id="patch_7">
    <path d="M 297.78 231.16 
L 532.34 231.16 
L 532.34 25.92 
L 297.78 25.92 
z
" style="fill: #ffffff"/>
   </g>
   <g id="FillBetweenPolyCollection_2">
    <defs>
     <path id="mc315a00655" d="M 297.78 -211.616597 
L 297.78 -148.83107 
L 298.958693 -148.473287 
L 300.137387 -148.115213 
L 301.31608 -147.756838 
L 302.494774 -147.39815 
L 303.673467 -147.039138 
L 304.852161 -146.679791 
L 306.030854 -146.320099 
L 307.209548 -145.96005 
L 308.388241 -145.599635 
L 309.566935 -145.238842 
L 310.745628 -144.877661 
L 311.924322 -144.516082 
L 313.103015 -144.154095 
L 314.281709 -143.791689 
L 315.460402 -143.428854 
L 316.639095 -143.065582 
L 317.817789 -142.701862 
L 318.996482 -142.337684 
L 320.175176 -141.973041 
L 321.353869 -141.607922 
L 322.532563 -141.242318 
L 323.711256 -140.876222 
L 324.88995 -140.509624 
L 326.068643 -140.142517 
L 327.247337 -139.774892 
L 328.42603 -139.406742 
L 329.604724 -139.038059 
L 330.783417 -138.668837 
L 331.962111 -138.299067 
L 333.140804 -137.928744 
L 334.319497 -137.557862 
L 335.498191 -137.186414 
L 336.676884 -136.814394 
L 337.855578 -136.441798 
L 339.034271 -136.06862 
L 340.212965 -135.694856 
L 341.391658 -135.320501 
L 342.570352 -134.945552 
L 343.749045 -134.570005 
L 344.927739 -134.193857 
L 346.106432 -133.817105 
L 347.285126 -133.439747 
L 348.463819 -133.061782 
L 349.642513 -132.683208 
L 350.821206 -132.304023 
L 351.999899 -131.924228 
L 353.178593 -131.543823 
L 354.357286 -131.162808 
L 355.53598 -130.781184 
L 356.714673 -130.398953 
L 357.893367 -130.016116 
L 359.07206 -129.632677 
L 360.250754 -129.248638 
L 361.429447 -128.864003 
L 362.608141 -128.478776 
L 363.786834 -128.092961 
L 364.965528 -127.706565 
L 366.144221 -127.319592 
L 367.322915 -126.93205 
L 368.501608 -126.543944 
L 369.680302 -126.155283 
L 370.858995 -125.766074 
L 372.037688 -125.376327 
L 373.216382 -124.98605 
L 374.395075 -124.595253 
L 375.573769 -124.203947 
L 376.752462 -123.812141 
L 377.931156 -123.419849 
L 379.109849 -123.027081 
L 380.288543 -122.633851 
L 381.467236 -122.240171 
L 382.64593 -121.846056 
L 383.824623 -121.451519 
L 385.003317 -121.056575 
L 386.18201 -120.661239 
L 387.360704 -120.265528 
L 388.539397 -119.869457 
L 389.71809 -119.473044 
L 390.896784 -119.076306 
L 392.075477 -118.67926 
L 393.254171 -118.281925 
L 394.432864 -117.884319 
L 395.611558 -117.486463 
L 396.790251 -117.088375 
L 397.968945 -116.690075 
L 399.147638 -116.291584 
L 400.326332 -115.892922 
L 401.505025 -115.494112 
L 402.683719 -115.095174 
L 403.862412 -114.69613 
L 405.041106 -114.297003 
L 406.219799 -113.897815 
L 407.398492 -113.498588 
L 408.577186 -113.099347 
L 409.755879 -112.700113 
L 410.934573 -112.300912 
L 412.113266 -111.901766 
L 413.29196 -111.502699 
L 414.470653 -111.103737 
L 415.649347 -110.704902 
L 416.82804 -110.30622 
L 418.006734 -109.907715 
L 419.185427 -109.509412 
L 420.364121 -109.111335 
L 421.542814 -108.71351 
L 422.721508 -108.315962 
L 423.900201 -107.918714 
L 425.078894 -107.521793 
L 426.257588 -107.125224 
L 427.436281 -106.72903 
L 428.614975 -106.333238 
L 429.793668 -105.937872 
L 430.972362 -105.542957 
L 432.151055 -105.148518 
L 433.329749 -104.754579 
L 434.508442 -104.361165 
L 435.687136 -103.9683 
L 436.865829 -103.576009 
L 438.044523 -103.184315 
L 439.223216 -102.793244 
L 440.40191 -102.402818 
L 441.580603 -102.013061 
L 442.759296 -101.623996 
L 443.93799 -101.235648 
L 445.116683 -100.848038 
L 446.295377 -100.461189 
L 447.47407 -100.075125 
L 448.652764 -99.689867 
L 449.831457 -99.305438 
L 451.010151 -98.921859 
L 452.188844 -98.539151 
L 453.367538 -98.157336 
L 454.546231 -97.776435 
L 455.724925 -97.396468 
L 456.903618 -97.017456 
L 458.082312 -96.639418 
L 459.261005 -96.262375 
L 460.439698 -95.886345 
L 461.618392 -95.511349 
L 462.797085 -95.137404 
L 463.975779 -94.764529 
L 465.154472 -94.392742 
L 466.333166 -94.022061 
L 467.511859 -93.652503 
L 468.690553 -93.284086 
L 469.869246 -92.916826 
L 471.04794 -92.550739 
L 472.226633 -92.185842 
L 473.405327 -91.82215 
L 474.58402 -91.459679 
L 475.762714 -91.098444 
L 476.941407 -90.73846 
L 478.120101 -90.37974 
L 479.298794 -90.022299 
L 480.477487 -89.666151 
L 481.656181 -89.311309 
L 482.834874 -88.957785 
L 484.013568 -88.605594 
L 485.192261 -88.254746 
L 486.370955 -87.905254 
L 487.549648 -87.55713 
L 488.728342 -87.210384 
L 489.907035 -86.865029 
L 491.085729 -86.521074 
L 492.264422 -86.178531 
L 493.443116 -85.837408 
L 494.621809 -85.497716 
L 495.800503 -85.159465 
L 496.979196 -84.822662 
L 498.157889 -84.487318 
L 499.336583 -84.153441 
L 500.515276 -83.821038 
L 501.69397 -83.490118 
L 502.872663 -83.160688 
L 504.051357 -82.832756 
L 505.23005 -82.506329 
L 506.408744 -82.181413 
L 507.587437 -81.858015 
L 508.766131 -81.536141 
L 509.944824 -81.215796 
L 511.123518 -80.896988 
L 512.302211 -80.57972 
L 513.480905 -80.263998 
L 514.659598 -79.949827 
L 515.838291 -79.637212 
L 517.016985 -79.326157 
L 518.195678 -79.016665 
L 519.374372 -78.708741 
L 520.553065 -78.402389 
L 521.731759 -78.097611 
L 522.910452 -77.794412 
L 524.089146 -77.492793 
L 525.267839 -77.192758 
L 526.446533 -76.894308 
L 527.625226 -76.597447 
L 528.80392 -76.302177 
L 529.982613 -76.008498 
L 531.161307 -75.716413 
L 532.34 -75.425923 
L 532.34 -115.617696 
L 532.34 -115.617696 
L 531.161307 -115.901492 
L 529.982613 -116.186295 
L 528.80392 -116.472111 
L 527.625226 -116.758948 
L 526.446533 -117.046816 
L 525.267839 -117.335722 
L 524.089146 -117.625675 
L 522.910452 -117.916684 
L 521.731759 -118.208756 
L 520.553065 -118.501903 
L 519.374372 -118.796131 
L 518.195678 -119.091452 
L 517.016985 -119.387875 
L 515.838291 -119.685409 
L 514.659598 -119.984065 
L 513.480905 -120.283852 
L 512.302211 -120.584782 
L 511.123518 -120.886864 
L 509.944824 -121.190109 
L 508.766131 -121.494529 
L 507.587437 -121.800135 
L 506.408744 -122.106938 
L 505.23005 -122.414949 
L 504.051357 -122.724182 
L 502.872663 -123.034647 
L 501.69397 -123.346357 
L 500.515276 -123.659325 
L 499.336583 -123.973563 
L 498.157889 -124.289085 
L 496.979196 -124.605903 
L 495.800503 -124.924032 
L 494.621809 -125.243484 
L 493.443116 -125.564275 
L 492.264422 -125.886418 
L 491.085729 -126.209927 
L 489.907035 -126.534818 
L 488.728342 -126.861106 
L 487.549648 -127.188805 
L 486.370955 -127.517931 
L 485.192261 -127.8485 
L 484.013568 -128.180528 
L 482.834874 -128.514032 
L 481.656181 -128.849027 
L 480.477487 -129.185531 
L 479.298794 -129.52356 
L 478.120101 -129.863132 
L 476.941407 -130.204265 
L 475.762714 -130.546977 
L 474.58402 -130.891285 
L 473.405327 -131.237208 
L 472.226633 -131.584765 
L 471.04794 -131.933974 
L 469.869246 -132.284856 
L 468.690553 -132.637428 
L 467.511859 -132.991712 
L 466.333166 -133.347726 
L 465.154472 -133.705492 
L 463.975779 -134.065029 
L 462.797085 -134.426359 
L 461.618392 -134.789502 
L 460.439698 -135.15448 
L 459.261005 -135.521314 
L 458.082312 -135.890026 
L 456.903618 -136.260638 
L 455.724925 -136.633171 
L 454.546231 -137.007649 
L 453.367538 -137.384094 
L 452.188844 -137.762528 
L 451.010151 -138.142975 
L 449.831457 -138.525458 
L 448.652764 -138.910001 
L 447.47407 -139.296626 
L 446.295377 -139.685358 
L 445.116683 -140.076221 
L 443.93799 -140.469238 
L 442.759296 -140.864435 
L 441.580603 -141.261834 
L 440.40191 -141.661461 
L 439.223216 -142.06334 
L 438.044523 -142.467497 
L 436.865829 -142.873954 
L 435.687136 -143.282739 
L 434.508442 -143.693875 
L 433.329749 -144.107387 
L 432.151055 -144.5233 
L 430.972362 -144.94164 
L 429.793668 -145.362431 
L 428.614975 -145.785698 
L 427.436281 -146.211466 
L 426.257588 -146.639761 
L 425.078894 -147.070607 
L 423.900201 -147.504028 
L 422.721508 -147.94005 
L 421.542814 -148.378696 
L 420.364121 -148.819993 
L 419.185427 -149.263963 
L 418.006734 -149.71063 
L 416.82804 -150.16002 
L 415.649347 -150.612155 
L 414.470653 -151.067059 
L 413.29196 -151.524756 
L 412.113266 -151.985268 
L 410.934573 -152.448618 
L 409.755879 -152.914828 
L 408.577186 -153.383921 
L 407.398492 -153.855919 
L 406.219799 -154.330843 
L 405.041106 -154.808713 
L 403.862412 -155.289551 
L 402.683719 -155.773378 
L 401.505025 -156.260211 
L 400.326332 -156.750073 
L 399.147638 -157.24298 
L 397.968945 -157.738952 
L 396.790251 -158.238006 
L 395.611558 -158.740161 
L 394.432864 -159.245432 
L 393.254171 -159.753837 
L 392.075477 -160.265391 
L 390.896784 -160.780109 
L 389.71809 -161.298007 
L 388.539397 -161.819097 
L 387.360704 -162.343395 
L 386.18201 -162.870912 
L 385.003317 -163.401661 
L 383.824623 -163.935653 
L 382.64593 -164.4729 
L 381.467236 -165.013411 
L 380.288543 -165.557197 
L 379.109849 -166.104266 
L 377.931156 -166.654626 
L 376.752462 -167.208286 
L 375.573769 -167.765251 
L 374.395075 -168.325528 
L 373.216382 -168.889124 
L 372.037688 -169.456041 
L 370.858995 -170.026286 
L 369.680302 -170.59986 
L 368.501608 -171.176767 
L 367.322915 -171.757008 
L 366.144221 -172.340586 
L 364.965528 -172.9275 
L 363.786834 -173.51775 
L 362.608141 -174.111336 
L 361.429447 -174.708257 
L 360.250754 -175.308509 
L 359.07206 -175.912091 
L 357.893367 -176.518998 
L 356.714673 -177.129227 
L 355.53598 -177.742772 
L 354.357286 -178.359629 
L 353.178593 -178.97979 
L 351.999899 -179.60325 
L 350.821206 -180.230001 
L 349.642513 -180.860034 
L 348.463819 -181.493341 
L 347.285126 -182.129913 
L 346.106432 -182.769741 
L 344.927739 -183.412813 
L 343.749045 -184.059118 
L 342.570352 -184.708646 
L 341.391658 -185.361384 
L 340.212965 -186.017318 
L 339.034271 -186.676438 
L 337.855578 -187.338727 
L 336.676884 -188.004173 
L 335.498191 -188.67276 
L 334.319497 -189.344474 
L 333.140804 -190.019299 
L 331.962111 -190.697218 
L 330.783417 -191.378215 
L 329.604724 -192.062273 
L 328.42603 -192.749376 
L 327.247337 -193.439503 
L 326.068643 -194.132639 
L 324.88995 -194.828763 
L 323.711256 -195.527858 
L 322.532563 -196.229902 
L 321.353869 -196.934878 
L 320.175176 -197.642764 
L 318.996482 -198.35354 
L 317.817789 -199.067186 
L 316.639095 -199.78368 
L 315.460402 -200.503 
L 314.281709 -201.225126 
L 313.103015 -201.950035 
L 311.924322 -202.677704 
L 310.745628 -203.408112 
L 309.566935 -204.141235 
L 308.388241 -204.87705 
L 307.209548 -205.615533 
L 306.030854 -206.356662 
L 304.852161 -207.100413 
L 303.673467 -207.84676 
L 302.494774 -208.59568 
L 301.31608 -209.347149 
L 300.137387 -210.101141 
L 298.958693 -210.857632 
L 297.78 -211.616597 
z
" style="stroke: #d08770; stroke-opacity: 0.15"/>
    </defs>
    <g clip-path="url(#pe59e6383f6)">
     <use xlink:href="#mc315a00655" x="0" y="273.6" style="fill: #d08770; fill-opacity: 0.15; stroke: #d08770; stroke-opacity: 0.15"/>
    </g>
   </g>
   <g id="matplotlib.axis_3">
    <g id="xtick_7">
     <g id="line2d_26">
      <path d="M 315.154815 231.16 
L 315.154815 25.92 
" clip-path="url(#pe59e6383f6)" style="fill: none; stroke: #d8dee9; stroke-opacity: 0.4; stroke-width: 0.8; stroke-linecap: square"/>
     </g>
     <g id="line2d_27">
      <g>
       <use xlink:href="#mc7350df323" x="315.154815" y="231.16" style="fill: #434c5e; stroke: #434c5e; stroke-width: 0.8"/>
      </g>
     </g>
     <g id="text_16">
      <!-- 20 -->
      <g style="fill: #434c5e" transform="translate(308.156065 246.518281) scale(0.11 -0.11)">
       <use xlink:href="#DejaVuSans-32"/>
       <use xlink:href="#DejaVuSans-30" transform="translate(63.623047 0)"/>
      </g>
     </g>
    </g>
    <g id="xtick_8">
     <g id="line2d_28">
      <path d="M 358.591852 231.16 
L 358.591852 25.92 
" clip-path="url(#pe59e6383f6)" style="fill: none; stroke: #d8dee9; stroke-opacity: 0.4; stroke-width: 0.8; stroke-linecap: square"/>
     </g>
     <g id="line2d_29">
      <g>
       <use xlink:href="#mc7350df323" x="358.591852" y="231.16" style="fill: #434c5e; stroke: #434c5e; stroke-width: 0.8"/>
      </g>
     </g>
     <g id="text_17">
      <!-- 25 -->
      <g style="fill: #434c5e" transform="translate(351.593102 246.518281) scale(0.11 -0.11)">
       <use xlink:href="#DejaVuSans-32"/>
       <use xlink:href="#DejaVuSans-35" transform="translate(63.623047 0)"/>
      </g>
     </g>
    </g>
    <g id="xtick_9">
     <g id="line2d_30">
      <path d="M 402.028889 231.16 
L 402.028889 25.92 
" clip-path="url(#pe59e6383f6)" style="fill: none; stroke: #d8dee9; stroke-opacity: 0.4; stroke-width: 0.8; stroke-linecap: square"/>
     </g>
     <g id="line2d_31">
      <g>
       <use xlink:href="#mc7350df323" x="402.028889" y="231.16" style="fill: #434c5e; stroke: #434c5e; stroke-width: 0.8"/>
      </g>
     </g>
     <g id="text_18">
      <!-- 30 -->
      <g style="fill: #434c5e" transform="translate(395.030139 246.518281) scale(0.11 -0.11)">
       <use xlink:href="#DejaVuSans-33"/>
       <use xlink:href="#DejaVuSans-30" transform="translate(63.623047 0)"/>
      </g>
     </g>
    </g>
    <g id="xtick_10">
     <g id="line2d_32">
      <path d="M 445.465926 231.16 
L 445.465926 25.92 
" clip-path="url(#pe59e6383f6)" style="fill: none; stroke: #d8dee9; stroke-opacity: 0.4; stroke-width: 0.8; stroke-linecap: square"/>
     </g>
     <g id="line2d_33">
      <g>
       <use xlink:href="#mc7350df323" x="445.465926" y="231.16" style="fill: #434c5e; stroke: #434c5e; stroke-width: 0.8"/>
      </g>
     </g>
     <g id="text_19">
      <!-- 35 -->
      <g style="fill: #434c5e" transform="translate(438.467176 246.518281) scale(0.11 -0.11)">
       <use xlink:href="#DejaVuSans-33"/>
       <use xlink:href="#DejaVuSans-35" transform="translate(63.623047 0)"/>
      </g>
     </g>
    </g>
    <g id="xtick_11">
     <g id="line2d_34">
      <path d="M 488.902963 231.16 
L 488.902963 25.92 
" clip-path="url(#pe59e6383f6)" style="fill: none; stroke: #d8dee9; stroke-opacity: 0.4; stroke-width: 0.8; stroke-linecap: square"/>
     </g>
     <g id="line2d_35">
      <g>
       <use xlink:href="#mc7350df323" x="488.902963" y="231.16" style="fill: #434c5e; stroke: #434c5e; stroke-width: 0.8"/>
      </g>
     </g>
     <g id="text_20">
      <!-- 40 -->
      <g style="fill: #434c5e" transform="translate(481.904213 246.518281) scale(0.11 -0.11)">
       <use xlink:href="#DejaVuSans-34"/>
       <use xlink:href="#DejaVuSans-30" transform="translate(63.623047 0)"/>
      </g>
     </g>
    </g>
    <g id="xtick_12">
     <g id="line2d_36">
      <path d="M 532.34 231.16 
L 532.34 25.92 
" clip-path="url(#pe59e6383f6)" style="fill: none; stroke: #d8dee9; stroke-opacity: 0.4; stroke-width: 0.8; stroke-linecap: square"/>
     </g>
     <g id="line2d_37">
      <g>
       <use xlink:href="#mc7350df323" x="532.34" y="231.16" style="fill: #434c5e; stroke: #434c5e; stroke-width: 0.8"/>
      </g>
     </g>
     <g id="text_21">
      <!-- 45 -->
      <g style="fill: #434c5e" transform="translate(525.34125 246.518281) scale(0.11 -0.11)">
       <use xlink:href="#DejaVuSans-34"/>
       <use xlink:href="#DejaVuSans-35" transform="translate(63.623047 0)"/>
      </g>
     </g>
    </g>
    <g id="text_22">
     <!-- BMI (kg/m²) -->
     <g style="fill: #434c5e" transform="translate(385.720937 260.404375) scale(0.1 -0.1)">
      <use xlink:href="#DejaVuSans-42"/>
      <use xlink:href="#DejaVuSans-4d" transform="translate(68.603516 0)"/>
      <use xlink:href="#DejaVuSans-49" transform="translate(154.882812 0)"/>
      <use xlink:href="#DejaVuSans-20" transform="translate(184.375 0)"/>
      <use xlink:href="#DejaVuSans-28" transform="translate(216.162109 0)"/>
      <use xlink:href="#DejaVuSans-6b" transform="translate(255.175781 0)"/>
      <use xlink:href="#DejaVuSans-67" transform="translate(313.085938 0)"/>
      <use xlink:href="#DejaVuSans-2f" transform="translate(376.5625 0)"/>
      <use xlink:href="#DejaVuSans-6d" transform="translate(410.253906 0)"/>
      <use xlink:href="#DejaVuSans-b2" transform="translate(507.666016 0)"/>
      <use xlink:href="#DejaVuSans-29" transform="translate(547.753906 0)"/>
     </g>
    </g>
   </g>
   <g id="matplotlib.axis_4">
    <g id="ytick_7">
     <g id="line2d_38">
      <path d="M 297.78 231.16 
L 532.34 231.16 
" clip-path="url(#pe59e6383f6)" style="fill: none; stroke: #d8dee9; stroke-opacity: 0.4; stroke-width: 0.8; stroke-linecap: square"/>
     </g>
     <g id="line2d_39">
      <g>
       <use xlink:href="#m01e8f97951" x="297.78" y="231.16" style="fill: #434c5e; stroke: #434c5e; stroke-width: 0.8"/>
      </g>
     </g>
    </g>
    <g id="ytick_8">
     <g id="line2d_40">
      <path d="M 297.78 190.112 
L 532.34 190.112 
" clip-path="url(#pe59e6383f6)" style="fill: none; stroke: #d8dee9; stroke-opacity: 0.4; stroke-width: 0.8; stroke-linecap: square"/>
     </g>
     <g id="line2d_41">
      <g>
       <use xlink:href="#m01e8f97951" x="297.78" y="190.112" style="fill: #434c5e; stroke: #434c5e; stroke-width: 0.8"/>
      </g>
     </g>
    </g>
    <g id="ytick_9">
     <g id="line2d_42">
      <path d="M 297.78 149.064 
L 532.34 149.064 
" clip-path="url(#pe59e6383f6)" style="fill: none; stroke: #d8dee9; stroke-opacity: 0.4; stroke-width: 0.8; stroke-linecap: square"/>
     </g>
     <g id="line2d_43">
      <g>
       <use xlink:href="#m01e8f97951" x="297.78" y="149.064" style="fill: #434c5e; stroke: #434c5e; stroke-width: 0.8"/>
      </g>
     </g>
    </g>
    <g id="ytick_10">
     <g id="line2d_44">
      <path d="M 297.78 108.016 
L 532.34 108.016 
" clip-path="url(#pe59e6383f6)" style="fill: none; stroke: #d8dee9; stroke-opacity: 0.4; stroke-width: 0.8; stroke-linecap: square"/>
     </g>
     <g id="line2d_45">
      <g>
       <use xlink:href="#m01e8f97951" x="297.78" y="108.016" style="fill: #434c5e; stroke: #434c5e; stroke-width: 0.8"/>
      </g>
     </g>
    </g>
    <g id="ytick_11">
     <g id="line2d_46">
      <path d="M 297.78 66.968 
L 532.34 66.968 
" clip-path="url(#pe59e6383f6)" style="fill: none; stroke: #d8dee9; stroke-opacity: 0.4; stroke-width: 0.8; stroke-linecap: square"/>
     </g>
     <g id="line2d_47">
      <g>
       <use xlink:href="#m01e8f97951" x="297.78" y="66.968" style="fill: #434c5e; stroke: #434c5e; stroke-width: 0.8"/>
      </g>
     </g>
    </g>
    <g id="ytick_12">
     <g id="line2d_48">
      <path d="M 297.78 25.92 
L 532.34 25.92 
" clip-path="url(#pe59e6383f6)" style="fill: none; stroke: #d8dee9; stroke-opacity: 0.4; stroke-width: 0.8; stroke-linecap: square"/>
     </g>
     <g id="line2d_49">
      <g>
       <use xlink:href="#m01e8f97951" x="297.78" y="25.92" style="fill: #434c5e; stroke: #434c5e; stroke-width: 0.8"/>
      </g>
     </g>
    </g>
   </g>
   <g id="line2d_50">
    <path d="M 297.78 93.376167 
L 315.460402 101.634073 
L 331.962111 109.101857 
L 348.463819 116.322438 
L 363.786834 122.794644 
L 379.109849 129.034326 
L 394.432864 135.035124 
L 409.755879 140.792529 
L 425.078894 146.3038 
L 440.40191 151.567861 
L 455.724925 156.585181 
L 471.04794 161.357643 
L 486.370955 165.888408 
L 501.69397 170.181763 
L 517.016985 174.242984 
L 532.34 178.078191 
L 532.34 178.078191 
" clip-path="url(#pe59e6383f6)" style="fill: none; stroke: #d08770; stroke-width: 1.5; stroke-linecap: square"/>
   </g>
   <g id="patch_8">
    <path d="M 297.78 231.16 
L 297.78 25.92 
" style="fill: none; stroke: #434c5e; stroke-width: 0.8; stroke-linejoin: miter; stroke-linecap: square"/>
   </g>
   <g id="patch_9">
    <path d="M 532.34 231.16 
L 532.34 25.92 
" style="fill: none; stroke: #434c5e; stroke-width: 0.8; stroke-linejoin: miter; stroke-linecap: square"/>
   </g>
   <g id="patch_10">
    <path d="M 297.78 231.16 
L 532.34 231.16 
" style="fill: none; stroke: #434c5e; stroke-width: 0.8; stroke-linejoin: miter; stroke-linecap: square"/>
   </g>
   <g id="patch_11">
    <path d="M 297.78 25.92 
L 532.34 25.92 
" style="fill: none; stroke: #434c5e; stroke-width: 0.8; stroke-linejoin: miter; stroke-linecap: square"/>
   </g>
   <g id="text_23">
    <!-- Mid -->
    <g style="fill: #4c566a" transform="translate(404.407188 19.92) scale(0.12 -0.12)">
     <defs>
      <path id="DejaVuSans-64" d="M 2906 2969 
L 2906 4863 
L 3481 4863 
L 3481 0 
L 2906 0 
L 2906 525 
Q 2725 213 2448 61 
Q 2172 -91 1784 -91 
Q 1150 -91 751 415 
Q 353 922 353 1747 
Q 353 2572 751 3078 
Q 1150 3584 1784 3584 
Q 2172 3584 2448 3432 
Q 2725 3281 2906 2969 
z
M 947 1747 
Q 947 1113 1208 752 
Q 1469 391 1925 391 
Q 2381 391 2643 752 
Q 2906 1113 2906 1747 
Q 2906 2381 2643 2742 
Q 2381 3103 1925 3103 
Q 1469 3103 1208 2742 
Q 947 2381 947 1747 
z
" transform="scale(0.015625)"/>
     </defs>
     <use xlink:href="#DejaVuSans-4d"/>
     <use xlink:href="#DejaVuSans-69" transform="translate(86.279297 0)"/>
     <use xlink:href="#DejaVuSans-64" transform="translate(114.0625 0)"/>
    </g>
   </g>
  </g>
  <g id="axes_3">
   <g id="patch_12">
    <path d="M 546.64 231.16 
L 781.2 231.16 
L 781.2 25.92 
L 546.64 25.92 
z
" style="fill: #ffffff"/>
   </g>
   <g id="FillBetweenPolyCollection_3">
    <defs>
     <path id="m966a6c2209" d="M 546.64 -276.940444 
L 546.64 -165.029135 
L 547.818693 -164.952021 
L 548.997387 -164.873959 
L 550.17608 -164.794945 
L 551.354774 -164.714977 
L 552.533467 -164.634052 
L 553.712161 -164.552165 
L 554.890854 -164.469315 
L 556.069548 -164.385499 
L 557.248241 -164.300712 
L 558.426935 -164.214953 
L 559.605628 -164.128218 
L 560.784322 -164.040505 
L 561.963015 -163.951811 
L 563.141709 -163.862132 
L 564.320402 -163.771468 
L 565.499095 -163.679814 
L 566.677789 -163.587169 
L 567.856482 -163.49353 
L 569.035176 -163.398895 
L 570.213869 -163.30326 
L 571.392563 -163.206625 
L 572.571256 -163.108986 
L 573.74995 -163.010342 
L 574.928643 -162.910691 
L 576.107337 -162.81003 
L 577.28603 -162.708357 
L 578.464724 -162.605671 
L 579.643417 -162.50197 
L 580.822111 -162.397252 
L 582.000804 -162.291515 
L 583.179497 -162.184758 
L 584.358191 -162.076979 
L 585.536884 -161.968176 
L 586.715578 -161.858349 
L 587.894271 -161.747496 
L 589.072965 -161.635616 
L 590.251658 -161.522706 
L 591.430352 -161.408768 
L 592.609045 -161.293798 
L 593.787739 -161.177797 
L 594.966432 -161.060763 
L 596.145126 -160.942696 
L 597.323819 -160.823595 
L 598.502513 -160.703458 
L 599.681206 -160.582287 
L 600.859899 -160.460079 
L 602.038593 -160.336835 
L 603.217286 -160.212554 
L 604.39598 -160.087236 
L 605.574673 -159.960881 
L 606.753367 -159.833489 
L 607.93206 -159.705059 
L 609.110754 -159.575591 
L 610.289447 -159.445087 
L 611.468141 -159.313545 
L 612.646834 -159.180966 
L 613.825528 -159.047351 
L 615.004221 -158.912699 
L 616.182915 -158.777013 
L 617.361608 -158.640291 
L 618.540302 -158.502534 
L 619.718995 -158.363744 
L 620.897688 -158.223922 
L 622.076382 -158.083067 
L 623.255075 -157.941181 
L 624.433769 -157.798266 
L 625.612462 -157.654322 
L 626.791156 -157.50935 
L 627.969849 -157.363353 
L 629.148543 -157.21633 
L 630.327236 -157.068284 
L 631.50593 -156.919216 
L 632.684623 -156.769128 
L 633.863317 -156.618022 
L 635.04201 -156.465898 
L 636.220704 -156.31276 
L 637.399397 -156.158609 
L 638.57809 -156.003446 
L 639.756784 -155.847275 
L 640.935477 -155.690097 
L 642.114171 -155.531914 
L 643.292864 -155.372729 
L 644.471558 -155.212545 
L 645.650251 -155.051362 
L 646.828945 -154.889185 
L 648.007638 -154.726016 
L 649.186332 -154.561856 
L 650.365025 -154.39671 
L 651.543719 -154.23058 
L 652.722412 -154.063468 
L 653.901106 -153.895378 
L 655.079799 -153.726313 
L 656.258492 -153.556276 
L 657.437186 -153.385269 
L 658.615879 -153.213297 
L 659.794573 -153.040361 
L 660.973266 -152.866467 
L 662.15196 -152.691617 
L 663.330653 -152.515814 
L 664.509347 -152.339063 
L 665.68804 -152.161367 
L 666.866734 -151.982728 
L 668.045427 -151.803152 
L 669.224121 -151.622642 
L 670.402814 -151.441202 
L 671.581508 -151.258835 
L 672.760201 -151.075546 
L 673.938894 -150.891339 
L 675.117588 -150.706217 
L 676.296281 -150.520185 
L 677.474975 -150.333247 
L 678.653668 -150.145407 
L 679.832362 -149.95667 
L 681.011055 -149.767039 
L 682.189749 -149.57652 
L 683.368442 -149.385116 
L 684.547136 -149.192832 
L 685.725829 -148.999673 
L 686.904523 -148.805643 
L 688.083216 -148.610746 
L 689.26191 -148.414988 
L 690.440603 -148.218373 
L 691.619296 -148.020906 
L 692.79799 -147.822591 
L 693.976683 -147.623434 
L 695.155377 -147.423439 
L 696.33407 -147.222611 
L 697.512764 -147.020956 
L 698.691457 -146.818477 
L 699.870151 -146.61518 
L 701.048844 -146.41107 
L 702.227538 -146.206153 
L 703.406231 -146.000432 
L 704.584925 -145.793914 
L 705.763618 -145.586603 
L 706.942312 -145.378505 
L 708.121005 -145.169625 
L 709.299698 -144.959968 
L 710.478392 -144.749539 
L 711.657085 -144.538344 
L 712.835779 -144.326388 
L 714.014472 -144.113676 
L 715.193166 -143.900214 
L 716.371859 -143.686007 
L 717.550553 -143.47106 
L 718.729246 -143.255379 
L 719.90794 -143.03897 
L 721.086633 -142.821837 
L 722.265327 -142.603986 
L 723.44402 -142.385423 
L 724.622714 -142.166153 
L 725.801407 -141.946182 
L 726.980101 -141.725514 
L 728.158794 -141.504157 
L 729.337487 -141.282115 
L 730.516181 -141.059394 
L 731.694874 -140.835999 
L 732.873568 -140.611936 
L 734.052261 -140.387211 
L 735.230955 -140.161829 
L 736.409648 -139.935795 
L 737.588342 -139.709116 
L 738.767035 -139.481797 
L 739.945729 -139.253843 
L 741.124422 -139.025261 
L 742.303116 -138.796055 
L 743.481809 -138.566232 
L 744.660503 -138.335797 
L 745.839196 -138.104755 
L 747.017889 -137.873113 
L 748.196583 -137.640875 
L 749.375276 -137.408048 
L 750.55397 -137.174637 
L 751.732663 -136.940648 
L 752.911357 -136.706086 
L 754.09005 -136.470957 
L 755.268744 -136.235266 
L 756.447437 -135.999019 
L 757.626131 -135.762223 
L 758.804824 -135.524881 
L 759.983518 -135.287 
L 761.162211 -135.048586 
L 762.340905 -134.809643 
L 763.519598 -134.570178 
L 764.698291 -134.330196 
L 765.876985 -134.089702 
L 767.055678 -133.848702 
L 768.234372 -133.607202 
L 769.413065 -133.365207 
L 770.591759 -133.122722 
L 771.770452 -132.879754 
L 772.949146 -132.636306 
L 774.127839 -132.392386 
L 775.306533 -132.147997 
L 776.485226 -131.903147 
L 777.66392 -131.657839 
L 778.842613 -131.41208 
L 780.021307 -131.165874 
L 781.2 -130.919228 
L 781.2 -249.877572 
L 781.2 -249.877572 
L 780.021307 -249.927904 
L 778.842613 -249.978802 
L 777.66392 -250.03027 
L 776.485226 -250.082315 
L 775.306533 -250.134942 
L 774.127839 -250.188154 
L 772.949146 -250.241958 
L 771.770452 -250.296359 
L 770.591759 -250.351361 
L 769.413065 -250.406971 
L 768.234372 -250.463192 
L 767.055678 -250.520031 
L 765.876985 -250.577492 
L 764.698291 -250.635581 
L 763.519598 -250.694303 
L 762.340905 -250.753663 
L 761.162211 -250.813667 
L 759.983518 -250.874319 
L 758.804824 -250.935626 
L 757.626131 -250.997591 
L 756.447437 -251.060221 
L 755.268744 -251.123521 
L 754.09005 -251.187496 
L 752.911357 -251.252151 
L 751.732663 -251.317492 
L 750.55397 -251.383524 
L 749.375276 -251.450252 
L 748.196583 -251.517682 
L 747.017889 -251.585819 
L 745.839196 -251.654668 
L 744.660503 -251.724234 
L 743.481809 -251.794524 
L 742.303116 -251.865541 
L 741.124422 -251.937293 
L 739.945729 -252.009783 
L 738.767035 -252.083017 
L 737.588342 -252.157001 
L 736.409648 -252.23174 
L 735.230955 -252.307238 
L 734.052261 -252.383503 
L 732.873568 -252.460537 
L 731.694874 -252.538348 
L 730.516181 -252.616941 
L 729.337487 -252.696319 
L 728.158794 -252.77649 
L 726.980101 -252.857458 
L 725.801407 -252.939228 
L 724.622714 -253.021805 
L 723.44402 -253.105196 
L 722.265327 -253.189404 
L 721.086633 -253.274436 
L 719.90794 -253.360296 
L 718.729246 -253.44699 
L 717.550553 -253.534522 
L 716.371859 -253.622898 
L 715.193166 -253.712123 
L 714.014472 -253.802202 
L 712.835779 -253.89314 
L 711.657085 -253.984942 
L 710.478392 -254.077613 
L 709.299698 -254.171159 
L 708.121005 -254.265584 
L 706.942312 -254.360893 
L 705.763618 -254.45709 
L 704.584925 -254.554182 
L 703.406231 -254.652173 
L 702.227538 -254.751067 
L 701.048844 -254.85087 
L 699.870151 -254.951585 
L 698.691457 -255.053219 
L 697.512764 -255.155776 
L 696.33407 -255.25926 
L 695.155377 -255.363676 
L 693.976683 -255.469029 
L 692.79799 -255.575323 
L 691.619296 -255.682562 
L 690.440603 -255.790752 
L 689.26191 -255.899897 
L 688.083216 -256.010001 
L 686.904523 -256.121068 
L 685.725829 -256.233103 
L 684.547136 -256.346111 
L 683.368442 -256.460094 
L 682.189749 -256.575059 
L 681.011055 -256.691008 
L 679.832362 -256.807946 
L 678.653668 -256.925876 
L 677.474975 -257.044804 
L 676.296281 -257.164732 
L 675.117588 -257.285666 
L 673.938894 -257.407607 
L 672.760201 -257.530562 
L 671.581508 -257.654532 
L 670.402814 -257.779522 
L 669.224121 -257.905536 
L 668.045427 -258.032577 
L 666.866734 -258.160648 
L 665.68804 -258.289753 
L 664.509347 -258.419896 
L 663.330653 -258.551079 
L 662.15196 -258.683306 
L 660.973266 -258.816581 
L 659.794573 -258.950906 
L 658.615879 -259.086284 
L 657.437186 -259.222719 
L 656.258492 -259.360213 
L 655.079799 -259.49877 
L 653.901106 -259.638392 
L 652.722412 -259.779081 
L 651.543719 -259.920841 
L 650.365025 -260.063675 
L 649.186332 -260.207584 
L 648.007638 -260.352571 
L 646.828945 -260.498639 
L 645.650251 -260.64579 
L 644.471558 -260.794026 
L 643.292864 -260.943349 
L 642.114171 -261.093762 
L 640.935477 -261.245267 
L 639.756784 -261.397865 
L 638.57809 -261.551558 
L 637.399397 -261.706349 
L 636.220704 -261.862238 
L 635.04201 -262.019229 
L 633.863317 -262.177321 
L 632.684623 -262.336517 
L 631.50593 -262.496818 
L 630.327236 -262.658226 
L 629.148543 -262.820741 
L 627.969849 -262.984366 
L 626.791156 -263.149101 
L 625.612462 -263.314946 
L 624.433769 -263.481904 
L 623.255075 -263.649975 
L 622.076382 -263.819159 
L 620.897688 -263.989458 
L 619.718995 -264.160873 
L 618.540302 -264.333402 
L 617.361608 -264.507049 
L 616.182915 -264.681811 
L 615.004221 -264.857691 
L 613.825528 -265.034687 
L 612.646834 -265.212801 
L 611.468141 -265.392033 
L 610.289447 -265.572382 
L 609.110754 -265.753848 
L 607.93206 -265.936431 
L 606.753367 -266.120131 
L 605.574673 -266.304948 
L 604.39598 -266.490881 
L 603.217286 -266.67793 
L 602.038593 -266.866094 
L 600.859899 -267.055373 
L 599.681206 -267.245765 
L 598.502513 -267.437271 
L 597.323819 -267.629888 
L 596.145126 -267.823617 
L 594.966432 -268.018456 
L 593.787739 -268.214405 
L 592.609045 -268.411461 
L 591.430352 -268.609624 
L 590.251658 -268.808892 
L 589.072965 -269.009265 
L 587.894271 -269.21074 
L 586.715578 -269.413316 
L 585.536884 -269.616991 
L 584.358191 -269.821764 
L 583.179497 -270.027633 
L 582.000804 -270.234597 
L 580.822111 -270.442652 
L 579.643417 -270.651798 
L 578.464724 -270.862031 
L 577.28603 -271.073351 
L 576.107337 -271.285755 
L 574.928643 -271.49924 
L 573.74995 -271.713805 
L 572.571256 -271.929447 
L 571.392563 -272.146163 
L 570.213869 -272.363952 
L 569.035176 -272.582809 
L 567.856482 -272.802734 
L 566.677789 -273.023723 
L 565.499095 -273.245773 
L 564.320402 -273.468881 
L 563.141709 -273.693045 
L 561.963015 -273.918262 
L 560.784322 -274.144529 
L 559.605628 -274.371843 
L 558.426935 -274.6002 
L 557.248241 -274.829597 
L 556.069548 -275.060032 
L 554.890854 -275.2915 
L 553.712161 -275.523999 
L 552.533467 -275.757525 
L 551.354774 -275.992076 
L 550.17608 -276.227646 
L 548.997387 -276.464233 
L 547.818693 -276.701834 
L 546.64 -276.940444 
z
" style="stroke: #a3be8c; stroke-opacity: 0.15"/>
    </defs>
    <g clip-path="url(#p3ee3a8527b)">
     <use xlink:href="#m966a6c2209" x="0" y="273.6" style="fill: #a3be8c; fill-opacity: 0.15; stroke: #a3be8c; stroke-opacity: 0.15"/>
    </g>
   </g>
   <g id="matplotlib.axis_5">
    <g id="xtick_13">
     <g id="line2d_51">
      <path d="M 564.014815 231.16 
L 564.014815 25.92 
" clip-path="url(#p3ee3a8527b)" style="fill: none; stroke: #d8dee9; stroke-opacity: 0.4; stroke-width: 0.8; stroke-linecap: square"/>
     </g>
     <g id="line2d_52">
      <g>
       <use xlink:href="#mc7350df323" x="564.014815" y="231.16" style="fill: #434c5e; stroke: #434c5e; stroke-width: 0.8"/>
      </g>
     </g>
     <g id="text_24">
      <!-- 20 -->
      <g style="fill: #434c5e" transform="translate(557.016065 246.518281) scale(0.11 -0.11)">
       <use xlink:href="#DejaVuSans-32"/>
       <use xlink:href="#DejaVuSans-30" transform="translate(63.623047 0)"/>
      </g>
     </g>
    </g>
    <g id="xtick_14">
     <g id="line2d_53">
      <path d="M 607.451852 231.16 
L 607.451852 25.92 
" clip-path="url(#p3ee3a8527b)" style="fill: none; stroke: #d8dee9; stroke-opacity: 0.4; stroke-width: 0.8; stroke-linecap: square"/>
     </g>
     <g id="line2d_54">
      <g>
       <use xlink:href="#mc7350df323" x="607.451852" y="231.16" style="fill: #434c5e; stroke: #434c5e; stroke-width: 0.8"/>
      </g>
     </g>
     <g id="text_25">
      <!-- 25 -->
      <g style="fill: #434c5e" transform="translate(600.453102 246.518281) scale(0.11 -0.11)">
       <use xlink:href="#DejaVuSans-32"/>
       <use xlink:href="#DejaVuSans-35" transform="translate(63.623047 0)"/>
      </g>
     </g>
    </g>
    <g id="xtick_15">
     <g id="line2d_55">
      <path d="M 650.888889 231.16 
L 650.888889 25.92 
" clip-path="url(#p3ee3a8527b)" style="fill: none; stroke: #d8dee9; stroke-opacity: 0.4; stroke-width: 0.8; stroke-linecap: square"/>
     </g>
     <g id="line2d_56">
      <g>
       <use xlink:href="#mc7350df323" x="650.888889" y="231.16" style="fill: #434c5e; stroke: #434c5e; stroke-width: 0.8"/>
      </g>
     </g>
     <g id="text_26">
      <!-- 30 -->
      <g style="fill: #434c5e" transform="translate(643.890139 246.518281) scale(0.11 -0.11)">
       <use xlink:href="#DejaVuSans-33"/>
       <use xlink:href="#DejaVuSans-30" transform="translate(63.623047 0)"/>
      </g>
     </g>
    </g>
    <g id="xtick_16">
     <g id="line2d_57">
      <path d="M 694.325926 231.16 
L 694.325926 25.92 
" clip-path="url(#p3ee3a8527b)" style="fill: none; stroke: #d8dee9; stroke-opacity: 0.4; stroke-width: 0.8; stroke-linecap: square"/>
     </g>
     <g id="line2d_58">
      <g>
       <use xlink:href="#mc7350df323" x="694.325926" y="231.16" style="fill: #434c5e; stroke: #434c5e; stroke-width: 0.8"/>
      </g>
     </g>
     <g id="text_27">
      <!-- 35 -->
      <g style="fill: #434c5e" transform="translate(687.327176 246.518281) scale(0.11 -0.11)">
       <use xlink:href="#DejaVuSans-33"/>
       <use xlink:href="#DejaVuSans-35" transform="translate(63.623047 0)"/>
      </g>
     </g>
    </g>
    <g id="xtick_17">
     <g id="line2d_59">
      <path d="M 737.762963 231.16 
L 737.762963 25.92 
" clip-path="url(#p3ee3a8527b)" style="fill: none; stroke: #d8dee9; stroke-opacity: 0.4; stroke-width: 0.8; stroke-linecap: square"/>
     </g>
     <g id="line2d_60">
      <g>
       <use xlink:href="#mc7350df323" x="737.762963" y="231.16" style="fill: #434c5e; stroke: #434c5e; stroke-width: 0.8"/>
      </g>
     </g>
     <g id="text_28">
      <!-- 40 -->
      <g style="fill: #434c5e" transform="translate(730.764213 246.518281) scale(0.11 -0.11)">
       <use xlink:href="#DejaVuSans-34"/>
       <use xlink:href="#DejaVuSans-30" transform="translate(63.623047 0)"/>
      </g>
     </g>
    </g>
    <g id="xtick_18">
     <g id="line2d_61">
      <path d="M 781.2 231.16 
L 781.2 25.92 
" clip-path="url(#p3ee3a8527b)" style="fill: none; stroke: #d8dee9; stroke-opacity: 0.4; stroke-width: 0.8; stroke-linecap: square"/>
     </g>
     <g id="line2d_62">
      <g>
       <use xlink:href="#mc7350df323" x="781.2" y="231.16" style="fill: #434c5e; stroke: #434c5e; stroke-width: 0.8"/>
      </g>
     </g>
     <g id="text_29">
      <!-- 45 -->
      <g style="fill: #434c5e" transform="translate(774.20125 246.518281) scale(0.11 -0.11)">
       <use xlink:href="#DejaVuSans-34"/>
       <use xlink:href="#DejaVuSans-35" transform="translate(63.623047 0)"/>
      </g>
     </g>
    </g>
    <g id="text_30">
     <!-- BMI (kg/m²) -->
     <g style="fill: #434c5e" transform="translate(634.580938 260.404375) scale(0.1 -0.1)">
      <use xlink:href="#DejaVuSans-42"/>
      <use xlink:href="#DejaVuSans-4d" transform="translate(68.603516 0)"/>
      <use xlink:href="#DejaVuSans-49" transform="translate(154.882812 0)"/>
      <use xlink:href="#DejaVuSans-20" transform="translate(184.375 0)"/>
      <use xlink:href="#DejaVuSans-28" transform="translate(216.162109 0)"/>
      <use xlink:href="#DejaVuSans-6b" transform="translate(255.175781 0)"/>
      <use xlink:href="#DejaVuSans-67" transform="translate(313.085938 0)"/>
      <use xlink:href="#DejaVuSans-2f" transform="translate(376.5625 0)"/>
      <use xlink:href="#DejaVuSans-6d" transform="translate(410.253906 0)"/>
      <use xlink:href="#DejaVuSans-b2" transform="translate(507.666016 0)"/>
      <use xlink:href="#DejaVuSans-29" transform="translate(547.753906 0)"/>
     </g>
    </g>
   </g>
   <g id="matplotlib.axis_6">
    <g id="ytick_13">
     <g id="line2d_63">
      <path d="M 546.64 231.16 
L 781.2 231.16 
" clip-path="url(#p3ee3a8527b)" style="fill: none; stroke: #d8dee9; stroke-opacity: 0.4; stroke-width: 0.8; stroke-linecap: square"/>
     </g>
     <g id="line2d_64">
      <g>
       <use xlink:href="#m01e8f97951" x="546.64" y="231.16" style="fill: #434c5e; stroke: #434c5e; stroke-width: 0.8"/>
      </g>
     </g>
    </g>
    <g id="ytick_14">
     <g id="line2d_65">
      <path d="M 546.64 190.112 
L 781.2 190.112 
" clip-path="url(#p3ee3a8527b)" style="fill: none; stroke: #d8dee9; stroke-opacity: 0.4; stroke-width: 0.8; stroke-linecap: square"/>
     </g>
     <g id="line2d_66">
      <g>
       <use xlink:href="#m01e8f97951" x="546.64" y="190.112" style="fill: #434c5e; stroke: #434c5e; stroke-width: 0.8"/>
      </g>
     </g>
    </g>
    <g id="ytick_15">
     <g id="line2d_67">
      <path d="M 546.64 149.064 
L 781.2 149.064 
" clip-path="url(#p3ee3a8527b)" style="fill: none; stroke: #d8dee9; stroke-opacity: 0.4; stroke-width: 0.8; stroke-linecap: square"/>
     </g>
     <g id="line2d_68">
      <g>
       <use xlink:href="#m01e8f97951" x="546.64" y="149.064" style="fill: #434c5e; stroke: #434c5e; stroke-width: 0.8"/>
      </g>
     </g>
    </g>
    <g id="ytick_16">
     <g id="line2d_69">
      <path d="M 546.64 108.016 
L 781.2 108.016 
" clip-path="url(#p3ee3a8527b)" style="fill: none; stroke: #d8dee9; stroke-opacity: 0.4; stroke-width: 0.8; stroke-linecap: square"/>
     </g>
     <g id="line2d_70">
      <g>
       <use xlink:href="#m01e8f97951" x="546.64" y="108.016" style="fill: #434c5e; stroke: #434c5e; stroke-width: 0.8"/>
      </g>
     </g>
    </g>
    <g id="ytick_17">
     <g id="line2d_71">
      <path d="M 546.64 66.968 
L 781.2 66.968 
" clip-path="url(#p3ee3a8527b)" style="fill: none; stroke: #d8dee9; stroke-opacity: 0.4; stroke-width: 0.8; stroke-linecap: square"/>
     </g>
     <g id="line2d_72">
      <g>
       <use xlink:href="#m01e8f97951" x="546.64" y="66.968" style="fill: #434c5e; stroke: #434c5e; stroke-width: 0.8"/>
      </g>
     </g>
    </g>
    <g id="ytick_18">
     <g id="line2d_73">
      <path d="M 546.64 25.92 
L 781.2 25.92 
" clip-path="url(#p3ee3a8527b)" style="fill: none; stroke: #d8dee9; stroke-opacity: 0.4; stroke-width: 0.8; stroke-linecap: square"/>
     </g>
     <g id="line2d_74">
      <g>
       <use xlink:href="#m01e8f97951" x="546.64" y="25.92" style="fill: #434c5e; stroke: #434c5e; stroke-width: 0.8"/>
      </g>
     </g>
    </g>
   </g>
   <g id="line2d_75">
    <path d="M 546.64 52.61521 
L 640.935477 65.132318 
L 721.086633 75.551864 
L 781.2 83.2016 
L 781.2 83.2016 
" clip-path="url(#p3ee3a8527b)" style="fill: none; stroke: #a3be8c; stroke-width: 1.5; stroke-linecap: square"/>
   </g>
   <g id="patch_13">
    <path d="M 546.64 231.16 
L 546.64 25.92 
" style="fill: none; stroke: #434c5e; stroke-width: 0.8; stroke-linejoin: miter; stroke-linecap: square"/>
   </g>
   <g id="patch_14">
    <path d="M 781.2 231.16 
L 781.2 25.92 
" style="fill: none; stroke: #434c5e; stroke-width: 0.8; stroke-linejoin: miter; stroke-linecap: square"/>
   </g>
   <g id="patch_15">
    <path d="M 546.64 231.16 
L 781.2 231.16 
" style="fill: none; stroke: #434c5e; stroke-width: 0.8; stroke-linejoin: miter; stroke-linecap: square"/>
   </g>
   <g id="patch_16">
    <path d="M 546.64 25.92 
L 781.2 25.92 
" style="fill: none; stroke: #434c5e; stroke-width: 0.8; stroke-linejoin: miter; stroke-linecap: square"/>
   </g>
   <g id="text_31">
    <!-- High -->
    <g style="fill: #4c566a" transform="translate(650.129375 19.92) scale(0.12 -0.12)">
     <defs>
      <path id="DejaVuSans-48" d="M 628 4666 
L 1259 4666 
L 1259 2753 
L 3553 2753 
L 3553 4666 
L 4184 4666 
L 4184 0 
L 3553 0 
L 3553 2222 
L 1259 2222 
L 1259 0 
L 628 0 
L 628 4666 
z
" transform="scale(0.015625)"/>
      <path id="DejaVuSans-68" d="M 3513 2113 
L 3513 0 
L 2938 0 
L 2938 2094 
Q 2938 2591 2744 2837 
Q 2550 3084 2163 3084 
Q 1697 3084 1428 2787 
Q 1159 2491 1159 1978 
L 1159 0 
L 581 0 
L 581 4863 
L 1159 4863 
L 1159 2956 
Q 1366 3272 1645 3428 
Q 1925 3584 2291 3584 
Q 2894 3584 3203 3211 
Q 3513 2838 3513 2113 
z
" transform="scale(0.015625)"/>
     </defs>
     <use xlink:href="#DejaVuSans-48"/>
     <use xlink:href="#DejaVuSans-69" transform="translate(75.195312 0)"/>
     <use xlink:href="#DejaVuSans-67" transform="translate(102.978516 0)"/>
     <use xlink:href="#DejaVuSans-68" transform="translate(166.455078 0)"/>
    </g>
   </g>
  </g>
 </g>
 <defs>
  <clipPath id="p8ef0ada091">
   <rect x="48.92" y="25.92" width="234.56" height="205.24"/>
  </clipPath>
  <clipPath id="pe59e6383f6">
   <rect x="297.78" y="25.92" width="234.56" height="205.24"/>
  </clipPath>
  <clipPath id="p3ee3a8527b">
   <rect x="546.64" y="25.92" width="234.56" height="205.24"/>
  </clipPath>
 </defs>
</svg>
