<?xml version="1.0" encoding="utf-8" standalone="no"?>
<!DOCTYPE svg PUBLIC "-//W3C//DTD SVG 1.1//EN"
  "http://www.w3.org/Graphics/SVG/1.1/DTD/svg11.dtd">
<svg xmlns:xlink="http://www.w3.org/1999/xlink" width="504pt" height="288pt" viewBox="0 0 504 288" xmlns="http://www.w3.org/2000/svg" version="1.1">
 <metadata>
  <rdf:RDF xmlns:dc="http://purl.org/dc/elements/1.1/" xmlns:cc="http://creativecommons.org/ns#" xmlns:rdf="http://www.w3.org/1999/02/22-rdf-syntax-ns#">
   <cc:Work>
    <dc:type rdf:resource="http://purl.org/dc/dcmitype/StillImage"/>
    <dc:date>2025-11-19T19:44:26.829246</dc:date>
    <dc:format>image/svg+xml</dc:format>
    <dc:creator>
     <cc:Agent>
      <dc:title>Matplotlib v3.9.4, https://matplotlib.org/</dc:title>
     </cc:Agent>
    </dc:creator>
   </cc:Work>
  </rdf:RDF>
 </metadata>
 <defs>
  <style type="text/css">*{stroke-linejoin: round; stroke-linecap: butt}</style>
 </defs>
 <g id="figure_1">
  <g id="patch_1">
   <path d="M 0 288 
L 504 288 
L 504 0 
L 0 0 
z
" style="fill: #ffffff"/>
  </g>
  <g id="axes_1">
   <g id="patch_2">
    <path d="M 65.84 245.56 
L 486.21 245.56 
L 486.21 26.64 
L 65.84 26.64 
z
" style="fill: #ffffff"/>
   </g>
   <g id="PolyCollection_1">
    <defs>
     <path id="m88a34b29d7" d="M 65.84 -206.217749 
L 65.84 -147.115403 
L 67.952412 -147.430049 
L 70.064824 -147.742825 
L 72.177236 -148.053725 
L 74.289648 -148.362741 
L 76.40206 -148.669864 
L 78.514472 -148.97509 
L 80.626884 -149.278411 
L 82.739296 -149.57982 
L 84.851709 -149.879313 
L 86.964121 -150.176884 
L 89.076533 -150.472526 
L 91.188945 -150.766237 
L 93.301357 -151.05801 
L 95.413769 -151.347842 
L 97.526181 -151.635729 
L 99.638593 -151.921667 
L 101.751005 -152.205653 
L 103.863417 -152.487684 
L 105.975829 -152.767757 
L 108.088241 -153.04587 
L 110.200653 -153.322021 
L 112.313065 -153.596207 
L 114.425477 -153.868428 
L 116.537889 -154.138683 
L 118.650302 -154.40697 
L 120.762714 -154.673289 
L 122.875126 -154.937639 
L 124.987538 -155.200021 
L 127.09995 -155.460434 
L 129.212362 -155.71888 
L 131.324774 -155.975359 
L 133.437186 -156.229872 
L 135.549598 -156.48242 
L 137.66201 -156.733006 
L 139.774422 -156.98163 
L 141.886834 -157.228296 
L 143.999246 -157.473005 
L 146.111658 -157.71576 
L 148.22407 -157.956563 
L 150.336482 -158.195419 
L 152.448894 -158.43233 
L 154.561307 -158.6673 
L 156.673719 -158.900332 
L 158.786131 -159.131431 
L 160.898543 -159.360601 
L 163.010955 -159.587846 
L 165.123367 -159.813171 
L 167.235779 -160.03658 
L 169.348191 -160.258079 
L 171.460603 -160.477673 
L 173.573015 -160.695367 
L 175.685427 -160.911167 
L 177.797839 -161.125078 
L 179.910251 -161.337107 
L 182.022663 -161.54726 
L 184.135075 -161.755543 
L 186.247487 -161.961961 
L 188.359899 -162.166523 
L 190.472312 -162.369234 
L 192.584724 -162.570102 
L 194.697136 -162.769133 
L 196.809548 -162.966334 
L 198.92196 -163.161713 
L 201.034372 -163.355277 
L 203.146784 -163.547034 
L 205.259196 -163.73699 
L 207.371608 -163.925155 
L 209.48402 -164.111535 
L 211.596432 -164.296139 
L 213.708844 -164.478974 
L 215.821256 -164.660049 
L 217.933668 -164.839371 
L 220.04608 -165.016949 
L 222.158492 -165.192791 
L 224.270905 -165.366906 
L 226.383317 -165.539301 
L 228.495729 -165.709986 
L 230.608141 -165.878969 
L 232.720553 -166.046258 
L 234.832965 -166.211862 
L 236.945377 -166.37579 
L 239.057789 -166.538049 
L 241.170201 -166.69865 
L 243.282613 -166.857601 
L 245.395025 -167.01491 
L 247.507437 -167.170586 
L 249.619849 -167.324638 
L 251.732261 -167.477075 
L 253.844673 -167.627905 
L 255.957085 -167.777137 
L 258.069497 -167.92478 
L 260.18191 -168.070843 
L 262.294322 -168.215334 
L 264.406734 -168.358263 
L 266.519146 -168.499637 
L 268.631558 -168.639465 
L 270.74397 -168.777757 
L 272.856382 -168.91452 
L 274.968794 -169.049764 
L 277.081206 -169.183496 
L 279.193618 -169.315725 
L 281.30603 -169.446461 
L 283.418442 -169.57571 
L 285.530854 -169.703481 
L 287.643266 -169.829784 
L 289.755678 -169.954625 
L 291.86809 -170.078013 
L 293.980503 -170.199956 
L 296.092915 -170.320463 
L 298.205327 -170.439541 
L 300.317739 -170.557197 
L 302.430151 -170.673441 
L 304.542563 -170.788279 
L 306.654975 -170.90172 
L 308.767387 -171.01377 
L 310.879799 -171.124438 
L 312.992211 -171.233731 
L 315.104623 -171.341656 
L 317.217035 -171.44822 
L 319.329447 -171.553431 
L 321.441859 -171.657296 
L 323.554271 -171.759821 
L 325.666683 -171.861014 
L 327.779095 -171.960881 
L 329.891508 -172.059429 
L 332.00392 -172.156665 
L 334.116332 -172.252596 
L 336.228744 -172.347227 
L 338.341156 -172.440564 
L 340.453568 -172.532615 
L 342.56598 -172.623386 
L 344.678392 -172.712881 
L 346.790804 -172.801108 
L 348.903216 -172.888072 
L 351.015628 -172.973778 
L 353.12804 -173.058233 
L 355.240452 -173.141441 
L 357.352864 -173.223409 
L 359.465276 -173.304141 
L 361.577688 -173.383642 
L 363.690101 -173.461918 
L 365.802513 -173.538974 
L 367.914925 -173.614814 
L 370.027337 -173.689444 
L 372.139749 -173.762867 
L 374.252161 -173.835089 
L 376.364573 -173.906113 
L 378.476985 -173.975944 
L 380.589397 -174.044587 
L 382.701809 -174.112045 
L 384.814221 -174.178323 
L 386.926633 -174.243424 
L 389.039045 -174.307351 
L 391.151457 -174.37011 
L 393.263869 -174.431703 
L 395.376281 -174.492133 
L 397.488693 -174.551405 
L 399.601106 -174.609522 
L 401.713518 -174.666485 
L 403.82593 -174.7223 
L 405.938342 -174.776968 
L 408.050754 -174.830493 
L 410.163166 -174.882877 
L 412.275578 -174.934123 
L 414.38799 -174.984233 
L 416.500402 -175.033211 
L 418.612814 -175.081058 
L 420.725226 -175.127777 
L 422.837638 -175.173369 
L 424.95005 -175.217838 
L 427.062462 -175.261186 
L 429.174874 -175.303413 
L 431.287286 -175.344522 
L 433.399698 -175.384516 
L 435.512111 -175.423395 
L 437.624523 -175.461161 
L 439.736935 -175.497816 
L 441.849347 -175.533362 
L 443.961759 -175.567799 
L 446.074171 -175.60113 
L 448.186583 -175.633355 
L 450.298995 -175.664475 
L 452.411407 -175.694493 
L 454.523819 -175.723409 
L 456.636231 -175.751224 
L 458.748643 -175.777939 
L 460.861055 -175.803555 
L 462.973467 -175.828073 
L 465.085879 -175.851494 
L 467.198291 -175.873819 
L 469.310704 -175.895048 
L 471.423116 -175.915183 
L 473.535528 -175.934224 
L 475.64794 -175.952171 
L 477.760352 -175.969026 
L 479.872764 -175.98479 
L 481.985176 -175.999462 
L 484.097588 -176.013043 
L 486.21 -176.025534 
L 486.21 -196.6485 
L 486.21 -196.6485 
L 484.097588 -196.737738 
L 481.985176 -196.826907 
L 479.872764 -196.915996 
L 477.760352 -197.004996 
L 475.64794 -197.093897 
L 473.535528 -197.18269 
L 471.423116 -197.271363 
L 469.310704 -197.359908 
L 467.198291 -197.448314 
L 465.085879 -197.536571 
L 462.973467 -197.624671 
L 460.861055 -197.712602 
L 458.748643 -197.800355 
L 456.636231 -197.887921 
L 454.523819 -197.97529 
L 452.411407 -198.062452 
L 450.298995 -198.149398 
L 448.186583 -198.236118 
L 446.074171 -198.322602 
L 443.961759 -198.408842 
L 441.849347 -198.494828 
L 439.736935 -198.580551 
L 437.624523 -198.666001 
L 435.512111 -198.75117 
L 433.399698 -198.836048 
L 431.287286 -198.920626 
L 429.174874 -199.004896 
L 427.062462 -199.088849 
L 424.95005 -199.172476 
L 422.837638 -199.255769 
L 420.725226 -199.338718 
L 418.612814 -199.421317 
L 416.500402 -199.503555 
L 414.38799 -199.585426 
L 412.275578 -199.666921 
L 410.163166 -199.748032 
L 408.050754 -199.828751 
L 405.938342 -199.909071 
L 403.82593 -199.988984 
L 401.713518 -200.068482 
L 399.601106 -200.147558 
L 397.488693 -200.226205 
L 395.376281 -200.304415 
L 393.263869 -200.382182 
L 391.151457 -200.459498 
L 389.039045 -200.536357 
L 386.926633 -200.612753 
L 384.814221 -200.688678 
L 382.701809 -200.764127 
L 380.589397 -200.839093 
L 378.476985 -200.913571 
L 376.364573 -200.987553 
L 374.252161 -201.061035 
L 372.139749 -201.134011 
L 370.027337 -201.206476 
L 367.914925 -201.278423 
L 365.802513 -201.349848 
L 363.690101 -201.420746 
L 361.577688 -201.491112 
L 359.465276 -201.560941 
L 357.352864 -201.630228 
L 355.240452 -201.69897 
L 353.12804 -201.767162 
L 351.015628 -201.834799 
L 348.903216 -201.901879 
L 346.790804 -201.968396 
L 344.678392 -202.034348 
L 342.56598 -202.099731 
L 340.453568 -202.164542 
L 338.341156 -202.228777 
L 336.228744 -202.292434 
L 334.116332 -202.35551 
L 332.00392 -202.418002 
L 329.891508 -202.479908 
L 327.779095 -202.541225 
L 325.666683 -202.601951 
L 323.554271 -202.662085 
L 321.441859 -202.721624 
L 319.329447 -202.780567 
L 317.217035 -202.838912 
L 315.104623 -202.896659 
L 312.992211 -202.953805 
L 310.879799 -203.010351 
L 308.767387 -203.066294 
L 306.654975 -203.121635 
L 304.542563 -203.176373 
L 302.430151 -203.230508 
L 300.317739 -203.284039 
L 298.205327 -203.336967 
L 296.092915 -203.389291 
L 293.980503 -203.441013 
L 291.86809 -203.492132 
L 289.755678 -203.54265 
L 287.643266 -203.592566 
L 285.530854 -203.641883 
L 283.418442 -203.6906 
L 281.30603 -203.73872 
L 279.193618 -203.786244 
L 277.081206 -203.833174 
L 274.968794 -203.87951 
L 272.856382 -203.925256 
L 270.74397 -203.970413 
L 268.631558 -204.014983 
L 266.519146 -204.058969 
L 264.406734 -204.102373 
L 262.294322 -204.145197 
L 260.18191 -204.187445 
L 258.069497 -204.229119 
L 255.957085 -204.270223 
L 253.844673 -204.310759 
L 251.732261 -204.350731 
L 249.619849 -204.390142 
L 247.507437 -204.428995 
L 245.395025 -204.467295 
L 243.282613 -204.505045 
L 241.170201 -204.542249 
L 239.057789 -204.57891 
L 236.945377 -204.615034 
L 234.832965 -204.650623 
L 232.720553 -204.685683 
L 230.608141 -204.720218 
L 228.495729 -204.754232 
L 226.383317 -204.78773 
L 224.270905 -204.820716 
L 222.158492 -204.853196 
L 220.04608 -204.885173 
L 217.933668 -204.916654 
L 215.821256 -204.947642 
L 213.708844 -204.978144 
L 211.596432 -205.008164 
L 209.48402 -205.037707 
L 207.371608 -205.066778 
L 205.259196 -205.095384 
L 203.146784 -205.123528 
L 201.034372 -205.151218 
L 198.92196 -205.178457 
L 196.809548 -205.205252 
L 194.697136 -205.231607 
L 192.584724 -205.25753 
L 190.472312 -205.283024 
L 188.359899 -205.308096 
L 186.247487 -205.332751 
L 184.135075 -205.356996 
L 182.022663 -205.380835 
L 179.910251 -205.404274 
L 177.797839 -205.427319 
L 175.685427 -205.449976 
L 173.573015 -205.47225 
L 171.460603 -205.494146 
L 169.348191 -205.515671 
L 167.235779 -205.53683 
L 165.123367 -205.557629 
L 163.010955 -205.578073 
L 160.898543 -205.598167 
L 158.786131 -205.617918 
L 156.673719 -205.63733 
L 154.561307 -205.65641 
L 152.448894 -205.675162 
L 150.336482 -205.693591 
L 148.22407 -205.711704 
L 146.111658 -205.729504 
L 143.999246 -205.746999 
L 141.886834 -205.764191 
L 139.774422 -205.781087 
L 137.66201 -205.797691 
L 135.549598 -205.814009 
L 133.437186 -205.830044 
L 131.324774 -205.845803 
L 129.212362 -205.861289 
L 127.09995 -205.876506 
L 124.987538 -205.89146 
L 122.875126 -205.906155 
L 120.762714 -205.920594 
L 118.650302 -205.934783 
L 116.537889 -205.948725 
L 114.425477 -205.962424 
L 112.313065 -205.975884 
L 110.200653 -205.989108 
L 108.088241 -206.002101 
L 105.975829 -206.014865 
L 103.863417 -206.027405 
L 101.751005 -206.039723 
L 99.638593 -206.051823 
L 97.526181 -206.063707 
L 95.413769 -206.075378 
L 93.301357 -206.086839 
L 91.188945 -206.098094 
L 89.076533 -206.109143 
L 86.964121 -206.11999 
L 84.851709 -206.130637 
L 82.739296 -206.141086 
L 80.626884 -206.151339 
L 78.514472 -206.161397 
L 76.40206 -206.171263 
L 74.289648 -206.180938 
L 72.177236 -206.190422 
L 70.064824 -206.199718 
L 67.952412 -206.208827 
L 65.84 -206.217749 
z
" style="stroke: #a3be8c; stroke-opacity: 0.15"/>
    </defs>
    <g clip-path="url(#paa7b0e0973)">
     <use xlink:href="#m88a34b29d7" x="0" y="288" style="fill: #a3be8c; fill-opacity: 0.15; stroke: #a3be8c; stroke-opacity: 0.15"/>
    </g>
   </g>
   <g id="PolyCollection_2">
    <defs>
     <path id="m2da764bf7a" d="M 65.84 -190.530106 
L 65.84 -148.321175 
L 67.952412 -148.541427 
L 70.064824 -148.760427 
L 72.177236 -148.97817 
L 74.289648 -149.194649 
L 76.40206 -149.409861 
L 78.514472 -149.6238 
L 80.626884 -149.836461 
L 82.739296 -150.047841 
L 84.851709 -150.257934 
L 86.964121 -150.466736 
L 89.076533 -150.674245 
L 91.188945 -150.880455 
L 93.301357 -151.085364 
L 95.413769 -151.288968 
L 97.526181 -151.491264 
L 99.638593 -151.692249 
L 101.751005 -151.891921 
L 103.863417 -152.090277 
L 105.975829 -152.287315 
L 108.088241 -152.483032 
L 110.200653 -152.677427 
L 112.313065 -152.870498 
L 114.425477 -153.062244 
L 116.537889 -153.252663 
L 118.650302 -153.441753 
L 120.762714 -153.629515 
L 122.875126 -153.815948 
L 124.987538 -154.001049 
L 127.09995 -154.184821 
L 129.212362 -154.367261 
L 131.324774 -154.54837 
L 133.437186 -154.728149 
L 135.549598 -154.906597 
L 137.66201 -155.083715 
L 139.774422 -155.259504 
L 141.886834 -155.433964 
L 143.999246 -155.607096 
L 146.111658 -155.778902 
L 148.22407 -155.949383 
L 150.336482 -156.11854 
L 152.448894 -156.286375 
L 154.561307 -156.45289 
L 156.673719 -156.618087 
L 158.786131 -156.781967 
L 160.898543 -156.944534 
L 163.010955 -157.105788 
L 165.123367 -157.265734 
L 167.235779 -157.424373 
L 169.348191 -157.581708 
L 171.460603 -157.737742 
L 173.573015 -157.892479 
L 175.685427 -158.045921 
L 177.797839 -158.198072 
L 179.910251 -158.348934 
L 182.022663 -158.498513 
L 184.135075 -158.646811 
L 186.247487 -158.793831 
L 188.359899 -158.939579 
L 190.472312 -159.084057 
L 192.584724 -159.227271 
L 194.697136 -159.369223 
L 196.809548 -159.509919 
L 198.92196 -159.649363 
L 201.034372 -159.787558 
L 203.146784 -159.92451 
L 205.259196 -160.060224 
L 207.371608 -160.194704 
L 209.48402 -160.327954 
L 211.596432 -160.45998 
L 213.708844 -160.590787 
L 215.821256 -160.720378 
L 217.933668 -160.848761 
L 220.04608 -160.975939 
L 222.158492 -161.101918 
L 224.270905 -161.226703 
L 226.383317 -161.350299 
L 228.495729 -161.472712 
L 230.608141 -161.593946 
L 232.720553 -161.714008 
L 234.832965 -161.832903 
L 236.945377 -161.950636 
L 239.057789 -162.067213 
L 241.170201 -162.182639 
L 243.282613 -162.29692 
L 245.395025 -162.410061 
L 247.507437 -162.522068 
L 249.619849 -162.632947 
L 251.732261 -162.742704 
L 253.844673 -162.851343 
L 255.957085 -162.958871 
L 258.069497 -163.065293 
L 260.18191 -163.170615 
L 262.294322 -163.274843 
L 264.406734 -163.377982 
L 266.519146 -163.480039 
L 268.631558 -163.581018 
L 270.74397 -163.680925 
L 272.856382 -163.779766 
L 274.968794 -163.877547 
L 277.081206 -163.974273 
L 279.193618 -164.06995 
L 281.30603 -164.164584 
L 283.418442 -164.258179 
L 285.530854 -164.350742 
L 287.643266 -164.442278 
L 289.755678 -164.532793 
L 291.86809 -164.622292 
L 293.980503 -164.71078 
L 296.092915 -164.798263 
L 298.205327 -164.884747 
L 300.317739 -164.970236 
L 302.430151 -165.054736 
L 304.542563 -165.138251 
L 306.654975 -165.220789 
L 308.767387 -165.302352 
L 310.879799 -165.382948 
L 312.992211 -165.46258 
L 315.104623 -165.541254 
L 317.217035 -165.618974 
L 319.329447 -165.695746 
L 321.441859 -165.771575 
L 323.554271 -165.846465 
L 325.666683 -165.920421 
L 327.779095 -165.993448 
L 329.891508 -166.06555 
L 332.00392 -166.136732 
L 334.116332 -166.207 
L 336.228744 -166.276356 
L 338.341156 -166.344806 
L 340.453568 -166.412354 
L 342.56598 -166.479004 
L 344.678392 -166.544761 
L 346.790804 -166.609629 
L 348.903216 -166.673612 
L 351.015628 -166.736713 
L 353.12804 -166.798938 
L 355.240452 -166.86029 
L 357.352864 -166.920772 
L 359.465276 -166.98039 
L 361.577688 -167.039145 
L 363.690101 -167.097043 
L 365.802513 -167.154087 
L 367.914925 -167.21028 
L 370.027337 -167.265626 
L 372.139749 -167.320128 
L 374.252161 -167.37379 
L 376.364573 -167.426615 
L 378.476985 -167.478606 
L 380.589397 -167.529767 
L 382.701809 -167.5801 
L 384.814221 -167.629609 
L 386.926633 -167.678297 
L 389.039045 -167.726166 
L 391.151457 -167.773219 
L 393.263869 -167.81946 
L 395.376281 -167.864891 
L 397.488693 -167.909514 
L 399.601106 -167.953333 
L 401.713518 -167.996349 
L 403.82593 -168.038566 
L 405.938342 -168.079986 
L 408.050754 -168.120611 
L 410.163166 -168.160443 
L 412.275578 -168.199485 
L 414.38799 -168.237739 
L 416.500402 -168.275208 
L 418.612814 -168.311892 
L 420.725226 -168.347795 
L 422.837638 -168.382918 
L 424.95005 -168.417263 
L 427.062462 -168.450833 
L 429.174874 -168.483628 
L 431.287286 -168.515651 
L 433.399698 -168.546903 
L 435.512111 -168.577387 
L 437.624523 -168.607103 
L 439.736935 -168.636054 
L 441.849347 -168.664241 
L 443.961759 -168.691665 
L 446.074171 -168.718328 
L 448.186583 -168.744232 
L 450.298995 -168.769377 
L 452.411407 -168.793765 
L 454.523819 -168.817398 
L 456.636231 -168.840276 
L 458.748643 -168.862402 
L 460.861055 -168.883776 
L 462.973467 -168.904399 
L 465.085879 -168.924272 
L 467.198291 -168.943397 
L 469.310704 -168.961775 
L 471.423116 -168.979407 
L 473.535528 -168.996294 
L 475.64794 -169.012437 
L 477.760352 -169.027837 
L 479.872764 -169.042495 
L 481.985176 -169.056412 
L 484.097588 -169.069589 
L 486.21 -169.082026 
L 486.21 -185.696536 
L 486.21 -185.696536 
L 484.097588 -185.752377 
L 481.985176 -185.808077 
L 479.872764 -185.863628 
L 477.760352 -185.919026 
L 475.64794 -185.974265 
L 473.535528 -186.029339 
L 471.423116 -186.084241 
L 469.310704 -186.138966 
L 467.198291 -186.193509 
L 465.085879 -186.247862 
L 462.973467 -186.302022 
L 460.861055 -186.35598 
L 458.748643 -186.409733 
L 456.636231 -186.463275 
L 454.523819 -186.516599 
L 452.411407 -186.5697 
L 450.298995 -186.622572 
L 448.186583 -186.67521 
L 446.074171 -186.727609 
L 443.961759 -186.779763 
L 441.849347 -186.831667 
L 439.736935 -186.883315 
L 437.624523 -186.934702 
L 435.512111 -186.985822 
L 433.399698 -187.036672 
L 431.287286 -187.087244 
L 429.174874 -187.137536 
L 427.062462 -187.18754 
L 424.95005 -187.237254 
L 422.837638 -187.28667 
L 420.725226 -187.335786 
L 418.612814 -187.384596 
L 416.500402 -187.433096 
L 414.38799 -187.48128 
L 412.275578 -187.529145 
L 410.163166 -187.576686 
L 408.050754 -187.623898 
L 405.938342 -187.670778 
L 403.82593 -187.717321 
L 401.713518 -187.763524 
L 399.601106 -187.809381 
L 397.488693 -187.854889 
L 395.376281 -187.900045 
L 393.263869 -187.944844 
L 391.151457 -187.989283 
L 389.039045 -188.033358 
L 386.926633 -188.077066 
L 384.814221 -188.120404 
L 382.701809 -188.163367 
L 380.589397 -188.205954 
L 378.476985 -188.24816 
L 376.364573 -188.289982 
L 374.252161 -188.331419 
L 372.139749 -188.372466 
L 370.027337 -188.413122 
L 367.914925 -188.453383 
L 365.802513 -188.493247 
L 363.690101 -188.532712 
L 361.577688 -188.571775 
L 359.465276 -188.610435 
L 357.352864 -188.648688 
L 355.240452 -188.686534 
L 353.12804 -188.723969 
L 351.015628 -188.760993 
L 348.903216 -188.797603 
L 346.790804 -188.833798 
L 344.678392 -188.869577 
L 342.56598 -188.904938 
L 340.453568 -188.93988 
L 338.341156 -188.974402 
L 336.228744 -189.008502 
L 334.116332 -189.04218 
L 332.00392 -189.075436 
L 329.891508 -189.108267 
L 327.779095 -189.140674 
L 325.666683 -189.172656 
L 323.554271 -189.204213 
L 321.441859 -189.235344 
L 319.329447 -189.26605 
L 317.217035 -189.29633 
L 315.104623 -189.326184 
L 312.992211 -189.355612 
L 310.879799 -189.384616 
L 308.767387 -189.413194 
L 306.654975 -189.441347 
L 304.542563 -189.469077 
L 302.430151 -189.496384 
L 300.317739 -189.523268 
L 298.205327 -189.54973 
L 296.092915 -189.575772 
L 293.980503 -189.601395 
L 291.86809 -189.626599 
L 289.755678 -189.651387 
L 287.643266 -189.675758 
L 285.530854 -189.699716 
L 283.418442 -189.723261 
L 281.30603 -189.746396 
L 279.193618 -189.769121 
L 277.081206 -189.79144 
L 274.968794 -189.813353 
L 272.856382 -189.834863 
L 270.74397 -189.855972 
L 268.631558 -189.876683 
L 266.519146 -189.896998 
L 264.406734 -189.916918 
L 262.294322 -189.936447 
L 260.18191 -189.955588 
L 258.069497 -189.974342 
L 255.957085 -189.992713 
L 253.844673 -190.010703 
L 251.732261 -190.028316 
L 249.619849 -190.045554 
L 247.507437 -190.06242 
L 245.395025 -190.078918 
L 243.282613 -190.095051 
L 241.170201 -190.110822 
L 239.057789 -190.126234 
L 236.945377 -190.14129 
L 234.832965 -190.155995 
L 232.720553 -190.170351 
L 230.608141 -190.184362 
L 228.495729 -190.198032 
L 226.383317 -190.211365 
L 224.270905 -190.224363 
L 222.158492 -190.237031 
L 220.04608 -190.249373 
L 217.933668 -190.261393 
L 215.821256 -190.273093 
L 213.708844 -190.284479 
L 211.596432 -190.295554 
L 209.48402 -190.306322 
L 207.371608 -190.316787 
L 205.259196 -190.326953 
L 203.146784 -190.336825 
L 201.034372 -190.346405 
L 198.92196 -190.355699 
L 196.809548 -190.36471 
L 194.697136 -190.373443 
L 192.584724 -190.381902 
L 190.472312 -190.39009 
L 188.359899 -190.398012 
L 186.247487 -190.405672 
L 184.135075 -190.413074 
L 182.022663 -190.420223 
L 179.910251 -190.427122 
L 177.797839 -190.433775 
L 175.685427 -190.440188 
L 173.573015 -190.446362 
L 171.460603 -190.452304 
L 169.348191 -190.458016 
L 167.235779 -190.463504 
L 165.123367 -190.46877 
L 163.010955 -190.473819 
L 160.898543 -190.478655 
L 158.786131 -190.483282 
L 156.673719 -190.487703 
L 154.561307 -190.491923 
L 152.448894 -190.495945 
L 150.336482 -190.499773 
L 148.22407 -190.503412 
L 146.111658 -190.506863 
L 143.999246 -190.510132 
L 141.886834 -190.513222 
L 139.774422 -190.516136 
L 137.66201 -190.518877 
L 135.549598 -190.52145 
L 133.437186 -190.523858 
L 131.324774 -190.526103 
L 129.212362 -190.52819 
L 127.09995 -190.530121 
L 124.987538 -190.531899 
L 122.875126 -190.533528 
L 120.762714 -190.53501 
L 118.650302 -190.536349 
L 116.537889 -190.537547 
L 114.425477 -190.538608 
L 112.313065 -190.539533 
L 110.200653 -190.540325 
L 108.088241 -190.540988 
L 105.975829 -190.541522 
L 103.863417 -190.541932 
L 101.751005 -190.542218 
L 99.638593 -190.542384 
L 97.526181 -190.542432 
L 95.413769 -190.542363 
L 93.301357 -190.542179 
L 91.188945 -190.541883 
L 89.076533 -190.541476 
L 86.964121 -190.54096 
L 84.851709 -190.540336 
L 82.739296 -190.539606 
L 80.626884 -190.538772 
L 78.514472 -190.537834 
L 76.40206 -190.536795 
L 74.289648 -190.535655 
L 72.177236 -190.534415 
L 70.064824 -190.533076 
L 67.952412 -190.53164 
L 65.84 -190.530106 
z
" style="stroke: #d08770; stroke-opacity: 0.15"/>
    </defs>
    <g clip-path="url(#paa7b0e0973)">
     <use xlink:href="#m2da764bf7a" x="0" y="288" style="fill: #d08770; fill-opacity: 0.15; stroke: #d08770; stroke-opacity: 0.15"/>
    </g>
   </g>
   <g id="matplotlib.axis_1">
    <g id="xtick_1">
     <g id="line2d_1">
      <path d="M 96.978519 245.56 
L 96.978519 26.64 
" clip-path="url(#paa7b0e0973)" style="fill: none; stroke: #d8dee9; stroke-opacity: 0.4; stroke-width: 0.8; stroke-linecap: square"/>
     </g>
     <g id="line2d_2">
      <defs>
       <path id="m1f0861756e" d="M 0 0 
L 0 3.5 
" style="stroke: #434c5e; stroke-width: 0.8"/>
      </defs>
      <g>
       <use xlink:href="#m1f0861756e" x="96.978519" y="245.56" style="fill: #434c5e; stroke: #434c5e; stroke-width: 0.8"/>
      </g>
     </g>
     <g id="text_1">
      <!-- 20 -->
      <g style="fill: #434c5e" transform="translate(89.979769 260.918281) scale(0.11 -0.11)">
       <defs>
        <path id="DejaVuSans-32" d="M 1228 531 
L 3431 531 
L 3431 0 
L 469 0 
L 469 531 
Q 828 903 1448 1529 
Q 2069 2156 2228 2338 
Q 2531 2678 2651 2914 
Q 2772 3150 2772 3378 
Q 2772 3750 2511 3984 
Q 2250 4219 1831 4219 
Q 1534 4219 1204 4116 
Q 875 4013 500 3803 
L 500 4441 
Q 881 4594 1212 4672 
Q 1544 4750 1819 4750 
Q 2544 4750 2975 4387 
Q 3406 4025 3406 3419 
Q 3406 3131 3298 2873 
Q 3191 2616 2906 2266 
Q 2828 2175 2409 1742 
Q 1991 1309 1228 531 
z
" transform="scale(0.015625)"/>
        <path id="DejaVuSans-30" d="M 2034 4250 
Q 1547 4250 1301 3770 
Q 1056 3291 1056 2328 
Q 1056 1369 1301 889 
Q 1547 409 2034 409 
Q 2525 409 2770 889 
Q 3016 1369 3016 2328 
Q 3016 3291 2770 3770 
Q 2525 4250 2034 4250 
z
M 2034 4750 
Q 2819 4750 3233 4129 
Q 3647 3509 3647 2328 
Q 3647 1150 3233 529 
Q 2819 -91 2034 -91 
Q 1250 -91 836 529 
Q 422 1150 422 2328 
Q 422 3509 836 4129 
Q 1250 4750 2034 4750 
z
" transform="scale(0.015625)"/>
       </defs>
       <use xlink:href="#DejaVuSans-32"/>
       <use xlink:href="#DejaVuSans-30" x="63.623047"/>
      </g>
     </g>
    </g>
    <g id="xtick_2">
     <g id="line2d_3">
      <path d="M 174.824815 245.56 
L 174.824815 26.64 
" clip-path="url(#paa7b0e0973)" style="fill: none; stroke: #d8dee9; stroke-opacity: 0.4; stroke-width: 0.8; stroke-linecap: square"/>
     </g>
     <g id="line2d_4">
      <g>
       <use xlink:href="#m1f0861756e" x="174.824815" y="245.56" style="fill: #434c5e; stroke: #434c5e; stroke-width: 0.8"/>
      </g>
     </g>
     <g id="text_2">
      <!-- 25 -->
      <g style="fill: #434c5e" transform="translate(167.826065 260.918281) scale(0.11 -0.11)">
       <defs>
        <path id="DejaVuSans-35" d="M 691 4666 
L 3169 4666 
L 3169 4134 
L 1269 4134 
L 1269 2991 
Q 1406 3038 1543 3061 
Q 1681 3084 1819 3084 
Q 2600 3084 3056 2656 
Q 3513 2228 3513 1497 
Q 3513 744 3044 326 
Q 2575 -91 1722 -91 
Q 1428 -91 1123 -41 
Q 819 9 494 109 
L 494 744 
Q 775 591 1075 516 
Q 1375 441 1709 441 
Q 2250 441 2565 725 
Q 2881 1009 2881 1497 
Q 2881 1984 2565 2268 
Q 2250 2553 1709 2553 
Q 1456 2553 1204 2497 
Q 953 2441 691 2322 
L 691 4666 
z
" transform="scale(0.015625)"/>
       </defs>
       <use xlink:href="#DejaVuSans-32"/>
       <use xlink:href="#DejaVuSans-35" x="63.623047"/>
      </g>
     </g>
    </g>
    <g id="xtick_3">
     <g id="line2d_5">
      <path d="M 252.671111 245.56 
L 252.671111 26.64 
" clip-path="url(#paa7b0e0973)" style="fill: none; stroke: #d8dee9; stroke-opacity: 0.4; stroke-width: 0.8; stroke-linecap: square"/>
     </g>
     <g id="line2d_6">
      <g>
       <use xlink:href="#m1f0861756e" x="252.671111" y="245.56" style="fill: #434c5e; stroke: #434c5e; stroke-width: 0.8"/>
      </g>
     </g>
     <g id="text_3">
      <!-- 30 -->
      <g style="fill: #434c5e" transform="translate(245.672361 260.918281) scale(0.11 -0.11)">
       <defs>
        <path id="DejaVuSans-33" d="M 2597 2516 
Q 3050 2419 3304 2112 
Q 3559 1806 3559 1356 
Q 3559 666 3084 287 
Q 2609 -91 1734 -91 
Q 1441 -91 1130 -33 
Q 819 25 488 141 
L 488 750 
Q 750 597 1062 519 
Q 1375 441 1716 441 
Q 2309 441 2620 675 
Q 2931 909 2931 1356 
Q 2931 1769 2642 2001 
Q 2353 2234 1838 2234 
L 1294 2234 
L 1294 2753 
L 1863 2753 
Q 2328 2753 2575 2939 
Q 2822 3125 2822 3475 
Q 2822 3834 2567 4026 
Q 2313 4219 1838 4219 
Q 1578 4219 1281 4162 
Q 984 4106 628 3988 
L 628 4550 
Q 988 4650 1302 4700 
Q 1616 4750 1894 4750 
Q 2613 4750 3031 4423 
Q 3450 4097 3450 3541 
Q 3450 3153 3228 2886 
Q 3006 2619 2597 2516 
z
" transform="scale(0.015625)"/>
       </defs>
       <use xlink:href="#DejaVuSans-33"/>
       <use xlink:href="#DejaVuSans-30" x="63.623047"/>
      </g>
     </g>
    </g>
    <g id="xtick_4">
     <g id="line2d_7">
      <path d="M 330.517407 245.56 
L 330.517407 26.64 
" clip-path="url(#paa7b0e0973)" style="fill: none; stroke: #d8dee9; stroke-opacity: 0.4; stroke-width: 0.8; stroke-linecap: square"/>
     </g>
     <g id="line2d_8">
      <g>
       <use xlink:href="#m1f0861756e" x="330.517407" y="245.56" style="fill: #434c5e; stroke: #434c5e; stroke-width: 0.8"/>
      </g>
     </g>
     <g id="text_4">
      <!-- 35 -->
      <g style="fill: #434c5e" transform="translate(323.518657 260.918281) scale(0.11 -0.11)">
       <use xlink:href="#DejaVuSans-33"/>
       <use xlink:href="#DejaVuSans-35" x="63.623047"/>
      </g>
     </g>
    </g>
    <g id="xtick_5">
     <g id="line2d_9">
      <path d="M 408.363704 245.56 
L 408.363704 26.64 
" clip-path="url(#paa7b0e0973)" style="fill: none; stroke: #d8dee9; stroke-opacity: 0.4; stroke-width: 0.8; stroke-linecap: square"/>
     </g>
     <g id="line2d_10">
      <g>
       <use xlink:href="#m1f0861756e" x="408.363704" y="245.56" style="fill: #434c5e; stroke: #434c5e; stroke-width: 0.8"/>
      </g>
     </g>
     <g id="text_5">
      <!-- 40 -->
      <g style="fill: #434c5e" transform="translate(401.364954 260.918281) scale(0.11 -0.11)">
       <defs>
        <path id="DejaVuSans-34" d="M 2419 4116 
L 825 1625 
L 2419 1625 
L 2419 4116 
z
M 2253 4666 
L 3047 4666 
L 3047 1625 
L 3713 1625 
L 3713 1100 
L 3047 1100 
L 3047 0 
L 2419 0 
L 2419 1100 
L 313 1100 
L 313 1709 
L 2253 4666 
z
" transform="scale(0.015625)"/>
       </defs>
       <use xlink:href="#DejaVuSans-34"/>
       <use xlink:href="#DejaVuSans-30" x="63.623047"/>
      </g>
     </g>
    </g>
    <g id="xtick_6">
     <g id="line2d_11">
      <path d="M 486.21 245.56 
L 486.21 26.64 
" clip-path="url(#paa7b0e0973)" style="fill: none; stroke: #d8dee9; stroke-opacity: 0.4; stroke-width: 0.8; stroke-linecap: square"/>
     </g>
     <g id="line2d_12">
      <g>
       <use xlink:href="#m1f0861756e" x="486.21" y="245.56" style="fill: #434c5e; stroke: #434c5e; stroke-width: 0.8"/>
      </g>
     </g>
     <g id="text_6">
      <!-- 45 -->
      <g style="fill: #434c5e" transform="translate(479.21125 260.918281) scale(0.11 -0.11)">
       <use xlink:href="#DejaVuSans-34"/>
       <use xlink:href="#DejaVuSans-35" x="63.623047"/>
      </g>
     </g>
    </g>
    <g id="text_7">
     <!-- BMI (kg/m²) -->
     <g style="fill: #434c5e" transform="translate(246.685938 274.804375) scale(0.1 -0.1)">
      <defs>
       <path id="DejaVuSans-42" d="M 1259 2228 
L 1259 519 
L 2272 519 
Q 2781 519 3026 730 
Q 3272 941 3272 1375 
Q 3272 1813 3026 2020 
Q 2781 2228 2272 2228 
L 1259 2228 
z
M 1259 4147 
L 1259 2741 
L 2194 2741 
Q 2656 2741 2882 2914 
Q 3109 3088 3109 3444 
Q 3109 3797 2882 3972 
Q 2656 4147 2194 4147 
L 1259 4147 
z
M 628 4666 
L 2241 4666 
Q 2963 4666 3353 4366 
Q 3744 4066 3744 3513 
Q 3744 3084 3544 2831 
Q 3344 2578 2956 2516 
Q 3422 2416 3680 2098 
Q 3938 1781 3938 1306 
Q 3938 681 3513 340 
Q 3088 0 2303 0 
L 628 0 
L 628 4666 
z
" transform="scale(0.015625)"/>
       <path id="DejaVuSans-4d" d="M 628 4666 
L 1569 4666 
L 2759 1491 
L 3956 4666 
L 4897 4666 
L 4897 0 
L 4281 0 
L 4281 4097 
L 3078 897 
L 2444 897 
L 1241 4097 
L 1241 0 
L 628 0 
L 628 4666 
z
" transform="scale(0.015625)"/>
       <path id="DejaVuSans-49" d="M 628 4666 
L 1259 4666 
L 1259 0 
L 628 0 
L 628 4666 
z
" transform="scale(0.015625)"/>
       <path id="DejaVuSans-20" transform="scale(0.015625)"/>
       <path id="DejaVuSans-28" d="M 1984 4856 
Q 1566 4138 1362 3434 
Q 1159 2731 1159 2009 
Q 1159 1288 1364 580 
Q 1569 -128 1984 -844 
L 1484 -844 
Q 1016 -109 783 600 
Q 550 1309 550 2009 
Q 550 2706 781 3412 
Q 1013 4119 1484 4856 
L 1984 4856 
z
" transform="scale(0.015625)"/>
       <path id="DejaVuSans-6b" d="M 581 4863 
L 1159 4863 
L 1159 1991 
L 2875 3500 
L 3609 3500 
L 1753 1863 
L 3688 0 
L 2938 0 
L 1159 1709 
L 1159 0 
L 581 0 
L 581 4863 
z
" transform="scale(0.015625)"/>
       <path id="DejaVuSans-67" d="M 2906 1791 
Q 2906 2416 2648 2759 
Q 2391 3103 1925 3103 
Q 1463 3103 1205 2759 
Q 947 2416 947 1791 
Q 947 1169 1205 825 
Q 1463 481 1925 481 
Q 2391 481 2648 825 
Q 2906 1169 2906 1791 
z
M 3481 434 
Q 3481 -459 3084 -895 
Q 2688 -1331 1869 -1331 
Q 1566 -1331 1297 -1286 
Q 1028 -1241 775 -1147 
L 775 -588 
Q 1028 -725 1275 -790 
Q 1522 -856 1778 -856 
Q 2344 -856 2625 -561 
Q 2906 -266 2906 331 
L 2906 616 
Q 2728 306 2450 153 
Q 2172 0 1784 0 
Q 1141 0 747 490 
Q 353 981 353 1791 
Q 353 2603 747 3093 
Q 1141 3584 1784 3584 
Q 2172 3584 2450 3431 
Q 2728 3278 2906 2969 
L 2906 3500 
L 3481 3500 
L 3481 434 
z
" transform="scale(0.015625)"/>
       <path id="DejaVuSans-2f" d="M 1625 4666 
L 2156 4666 
L 531 -594 
L 0 -594 
L 1625 4666 
z
" transform="scale(0.015625)"/>
       <path id="DejaVuSans-6d" d="M 3328 2828 
Q 3544 3216 3844 3400 
Q 4144 3584 4550 3584 
Q 5097 3584 5394 3201 
Q 5691 2819 5691 2113 
L 5691 0 
L 5113 0 
L 5113 2094 
Q 5113 2597 4934 2840 
Q 4756 3084 4391 3084 
Q 3944 3084 3684 2787 
Q 3425 2491 3425 1978 
L 3425 0 
L 2847 0 
L 2847 2094 
Q 2847 2600 2669 2842 
Q 2491 3084 2119 3084 
Q 1678 3084 1418 2786 
Q 1159 2488 1159 1978 
L 1159 0 
L 581 0 
L 581 3500 
L 1159 3500 
L 1159 2956 
Q 1356 3278 1631 3431 
Q 1906 3584 2284 3584 
Q 2666 3584 2933 3390 
Q 3200 3197 3328 2828 
z
" transform="scale(0.015625)"/>
       <path id="DejaVuSans-b2" d="M 838 2444 
L 2163 2444 
L 2163 2088 
L 294 2088 
L 294 2431 
Q 400 2528 597 2703 
Q 1672 3656 1672 3950 
Q 1672 4156 1509 4282 
Q 1347 4409 1081 4409 
Q 919 4409 728 4354 
Q 538 4300 313 4191 
L 313 4575 
Q 553 4663 761 4706 
Q 969 4750 1147 4750 
Q 1600 4750 1872 4544 
Q 2144 4338 2144 4000 
Q 2144 3566 1109 2678 
Q 934 2528 838 2444 
z
" transform="scale(0.015625)"/>
       <path id="DejaVuSans-29" d="M 513 4856 
L 1013 4856 
Q 1481 4119 1714 3412 
Q 1947 2706 1947 2009 
Q 1947 1309 1714 600 
Q 1481 -109 1013 -844 
L 513 -844 
Q 928 -128 1133 580 
Q 1338 1288 1338 2009 
Q 1338 2731 1133 3434 
Q 928 4138 513 4856 
z
" transform="scale(0.015625)"/>
      </defs>
      <use xlink:href="#DejaVuSans-42"/>
      <use xlink:href="#DejaVuSans-4d" x="68.603516"/>
      <use xlink:href="#DejaVuSans-49" x="154.882812"/>
      <use xlink:href="#DejaVuSans-20" x="184.375"/>
      <use xlink:href="#DejaVuSans-28" x="216.162109"/>
      <use xlink:href="#DejaVuSans-6b" x="255.175781"/>
      <use xlink:href="#DejaVuSans-67" x="313.085938"/>
      <use xlink:href="#DejaVuSans-2f" x="376.5625"/>
      <use xlink:href="#DejaVuSans-6d" x="410.253906"/>
      <use xlink:href="#DejaVuSans-b2" x="507.666016"/>
      <use xlink:href="#DejaVuSans-29" x="547.753906"/>
     </g>
    </g>
   </g>
   <g id="matplotlib.axis_2">
    <g id="ytick_1">
     <g id="line2d_13">
      <path d="M 65.84 245.56 
L 486.21 245.56 
" clip-path="url(#paa7b0e0973)" style="fill: none; stroke: #d8dee9; stroke-opacity: 0.4; stroke-width: 0.8; stroke-linecap: square"/>
     </g>
     <g id="line2d_14">
      <defs>
       <path id="m0c37af2a61" d="M 0 0 
L -3.5 0 
" style="stroke: #434c5e; stroke-width: 0.8"/>
      </defs>
      <g>
       <use xlink:href="#m0c37af2a61" x="65.84" y="245.56" style="fill: #434c5e; stroke: #434c5e; stroke-width: 0.8"/>
      </g>
     </g>
     <g id="text_8">
      <!-- −0.20 -->
      <g style="fill: #434c5e" transform="translate(25.130156 249.739141) scale(0.11 -0.11)">
       <defs>
        <path id="DejaVuSans-2212" d="M 678 2272 
L 4684 2272 
L 4684 1741 
L 678 1741 
L 678 2272 
z
" transform="scale(0.015625)"/>
        <path id="DejaVuSans-2e" d="M 684 794 
L 1344 794 
L 1344 0 
L 684 0 
L 684 794 
z
" transform="scale(0.015625)"/>
       </defs>
       <use xlink:href="#DejaVuSans-2212"/>
       <use xlink:href="#DejaVuSans-30" x="83.789062"/>
       <use xlink:href="#DejaVuSans-2e" x="147.412109"/>
       <use xlink:href="#DejaVuSans-32" x="179.199219"/>
       <use xlink:href="#DejaVuSans-30" x="242.822266"/>
      </g>
     </g>
    </g>
    <g id="ytick_2">
     <g id="line2d_15">
      <path d="M 65.84 218.195 
L 486.21 218.195 
" clip-path="url(#paa7b0e0973)" style="fill: none; stroke: #d8dee9; stroke-opacity: 0.4; stroke-width: 0.8; stroke-linecap: square"/>
     </g>
     <g id="line2d_16">
      <g>
       <use xlink:href="#m0c37af2a61" x="65.84" y="218.195" style="fill: #434c5e; stroke: #434c5e; stroke-width: 0.8"/>
      </g>
     </g>
     <g id="text_9">
      <!-- −0.15 -->
      <g style="fill: #434c5e" transform="translate(25.130156 222.374141) scale(0.11 -0.11)">
       <defs>
        <path id="DejaVuSans-31" d="M 794 531 
L 1825 531 
L 1825 4091 
L 703 3866 
L 703 4441 
L 1819 4666 
L 2450 4666 
L 2450 531 
L 3481 531 
L 3481 0 
L 794 0 
L 794 531 
z
" transform="scale(0.015625)"/>
       </defs>
       <use xlink:href="#DejaVuSans-2212"/>
       <use xlink:href="#DejaVuSans-30" x="83.789062"/>
       <use xlink:href="#DejaVuSans-2e" x="147.412109"/>
       <use xlink:href="#DejaVuSans-31" x="179.199219"/>
       <use xlink:href="#DejaVuSans-35" x="242.822266"/>
      </g>
     </g>
    </g>
    <g id="ytick_3">
     <g id="line2d_17">
      <path d="M 65.84 190.83 
L 486.21 190.83 
" clip-path="url(#paa7b0e0973)" style="fill: none; stroke: #d8dee9; stroke-opacity: 0.4; stroke-width: 0.8; stroke-linecap: square"/>
     </g>
     <g id="line2d_18">
      <g>
       <use xlink:href="#m0c37af2a61" x="65.84" y="190.83" style="fill: #434c5e; stroke: #434c5e; stroke-width: 0.8"/>
      </g>
     </g>
     <g id="text_10">
      <!-- −0.10 -->
      <g style="fill: #434c5e" transform="translate(25.130156 195.009141) scale(0.11 -0.11)">
       <use xlink:href="#DejaVuSans-2212"/>
       <use xlink:href="#DejaVuSans-30" x="83.789062"/>
       <use xlink:href="#DejaVuSans-2e" x="147.412109"/>
       <use xlink:href="#DejaVuSans-31" x="179.199219"/>
       <use xlink:href="#DejaVuSans-30" x="242.822266"/>
      </g>
     </g>
    </g>
    <g id="ytick_4">
     <g id="line2d_19">
      <path d="M 65.84 163.465 
L 486.21 163.465 
" clip-path="url(#paa7b0e0973)" style="fill: none; stroke: #d8dee9; stroke-opacity: 0.4; stroke-width: 0.8; stroke-linecap: square"/>
     </g>
     <g id="line2d_20">
      <g>
       <use xlink:href="#m0c37af2a61" x="65.84" y="163.465" style="fill: #434c5e; stroke: #434c5e; stroke-width: 0.8"/>
      </g>
     </g>
     <g id="text_11">
      <!-- −0.05 -->
      <g style="fill: #434c5e" transform="translate(25.130156 167.644141) scale(0.11 -0.11)">
       <use xlink:href="#DejaVuSans-2212"/>
       <use xlink:href="#DejaVuSans-30" x="83.789062"/>
       <use xlink:href="#DejaVuSans-2e" x="147.412109"/>
       <use xlink:href="#DejaVuSans-30" x="179.199219"/>
       <use xlink:href="#DejaVuSans-35" x="242.822266"/>
      </g>
     </g>
    </g>
    <g id="ytick_5">
     <g id="line2d_21">
      <path d="M 65.84 136.1 
L 486.21 136.1 
" clip-path="url(#paa7b0e0973)" style="fill: none; stroke: #d8dee9; stroke-opacity: 0.4; stroke-width: 0.8; stroke-linecap: square"/>
     </g>
     <g id="line2d_22">
      <g>
       <use xlink:href="#m0c37af2a61" x="65.84" y="136.1" style="fill: #434c5e; stroke: #434c5e; stroke-width: 0.8"/>
      </g>
     </g>
     <g id="text_12">
      <!-- 0.00 -->
      <g style="fill: #434c5e" transform="translate(34.347813 140.279141) scale(0.11 -0.11)">
       <use xlink:href="#DejaVuSans-30"/>
       <use xlink:href="#DejaVuSans-2e" x="63.623047"/>
       <use xlink:href="#DejaVuSans-30" x="95.410156"/>
       <use xlink:href="#DejaVuSans-30" x="159.033203"/>
      </g>
     </g>
    </g>
    <g id="ytick_6">
     <g id="line2d_23">
      <path d="M 65.84 108.735 
L 486.21 108.735 
" clip-path="url(#paa7b0e0973)" style="fill: none; stroke: #d8dee9; stroke-opacity: 0.4; stroke-width: 0.8; stroke-linecap: square"/>
     </g>
     <g id="line2d_24">
      <g>
       <use xlink:href="#m0c37af2a61" x="65.84" y="108.735" style="fill: #434c5e; stroke: #434c5e; stroke-width: 0.8"/>
      </g>
     </g>
     <g id="text_13">
      <!-- 0.05 -->
      <g style="fill: #434c5e" transform="translate(34.347813 112.914141) scale(0.11 -0.11)">
       <use xlink:href="#DejaVuSans-30"/>
       <use xlink:href="#DejaVuSans-2e" x="63.623047"/>
       <use xlink:href="#DejaVuSans-30" x="95.410156"/>
       <use xlink:href="#DejaVuSans-35" x="159.033203"/>
      </g>
     </g>
    </g>
    <g id="ytick_7">
     <g id="line2d_25">
      <path d="M 65.84 81.37 
L 486.21 81.37 
" clip-path="url(#paa7b0e0973)" style="fill: none; stroke: #d8dee9; stroke-opacity: 0.4; stroke-width: 0.8; stroke-linecap: square"/>
     </g>
     <g id="line2d_26">
      <g>
       <use xlink:href="#m0c37af2a61" x="65.84" y="81.37" style="fill: #434c5e; stroke: #434c5e; stroke-width: 0.8"/>
      </g>
     </g>
     <g id="text_14">
      <!-- 0.10 -->
      <g style="fill: #434c5e" transform="translate(34.347813 85.549141) scale(0.11 -0.11)">
       <use xlink:href="#DejaVuSans-30"/>
       <use xlink:href="#DejaVuSans-2e" x="63.623047"/>
       <use xlink:href="#DejaVuSans-31" x="95.410156"/>
       <use xlink:href="#DejaVuSans-30" x="159.033203"/>
      </g>
     </g>
    </g>
    <g id="ytick_8">
     <g id="line2d_27">
      <path d="M 65.84 54.005 
L 486.21 54.005 
" clip-path="url(#paa7b0e0973)" style="fill: none; stroke: #d8dee9; stroke-opacity: 0.4; stroke-width: 0.8; stroke-linecap: square"/>
     </g>
     <g id="line2d_28">
      <g>
       <use xlink:href="#m0c37af2a61" x="65.84" y="54.005" style="fill: #434c5e; stroke: #434c5e; stroke-width: 0.8"/>
      </g>
     </g>
     <g id="text_15">
      <!-- 0.15 -->
      <g style="fill: #434c5e" transform="translate(34.347813 58.184141) scale(0.11 -0.11)">
       <use xlink:href="#DejaVuSans-30"/>
       <use xlink:href="#DejaVuSans-2e" x="63.623047"/>
       <use xlink:href="#DejaVuSans-31" x="95.410156"/>
       <use xlink:href="#DejaVuSans-35" x="159.033203"/>
      </g>
     </g>
    </g>
    <g id="ytick_9">
     <g id="line2d_29">
      <path d="M 65.84 26.64 
L 486.21 26.64 
" clip-path="url(#paa7b0e0973)" style="fill: none; stroke: #d8dee9; stroke-opacity: 0.4; stroke-width: 0.8; stroke-linecap: square"/>
     </g>
     <g id="line2d_30">
      <g>
       <use xlink:href="#m0c37af2a61" x="65.84" y="26.64" style="fill: #434c5e; stroke: #434c5e; stroke-width: 0.8"/>
      </g>
     </g>
     <g id="text_16">
      <!-- 0.20 -->
      <g style="fill: #434c5e" transform="translate(34.347813 30.819141) scale(0.11 -0.11)">
       <use xlink:href="#DejaVuSans-30"/>
       <use xlink:href="#DejaVuSans-2e" x="63.623047"/>
       <use xlink:href="#DejaVuSans-32" x="95.410156"/>
       <use xlink:href="#DejaVuSans-30" x="159.033203"/>
      </g>
     </g>
    </g>
    <g id="text_17">
     <!-- Δ Probabilité (High − autre) -->
     <g style="fill: #434c5e" transform="translate(19.050469 205.21875) rotate(-90) scale(0.1 -0.1)">
      <defs>
       <path id="DejaVuSans-394" d="M 2188 4044 
L 906 525 
L 3472 525 
L 2188 4044 
z
M 50 0 
L 1831 4666 
L 2547 4666 
L 4325 0 
L 50 0 
z
" transform="scale(0.015625)"/>
       <path id="DejaVuSans-50" d="M 1259 4147 
L 1259 2394 
L 2053 2394 
Q 2494 2394 2734 2622 
Q 2975 2850 2975 3272 
Q 2975 3691 2734 3919 
Q 2494 4147 2053 4147 
L 1259 4147 
z
M 628 4666 
L 2053 4666 
Q 2838 4666 3239 4311 
Q 3641 3956 3641 3272 
Q 3641 2581 3239 2228 
Q 2838 1875 2053 1875 
L 1259 1875 
L 1259 0 
L 628 0 
L 628 4666 
z
" transform="scale(0.015625)"/>
       <path id="DejaVuSans-72" d="M 2631 2963 
Q 2534 3019 2420 3045 
Q 2306 3072 2169 3072 
Q 1681 3072 1420 2755 
Q 1159 2438 1159 1844 
L 1159 0 
L 581 0 
L 581 3500 
L 1159 3500 
L 1159 2956 
Q 1341 3275 1631 3429 
Q 1922 3584 2338 3584 
Q 2397 3584 2469 3576 
Q 2541 3569 2628 3553 
L 2631 2963 
z
" transform="scale(0.015625)"/>
       <path id="DejaVuSans-6f" d="M 1959 3097 
Q 1497 3097 1228 2736 
Q 959 2375 959 1747 
Q 959 1119 1226 758 
Q 1494 397 1959 397 
Q 2419 397 2687 759 
Q 2956 1122 2956 1747 
Q 2956 2369 2687 2733 
Q 2419 3097 1959 3097 
z
M 1959 3584 
Q 2709 3584 3137 3096 
Q 3566 2609 3566 1747 
Q 3566 888 3137 398 
Q 2709 -91 1959 -91 
Q 1206 -91 779 398 
Q 353 888 353 1747 
Q 353 2609 779 3096 
Q 1206 3584 1959 3584 
z
" transform="scale(0.015625)"/>
       <path id="DejaVuSans-62" d="M 3116 1747 
Q 3116 2381 2855 2742 
Q 2594 3103 2138 3103 
Q 1681 3103 1420 2742 
Q 1159 2381 1159 1747 
Q 1159 1113 1420 752 
Q 1681 391 2138 391 
Q 2594 391 2855 752 
Q 3116 1113 3116 1747 
z
M 1159 2969 
Q 1341 3281 1617 3432 
Q 1894 3584 2278 3584 
Q 2916 3584 3314 3078 
Q 3713 2572 3713 1747 
Q 3713 922 3314 415 
Q 2916 -91 2278 -91 
Q 1894 -91 1617 61 
Q 1341 213 1159 525 
L 1159 0 
L 581 0 
L 581 4863 
L 1159 4863 
L 1159 2969 
z
" transform="scale(0.015625)"/>
       <path id="DejaVuSans-61" d="M 2194 1759 
Q 1497 1759 1228 1600 
Q 959 1441 959 1056 
Q 959 750 1161 570 
Q 1363 391 1709 391 
Q 2188 391 2477 730 
Q 2766 1069 2766 1631 
L 2766 1759 
L 2194 1759 
z
M 3341 1997 
L 3341 0 
L 2766 0 
L 2766 531 
Q 2569 213 2275 61 
Q 1981 -91 1556 -91 
Q 1019 -91 701 211 
Q 384 513 384 1019 
Q 384 1609 779 1909 
Q 1175 2209 1959 2209 
L 2766 2209 
L 2766 2266 
Q 2766 2663 2505 2880 
Q 2244 3097 1772 3097 
Q 1472 3097 1187 3025 
Q 903 2953 641 2809 
L 641 3341 
Q 956 3463 1253 3523 
Q 1550 3584 1831 3584 
Q 2591 3584 2966 3190 
Q 3341 2797 3341 1997 
z
" transform="scale(0.015625)"/>
       <path id="DejaVuSans-69" d="M 603 3500 
L 1178 3500 
L 1178 0 
L 603 0 
L 603 3500 
z
M 603 4863 
L 1178 4863 
L 1178 4134 
L 603 4134 
L 603 4863 
z
" transform="scale(0.015625)"/>
       <path id="DejaVuSans-6c" d="M 603 4863 
L 1178 4863 
L 1178 0 
L 603 0 
L 603 4863 
z
" transform="scale(0.015625)"/>
       <path id="DejaVuSans-74" d="M 1172 4494 
L 1172 3500 
L 2356 3500 
L 2356 3053 
L 1172 3053 
L 1172 1153 
Q 1172 725 1289 603 
Q 1406 481 1766 481 
L 2356 481 
L 2356 0 
L 1766 0 
Q 1100 0 847 248 
Q 594 497 594 1153 
L 594 3053 
L 172 3053 
L 172 3500 
L 594 3500 
L 594 4494 
L 1172 4494 
z
" transform="scale(0.015625)"/>
       <path id="DejaVuSans-e9" d="M 3597 1894 
L 3597 1613 
L 953 1613 
Q 991 1019 1311 708 
Q 1631 397 2203 397 
Q 2534 397 2845 478 
Q 3156 559 3463 722 
L 3463 178 
Q 3153 47 2828 -22 
Q 2503 -91 2169 -91 
Q 1331 -91 842 396 
Q 353 884 353 1716 
Q 353 2575 817 3079 
Q 1281 3584 2069 3584 
Q 2775 3584 3186 3129 
Q 3597 2675 3597 1894 
z
M 3022 2063 
Q 3016 2534 2758 2815 
Q 2500 3097 2075 3097 
Q 1594 3097 1305 2825 
Q 1016 2553 972 2059 
L 3022 2063 
z
M 2466 5119 
L 3088 5119 
L 2070 3944 
L 1591 3944 
L 2466 5119 
z
" transform="scale(0.015625)"/>
       <path id="DejaVuSans-48" d="M 628 4666 
L 1259 4666 
L 1259 2753 
L 3553 2753 
L 3553 4666 
L 4184 4666 
L 4184 0 
L 3553 0 
L 3553 2222 
L 1259 2222 
L 1259 0 
L 628 0 
L 628 4666 
z
" transform="scale(0.015625)"/>
       <path id="DejaVuSans-68" d="M 3513 2113 
L 3513 0 
L 2938 0 
L 2938 2094 
Q 2938 2591 2744 2837 
Q 2550 3084 2163 3084 
Q 1697 3084 1428 2787 
Q 1159 2491 1159 1978 
L 1159 0 
L 581 0 
L 581 4863 
L 1159 4863 
L 1159 2956 
Q 1366 3272 1645 3428 
Q 1925 3584 2291 3584 
Q 2894 3584 3203 3211 
Q 3513 2838 3513 2113 
z
" transform="scale(0.015625)"/>
       <path id="DejaVuSans-75" d="M 544 1381 
L 544 3500 
L 1119 3500 
L 1119 1403 
Q 1119 906 1312 657 
Q 1506 409 1894 409 
Q 2359 409 2629 706 
Q 2900 1003 2900 1516 
L 2900 3500 
L 3475 3500 
L 3475 0 
L 2900 0 
L 2900 538 
Q 2691 219 2414 64 
Q 2138 -91 1772 -91 
Q 1169 -91 856 284 
Q 544 659 544 1381 
z
M 1991 3584 
L 1991 3584 
z
" transform="scale(0.015625)"/>
       <path id="DejaVuSans-65" d="M 3597 1894 
L 3597 1613 
L 953 1613 
Q 991 1019 1311 708 
Q 1631 397 2203 397 
Q 2534 397 2845 478 
Q 3156 559 3463 722 
L 3463 178 
Q 3153 47 2828 -22 
Q 2503 -91 2169 -91 
Q 1331 -91 842 396 
Q 353 884 353 1716 
Q 353 2575 817 3079 
Q 1281 3584 2069 3584 
Q 2775 3584 3186 3129 
Q 3597 2675 3597 1894 
z
M 3022 2063 
Q 3016 2534 2758 2815 
Q 2500 3097 2075 3097 
Q 1594 3097 1305 2825 
Q 1016 2553 972 2059 
L 3022 2063 
z
" transform="scale(0.015625)"/>
      </defs>
      <use xlink:href="#DejaVuSans-394"/>
      <use xlink:href="#DejaVuSans-20" x="68.408203"/>
      <use xlink:href="#DejaVuSans-50" x="100.195312"/>
      <use xlink:href="#DejaVuSans-72" x="158.748047"/>
      <use xlink:href="#DejaVuSans-6f" x="197.611328"/>
      <use xlink:href="#DejaVuSans-62" x="258.792969"/>
      <use xlink:href="#DejaVuSans-61" x="322.269531"/>
      <use xlink:href="#DejaVuSans-62" x="383.548828"/>
      <use xlink:href="#DejaVuSans-69" x="447.025391"/>
      <use xlink:href="#DejaVuSans-6c" x="474.808594"/>
      <use xlink:href="#DejaVuSans-69" x="502.591797"/>
      <use xlink:href="#DejaVuSans-74" x="530.375"/>
      <use xlink:href="#DejaVuSans-e9" x="569.583984"/>
      <use xlink:href="#DejaVuSans-20" x="631.107422"/>
      <use xlink:href="#DejaVuSans-28" x="662.894531"/>
      <use xlink:href="#DejaVuSans-48" x="701.908203"/>
      <use xlink:href="#DejaVuSans-69" x="777.103516"/>
      <use xlink:href="#DejaVuSans-67" x="804.886719"/>
      <use xlink:href="#DejaVuSans-68" x="868.363281"/>
      <use xlink:href="#DejaVuSans-20" x="931.742188"/>
      <use xlink:href="#DejaVuSans-2212" x="963.529297"/>
      <use xlink:href="#DejaVuSans-20" x="1047.318359"/>
      <use xlink:href="#DejaVuSans-61" x="1079.105469"/>
      <use xlink:href="#DejaVuSans-75" x="1140.384766"/>
      <use xlink:href="#DejaVuSans-74" x="1203.763672"/>
      <use xlink:href="#DejaVuSans-72" x="1242.972656"/>
      <use xlink:href="#DejaVuSans-65" x="1281.835938"/>
      <use xlink:href="#DejaVuSans-29" x="1343.359375"/>
     </g>
    </g>
   </g>
   <g id="line2d_31">
    <path d="M 65.84 111.333424 
L 97.526181 109.150282 
L 127.09995 107.33153 
L 156.673719 105.731169 
L 186.247487 104.352644 
L 215.821256 103.196154 
L 245.395025 102.258897 
L 274.968794 101.535363 
L 306.654975 100.988322 
L 338.341156 100.665329 
L 372.139749 100.551561 
L 405.938342 100.65698 
L 441.849347 100.985905 
L 479.872764 101.549607 
L 486.21 101.662983 
L 486.21 101.662983 
" clip-path="url(#paa7b0e0973)" style="fill: none; stroke: #a3be8c; stroke-width: 1.5; stroke-linecap: square"/>
   </g>
   <g id="line2d_32">
    <path d="M 65.84 118.574359 
L 103.863417 116.683896 
L 139.774422 115.11218 
L 175.685427 113.756946 
L 211.596432 112.622233 
L 247.507437 111.707756 
L 283.418442 111.00928 
L 321.441859 110.49654 
L 359.465276 110.204588 
L 399.601106 110.118643 
L 441.849347 110.252046 
L 486.21 110.610719 
L 486.21 110.610719 
" clip-path="url(#paa7b0e0973)" style="fill: none; stroke: #d08770; stroke-width: 1.5; stroke-linecap: square"/>
   </g>
   <g id="line2d_33">
    <path d="M 65.84 136.1 
L 486.21 136.1 
" clip-path="url(#paa7b0e0973)" style="fill: none; stroke: #d8dee9; stroke-linecap: square"/>
   </g>
   <g id="patch_3">
    <path d="M 65.84 245.56 
L 65.84 26.64 
" style="fill: none; stroke: #434c5e; stroke-width: 0.8; stroke-linejoin: miter; stroke-linecap: square"/>
   </g>
   <g id="patch_4">
    <path d="M 486.21 245.56 
L 486.21 26.64 
" style="fill: none; stroke: #434c5e; stroke-width: 0.8; stroke-linejoin: miter; stroke-linecap: square"/>
   </g>
   <g id="patch_5">
    <path d="M 65.84 245.56 
L 486.21 245.56 
" style="fill: none; stroke: #434c5e; stroke-width: 0.8; stroke-linejoin: miter; stroke-linecap: square"/>
   </g>
   <g id="patch_6">
    <path d="M 65.84 26.64 
L 486.21 26.64 
" style="fill: none; stroke: #434c5e; stroke-width: 0.8; stroke-linejoin: miter; stroke-linecap: square"/>
   </g>
   <g id="text_18">
    <!-- Interaction p=0.017 -->
    <g style="fill: #4c566a" transform="translate(74.2474 234.614) scale(0.1 -0.1)">
     <defs>
      <path id="DejaVuSans-6e" d="M 3513 2113 
L 3513 0 
L 2938 0 
L 2938 2094 
Q 2938 2591 2744 2837 
Q 2550 3084 2163 3084 
Q 1697 3084 1428 2787 
Q 1159 2491 1159 1978 
L 1159 0 
L 581 0 
L 581 3500 
L 1159 3500 
L 1159 2956 
Q 1366 3272 1645 3428 
Q 1925 3584 2291 3584 
Q 2894 3584 3203 3211 
Q 3513 2838 3513 2113 
z
" transform="scale(0.015625)"/>
      <path id="DejaVuSans-63" d="M 3122 3366 
L 3122 2828 
Q 2878 2963 2633 3030 
Q 2388 3097 2138 3097 
Q 1578 3097 1268 2742 
Q 959 2388 959 1747 
Q 959 1106 1268 751 
Q 1578 397 2138 397 
Q 2388 397 2633 464 
Q 2878 531 3122 666 
L 3122 134 
Q 2881 22 2623 -34 
Q 2366 -91 2075 -91 
Q 1284 -91 818 406 
Q 353 903 353 1747 
Q 353 2603 823 3093 
Q 1294 3584 2113 3584 
Q 2378 3584 2631 3529 
Q 2884 3475 3122 3366 
z
" transform="scale(0.015625)"/>
      <path id="DejaVuSans-70" d="M 1159 525 
L 1159 -1331 
L 581 -1331 
L 581 3500 
L 1159 3500 
L 1159 2969 
Q 1341 3281 1617 3432 
Q 1894 3584 2278 3584 
Q 2916 3584 3314 3078 
Q 3713 2572 3713 1747 
Q 3713 922 3314 415 
Q 2916 -91 2278 -91 
Q 1894 -91 1617 61 
Q 1341 213 1159 525 
z
M 3116 1747 
Q 3116 2381 2855 2742 
Q 2594 3103 2138 3103 
Q 1681 3103 1420 2742 
Q 1159 2381 1159 1747 
Q 1159 1113 1420 752 
Q 1681 391 2138 391 
Q 2594 391 2855 752 
Q 3116 1113 3116 1747 
z
" transform="scale(0.015625)"/>
      <path id="DejaVuSans-3d" d="M 678 2906 
L 4684 2906 
L 4684 2381 
L 678 2381 
L 678 2906 
z
M 678 1631 
L 4684 1631 
L 4684 1100 
L 678 1100 
L 678 1631 
z
" transform="scale(0.015625)"/>
      <path id="DejaVuSans-37" d="M 525 4666 
L 3525 4666 
L 3525 4397 
L 1831 0 
L 1172 0 
L 2766 4134 
L 525 4134 
L 525 4666 
z
" transform="scale(0.015625)"/>
     </defs>
     <use xlink:href="#DejaVuSans-49"/>
     <use xlink:href="#DejaVuSans-6e" x="29.492188"/>
     <use xlink:href="#DejaVuSans-74" x="92.871094"/>
     <use xlink:href="#DejaVuSans-65" x="132.080078"/>
     <use xlink:href="#DejaVuSans-72" x="193.603516"/>
     <use xlink:href="#DejaVuSans-61" x="234.716797"/>
     <use xlink:href="#DejaVuSans-63" x="295.996094"/>
     <use xlink:href="#DejaVuSans-74" x="350.976562"/>
     <use xlink:href="#DejaVuSans-69" x="390.185547"/>
     <use xlink:href="#DejaVuSans-6f" x="417.96875"/>
     <use xlink:href="#DejaVuSans-6e" x="479.150391"/>
     <use xlink:href="#DejaVuSans-20" x="542.529297"/>
     <use xlink:href="#DejaVuSans-70" x="574.316406"/>
     <use xlink:href="#DejaVuSans-3d" x="637.792969"/>
     <use xlink:href="#DejaVuSans-30" x="721.582031"/>
     <use xlink:href="#DejaVuSans-2e" x="785.205078"/>
     <use xlink:href="#DejaVuSans-30" x="816.992188"/>
     <use xlink:href="#DejaVuSans-31" x="880.615234"/>
     <use xlink:href="#DejaVuSans-37" x="944.238281"/>
    </g>
   </g>
   <g id="text_19">
    <!-- Interaction BMI×volume – différence de probabilité -->
    <g style="fill: #4c566a" transform="translate(122.757813 20.64) scale(0.12 -0.12)">
     <defs>
      <path id="DejaVuSans-d7" d="M 4488 3438 
L 3059 2003 
L 4488 575 
L 4116 197 
L 2681 1631 
L 1247 197 
L 878 575 
L 2303 2003 
L 878 3438 
L 1247 3816 
L 2681 2381 
L 4116 3816 
L 4488 3438 
z
" transform="scale(0.015625)"/>
      <path id="DejaVuSans-76" d="M 191 3500 
L 800 3500 
L 1894 563 
L 2988 3500 
L 3597 3500 
L 2284 0 
L 1503 0 
L 191 3500 
z
" transform="scale(0.015625)"/>
      <path id="DejaVuSans-2013" d="M 313 1978 
L 2888 1978 
L 2888 1528 
L 313 1528 
L 313 1978 
z
" transform="scale(0.015625)"/>
      <path id="DejaVuSans-64" d="M 2906 2969 
L 2906 4863 
L 3481 4863 
L 3481 0 
L 2906 0 
L 2906 525 
Q 2725 213 2448 61 
Q 2172 -91 1784 -91 
Q 1150 -91 751 415 
Q 353 922 353 1747 
Q 353 2572 751 3078 
Q 1150 3584 1784 3584 
Q 2172 3584 2448 3432 
Q 2725 3281 2906 2969 
z
M 947 1747 
Q 947 1113 1208 752 
Q 1469 391 1925 391 
Q 2381 391 2643 752 
Q 2906 1113 2906 1747 
Q 2906 2381 2643 2742 
Q 2381 3103 1925 3103 
Q 1469 3103 1208 2742 
Q 947 2381 947 1747 
z
" transform="scale(0.015625)"/>
      <path id="DejaVuSans-66" d="M 2375 4863 
L 2375 4384 
L 1825 4384 
Q 1516 4384 1395 4259 
Q 1275 4134 1275 3809 
L 1275 3500 
L 2222 3500 
L 2222 3053 
L 1275 3053 
L 1275 0 
L 697 0 
L 697 3053 
L 147 3053 
L 147 3500 
L 697 3500 
L 697 3744 
Q 697 4328 969 4595 
Q 1241 4863 1831 4863 
L 2375 4863 
z
" transform="scale(0.015625)"/>
     </defs>
     <use xlink:href="#DejaVuSans-49"/>
     <use xlink:href="#DejaVuSans-6e" x="29.492188"/>
     <use xlink:href="#DejaVuSans-74" x="92.871094"/>
     <use xlink:href="#DejaVuSans-65" x="132.080078"/>
     <use xlink:href="#DejaVuSans-72" x="193.603516"/>
     <use xlink:href="#DejaVuSans-61" x="234.716797"/>
     <use xlink:href="#DejaVuSans-63" x="295.996094"/>
     <use xlink:href="#DejaVuSans-74" x="350.976562"/>
     <use xlink:href="#DejaVuSans-69" x="390.185547"/>
     <use xlink:href="#DejaVuSans-6f" x="417.96875"/>
     <use xlink:href="#DejaVuSans-6e" x="479.150391"/>
     <use xlink:href="#DejaVuSans-20" x="542.529297"/>
     <use xlink:href="#DejaVuSans-42" x="574.316406"/>
     <use xlink:href="#DejaVuSans-4d" x="642.919922"/>
     <use xlink:href="#DejaVuSans-49" x="729.199219"/>
     <use xlink:href="#DejaVuSans-d7" x="758.691406"/>
     <use xlink:href="#DejaVuSans-76" x="842.480469"/>
     <use xlink:href="#DejaVuSans-6f" x="901.660156"/>
     <use xlink:href="#DejaVuSans-6c" x="962.841797"/>
     <use xlink:href="#DejaVuSans-75" x="990.625"/>
     <use xlink:href="#DejaVuSans-6d" x="1054.003906"/>
     <use xlink:href="#DejaVuSans-65" x="1151.416016"/>
     <use xlink:href="#DejaVuSans-20" x="1212.939453"/>
     <use xlink:href="#DejaVuSans-2013" x="1244.726562"/>
     <use xlink:href="#DejaVuSans-20" x="1294.726562"/>
     <use xlink:href="#DejaVuSans-64" x="1326.513672"/>
     <use xlink:href="#DejaVuSans-69" x="1389.990234"/>
     <use xlink:href="#DejaVuSans-66" x="1417.773438"/>
     <use xlink:href="#DejaVuSans-66" x="1452.978516"/>
     <use xlink:href="#DejaVuSans-e9" x="1488.183594"/>
     <use xlink:href="#DejaVuSans-72" x="1549.707031"/>
     <use xlink:href="#DejaVuSans-65" x="1588.570312"/>
     <use xlink:href="#DejaVuSans-6e" x="1650.09375"/>
     <use xlink:href="#DejaVuSans-63" x="1713.472656"/>
     <use xlink:href="#DejaVuSans-65" x="1768.453125"/>
     <use xlink:href="#DejaVuSans-20" x="1829.976562"/>
     <use xlink:href="#DejaVuSans-64" x="1861.763672"/>
     <use xlink:href="#DejaVuSans-65" x="1925.240234"/>
     <use xlink:href="#DejaVuSans-20" x="1986.763672"/>
     <use xlink:href="#DejaVuSans-70" x="2018.550781"/>
     <use xlink:href="#DejaVuSans-72" x="2082.027344"/>
     <use xlink:href="#DejaVuSans-6f" x="2120.890625"/>
     <use xlink:href="#DejaVuSans-62" x="2182.072266"/>
     <use xlink:href="#DejaVuSans-61" x="2245.548828"/>
     <use xlink:href="#DejaVuSans-62" x="2306.828125"/>
     <use xlink:href="#DejaVuSans-69" x="2370.304688"/>
     <use xlink:href="#DejaVuSans-6c" x="2398.087891"/>
     <use xlink:href="#DejaVuSans-69" x="2425.871094"/>
     <use xlink:href="#DejaVuSans-74" x="2453.654297"/>
     <use xlink:href="#DejaVuSans-e9" x="2492.863281"/>
    </g>
   </g>
   <g id="legend_1">
    <g id="text_20">
     <!-- Comparaison -->
     <g transform="translate(407.06625 43.238438) scale(0.1 -0.1)">
      <defs>
       <path id="DejaVuSans-43" d="M 4122 4306 
L 4122 3641 
Q 3803 3938 3442 4084 
Q 3081 4231 2675 4231 
Q 1875 4231 1450 3742 
Q 1025 3253 1025 2328 
Q 1025 1406 1450 917 
Q 1875 428 2675 428 
Q 3081 428 3442 575 
Q 3803 722 4122 1019 
L 4122 359 
Q 3791 134 3420 21 
Q 3050 -91 2638 -91 
Q 1578 -91 968 557 
Q 359 1206 359 2328 
Q 359 3453 968 4101 
Q 1578 4750 2638 4750 
Q 3056 4750 3426 4639 
Q 3797 4528 4122 4306 
z
" transform="scale(0.015625)"/>
       <path id="DejaVuSans-73" d="M 2834 3397 
L 2834 2853 
Q 2591 2978 2328 3040 
Q 2066 3103 1784 3103 
Q 1356 3103 1142 2972 
Q 928 2841 928 2578 
Q 928 2378 1081 2264 
Q 1234 2150 1697 2047 
L 1894 2003 
Q 2506 1872 2764 1633 
Q 3022 1394 3022 966 
Q 3022 478 2636 193 
Q 2250 -91 1575 -91 
Q 1294 -91 989 -36 
Q 684 19 347 128 
L 347 722 
Q 666 556 975 473 
Q 1284 391 1588 391 
Q 1994 391 2212 530 
Q 2431 669 2431 922 
Q 2431 1156 2273 1281 
Q 2116 1406 1581 1522 
L 1381 1569 
Q 847 1681 609 1914 
Q 372 2147 372 2553 
Q 372 3047 722 3315 
Q 1072 3584 1716 3584 
Q 2034 3584 2315 3537 
Q 2597 3491 2834 3397 
z
" transform="scale(0.015625)"/>
      </defs>
      <use xlink:href="#DejaVuSans-43"/>
      <use xlink:href="#DejaVuSans-6f" x="69.824219"/>
      <use xlink:href="#DejaVuSans-6d" x="131.005859"/>
      <use xlink:href="#DejaVuSans-70" x="228.417969"/>
      <use xlink:href="#DejaVuSans-61" x="291.894531"/>
      <use xlink:href="#DejaVuSans-72" x="353.173828"/>
      <use xlink:href="#DejaVuSans-61" x="394.287109"/>
      <use xlink:href="#DejaVuSans-69" x="455.566406"/>
      <use xlink:href="#DejaVuSans-73" x="483.349609"/>
      <use xlink:href="#DejaVuSans-6f" x="535.449219"/>
      <use xlink:href="#DejaVuSans-6e" x="596.630859"/>
     </g>
    </g>
    <g id="line2d_34">
     <path d="M 402.924063 54.416562 
L 412.924063 54.416562 
L 422.924063 54.416562 
" style="fill: none; stroke: #a3be8c; stroke-width: 1.5; stroke-linecap: square"/>
    </g>
    <g id="text_21">
     <!-- High-Low -->
     <g transform="translate(430.924063 57.916562) scale(0.1 -0.1)">
      <defs>
       <path id="DejaVuSans-2d" d="M 313 2009 
L 1997 2009 
L 1997 1497 
L 313 1497 
L 313 2009 
z
" transform="scale(0.015625)"/>
       <path id="DejaVuSans-4c" d="M 628 4666 
L 1259 4666 
L 1259 531 
L 3531 531 
L 3531 0 
L 628 0 
L 628 4666 
z
" transform="scale(0.015625)"/>
       <path id="DejaVuSans-77" d="M 269 3500 
L 844 3500 
L 1563 769 
L 2278 3500 
L 2956 3500 
L 3675 769 
L 4391 3500 
L 4966 3500 
L 4050 0 
L 3372 0 
L 2619 2869 
L 1863 0 
L 1184 0 
L 269 3500 
z
" transform="scale(0.015625)"/>
      </defs>
      <use xlink:href="#DejaVuSans-48"/>
      <use xlink:href="#DejaVuSans-69" x="75.195312"/>
      <use xlink:href="#DejaVuSans-67" x="102.978516"/>
      <use xlink:href="#DejaVuSans-68" x="166.455078"/>
      <use xlink:href="#DejaVuSans-2d" x="229.833984"/>
      <use xlink:href="#DejaVuSans-4c" x="265.917969"/>
      <use xlink:href="#DejaVuSans-6f" x="319.880859"/>
      <use xlink:href="#DejaVuSans-77" x="381.0625"/>
     </g>
    </g>
    <g id="line2d_35">
     <path d="M 402.924063 69.094687 
L 412.924063 69.094687 
L 422.924063 69.094687 
" style="fill: none; stroke: #d08770; stroke-width: 1.5; stroke-linecap: square"/>
    </g>
    <g id="text_22">
     <!-- High-Mid -->
     <g transform="translate(430.924063 72.594687) scale(0.1 -0.1)">
      <use xlink:href="#DejaVuSans-48"/>
      <use xlink:href="#DejaVuSans-69" x="75.195312"/>
      <use xlink:href="#DejaVuSans-67" x="102.978516"/>
      <use xlink:href="#DejaVuSans-68" x="166.455078"/>
      <use xlink:href="#DejaVuSans-2d" x="229.833984"/>
      <use xlink:href="#DejaVuSans-4d" x="265.917969"/>
      <use xlink:href="#DejaVuSans-69" x="352.197266"/>
      <use xlink:href="#DejaVuSans-64" x="379.980469"/>
     </g>
    </g>
   </g>
  </g>
 </g>
 <defs>
  <clipPath id="paa7b0e0973">
   <rect x="65.84" y="26.64" width="420.37" height="218.92"/>
  </clipPath>
 </defs>
</svg>
