<?xml version="1.0" encoding="utf-8" standalone="no"?>
<!DOCTYPE svg PUBLIC "-//W3C//DTD SVG 1.1//EN"
  "http://www.w3.org/Graphics/SVG/1.1/DTD/svg11.dtd">
<svg xmlns:xlink="http://www.w3.org/1999/xlink" width="504pt" height="288pt" viewBox="0 0 504 288" xmlns="http://www.w3.org/2000/svg" version="1.1">
 <metadata>
  <rdf:RDF xmlns:dc="http://purl.org/dc/elements/1.1/" xmlns:cc="http://creativecommons.org/ns#" xmlns:rdf="http://www.w3.org/1999/02/22-rdf-syntax-ns#">
   <cc:Work>
    <dc:type rdf:resource="http://purl.org/dc/dcmitype/StillImage"/>
    <dc:date>2025-12-10T09:08:43.341793</dc:date>
    <dc:format>image/svg+xml</dc:format>
    <dc:creator>
     <cc:Agent>
      <dc:title>Matplotlib v3.10.6, https://matplotlib.org/</dc:title>
     </cc:Agent>
    </dc:creator>
   </cc:Work>
  </rdf:RDF>
 </metadata>
 <defs>
  <style type="text/css">*{stroke-linejoin: round; stroke-linecap: butt}</style>
 </defs>
 <g id="figure_1">
  <g id="patch_1">
   <path d="M 0 288 
L 504 288 
L 504 0 
L 0 0 
z
" style="fill: #ffffff"/>
  </g>
  <g id="axes_1">
   <g id="patch_2">
    <path d="M 65.84 245.56 
L 486.21 245.56 
L 486.21 26.64 
L 65.84 26.64 
z
" style="fill: #ffffff"/>
   </g>
   <g id="FillBetweenPolyCollection_1">
    <defs>
     <path id="m74264ec17d" d="M 65.84 -277.202427 
L 65.84 -141.475665 
L 67.952412 -142.185836 
L 70.064824 -142.890865 
L 72.177236 -143.590744 
L 74.289648 -144.285466 
L 76.40206 -144.975025 
L 78.514472 -145.659417 
L 80.626884 -146.338639 
L 82.739296 -147.012687 
L 84.851709 -147.68156 
L 86.964121 -148.345258 
L 89.076533 -149.003782 
L 91.188945 -149.657133 
L 93.301357 -150.305314 
L 95.413769 -150.948328 
L 97.526181 -151.586181 
L 99.638593 -152.218878 
L 101.751005 -152.846426 
L 103.863417 -153.468832 
L 105.975829 -154.086106 
L 108.088241 -154.698255 
L 110.200653 -155.305292 
L 112.313065 -155.907227 
L 114.425477 -156.504073 
L 116.537889 -157.095842 
L 118.650302 -157.682549 
L 120.762714 -158.264208 
L 122.875126 -158.840835 
L 124.987538 -159.412446 
L 127.09995 -159.979058 
L 129.212362 -160.540689 
L 131.324774 -161.097358 
L 133.437186 -161.649084 
L 135.549598 -162.195887 
L 137.66201 -162.737787 
L 139.774422 -163.274806 
L 141.886834 -163.806966 
L 143.999246 -164.334289 
L 146.111658 -164.856798 
L 148.22407 -165.374517 
L 150.336482 -165.887471 
L 152.448894 -166.395683 
L 154.561307 -166.899178 
L 156.673719 -167.397984 
L 158.786131 -167.892125 
L 160.898543 -168.381628 
L 163.010955 -168.86652 
L 165.123367 -169.346829 
L 167.235779 -169.822581 
L 169.348191 -170.293806 
L 171.460603 -170.76053 
L 173.573015 -171.222784 
L 175.685427 -171.680596 
L 177.797839 -172.133994 
L 179.910251 -172.583009 
L 182.022663 -173.027669 
L 184.135075 -173.468006 
L 186.247487 -173.904048 
L 188.359899 -174.335825 
L 190.472312 -174.763369 
L 192.584724 -175.18671 
L 194.697136 -175.605877 
L 196.809548 -176.020902 
L 198.92196 -176.431815 
L 201.034372 -176.838648 
L 203.146784 -177.24143 
L 205.259196 -177.640192 
L 207.371608 -178.034966 
L 209.48402 -178.425782 
L 211.596432 -178.812671 
L 213.708844 -179.195664 
L 215.821256 -179.574791 
L 217.933668 -179.950083 
L 220.04608 -180.32157 
L 222.158492 -180.689284 
L 224.270905 -181.053254 
L 226.383317 -181.41351 
L 228.495729 -181.770083 
L 230.608141 -182.123003 
L 232.720553 -182.4723 
L 234.832965 -182.818003 
L 236.945377 -183.160142 
L 239.057789 -183.498746 
L 241.170201 -183.833844 
L 243.282613 -184.165466 
L 245.395025 -184.493641 
L 247.507437 -184.818396 
L 249.619849 -185.139761 
L 251.732261 -185.457764 
L 253.844673 -185.772432 
L 255.957085 -186.083793 
L 258.069497 -186.391875 
L 260.18191 -186.696705 
L 262.294322 -186.998311 
L 264.406734 -187.296719 
L 266.519146 -187.591955 
L 268.631558 -187.884045 
L 270.74397 -188.173017 
L 272.856382 -188.458896 
L 274.968794 -188.741706 
L 277.081206 -189.021474 
L 279.193618 -189.298224 
L 281.30603 -189.571982 
L 283.418442 -189.842771 
L 285.530854 -190.110615 
L 287.643266 -190.375539 
L 289.755678 -190.637566 
L 291.86809 -190.896719 
L 293.980503 -191.153022 
L 296.092915 -191.406497 
L 298.205327 -191.657167 
L 300.317739 -191.905054 
L 302.430151 -192.150179 
L 304.542563 -192.392565 
L 306.654975 -192.632233 
L 308.767387 -192.869203 
L 310.879799 -193.103497 
L 312.992211 -193.335135 
L 315.104623 -193.564138 
L 317.217035 -193.790525 
L 319.329447 -194.014316 
L 321.441859 -194.23553 
L 323.554271 -194.454187 
L 325.666683 -194.670306 
L 327.779095 -194.883905 
L 329.891508 -195.095002 
L 332.00392 -195.303615 
L 334.116332 -195.509763 
L 336.228744 -195.713463 
L 338.341156 -195.914732 
L 340.453568 -196.113588 
L 342.56598 -196.310046 
L 344.678392 -196.504124 
L 346.790804 -196.695838 
L 348.903216 -196.885204 
L 351.015628 -197.072238 
L 353.12804 -197.256955 
L 355.240452 -197.439371 
L 357.352864 -197.619501 
L 359.465276 -197.797359 
L 361.577688 -197.972961 
L 363.690101 -198.14632 
L 365.802513 -198.317452 
L 367.914925 -198.486369 
L 370.027337 -198.653086 
L 372.139749 -198.817617 
L 374.252161 -198.979974 
L 376.364573 -199.14017 
L 378.476985 -199.29822 
L 380.589397 -199.454135 
L 382.701809 -199.607928 
L 384.814221 -199.759612 
L 386.926633 -199.909198 
L 389.039045 -200.056698 
L 391.151457 -200.202125 
L 393.263869 -200.34549 
L 395.376281 -200.486804 
L 397.488693 -200.626078 
L 399.601106 -200.763325 
L 401.713518 -200.898554 
L 403.82593 -201.031776 
L 405.938342 -201.163002 
L 408.050754 -201.292243 
L 410.163166 -201.419508 
L 412.275578 -201.544808 
L 414.38799 -201.668153 
L 416.500402 -201.789553 
L 418.612814 -201.909016 
L 420.725226 -202.026554 
L 422.837638 -202.142175 
L 424.95005 -202.255888 
L 427.062462 -202.367703 
L 429.174874 -202.477629 
L 431.287286 -202.585674 
L 433.399698 -202.691847 
L 435.512111 -202.796157 
L 437.624523 -202.898613 
L 439.736935 -202.999223 
L 441.849347 -203.097995 
L 443.961759 -203.194937 
L 446.074171 -203.290058 
L 448.186583 -203.383365 
L 450.298995 -203.474866 
L 452.411407 -203.56457 
L 454.523819 -203.652483 
L 456.636231 -203.738614 
L 458.748643 -203.822969 
L 460.861055 -203.905557 
L 462.973467 -203.986384 
L 465.085879 -204.065458 
L 467.198291 -204.142786 
L 469.310704 -204.218375 
L 471.423116 -204.292232 
L 473.535528 -204.364364 
L 475.64794 -204.434778 
L 477.760352 -204.503481 
L 479.872764 -204.570478 
L 481.985176 -204.635778 
L 484.097588 -204.699386 
L 486.21 -204.76131 
L 486.21 -362.795658 
L 486.21 -362.795658 
L 484.097588 -362.539348 
L 481.985176 -362.280978 
L 479.872764 -362.020542 
L 477.760352 -361.758031 
L 475.64794 -361.493439 
L 473.535528 -361.226757 
L 471.423116 -360.957978 
L 469.310704 -360.687096 
L 467.198291 -360.414104 
L 465.085879 -360.138994 
L 462.973467 -359.861759 
L 460.861055 -359.582394 
L 458.748643 -359.300892 
L 456.636231 -359.017245 
L 454.523819 -358.731449 
L 452.411407 -358.443497 
L 450.298995 -358.153383 
L 448.186583 -357.861102 
L 446.074171 -357.566648 
L 443.961759 -357.270015 
L 441.849347 -356.971198 
L 439.736935 -356.670192 
L 437.624523 -356.366993 
L 435.512111 -356.061595 
L 433.399698 -355.753994 
L 431.287286 -355.444186 
L 429.174874 -355.132166 
L 427.062462 -354.81793 
L 424.95005 -354.501476 
L 422.837638 -354.182799 
L 420.725226 -353.861895 
L 418.612814 -353.538762 
L 416.500402 -353.213397 
L 414.38799 -352.885798 
L 412.275578 -352.555961 
L 410.163166 -352.223884 
L 408.050754 -351.889566 
L 405.938342 -351.553005 
L 403.82593 -351.214199 
L 401.713518 -350.873147 
L 399.601106 -350.529849 
L 397.488693 -350.184302 
L 395.376281 -349.836508 
L 393.263869 -349.486465 
L 391.151457 -349.134174 
L 389.039045 -348.779636 
L 386.926633 -348.42285 
L 384.814221 -348.063818 
L 382.701809 -347.702541 
L 380.589397 -347.339021 
L 378.476985 -346.97326 
L 376.364573 -346.605259 
L 374.252161 -346.235021 
L 372.139749 -345.862549 
L 370.027337 -345.487847 
L 367.914925 -345.110917 
L 365.802513 -344.731763 
L 363.690101 -344.35039 
L 361.577688 -343.966802 
L 359.465276 -343.581003 
L 357.352864 -343.193 
L 355.240452 -342.802797 
L 353.12804 -342.410401 
L 351.015628 -342.015817 
L 348.903216 -341.619053 
L 346.790804 -341.220115 
L 344.678392 -340.819012 
L 342.56598 -340.415749 
L 340.453568 -340.010337 
L 338.341156 -339.602783 
L 336.228744 -339.193097 
L 334.116332 -338.781287 
L 332.00392 -338.367364 
L 329.891508 -337.951338 
L 327.779095 -337.533219 
L 325.666683 -337.113019 
L 323.554271 -336.690749 
L 321.441859 -336.266421 
L 319.329447 -335.840047 
L 317.217035 -335.41164 
L 315.104623 -334.981214 
L 312.992211 -334.548782 
L 310.879799 -334.114357 
L 308.767387 -333.677956 
L 306.654975 -333.239592 
L 304.542563 -332.799281 
L 302.430151 -332.357039 
L 300.317739 -331.912883 
L 298.205327 -331.466829 
L 296.092915 -331.018895 
L 293.980503 -330.569098 
L 291.86809 -330.117457 
L 289.755678 -329.663991 
L 287.643266 -329.208718 
L 285.530854 -328.751658 
L 283.418442 -328.292832 
L 281.30603 -327.832261 
L 279.193618 -327.369964 
L 277.081206 -326.905965 
L 274.968794 -326.440284 
L 272.856382 -325.972945 
L 270.74397 -325.50397 
L 268.631558 -325.033383 
L 266.519146 -324.561208 
L 264.406734 -324.08747 
L 262.294322 -323.612193 
L 260.18191 -323.135403 
L 258.069497 -322.657125 
L 255.957085 -322.177386 
L 253.844673 -321.696212 
L 251.732261 -321.213632 
L 249.619849 -320.729672 
L 247.507437 -320.244361 
L 245.395025 -319.757727 
L 243.282613 -319.2698 
L 241.170201 -318.780608 
L 239.057789 -318.290182 
L 236.945377 -317.798552 
L 234.832965 -317.305749 
L 232.720553 -316.811803 
L 230.608141 -316.316748 
L 228.495729 -315.820613 
L 226.383317 -315.323433 
L 224.270905 -314.825239 
L 222.158492 -314.326065 
L 220.04608 -313.825944 
L 217.933668 -313.32491 
L 215.821256 -312.822997 
L 213.708844 -312.32024 
L 211.596432 -311.816673 
L 209.48402 -311.312332 
L 207.371608 -310.807252 
L 205.259196 -310.301469 
L 203.146784 -309.795019 
L 201.034372 -309.287937 
L 198.92196 -308.780262 
L 196.809548 -308.272028 
L 194.697136 -307.763274 
L 192.584724 -307.254037 
L 190.472312 -306.744353 
L 188.359899 -306.234261 
L 186.247487 -305.723798 
L 184.135075 -305.213002 
L 182.022663 -304.70191 
L 179.910251 -304.190562 
L 177.797839 -303.678994 
L 175.685427 -303.167246 
L 173.573015 -302.655355 
L 171.460603 -302.143361 
L 169.348191 -301.6313 
L 167.235779 -301.119212 
L 165.123367 -300.607134 
L 163.010955 -300.095106 
L 160.898543 -299.583164 
L 158.786131 -299.071348 
L 156.673719 -298.559695 
L 154.561307 -298.048244 
L 152.448894 -297.537031 
L 150.336482 -297.026094 
L 148.22407 -296.515471 
L 146.111658 -296.005198 
L 143.999246 -295.495313 
L 141.886834 -294.985853 
L 139.774422 -294.476853 
L 137.66201 -293.96835 
L 135.549598 -293.460379 
L 133.437186 -292.952977 
L 131.324774 -292.446177 
L 129.212362 -291.940014 
L 127.09995 -291.434524 
L 124.987538 -290.929739 
L 122.875126 -290.425693 
L 120.762714 -289.922419 
L 118.650302 -289.419949 
L 116.537889 -288.918316 
L 114.425477 -288.41755 
L 112.313065 -287.917683 
L 110.200653 -287.418745 
L 108.088241 -286.920765 
L 105.975829 -286.423773 
L 103.863417 -285.927798 
L 101.751005 -285.432866 
L 99.638593 -284.939006 
L 97.526181 -284.446243 
L 95.413769 -283.954605 
L 93.301357 -283.464115 
L 91.188945 -282.974798 
L 89.076533 -282.486679 
L 86.964121 -281.99978 
L 84.851709 -281.514124 
L 82.739296 -281.029732 
L 80.626884 -280.546624 
L 78.514472 -280.064822 
L 76.40206 -279.584343 
L 74.289648 -279.105207 
L 72.177236 -278.627431 
L 70.064824 -278.151032 
L 67.952412 -277.676025 
L 65.84 -277.202427 
z
" style="stroke: #a3be8c; stroke-opacity: 0.15"/>
    </defs>
    <g clip-path="url(#p8544aad994)">
     <use xlink:href="#m74264ec17d" x="0" y="288" style="fill: #a3be8c; fill-opacity: 0.15; stroke: #a3be8c; stroke-opacity: 0.15"/>
    </g>
   </g>
   <g id="FillBetweenPolyCollection_2">
    <defs>
     <path id="m3e683980e4" d="M 65.84 -262.517928 
L 65.84 -142.344634 
L 67.952412 -142.96299 
L 70.064824 -143.576987 
L 72.177236 -144.186618 
L 74.289648 -144.791875 
L 76.40206 -145.392754 
L 78.514472 -145.989249 
L 80.626884 -146.581357 
L 82.739296 -147.169074 
L 84.851709 -147.752399 
L 86.964121 -148.331329 
L 89.076533 -148.905865 
L 91.188945 -149.476006 
L 93.301357 -150.041753 
L 95.413769 -150.603109 
L 97.526181 -151.160077 
L 99.638593 -151.712659 
L 101.751005 -152.260861 
L 103.863417 -152.804687 
L 105.975829 -153.344143 
L 108.088241 -153.879236 
L 110.200653 -154.409973 
L 112.313065 -154.936362 
L 114.425477 -155.458413 
L 116.537889 -155.976134 
L 118.650302 -156.489537 
L 120.762714 -156.998632 
L 122.875126 -157.503431 
L 124.987538 -158.003946 
L 127.09995 -158.50019 
L 129.212362 -158.992177 
L 131.324774 -159.47992 
L 133.437186 -159.963436 
L 135.549598 -160.442738 
L 137.66201 -160.917844 
L 139.774422 -161.388769 
L 141.886834 -161.855531 
L 143.999246 -162.318147 
L 146.111658 -162.776635 
L 148.22407 -163.231014 
L 150.336482 -163.681304 
L 152.448894 -164.127522 
L 154.561307 -164.56969 
L 156.673719 -165.007827 
L 158.786131 -165.441955 
L 160.898543 -165.872094 
L 163.010955 -166.298266 
L 165.123367 -166.720493 
L 167.235779 -167.138797 
L 169.348191 -167.5532 
L 171.460603 -167.963726 
L 173.573015 -168.370396 
L 175.685427 -168.773235 
L 177.797839 -169.172266 
L 179.910251 -169.567513 
L 182.022663 -169.959 
L 184.135075 -170.346751 
L 186.247487 -170.730791 
L 188.359899 -171.111144 
L 190.472312 -171.487834 
L 192.584724 -171.860887 
L 194.697136 -172.230328 
L 196.809548 -172.596181 
L 198.92196 -172.958473 
L 201.034372 -173.317227 
L 203.146784 -173.672471 
L 205.259196 -174.024228 
L 207.371608 -174.372524 
L 209.48402 -174.717386 
L 211.596432 -175.058838 
L 213.708844 -175.396905 
L 215.821256 -175.731615 
L 217.933668 -176.062991 
L 220.04608 -176.391059 
L 222.158492 -176.715845 
L 224.270905 -177.037374 
L 226.383317 -177.355672 
L 228.495729 -177.670763 
L 230.608141 -177.982673 
L 232.720553 -178.291427 
L 234.832965 -178.59705 
L 236.945377 -178.899566 
L 239.057789 -179.199001 
L 241.170201 -179.495379 
L 243.282613 -179.788725 
L 245.395025 -180.079064 
L 247.507437 -180.366418 
L 249.619849 -180.650813 
L 251.732261 -180.932272 
L 253.844673 -181.21082 
L 255.957085 -181.486479 
L 258.069497 -181.759274 
L 260.18191 -182.029227 
L 262.294322 -182.296362 
L 264.406734 -182.560702 
L 266.519146 -182.822269 
L 268.631558 -183.081085 
L 270.74397 -183.337175 
L 272.856382 -183.590558 
L 274.968794 -183.841258 
L 277.081206 -184.089296 
L 279.193618 -184.334694 
L 281.30603 -184.577472 
L 283.418442 -184.817653 
L 285.530854 -185.055257 
L 287.643266 -185.290304 
L 289.755678 -185.522816 
L 291.86809 -185.752812 
L 293.980503 -185.980312 
L 296.092915 -186.205337 
L 298.205327 -186.427905 
L 300.317739 -186.648036 
L 302.430151 -186.86575 
L 304.542563 -187.081065 
L 306.654975 -187.294 
L 308.767387 -187.504574 
L 310.879799 -187.712803 
L 312.992211 -187.918708 
L 315.104623 -188.122305 
L 317.217035 -188.323612 
L 319.329447 -188.522646 
L 321.441859 -188.719424 
L 323.554271 -188.913964 
L 325.666683 -189.106282 
L 327.779095 -189.296394 
L 329.891508 -189.484317 
L 332.00392 -189.670066 
L 334.116332 -189.853658 
L 336.228744 -190.035108 
L 338.341156 -190.214432 
L 340.453568 -190.391644 
L 342.56598 -190.566759 
L 344.678392 -190.739793 
L 346.790804 -190.910759 
L 348.903216 -191.079673 
L 351.015628 -191.246547 
L 353.12804 -191.411397 
L 355.240452 -191.574236 
L 357.352864 -191.735077 
L 359.465276 -191.893933 
L 361.577688 -192.050819 
L 363.690101 -192.205746 
L 365.802513 -192.358727 
L 367.914925 -192.509776 
L 370.027337 -192.658904 
L 372.139749 -192.806123 
L 374.252161 -192.951446 
L 376.364573 -193.094884 
L 378.476985 -193.236449 
L 380.589397 -193.376153 
L 382.701809 -193.514006 
L 384.814221 -193.650021 
L 386.926633 -193.784207 
L 389.039045 -193.916575 
L 391.151457 -194.047137 
L 393.263869 -194.175903 
L 395.376281 -194.302883 
L 397.488693 -194.428087 
L 399.601106 -194.551525 
L 401.713518 -194.673207 
L 403.82593 -194.793143 
L 405.938342 -194.911342 
L 408.050754 -195.027814 
L 410.163166 -195.142568 
L 412.275578 -195.255613 
L 414.38799 -195.366958 
L 416.500402 -195.476612 
L 418.612814 -195.584584 
L 420.725226 -195.690882 
L 422.837638 -195.795514 
L 424.95005 -195.89849 
L 427.062462 -195.999817 
L 429.174874 -196.099504 
L 431.287286 -196.197558 
L 433.399698 -196.293987 
L 435.512111 -196.388799 
L 437.624523 -196.482002 
L 439.736935 -196.573603 
L 441.849347 -196.66361 
L 443.961759 -196.752029 
L 446.074171 -196.838869 
L 448.186583 -196.924136 
L 450.298995 -197.007837 
L 452.411407 -197.08998 
L 454.523819 -197.17057 
L 456.636231 -197.249616 
L 458.748643 -197.327122 
L 460.861055 -197.403097 
L 462.973467 -197.477546 
L 465.085879 -197.550476 
L 467.198291 -197.621894 
L 469.310704 -197.691804 
L 471.423116 -197.760215 
L 473.535528 -197.82713 
L 475.64794 -197.892558 
L 477.760352 -197.956503 
L 479.872764 -198.018971 
L 481.985176 -198.079968 
L 484.097588 -198.139501 
L 486.21 -198.197574 
L 486.21 -347.748611 
L 486.21 -347.748611 
L 484.097588 -347.456688 
L 481.985176 -347.162908 
L 479.872764 -346.867266 
L 477.760352 -346.56976 
L 475.64794 -346.270386 
L 473.535528 -345.96914 
L 471.423116 -345.66602 
L 469.310704 -345.361022 
L 467.198291 -345.054143 
L 465.085879 -344.74538 
L 462.973467 -344.434732 
L 460.861055 -344.122194 
L 458.748643 -343.807766 
L 456.636231 -343.491444 
L 454.523819 -343.173226 
L 452.411407 -342.853111 
L 450.298995 -342.531097 
L 448.186583 -342.207183 
L 446.074171 -341.881366 
L 443.961759 -341.553645 
L 441.849347 -341.22402 
L 439.736935 -340.892489 
L 437.624523 -340.559052 
L 435.512111 -340.223708 
L 433.399698 -339.886457 
L 431.287286 -339.547298 
L 429.174874 -339.206232 
L 427.062462 -338.863258 
L 424.95005 -338.518378 
L 422.837638 -338.17159 
L 420.725226 -337.822898 
L 418.612814 -337.4723 
L 416.500402 -337.119799 
L 414.38799 -336.765396 
L 412.275578 -336.409093 
L 410.163166 -336.050891 
L 408.050754 -335.690792 
L 405.938342 -335.328799 
L 403.82593 -334.964914 
L 401.713518 -334.59914 
L 399.601106 -334.23148 
L 397.488693 -333.861938 
L 395.376281 -333.490516 
L 393.263869 -333.117218 
L 391.151457 -332.742048 
L 389.039045 -332.365012 
L 386.926633 -331.986112 
L 384.814221 -331.605354 
L 382.701809 -331.222743 
L 380.589397 -330.838283 
L 378.476985 -330.451982 
L 376.364573 -330.063844 
L 374.252161 -329.673875 
L 372.139749 -329.282083 
L 370.027337 -328.888473 
L 367.914925 -328.493053 
L 365.802513 -328.095829 
L 363.690101 -327.69681 
L 361.577688 -327.296003 
L 359.465276 -326.893416 
L 357.352864 -326.489059 
L 355.240452 -326.082939 
L 353.12804 -325.675065 
L 351.015628 -325.265448 
L 348.903216 -324.854096 
L 346.790804 -324.44102 
L 344.678392 -324.026231 
L 342.56598 -323.609738 
L 340.453568 -323.191553 
L 338.341156 -322.771688 
L 336.228744 -322.350153 
L 334.116332 -321.926961 
L 332.00392 -321.502125 
L 329.891508 -321.075656 
L 327.779095 -320.647569 
L 325.666683 -320.217876 
L 323.554271 -319.786591 
L 321.441859 -319.353729 
L 319.329447 -318.919303 
L 317.217035 -318.483329 
L 315.104623 -318.045821 
L 312.992211 -317.606796 
L 310.879799 -317.166269 
L 308.767387 -316.724256 
L 306.654975 -316.280775 
L 304.542563 -315.835842 
L 302.430151 -315.389474 
L 300.317739 -314.941689 
L 298.205327 -314.492505 
L 296.092915 -314.041941 
L 293.980503 -313.590016 
L 291.86809 -313.136748 
L 289.755678 -312.682158 
L 287.643266 -312.226265 
L 285.530854 -311.76909 
L 283.418442 -311.310653 
L 281.30603 -310.850975 
L 279.193618 -310.390078 
L 277.081206 -309.927984 
L 274.968794 -309.464714 
L 272.856382 -309.000292 
L 270.74397 -308.53474 
L 268.631558 -308.068082 
L 266.519146 -307.600341 
L 264.406734 -307.13154 
L 262.294322 -306.661706 
L 260.18191 -306.190861 
L 258.069497 -305.719031 
L 255.957085 -305.246243 
L 253.844673 -304.77252 
L 251.732261 -304.29789 
L 249.619849 -303.822378 
L 247.507437 -303.346012 
L 245.395025 -302.868818 
L 243.282613 -302.390825 
L 241.170201 -301.912059 
L 239.057789 -301.432549 
L 236.945377 -300.952322 
L 234.832965 -300.471408 
L 232.720553 -299.989836 
L 230.608141 -299.507634 
L 228.495729 -299.024832 
L 226.383317 -298.54146 
L 224.270905 -298.057548 
L 222.158492 -297.573125 
L 220.04608 -297.088223 
L 217.933668 -296.602873 
L 215.821256 -296.117104 
L 213.708844 -295.630949 
L 211.596432 -295.144438 
L 209.48402 -294.657603 
L 207.371608 -294.170477 
L 205.259196 -293.68309 
L 203.146784 -293.195474 
L 201.034372 -292.707663 
L 198.92196 -292.219689 
L 196.809548 -291.731583 
L 194.697136 -291.243379 
L 192.584724 -290.755109 
L 190.472312 -290.266805 
L 188.359899 -289.778502 
L 186.247487 -289.290232 
L 184.135075 -288.802027 
L 182.022663 -288.31392 
L 179.910251 -287.825946 
L 177.797839 -287.338136 
L 175.685427 -286.850523 
L 173.573015 -286.363142 
L 171.460603 -285.876023 
L 169.348191 -285.389202 
L 167.235779 -284.902709 
L 165.123367 -284.416578 
L 163.010955 -283.930841 
L 160.898543 -283.445531 
L 158.786131 -282.96068 
L 156.673719 -282.476321 
L 154.561307 -281.992484 
L 152.448894 -281.509203 
L 150.336482 -281.026508 
L 148.22407 -280.54443 
L 146.111658 -280.063002 
L 143.999246 -279.582253 
L 141.886834 -279.102215 
L 139.774422 -278.622917 
L 137.66201 -278.144389 
L 135.549598 -277.666661 
L 133.437186 -277.189762 
L 131.324774 -276.713722 
L 129.212362 -276.238567 
L 127.09995 -275.764328 
L 124.987538 -275.291031 
L 122.875126 -274.818704 
L 120.762714 -274.347373 
L 118.650302 -273.877064 
L 116.537889 -273.407805 
L 114.425477 -272.939619 
L 112.313065 -272.472533 
L 110.200653 -272.00657 
L 108.088241 -271.541754 
L 105.975829 -271.078109 
L 103.863417 -270.615657 
L 101.751005 -270.154421 
L 99.638593 -269.694421 
L 97.526181 -269.23568 
L 95.413769 -268.778218 
L 93.301357 -268.322054 
L 91.188945 -267.867207 
L 89.076533 -267.413697 
L 86.964121 -266.96154 
L 84.851709 -266.510755 
L 82.739296 -266.061359 
L 80.626884 -265.613366 
L 78.514472 -265.166792 
L 76.40206 -264.721652 
L 74.289648 -264.277961 
L 72.177236 -263.83573 
L 70.064824 -263.394973 
L 67.952412 -262.955702 
L 65.84 -262.517928 
z
" style="stroke: #d08770; stroke-opacity: 0.15"/>
    </defs>
    <g clip-path="url(#p8544aad994)">
     <use xlink:href="#m3e683980e4" x="0" y="288" style="fill: #d08770; fill-opacity: 0.15; stroke: #d08770; stroke-opacity: 0.15"/>
    </g>
   </g>
   <g id="matplotlib.axis_1">
    <g id="xtick_1">
     <g id="line2d_1">
      <path d="M 96.978519 245.56 
L 96.978519 26.64 
" clip-path="url(#p8544aad994)" style="fill: none; stroke: #d8dee9; stroke-opacity: 0.4; stroke-width: 0.8; stroke-linecap: square"/>
     </g>
     <g id="line2d_2">
      <defs>
       <path id="md36651ef4e" d="M 0 0 
L 0 3.5 
" style="stroke: #434c5e; stroke-width: 0.8"/>
      </defs>
      <g>
       <use xlink:href="#md36651ef4e" x="96.978519" y="245.56" style="fill: #434c5e; stroke: #434c5e; stroke-width: 0.8"/>
      </g>
     </g>
     <g id="text_1">
      <!-- 20 -->
      <g style="fill: #434c5e" transform="translate(89.979769 260.918281) scale(0.11 -0.11)">
       <defs>
        <path id="DejaVuSans-32" d="M 1228 531 
L 3431 531 
L 3431 0 
L 469 0 
L 469 531 
Q 828 903 1448 1529 
Q 2069 2156 2228 2338 
Q 2531 2678 2651 2914 
Q 2772 3150 2772 3378 
Q 2772 3750 2511 3984 
Q 2250 4219 1831 4219 
Q 1534 4219 1204 4116 
Q 875 4013 500 3803 
L 500 4441 
Q 881 4594 1212 4672 
Q 1544 4750 1819 4750 
Q 2544 4750 2975 4387 
Q 3406 4025 3406 3419 
Q 3406 3131 3298 2873 
Q 3191 2616 2906 2266 
Q 2828 2175 2409 1742 
Q 1991 1309 1228 531 
z
" transform="scale(0.015625)"/>
        <path id="DejaVuSans-30" d="M 2034 4250 
Q 1547 4250 1301 3770 
Q 1056 3291 1056 2328 
Q 1056 1369 1301 889 
Q 1547 409 2034 409 
Q 2525 409 2770 889 
Q 3016 1369 3016 2328 
Q 3016 3291 2770 3770 
Q 2525 4250 2034 4250 
z
M 2034 4750 
Q 2819 4750 3233 4129 
Q 3647 3509 3647 2328 
Q 3647 1150 3233 529 
Q 2819 -91 2034 -91 
Q 1250 -91 836 529 
Q 422 1150 422 2328 
Q 422 3509 836 4129 
Q 1250 4750 2034 4750 
z
" transform="scale(0.015625)"/>
       </defs>
       <use xlink:href="#DejaVuSans-32"/>
       <use xlink:href="#DejaVuSans-30" transform="translate(63.623047 0)"/>
      </g>
     </g>
    </g>
    <g id="xtick_2">
     <g id="line2d_3">
      <path d="M 174.824815 245.56 
L 174.824815 26.64 
" clip-path="url(#p8544aad994)" style="fill: none; stroke: #d8dee9; stroke-opacity: 0.4; stroke-width: 0.8; stroke-linecap: square"/>
     </g>
     <g id="line2d_4">
      <g>
       <use xlink:href="#md36651ef4e" x="174.824815" y="245.56" style="fill: #434c5e; stroke: #434c5e; stroke-width: 0.8"/>
      </g>
     </g>
     <g id="text_2">
      <!-- 25 -->
      <g style="fill: #434c5e" transform="translate(167.826065 260.918281) scale(0.11 -0.11)">
       <defs>
        <path id="DejaVuSans-35" d="M 691 4666 
L 3169 4666 
L 3169 4134 
L 1269 4134 
L 1269 2991 
Q 1406 3038 1543 3061 
Q 1681 3084 1819 3084 
Q 2600 3084 3056 2656 
Q 3513 2228 3513 1497 
Q 3513 744 3044 326 
Q 2575 -91 1722 -91 
Q 1428 -91 1123 -41 
Q 819 9 494 109 
L 494 744 
Q 775 591 1075 516 
Q 1375 441 1709 441 
Q 2250 441 2565 725 
Q 2881 1009 2881 1497 
Q 2881 1984 2565 2268 
Q 2250 2553 1709 2553 
Q 1456 2553 1204 2497 
Q 953 2441 691 2322 
L 691 4666 
z
" transform="scale(0.015625)"/>
       </defs>
       <use xlink:href="#DejaVuSans-32"/>
       <use xlink:href="#DejaVuSans-35" transform="translate(63.623047 0)"/>
      </g>
     </g>
    </g>
    <g id="xtick_3">
     <g id="line2d_5">
      <path d="M 252.671111 245.56 
L 252.671111 26.64 
" clip-path="url(#p8544aad994)" style="fill: none; stroke: #d8dee9; stroke-opacity: 0.4; stroke-width: 0.8; stroke-linecap: square"/>
     </g>
     <g id="line2d_6">
      <g>
       <use xlink:href="#md36651ef4e" x="252.671111" y="245.56" style="fill: #434c5e; stroke: #434c5e; stroke-width: 0.8"/>
      </g>
     </g>
     <g id="text_3">
      <!-- 30 -->
      <g style="fill: #434c5e" transform="translate(245.672361 260.918281) scale(0.11 -0.11)">
       <defs>
        <path id="DejaVuSans-33" d="M 2597 2516 
Q 3050 2419 3304 2112 
Q 3559 1806 3559 1356 
Q 3559 666 3084 287 
Q 2609 -91 1734 -91 
Q 1441 -91 1130 -33 
Q 819 25 488 141 
L 488 750 
Q 750 597 1062 519 
Q 1375 441 1716 441 
Q 2309 441 2620 675 
Q 2931 909 2931 1356 
Q 2931 1769 2642 2001 
Q 2353 2234 1838 2234 
L 1294 2234 
L 1294 2753 
L 1863 2753 
Q 2328 2753 2575 2939 
Q 2822 3125 2822 3475 
Q 2822 3834 2567 4026 
Q 2313 4219 1838 4219 
Q 1578 4219 1281 4162 
Q 984 4106 628 3988 
L 628 4550 
Q 988 4650 1302 4700 
Q 1616 4750 1894 4750 
Q 2613 4750 3031 4423 
Q 3450 4097 3450 3541 
Q 3450 3153 3228 2886 
Q 3006 2619 2597 2516 
z
" transform="scale(0.015625)"/>
       </defs>
       <use xlink:href="#DejaVuSans-33"/>
       <use xlink:href="#DejaVuSans-30" transform="translate(63.623047 0)"/>
      </g>
     </g>
    </g>
    <g id="xtick_4">
     <g id="line2d_7">
      <path d="M 330.517407 245.56 
L 330.517407 26.64 
" clip-path="url(#p8544aad994)" style="fill: none; stroke: #d8dee9; stroke-opacity: 0.4; stroke-width: 0.8; stroke-linecap: square"/>
     </g>
     <g id="line2d_8">
      <g>
       <use xlink:href="#md36651ef4e" x="330.517407" y="245.56" style="fill: #434c5e; stroke: #434c5e; stroke-width: 0.8"/>
      </g>
     </g>
     <g id="text_4">
      <!-- 35 -->
      <g style="fill: #434c5e" transform="translate(323.518657 260.918281) scale(0.11 -0.11)">
       <use xlink:href="#DejaVuSans-33"/>
       <use xlink:href="#DejaVuSans-35" transform="translate(63.623047 0)"/>
      </g>
     </g>
    </g>
    <g id="xtick_5">
     <g id="line2d_9">
      <path d="M 408.363704 245.56 
L 408.363704 26.64 
" clip-path="url(#p8544aad994)" style="fill: none; stroke: #d8dee9; stroke-opacity: 0.4; stroke-width: 0.8; stroke-linecap: square"/>
     </g>
     <g id="line2d_10">
      <g>
       <use xlink:href="#md36651ef4e" x="408.363704" y="245.56" style="fill: #434c5e; stroke: #434c5e; stroke-width: 0.8"/>
      </g>
     </g>
     <g id="text_5">
      <!-- 40 -->
      <g style="fill: #434c5e" transform="translate(401.364954 260.918281) scale(0.11 -0.11)">
       <defs>
        <path id="DejaVuSans-34" d="M 2419 4116 
L 825 1625 
L 2419 1625 
L 2419 4116 
z
M 2253 4666 
L 3047 4666 
L 3047 1625 
L 3713 1625 
L 3713 1100 
L 3047 1100 
L 3047 0 
L 2419 0 
L 2419 1100 
L 313 1100 
L 313 1709 
L 2253 4666 
z
" transform="scale(0.015625)"/>
       </defs>
       <use xlink:href="#DejaVuSans-34"/>
       <use xlink:href="#DejaVuSans-30" transform="translate(63.623047 0)"/>
      </g>
     </g>
    </g>
    <g id="xtick_6">
     <g id="line2d_11">
      <path d="M 486.21 245.56 
L 486.21 26.64 
" clip-path="url(#p8544aad994)" style="fill: none; stroke: #d8dee9; stroke-opacity: 0.4; stroke-width: 0.8; stroke-linecap: square"/>
     </g>
     <g id="line2d_12">
      <g>
       <use xlink:href="#md36651ef4e" x="486.21" y="245.56" style="fill: #434c5e; stroke: #434c5e; stroke-width: 0.8"/>
      </g>
     </g>
     <g id="text_6">
      <!-- 45 -->
      <g style="fill: #434c5e" transform="translate(479.21125 260.918281) scale(0.11 -0.11)">
       <use xlink:href="#DejaVuSans-34"/>
       <use xlink:href="#DejaVuSans-35" transform="translate(63.623047 0)"/>
      </g>
     </g>
    </g>
    <g id="text_7">
     <!-- BMI (kg/m²) -->
     <g style="fill: #434c5e" transform="translate(246.685938 274.804375) scale(0.1 -0.1)">
      <defs>
       <path id="DejaVuSans-42" d="M 1259 2228 
L 1259 519 
L 2272 519 
Q 2781 519 3026 730 
Q 3272 941 3272 1375 
Q 3272 1813 3026 2020 
Q 2781 2228 2272 2228 
L 1259 2228 
z
M 1259 4147 
L 1259 2741 
L 2194 2741 
Q 2656 2741 2882 2914 
Q 3109 3088 3109 3444 
Q 3109 3797 2882 3972 
Q 2656 4147 2194 4147 
L 1259 4147 
z
M 628 4666 
L 2241 4666 
Q 2963 4666 3353 4366 
Q 3744 4066 3744 3513 
Q 3744 3084 3544 2831 
Q 3344 2578 2956 2516 
Q 3422 2416 3680 2098 
Q 3938 1781 3938 1306 
Q 3938 681 3513 340 
Q 3088 0 2303 0 
L 628 0 
L 628 4666 
z
" transform="scale(0.015625)"/>
       <path id="DejaVuSans-4d" d="M 628 4666 
L 1569 4666 
L 2759 1491 
L 3956 4666 
L 4897 4666 
L 4897 0 
L 4281 0 
L 4281 4097 
L 3078 897 
L 2444 897 
L 1241 4097 
L 1241 0 
L 628 0 
L 628 4666 
z
" transform="scale(0.015625)"/>
       <path id="DejaVuSans-49" d="M 628 4666 
L 1259 4666 
L 1259 0 
L 628 0 
L 628 4666 
z
" transform="scale(0.015625)"/>
       <path id="DejaVuSans-20" transform="scale(0.015625)"/>
       <path id="DejaVuSans-28" d="M 1984 4856 
Q 1566 4138 1362 3434 
Q 1159 2731 1159 2009 
Q 1159 1288 1364 580 
Q 1569 -128 1984 -844 
L 1484 -844 
Q 1016 -109 783 600 
Q 550 1309 550 2009 
Q 550 2706 781 3412 
Q 1013 4119 1484 4856 
L 1984 4856 
z
" transform="scale(0.015625)"/>
       <path id="DejaVuSans-6b" d="M 581 4863 
L 1159 4863 
L 1159 1991 
L 2875 3500 
L 3609 3500 
L 1753 1863 
L 3688 0 
L 2938 0 
L 1159 1709 
L 1159 0 
L 581 0 
L 581 4863 
z
" transform="scale(0.015625)"/>
       <path id="DejaVuSans-67" d="M 2906 1791 
Q 2906 2416 2648 2759 
Q 2391 3103 1925 3103 
Q 1463 3103 1205 2759 
Q 947 2416 947 1791 
Q 947 1169 1205 825 
Q 1463 481 1925 481 
Q 2391 481 2648 825 
Q 2906 1169 2906 1791 
z
M 3481 434 
Q 3481 -459 3084 -895 
Q 2688 -1331 1869 -1331 
Q 1566 -1331 1297 -1286 
Q 1028 -1241 775 -1147 
L 775 -588 
Q 1028 -725 1275 -790 
Q 1522 -856 1778 -856 
Q 2344 -856 2625 -561 
Q 2906 -266 2906 331 
L 2906 616 
Q 2728 306 2450 153 
Q 2172 0 1784 0 
Q 1141 0 747 490 
Q 353 981 353 1791 
Q 353 2603 747 3093 
Q 1141 3584 1784 3584 
Q 2172 3584 2450 3431 
Q 2728 3278 2906 2969 
L 2906 3500 
L 3481 3500 
L 3481 434 
z
" transform="scale(0.015625)"/>
       <path id="DejaVuSans-2f" d="M 1625 4666 
L 2156 4666 
L 531 -594 
L 0 -594 
L 1625 4666 
z
" transform="scale(0.015625)"/>
       <path id="DejaVuSans-6d" d="M 3328 2828 
Q 3544 3216 3844 3400 
Q 4144 3584 4550 3584 
Q 5097 3584 5394 3201 
Q 5691 2819 5691 2113 
L 5691 0 
L 5113 0 
L 5113 2094 
Q 5113 2597 4934 2840 
Q 4756 3084 4391 3084 
Q 3944 3084 3684 2787 
Q 3425 2491 3425 1978 
L 3425 0 
L 2847 0 
L 2847 2094 
Q 2847 2600 2669 2842 
Q 2491 3084 2119 3084 
Q 1678 3084 1418 2786 
Q 1159 2488 1159 1978 
L 1159 0 
L 581 0 
L 581 3500 
L 1159 3500 
L 1159 2956 
Q 1356 3278 1631 3431 
Q 1906 3584 2284 3584 
Q 2666 3584 2933 3390 
Q 3200 3197 3328 2828 
z
" transform="scale(0.015625)"/>
       <path id="DejaVuSans-b2" d="M 838 2444 
L 2163 2444 
L 2163 2088 
L 294 2088 
L 294 2431 
Q 400 2528 597 2703 
Q 1672 3656 1672 3950 
Q 1672 4156 1509 4282 
Q 1347 4409 1081 4409 
Q 919 4409 728 4354 
Q 538 4300 313 4191 
L 313 4575 
Q 553 4663 761 4706 
Q 969 4750 1147 4750 
Q 1600 4750 1872 4544 
Q 2144 4338 2144 4000 
Q 2144 3566 1109 2678 
Q 934 2528 838 2444 
z
" transform="scale(0.015625)"/>
       <path id="DejaVuSans-29" d="M 513 4856 
L 1013 4856 
Q 1481 4119 1714 3412 
Q 1947 2706 1947 2009 
Q 1947 1309 1714 600 
Q 1481 -109 1013 -844 
L 513 -844 
Q 928 -128 1133 580 
Q 1338 1288 1338 2009 
Q 1338 2731 1133 3434 
Q 928 4138 513 4856 
z
" transform="scale(0.015625)"/>
      </defs>
      <use xlink:href="#DejaVuSans-42"/>
      <use xlink:href="#DejaVuSans-4d" transform="translate(68.603516 0)"/>
      <use xlink:href="#DejaVuSans-49" transform="translate(154.882812 0)"/>
      <use xlink:href="#DejaVuSans-20" transform="translate(184.375 0)"/>
      <use xlink:href="#DejaVuSans-28" transform="translate(216.162109 0)"/>
      <use xlink:href="#DejaVuSans-6b" transform="translate(255.175781 0)"/>
      <use xlink:href="#DejaVuSans-67" transform="translate(313.085938 0)"/>
      <use xlink:href="#DejaVuSans-2f" transform="translate(376.5625 0)"/>
      <use xlink:href="#DejaVuSans-6d" transform="translate(410.253906 0)"/>
      <use xlink:href="#DejaVuSans-b2" transform="translate(507.666016 0)"/>
      <use xlink:href="#DejaVuSans-29" transform="translate(547.753906 0)"/>
     </g>
    </g>
   </g>
   <g id="matplotlib.axis_2">
    <g id="ytick_1">
     <g id="line2d_13">
      <path d="M 65.84 245.56 
L 486.21 245.56 
" clip-path="url(#p8544aad994)" style="fill: none; stroke: #d8dee9; stroke-opacity: 0.4; stroke-width: 0.8; stroke-linecap: square"/>
     </g>
     <g id="line2d_14">
      <defs>
       <path id="m2ff4186d6d" d="M 0 0 
L -3.5 0 
" style="stroke: #434c5e; stroke-width: 0.8"/>
      </defs>
      <g>
       <use xlink:href="#m2ff4186d6d" x="65.84" y="245.56" style="fill: #434c5e; stroke: #434c5e; stroke-width: 0.8"/>
      </g>
     </g>
     <g id="text_8">
      <!-- −0.20 -->
      <g style="fill: #434c5e" transform="translate(25.130156 249.739141) scale(0.11 -0.11)">
       <defs>
        <path id="DejaVuSans-2212" d="M 678 2272 
L 4684 2272 
L 4684 1741 
L 678 1741 
L 678 2272 
z
" transform="scale(0.015625)"/>
        <path id="DejaVuSans-2e" d="M 684 794 
L 1344 794 
L 1344 0 
L 684 0 
L 684 794 
z
" transform="scale(0.015625)"/>
       </defs>
       <use xlink:href="#DejaVuSans-2212"/>
       <use xlink:href="#DejaVuSans-30" transform="translate(83.789062 0)"/>
       <use xlink:href="#DejaVuSans-2e" transform="translate(147.412109 0)"/>
       <use xlink:href="#DejaVuSans-32" transform="translate(179.199219 0)"/>
       <use xlink:href="#DejaVuSans-30" transform="translate(242.822266 0)"/>
      </g>
     </g>
    </g>
    <g id="ytick_2">
     <g id="line2d_15">
      <path d="M 65.84 218.195 
L 486.21 218.195 
" clip-path="url(#p8544aad994)" style="fill: none; stroke: #d8dee9; stroke-opacity: 0.4; stroke-width: 0.8; stroke-linecap: square"/>
     </g>
     <g id="line2d_16">
      <g>
       <use xlink:href="#m2ff4186d6d" x="65.84" y="218.195" style="fill: #434c5e; stroke: #434c5e; stroke-width: 0.8"/>
      </g>
     </g>
     <g id="text_9">
      <!-- −0.15 -->
      <g style="fill: #434c5e" transform="translate(25.130156 222.374141) scale(0.11 -0.11)">
       <defs>
        <path id="DejaVuSans-31" d="M 794 531 
L 1825 531 
L 1825 4091 
L 703 3866 
L 703 4441 
L 1819 4666 
L 2450 4666 
L 2450 531 
L 3481 531 
L 3481 0 
L 794 0 
L 794 531 
z
" transform="scale(0.015625)"/>
       </defs>
       <use xlink:href="#DejaVuSans-2212"/>
       <use xlink:href="#DejaVuSans-30" transform="translate(83.789062 0)"/>
       <use xlink:href="#DejaVuSans-2e" transform="translate(147.412109 0)"/>
       <use xlink:href="#DejaVuSans-31" transform="translate(179.199219 0)"/>
       <use xlink:href="#DejaVuSans-35" transform="translate(242.822266 0)"/>
      </g>
     </g>
    </g>
    <g id="ytick_3">
     <g id="line2d_17">
      <path d="M 65.84 190.83 
L 486.21 190.83 
" clip-path="url(#p8544aad994)" style="fill: none; stroke: #d8dee9; stroke-opacity: 0.4; stroke-width: 0.8; stroke-linecap: square"/>
     </g>
     <g id="line2d_18">
      <g>
       <use xlink:href="#m2ff4186d6d" x="65.84" y="190.83" style="fill: #434c5e; stroke: #434c5e; stroke-width: 0.8"/>
      </g>
     </g>
     <g id="text_10">
      <!-- −0.10 -->
      <g style="fill: #434c5e" transform="translate(25.130156 195.009141) scale(0.11 -0.11)">
       <use xlink:href="#DejaVuSans-2212"/>
       <use xlink:href="#DejaVuSans-30" transform="translate(83.789062 0)"/>
       <use xlink:href="#DejaVuSans-2e" transform="translate(147.412109 0)"/>
       <use xlink:href="#DejaVuSans-31" transform="translate(179.199219 0)"/>
       <use xlink:href="#DejaVuSans-30" transform="translate(242.822266 0)"/>
      </g>
     </g>
    </g>
    <g id="ytick_4">
     <g id="line2d_19">
      <path d="M 65.84 163.465 
L 486.21 163.465 
" clip-path="url(#p8544aad994)" style="fill: none; stroke: #d8dee9; stroke-opacity: 0.4; stroke-width: 0.8; stroke-linecap: square"/>
     </g>
     <g id="line2d_20">
      <g>
       <use xlink:href="#m2ff4186d6d" x="65.84" y="163.465" style="fill: #434c5e; stroke: #434c5e; stroke-width: 0.8"/>
      </g>
     </g>
     <g id="text_11">
      <!-- −0.05 -->
      <g style="fill: #434c5e" transform="translate(25.130156 167.644141) scale(0.11 -0.11)">
       <use xlink:href="#DejaVuSans-2212"/>
       <use xlink:href="#DejaVuSans-30" transform="translate(83.789062 0)"/>
       <use xlink:href="#DejaVuSans-2e" transform="translate(147.412109 0)"/>
       <use xlink:href="#DejaVuSans-30" transform="translate(179.199219 0)"/>
       <use xlink:href="#DejaVuSans-35" transform="translate(242.822266 0)"/>
      </g>
     </g>
    </g>
    <g id="ytick_5">
     <g id="line2d_21">
      <path d="M 65.84 136.1 
L 486.21 136.1 
" clip-path="url(#p8544aad994)" style="fill: none; stroke: #d8dee9; stroke-opacity: 0.4; stroke-width: 0.8; stroke-linecap: square"/>
     </g>
     <g id="line2d_22">
      <g>
       <use xlink:href="#m2ff4186d6d" x="65.84" y="136.1" style="fill: #434c5e; stroke: #434c5e; stroke-width: 0.8"/>
      </g>
     </g>
     <g id="text_12">
      <!-- 0.00 -->
      <g style="fill: #434c5e" transform="translate(34.347813 140.279141) scale(0.11 -0.11)">
       <use xlink:href="#DejaVuSans-30"/>
       <use xlink:href="#DejaVuSans-2e" transform="translate(63.623047 0)"/>
       <use xlink:href="#DejaVuSans-30" transform="translate(95.410156 0)"/>
       <use xlink:href="#DejaVuSans-30" transform="translate(159.033203 0)"/>
      </g>
     </g>
    </g>
    <g id="ytick_6">
     <g id="line2d_23">
      <path d="M 65.84 108.735 
L 486.21 108.735 
" clip-path="url(#p8544aad994)" style="fill: none; stroke: #d8dee9; stroke-opacity: 0.4; stroke-width: 0.8; stroke-linecap: square"/>
     </g>
     <g id="line2d_24">
      <g>
       <use xlink:href="#m2ff4186d6d" x="65.84" y="108.735" style="fill: #434c5e; stroke: #434c5e; stroke-width: 0.8"/>
      </g>
     </g>
     <g id="text_13">
      <!-- 0.05 -->
      <g style="fill: #434c5e" transform="translate(34.347813 112.914141) scale(0.11 -0.11)">
       <use xlink:href="#DejaVuSans-30"/>
       <use xlink:href="#DejaVuSans-2e" transform="translate(63.623047 0)"/>
       <use xlink:href="#DejaVuSans-30" transform="translate(95.410156 0)"/>
       <use xlink:href="#DejaVuSans-35" transform="translate(159.033203 0)"/>
      </g>
     </g>
    </g>
    <g id="ytick_7">
     <g id="line2d_25">
      <path d="M 65.84 81.37 
L 486.21 81.37 
" clip-path="url(#p8544aad994)" style="fill: none; stroke: #d8dee9; stroke-opacity: 0.4; stroke-width: 0.8; stroke-linecap: square"/>
     </g>
     <g id="line2d_26">
      <g>
       <use xlink:href="#m2ff4186d6d" x="65.84" y="81.37" style="fill: #434c5e; stroke: #434c5e; stroke-width: 0.8"/>
      </g>
     </g>
     <g id="text_14">
      <!-- 0.10 -->
      <g style="fill: #434c5e" transform="translate(34.347813 85.549141) scale(0.11 -0.11)">
       <use xlink:href="#DejaVuSans-30"/>
       <use xlink:href="#DejaVuSans-2e" transform="translate(63.623047 0)"/>
       <use xlink:href="#DejaVuSans-31" transform="translate(95.410156 0)"/>
       <use xlink:href="#DejaVuSans-30" transform="translate(159.033203 0)"/>
      </g>
     </g>
    </g>
    <g id="ytick_8">
     <g id="line2d_27">
      <path d="M 65.84 54.005 
L 486.21 54.005 
" clip-path="url(#p8544aad994)" style="fill: none; stroke: #d8dee9; stroke-opacity: 0.4; stroke-width: 0.8; stroke-linecap: square"/>
     </g>
     <g id="line2d_28">
      <g>
       <use xlink:href="#m2ff4186d6d" x="65.84" y="54.005" style="fill: #434c5e; stroke: #434c5e; stroke-width: 0.8"/>
      </g>
     </g>
     <g id="text_15">
      <!-- 0.15 -->
      <g style="fill: #434c5e" transform="translate(34.347813 58.184141) scale(0.11 -0.11)">
       <use xlink:href="#DejaVuSans-30"/>
       <use xlink:href="#DejaVuSans-2e" transform="translate(63.623047 0)"/>
       <use xlink:href="#DejaVuSans-31" transform="translate(95.410156 0)"/>
       <use xlink:href="#DejaVuSans-35" transform="translate(159.033203 0)"/>
      </g>
     </g>
    </g>
    <g id="ytick_9">
     <g id="line2d_29">
      <path d="M 65.84 26.64 
L 486.21 26.64 
" clip-path="url(#p8544aad994)" style="fill: none; stroke: #d8dee9; stroke-opacity: 0.4; stroke-width: 0.8; stroke-linecap: square"/>
     </g>
     <g id="line2d_30">
      <g>
       <use xlink:href="#m2ff4186d6d" x="65.84" y="26.64" style="fill: #434c5e; stroke: #434c5e; stroke-width: 0.8"/>
      </g>
     </g>
     <g id="text_16">
      <!-- 0.20 -->
      <g style="fill: #434c5e" transform="translate(34.347813 30.819141) scale(0.11 -0.11)">
       <use xlink:href="#DejaVuSans-30"/>
       <use xlink:href="#DejaVuSans-2e" transform="translate(63.623047 0)"/>
       <use xlink:href="#DejaVuSans-32" transform="translate(95.410156 0)"/>
       <use xlink:href="#DejaVuSans-30" transform="translate(159.033203 0)"/>
      </g>
     </g>
    </g>
    <g id="text_17">
     <!-- Δ Probabilité (High − autre) -->
     <g style="fill: #434c5e" transform="translate(19.050469 205.21875) rotate(-90) scale(0.1 -0.1)">
      <defs>
       <path id="DejaVuSans-394" d="M 2188 4044 
L 906 525 
L 3472 525 
L 2188 4044 
z
M 50 0 
L 1831 4666 
L 2547 4666 
L 4325 0 
L 50 0 
z
" transform="scale(0.015625)"/>
       <path id="DejaVuSans-50" d="M 1259 4147 
L 1259 2394 
L 2053 2394 
Q 2494 2394 2734 2622 
Q 2975 2850 2975 3272 
Q 2975 3691 2734 3919 
Q 2494 4147 2053 4147 
L 1259 4147 
z
M 628 4666 
L 2053 4666 
Q 2838 4666 3239 4311 
Q 3641 3956 3641 3272 
Q 3641 2581 3239 2228 
Q 2838 1875 2053 1875 
L 1259 1875 
L 1259 0 
L 628 0 
L 628 4666 
z
" transform="scale(0.015625)"/>
       <path id="DejaVuSans-72" d="M 2631 2963 
Q 2534 3019 2420 3045 
Q 2306 3072 2169 3072 
Q 1681 3072 1420 2755 
Q 1159 2438 1159 1844 
L 1159 0 
L 581 0 
L 581 3500 
L 1159 3500 
L 1159 2956 
Q 1341 3275 1631 3429 
Q 1922 3584 2338 3584 
Q 2397 3584 2469 3576 
Q 2541 3569 2628 3553 
L 2631 2963 
z
" transform="scale(0.015625)"/>
       <path id="DejaVuSans-6f" d="M 1959 3097 
Q 1497 3097 1228 2736 
Q 959 2375 959 1747 
Q 959 1119 1226 758 
Q 1494 397 1959 397 
Q 2419 397 2687 759 
Q 2956 1122 2956 1747 
Q 2956 2369 2687 2733 
Q 2419 3097 1959 3097 
z
M 1959 3584 
Q 2709 3584 3137 3096 
Q 3566 2609 3566 1747 
Q 3566 888 3137 398 
Q 2709 -91 1959 -91 
Q 1206 -91 779 398 
Q 353 888 353 1747 
Q 353 2609 779 3096 
Q 1206 3584 1959 3584 
z
" transform="scale(0.015625)"/>
       <path id="DejaVuSans-62" d="M 3116 1747 
Q 3116 2381 2855 2742 
Q 2594 3103 2138 3103 
Q 1681 3103 1420 2742 
Q 1159 2381 1159 1747 
Q 1159 1113 1420 752 
Q 1681 391 2138 391 
Q 2594 391 2855 752 
Q 3116 1113 3116 1747 
z
M 1159 2969 
Q 1341 3281 1617 3432 
Q 1894 3584 2278 3584 
Q 2916 3584 3314 3078 
Q 3713 2572 3713 1747 
Q 3713 922 3314 415 
Q 2916 -91 2278 -91 
Q 1894 -91 1617 61 
Q 1341 213 1159 525 
L 1159 0 
L 581 0 
L 581 4863 
L 1159 4863 
L 1159 2969 
z
" transform="scale(0.015625)"/>
       <path id="DejaVuSans-61" d="M 2194 1759 
Q 1497 1759 1228 1600 
Q 959 1441 959 1056 
Q 959 750 1161 570 
Q 1363 391 1709 391 
Q 2188 391 2477 730 
Q 2766 1069 2766 1631 
L 2766 1759 
L 2194 1759 
z
M 3341 1997 
L 3341 0 
L 2766 0 
L 2766 531 
Q 2569 213 2275 61 
Q 1981 -91 1556 -91 
Q 1019 -91 701 211 
Q 384 513 384 1019 
Q 384 1609 779 1909 
Q 1175 2209 1959 2209 
L 2766 2209 
L 2766 2266 
Q 2766 2663 2505 2880 
Q 2244 3097 1772 3097 
Q 1472 3097 1187 3025 
Q 903 2953 641 2809 
L 641 3341 
Q 956 3463 1253 3523 
Q 1550 3584 1831 3584 
Q 2591 3584 2966 3190 
Q 3341 2797 3341 1997 
z
" transform="scale(0.015625)"/>
       <path id="DejaVuSans-69" d="M 603 3500 
L 1178 3500 
L 1178 0 
L 603 0 
L 603 3500 
z
M 603 4863 
L 1178 4863 
L 1178 4134 
L 603 4134 
L 603 4863 
z
" transform="scale(0.015625)"/>
       <path id="DejaVuSans-6c" d="M 603 4863 
L 1178 4863 
L 1178 0 
L 603 0 
L 603 4863 
z
" transform="scale(0.015625)"/>
       <path id="DejaVuSans-74" d="M 1172 4494 
L 1172 3500 
L 2356 3500 
L 2356 3053 
L 1172 3053 
L 1172 1153 
Q 1172 725 1289 603 
Q 1406 481 1766 481 
L 2356 481 
L 2356 0 
L 1766 0 
Q 1100 0 847 248 
Q 594 497 594 1153 
L 594 3053 
L 172 3053 
L 172 3500 
L 594 3500 
L 594 4494 
L 1172 4494 
z
" transform="scale(0.015625)"/>
       <path id="DejaVuSans-e9" d="M 3597 1894 
L 3597 1613 
L 953 1613 
Q 991 1019 1311 708 
Q 1631 397 2203 397 
Q 2534 397 2845 478 
Q 3156 559 3463 722 
L 3463 178 
Q 3153 47 2828 -22 
Q 2503 -91 2169 -91 
Q 1331 -91 842 396 
Q 353 884 353 1716 
Q 353 2575 817 3079 
Q 1281 3584 2069 3584 
Q 2775 3584 3186 3129 
Q 3597 2675 3597 1894 
z
M 3022 2063 
Q 3016 2534 2758 2815 
Q 2500 3097 2075 3097 
Q 1594 3097 1305 2825 
Q 1016 2553 972 2059 
L 3022 2063 
z
M 2466 5119 
L 3088 5119 
L 2070 3944 
L 1591 3944 
L 2466 5119 
z
" transform="scale(0.015625)"/>
       <path id="DejaVuSans-48" d="M 628 4666 
L 1259 4666 
L 1259 2753 
L 3553 2753 
L 3553 4666 
L 4184 4666 
L 4184 0 
L 3553 0 
L 3553 2222 
L 1259 2222 
L 1259 0 
L 628 0 
L 628 4666 
z
" transform="scale(0.015625)"/>
       <path id="DejaVuSans-68" d="M 3513 2113 
L 3513 0 
L 2938 0 
L 2938 2094 
Q 2938 2591 2744 2837 
Q 2550 3084 2163 3084 
Q 1697 3084 1428 2787 
Q 1159 2491 1159 1978 
L 1159 0 
L 581 0 
L 581 4863 
L 1159 4863 
L 1159 2956 
Q 1366 3272 1645 3428 
Q 1925 3584 2291 3584 
Q 2894 3584 3203 3211 
Q 3513 2838 3513 2113 
z
" transform="scale(0.015625)"/>
       <path id="DejaVuSans-75" d="M 544 1381 
L 544 3500 
L 1119 3500 
L 1119 1403 
Q 1119 906 1312 657 
Q 1506 409 1894 409 
Q 2359 409 2629 706 
Q 2900 1003 2900 1516 
L 2900 3500 
L 3475 3500 
L 3475 0 
L 2900 0 
L 2900 538 
Q 2691 219 2414 64 
Q 2138 -91 1772 -91 
Q 1169 -91 856 284 
Q 544 659 544 1381 
z
M 1991 3584 
L 1991 3584 
z
" transform="scale(0.015625)"/>
       <path id="DejaVuSans-65" d="M 3597 1894 
L 3597 1613 
L 953 1613 
Q 991 1019 1311 708 
Q 1631 397 2203 397 
Q 2534 397 2845 478 
Q 3156 559 3463 722 
L 3463 178 
Q 3153 47 2828 -22 
Q 2503 -91 2169 -91 
Q 1331 -91 842 396 
Q 353 884 353 1716 
Q 353 2575 817 3079 
Q 1281 3584 2069 3584 
Q 2775 3584 3186 3129 
Q 3597 2675 3597 1894 
z
M 3022 2063 
Q 3016 2534 2758 2815 
Q 2500 3097 2075 3097 
Q 1594 3097 1305 2825 
Q 1016 2553 972 2059 
L 3022 2063 
z
" transform="scale(0.015625)"/>
      </defs>
      <use xlink:href="#DejaVuSans-394"/>
      <use xlink:href="#DejaVuSans-20" transform="translate(68.408203 0)"/>
      <use xlink:href="#DejaVuSans-50" transform="translate(100.195312 0)"/>
      <use xlink:href="#DejaVuSans-72" transform="translate(158.748047 0)"/>
      <use xlink:href="#DejaVuSans-6f" transform="translate(197.611328 0)"/>
      <use xlink:href="#DejaVuSans-62" transform="translate(258.792969 0)"/>
      <use xlink:href="#DejaVuSans-61" transform="translate(322.269531 0)"/>
      <use xlink:href="#DejaVuSans-62" transform="translate(383.548828 0)"/>
      <use xlink:href="#DejaVuSans-69" transform="translate(447.025391 0)"/>
      <use xlink:href="#DejaVuSans-6c" transform="translate(474.808594 0)"/>
      <use xlink:href="#DejaVuSans-69" transform="translate(502.591797 0)"/>
      <use xlink:href="#DejaVuSans-74" transform="translate(530.375 0)"/>
      <use xlink:href="#DejaVuSans-e9" transform="translate(569.583984 0)"/>
      <use xlink:href="#DejaVuSans-20" transform="translate(631.107422 0)"/>
      <use xlink:href="#DejaVuSans-28" transform="translate(662.894531 0)"/>
      <use xlink:href="#DejaVuSans-48" transform="translate(701.908203 0)"/>
      <use xlink:href="#DejaVuSans-69" transform="translate(777.103516 0)"/>
      <use xlink:href="#DejaVuSans-67" transform="translate(804.886719 0)"/>
      <use xlink:href="#DejaVuSans-68" transform="translate(868.363281 0)"/>
      <use xlink:href="#DejaVuSans-20" transform="translate(931.742188 0)"/>
      <use xlink:href="#DejaVuSans-2212" transform="translate(963.529297 0)"/>
      <use xlink:href="#DejaVuSans-20" transform="translate(1047.318359 0)"/>
      <use xlink:href="#DejaVuSans-61" transform="translate(1079.105469 0)"/>
      <use xlink:href="#DejaVuSans-75" transform="translate(1140.384766 0)"/>
      <use xlink:href="#DejaVuSans-74" transform="translate(1203.763672 0)"/>
      <use xlink:href="#DejaVuSans-72" transform="translate(1242.972656 0)"/>
      <use xlink:href="#DejaVuSans-65" transform="translate(1281.835938 0)"/>
      <use xlink:href="#DejaVuSans-29" transform="translate(1343.359375 0)"/>
     </g>
    </g>
   </g>
   <g id="line2d_31">
    <path d="M 65.84 78.660954 
L 89.076533 72.254769 
L 112.313065 66.087545 
L 133.437186 60.69897 
L 154.561307 55.526289 
L 175.685427 50.576079 
L 196.809548 45.853535 
L 217.933668 41.362504 
L 239.057789 37.105536 
L 260.18191 33.083946 
L 281.30603 29.297879 
L 302.430151 25.746391 
L 323.554271 22.427532 
L 344.678392 19.338432 
L 365.802513 16.475393 
L 386.926633 13.833976 
L 408.050754 11.409095 
L 429.174874 9.195103 
L 452.411407 6.995966 
L 475.64794 5.035892 
L 486.21 4.221516 
L 486.21 4.221516 
" clip-path="url(#p8544aad994)" style="fill: none; stroke: #a3be8c; stroke-width: 1.5; stroke-linecap: square"/>
   </g>
   <g id="line2d_32">
    <path d="M 65.84 85.568719 
L 93.301357 78.818097 
L 118.650302 72.816699 
L 143.999246 67.0498 
L 167.235779 61.979247 
L 190.472312 57.12268 
L 213.708844 52.486073 
L 236.945377 48.074056 
L 260.18191 43.889956 
L 283.418442 39.935847 
L 306.654975 36.212612 
L 329.891508 32.720013 
L 353.12804 29.456769 
L 376.364573 26.420636 
L 399.601106 23.608497 
L 422.837638 21.016448 
L 446.074171 18.639883 
L 469.310704 16.473587 
L 486.21 15.026908 
L 486.21 15.026908 
" clip-path="url(#p8544aad994)" style="fill: none; stroke: #d08770; stroke-width: 1.5; stroke-linecap: square"/>
   </g>
   <g id="line2d_33">
    <path d="M 65.84 136.1 
L 486.21 136.1 
" clip-path="url(#p8544aad994)" style="fill: none; stroke: #d8dee9; stroke-linecap: square"/>
   </g>
   <g id="patch_3">
    <path d="M 65.84 245.56 
L 65.84 26.64 
" style="fill: none; stroke: #434c5e; stroke-width: 0.8; stroke-linejoin: miter; stroke-linecap: square"/>
   </g>
   <g id="patch_4">
    <path d="M 486.21 245.56 
L 486.21 26.64 
" style="fill: none; stroke: #434c5e; stroke-width: 0.8; stroke-linejoin: miter; stroke-linecap: square"/>
   </g>
   <g id="patch_5">
    <path d="M 65.84 245.56 
L 486.21 245.56 
" style="fill: none; stroke: #434c5e; stroke-width: 0.8; stroke-linejoin: miter; stroke-linecap: square"/>
   </g>
   <g id="patch_6">
    <path d="M 65.84 26.64 
L 486.21 26.64 
" style="fill: none; stroke: #434c5e; stroke-width: 0.8; stroke-linejoin: miter; stroke-linecap: square"/>
   </g>
   <g id="text_18">
    <!-- Interaction p=0.005 -->
    <g style="fill: #4c566a" transform="translate(74.2474 234.614) scale(0.1 -0.1)">
     <defs>
      <path id="DejaVuSans-6e" d="M 3513 2113 
L 3513 0 
L 2938 0 
L 2938 2094 
Q 2938 2591 2744 2837 
Q 2550 3084 2163 3084 
Q 1697 3084 1428 2787 
Q 1159 2491 1159 1978 
L 1159 0 
L 581 0 
L 581 3500 
L 1159 3500 
L 1159 2956 
Q 1366 3272 1645 3428 
Q 1925 3584 2291 3584 
Q 2894 3584 3203 3211 
Q 3513 2838 3513 2113 
z
" transform="scale(0.015625)"/>
      <path id="DejaVuSans-63" d="M 3122 3366 
L 3122 2828 
Q 2878 2963 2633 3030 
Q 2388 3097 2138 3097 
Q 1578 3097 1268 2742 
Q 959 2388 959 1747 
Q 959 1106 1268 751 
Q 1578 397 2138 397 
Q 2388 397 2633 464 
Q 2878 531 3122 666 
L 3122 134 
Q 2881 22 2623 -34 
Q 2366 -91 2075 -91 
Q 1284 -91 818 406 
Q 353 903 353 1747 
Q 353 2603 823 3093 
Q 1294 3584 2113 3584 
Q 2378 3584 2631 3529 
Q 2884 3475 3122 3366 
z
" transform="scale(0.015625)"/>
      <path id="DejaVuSans-70" d="M 1159 525 
L 1159 -1331 
L 581 -1331 
L 581 3500 
L 1159 3500 
L 1159 2969 
Q 1341 3281 1617 3432 
Q 1894 3584 2278 3584 
Q 2916 3584 3314 3078 
Q 3713 2572 3713 1747 
Q 3713 922 3314 415 
Q 2916 -91 2278 -91 
Q 1894 -91 1617 61 
Q 1341 213 1159 525 
z
M 3116 1747 
Q 3116 2381 2855 2742 
Q 2594 3103 2138 3103 
Q 1681 3103 1420 2742 
Q 1159 2381 1159 1747 
Q 1159 1113 1420 752 
Q 1681 391 2138 391 
Q 2594 391 2855 752 
Q 3116 1113 3116 1747 
z
" transform="scale(0.015625)"/>
      <path id="DejaVuSans-3d" d="M 678 2906 
L 4684 2906 
L 4684 2381 
L 678 2381 
L 678 2906 
z
M 678 1631 
L 4684 1631 
L 4684 1100 
L 678 1100 
L 678 1631 
z
" transform="scale(0.015625)"/>
     </defs>
     <use xlink:href="#DejaVuSans-49"/>
     <use xlink:href="#DejaVuSans-6e" transform="translate(29.492188 0)"/>
     <use xlink:href="#DejaVuSans-74" transform="translate(92.871094 0)"/>
     <use xlink:href="#DejaVuSans-65" transform="translate(132.080078 0)"/>
     <use xlink:href="#DejaVuSans-72" transform="translate(193.603516 0)"/>
     <use xlink:href="#DejaVuSans-61" transform="translate(234.716797 0)"/>
     <use xlink:href="#DejaVuSans-63" transform="translate(295.996094 0)"/>
     <use xlink:href="#DejaVuSans-74" transform="translate(350.976562 0)"/>
     <use xlink:href="#DejaVuSans-69" transform="translate(390.185547 0)"/>
     <use xlink:href="#DejaVuSans-6f" transform="translate(417.96875 0)"/>
     <use xlink:href="#DejaVuSans-6e" transform="translate(479.150391 0)"/>
     <use xlink:href="#DejaVuSans-20" transform="translate(542.529297 0)"/>
     <use xlink:href="#DejaVuSans-70" transform="translate(574.316406 0)"/>
     <use xlink:href="#DejaVuSans-3d" transform="translate(637.792969 0)"/>
     <use xlink:href="#DejaVuSans-30" transform="translate(721.582031 0)"/>
     <use xlink:href="#DejaVuSans-2e" transform="translate(785.205078 0)"/>
     <use xlink:href="#DejaVuSans-30" transform="translate(816.992188 0)"/>
     <use xlink:href="#DejaVuSans-30" transform="translate(880.615234 0)"/>
     <use xlink:href="#DejaVuSans-35" transform="translate(944.238281 0)"/>
    </g>
   </g>
   <g id="text_19">
    <!-- Interaction BMI×volume – différence de probabilité -->
    <g style="fill: #4c566a" transform="translate(122.757813 20.64) scale(0.12 -0.12)">
     <defs>
      <path id="DejaVuSans-d7" d="M 4488 3438 
L 3059 2003 
L 4488 575 
L 4116 197 
L 2681 1631 
L 1247 197 
L 878 575 
L 2303 2003 
L 878 3438 
L 1247 3816 
L 2681 2381 
L 4116 3816 
L 4488 3438 
z
" transform="scale(0.015625)"/>
      <path id="DejaVuSans-76" d="M 191 3500 
L 800 3500 
L 1894 563 
L 2988 3500 
L 3597 3500 
L 2284 0 
L 1503 0 
L 191 3500 
z
" transform="scale(0.015625)"/>
      <path id="DejaVuSans-2013" d="M 313 1978 
L 2888 1978 
L 2888 1528 
L 313 1528 
L 313 1978 
z
" transform="scale(0.015625)"/>
      <path id="DejaVuSans-64" d="M 2906 2969 
L 2906 4863 
L 3481 4863 
L 3481 0 
L 2906 0 
L 2906 525 
Q 2725 213 2448 61 
Q 2172 -91 1784 -91 
Q 1150 -91 751 415 
Q 353 922 353 1747 
Q 353 2572 751 3078 
Q 1150 3584 1784 3584 
Q 2172 3584 2448 3432 
Q 2725 3281 2906 2969 
z
M 947 1747 
Q 947 1113 1208 752 
Q 1469 391 1925 391 
Q 2381 391 2643 752 
Q 2906 1113 2906 1747 
Q 2906 2381 2643 2742 
Q 2381 3103 1925 3103 
Q 1469 3103 1208 2742 
Q 947 2381 947 1747 
z
" transform="scale(0.015625)"/>
      <path id="DejaVuSans-66" d="M 2375 4863 
L 2375 4384 
L 1825 4384 
Q 1516 4384 1395 4259 
Q 1275 4134 1275 3809 
L 1275 3500 
L 2222 3500 
L 2222 3053 
L 1275 3053 
L 1275 0 
L 697 0 
L 697 3053 
L 147 3053 
L 147 3500 
L 697 3500 
L 697 3744 
Q 697 4328 969 4595 
Q 1241 4863 1831 4863 
L 2375 4863 
z
" transform="scale(0.015625)"/>
     </defs>
     <use xlink:href="#DejaVuSans-49"/>
     <use xlink:href="#DejaVuSans-6e" transform="translate(29.492188 0)"/>
     <use xlink:href="#DejaVuSans-74" transform="translate(92.871094 0)"/>
     <use xlink:href="#DejaVuSans-65" transform="translate(132.080078 0)"/>
     <use xlink:href="#DejaVuSans-72" transform="translate(193.603516 0)"/>
     <use xlink:href="#DejaVuSans-61" transform="translate(234.716797 0)"/>
     <use xlink:href="#DejaVuSans-63" transform="translate(295.996094 0)"/>
     <use xlink:href="#DejaVuSans-74" transform="translate(350.976562 0)"/>
     <use xlink:href="#DejaVuSans-69" transform="translate(390.185547 0)"/>
     <use xlink:href="#DejaVuSans-6f" transform="translate(417.96875 0)"/>
     <use xlink:href="#DejaVuSans-6e" transform="translate(479.150391 0)"/>
     <use xlink:href="#DejaVuSans-20" transform="translate(542.529297 0)"/>
     <use xlink:href="#DejaVuSans-42" transform="translate(574.316406 0)"/>
     <use xlink:href="#DejaVuSans-4d" transform="translate(642.919922 0)"/>
     <use xlink:href="#DejaVuSans-49" transform="translate(729.199219 0)"/>
     <use xlink:href="#DejaVuSans-d7" transform="translate(758.691406 0)"/>
     <use xlink:href="#DejaVuSans-76" transform="translate(842.480469 0)"/>
     <use xlink:href="#DejaVuSans-6f" transform="translate(901.660156 0)"/>
     <use xlink:href="#DejaVuSans-6c" transform="translate(962.841797 0)"/>
     <use xlink:href="#DejaVuSans-75" transform="translate(990.625 0)"/>
     <use xlink:href="#DejaVuSans-6d" transform="translate(1054.003906 0)"/>
     <use xlink:href="#DejaVuSans-65" transform="translate(1151.416016 0)"/>
     <use xlink:href="#DejaVuSans-20" transform="translate(1212.939453 0)"/>
     <use xlink:href="#DejaVuSans-2013" transform="translate(1244.726562 0)"/>
     <use xlink:href="#DejaVuSans-20" transform="translate(1294.726562 0)"/>
     <use xlink:href="#DejaVuSans-64" transform="translate(1326.513672 0)"/>
     <use xlink:href="#DejaVuSans-69" transform="translate(1389.990234 0)"/>
     <use xlink:href="#DejaVuSans-66" transform="translate(1417.773438 0)"/>
     <use xlink:href="#DejaVuSans-66" transform="translate(1452.978516 0)"/>
     <use xlink:href="#DejaVuSans-e9" transform="translate(1488.183594 0)"/>
     <use xlink:href="#DejaVuSans-72" transform="translate(1549.707031 0)"/>
     <use xlink:href="#DejaVuSans-65" transform="translate(1588.570312 0)"/>
     <use xlink:href="#DejaVuSans-6e" transform="translate(1650.09375 0)"/>
     <use xlink:href="#DejaVuSans-63" transform="translate(1713.472656 0)"/>
     <use xlink:href="#DejaVuSans-65" transform="translate(1768.453125 0)"/>
     <use xlink:href="#DejaVuSans-20" transform="translate(1829.976562 0)"/>
     <use xlink:href="#DejaVuSans-64" transform="translate(1861.763672 0)"/>
     <use xlink:href="#DejaVuSans-65" transform="translate(1925.240234 0)"/>
     <use xlink:href="#DejaVuSans-20" transform="translate(1986.763672 0)"/>
     <use xlink:href="#DejaVuSans-70" transform="translate(2018.550781 0)"/>
     <use xlink:href="#DejaVuSans-72" transform="translate(2082.027344 0)"/>
     <use xlink:href="#DejaVuSans-6f" transform="translate(2120.890625 0)"/>
     <use xlink:href="#DejaVuSans-62" transform="translate(2182.072266 0)"/>
     <use xlink:href="#DejaVuSans-61" transform="translate(2245.548828 0)"/>
     <use xlink:href="#DejaVuSans-62" transform="translate(2306.828125 0)"/>
     <use xlink:href="#DejaVuSans-69" transform="translate(2370.304688 0)"/>
     <use xlink:href="#DejaVuSans-6c" transform="translate(2398.087891 0)"/>
     <use xlink:href="#DejaVuSans-69" transform="translate(2425.871094 0)"/>
     <use xlink:href="#DejaVuSans-74" transform="translate(2453.654297 0)"/>
     <use xlink:href="#DejaVuSans-e9" transform="translate(2492.863281 0)"/>
    </g>
   </g>
   <g id="legend_1">
    <g id="text_20">
     <!-- Comparaison -->
     <g transform="translate(407.06625 43.238438) scale(0.1 -0.1)">
      <defs>
       <path id="DejaVuSans-43" d="M 4122 4306 
L 4122 3641 
Q 3803 3938 3442 4084 
Q 3081 4231 2675 4231 
Q 1875 4231 1450 3742 
Q 1025 3253 1025 2328 
Q 1025 1406 1450 917 
Q 1875 428 2675 428 
Q 3081 428 3442 575 
Q 3803 722 4122 1019 
L 4122 359 
Q 3791 134 3420 21 
Q 3050 -91 2638 -91 
Q 1578 -91 968 557 
Q 359 1206 359 2328 
Q 359 3453 968 4101 
Q 1578 4750 2638 4750 
Q 3056 4750 3426 4639 
Q 3797 4528 4122 4306 
z
" transform="scale(0.015625)"/>
       <path id="DejaVuSans-73" d="M 2834 3397 
L 2834 2853 
Q 2591 2978 2328 3040 
Q 2066 3103 1784 3103 
Q 1356 3103 1142 2972 
Q 928 2841 928 2578 
Q 928 2378 1081 2264 
Q 1234 2150 1697 2047 
L 1894 2003 
Q 2506 1872 2764 1633 
Q 3022 1394 3022 966 
Q 3022 478 2636 193 
Q 2250 -91 1575 -91 
Q 1294 -91 989 -36 
Q 684 19 347 128 
L 347 722 
Q 666 556 975 473 
Q 1284 391 1588 391 
Q 1994 391 2212 530 
Q 2431 669 2431 922 
Q 2431 1156 2273 1281 
Q 2116 1406 1581 1522 
L 1381 1569 
Q 847 1681 609 1914 
Q 372 2147 372 2553 
Q 372 3047 722 3315 
Q 1072 3584 1716 3584 
Q 2034 3584 2315 3537 
Q 2597 3491 2834 3397 
z
" transform="scale(0.015625)"/>
      </defs>
      <use xlink:href="#DejaVuSans-43"/>
      <use xlink:href="#DejaVuSans-6f" transform="translate(69.824219 0)"/>
      <use xlink:href="#DejaVuSans-6d" transform="translate(131.005859 0)"/>
      <use xlink:href="#DejaVuSans-70" transform="translate(228.417969 0)"/>
      <use xlink:href="#DejaVuSans-61" transform="translate(291.894531 0)"/>
      <use xlink:href="#DejaVuSans-72" transform="translate(353.173828 0)"/>
      <use xlink:href="#DejaVuSans-61" transform="translate(394.287109 0)"/>
      <use xlink:href="#DejaVuSans-69" transform="translate(455.566406 0)"/>
      <use xlink:href="#DejaVuSans-73" transform="translate(483.349609 0)"/>
      <use xlink:href="#DejaVuSans-6f" transform="translate(535.449219 0)"/>
      <use xlink:href="#DejaVuSans-6e" transform="translate(596.630859 0)"/>
     </g>
    </g>
    <g id="line2d_34">
     <path d="M 402.924063 54.416562 
L 412.924063 54.416562 
L 422.924063 54.416562 
" style="fill: none; stroke: #a3be8c; stroke-width: 1.5; stroke-linecap: square"/>
    </g>
    <g id="text_21">
     <!-- High-Low -->
     <g transform="translate(430.924063 57.916562) scale(0.1 -0.1)">
      <defs>
       <path id="DejaVuSans-2d" d="M 313 2009 
L 1997 2009 
L 1997 1497 
L 313 1497 
L 313 2009 
z
" transform="scale(0.015625)"/>
       <path id="DejaVuSans-4c" d="M 628 4666 
L 1259 4666 
L 1259 531 
L 3531 531 
L 3531 0 
L 628 0 
L 628 4666 
z
" transform="scale(0.015625)"/>
       <path id="DejaVuSans-77" d="M 269 3500 
L 844 3500 
L 1563 769 
L 2278 3500 
L 2956 3500 
L 3675 769 
L 4391 3500 
L 4966 3500 
L 4050 0 
L 3372 0 
L 2619 2869 
L 1863 0 
L 1184 0 
L 269 3500 
z
" transform="scale(0.015625)"/>
      </defs>
      <use xlink:href="#DejaVuSans-48"/>
      <use xlink:href="#DejaVuSans-69" transform="translate(75.195312 0)"/>
      <use xlink:href="#DejaVuSans-67" transform="translate(102.978516 0)"/>
      <use xlink:href="#DejaVuSans-68" transform="translate(166.455078 0)"/>
      <use xlink:href="#DejaVuSans-2d" transform="translate(229.833984 0)"/>
      <use xlink:href="#DejaVuSans-4c" transform="translate(265.917969 0)"/>
      <use xlink:href="#DejaVuSans-6f" transform="translate(319.880859 0)"/>
      <use xlink:href="#DejaVuSans-77" transform="translate(381.0625 0)"/>
     </g>
    </g>
    <g id="line2d_35">
     <path d="M 402.924063 69.094687 
L 412.924063 69.094687 
L 422.924063 69.094687 
" style="fill: none; stroke: #d08770; stroke-width: 1.5; stroke-linecap: square"/>
    </g>
    <g id="text_22">
     <!-- High-Mid -->
     <g transform="translate(430.924063 72.594687) scale(0.1 -0.1)">
      <use xlink:href="#DejaVuSans-48"/>
      <use xlink:href="#DejaVuSans-69" transform="translate(75.195312 0)"/>
      <use xlink:href="#DejaVuSans-67" transform="translate(102.978516 0)"/>
      <use xlink:href="#DejaVuSans-68" transform="translate(166.455078 0)"/>
      <use xlink:href="#DejaVuSans-2d" transform="translate(229.833984 0)"/>
      <use xlink:href="#DejaVuSans-4d" transform="translate(265.917969 0)"/>
      <use xlink:href="#DejaVuSans-69" transform="translate(352.197266 0)"/>
      <use xlink:href="#DejaVuSans-64" transform="translate(379.980469 0)"/>
     </g>
    </g>
   </g>
  </g>
 </g>
 <defs>
  <clipPath id="p8544aad994">
   <rect x="65.84" y="26.64" width="420.37" height="218.92"/>
  </clipPath>
 </defs>
</svg>
