<?xml version="1.0" encoding="utf-8" standalone="no"?>
<!DOCTYPE svg PUBLIC "-//W3C//DTD SVG 1.1//EN"
  "http://www.w3.org/Graphics/SVG/1.1/DTD/svg11.dtd">
<svg xmlns:xlink="http://www.w3.org/1999/xlink" width="504pt" height="288pt" viewBox="0 0 504 288" xmlns="http://www.w3.org/2000/svg" version="1.1">
 <metadata>
  <rdf:RDF xmlns:dc="http://purl.org/dc/elements/1.1/" xmlns:cc="http://creativecommons.org/ns#" xmlns:rdf="http://www.w3.org/1999/02/22-rdf-syntax-ns#">
   <cc:Work>
    <dc:type rdf:resource="http://purl.org/dc/dcmitype/StillImage"/>
    <dc:date>2025-11-19T19:44:26.669439</dc:date>
    <dc:format>image/svg+xml</dc:format>
    <dc:creator>
     <cc:Agent>
      <dc:title>Matplotlib v3.9.4, https://matplotlib.org/</dc:title>
     </cc:Agent>
    </dc:creator>
   </cc:Work>
  </rdf:RDF>
 </metadata>
 <defs>
  <style type="text/css">*{stroke-linejoin: round; stroke-linecap: butt}</style>
 </defs>
 <g id="figure_1">
  <g id="patch_1">
   <path d="M 0 288 
L 504 288 
L 504 0 
L 0 0 
z
" style="fill: #ffffff"/>
  </g>
  <g id="axes_1">
   <g id="patch_2">
    <path d="M 48.92 245.56 
L 486.21 245.56 
L 486.21 25.92 
L 48.92 25.92 
z
" style="fill: #ffffff"/>
   </g>
   <g id="PolyCollection_1">
    <defs>
     <path id="m58910ee452" d="M 48.92 -215.356119 
L 48.92 -147.513345 
L 51.117437 -147.101462 
L 53.314874 -146.688873 
L 55.512312 -146.275566 
L 57.709749 -145.861526 
L 59.907186 -145.446742 
L 62.104623 -145.031201 
L 64.30206 -144.61489 
L 66.499497 -144.197798 
L 68.696935 -143.779914 
L 70.894372 -143.361226 
L 73.091809 -142.941725 
L 75.289246 -142.5214 
L 77.486683 -142.100242 
L 79.684121 -141.678242 
L 81.881558 -141.255391 
L 84.078995 -140.831682 
L 86.276432 -140.407106 
L 88.473869 -139.981658 
L 90.671307 -139.555331 
L 92.868744 -139.128119 
L 95.066181 -138.700017 
L 97.263618 -138.271021 
L 99.461055 -137.841128 
L 101.658492 -137.410333 
L 103.85593 -136.978635 
L 106.053367 -136.546032 
L 108.250804 -136.112524 
L 110.448241 -135.678109 
L 112.645678 -135.242789 
L 114.843116 -134.806565 
L 117.040553 -134.369438 
L 119.23799 -133.931413 
L 121.435427 -133.492491 
L 123.632864 -133.052679 
L 125.830302 -132.611981 
L 128.027739 -132.170404 
L 130.225176 -131.727954 
L 132.422613 -131.284639 
L 134.62005 -130.840469 
L 136.817487 -130.395452 
L 139.014925 -129.949599 
L 141.212362 -129.502922 
L 143.409799 -129.055432 
L 145.607236 -128.607143 
L 147.804673 -128.158069 
L 150.002111 -127.708224 
L 152.199548 -127.257624 
L 154.396985 -126.806286 
L 156.594422 -126.354228 
L 158.791859 -125.901466 
L 160.989296 -125.448022 
L 163.186734 -124.993914 
L 165.384171 -124.539163 
L 167.581608 -124.083791 
L 169.779045 -123.627821 
L 171.976482 -123.171275 
L 174.17392 -122.714178 
L 176.371357 -122.256554 
L 178.568794 -121.798429 
L 180.766231 -121.339829 
L 182.963668 -120.880781 
L 185.161106 -120.421312 
L 187.358543 -119.961451 
L 189.55598 -119.501227 
L 191.753417 -119.040669 
L 193.950854 -118.579806 
L 196.148291 -118.118671 
L 198.345729 -117.657294 
L 200.543166 -117.195706 
L 202.740603 -116.73394 
L 204.93804 -116.272028 
L 207.135477 -115.810003 
L 209.332915 -115.3479 
L 211.530352 -114.885751 
L 213.727789 -114.42359 
L 215.925226 -113.961453 
L 218.122663 -113.499373 
L 220.320101 -113.037386 
L 222.517538 -112.575527 
L 224.714975 -112.113832 
L 226.912412 -111.652335 
L 229.109849 -111.191072 
L 231.307286 -110.73008 
L 233.504724 -110.269393 
L 235.702161 -109.809048 
L 237.899598 -109.349081 
L 240.097035 -108.889528 
L 242.294472 -108.430423 
L 244.49191 -107.971804 
L 246.689347 -107.513706 
L 248.886784 -107.056163 
L 251.084221 -106.599213 
L 253.281658 -106.142889 
L 255.479095 -105.687227 
L 257.676533 -105.232262 
L 259.87397 -104.778028 
L 262.071407 -104.32456 
L 264.268844 -103.871891 
L 266.466281 -103.420056 
L 268.663719 -102.969088 
L 270.861156 -102.51902 
L 273.058593 -102.069884 
L 275.25603 -101.621715 
L 277.453467 -101.174542 
L 279.650905 -100.728398 
L 281.848342 -100.283315 
L 284.045779 -99.839322 
L 286.243216 -99.396451 
L 288.440653 -98.954732 
L 290.63809 -98.514193 
L 292.835528 -98.074865 
L 295.032965 -97.636774 
L 297.230402 -97.199951 
L 299.427839 -96.764421 
L 301.625276 -96.330213 
L 303.822714 -95.897353 
L 306.020151 -95.465867 
L 308.217588 -95.03578 
L 310.415025 -94.607119 
L 312.612462 -94.179906 
L 314.809899 -93.754167 
L 317.007337 -93.329925 
L 319.204774 -92.907202 
L 321.402211 -92.486022 
L 323.599648 -92.066407 
L 325.797085 -91.648377 
L 327.994523 -91.231954 
L 330.19196 -90.817157 
L 332.389397 -90.404008 
L 334.586834 -89.992524 
L 336.784271 -89.582726 
L 338.981709 -89.174631 
L 341.179146 -88.768257 
L 343.376583 -88.363622 
L 345.57402 -87.960741 
L 347.771457 -87.559632 
L 349.968894 -87.160309 
L 352.166332 -86.762789 
L 354.363769 -86.367086 
L 356.561206 -85.973214 
L 358.758643 -85.581187 
L 360.95608 -85.191018 
L 363.153518 -84.80272 
L 365.350955 -84.416306 
L 367.548392 -84.031787 
L 369.745829 -83.649174 
L 371.943266 -83.268479 
L 374.140704 -82.889712 
L 376.338141 -82.512883 
L 378.535578 -82.138002 
L 380.733015 -81.765077 
L 382.930452 -81.394118 
L 385.127889 -81.025133 
L 387.325327 -80.65813 
L 389.522764 -80.293116 
L 391.720201 -79.930098 
L 393.917638 -79.569083 
L 396.115075 -79.210078 
L 398.312513 -78.853088 
L 400.50995 -78.498119 
L 402.707387 -78.145176 
L 404.904824 -77.794263 
L 407.102261 -77.445386 
L 409.299698 -77.098548 
L 411.497136 -76.753753 
L 413.694573 -76.411005 
L 415.89201 -76.070306 
L 418.089447 -75.73166 
L 420.286884 -75.395068 
L 422.484322 -75.060532 
L 424.681759 -74.728056 
L 426.879196 -74.397639 
L 429.076633 -74.069283 
L 431.27407 -73.74299 
L 433.471508 -73.418759 
L 435.668945 -73.096591 
L 437.866382 -72.776486 
L 440.063819 -72.458444 
L 442.261256 -72.142464 
L 444.458693 -71.828546 
L 446.656131 -71.516688 
L 448.853568 -71.20689 
L 451.051005 -70.899149 
L 453.248442 -70.593464 
L 455.445879 -70.289833 
L 457.643317 -69.988254 
L 459.840754 -69.688725 
L 462.038191 -69.391242 
L 464.235628 -69.095803 
L 466.433065 -68.802405 
L 468.630503 -68.511044 
L 470.82794 -68.221718 
L 473.025377 -67.934422 
L 475.222814 -67.649152 
L 477.420251 -67.365906 
L 479.617688 -67.084677 
L 481.815126 -66.805463 
L 484.012563 -66.528257 
L 486.21 -66.253057 
L 486.21 -113.331524 
L 486.21 -113.331524 
L 484.012563 -113.63268 
L 481.815126 -113.934871 
L 479.617688 -114.238103 
L 477.420251 -114.542382 
L 475.222814 -114.847713 
L 473.025377 -115.154103 
L 470.82794 -115.461558 
L 468.630503 -115.770084 
L 466.433065 -116.079688 
L 464.235628 -116.390377 
L 462.038191 -116.702158 
L 459.840754 -117.015038 
L 457.643317 -117.329023 
L 455.445879 -117.644122 
L 453.248442 -117.960342 
L 451.051005 -118.27769 
L 448.853568 -118.596176 
L 446.656131 -118.915806 
L 444.458693 -119.236589 
L 442.261256 -119.558534 
L 440.063819 -119.881649 
L 437.866382 -120.205943 
L 435.668945 -120.531426 
L 433.471508 -120.858107 
L 431.27407 -121.185995 
L 429.076633 -121.5151 
L 426.879196 -121.845433 
L 424.681759 -122.177002 
L 422.484322 -122.50982 
L 420.286884 -122.843896 
L 418.089447 -123.179242 
L 415.89201 -123.515868 
L 413.694573 -123.853787 
L 411.497136 -124.19301 
L 409.299698 -124.533549 
L 407.102261 -124.875416 
L 404.904824 -125.218623 
L 402.707387 -125.563185 
L 400.50995 -125.909113 
L 398.312513 -126.256421 
L 396.115075 -126.605123 
L 393.917638 -126.955232 
L 391.720201 -127.306764 
L 389.522764 -127.659732 
L 387.325327 -128.014152 
L 385.127889 -128.370039 
L 382.930452 -128.727408 
L 380.733015 -129.086275 
L 378.535578 -129.446656 
L 376.338141 -129.808569 
L 374.140704 -130.17203 
L 371.943266 -130.537055 
L 369.745829 -130.903664 
L 367.548392 -131.271873 
L 365.350955 -131.641701 
L 363.153518 -132.013167 
L 360.95608 -132.38629 
L 358.758643 -132.761089 
L 356.561206 -133.137584 
L 354.363769 -133.515795 
L 352.166332 -133.895743 
L 349.968894 -134.277448 
L 347.771457 -134.660933 
L 345.57402 -135.046218 
L 343.376583 -135.433327 
L 341.179146 -135.822281 
L 338.981709 -136.213104 
L 336.784271 -136.605818 
L 334.586834 -137.000448 
L 332.389397 -137.397018 
L 330.19196 -137.795552 
L 327.994523 -138.196075 
L 325.797085 -138.598614 
L 323.599648 -139.003192 
L 321.402211 -139.409838 
L 319.204774 -139.818577 
L 317.007337 -140.229437 
L 314.809899 -140.642444 
L 312.612462 -141.057627 
L 310.415025 -141.475014 
L 308.217588 -141.894634 
L 306.020151 -142.316516 
L 303.822714 -142.740688 
L 301.625276 -143.167182 
L 299.427839 -143.596027 
L 297.230402 -144.027253 
L 295.032965 -144.460892 
L 292.835528 -144.896976 
L 290.63809 -145.335535 
L 288.440653 -145.776601 
L 286.243216 -146.220208 
L 284.045779 -146.666387 
L 281.848342 -147.115172 
L 279.650905 -147.566596 
L 277.453467 -148.020692 
L 275.25603 -148.477494 
L 273.058593 -148.937037 
L 270.861156 -149.399355 
L 268.663719 -149.864482 
L 266.466281 -150.332453 
L 264.268844 -150.803303 
L 262.071407 -151.277068 
L 259.87397 -151.753782 
L 257.676533 -152.233481 
L 255.479095 -152.716201 
L 253.281658 -153.201977 
L 251.084221 -153.690845 
L 248.886784 -154.182841 
L 246.689347 -154.678001 
L 244.49191 -155.176361 
L 242.294472 -155.677956 
L 240.097035 -156.182822 
L 237.899598 -156.690995 
L 235.702161 -157.202511 
L 233.504724 -157.717404 
L 231.307286 -158.235712 
L 229.109849 -158.757467 
L 226.912412 -159.282706 
L 224.714975 -159.811464 
L 222.517538 -160.343774 
L 220.320101 -160.87967 
L 218.122663 -161.419188 
L 215.925226 -161.962359 
L 213.727789 -162.509217 
L 211.530352 -163.059795 
L 209.332915 -163.614124 
L 207.135477 -164.172237 
L 204.93804 -164.734165 
L 202.740603 -165.299937 
L 200.543166 -165.869585 
L 198.345729 -166.443138 
L 196.148291 -167.020624 
L 193.950854 -167.602072 
L 191.753417 -168.187509 
L 189.55598 -168.776961 
L 187.358543 -169.370455 
L 185.161106 -169.968016 
L 182.963668 -170.569669 
L 180.766231 -171.175436 
L 178.568794 -171.785341 
L 176.371357 -172.399405 
L 174.17392 -173.01765 
L 171.976482 -173.640095 
L 169.779045 -174.266759 
L 167.581608 -174.897661 
L 165.384171 -175.532818 
L 163.186734 -176.172246 
L 160.989296 -176.815961 
L 158.791859 -177.463975 
L 156.594422 -178.116304 
L 154.396985 -178.772958 
L 152.199548 -179.433948 
L 150.002111 -180.099286 
L 147.804673 -180.768979 
L 145.607236 -181.443035 
L 143.409799 -182.121462 
L 141.212362 -182.804265 
L 139.014925 -183.491449 
L 136.817487 -184.183017 
L 134.62005 -184.878972 
L 132.422613 -185.579315 
L 130.225176 -186.284046 
L 128.027739 -186.993165 
L 125.830302 -187.70667 
L 123.632864 -188.424558 
L 121.435427 -189.146826 
L 119.23799 -189.873467 
L 117.040553 -190.604477 
L 114.843116 -191.339848 
L 112.645678 -192.079572 
L 110.448241 -192.82364 
L 108.250804 -193.572042 
L 106.053367 -194.324767 
L 103.85593 -195.081804 
L 101.658492 -195.843139 
L 99.461055 -196.608758 
L 97.263618 -197.378647 
L 95.066181 -198.15279 
L 92.868744 -198.93117 
L 90.671307 -199.71377 
L 88.473869 -200.500573 
L 86.276432 -201.291558 
L 84.078995 -202.086706 
L 81.881558 -202.885996 
L 79.684121 -203.689407 
L 77.486683 -204.496916 
L 75.289246 -205.308501 
L 73.091809 -206.124138 
L 70.894372 -206.943802 
L 68.696935 -207.767469 
L 66.499497 -208.595112 
L 64.30206 -209.426705 
L 62.104623 -210.262222 
L 59.907186 -211.101634 
L 57.709749 -211.944914 
L 55.512312 -212.792032 
L 53.314874 -213.642959 
L 51.117437 -214.497665 
L 48.92 -215.356119 
z
" style="stroke: #5e81ac; stroke-opacity: 0.15"/>
    </defs>
    <g clip-path="url(#p8b17ee2e30)">
     <use xlink:href="#m58910ee452" x="0" y="288" style="fill: #5e81ac; fill-opacity: 0.15; stroke: #5e81ac; stroke-opacity: 0.15"/>
    </g>
   </g>
   <g id="PolyCollection_2">
    <defs>
     <path id="m0ba65b88e6" d="M 48.92 -220.217787 
L 48.92 -154.275277 
L 51.117437 -153.881272 
L 53.314874 -153.486728 
L 55.512312 -153.091634 
L 57.709749 -152.695978 
L 59.907186 -152.299747 
L 62.104623 -151.90293 
L 64.30206 -151.505515 
L 66.499497 -151.10749 
L 68.696935 -150.708845 
L 70.894372 -150.309568 
L 73.091809 -149.909649 
L 75.289246 -149.509076 
L 77.486683 -149.107841 
L 79.684121 -148.705932 
L 81.881558 -148.303341 
L 84.078995 -147.900058 
L 86.276432 -147.496074 
L 88.473869 -147.09138 
L 90.671307 -146.685969 
L 92.868744 -146.279831 
L 95.066181 -145.87296 
L 97.263618 -145.465349 
L 99.461055 -145.056991 
L 101.658492 -144.647879 
L 103.85593 -144.238007 
L 106.053367 -143.827371 
L 108.250804 -143.415964 
L 110.448241 -143.003784 
L 112.645678 -142.590825 
L 114.843116 -142.177084 
L 117.040553 -141.762558 
L 119.23799 -141.347245 
L 121.435427 -140.931143 
L 123.632864 -140.514251 
L 125.830302 -140.096567 
L 128.027739 -139.678091 
L 130.225176 -139.258825 
L 132.422613 -138.838768 
L 134.62005 -138.417923 
L 136.817487 -137.996292 
L 139.014925 -137.573877 
L 141.212362 -137.150682 
L 143.409799 -136.726712 
L 145.607236 -136.301971 
L 147.804673 -135.876464 
L 150.002111 -135.450198 
L 152.199548 -135.02318 
L 154.396985 -134.595417 
L 156.594422 -134.166917 
L 158.791859 -133.73769 
L 160.989296 -133.307744 
L 163.186734 -132.87709 
L 165.384171 -132.44574 
L 167.581608 -132.013704 
L 169.779045 -131.580996 
L 171.976482 -131.147627 
L 174.17392 -130.713613 
L 176.371357 -130.278967 
L 178.568794 -129.843705 
L 180.766231 -129.407842 
L 182.963668 -128.971395 
L 185.161106 -128.534381 
L 187.358543 -128.096817 
L 189.55598 -127.658723 
L 191.753417 -127.220116 
L 193.950854 -126.781018 
L 196.148291 -126.341447 
L 198.345729 -125.901426 
L 200.543166 -125.460975 
L 202.740603 -125.020116 
L 204.93804 -124.578873 
L 207.135477 -124.137267 
L 209.332915 -123.695323 
L 211.530352 -123.253065 
L 213.727789 -122.810517 
L 215.925226 -122.367705 
L 218.122663 -121.924653 
L 220.320101 -121.481389 
L 222.517538 -121.037937 
L 224.714975 -120.594326 
L 226.912412 -120.150581 
L 229.109849 -119.70673 
L 231.307286 -119.262802 
L 233.504724 -118.818823 
L 235.702161 -118.374823 
L 237.899598 -117.930829 
L 240.097035 -117.486871 
L 242.294472 -117.042977 
L 244.49191 -116.599177 
L 246.689347 -116.1555 
L 248.886784 -115.711975 
L 251.084221 -115.268632 
L 253.281658 -114.8255 
L 255.479095 -114.38261 
L 257.676533 -113.939991 
L 259.87397 -113.497672 
L 262.071407 -113.055684 
L 264.268844 -112.614057 
L 266.466281 -112.172819 
L 268.663719 -111.732002 
L 270.861156 -111.291633 
L 273.058593 -110.851744 
L 275.25603 -110.412363 
L 277.453467 -109.97352 
L 279.650905 -109.535244 
L 281.848342 -109.097564 
L 284.045779 -108.660508 
L 286.243216 -108.224106 
L 288.440653 -107.788385 
L 290.63809 -107.353375 
L 292.835528 -106.919102 
L 295.032965 -106.485595 
L 297.230402 -106.052881 
L 299.427839 -105.620988 
L 301.625276 -105.189941 
L 303.822714 -104.759768 
L 306.020151 -104.330496 
L 308.217588 -103.902149 
L 310.415025 -103.474754 
L 312.612462 -103.048336 
L 314.809899 -102.622919 
L 317.007337 -102.198529 
L 319.204774 -101.77519 
L 321.402211 -101.352926 
L 323.599648 -100.931759 
L 325.797085 -100.511714 
L 327.994523 -100.092813 
L 330.19196 -99.675078 
L 332.389397 -99.258532 
L 334.586834 -98.843196 
L 336.784271 -98.42909 
L 338.981709 -98.016237 
L 341.179146 -97.604655 
L 343.376583 -97.194366 
L 345.57402 -96.785389 
L 347.771457 -96.377743 
L 349.968894 -95.971446 
L 352.166332 -95.566517 
L 354.363769 -95.162975 
L 356.561206 -94.760836 
L 358.758643 -94.360117 
L 360.95608 -93.960836 
L 363.153518 -93.563008 
L 365.350955 -93.16665 
L 367.548392 -92.771777 
L 369.745829 -92.378404 
L 371.943266 -91.986546 
L 374.140704 -91.596217 
L 376.338141 -91.207431 
L 378.535578 -90.820202 
L 380.733015 -90.434542 
L 382.930452 -90.050464 
L 385.127889 -89.667981 
L 387.325327 -89.287105 
L 389.522764 -88.907847 
L 391.720201 -88.530219 
L 393.917638 -88.154231 
L 396.115075 -87.779894 
L 398.312513 -87.407217 
L 400.50995 -87.036212 
L 402.707387 -86.666886 
L 404.904824 -86.29925 
L 407.102261 -85.933311 
L 409.299698 -85.569079 
L 411.497136 -85.206561 
L 413.694573 -84.845765 
L 415.89201 -84.486699 
L 418.089447 -84.129369 
L 420.286884 -83.773782 
L 422.484322 -83.419944 
L 424.681759 -83.067862 
L 426.879196 -82.717542 
L 429.076633 -82.368989 
L 431.27407 -82.022207 
L 433.471508 -81.677203 
L 435.668945 -81.333981 
L 437.866382 -80.992544 
L 440.063819 -80.652898 
L 442.261256 -80.315045 
L 444.458693 -79.97899 
L 446.656131 -79.644736 
L 448.853568 -79.312284 
L 451.051005 -78.98164 
L 453.248442 -78.652804 
L 455.445879 -78.325779 
L 457.643317 -78.000567 
L 459.840754 -77.677169 
L 462.038191 -77.355588 
L 464.235628 -77.035825 
L 466.433065 -76.71788 
L 468.630503 -76.401754 
L 470.82794 -76.087448 
L 473.025377 -75.774963 
L 475.222814 -75.464298 
L 477.420251 -75.155454 
L 479.617688 -74.848429 
L 481.815126 -74.543225 
L 484.012563 -74.23984 
L 486.21 -73.938274 
L 486.21 -120.009769 
L 486.21 -120.009769 
L 484.012563 -120.311322 
L 481.815126 -120.613872 
L 479.617688 -120.917427 
L 477.420251 -121.221993 
L 475.222814 -121.527577 
L 473.025377 -121.834186 
L 470.82794 -122.141829 
L 468.630503 -122.450511 
L 466.433065 -122.760242 
L 464.235628 -123.071028 
L 462.038191 -123.382878 
L 459.840754 -123.6958 
L 457.643317 -124.009803 
L 455.445879 -124.324894 
L 453.248442 -124.641083 
L 451.051005 -124.958379 
L 448.853568 -125.27679 
L 446.656131 -125.596326 
L 444.458693 -125.916997 
L 442.261256 -126.238812 
L 440.063819 -126.561781 
L 437.866382 -126.885914 
L 435.668945 -127.211222 
L 433.471508 -127.537715 
L 431.27407 -127.865404 
L 429.076633 -128.1943 
L 426.879196 -128.524414 
L 424.681759 -128.855757 
L 422.484322 -129.188342 
L 420.286884 -129.52218 
L 418.089447 -129.857283 
L 415.89201 -130.193665 
L 413.694573 -130.531337 
L 411.497136 -130.870312 
L 409.299698 -131.210604 
L 407.102261 -131.552226 
L 404.904824 -131.895191 
L 402.707387 -132.239515 
L 400.50995 -132.58521 
L 398.312513 -132.932292 
L 396.115075 -133.280776 
L 393.917638 -133.630675 
L 391.720201 -133.982007 
L 389.522764 -134.334786 
L 387.325327 -134.689028 
L 385.127889 -135.04475 
L 382.930452 -135.401968 
L 380.733015 -135.760699 
L 378.535578 -136.12096 
L 376.338141 -136.482769 
L 374.140704 -136.846143 
L 371.943266 -137.2111 
L 369.745829 -137.577659 
L 367.548392 -137.945838 
L 365.350955 -138.315656 
L 363.153518 -138.687133 
L 360.95608 -139.060288 
L 358.758643 -139.435142 
L 356.561206 -139.811713 
L 354.363769 -140.190023 
L 352.166332 -140.570094 
L 349.968894 -140.951945 
L 347.771457 -141.335598 
L 345.57402 -141.721076 
L 343.376583 -142.1084 
L 341.179146 -142.497593 
L 338.981709 -142.888677 
L 336.784271 -143.281677 
L 334.586834 -143.676614 
L 332.389397 -144.073512 
L 330.19196 -144.472397 
L 327.994523 -144.873291 
L 325.797085 -145.27622 
L 323.599648 -145.681208 
L 321.402211 -146.088281 
L 319.204774 -146.497464 
L 317.007337 -146.908782 
L 314.809899 -147.322262 
L 312.612462 -147.737929 
L 310.415025 -148.155811 
L 308.217588 -148.575934 
L 306.020151 -148.998325 
L 303.822714 -149.42301 
L 301.625276 -149.850018 
L 299.427839 -150.279377 
L 297.230402 -150.711113 
L 295.032965 -151.145254 
L 292.835528 -151.58183 
L 290.63809 -152.020868 
L 288.440653 -152.462397 
L 286.243216 -152.906445 
L 284.045779 -153.353041 
L 281.848342 -153.802213 
L 279.650905 -154.253992 
L 277.453467 -154.708405 
L 275.25603 -155.165482 
L 273.058593 -155.625251 
L 270.861156 -156.087742 
L 268.663719 -156.552985 
L 266.466281 -157.021007 
L 264.268844 -157.491838 
L 262.071407 -157.965507 
L 259.87397 -158.442044 
L 257.676533 -158.921476 
L 255.479095 -159.403832 
L 253.281658 -159.889142 
L 251.084221 -160.377432 
L 248.886784 -160.868733 
L 246.689347 -161.363071 
L 244.49191 -161.860474 
L 242.294472 -162.360971 
L 240.097035 -162.864588 
L 237.899598 -163.371352 
L 235.702161 -163.88129 
L 233.504724 -164.394428 
L 231.307286 -164.910793 
L 229.109849 -165.430409 
L 226.912412 -165.953303 
L 224.714975 -166.479498 
L 222.517538 -167.009019 
L 220.320101 -167.54189 
L 218.122663 -168.078134 
L 215.925226 -168.617774 
L 213.727789 -169.160832 
L 211.530352 -169.70733 
L 209.332915 -170.257289 
L 207.135477 -170.81073 
L 204.93804 -171.367671 
L 202.740603 -171.928134 
L 200.543166 -172.492135 
L 198.345729 -173.059693 
L 196.148291 -173.630826 
L 193.950854 -174.205549 
L 191.753417 -174.783879 
L 189.55598 -175.365831 
L 187.358543 -175.951418 
L 185.161106 -176.540654 
L 182.963668 -177.133552 
L 180.766231 -177.730125 
L 178.568794 -178.330382 
L 176.371357 -178.934335 
L 174.17392 -179.541992 
L 171.976482 -180.153363 
L 169.779045 -180.768456 
L 167.581608 -181.387277 
L 165.384171 -182.009833 
L 163.186734 -182.636128 
L 160.989296 -183.266168 
L 158.791859 -183.899956 
L 156.594422 -184.537495 
L 154.396985 -185.178787 
L 152.199548 -185.823832 
L 150.002111 -186.472632 
L 147.804673 -187.125185 
L 145.607236 -187.78149 
L 143.409799 -188.441546 
L 141.212362 -189.105348 
L 139.014925 -189.772892 
L 136.817487 -190.444175 
L 134.62005 -191.119191 
L 132.422613 -191.797933 
L 130.225176 -192.480394 
L 128.027739 -193.166567 
L 125.830302 -193.856442 
L 123.632864 -194.55001 
L 121.435427 -195.247262 
L 119.23799 -195.948185 
L 117.040553 -196.65277 
L 114.843116 -197.361002 
L 112.645678 -198.072869 
L 110.448241 -198.788358 
L 108.250804 -199.507454 
L 106.053367 -200.230142 
L 103.85593 -200.956407 
L 101.658492 -201.686231 
L 99.461055 -202.419598 
L 97.263618 -203.156491 
L 95.066181 -203.896891 
L 92.868744 -204.640779 
L 90.671307 -205.388137 
L 88.473869 -206.138944 
L 86.276432 -206.89318 
L 84.078995 -207.650824 
L 81.881558 -208.411856 
L 79.684121 -209.176252 
L 77.486683 -209.94399 
L 75.289246 -210.715048 
L 73.091809 -211.489403 
L 70.894372 -212.26703 
L 68.696935 -213.047905 
L 66.499497 -213.832005 
L 64.30206 -214.619303 
L 62.104623 -215.409775 
L 59.907186 -216.203395 
L 57.709749 -217.000137 
L 55.512312 -217.799974 
L 53.314874 -218.602879 
L 51.117437 -219.408826 
L 48.92 -220.217787 
z
" style="stroke: #d08770; stroke-opacity: 0.15"/>
    </defs>
    <g clip-path="url(#p8b17ee2e30)">
     <use xlink:href="#m0ba65b88e6" x="0" y="288" style="fill: #d08770; fill-opacity: 0.15; stroke: #d08770; stroke-opacity: 0.15"/>
    </g>
   </g>
   <g id="PolyCollection_3">
    <defs>
     <path id="me9a24306e4" d="M 48.92 -237.545291 
L 48.92 -165.081022 
L 51.117437 -164.769492 
L 53.314874 -164.457886 
L 55.512312 -164.146197 
L 57.709749 -163.834417 
L 59.907186 -163.522538 
L 62.104623 -163.210553 
L 64.30206 -162.898454 
L 66.499497 -162.586233 
L 68.696935 -162.273882 
L 70.894372 -161.961394 
L 73.091809 -161.64876 
L 75.289246 -161.335974 
L 77.486683 -161.023026 
L 79.684121 -160.70991 
L 81.881558 -160.396617 
L 84.078995 -160.08314 
L 86.276432 -159.769471 
L 88.473869 -159.455601 
L 90.671307 -159.141523 
L 92.868744 -158.827229 
L 95.066181 -158.512711 
L 97.263618 -158.197962 
L 99.461055 -157.882973 
L 101.658492 -157.567736 
L 103.85593 -157.252244 
L 106.053367 -156.93649 
L 108.250804 -156.620464 
L 110.448241 -156.304159 
L 112.645678 -155.987568 
L 114.843116 -155.670683 
L 117.040553 -155.353495 
L 119.23799 -155.035998 
L 121.435427 -154.718184 
L 123.632864 -154.400044 
L 125.830302 -154.081572 
L 128.027739 -153.76276 
L 130.225176 -153.4436 
L 132.422613 -153.124086 
L 134.62005 -152.804208 
L 136.817487 -152.483961 
L 139.014925 -152.163337 
L 141.212362 -151.842329 
L 143.409799 -151.52093 
L 145.607236 -151.199132 
L 147.804673 -150.876928 
L 150.002111 -150.554313 
L 152.199548 -150.231278 
L 154.396985 -149.907817 
L 156.594422 -149.583925 
L 158.791859 -149.259593 
L 160.989296 -148.934816 
L 163.186734 -148.609588 
L 165.384171 -148.283902 
L 167.581608 -147.957753 
L 169.779045 -147.631134 
L 171.976482 -147.30404 
L 174.17392 -146.976465 
L 176.371357 -146.648404 
L 178.568794 -146.319851 
L 180.766231 -145.990801 
L 182.963668 -145.66125 
L 185.161106 -145.331193 
L 187.358543 -145.000624 
L 189.55598 -144.66954 
L 191.753417 -144.337936 
L 193.950854 -144.005809 
L 196.148291 -143.673154 
L 198.345729 -143.339968 
L 200.543166 -143.006247 
L 202.740603 -142.671988 
L 204.93804 -142.337189 
L 207.135477 -142.001847 
L 209.332915 -141.665959 
L 211.530352 -141.329523 
L 213.727789 -140.992537 
L 215.925226 -140.654999 
L 218.122663 -140.316909 
L 220.320101 -139.978264 
L 222.517538 -139.639064 
L 224.714975 -139.299308 
L 226.912412 -138.958997 
L 229.109849 -138.61813 
L 231.307286 -138.276707 
L 233.504724 -137.934729 
L 235.702161 -137.592197 
L 237.899598 -137.249113 
L 240.097035 -136.905477 
L 242.294472 -136.561292 
L 244.49191 -136.216559 
L 246.689347 -135.871282 
L 248.886784 -135.525464 
L 251.084221 -135.179107 
L 253.281658 -134.832215 
L 255.479095 -134.484792 
L 257.676533 -134.136843 
L 259.87397 -133.788371 
L 262.071407 -133.439382 
L 264.268844 -133.089882 
L 266.466281 -132.739875 
L 268.663719 -132.389368 
L 270.861156 -132.038368 
L 273.058593 -131.68688 
L 275.25603 -131.334913 
L 277.453467 -130.982473 
L 279.650905 -130.629568 
L 281.848342 -130.276206 
L 284.045779 -129.922397 
L 286.243216 -129.568148 
L 288.440653 -129.21347 
L 290.63809 -128.85837 
L 292.835528 -128.50286 
L 295.032965 -128.14695 
L 297.230402 -127.79065 
L 299.427839 -127.43397 
L 301.625276 -127.076923 
L 303.822714 -126.719519 
L 306.020151 -126.36177 
L 308.217588 -126.003689 
L 310.415025 -125.645287 
L 312.612462 -125.286578 
L 314.809899 -124.927575 
L 317.007337 -124.56829 
L 319.204774 -124.208738 
L 321.402211 -123.848932 
L 323.599648 -123.488885 
L 325.797085 -123.128613 
L 327.994523 -122.76813 
L 330.19196 -122.407451 
L 332.389397 -122.04659 
L 334.586834 -121.685562 
L 336.784271 -121.324384 
L 338.981709 -120.963071 
L 341.179146 -120.601638 
L 343.376583 -120.240102 
L 345.57402 -119.878478 
L 347.771457 -119.516783 
L 349.968894 -119.155033 
L 352.166332 -118.793244 
L 354.363769 -118.431434 
L 356.561206 -118.069619 
L 358.758643 -117.707817 
L 360.95608 -117.346043 
L 363.153518 -116.984315 
L 365.350955 -116.62265 
L 367.548392 -116.261066 
L 369.745829 -115.899579 
L 371.943266 -115.538207 
L 374.140704 -115.176968 
L 376.338141 -114.815878 
L 378.535578 -114.454955 
L 380.733015 -114.094216 
L 382.930452 -113.733679 
L 385.127889 -113.373361 
L 387.325327 -113.01328 
L 389.522764 -112.653453 
L 391.720201 -112.293897 
L 393.917638 -111.934629 
L 396.115075 -111.575667 
L 398.312513 -111.217027 
L 400.50995 -110.858727 
L 402.707387 -110.500785 
L 404.904824 -110.143216 
L 407.102261 -109.786037 
L 409.299698 -109.429266 
L 411.497136 -109.072918 
L 413.694573 -108.717012 
L 415.89201 -108.361562 
L 418.089447 -108.006585 
L 420.286884 -107.652097 
L 422.484322 -107.298115 
L 424.681759 -106.944654 
L 426.879196 -106.59173 
L 429.076633 -106.239358 
L 431.27407 -105.887554 
L 433.471508 -105.536334 
L 435.668945 -105.185712 
L 437.866382 -104.835704 
L 440.063819 -104.486323 
L 442.261256 -104.137586 
L 444.458693 -103.789505 
L 446.656131 -103.442097 
L 448.853568 -103.095373 
L 451.051005 -102.74935 
L 453.248442 -102.404039 
L 455.445879 -102.059455 
L 457.643317 -101.715612 
L 459.840754 -101.372521 
L 462.038191 -101.030197 
L 464.235628 -100.688652 
L 466.433065 -100.347898 
L 468.630503 -100.007948 
L 470.82794 -99.668814 
L 473.025377 -99.330508 
L 475.222814 -98.993042 
L 477.420251 -98.656428 
L 479.617688 -98.320676 
L 481.815126 -97.985797 
L 484.012563 -97.651804 
L 486.21 -97.318706 
L 486.21 -137.546317 
L 486.21 -137.546317 
L 484.012563 -137.851175 
L 481.815126 -138.157246 
L 479.617688 -138.464544 
L 477.420251 -138.773082 
L 475.222814 -139.082871 
L 473.025377 -139.393927 
L 470.82794 -139.706261 
L 468.630503 -140.019888 
L 466.433065 -140.334821 
L 464.235628 -140.651074 
L 462.038191 -140.968661 
L 459.840754 -141.287596 
L 457.643317 -141.607894 
L 455.445879 -141.92957 
L 453.248442 -142.252636 
L 451.051005 -142.577109 
L 448.853568 -142.903004 
L 446.656131 -143.230335 
L 444.458693 -143.559117 
L 442.261256 -143.889367 
L 440.063819 -144.221099 
L 437.866382 -144.554329 
L 435.668945 -144.889073 
L 433.471508 -145.225346 
L 431.27407 -145.563165 
L 429.076633 -145.902545 
L 426.879196 -146.243504 
L 424.681759 -146.586056 
L 422.484322 -146.930219 
L 420.286884 -147.276009 
L 418.089447 -147.623443 
L 415.89201 -147.972537 
L 413.694573 -148.323309 
L 411.497136 -148.675774 
L 409.299698 -149.029951 
L 407.102261 -149.385855 
L 404.904824 -149.743504 
L 402.707387 -150.102915 
L 400.50995 -150.464106 
L 398.312513 -150.827092 
L 396.115075 -151.191893 
L 393.917638 -151.558524 
L 391.720201 -151.927003 
L 389.522764 -152.297347 
L 387.325327 -152.669574 
L 385.127889 -153.0437 
L 382.930452 -153.419744 
L 380.733015 -153.797721 
L 378.535578 -154.17765 
L 376.338141 -154.559547 
L 374.140704 -154.94343 
L 371.943266 -155.329315 
L 369.745829 -155.717219 
L 367.548392 -156.107159 
L 365.350955 -156.499153 
L 363.153518 -156.893216 
L 360.95608 -157.289364 
L 358.758643 -157.687616 
L 356.561206 -158.087986 
L 354.363769 -158.49049 
L 352.166332 -158.895146 
L 349.968894 -159.301968 
L 347.771457 -159.710972 
L 345.57402 -160.122174 
L 343.376583 -160.535588 
L 341.179146 -160.951231 
L 338.981709 -161.369116 
L 336.784271 -161.789259 
L 334.586834 -162.211673 
L 332.389397 -162.636373 
L 330.19196 -163.063373 
L 327.994523 -163.492686 
L 325.797085 -163.924326 
L 323.599648 -164.358306 
L 321.402211 -164.794638 
L 319.204774 -165.233335 
L 317.007337 -165.674409 
L 314.809899 -166.117872 
L 312.612462 -166.563735 
L 310.415025 -167.01201 
L 308.217588 -167.462708 
L 306.020151 -167.915838 
L 303.822714 -168.371412 
L 301.625276 -168.829438 
L 299.427839 -169.289927 
L 297.230402 -169.752886 
L 295.032965 -170.218326 
L 292.835528 -170.686254 
L 290.63809 -171.156679 
L 288.440653 -171.629606 
L 286.243216 -172.105045 
L 284.045779 -172.583001 
L 281.848342 -173.06348 
L 279.650905 -173.546489 
L 277.453467 -174.032033 
L 275.25603 -174.520117 
L 273.058593 -175.010746 
L 270.861156 -175.503923 
L 268.663719 -175.999653 
L 266.466281 -176.497939 
L 264.268844 -176.998784 
L 262.071407 -177.50219 
L 259.87397 -178.00816 
L 257.676533 -178.516695 
L 255.479095 -179.027796 
L 253.281658 -179.541465 
L 251.084221 -180.057702 
L 248.886784 -180.576506 
L 246.689347 -181.097878 
L 244.49191 -181.621816 
L 242.294472 -182.14832 
L 240.097035 -182.677387 
L 237.899598 -183.209016 
L 235.702161 -183.743204 
L 233.504724 -184.279949 
L 231.307286 -184.819247 
L 229.109849 -185.361095 
L 226.912412 -185.905488 
L 224.714975 -186.452423 
L 222.517538 -187.001894 
L 220.320101 -187.553897 
L 218.122663 -188.108427 
L 215.925226 -188.665476 
L 213.727789 -189.22504 
L 211.530352 -189.787111 
L 209.332915 -190.351684 
L 207.135477 -190.91875 
L 204.93804 -191.488302 
L 202.740603 -192.060333 
L 200.543166 -192.634835 
L 198.345729 -193.211798 
L 196.148291 -193.791215 
L 193.950854 -194.373076 
L 191.753417 -194.957372 
L 189.55598 -195.544093 
L 187.358543 -196.13323 
L 185.161106 -196.724772 
L 182.963668 -197.31871 
L 180.766231 -197.915032 
L 178.568794 -198.513727 
L 176.371357 -199.114785 
L 174.17392 -199.718194 
L 171.976482 -200.323942 
L 169.779045 -200.932018 
L 167.581608 -201.54241 
L 165.384171 -202.155105 
L 163.186734 -202.770091 
L 160.989296 -203.387355 
L 158.791859 -204.006884 
L 156.594422 -204.628666 
L 154.396985 -205.252687 
L 152.199548 -205.878933 
L 150.002111 -206.507392 
L 147.804673 -207.138049 
L 145.607236 -207.77089 
L 143.409799 -208.405902 
L 141.212362 -209.04307 
L 139.014925 -209.682379 
L 136.817487 -210.323816 
L 134.62005 -210.967365 
L 132.422613 -211.613012 
L 130.225176 -212.260742 
L 128.027739 -212.91054 
L 125.830302 -213.56239 
L 123.632864 -214.216277 
L 121.435427 -214.872186 
L 119.23799 -215.530102 
L 117.040553 -216.190008 
L 114.843116 -216.85189 
L 112.645678 -217.51573 
L 110.448241 -218.181514 
L 108.250804 -218.849225 
L 106.053367 -219.518847 
L 103.85593 -220.190364 
L 101.658492 -220.863759 
L 99.461055 -221.539017 
L 97.263618 -222.216121 
L 95.066181 -222.895054 
L 92.868744 -223.575799 
L 90.671307 -224.258341 
L 88.473869 -224.942662 
L 86.276432 -225.628745 
L 84.078995 -226.316575 
L 81.881558 -227.006133 
L 79.684121 -227.697402 
L 77.486683 -228.390367 
L 75.289246 -229.085009 
L 73.091809 -229.781312 
L 70.894372 -230.479258 
L 68.696935 -231.17883 
L 66.499497 -231.880011 
L 64.30206 -232.582784 
L 62.104623 -233.287131 
L 59.907186 -233.993034 
L 57.709749 -234.700477 
L 55.512312 -235.409442 
L 53.314874 -236.11991 
L 51.117437 -236.831866 
L 48.92 -237.545291 
z
" style="stroke: #a3be8c; stroke-opacity: 0.15"/>
    </defs>
    <g clip-path="url(#p8b17ee2e30)">
     <use xlink:href="#me9a24306e4" x="0" y="288" style="fill: #a3be8c; fill-opacity: 0.15; stroke: #a3be8c; stroke-opacity: 0.15"/>
    </g>
   </g>
   <g id="matplotlib.axis_1">
    <g id="xtick_1">
     <g id="line2d_1">
      <path d="M 81.311852 245.56 
L 81.311852 25.92 
" clip-path="url(#p8b17ee2e30)" style="fill: none; stroke: #d8dee9; stroke-opacity: 0.4; stroke-width: 0.8; stroke-linecap: square"/>
     </g>
     <g id="line2d_2">
      <defs>
       <path id="md25dae3eb5" d="M 0 0 
L 0 3.5 
" style="stroke: #434c5e; stroke-width: 0.8"/>
      </defs>
      <g>
       <use xlink:href="#md25dae3eb5" x="81.311852" y="245.56" style="fill: #434c5e; stroke: #434c5e; stroke-width: 0.8"/>
      </g>
     </g>
     <g id="text_1">
      <!-- 20 -->
      <g style="fill: #434c5e" transform="translate(74.313102 260.918281) scale(0.11 -0.11)">
       <defs>
        <path id="DejaVuSans-32" d="M 1228 531 
L 3431 531 
L 3431 0 
L 469 0 
L 469 531 
Q 828 903 1448 1529 
Q 2069 2156 2228 2338 
Q 2531 2678 2651 2914 
Q 2772 3150 2772 3378 
Q 2772 3750 2511 3984 
Q 2250 4219 1831 4219 
Q 1534 4219 1204 4116 
Q 875 4013 500 3803 
L 500 4441 
Q 881 4594 1212 4672 
Q 1544 4750 1819 4750 
Q 2544 4750 2975 4387 
Q 3406 4025 3406 3419 
Q 3406 3131 3298 2873 
Q 3191 2616 2906 2266 
Q 2828 2175 2409 1742 
Q 1991 1309 1228 531 
z
" transform="scale(0.015625)"/>
        <path id="DejaVuSans-30" d="M 2034 4250 
Q 1547 4250 1301 3770 
Q 1056 3291 1056 2328 
Q 1056 1369 1301 889 
Q 1547 409 2034 409 
Q 2525 409 2770 889 
Q 3016 1369 3016 2328 
Q 3016 3291 2770 3770 
Q 2525 4250 2034 4250 
z
M 2034 4750 
Q 2819 4750 3233 4129 
Q 3647 3509 3647 2328 
Q 3647 1150 3233 529 
Q 2819 -91 2034 -91 
Q 1250 -91 836 529 
Q 422 1150 422 2328 
Q 422 3509 836 4129 
Q 1250 4750 2034 4750 
z
" transform="scale(0.015625)"/>
       </defs>
       <use xlink:href="#DejaVuSans-32"/>
       <use xlink:href="#DejaVuSans-30" x="63.623047"/>
      </g>
     </g>
    </g>
    <g id="xtick_2">
     <g id="line2d_3">
      <path d="M 162.291481 245.56 
L 162.291481 25.92 
" clip-path="url(#p8b17ee2e30)" style="fill: none; stroke: #d8dee9; stroke-opacity: 0.4; stroke-width: 0.8; stroke-linecap: square"/>
     </g>
     <g id="line2d_4">
      <g>
       <use xlink:href="#md25dae3eb5" x="162.291481" y="245.56" style="fill: #434c5e; stroke: #434c5e; stroke-width: 0.8"/>
      </g>
     </g>
     <g id="text_2">
      <!-- 25 -->
      <g style="fill: #434c5e" transform="translate(155.292731 260.918281) scale(0.11 -0.11)">
       <defs>
        <path id="DejaVuSans-35" d="M 691 4666 
L 3169 4666 
L 3169 4134 
L 1269 4134 
L 1269 2991 
Q 1406 3038 1543 3061 
Q 1681 3084 1819 3084 
Q 2600 3084 3056 2656 
Q 3513 2228 3513 1497 
Q 3513 744 3044 326 
Q 2575 -91 1722 -91 
Q 1428 -91 1123 -41 
Q 819 9 494 109 
L 494 744 
Q 775 591 1075 516 
Q 1375 441 1709 441 
Q 2250 441 2565 725 
Q 2881 1009 2881 1497 
Q 2881 1984 2565 2268 
Q 2250 2553 1709 2553 
Q 1456 2553 1204 2497 
Q 953 2441 691 2322 
L 691 4666 
z
" transform="scale(0.015625)"/>
       </defs>
       <use xlink:href="#DejaVuSans-32"/>
       <use xlink:href="#DejaVuSans-35" x="63.623047"/>
      </g>
     </g>
    </g>
    <g id="xtick_3">
     <g id="line2d_5">
      <path d="M 243.271111 245.56 
L 243.271111 25.92 
" clip-path="url(#p8b17ee2e30)" style="fill: none; stroke: #d8dee9; stroke-opacity: 0.4; stroke-width: 0.8; stroke-linecap: square"/>
     </g>
     <g id="line2d_6">
      <g>
       <use xlink:href="#md25dae3eb5" x="243.271111" y="245.56" style="fill: #434c5e; stroke: #434c5e; stroke-width: 0.8"/>
      </g>
     </g>
     <g id="text_3">
      <!-- 30 -->
      <g style="fill: #434c5e" transform="translate(236.272361 260.918281) scale(0.11 -0.11)">
       <defs>
        <path id="DejaVuSans-33" d="M 2597 2516 
Q 3050 2419 3304 2112 
Q 3559 1806 3559 1356 
Q 3559 666 3084 287 
Q 2609 -91 1734 -91 
Q 1441 -91 1130 -33 
Q 819 25 488 141 
L 488 750 
Q 750 597 1062 519 
Q 1375 441 1716 441 
Q 2309 441 2620 675 
Q 2931 909 2931 1356 
Q 2931 1769 2642 2001 
Q 2353 2234 1838 2234 
L 1294 2234 
L 1294 2753 
L 1863 2753 
Q 2328 2753 2575 2939 
Q 2822 3125 2822 3475 
Q 2822 3834 2567 4026 
Q 2313 4219 1838 4219 
Q 1578 4219 1281 4162 
Q 984 4106 628 3988 
L 628 4550 
Q 988 4650 1302 4700 
Q 1616 4750 1894 4750 
Q 2613 4750 3031 4423 
Q 3450 4097 3450 3541 
Q 3450 3153 3228 2886 
Q 3006 2619 2597 2516 
z
" transform="scale(0.015625)"/>
       </defs>
       <use xlink:href="#DejaVuSans-33"/>
       <use xlink:href="#DejaVuSans-30" x="63.623047"/>
      </g>
     </g>
    </g>
    <g id="xtick_4">
     <g id="line2d_7">
      <path d="M 324.250741 245.56 
L 324.250741 25.92 
" clip-path="url(#p8b17ee2e30)" style="fill: none; stroke: #d8dee9; stroke-opacity: 0.4; stroke-width: 0.8; stroke-linecap: square"/>
     </g>
     <g id="line2d_8">
      <g>
       <use xlink:href="#md25dae3eb5" x="324.250741" y="245.56" style="fill: #434c5e; stroke: #434c5e; stroke-width: 0.8"/>
      </g>
     </g>
     <g id="text_4">
      <!-- 35 -->
      <g style="fill: #434c5e" transform="translate(317.251991 260.918281) scale(0.11 -0.11)">
       <use xlink:href="#DejaVuSans-33"/>
       <use xlink:href="#DejaVuSans-35" x="63.623047"/>
      </g>
     </g>
    </g>
    <g id="xtick_5">
     <g id="line2d_9">
      <path d="M 405.23037 245.56 
L 405.23037 25.92 
" clip-path="url(#p8b17ee2e30)" style="fill: none; stroke: #d8dee9; stroke-opacity: 0.4; stroke-width: 0.8; stroke-linecap: square"/>
     </g>
     <g id="line2d_10">
      <g>
       <use xlink:href="#md25dae3eb5" x="405.23037" y="245.56" style="fill: #434c5e; stroke: #434c5e; stroke-width: 0.8"/>
      </g>
     </g>
     <g id="text_5">
      <!-- 40 -->
      <g style="fill: #434c5e" transform="translate(398.23162 260.918281) scale(0.11 -0.11)">
       <defs>
        <path id="DejaVuSans-34" d="M 2419 4116 
L 825 1625 
L 2419 1625 
L 2419 4116 
z
M 2253 4666 
L 3047 4666 
L 3047 1625 
L 3713 1625 
L 3713 1100 
L 3047 1100 
L 3047 0 
L 2419 0 
L 2419 1100 
L 313 1100 
L 313 1709 
L 2253 4666 
z
" transform="scale(0.015625)"/>
       </defs>
       <use xlink:href="#DejaVuSans-34"/>
       <use xlink:href="#DejaVuSans-30" x="63.623047"/>
      </g>
     </g>
    </g>
    <g id="xtick_6">
     <g id="line2d_11">
      <path d="M 486.21 245.56 
L 486.21 25.92 
" clip-path="url(#p8b17ee2e30)" style="fill: none; stroke: #d8dee9; stroke-opacity: 0.4; stroke-width: 0.8; stroke-linecap: square"/>
     </g>
     <g id="line2d_12">
      <g>
       <use xlink:href="#md25dae3eb5" x="486.21" y="245.56" style="fill: #434c5e; stroke: #434c5e; stroke-width: 0.8"/>
      </g>
     </g>
     <g id="text_6">
      <!-- 45 -->
      <g style="fill: #434c5e" transform="translate(479.21125 260.918281) scale(0.11 -0.11)">
       <use xlink:href="#DejaVuSans-34"/>
       <use xlink:href="#DejaVuSans-35" x="63.623047"/>
      </g>
     </g>
    </g>
    <g id="text_7">
     <!-- BMI (kg/m²) -->
     <g style="fill: #434c5e" transform="translate(238.225938 274.804375) scale(0.1 -0.1)">
      <defs>
       <path id="DejaVuSans-42" d="M 1259 2228 
L 1259 519 
L 2272 519 
Q 2781 519 3026 730 
Q 3272 941 3272 1375 
Q 3272 1813 3026 2020 
Q 2781 2228 2272 2228 
L 1259 2228 
z
M 1259 4147 
L 1259 2741 
L 2194 2741 
Q 2656 2741 2882 2914 
Q 3109 3088 3109 3444 
Q 3109 3797 2882 3972 
Q 2656 4147 2194 4147 
L 1259 4147 
z
M 628 4666 
L 2241 4666 
Q 2963 4666 3353 4366 
Q 3744 4066 3744 3513 
Q 3744 3084 3544 2831 
Q 3344 2578 2956 2516 
Q 3422 2416 3680 2098 
Q 3938 1781 3938 1306 
Q 3938 681 3513 340 
Q 3088 0 2303 0 
L 628 0 
L 628 4666 
z
" transform="scale(0.015625)"/>
       <path id="DejaVuSans-4d" d="M 628 4666 
L 1569 4666 
L 2759 1491 
L 3956 4666 
L 4897 4666 
L 4897 0 
L 4281 0 
L 4281 4097 
L 3078 897 
L 2444 897 
L 1241 4097 
L 1241 0 
L 628 0 
L 628 4666 
z
" transform="scale(0.015625)"/>
       <path id="DejaVuSans-49" d="M 628 4666 
L 1259 4666 
L 1259 0 
L 628 0 
L 628 4666 
z
" transform="scale(0.015625)"/>
       <path id="DejaVuSans-20" transform="scale(0.015625)"/>
       <path id="DejaVuSans-28" d="M 1984 4856 
Q 1566 4138 1362 3434 
Q 1159 2731 1159 2009 
Q 1159 1288 1364 580 
Q 1569 -128 1984 -844 
L 1484 -844 
Q 1016 -109 783 600 
Q 550 1309 550 2009 
Q 550 2706 781 3412 
Q 1013 4119 1484 4856 
L 1984 4856 
z
" transform="scale(0.015625)"/>
       <path id="DejaVuSans-6b" d="M 581 4863 
L 1159 4863 
L 1159 1991 
L 2875 3500 
L 3609 3500 
L 1753 1863 
L 3688 0 
L 2938 0 
L 1159 1709 
L 1159 0 
L 581 0 
L 581 4863 
z
" transform="scale(0.015625)"/>
       <path id="DejaVuSans-67" d="M 2906 1791 
Q 2906 2416 2648 2759 
Q 2391 3103 1925 3103 
Q 1463 3103 1205 2759 
Q 947 2416 947 1791 
Q 947 1169 1205 825 
Q 1463 481 1925 481 
Q 2391 481 2648 825 
Q 2906 1169 2906 1791 
z
M 3481 434 
Q 3481 -459 3084 -895 
Q 2688 -1331 1869 -1331 
Q 1566 -1331 1297 -1286 
Q 1028 -1241 775 -1147 
L 775 -588 
Q 1028 -725 1275 -790 
Q 1522 -856 1778 -856 
Q 2344 -856 2625 -561 
Q 2906 -266 2906 331 
L 2906 616 
Q 2728 306 2450 153 
Q 2172 0 1784 0 
Q 1141 0 747 490 
Q 353 981 353 1791 
Q 353 2603 747 3093 
Q 1141 3584 1784 3584 
Q 2172 3584 2450 3431 
Q 2728 3278 2906 2969 
L 2906 3500 
L 3481 3500 
L 3481 434 
z
" transform="scale(0.015625)"/>
       <path id="DejaVuSans-2f" d="M 1625 4666 
L 2156 4666 
L 531 -594 
L 0 -594 
L 1625 4666 
z
" transform="scale(0.015625)"/>
       <path id="DejaVuSans-6d" d="M 3328 2828 
Q 3544 3216 3844 3400 
Q 4144 3584 4550 3584 
Q 5097 3584 5394 3201 
Q 5691 2819 5691 2113 
L 5691 0 
L 5113 0 
L 5113 2094 
Q 5113 2597 4934 2840 
Q 4756 3084 4391 3084 
Q 3944 3084 3684 2787 
Q 3425 2491 3425 1978 
L 3425 0 
L 2847 0 
L 2847 2094 
Q 2847 2600 2669 2842 
Q 2491 3084 2119 3084 
Q 1678 3084 1418 2786 
Q 1159 2488 1159 1978 
L 1159 0 
L 581 0 
L 581 3500 
L 1159 3500 
L 1159 2956 
Q 1356 3278 1631 3431 
Q 1906 3584 2284 3584 
Q 2666 3584 2933 3390 
Q 3200 3197 3328 2828 
z
" transform="scale(0.015625)"/>
       <path id="DejaVuSans-b2" d="M 838 2444 
L 2163 2444 
L 2163 2088 
L 294 2088 
L 294 2431 
Q 400 2528 597 2703 
Q 1672 3656 1672 3950 
Q 1672 4156 1509 4282 
Q 1347 4409 1081 4409 
Q 919 4409 728 4354 
Q 538 4300 313 4191 
L 313 4575 
Q 553 4663 761 4706 
Q 969 4750 1147 4750 
Q 1600 4750 1872 4544 
Q 2144 4338 2144 4000 
Q 2144 3566 1109 2678 
Q 934 2528 838 2444 
z
" transform="scale(0.015625)"/>
       <path id="DejaVuSans-29" d="M 513 4856 
L 1013 4856 
Q 1481 4119 1714 3412 
Q 1947 2706 1947 2009 
Q 1947 1309 1714 600 
Q 1481 -109 1013 -844 
L 513 -844 
Q 928 -128 1133 580 
Q 1338 1288 1338 2009 
Q 1338 2731 1133 3434 
Q 928 4138 513 4856 
z
" transform="scale(0.015625)"/>
      </defs>
      <use xlink:href="#DejaVuSans-42"/>
      <use xlink:href="#DejaVuSans-4d" x="68.603516"/>
      <use xlink:href="#DejaVuSans-49" x="154.882812"/>
      <use xlink:href="#DejaVuSans-20" x="184.375"/>
      <use xlink:href="#DejaVuSans-28" x="216.162109"/>
      <use xlink:href="#DejaVuSans-6b" x="255.175781"/>
      <use xlink:href="#DejaVuSans-67" x="313.085938"/>
      <use xlink:href="#DejaVuSans-2f" x="376.5625"/>
      <use xlink:href="#DejaVuSans-6d" x="410.253906"/>
      <use xlink:href="#DejaVuSans-b2" x="507.666016"/>
      <use xlink:href="#DejaVuSans-29" x="547.753906"/>
     </g>
    </g>
   </g>
   <g id="matplotlib.axis_2">
    <g id="ytick_1">
     <g id="line2d_13">
      <path d="M 48.92 245.56 
L 486.21 245.56 
" clip-path="url(#p8b17ee2e30)" style="fill: none; stroke: #d8dee9; stroke-opacity: 0.4; stroke-width: 0.8; stroke-linecap: square"/>
     </g>
     <g id="line2d_14">
      <defs>
       <path id="mc2cc4ff4da" d="M 0 0 
L -3.5 0 
" style="stroke: #434c5e; stroke-width: 0.8"/>
      </defs>
      <g>
       <use xlink:href="#mc2cc4ff4da" x="48.92" y="245.56" style="fill: #434c5e; stroke: #434c5e; stroke-width: 0.8"/>
      </g>
     </g>
     <g id="text_8">
      <!-- 0.0 -->
      <g style="fill: #434c5e" transform="translate(24.426563 249.739141) scale(0.11 -0.11)">
       <defs>
        <path id="DejaVuSans-2e" d="M 684 794 
L 1344 794 
L 1344 0 
L 684 0 
L 684 794 
z
" transform="scale(0.015625)"/>
       </defs>
       <use xlink:href="#DejaVuSans-30"/>
       <use xlink:href="#DejaVuSans-2e" x="63.623047"/>
       <use xlink:href="#DejaVuSans-30" x="95.410156"/>
      </g>
     </g>
    </g>
    <g id="ytick_2">
     <g id="line2d_15">
      <path d="M 48.92 201.632 
L 486.21 201.632 
" clip-path="url(#p8b17ee2e30)" style="fill: none; stroke: #d8dee9; stroke-opacity: 0.4; stroke-width: 0.8; stroke-linecap: square"/>
     </g>
     <g id="line2d_16">
      <g>
       <use xlink:href="#mc2cc4ff4da" x="48.92" y="201.632" style="fill: #434c5e; stroke: #434c5e; stroke-width: 0.8"/>
      </g>
     </g>
     <g id="text_9">
      <!-- 0.1 -->
      <g style="fill: #434c5e" transform="translate(24.426563 205.811141) scale(0.11 -0.11)">
       <defs>
        <path id="DejaVuSans-31" d="M 794 531 
L 1825 531 
L 1825 4091 
L 703 3866 
L 703 4441 
L 1819 4666 
L 2450 4666 
L 2450 531 
L 3481 531 
L 3481 0 
L 794 0 
L 794 531 
z
" transform="scale(0.015625)"/>
       </defs>
       <use xlink:href="#DejaVuSans-30"/>
       <use xlink:href="#DejaVuSans-2e" x="63.623047"/>
       <use xlink:href="#DejaVuSans-31" x="95.410156"/>
      </g>
     </g>
    </g>
    <g id="ytick_3">
     <g id="line2d_17">
      <path d="M 48.92 157.704 
L 486.21 157.704 
" clip-path="url(#p8b17ee2e30)" style="fill: none; stroke: #d8dee9; stroke-opacity: 0.4; stroke-width: 0.8; stroke-linecap: square"/>
     </g>
     <g id="line2d_18">
      <g>
       <use xlink:href="#mc2cc4ff4da" x="48.92" y="157.704" style="fill: #434c5e; stroke: #434c5e; stroke-width: 0.8"/>
      </g>
     </g>
     <g id="text_10">
      <!-- 0.2 -->
      <g style="fill: #434c5e" transform="translate(24.426563 161.883141) scale(0.11 -0.11)">
       <use xlink:href="#DejaVuSans-30"/>
       <use xlink:href="#DejaVuSans-2e" x="63.623047"/>
       <use xlink:href="#DejaVuSans-32" x="95.410156"/>
      </g>
     </g>
    </g>
    <g id="ytick_4">
     <g id="line2d_19">
      <path d="M 48.92 113.776 
L 486.21 113.776 
" clip-path="url(#p8b17ee2e30)" style="fill: none; stroke: #d8dee9; stroke-opacity: 0.4; stroke-width: 0.8; stroke-linecap: square"/>
     </g>
     <g id="line2d_20">
      <g>
       <use xlink:href="#mc2cc4ff4da" x="48.92" y="113.776" style="fill: #434c5e; stroke: #434c5e; stroke-width: 0.8"/>
      </g>
     </g>
     <g id="text_11">
      <!-- 0.3 -->
      <g style="fill: #434c5e" transform="translate(24.426563 117.955141) scale(0.11 -0.11)">
       <use xlink:href="#DejaVuSans-30"/>
       <use xlink:href="#DejaVuSans-2e" x="63.623047"/>
       <use xlink:href="#DejaVuSans-33" x="95.410156"/>
      </g>
     </g>
    </g>
    <g id="ytick_5">
     <g id="line2d_21">
      <path d="M 48.92 69.848 
L 486.21 69.848 
" clip-path="url(#p8b17ee2e30)" style="fill: none; stroke: #d8dee9; stroke-opacity: 0.4; stroke-width: 0.8; stroke-linecap: square"/>
     </g>
     <g id="line2d_22">
      <g>
       <use xlink:href="#mc2cc4ff4da" x="48.92" y="69.848" style="fill: #434c5e; stroke: #434c5e; stroke-width: 0.8"/>
      </g>
     </g>
     <g id="text_12">
      <!-- 0.4 -->
      <g style="fill: #434c5e" transform="translate(24.426563 74.027141) scale(0.11 -0.11)">
       <use xlink:href="#DejaVuSans-30"/>
       <use xlink:href="#DejaVuSans-2e" x="63.623047"/>
       <use xlink:href="#DejaVuSans-34" x="95.410156"/>
      </g>
     </g>
    </g>
    <g id="ytick_6">
     <g id="line2d_23">
      <path d="M 48.92 25.92 
L 486.21 25.92 
" clip-path="url(#p8b17ee2e30)" style="fill: none; stroke: #d8dee9; stroke-opacity: 0.4; stroke-width: 0.8; stroke-linecap: square"/>
     </g>
     <g id="line2d_24">
      <g>
       <use xlink:href="#mc2cc4ff4da" x="48.92" y="25.92" style="fill: #434c5e; stroke: #434c5e; stroke-width: 0.8"/>
      </g>
     </g>
     <g id="text_13">
      <!-- 0.5 -->
      <g style="fill: #434c5e" transform="translate(24.426563 30.099141) scale(0.11 -0.11)">
       <use xlink:href="#DejaVuSans-30"/>
       <use xlink:href="#DejaVuSans-2e" x="63.623047"/>
       <use xlink:href="#DejaVuSans-35" x="95.410156"/>
      </g>
     </g>
    </g>
    <g id="text_14">
     <!-- Probabilité de Best Performer -->
     <g style="fill: #434c5e" transform="translate(18.346875 209.131406) rotate(-90) scale(0.1 -0.1)">
      <defs>
       <path id="DejaVuSans-50" d="M 1259 4147 
L 1259 2394 
L 2053 2394 
Q 2494 2394 2734 2622 
Q 2975 2850 2975 3272 
Q 2975 3691 2734 3919 
Q 2494 4147 2053 4147 
L 1259 4147 
z
M 628 4666 
L 2053 4666 
Q 2838 4666 3239 4311 
Q 3641 3956 3641 3272 
Q 3641 2581 3239 2228 
Q 2838 1875 2053 1875 
L 1259 1875 
L 1259 0 
L 628 0 
L 628 4666 
z
" transform="scale(0.015625)"/>
       <path id="DejaVuSans-72" d="M 2631 2963 
Q 2534 3019 2420 3045 
Q 2306 3072 2169 3072 
Q 1681 3072 1420 2755 
Q 1159 2438 1159 1844 
L 1159 0 
L 581 0 
L 581 3500 
L 1159 3500 
L 1159 2956 
Q 1341 3275 1631 3429 
Q 1922 3584 2338 3584 
Q 2397 3584 2469 3576 
Q 2541 3569 2628 3553 
L 2631 2963 
z
" transform="scale(0.015625)"/>
       <path id="DejaVuSans-6f" d="M 1959 3097 
Q 1497 3097 1228 2736 
Q 959 2375 959 1747 
Q 959 1119 1226 758 
Q 1494 397 1959 397 
Q 2419 397 2687 759 
Q 2956 1122 2956 1747 
Q 2956 2369 2687 2733 
Q 2419 3097 1959 3097 
z
M 1959 3584 
Q 2709 3584 3137 3096 
Q 3566 2609 3566 1747 
Q 3566 888 3137 398 
Q 2709 -91 1959 -91 
Q 1206 -91 779 398 
Q 353 888 353 1747 
Q 353 2609 779 3096 
Q 1206 3584 1959 3584 
z
" transform="scale(0.015625)"/>
       <path id="DejaVuSans-62" d="M 3116 1747 
Q 3116 2381 2855 2742 
Q 2594 3103 2138 3103 
Q 1681 3103 1420 2742 
Q 1159 2381 1159 1747 
Q 1159 1113 1420 752 
Q 1681 391 2138 391 
Q 2594 391 2855 752 
Q 3116 1113 3116 1747 
z
M 1159 2969 
Q 1341 3281 1617 3432 
Q 1894 3584 2278 3584 
Q 2916 3584 3314 3078 
Q 3713 2572 3713 1747 
Q 3713 922 3314 415 
Q 2916 -91 2278 -91 
Q 1894 -91 1617 61 
Q 1341 213 1159 525 
L 1159 0 
L 581 0 
L 581 4863 
L 1159 4863 
L 1159 2969 
z
" transform="scale(0.015625)"/>
       <path id="DejaVuSans-61" d="M 2194 1759 
Q 1497 1759 1228 1600 
Q 959 1441 959 1056 
Q 959 750 1161 570 
Q 1363 391 1709 391 
Q 2188 391 2477 730 
Q 2766 1069 2766 1631 
L 2766 1759 
L 2194 1759 
z
M 3341 1997 
L 3341 0 
L 2766 0 
L 2766 531 
Q 2569 213 2275 61 
Q 1981 -91 1556 -91 
Q 1019 -91 701 211 
Q 384 513 384 1019 
Q 384 1609 779 1909 
Q 1175 2209 1959 2209 
L 2766 2209 
L 2766 2266 
Q 2766 2663 2505 2880 
Q 2244 3097 1772 3097 
Q 1472 3097 1187 3025 
Q 903 2953 641 2809 
L 641 3341 
Q 956 3463 1253 3523 
Q 1550 3584 1831 3584 
Q 2591 3584 2966 3190 
Q 3341 2797 3341 1997 
z
" transform="scale(0.015625)"/>
       <path id="DejaVuSans-69" d="M 603 3500 
L 1178 3500 
L 1178 0 
L 603 0 
L 603 3500 
z
M 603 4863 
L 1178 4863 
L 1178 4134 
L 603 4134 
L 603 4863 
z
" transform="scale(0.015625)"/>
       <path id="DejaVuSans-6c" d="M 603 4863 
L 1178 4863 
L 1178 0 
L 603 0 
L 603 4863 
z
" transform="scale(0.015625)"/>
       <path id="DejaVuSans-74" d="M 1172 4494 
L 1172 3500 
L 2356 3500 
L 2356 3053 
L 1172 3053 
L 1172 1153 
Q 1172 725 1289 603 
Q 1406 481 1766 481 
L 2356 481 
L 2356 0 
L 1766 0 
Q 1100 0 847 248 
Q 594 497 594 1153 
L 594 3053 
L 172 3053 
L 172 3500 
L 594 3500 
L 594 4494 
L 1172 4494 
z
" transform="scale(0.015625)"/>
       <path id="DejaVuSans-e9" d="M 3597 1894 
L 3597 1613 
L 953 1613 
Q 991 1019 1311 708 
Q 1631 397 2203 397 
Q 2534 397 2845 478 
Q 3156 559 3463 722 
L 3463 178 
Q 3153 47 2828 -22 
Q 2503 -91 2169 -91 
Q 1331 -91 842 396 
Q 353 884 353 1716 
Q 353 2575 817 3079 
Q 1281 3584 2069 3584 
Q 2775 3584 3186 3129 
Q 3597 2675 3597 1894 
z
M 3022 2063 
Q 3016 2534 2758 2815 
Q 2500 3097 2075 3097 
Q 1594 3097 1305 2825 
Q 1016 2553 972 2059 
L 3022 2063 
z
M 2466 5119 
L 3088 5119 
L 2070 3944 
L 1591 3944 
L 2466 5119 
z
" transform="scale(0.015625)"/>
       <path id="DejaVuSans-64" d="M 2906 2969 
L 2906 4863 
L 3481 4863 
L 3481 0 
L 2906 0 
L 2906 525 
Q 2725 213 2448 61 
Q 2172 -91 1784 -91 
Q 1150 -91 751 415 
Q 353 922 353 1747 
Q 353 2572 751 3078 
Q 1150 3584 1784 3584 
Q 2172 3584 2448 3432 
Q 2725 3281 2906 2969 
z
M 947 1747 
Q 947 1113 1208 752 
Q 1469 391 1925 391 
Q 2381 391 2643 752 
Q 2906 1113 2906 1747 
Q 2906 2381 2643 2742 
Q 2381 3103 1925 3103 
Q 1469 3103 1208 2742 
Q 947 2381 947 1747 
z
" transform="scale(0.015625)"/>
       <path id="DejaVuSans-65" d="M 3597 1894 
L 3597 1613 
L 953 1613 
Q 991 1019 1311 708 
Q 1631 397 2203 397 
Q 2534 397 2845 478 
Q 3156 559 3463 722 
L 3463 178 
Q 3153 47 2828 -22 
Q 2503 -91 2169 -91 
Q 1331 -91 842 396 
Q 353 884 353 1716 
Q 353 2575 817 3079 
Q 1281 3584 2069 3584 
Q 2775 3584 3186 3129 
Q 3597 2675 3597 1894 
z
M 3022 2063 
Q 3016 2534 2758 2815 
Q 2500 3097 2075 3097 
Q 1594 3097 1305 2825 
Q 1016 2553 972 2059 
L 3022 2063 
z
" transform="scale(0.015625)"/>
       <path id="DejaVuSans-73" d="M 2834 3397 
L 2834 2853 
Q 2591 2978 2328 3040 
Q 2066 3103 1784 3103 
Q 1356 3103 1142 2972 
Q 928 2841 928 2578 
Q 928 2378 1081 2264 
Q 1234 2150 1697 2047 
L 1894 2003 
Q 2506 1872 2764 1633 
Q 3022 1394 3022 966 
Q 3022 478 2636 193 
Q 2250 -91 1575 -91 
Q 1294 -91 989 -36 
Q 684 19 347 128 
L 347 722 
Q 666 556 975 473 
Q 1284 391 1588 391 
Q 1994 391 2212 530 
Q 2431 669 2431 922 
Q 2431 1156 2273 1281 
Q 2116 1406 1581 1522 
L 1381 1569 
Q 847 1681 609 1914 
Q 372 2147 372 2553 
Q 372 3047 722 3315 
Q 1072 3584 1716 3584 
Q 2034 3584 2315 3537 
Q 2597 3491 2834 3397 
z
" transform="scale(0.015625)"/>
       <path id="DejaVuSans-66" d="M 2375 4863 
L 2375 4384 
L 1825 4384 
Q 1516 4384 1395 4259 
Q 1275 4134 1275 3809 
L 1275 3500 
L 2222 3500 
L 2222 3053 
L 1275 3053 
L 1275 0 
L 697 0 
L 697 3053 
L 147 3053 
L 147 3500 
L 697 3500 
L 697 3744 
Q 697 4328 969 4595 
Q 1241 4863 1831 4863 
L 2375 4863 
z
" transform="scale(0.015625)"/>
      </defs>
      <use xlink:href="#DejaVuSans-50"/>
      <use xlink:href="#DejaVuSans-72" x="58.552734"/>
      <use xlink:href="#DejaVuSans-6f" x="97.416016"/>
      <use xlink:href="#DejaVuSans-62" x="158.597656"/>
      <use xlink:href="#DejaVuSans-61" x="222.074219"/>
      <use xlink:href="#DejaVuSans-62" x="283.353516"/>
      <use xlink:href="#DejaVuSans-69" x="346.830078"/>
      <use xlink:href="#DejaVuSans-6c" x="374.613281"/>
      <use xlink:href="#DejaVuSans-69" x="402.396484"/>
      <use xlink:href="#DejaVuSans-74" x="430.179688"/>
      <use xlink:href="#DejaVuSans-e9" x="469.388672"/>
      <use xlink:href="#DejaVuSans-20" x="530.912109"/>
      <use xlink:href="#DejaVuSans-64" x="562.699219"/>
      <use xlink:href="#DejaVuSans-65" x="626.175781"/>
      <use xlink:href="#DejaVuSans-20" x="687.699219"/>
      <use xlink:href="#DejaVuSans-42" x="719.486328"/>
      <use xlink:href="#DejaVuSans-65" x="788.089844"/>
      <use xlink:href="#DejaVuSans-73" x="849.613281"/>
      <use xlink:href="#DejaVuSans-74" x="901.712891"/>
      <use xlink:href="#DejaVuSans-20" x="940.921875"/>
      <use xlink:href="#DejaVuSans-50" x="972.708984"/>
      <use xlink:href="#DejaVuSans-65" x="1029.386719"/>
      <use xlink:href="#DejaVuSans-72" x="1090.910156"/>
      <use xlink:href="#DejaVuSans-66" x="1132.023438"/>
      <use xlink:href="#DejaVuSans-6f" x="1167.228516"/>
      <use xlink:href="#DejaVuSans-72" x="1228.410156"/>
      <use xlink:href="#DejaVuSans-6d" x="1267.773438"/>
      <use xlink:href="#DejaVuSans-65" x="1365.185547"/>
      <use xlink:href="#DejaVuSans-72" x="1426.708984"/>
     </g>
    </g>
   </g>
   <g id="line2d_25">
    <path d="M 48.92 106.565268 
L 75.289246 114.08505 
L 101.658492 121.373264 
L 128.027739 128.418215 
L 152.199548 134.654214 
L 176.371357 140.67202 
L 200.543166 146.467354 
L 224.714975 152.037352 
L 248.886784 157.380498 
L 273.058593 162.496539 
L 297.230402 167.386398 
L 321.402211 172.05207 
L 345.57402 176.49652 
L 369.745829 180.723581 
L 393.917638 184.737842 
L 420.286884 188.880518 
L 446.656131 192.783753 
L 473.025377 196.455738 
L 486.21 198.20771 
L 486.21 198.20771 
" clip-path="url(#p8b17ee2e30)" style="fill: none; stroke: #5e81ac; stroke-width: 1.5; stroke-linecap: square"/>
   </g>
   <g id="line2d_26">
    <path d="M 48.92 100.753468 
L 77.486683 108.474085 
L 106.053367 115.971244 
L 134.62005 123.231443 
L 160.989296 129.713044 
L 187.358543 135.975883 
L 213.727789 142.014325 
L 240.097035 147.824271 
L 266.466281 153.403087 
L 292.835528 158.749534 
L 319.204774 163.863673 
L 345.57402 168.746768 
L 371.943266 173.401177 
L 398.312513 177.830245 
L 424.681759 182.03819 
L 451.051005 186.029991 
L 477.420251 189.811277 
L 486.21 191.025978 
L 486.21 191.025978 
" clip-path="url(#p8b17ee2e30)" style="fill: none; stroke: #d08770; stroke-width: 1.5; stroke-linecap: square"/>
   </g>
   <g id="line2d_27">
    <path d="M 48.92 86.686844 
L 88.473869 95.800869 
L 125.830302 104.178019 
L 160.989296 111.838914 
L 196.148291 119.267816 
L 229.109849 126.010388 
L 262.071407 132.529214 
L 295.032965 138.817362 
L 327.994523 144.869592 
L 360.95608 150.682296 
L 391.720201 155.88955 
L 422.484322 160.885833 
L 453.248442 165.671662 
L 486.21 170.567488 
L 486.21 170.567488 
" clip-path="url(#p8b17ee2e30)" style="fill: none; stroke: #a3be8c; stroke-width: 1.5; stroke-linecap: square"/>
   </g>
   <g id="patch_3">
    <path d="M 48.92 245.56 
L 48.92 25.92 
" style="fill: none; stroke: #434c5e; stroke-width: 0.8; stroke-linejoin: miter; stroke-linecap: square"/>
   </g>
   <g id="patch_4">
    <path d="M 486.21 245.56 
L 486.21 25.92 
" style="fill: none; stroke: #434c5e; stroke-width: 0.8; stroke-linejoin: miter; stroke-linecap: square"/>
   </g>
   <g id="patch_5">
    <path d="M 48.92 245.56 
L 486.21 245.56 
" style="fill: none; stroke: #434c5e; stroke-width: 0.8; stroke-linejoin: miter; stroke-linecap: square"/>
   </g>
   <g id="patch_6">
    <path d="M 48.92 25.92 
L 486.21 25.92 
" style="fill: none; stroke: #434c5e; stroke-width: 0.8; stroke-linejoin: miter; stroke-linecap: square"/>
   </g>
   <g id="text_15">
    <!-- Interaction p=0.017 -->
    <g style="fill: #4c566a" transform="translate(57.6658 221.3005) scale(0.1 -0.1)">
     <defs>
      <path id="DejaVuSans-6e" d="M 3513 2113 
L 3513 0 
L 2938 0 
L 2938 2094 
Q 2938 2591 2744 2837 
Q 2550 3084 2163 3084 
Q 1697 3084 1428 2787 
Q 1159 2491 1159 1978 
L 1159 0 
L 581 0 
L 581 3500 
L 1159 3500 
L 1159 2956 
Q 1366 3272 1645 3428 
Q 1925 3584 2291 3584 
Q 2894 3584 3203 3211 
Q 3513 2838 3513 2113 
z
" transform="scale(0.015625)"/>
      <path id="DejaVuSans-63" d="M 3122 3366 
L 3122 2828 
Q 2878 2963 2633 3030 
Q 2388 3097 2138 3097 
Q 1578 3097 1268 2742 
Q 959 2388 959 1747 
Q 959 1106 1268 751 
Q 1578 397 2138 397 
Q 2388 397 2633 464 
Q 2878 531 3122 666 
L 3122 134 
Q 2881 22 2623 -34 
Q 2366 -91 2075 -91 
Q 1284 -91 818 406 
Q 353 903 353 1747 
Q 353 2603 823 3093 
Q 1294 3584 2113 3584 
Q 2378 3584 2631 3529 
Q 2884 3475 3122 3366 
z
" transform="scale(0.015625)"/>
      <path id="DejaVuSans-70" d="M 1159 525 
L 1159 -1331 
L 581 -1331 
L 581 3500 
L 1159 3500 
L 1159 2969 
Q 1341 3281 1617 3432 
Q 1894 3584 2278 3584 
Q 2916 3584 3314 3078 
Q 3713 2572 3713 1747 
Q 3713 922 3314 415 
Q 2916 -91 2278 -91 
Q 1894 -91 1617 61 
Q 1341 213 1159 525 
z
M 3116 1747 
Q 3116 2381 2855 2742 
Q 2594 3103 2138 3103 
Q 1681 3103 1420 2742 
Q 1159 2381 1159 1747 
Q 1159 1113 1420 752 
Q 1681 391 2138 391 
Q 2594 391 2855 752 
Q 3116 1113 3116 1747 
z
" transform="scale(0.015625)"/>
      <path id="DejaVuSans-3d" d="M 678 2906 
L 4684 2906 
L 4684 2381 
L 678 2381 
L 678 2906 
z
M 678 1631 
L 4684 1631 
L 4684 1100 
L 678 1100 
L 678 1631 
z
" transform="scale(0.015625)"/>
      <path id="DejaVuSans-37" d="M 525 4666 
L 3525 4666 
L 3525 4397 
L 1831 0 
L 1172 0 
L 2766 4134 
L 525 4134 
L 525 4666 
z
" transform="scale(0.015625)"/>
     </defs>
     <use xlink:href="#DejaVuSans-49"/>
     <use xlink:href="#DejaVuSans-6e" x="29.492188"/>
     <use xlink:href="#DejaVuSans-74" x="92.871094"/>
     <use xlink:href="#DejaVuSans-65" x="132.080078"/>
     <use xlink:href="#DejaVuSans-72" x="193.603516"/>
     <use xlink:href="#DejaVuSans-61" x="234.716797"/>
     <use xlink:href="#DejaVuSans-63" x="295.996094"/>
     <use xlink:href="#DejaVuSans-74" x="350.976562"/>
     <use xlink:href="#DejaVuSans-69" x="390.185547"/>
     <use xlink:href="#DejaVuSans-6f" x="417.96875"/>
     <use xlink:href="#DejaVuSans-6e" x="479.150391"/>
     <use xlink:href="#DejaVuSans-20" x="542.529297"/>
     <use xlink:href="#DejaVuSans-70" x="574.316406"/>
     <use xlink:href="#DejaVuSans-3d" x="637.792969"/>
     <use xlink:href="#DejaVuSans-30" x="721.582031"/>
     <use xlink:href="#DejaVuSans-2e" x="785.205078"/>
     <use xlink:href="#DejaVuSans-30" x="816.992188"/>
     <use xlink:href="#DejaVuSans-31" x="880.615234"/>
     <use xlink:href="#DejaVuSans-37" x="944.238281"/>
    </g>
    <!-- BMI 40: ΔHigh-Low=0.08 (0.05,0.11); p=0.000 -->
    <g style="fill: #4c566a" transform="translate(57.6658 232.498312) scale(0.1 -0.1)">
     <defs>
      <path id="DejaVuSans-3a" d="M 750 794 
L 1409 794 
L 1409 0 
L 750 0 
L 750 794 
z
M 750 3309 
L 1409 3309 
L 1409 2516 
L 750 2516 
L 750 3309 
z
" transform="scale(0.015625)"/>
      <path id="DejaVuSans-394" d="M 2188 4044 
L 906 525 
L 3472 525 
L 2188 4044 
z
M 50 0 
L 1831 4666 
L 2547 4666 
L 4325 0 
L 50 0 
z
" transform="scale(0.015625)"/>
      <path id="DejaVuSans-48" d="M 628 4666 
L 1259 4666 
L 1259 2753 
L 3553 2753 
L 3553 4666 
L 4184 4666 
L 4184 0 
L 3553 0 
L 3553 2222 
L 1259 2222 
L 1259 0 
L 628 0 
L 628 4666 
z
" transform="scale(0.015625)"/>
      <path id="DejaVuSans-68" d="M 3513 2113 
L 3513 0 
L 2938 0 
L 2938 2094 
Q 2938 2591 2744 2837 
Q 2550 3084 2163 3084 
Q 1697 3084 1428 2787 
Q 1159 2491 1159 1978 
L 1159 0 
L 581 0 
L 581 4863 
L 1159 4863 
L 1159 2956 
Q 1366 3272 1645 3428 
Q 1925 3584 2291 3584 
Q 2894 3584 3203 3211 
Q 3513 2838 3513 2113 
z
" transform="scale(0.015625)"/>
      <path id="DejaVuSans-2d" d="M 313 2009 
L 1997 2009 
L 1997 1497 
L 313 1497 
L 313 2009 
z
" transform="scale(0.015625)"/>
      <path id="DejaVuSans-4c" d="M 628 4666 
L 1259 4666 
L 1259 531 
L 3531 531 
L 3531 0 
L 628 0 
L 628 4666 
z
" transform="scale(0.015625)"/>
      <path id="DejaVuSans-77" d="M 269 3500 
L 844 3500 
L 1563 769 
L 2278 3500 
L 2956 3500 
L 3675 769 
L 4391 3500 
L 4966 3500 
L 4050 0 
L 3372 0 
L 2619 2869 
L 1863 0 
L 1184 0 
L 269 3500 
z
" transform="scale(0.015625)"/>
      <path id="DejaVuSans-38" d="M 2034 2216 
Q 1584 2216 1326 1975 
Q 1069 1734 1069 1313 
Q 1069 891 1326 650 
Q 1584 409 2034 409 
Q 2484 409 2743 651 
Q 3003 894 3003 1313 
Q 3003 1734 2745 1975 
Q 2488 2216 2034 2216 
z
M 1403 2484 
Q 997 2584 770 2862 
Q 544 3141 544 3541 
Q 544 4100 942 4425 
Q 1341 4750 2034 4750 
Q 2731 4750 3128 4425 
Q 3525 4100 3525 3541 
Q 3525 3141 3298 2862 
Q 3072 2584 2669 2484 
Q 3125 2378 3379 2068 
Q 3634 1759 3634 1313 
Q 3634 634 3220 271 
Q 2806 -91 2034 -91 
Q 1263 -91 848 271 
Q 434 634 434 1313 
Q 434 1759 690 2068 
Q 947 2378 1403 2484 
z
M 1172 3481 
Q 1172 3119 1398 2916 
Q 1625 2713 2034 2713 
Q 2441 2713 2670 2916 
Q 2900 3119 2900 3481 
Q 2900 3844 2670 4047 
Q 2441 4250 2034 4250 
Q 1625 4250 1398 4047 
Q 1172 3844 1172 3481 
z
" transform="scale(0.015625)"/>
      <path id="DejaVuSans-2c" d="M 750 794 
L 1409 794 
L 1409 256 
L 897 -744 
L 494 -744 
L 750 256 
L 750 794 
z
" transform="scale(0.015625)"/>
      <path id="DejaVuSans-3b" d="M 750 3309 
L 1409 3309 
L 1409 2516 
L 750 2516 
L 750 3309 
z
M 750 794 
L 1409 794 
L 1409 256 
L 897 -744 
L 494 -744 
L 750 256 
L 750 794 
z
" transform="scale(0.015625)"/>
     </defs>
     <use xlink:href="#DejaVuSans-42"/>
     <use xlink:href="#DejaVuSans-4d" x="68.603516"/>
     <use xlink:href="#DejaVuSans-49" x="154.882812"/>
     <use xlink:href="#DejaVuSans-20" x="184.375"/>
     <use xlink:href="#DejaVuSans-34" x="216.162109"/>
     <use xlink:href="#DejaVuSans-30" x="279.785156"/>
     <use xlink:href="#DejaVuSans-3a" x="343.408203"/>
     <use xlink:href="#DejaVuSans-20" x="377.099609"/>
     <use xlink:href="#DejaVuSans-394" x="408.886719"/>
     <use xlink:href="#DejaVuSans-48" x="477.294922"/>
     <use xlink:href="#DejaVuSans-69" x="552.490234"/>
     <use xlink:href="#DejaVuSans-67" x="580.273438"/>
     <use xlink:href="#DejaVuSans-68" x="643.75"/>
     <use xlink:href="#DejaVuSans-2d" x="707.128906"/>
     <use xlink:href="#DejaVuSans-4c" x="743.212891"/>
     <use xlink:href="#DejaVuSans-6f" x="797.175781"/>
     <use xlink:href="#DejaVuSans-77" x="858.357422"/>
     <use xlink:href="#DejaVuSans-3d" x="940.144531"/>
     <use xlink:href="#DejaVuSans-30" x="1023.933594"/>
     <use xlink:href="#DejaVuSans-2e" x="1087.556641"/>
     <use xlink:href="#DejaVuSans-30" x="1119.34375"/>
     <use xlink:href="#DejaVuSans-38" x="1182.966797"/>
     <use xlink:href="#DejaVuSans-20" x="1246.589844"/>
     <use xlink:href="#DejaVuSans-28" x="1278.376953"/>
     <use xlink:href="#DejaVuSans-30" x="1317.390625"/>
     <use xlink:href="#DejaVuSans-2e" x="1381.013672"/>
     <use xlink:href="#DejaVuSans-30" x="1412.800781"/>
     <use xlink:href="#DejaVuSans-35" x="1476.423828"/>
     <use xlink:href="#DejaVuSans-2c" x="1540.046875"/>
     <use xlink:href="#DejaVuSans-30" x="1571.833984"/>
     <use xlink:href="#DejaVuSans-2e" x="1635.457031"/>
     <use xlink:href="#DejaVuSans-31" x="1667.244141"/>
     <use xlink:href="#DejaVuSans-31" x="1730.867188"/>
     <use xlink:href="#DejaVuSans-29" x="1794.490234"/>
     <use xlink:href="#DejaVuSans-3b" x="1833.503906"/>
     <use xlink:href="#DejaVuSans-20" x="1867.195312"/>
     <use xlink:href="#DejaVuSans-70" x="1898.982422"/>
     <use xlink:href="#DejaVuSans-3d" x="1962.458984"/>
     <use xlink:href="#DejaVuSans-30" x="2046.248047"/>
     <use xlink:href="#DejaVuSans-2e" x="2109.871094"/>
     <use xlink:href="#DejaVuSans-30" x="2141.658203"/>
     <use xlink:href="#DejaVuSans-30" x="2205.28125"/>
     <use xlink:href="#DejaVuSans-30" x="2268.904297"/>
    </g>
   </g>
   <g id="text_16">
    <!-- Interaction BMI × volume : tiers de centre -->
    <g style="fill: #4c566a" transform="translate(141.35125 19.92) scale(0.12 -0.12)">
     <defs>
      <path id="DejaVuSans-d7" d="M 4488 3438 
L 3059 2003 
L 4488 575 
L 4116 197 
L 2681 1631 
L 1247 197 
L 878 575 
L 2303 2003 
L 878 3438 
L 1247 3816 
L 2681 2381 
L 4116 3816 
L 4488 3438 
z
" transform="scale(0.015625)"/>
      <path id="DejaVuSans-76" d="M 191 3500 
L 800 3500 
L 1894 563 
L 2988 3500 
L 3597 3500 
L 2284 0 
L 1503 0 
L 191 3500 
z
" transform="scale(0.015625)"/>
      <path id="DejaVuSans-75" d="M 544 1381 
L 544 3500 
L 1119 3500 
L 1119 1403 
Q 1119 906 1312 657 
Q 1506 409 1894 409 
Q 2359 409 2629 706 
Q 2900 1003 2900 1516 
L 2900 3500 
L 3475 3500 
L 3475 0 
L 2900 0 
L 2900 538 
Q 2691 219 2414 64 
Q 2138 -91 1772 -91 
Q 1169 -91 856 284 
Q 544 659 544 1381 
z
M 1991 3584 
L 1991 3584 
z
" transform="scale(0.015625)"/>
     </defs>
     <use xlink:href="#DejaVuSans-49"/>
     <use xlink:href="#DejaVuSans-6e" x="29.492188"/>
     <use xlink:href="#DejaVuSans-74" x="92.871094"/>
     <use xlink:href="#DejaVuSans-65" x="132.080078"/>
     <use xlink:href="#DejaVuSans-72" x="193.603516"/>
     <use xlink:href="#DejaVuSans-61" x="234.716797"/>
     <use xlink:href="#DejaVuSans-63" x="295.996094"/>
     <use xlink:href="#DejaVuSans-74" x="350.976562"/>
     <use xlink:href="#DejaVuSans-69" x="390.185547"/>
     <use xlink:href="#DejaVuSans-6f" x="417.96875"/>
     <use xlink:href="#DejaVuSans-6e" x="479.150391"/>
     <use xlink:href="#DejaVuSans-20" x="542.529297"/>
     <use xlink:href="#DejaVuSans-42" x="574.316406"/>
     <use xlink:href="#DejaVuSans-4d" x="642.919922"/>
     <use xlink:href="#DejaVuSans-49" x="729.199219"/>
     <use xlink:href="#DejaVuSans-20" x="758.691406"/>
     <use xlink:href="#DejaVuSans-d7" x="790.478516"/>
     <use xlink:href="#DejaVuSans-20" x="874.267578"/>
     <use xlink:href="#DejaVuSans-76" x="906.054688"/>
     <use xlink:href="#DejaVuSans-6f" x="965.234375"/>
     <use xlink:href="#DejaVuSans-6c" x="1026.416016"/>
     <use xlink:href="#DejaVuSans-75" x="1054.199219"/>
     <use xlink:href="#DejaVuSans-6d" x="1117.578125"/>
     <use xlink:href="#DejaVuSans-65" x="1214.990234"/>
     <use xlink:href="#DejaVuSans-20" x="1276.513672"/>
     <use xlink:href="#DejaVuSans-3a" x="1308.300781"/>
     <use xlink:href="#DejaVuSans-20" x="1341.992188"/>
     <use xlink:href="#DejaVuSans-74" x="1373.779297"/>
     <use xlink:href="#DejaVuSans-69" x="1412.988281"/>
     <use xlink:href="#DejaVuSans-65" x="1440.771484"/>
     <use xlink:href="#DejaVuSans-72" x="1502.294922"/>
     <use xlink:href="#DejaVuSans-73" x="1543.408203"/>
     <use xlink:href="#DejaVuSans-20" x="1595.507812"/>
     <use xlink:href="#DejaVuSans-64" x="1627.294922"/>
     <use xlink:href="#DejaVuSans-65" x="1690.771484"/>
     <use xlink:href="#DejaVuSans-20" x="1752.294922"/>
     <use xlink:href="#DejaVuSans-63" x="1784.082031"/>
     <use xlink:href="#DejaVuSans-65" x="1839.0625"/>
     <use xlink:href="#DejaVuSans-6e" x="1900.585938"/>
     <use xlink:href="#DejaVuSans-74" x="1963.964844"/>
     <use xlink:href="#DejaVuSans-72" x="2003.173828"/>
     <use xlink:href="#DejaVuSans-65" x="2042.037109"/>
    </g>
   </g>
   <g id="legend_1">
    <g id="text_17">
     <!-- Volume -->
     <g transform="translate(64.815313 190.445937) scale(0.1 -0.1)">
      <defs>
       <path id="DejaVuSans-56" d="M 1831 0 
L 50 4666 
L 709 4666 
L 2188 738 
L 3669 4666 
L 4325 4666 
L 2547 0 
L 1831 0 
z
" transform="scale(0.015625)"/>
      </defs>
      <use xlink:href="#DejaVuSans-56"/>
      <use xlink:href="#DejaVuSans-6f" x="60.658203"/>
      <use xlink:href="#DejaVuSans-6c" x="121.839844"/>
      <use xlink:href="#DejaVuSans-75" x="149.623047"/>
      <use xlink:href="#DejaVuSans-6d" x="213.001953"/>
      <use xlink:href="#DejaVuSans-65" x="310.414062"/>
     </g>
    </g>
    <g id="line2d_28">
     <path d="M 57.92 201.624062 
L 67.92 201.624062 
L 77.92 201.624062 
" style="fill: none; stroke: #5e81ac; stroke-width: 1.5; stroke-linecap: square"/>
    </g>
    <g id="text_18">
     <!-- Low -->
     <g transform="translate(85.92 205.124062) scale(0.1 -0.1)">
      <use xlink:href="#DejaVuSans-4c"/>
      <use xlink:href="#DejaVuSans-6f" x="53.962891"/>
      <use xlink:href="#DejaVuSans-77" x="115.144531"/>
     </g>
    </g>
    <g id="line2d_29">
     <path d="M 57.92 216.302187 
L 67.92 216.302187 
L 77.92 216.302187 
" style="fill: none; stroke: #d08770; stroke-width: 1.5; stroke-linecap: square"/>
    </g>
    <g id="text_19">
     <!-- Mid -->
     <g transform="translate(85.92 219.802187) scale(0.1 -0.1)">
      <use xlink:href="#DejaVuSans-4d"/>
      <use xlink:href="#DejaVuSans-69" x="86.279297"/>
      <use xlink:href="#DejaVuSans-64" x="114.0625"/>
     </g>
    </g>
    <g id="line2d_30">
     <path d="M 57.92 230.980312 
L 67.92 230.980312 
L 77.92 230.980312 
" style="fill: none; stroke: #a3be8c; stroke-width: 1.5; stroke-linecap: square"/>
    </g>
    <g id="text_20">
     <!-- High -->
     <g transform="translate(85.92 234.480312) scale(0.1 -0.1)">
      <use xlink:href="#DejaVuSans-48"/>
      <use xlink:href="#DejaVuSans-69" x="75.195312"/>
      <use xlink:href="#DejaVuSans-67" x="102.978516"/>
      <use xlink:href="#DejaVuSans-68" x="166.455078"/>
     </g>
    </g>
   </g>
  </g>
 </g>
 <defs>
  <clipPath id="p8b17ee2e30">
   <rect x="48.92" y="25.92" width="437.29" height="219.64"/>
  </clipPath>
 </defs>
</svg>
