<?xml version="1.0" encoding="utf-8" standalone="no"?>
<!DOCTYPE svg PUBLIC "-//W3C//DTD SVG 1.1//EN"
  "http://www.w3.org/Graphics/SVG/1.1/DTD/svg11.dtd">
<svg xmlns:xlink="http://www.w3.org/1999/xlink" width="504pt" height="288pt" viewBox="0 0 504 288" xmlns="http://www.w3.org/2000/svg" version="1.1">
 <metadata>
  <rdf:RDF xmlns:dc="http://purl.org/dc/elements/1.1/" xmlns:cc="http://creativecommons.org/ns#" xmlns:rdf="http://www.w3.org/1999/02/22-rdf-syntax-ns#">
   <cc:Work>
    <dc:type rdf:resource="http://purl.org/dc/dcmitype/StillImage"/>
    <dc:date>2025-12-10T09:08:43.239438</dc:date>
    <dc:format>image/svg+xml</dc:format>
    <dc:creator>
     <cc:Agent>
      <dc:title>Matplotlib v3.10.6, https://matplotlib.org/</dc:title>
     </cc:Agent>
    </dc:creator>
   </cc:Work>
  </rdf:RDF>
 </metadata>
 <defs>
  <style type="text/css">*{stroke-linejoin: round; stroke-linecap: butt}</style>
 </defs>
 <g id="figure_1">
  <g id="patch_1">
   <path d="M 0 288 
L 504 288 
L 504 0 
L 0 0 
z
" style="fill: #ffffff"/>
  </g>
  <g id="axes_1">
   <g id="patch_2">
    <path d="M 48.92 245.56 
L 486.21 245.56 
L 486.21 25.92 
L 48.92 25.92 
z
" style="fill: #ffffff"/>
   </g>
   <g id="FillBetweenPolyCollection_1">
    <defs>
     <path id="m6f45590ce4" d="M 48.92 -220.026603 
L 48.92 -148.597282 
L 51.117437 -148.199758 
L 53.314874 -147.801787 
L 55.512312 -147.403351 
L 57.709749 -147.004434 
L 59.907186 -146.605019 
L 62.104623 -146.205091 
L 64.30206 -145.804632 
L 66.499497 -145.403627 
L 68.696935 -145.00206 
L 70.894372 -144.599915 
L 73.091809 -144.197178 
L 75.289246 -143.793832 
L 77.486683 -143.389863 
L 79.684121 -142.985257 
L 81.881558 -142.579999 
L 84.078995 -142.174075 
L 86.276432 -141.767472 
L 88.473869 -141.360176 
L 90.671307 -140.952173 
L 92.868744 -140.543453 
L 95.066181 -140.134001 
L 97.263618 -139.723806 
L 99.461055 -139.312858 
L 101.658492 -138.901144 
L 103.85593 -138.488655 
L 106.053367 -138.075379 
L 108.250804 -137.661309 
L 110.448241 -137.246434 
L 112.645678 -136.830745 
L 114.843116 -136.414236 
L 117.040553 -135.996899 
L 119.23799 -135.578726 
L 121.435427 -135.159712 
L 123.632864 -134.739851 
L 125.830302 -134.319137 
L 128.027739 -133.897568 
L 130.225176 -133.475139 
L 132.422613 -133.051846 
L 134.62005 -132.627689 
L 136.817487 -132.202666 
L 139.014925 -131.776775 
L 141.212362 -131.350017 
L 143.409799 -130.922394 
L 145.607236 -130.493906 
L 147.804673 -130.064555 
L 150.002111 -129.634347 
L 152.199548 -129.203283 
L 154.396985 -128.771371 
L 156.594422 -128.338615 
L 158.791859 -127.905022 
L 160.989296 -127.470599 
L 163.186734 -127.035357 
L 165.384171 -126.599303 
L 167.581608 -126.162449 
L 169.779045 -125.724805 
L 171.976482 -125.286383 
L 174.17392 -124.847198 
L 176.371357 -124.407262 
L 178.568794 -123.966592 
L 180.766231 -123.525202 
L 182.963668 -123.083109 
L 185.161106 -122.640332 
L 187.358543 -122.196888 
L 189.55598 -121.752798 
L 191.753417 -121.308081 
L 193.950854 -120.862759 
L 196.148291 -120.416854 
L 198.345729 -119.970388 
L 200.543166 -119.523387 
L 202.740603 -119.075873 
L 204.93804 -118.627873 
L 207.135477 -118.179413 
L 209.332915 -117.73052 
L 211.530352 -117.281221 
L 213.727789 -116.831544 
L 215.925226 -116.38152 
L 218.122663 -115.931177 
L 220.320101 -115.480545 
L 222.517538 -115.029657 
L 224.714975 -114.578543 
L 226.912412 -114.127235 
L 229.109849 -113.675766 
L 231.307286 -113.22417 
L 233.504724 -112.772479 
L 235.702161 -112.320728 
L 237.899598 -111.868952 
L 240.097035 -111.417184 
L 242.294472 -110.96546 
L 244.49191 -110.513816 
L 246.689347 -110.062287 
L 248.886784 -109.61091 
L 251.084221 -109.159719 
L 253.281658 -108.708752 
L 255.479095 -108.258045 
L 257.676533 -107.807635 
L 259.87397 -107.357557 
L 262.071407 -106.90785 
L 264.268844 -106.458549 
L 266.466281 -106.009692 
L 268.663719 -105.561314 
L 270.861156 -105.113452 
L 273.058593 -104.666144 
L 275.25603 -104.219425 
L 277.453467 -103.773331 
L 279.650905 -103.327898 
L 281.848342 -102.883163 
L 284.045779 -102.439161 
L 286.243216 -101.995926 
L 288.440653 -101.553494 
L 290.63809 -101.111901 
L 292.835528 -100.671179 
L 295.032965 -100.231363 
L 297.230402 -99.792488 
L 299.427839 -99.354585 
L 301.625276 -98.917689 
L 303.822714 -98.481831 
L 306.020151 -98.047044 
L 308.217588 -97.61336 
L 310.415025 -97.180808 
L 312.612462 -96.749421 
L 314.809899 -96.319229 
L 317.007337 -95.89026 
L 319.204774 -95.462545 
L 321.402211 -95.036113 
L 323.599648 -94.61099 
L 325.797085 -94.187206 
L 327.994523 -93.764787 
L 330.19196 -93.343759 
L 332.389397 -92.92415 
L 334.586834 -92.505984 
L 336.784271 -92.089286 
L 338.981709 -91.674081 
L 341.179146 -91.260393 
L 343.376583 -90.848245 
L 345.57402 -90.437659 
L 347.771457 -90.028659 
L 349.968894 -89.621265 
L 352.166332 -89.215498 
L 354.363769 -88.81138 
L 356.561206 -88.40893 
L 358.758643 -88.008167 
L 360.95608 -87.60911 
L 363.153518 -87.211778 
L 365.350955 -86.816188 
L 367.548392 -86.422358 
L 369.745829 -86.030303 
L 371.943266 -85.640041 
L 374.140704 -85.251587 
L 376.338141 -84.864955 
L 378.535578 -84.480161 
L 380.733015 -84.097218 
L 382.930452 -83.716139 
L 385.127889 -83.336939 
L 387.325327 -82.959628 
L 389.522764 -82.58422 
L 391.720201 -82.210726 
L 393.917638 -81.839156 
L 396.115075 -81.469522 
L 398.312513 -81.101833 
L 400.50995 -80.736099 
L 402.707387 -80.372328 
L 404.904824 -80.010531 
L 407.102261 -79.650714 
L 409.299698 -79.292886 
L 411.497136 -78.937054 
L 413.694573 -78.583225 
L 415.89201 -78.231405 
L 418.089447 -77.881601 
L 420.286884 -77.533818 
L 422.484322 -77.188062 
L 424.681759 -76.844337 
L 426.879196 -76.502649 
L 429.076633 -76.163 
L 431.27407 -75.825396 
L 433.471508 -75.489839 
L 435.668945 -75.156332 
L 437.866382 -74.824878 
L 440.063819 -74.49548 
L 442.261256 -74.16814 
L 444.458693 -73.842859 
L 446.656131 -73.519638 
L 448.853568 -73.198479 
L 451.051005 -72.879382 
L 453.248442 -72.562349 
L 455.445879 -72.247378 
L 457.643317 -71.934471 
L 459.840754 -71.623625 
L 462.038191 -71.314842 
L 464.235628 -71.00812 
L 466.433065 -70.703457 
L 468.630503 -70.400852 
L 470.82794 -70.100303 
L 473.025377 -69.801809 
L 475.222814 -69.505367 
L 477.420251 -69.210974 
L 479.617688 -68.918629 
L 481.815126 -68.628327 
L 484.012563 -68.340066 
L 486.21 -68.053843 
L 486.21 -111.861721 
L 486.21 -111.861721 
L 484.012563 -112.165091 
L 481.815126 -112.46959 
L 479.617688 -112.775228 
L 477.420251 -113.082011 
L 475.222814 -113.389947 
L 473.025377 -113.699046 
L 470.82794 -114.009314 
L 468.630503 -114.320762 
L 466.433065 -114.633398 
L 464.235628 -114.94723 
L 462.038191 -115.262268 
L 459.840754 -115.578522 
L 457.643317 -115.896002 
L 455.445879 -116.214716 
L 453.248442 -116.534676 
L 451.051005 -116.855891 
L 448.853568 -117.178373 
L 446.656131 -117.502131 
L 444.458693 -117.827179 
L 442.261256 -118.153525 
L 440.063819 -118.481183 
L 437.866382 -118.810165 
L 435.668945 -119.140481 
L 433.471508 -119.472146 
L 431.27407 -119.805171 
L 429.076633 -120.13957 
L 426.879196 -120.475356 
L 424.681759 -120.812542 
L 422.484322 -121.151143 
L 420.286884 -121.491173 
L 418.089447 -121.832646 
L 415.89201 -122.175578 
L 413.694573 -122.519983 
L 411.497136 -122.865877 
L 409.299698 -123.213276 
L 407.102261 -123.562196 
L 404.904824 -123.912653 
L 402.707387 -124.264666 
L 400.50995 -124.61825 
L 398.312513 -124.973424 
L 396.115075 -125.330206 
L 393.917638 -125.688613 
L 391.720201 -126.048666 
L 389.522764 -126.410383 
L 387.325327 -126.773783 
L 385.127889 -127.138888 
L 382.930452 -127.505716 
L 380.733015 -127.874289 
L 378.535578 -128.244628 
L 376.338141 -128.616755 
L 374.140704 -128.990692 
L 371.943266 -129.366461 
L 369.745829 -129.744085 
L 367.548392 -130.123587 
L 365.350955 -130.504992 
L 363.153518 -130.888323 
L 360.95608 -131.273605 
L 358.758643 -131.660863 
L 356.561206 -132.050123 
L 354.363769 -132.44141 
L 352.166332 -132.834751 
L 349.968894 -133.230174 
L 347.771457 -133.627704 
L 345.57402 -134.027371 
L 343.376583 -134.429202 
L 341.179146 -134.833225 
L 338.981709 -135.239471 
L 336.784271 -135.647968 
L 334.586834 -136.058746 
L 332.389397 -136.471836 
L 330.19196 -136.887269 
L 327.994523 -137.305076 
L 325.797085 -137.725289 
L 323.599648 -138.14794 
L 321.402211 -138.573061 
L 319.204774 -139.000685 
L 317.007337 -139.430846 
L 314.809899 -139.863577 
L 312.612462 -140.298913 
L 310.415025 -140.736888 
L 308.217588 -141.177536 
L 306.020151 -141.620893 
L 303.822714 -142.066994 
L 301.625276 -142.515876 
L 299.427839 -142.967574 
L 297.230402 -143.422124 
L 295.032965 -143.879563 
L 292.835528 -144.339929 
L 290.63809 -144.803258 
L 288.440653 -145.269587 
L 286.243216 -145.738955 
L 284.045779 -146.211398 
L 281.848342 -146.686955 
L 279.650905 -147.165663 
L 277.453467 -147.647561 
L 275.25603 -148.132687 
L 273.058593 -148.621079 
L 270.861156 -149.112775 
L 268.663719 -149.607813 
L 266.466281 -150.106232 
L 264.268844 -150.60807 
L 262.071407 -151.113364 
L 259.87397 -151.622153 
L 257.676533 -152.134474 
L 255.479095 -152.650365 
L 253.281658 -153.169862 
L 251.084221 -153.693005 
L 248.886784 -154.219828 
L 246.689347 -154.750368 
L 244.49191 -155.284663 
L 242.294472 -155.822746 
L 240.097035 -156.364655 
L 237.899598 -156.910422 
L 235.702161 -157.460084 
L 233.504724 -158.013674 
L 231.307286 -158.571225 
L 229.109849 -159.132769 
L 226.912412 -159.69834 
L 224.714975 -160.267968 
L 222.517538 -160.841684 
L 220.320101 -161.419519 
L 218.122663 -162.001501 
L 215.925226 -162.58766 
L 213.727789 -163.178022 
L 211.530352 -163.772615 
L 209.332915 -164.371465 
L 207.135477 -164.974597 
L 204.93804 -165.582036 
L 202.740603 -166.193804 
L 200.543166 -166.809924 
L 198.345729 -167.430417 
L 196.148291 -168.055305 
L 193.950854 -168.684605 
L 191.753417 -169.318337 
L 189.55598 -169.956517 
L 187.358543 -170.599163 
L 185.161106 -171.246289 
L 182.963668 -171.897908 
L 180.766231 -172.554035 
L 178.568794 -173.214681 
L 176.371357 -173.879857 
L 174.17392 -174.549571 
L 171.976482 -175.223834 
L 169.779045 -175.902651 
L 167.581608 -176.586029 
L 165.384171 -177.273974 
L 163.186734 -177.966489 
L 160.989296 -178.663577 
L 158.791859 -179.365239 
L 156.594422 -180.071477 
L 154.396985 -180.782289 
L 152.199548 -181.497675 
L 150.002111 -182.21763 
L 147.804673 -182.942152 
L 145.607236 -183.671236 
L 143.409799 -184.404874 
L 141.212362 -185.143062 
L 139.014925 -185.885789 
L 136.817487 -186.633048 
L 134.62005 -187.384827 
L 132.422613 -188.141117 
L 130.225176 -188.901905 
L 128.027739 -189.667177 
L 125.830302 -190.43692 
L 123.632864 -191.211119 
L 121.435427 -191.989758 
L 119.23799 -192.77282 
L 117.040553 -193.560288 
L 114.843116 -194.352143 
L 112.645678 -195.148366 
L 110.448241 -195.948937 
L 108.250804 -196.753835 
L 106.053367 -197.563038 
L 103.85593 -198.376524 
L 101.658492 -199.19427 
L 99.461055 -200.016251 
L 97.263618 -200.842443 
L 95.066181 -201.672821 
L 92.868744 -202.50736 
L 90.671307 -203.346031 
L 88.473869 -204.188809 
L 86.276432 -205.035665 
L 84.078995 -205.88657 
L 81.881558 -206.741497 
L 79.684121 -207.600415 
L 77.486683 -208.463294 
L 75.289246 -209.330103 
L 73.091809 -210.200812 
L 70.894372 -211.075389 
L 68.696935 -211.953801 
L 66.499497 -212.836017 
L 64.30206 -213.722003 
L 62.104623 -214.611725 
L 59.907186 -215.50515 
L 57.709749 -216.402244 
L 55.512312 -217.302971 
L 53.314874 -218.207297 
L 51.117437 -219.115186 
L 48.92 -220.026603 
z
" style="stroke: #5e81ac; stroke-opacity: 0.15"/>
    </defs>
    <g clip-path="url(#p44cb43c02f)">
     <use xlink:href="#m6f45590ce4" x="0" y="288" style="fill: #5e81ac; fill-opacity: 0.15; stroke: #5e81ac; stroke-opacity: 0.15"/>
    </g>
   </g>
   <g id="FillBetweenPolyCollection_2">
    <defs>
     <path id="mb830ecf010" d="M 48.92 -224.160344 
L 48.92 -155.552315 
L 51.117437 -155.173722 
L 53.314874 -154.794724 
L 55.512312 -154.415308 
L 57.709749 -154.035462 
L 59.907186 -153.65517 
L 62.104623 -153.274422 
L 64.30206 -152.893202 
L 66.499497 -152.511498 
L 68.696935 -152.129297 
L 70.894372 -151.746586 
L 73.091809 -151.363353 
L 75.289246 -150.979584 
L 77.486683 -150.595268 
L 79.684121 -150.210391 
L 81.881558 -149.824943 
L 84.078995 -149.438911 
L 86.276432 -149.052282 
L 88.473869 -148.665047 
L 90.671307 -148.277193 
L 92.868744 -147.88871 
L 95.066181 -147.499586 
L 97.263618 -147.109811 
L 99.461055 -146.719374 
L 101.658492 -146.328266 
L 103.85593 -145.936477 
L 106.053367 -145.543997 
L 108.250804 -145.150818 
L 110.448241 -144.756929 
L 112.645678 -144.362324 
L 114.843116 -143.966993 
L 117.040553 -143.57093 
L 119.23799 -143.174126 
L 121.435427 -142.776575 
L 123.632864 -142.37827 
L 125.830302 -141.979205 
L 128.027739 -141.579375 
L 130.225176 -141.178773 
L 132.422613 -140.777396 
L 134.62005 -140.37524 
L 136.817487 -139.9723 
L 139.014925 -139.568573 
L 141.212362 -139.164056 
L 143.409799 -138.758748 
L 145.607236 -138.352646 
L 147.804673 -137.94575 
L 150.002111 -137.538059 
L 152.199548 -137.129573 
L 154.396985 -136.720293 
L 156.594422 -136.31022 
L 158.791859 -135.899357 
L 160.989296 -135.487705 
L 163.186734 -135.075268 
L 165.384171 -134.662049 
L 167.581608 -134.248054 
L 169.779045 -133.833287 
L 171.976482 -133.417755 
L 174.17392 -133.001464 
L 176.371357 -132.58442 
L 178.568794 -132.166633 
L 180.766231 -131.74811 
L 182.963668 -131.328861 
L 185.161106 -130.908896 
L 187.358543 -130.488226 
L 189.55598 -130.066862 
L 191.753417 -129.644815 
L 193.950854 -129.2221 
L 196.148291 -128.798729 
L 198.345729 -128.374717 
L 200.543166 -127.950079 
L 202.740603 -127.524829 
L 204.93804 -127.098985 
L 207.135477 -126.672563 
L 209.332915 -126.245581 
L 211.530352 -125.818057 
L 213.727789 -125.39001 
L 215.925226 -124.961459 
L 218.122663 -124.532424 
L 220.320101 -124.102927 
L 222.517538 -123.672988 
L 224.714975 -123.242629 
L 226.912412 -122.811873 
L 229.109849 -122.380742 
L 231.307286 -121.949261 
L 233.504724 -121.517452 
L 235.702161 -121.085341 
L 237.899598 -120.652953 
L 240.097035 -120.220312 
L 242.294472 -119.787444 
L 244.49191 -119.354377 
L 246.689347 -118.921136 
L 248.886784 -118.487748 
L 251.084221 -118.05424 
L 253.281658 -117.620641 
L 255.479095 -117.186978 
L 257.676533 -116.75328 
L 259.87397 -116.319573 
L 262.071407 -115.885889 
L 264.268844 -115.452254 
L 266.466281 -115.018699 
L 268.663719 -114.585252 
L 270.861156 -114.151943 
L 273.058593 -113.718801 
L 275.25603 -113.285856 
L 277.453467 -112.853138 
L 279.650905 -112.420675 
L 281.848342 -111.988498 
L 284.045779 -111.556637 
L 286.243216 -111.12512 
L 288.440653 -110.693979 
L 290.63809 -110.263241 
L 292.835528 -109.832937 
L 295.032965 -109.403097 
L 297.230402 -108.973749 
L 299.427839 -108.544922 
L 301.625276 -108.116646 
L 303.822714 -107.68895 
L 306.020151 -107.261861 
L 308.217588 -106.835409 
L 310.415025 -106.409622 
L 312.612462 -105.984528 
L 314.809899 -105.560154 
L 317.007337 -105.136529 
L 319.204774 -104.713678 
L 321.402211 -104.29163 
L 323.599648 -103.870411 
L 325.797085 -103.450047 
L 327.994523 -103.030564 
L 330.19196 -102.611989 
L 332.389397 -102.194345 
L 334.586834 -101.77766 
L 336.784271 -101.361956 
L 338.981709 -100.947259 
L 341.179146 -100.533592 
L 343.376583 -100.12098 
L 345.57402 -99.709444 
L 347.771457 -99.299009 
L 349.968894 -98.889696 
L 352.166332 -98.481528 
L 354.363769 -98.074526 
L 356.561206 -97.668712 
L 358.758643 -97.264106 
L 360.95608 -96.860729 
L 363.153518 -96.458601 
L 365.350955 -96.057741 
L 367.548392 -95.65817 
L 369.745829 -95.259904 
L 371.943266 -94.862964 
L 374.140704 -94.467367 
L 376.338141 -94.073131 
L 378.535578 -93.680272 
L 380.733015 -93.288808 
L 382.930452 -92.898754 
L 385.127889 -92.510128 
L 387.325327 -92.122944 
L 389.522764 -91.737218 
L 391.720201 -91.352964 
L 393.917638 -90.970197 
L 396.115075 -90.58893 
L 398.312513 -90.209178 
L 400.50995 -89.830953 
L 402.707387 -89.454268 
L 404.904824 -89.079135 
L 407.102261 -88.705567 
L 409.299698 -88.333575 
L 411.497136 -87.963171 
L 413.694573 -87.594365 
L 415.89201 -87.227167 
L 418.089447 -86.861589 
L 420.286884 -86.49764 
L 422.484322 -86.135328 
L 424.681759 -85.774664 
L 426.879196 -85.415656 
L 429.076633 -85.058312 
L 431.27407 -84.702641 
L 433.471508 -84.34865 
L 435.668945 -83.996347 
L 437.866382 -83.645738 
L 440.063819 -83.296831 
L 442.261256 -82.949632 
L 444.458693 -82.604146 
L 446.656131 -82.260381 
L 448.853568 -81.918341 
L 451.051005 -81.578031 
L 453.248442 -81.239457 
L 455.445879 -80.902623 
L 457.643317 -80.567534 
L 459.840754 -80.234193 
L 462.038191 -79.902605 
L 464.235628 -79.572773 
L 466.433065 -79.2447 
L 468.630503 -78.918389 
L 470.82794 -78.593843 
L 473.025377 -78.271064 
L 475.222814 -77.950056 
L 477.420251 -77.630819 
L 479.617688 -77.313355 
L 481.815126 -76.997667 
L 484.012563 -76.683755 
L 486.21 -76.371621 
L 486.21 -120.88943 
L 486.21 -120.88943 
L 484.012563 -121.192382 
L 481.815126 -121.496381 
L 479.617688 -121.801435 
L 477.420251 -122.107553 
L 475.222814 -122.414743 
L 473.025377 -122.723015 
L 470.82794 -123.032377 
L 468.630503 -123.342838 
L 466.433065 -123.654408 
L 464.235628 -123.967096 
L 462.038191 -124.280913 
L 459.840754 -124.595868 
L 457.643317 -124.911971 
L 455.445879 -125.229234 
L 453.248442 -125.547666 
L 451.051005 -125.867278 
L 448.853568 -126.188082 
L 446.656131 -126.510089 
L 444.458693 -126.833311 
L 442.261256 -127.157759 
L 440.063819 -127.483445 
L 437.866382 -127.810383 
L 435.668945 -128.138583 
L 433.471508 -128.46806 
L 431.27407 -128.798826 
L 429.076633 -129.130895 
L 426.879196 -129.46428 
L 424.681759 -129.798995 
L 422.484322 -130.135055 
L 420.286884 -130.472473 
L 418.089447 -130.811264 
L 415.89201 -131.151444 
L 413.694573 -131.493028 
L 411.497136 -131.83603 
L 409.299698 -132.180468 
L 407.102261 -132.526357 
L 404.904824 -132.873714 
L 402.707387 -133.222556 
L 400.50995 -133.572898 
L 398.312513 -133.92476 
L 396.115075 -134.278158 
L 393.917638 -134.633111 
L 391.720201 -134.989637 
L 389.522764 -135.347754 
L 387.325327 -135.707482 
L 385.127889 -136.06884 
L 382.930452 -136.431846 
L 380.733015 -136.796522 
L 378.535578 -137.162887 
L 376.338141 -137.530962 
L 374.140704 -137.900768 
L 371.943266 -138.272326 
L 369.745829 -138.645658 
L 367.548392 -139.020785 
L 365.350955 -139.397729 
L 363.153518 -139.776514 
L 360.95608 -140.157161 
L 358.758643 -140.539694 
L 356.561206 -140.924137 
L 354.363769 -141.310513 
L 352.166332 -141.698846 
L 349.968894 -142.089161 
L 347.771457 -142.481482 
L 345.57402 -142.875834 
L 343.376583 -143.272243 
L 341.179146 -143.670734 
L 338.981709 -144.071333 
L 336.784271 -144.474066 
L 334.586834 -144.878959 
L 332.389397 -145.28604 
L 330.19196 -145.695335 
L 327.994523 -146.106871 
L 325.797085 -146.520675 
L 323.599648 -146.936776 
L 321.402211 -147.355201 
L 319.204774 -147.775979 
L 317.007337 -148.199136 
L 314.809899 -148.624703 
L 312.612462 -149.052707 
L 310.415025 -149.483178 
L 308.217588 -149.916143 
L 306.020151 -150.351633 
L 303.822714 -150.789677 
L 301.625276 -151.230303 
L 299.427839 -151.673542 
L 297.230402 -152.119422 
L 295.032965 -152.567973 
L 292.835528 -153.019224 
L 290.63809 -153.473206 
L 288.440653 -153.929947 
L 286.243216 -154.389478 
L 284.045779 -154.851827 
L 281.848342 -155.317024 
L 279.650905 -155.785099 
L 277.453467 -156.25608 
L 275.25603 -156.729997 
L 273.058593 -157.206878 
L 270.861156 -157.686753 
L 268.663719 -158.16965 
L 266.466281 -158.655597 
L 264.268844 -159.144622 
L 262.071407 -159.636754 
L 259.87397 -160.13202 
L 257.676533 -160.630447 
L 255.479095 -161.132062 
L 253.281658 -161.636892 
L 251.084221 -162.144963 
L 248.886784 -162.6563 
L 246.689347 -163.170929 
L 244.49191 -163.688876 
L 242.294472 -164.210163 
L 240.097035 -164.734816 
L 237.899598 -165.262858 
L 235.702161 -165.794312 
L 233.504724 -166.329199 
L 231.307286 -166.867543 
L 229.109849 -167.409363 
L 226.912412 -167.95468 
L 224.714975 -168.503515 
L 222.517538 -169.055886 
L 220.320101 -169.611813 
L 218.122663 -170.171312 
L 215.925226 -170.734401 
L 213.727789 -171.301097 
L 211.530352 -171.871415 
L 209.332915 -172.44537 
L 207.135477 -173.022976 
L 204.93804 -173.604246 
L 202.740603 -174.189193 
L 200.543166 -174.77783 
L 198.345729 -175.370166 
L 196.148291 -175.966212 
L 193.950854 -176.565977 
L 191.753417 -177.16947 
L 189.55598 -177.776699 
L 187.358543 -178.387669 
L 185.161106 -179.002388 
L 182.963668 -179.620859 
L 180.766231 -180.243089 
L 178.568794 -180.869079 
L 176.371357 -181.498833 
L 174.17392 -182.132351 
L 171.976482 -182.769636 
L 169.779045 -183.410687 
L 167.581608 -184.055504 
L 165.384171 -184.704084 
L 163.186734 -185.356425 
L 160.989296 -186.012524 
L 158.791859 -186.672377 
L 156.594422 -187.33598 
L 154.396985 -188.003325 
L 152.199548 -188.674408 
L 150.002111 -189.34922 
L 147.804673 -190.027754 
L 145.607236 -190.710001 
L 143.409799 -191.395951 
L 141.212362 -192.085595 
L 139.014925 -192.778921 
L 136.817487 -193.475917 
L 134.62005 -194.176572 
L 132.422613 -194.880873 
L 130.225176 -195.588805 
L 128.027739 -196.300355 
L 125.830302 -197.015507 
L 123.632864 -197.734246 
L 121.435427 -198.456556 
L 119.23799 -199.18242 
L 117.040553 -199.911821 
L 114.843116 -200.64474 
L 112.645678 -201.38116 
L 110.448241 -202.121061 
L 108.250804 -202.864423 
L 106.053367 -203.611227 
L 103.85593 -204.361453 
L 101.658492 -205.115078 
L 99.461055 -205.872083 
L 97.263618 -206.632444 
L 95.066181 -207.396139 
L 92.868744 -208.163146 
L 90.671307 -208.933441 
L 88.473869 -209.707002 
L 86.276432 -210.483802 
L 84.078995 -211.26382 
L 81.881558 -212.047028 
L 79.684121 -212.833404 
L 77.486683 -213.62292 
L 75.289246 -214.415552 
L 73.091809 -215.211273 
L 70.894372 -216.010057 
L 68.696935 -216.811877 
L 66.499497 -217.616706 
L 64.30206 -218.424517 
L 62.104623 -219.235283 
L 59.907186 -220.048975 
L 57.709749 -220.865565 
L 55.512312 -221.685026 
L 53.314874 -222.507329 
L 51.117437 -223.332444 
L 48.92 -224.160344 
z
" style="stroke: #d08770; stroke-opacity: 0.15"/>
    </defs>
    <g clip-path="url(#p44cb43c02f)">
     <use xlink:href="#mb830ecf010" x="0" y="288" style="fill: #d08770; fill-opacity: 0.15; stroke: #d08770; stroke-opacity: 0.15"/>
    </g>
   </g>
   <g id="FillBetweenPolyCollection_3">
    <defs>
     <path id="me1a575ff8a" d="M 48.92 -284.523719 
L 48.92 -176.304896 
L 51.117437 -176.165829 
L 53.314874 -176.02609 
L 55.512312 -175.885679 
L 57.709749 -175.744594 
L 59.907186 -175.602836 
L 62.104623 -175.460404 
L 64.30206 -175.317298 
L 66.499497 -175.173517 
L 68.696935 -175.02906 
L 70.894372 -174.883929 
L 73.091809 -174.738121 
L 75.289246 -174.591638 
L 77.486683 -174.444478 
L 79.684121 -174.296642 
L 81.881558 -174.14813 
L 84.078995 -173.998942 
L 86.276432 -173.849076 
L 88.473869 -173.698535 
L 90.671307 -173.547317 
L 92.868744 -173.395423 
L 95.066181 -173.242852 
L 97.263618 -173.089606 
L 99.461055 -172.935684 
L 101.658492 -172.781086 
L 103.85593 -172.625813 
L 106.053367 -172.469865 
L 108.250804 -172.313243 
L 110.448241 -172.155946 
L 112.645678 -171.997976 
L 114.843116 -171.839333 
L 117.040553 -171.680017 
L 119.23799 -171.520029 
L 121.435427 -171.359369 
L 123.632864 -171.198039 
L 125.830302 -171.036038 
L 128.027739 -170.873368 
L 130.225176 -170.710029 
L 132.422613 -170.546023 
L 134.62005 -170.38135 
L 136.817487 -170.21601 
L 139.014925 -170.050006 
L 141.212362 -169.883337 
L 143.409799 -169.716005 
L 145.607236 -169.548011 
L 147.804673 -169.379356 
L 150.002111 -169.210041 
L 152.199548 -169.040067 
L 154.396985 -168.869436 
L 156.594422 -168.698149 
L 158.791859 -168.526207 
L 160.989296 -168.353611 
L 163.186734 -168.180362 
L 165.384171 -168.006463 
L 167.581608 -167.831915 
L 169.779045 -167.656718 
L 171.976482 -167.480875 
L 174.17392 -167.304387 
L 176.371357 -167.127256 
L 178.568794 -166.949483 
L 180.766231 -166.77107 
L 182.963668 -166.592018 
L 185.161106 -166.41233 
L 187.358543 -166.232008 
L 189.55598 -166.051052 
L 191.753417 -165.869465 
L 193.950854 -165.687248 
L 196.148291 -165.504405 
L 198.345729 -165.320936 
L 200.543166 -165.136843 
L 202.740603 -164.952129 
L 204.93804 -164.766796 
L 207.135477 -164.580845 
L 209.332915 -164.394279 
L 211.530352 -164.2071 
L 213.727789 -164.01931 
L 215.925226 -163.830911 
L 218.122663 -163.641906 
L 220.320101 -163.452297 
L 222.517538 -163.262086 
L 224.714975 -163.071276 
L 226.912412 -162.879869 
L 229.109849 -162.687866 
L 231.307286 -162.495272 
L 233.504724 -162.302087 
L 235.702161 -162.108316 
L 237.899598 -161.913959 
L 240.097035 -161.719021 
L 242.294472 -161.523502 
L 244.49191 -161.327407 
L 246.689347 -161.130737 
L 248.886784 -160.933495 
L 251.084221 -160.735684 
L 253.281658 -160.537306 
L 255.479095 -160.338365 
L 257.676533 -160.138863 
L 259.87397 -159.938803 
L 262.071407 -159.738188 
L 264.268844 -159.537019 
L 266.466281 -159.335302 
L 268.663719 -159.133037 
L 270.861156 -158.930229 
L 273.058593 -158.72688 
L 275.25603 -158.522992 
L 277.453467 -158.31857 
L 279.650905 -158.113616 
L 281.848342 -157.908132 
L 284.045779 -157.702123 
L 286.243216 -157.49559 
L 288.440653 -157.288538 
L 290.63809 -157.080969 
L 292.835528 -156.872886 
L 295.032965 -156.664293 
L 297.230402 -156.455192 
L 299.427839 -156.245587 
L 301.625276 -156.035481 
L 303.822714 -155.824877 
L 306.020151 -155.613778 
L 308.217588 -155.402187 
L 310.415025 -155.190109 
L 312.612462 -154.977546 
L 314.809899 -154.7645 
L 317.007337 -154.550977 
L 319.204774 -154.336978 
L 321.402211 -154.122508 
L 323.599648 -153.907569 
L 325.797085 -153.692164 
L 327.994523 -153.476298 
L 330.19196 -153.259974 
L 332.389397 -153.043195 
L 334.586834 -152.825963 
L 336.784271 -152.608284 
L 338.981709 -152.39016 
L 341.179146 -152.171594 
L 343.376583 -151.95259 
L 345.57402 -151.733151 
L 347.771457 -151.513282 
L 349.968894 -151.292984 
L 352.166332 -151.072262 
L 354.363769 -150.85112 
L 356.561206 -150.62956 
L 358.758643 -150.407586 
L 360.95608 -150.185202 
L 363.153518 -149.962411 
L 365.350955 -149.739216 
L 367.548392 -149.515622 
L 369.745829 -149.291631 
L 371.943266 -149.067247 
L 374.140704 -148.842473 
L 376.338141 -148.617314 
L 378.535578 -148.391773 
L 380.733015 -148.165852 
L 382.930452 -147.939557 
L 385.127889 -147.712889 
L 387.325327 -147.485853 
L 389.522764 -147.258453 
L 391.720201 -147.030691 
L 393.917638 -146.802572 
L 396.115075 -146.574098 
L 398.312513 -146.345274 
L 400.50995 -146.116103 
L 402.707387 -145.886588 
L 404.904824 -145.656733 
L 407.102261 -145.426542 
L 409.299698 -145.196017 
L 411.497136 -144.965164 
L 413.694573 -144.733984 
L 415.89201 -144.502482 
L 418.089447 -144.270661 
L 420.286884 -144.038525 
L 422.484322 -143.806078 
L 424.681759 -143.573321 
L 426.879196 -143.340261 
L 429.076633 -143.106898 
L 431.27407 -142.873239 
L 433.471508 -142.639284 
L 435.668945 -142.40504 
L 437.866382 -142.170507 
L 440.063819 -141.935692 
L 442.261256 -141.700595 
L 444.458693 -141.465223 
L 446.656131 -141.229576 
L 448.853568 -140.99366 
L 451.051005 -140.757478 
L 453.248442 -140.521032 
L 455.445879 -140.284327 
L 457.643317 -140.047366 
L 459.840754 -139.810153 
L 462.038191 -139.57269 
L 464.235628 -139.334982 
L 466.433065 -139.097031 
L 468.630503 -138.858841 
L 470.82794 -138.620416 
L 473.025377 -138.381759 
L 475.222814 -138.142872 
L 477.420251 -137.903761 
L 479.617688 -137.664428 
L 481.815126 -137.424875 
L 484.012563 -137.185108 
L 486.21 -136.945129 
L 486.21 -254.66998 
L 486.21 -254.66998 
L 484.012563 -254.76417 
L 481.815126 -254.858733 
L 479.617688 -254.953674 
L 477.420251 -255.048995 
L 475.222814 -255.1447 
L 473.025377 -255.240791 
L 470.82794 -255.337271 
L 468.630503 -255.434144 
L 466.433065 -255.531412 
L 464.235628 -255.629079 
L 462.038191 -255.727147 
L 459.840754 -255.82562 
L 457.643317 -255.924501 
L 455.445879 -256.023792 
L 453.248442 -256.123498 
L 451.051005 -256.22362 
L 448.853568 -256.324163 
L 446.656131 -256.425128 
L 444.458693 -256.52652 
L 442.261256 -256.628342 
L 440.063819 -256.730596 
L 437.866382 -256.833285 
L 435.668945 -256.936414 
L 433.471508 -257.039984 
L 431.27407 -257.144 
L 429.076633 -257.248463 
L 426.879196 -257.353378 
L 424.681759 -257.458748 
L 422.484322 -257.564575 
L 420.286884 -257.670863 
L 418.089447 -257.777615 
L 415.89201 -257.884834 
L 413.694573 -257.992523 
L 411.497136 -258.100686 
L 409.299698 -258.209325 
L 407.102261 -258.318444 
L 404.904824 -258.428046 
L 402.707387 -258.538135 
L 400.50995 -258.648712 
L 398.312513 -258.759782 
L 396.115075 -258.871347 
L 393.917638 -258.983411 
L 391.720201 -259.095978 
L 389.522764 -259.209049 
L 387.325327 -259.322628 
L 385.127889 -259.436719 
L 382.930452 -259.551325 
L 380.733015 -259.666448 
L 378.535578 -259.782092 
L 376.338141 -259.89826 
L 374.140704 -260.014955 
L 371.943266 -260.132181 
L 369.745829 -260.24994 
L 367.548392 -260.368235 
L 365.350955 -260.48707 
L 363.153518 -260.606449 
L 360.95608 -260.726373 
L 358.758643 -260.846846 
L 356.561206 -260.967871 
L 354.363769 -261.089452 
L 352.166332 -261.211591 
L 349.968894 -261.334291 
L 347.771457 -261.457556 
L 345.57402 -261.581389 
L 343.376583 -261.705792 
L 341.179146 -261.830769 
L 338.981709 -261.956323 
L 336.784271 -262.082457 
L 334.586834 -262.209173 
L 332.389397 -262.336475 
L 330.19196 -262.464366 
L 327.994523 -262.592849 
L 325.797085 -262.721927 
L 323.599648 -262.851603 
L 321.402211 -262.981879 
L 319.204774 -263.112759 
L 317.007337 -263.244246 
L 314.809899 -263.376342 
L 312.612462 -263.50905 
L 310.415025 -263.642374 
L 308.217588 -263.776316 
L 306.020151 -263.91088 
L 303.822714 -264.046067 
L 301.625276 -264.181881 
L 299.427839 -264.318324 
L 297.230402 -264.4554 
L 295.032965 -264.593111 
L 292.835528 -264.73146 
L 290.63809 -264.870449 
L 288.440653 -265.010082 
L 286.243216 -265.150361 
L 284.045779 -265.291289 
L 281.848342 -265.432868 
L 279.650905 -265.575101 
L 277.453467 -265.717991 
L 275.25603 -265.86154 
L 273.058593 -266.005751 
L 270.861156 -266.150626 
L 268.663719 -266.296169 
L 266.466281 -266.442381 
L 264.268844 -266.589265 
L 262.071407 -266.736823 
L 259.87397 -266.885059 
L 257.676533 -267.033973 
L 255.479095 -267.18357 
L 253.281658 -267.33385 
L 251.084221 -267.484817 
L 248.886784 -267.636473 
L 246.689347 -267.78882 
L 244.49191 -267.94186 
L 242.294472 -268.095596 
L 240.097035 -268.250029 
L 237.899598 -268.405163 
L 235.702161 -268.560999 
L 233.504724 -268.717539 
L 231.307286 -268.874785 
L 229.109849 -269.03274 
L 226.912412 -269.191405 
L 224.714975 -269.350783 
L 222.517538 -269.510875 
L 220.320101 -269.671684 
L 218.122663 -269.833211 
L 215.925226 -269.995459 
L 213.727789 -270.158428 
L 211.530352 -270.322122 
L 209.332915 -270.486541 
L 207.135477 -270.651687 
L 204.93804 -270.817563 
L 202.740603 -270.98417 
L 200.543166 -271.15151 
L 198.345729 -271.319583 
L 196.148291 -271.488392 
L 193.950854 -271.657939 
L 191.753417 -271.828225 
L 189.55598 -271.999251 
L 187.358543 -272.171018 
L 185.161106 -272.343529 
L 182.963668 -272.516785 
L 180.766231 -272.690786 
L 178.568794 -272.865535 
L 176.371357 -273.041032 
L 174.17392 -273.217279 
L 171.976482 -273.394277 
L 169.779045 -273.572027 
L 167.581608 -273.75053 
L 165.384171 -273.929787 
L 163.186734 -274.1098 
L 160.989296 -274.290569 
L 158.791859 -274.472096 
L 156.594422 -274.654381 
L 154.396985 -274.837425 
L 152.199548 -275.021228 
L 150.002111 -275.205793 
L 147.804673 -275.391119 
L 145.607236 -275.577208 
L 143.409799 -275.764059 
L 141.212362 -275.951674 
L 139.014925 -276.140054 
L 136.817487 -276.329198 
L 134.62005 -276.519108 
L 132.422613 -276.709783 
L 130.225176 -276.901225 
L 128.027739 -277.093433 
L 125.830302 -277.286409 
L 123.632864 -277.480152 
L 121.435427 -277.674662 
L 119.23799 -277.869941 
L 117.040553 -278.065988 
L 114.843116 -278.262803 
L 112.645678 -278.460387 
L 110.448241 -278.658739 
L 108.250804 -278.85786 
L 106.053367 -279.057749 
L 103.85593 -279.258407 
L 101.658492 -279.459834 
L 99.461055 -279.662028 
L 97.263618 -279.864991 
L 95.066181 -280.068723 
L 92.868744 -280.273222 
L 90.671307 -280.478488 
L 88.473869 -280.684522 
L 86.276432 -280.891322 
L 84.078995 -281.098889 
L 81.881558 -281.307222 
L 79.684121 -281.51632 
L 77.486683 -281.726184 
L 75.289246 -281.936812 
L 73.091809 -282.148204 
L 70.894372 -282.360359 
L 68.696935 -282.573276 
L 66.499497 -282.786956 
L 64.30206 -283.001396 
L 62.104623 -283.216597 
L 59.907186 -283.432557 
L 57.709749 -283.649276 
L 55.512312 -283.866753 
L 53.314874 -284.084986 
L 51.117437 -284.303975 
L 48.92 -284.523719 
z
" style="stroke: #a3be8c; stroke-opacity: 0.15"/>
    </defs>
    <g clip-path="url(#p44cb43c02f)">
     <use xlink:href="#me1a575ff8a" x="0" y="288" style="fill: #a3be8c; fill-opacity: 0.15; stroke: #a3be8c; stroke-opacity: 0.15"/>
    </g>
   </g>
   <g id="matplotlib.axis_1">
    <g id="xtick_1">
     <g id="line2d_1">
      <path d="M 81.311852 245.56 
L 81.311852 25.92 
" clip-path="url(#p44cb43c02f)" style="fill: none; stroke: #d8dee9; stroke-opacity: 0.4; stroke-width: 0.8; stroke-linecap: square"/>
     </g>
     <g id="line2d_2">
      <defs>
       <path id="mc178b47902" d="M 0 0 
L 0 3.5 
" style="stroke: #434c5e; stroke-width: 0.8"/>
      </defs>
      <g>
       <use xlink:href="#mc178b47902" x="81.311852" y="245.56" style="fill: #434c5e; stroke: #434c5e; stroke-width: 0.8"/>
      </g>
     </g>
     <g id="text_1">
      <!-- 20 -->
      <g style="fill: #434c5e" transform="translate(74.313102 260.918281) scale(0.11 -0.11)">
       <defs>
        <path id="DejaVuSans-32" d="M 1228 531 
L 3431 531 
L 3431 0 
L 469 0 
L 469 531 
Q 828 903 1448 1529 
Q 2069 2156 2228 2338 
Q 2531 2678 2651 2914 
Q 2772 3150 2772 3378 
Q 2772 3750 2511 3984 
Q 2250 4219 1831 4219 
Q 1534 4219 1204 4116 
Q 875 4013 500 3803 
L 500 4441 
Q 881 4594 1212 4672 
Q 1544 4750 1819 4750 
Q 2544 4750 2975 4387 
Q 3406 4025 3406 3419 
Q 3406 3131 3298 2873 
Q 3191 2616 2906 2266 
Q 2828 2175 2409 1742 
Q 1991 1309 1228 531 
z
" transform="scale(0.015625)"/>
        <path id="DejaVuSans-30" d="M 2034 4250 
Q 1547 4250 1301 3770 
Q 1056 3291 1056 2328 
Q 1056 1369 1301 889 
Q 1547 409 2034 409 
Q 2525 409 2770 889 
Q 3016 1369 3016 2328 
Q 3016 3291 2770 3770 
Q 2525 4250 2034 4250 
z
M 2034 4750 
Q 2819 4750 3233 4129 
Q 3647 3509 3647 2328 
Q 3647 1150 3233 529 
Q 2819 -91 2034 -91 
Q 1250 -91 836 529 
Q 422 1150 422 2328 
Q 422 3509 836 4129 
Q 1250 4750 2034 4750 
z
" transform="scale(0.015625)"/>
       </defs>
       <use xlink:href="#DejaVuSans-32"/>
       <use xlink:href="#DejaVuSans-30" transform="translate(63.623047 0)"/>
      </g>
     </g>
    </g>
    <g id="xtick_2">
     <g id="line2d_3">
      <path d="M 162.291481 245.56 
L 162.291481 25.92 
" clip-path="url(#p44cb43c02f)" style="fill: none; stroke: #d8dee9; stroke-opacity: 0.4; stroke-width: 0.8; stroke-linecap: square"/>
     </g>
     <g id="line2d_4">
      <g>
       <use xlink:href="#mc178b47902" x="162.291481" y="245.56" style="fill: #434c5e; stroke: #434c5e; stroke-width: 0.8"/>
      </g>
     </g>
     <g id="text_2">
      <!-- 25 -->
      <g style="fill: #434c5e" transform="translate(155.292731 260.918281) scale(0.11 -0.11)">
       <defs>
        <path id="DejaVuSans-35" d="M 691 4666 
L 3169 4666 
L 3169 4134 
L 1269 4134 
L 1269 2991 
Q 1406 3038 1543 3061 
Q 1681 3084 1819 3084 
Q 2600 3084 3056 2656 
Q 3513 2228 3513 1497 
Q 3513 744 3044 326 
Q 2575 -91 1722 -91 
Q 1428 -91 1123 -41 
Q 819 9 494 109 
L 494 744 
Q 775 591 1075 516 
Q 1375 441 1709 441 
Q 2250 441 2565 725 
Q 2881 1009 2881 1497 
Q 2881 1984 2565 2268 
Q 2250 2553 1709 2553 
Q 1456 2553 1204 2497 
Q 953 2441 691 2322 
L 691 4666 
z
" transform="scale(0.015625)"/>
       </defs>
       <use xlink:href="#DejaVuSans-32"/>
       <use xlink:href="#DejaVuSans-35" transform="translate(63.623047 0)"/>
      </g>
     </g>
    </g>
    <g id="xtick_3">
     <g id="line2d_5">
      <path d="M 243.271111 245.56 
L 243.271111 25.92 
" clip-path="url(#p44cb43c02f)" style="fill: none; stroke: #d8dee9; stroke-opacity: 0.4; stroke-width: 0.8; stroke-linecap: square"/>
     </g>
     <g id="line2d_6">
      <g>
       <use xlink:href="#mc178b47902" x="243.271111" y="245.56" style="fill: #434c5e; stroke: #434c5e; stroke-width: 0.8"/>
      </g>
     </g>
     <g id="text_3">
      <!-- 30 -->
      <g style="fill: #434c5e" transform="translate(236.272361 260.918281) scale(0.11 -0.11)">
       <defs>
        <path id="DejaVuSans-33" d="M 2597 2516 
Q 3050 2419 3304 2112 
Q 3559 1806 3559 1356 
Q 3559 666 3084 287 
Q 2609 -91 1734 -91 
Q 1441 -91 1130 -33 
Q 819 25 488 141 
L 488 750 
Q 750 597 1062 519 
Q 1375 441 1716 441 
Q 2309 441 2620 675 
Q 2931 909 2931 1356 
Q 2931 1769 2642 2001 
Q 2353 2234 1838 2234 
L 1294 2234 
L 1294 2753 
L 1863 2753 
Q 2328 2753 2575 2939 
Q 2822 3125 2822 3475 
Q 2822 3834 2567 4026 
Q 2313 4219 1838 4219 
Q 1578 4219 1281 4162 
Q 984 4106 628 3988 
L 628 4550 
Q 988 4650 1302 4700 
Q 1616 4750 1894 4750 
Q 2613 4750 3031 4423 
Q 3450 4097 3450 3541 
Q 3450 3153 3228 2886 
Q 3006 2619 2597 2516 
z
" transform="scale(0.015625)"/>
       </defs>
       <use xlink:href="#DejaVuSans-33"/>
       <use xlink:href="#DejaVuSans-30" transform="translate(63.623047 0)"/>
      </g>
     </g>
    </g>
    <g id="xtick_4">
     <g id="line2d_7">
      <path d="M 324.250741 245.56 
L 324.250741 25.92 
" clip-path="url(#p44cb43c02f)" style="fill: none; stroke: #d8dee9; stroke-opacity: 0.4; stroke-width: 0.8; stroke-linecap: square"/>
     </g>
     <g id="line2d_8">
      <g>
       <use xlink:href="#mc178b47902" x="324.250741" y="245.56" style="fill: #434c5e; stroke: #434c5e; stroke-width: 0.8"/>
      </g>
     </g>
     <g id="text_4">
      <!-- 35 -->
      <g style="fill: #434c5e" transform="translate(317.251991 260.918281) scale(0.11 -0.11)">
       <use xlink:href="#DejaVuSans-33"/>
       <use xlink:href="#DejaVuSans-35" transform="translate(63.623047 0)"/>
      </g>
     </g>
    </g>
    <g id="xtick_5">
     <g id="line2d_9">
      <path d="M 405.23037 245.56 
L 405.23037 25.92 
" clip-path="url(#p44cb43c02f)" style="fill: none; stroke: #d8dee9; stroke-opacity: 0.4; stroke-width: 0.8; stroke-linecap: square"/>
     </g>
     <g id="line2d_10">
      <g>
       <use xlink:href="#mc178b47902" x="405.23037" y="245.56" style="fill: #434c5e; stroke: #434c5e; stroke-width: 0.8"/>
      </g>
     </g>
     <g id="text_5">
      <!-- 40 -->
      <g style="fill: #434c5e" transform="translate(398.23162 260.918281) scale(0.11 -0.11)">
       <defs>
        <path id="DejaVuSans-34" d="M 2419 4116 
L 825 1625 
L 2419 1625 
L 2419 4116 
z
M 2253 4666 
L 3047 4666 
L 3047 1625 
L 3713 1625 
L 3713 1100 
L 3047 1100 
L 3047 0 
L 2419 0 
L 2419 1100 
L 313 1100 
L 313 1709 
L 2253 4666 
z
" transform="scale(0.015625)"/>
       </defs>
       <use xlink:href="#DejaVuSans-34"/>
       <use xlink:href="#DejaVuSans-30" transform="translate(63.623047 0)"/>
      </g>
     </g>
    </g>
    <g id="xtick_6">
     <g id="line2d_11">
      <path d="M 486.21 245.56 
L 486.21 25.92 
" clip-path="url(#p44cb43c02f)" style="fill: none; stroke: #d8dee9; stroke-opacity: 0.4; stroke-width: 0.8; stroke-linecap: square"/>
     </g>
     <g id="line2d_12">
      <g>
       <use xlink:href="#mc178b47902" x="486.21" y="245.56" style="fill: #434c5e; stroke: #434c5e; stroke-width: 0.8"/>
      </g>
     </g>
     <g id="text_6">
      <!-- 45 -->
      <g style="fill: #434c5e" transform="translate(479.21125 260.918281) scale(0.11 -0.11)">
       <use xlink:href="#DejaVuSans-34"/>
       <use xlink:href="#DejaVuSans-35" transform="translate(63.623047 0)"/>
      </g>
     </g>
    </g>
    <g id="text_7">
     <!-- BMI (kg/m²) -->
     <g style="fill: #434c5e" transform="translate(238.225938 274.804375) scale(0.1 -0.1)">
      <defs>
       <path id="DejaVuSans-42" d="M 1259 2228 
L 1259 519 
L 2272 519 
Q 2781 519 3026 730 
Q 3272 941 3272 1375 
Q 3272 1813 3026 2020 
Q 2781 2228 2272 2228 
L 1259 2228 
z
M 1259 4147 
L 1259 2741 
L 2194 2741 
Q 2656 2741 2882 2914 
Q 3109 3088 3109 3444 
Q 3109 3797 2882 3972 
Q 2656 4147 2194 4147 
L 1259 4147 
z
M 628 4666 
L 2241 4666 
Q 2963 4666 3353 4366 
Q 3744 4066 3744 3513 
Q 3744 3084 3544 2831 
Q 3344 2578 2956 2516 
Q 3422 2416 3680 2098 
Q 3938 1781 3938 1306 
Q 3938 681 3513 340 
Q 3088 0 2303 0 
L 628 0 
L 628 4666 
z
" transform="scale(0.015625)"/>
       <path id="DejaVuSans-4d" d="M 628 4666 
L 1569 4666 
L 2759 1491 
L 3956 4666 
L 4897 4666 
L 4897 0 
L 4281 0 
L 4281 4097 
L 3078 897 
L 2444 897 
L 1241 4097 
L 1241 0 
L 628 0 
L 628 4666 
z
" transform="scale(0.015625)"/>
       <path id="DejaVuSans-49" d="M 628 4666 
L 1259 4666 
L 1259 0 
L 628 0 
L 628 4666 
z
" transform="scale(0.015625)"/>
       <path id="DejaVuSans-20" transform="scale(0.015625)"/>
       <path id="DejaVuSans-28" d="M 1984 4856 
Q 1566 4138 1362 3434 
Q 1159 2731 1159 2009 
Q 1159 1288 1364 580 
Q 1569 -128 1984 -844 
L 1484 -844 
Q 1016 -109 783 600 
Q 550 1309 550 2009 
Q 550 2706 781 3412 
Q 1013 4119 1484 4856 
L 1984 4856 
z
" transform="scale(0.015625)"/>
       <path id="DejaVuSans-6b" d="M 581 4863 
L 1159 4863 
L 1159 1991 
L 2875 3500 
L 3609 3500 
L 1753 1863 
L 3688 0 
L 2938 0 
L 1159 1709 
L 1159 0 
L 581 0 
L 581 4863 
z
" transform="scale(0.015625)"/>
       <path id="DejaVuSans-67" d="M 2906 1791 
Q 2906 2416 2648 2759 
Q 2391 3103 1925 3103 
Q 1463 3103 1205 2759 
Q 947 2416 947 1791 
Q 947 1169 1205 825 
Q 1463 481 1925 481 
Q 2391 481 2648 825 
Q 2906 1169 2906 1791 
z
M 3481 434 
Q 3481 -459 3084 -895 
Q 2688 -1331 1869 -1331 
Q 1566 -1331 1297 -1286 
Q 1028 -1241 775 -1147 
L 775 -588 
Q 1028 -725 1275 -790 
Q 1522 -856 1778 -856 
Q 2344 -856 2625 -561 
Q 2906 -266 2906 331 
L 2906 616 
Q 2728 306 2450 153 
Q 2172 0 1784 0 
Q 1141 0 747 490 
Q 353 981 353 1791 
Q 353 2603 747 3093 
Q 1141 3584 1784 3584 
Q 2172 3584 2450 3431 
Q 2728 3278 2906 2969 
L 2906 3500 
L 3481 3500 
L 3481 434 
z
" transform="scale(0.015625)"/>
       <path id="DejaVuSans-2f" d="M 1625 4666 
L 2156 4666 
L 531 -594 
L 0 -594 
L 1625 4666 
z
" transform="scale(0.015625)"/>
       <path id="DejaVuSans-6d" d="M 3328 2828 
Q 3544 3216 3844 3400 
Q 4144 3584 4550 3584 
Q 5097 3584 5394 3201 
Q 5691 2819 5691 2113 
L 5691 0 
L 5113 0 
L 5113 2094 
Q 5113 2597 4934 2840 
Q 4756 3084 4391 3084 
Q 3944 3084 3684 2787 
Q 3425 2491 3425 1978 
L 3425 0 
L 2847 0 
L 2847 2094 
Q 2847 2600 2669 2842 
Q 2491 3084 2119 3084 
Q 1678 3084 1418 2786 
Q 1159 2488 1159 1978 
L 1159 0 
L 581 0 
L 581 3500 
L 1159 3500 
L 1159 2956 
Q 1356 3278 1631 3431 
Q 1906 3584 2284 3584 
Q 2666 3584 2933 3390 
Q 3200 3197 3328 2828 
z
" transform="scale(0.015625)"/>
       <path id="DejaVuSans-b2" d="M 838 2444 
L 2163 2444 
L 2163 2088 
L 294 2088 
L 294 2431 
Q 400 2528 597 2703 
Q 1672 3656 1672 3950 
Q 1672 4156 1509 4282 
Q 1347 4409 1081 4409 
Q 919 4409 728 4354 
Q 538 4300 313 4191 
L 313 4575 
Q 553 4663 761 4706 
Q 969 4750 1147 4750 
Q 1600 4750 1872 4544 
Q 2144 4338 2144 4000 
Q 2144 3566 1109 2678 
Q 934 2528 838 2444 
z
" transform="scale(0.015625)"/>
       <path id="DejaVuSans-29" d="M 513 4856 
L 1013 4856 
Q 1481 4119 1714 3412 
Q 1947 2706 1947 2009 
Q 1947 1309 1714 600 
Q 1481 -109 1013 -844 
L 513 -844 
Q 928 -128 1133 580 
Q 1338 1288 1338 2009 
Q 1338 2731 1133 3434 
Q 928 4138 513 4856 
z
" transform="scale(0.015625)"/>
      </defs>
      <use xlink:href="#DejaVuSans-42"/>
      <use xlink:href="#DejaVuSans-4d" transform="translate(68.603516 0)"/>
      <use xlink:href="#DejaVuSans-49" transform="translate(154.882812 0)"/>
      <use xlink:href="#DejaVuSans-20" transform="translate(184.375 0)"/>
      <use xlink:href="#DejaVuSans-28" transform="translate(216.162109 0)"/>
      <use xlink:href="#DejaVuSans-6b" transform="translate(255.175781 0)"/>
      <use xlink:href="#DejaVuSans-67" transform="translate(313.085938 0)"/>
      <use xlink:href="#DejaVuSans-2f" transform="translate(376.5625 0)"/>
      <use xlink:href="#DejaVuSans-6d" transform="translate(410.253906 0)"/>
      <use xlink:href="#DejaVuSans-b2" transform="translate(507.666016 0)"/>
      <use xlink:href="#DejaVuSans-29" transform="translate(547.753906 0)"/>
     </g>
    </g>
   </g>
   <g id="matplotlib.axis_2">
    <g id="ytick_1">
     <g id="line2d_13">
      <path d="M 48.92 245.56 
L 486.21 245.56 
" clip-path="url(#p44cb43c02f)" style="fill: none; stroke: #d8dee9; stroke-opacity: 0.4; stroke-width: 0.8; stroke-linecap: square"/>
     </g>
     <g id="line2d_14">
      <defs>
       <path id="m600c093f4a" d="M 0 0 
L -3.5 0 
" style="stroke: #434c5e; stroke-width: 0.8"/>
      </defs>
      <g>
       <use xlink:href="#m600c093f4a" x="48.92" y="245.56" style="fill: #434c5e; stroke: #434c5e; stroke-width: 0.8"/>
      </g>
     </g>
     <g id="text_8">
      <!-- 0.0 -->
      <g style="fill: #434c5e" transform="translate(24.426563 249.739141) scale(0.11 -0.11)">
       <defs>
        <path id="DejaVuSans-2e" d="M 684 794 
L 1344 794 
L 1344 0 
L 684 0 
L 684 794 
z
" transform="scale(0.015625)"/>
       </defs>
       <use xlink:href="#DejaVuSans-30"/>
       <use xlink:href="#DejaVuSans-2e" transform="translate(63.623047 0)"/>
       <use xlink:href="#DejaVuSans-30" transform="translate(95.410156 0)"/>
      </g>
     </g>
    </g>
    <g id="ytick_2">
     <g id="line2d_15">
      <path d="M 48.92 201.632 
L 486.21 201.632 
" clip-path="url(#p44cb43c02f)" style="fill: none; stroke: #d8dee9; stroke-opacity: 0.4; stroke-width: 0.8; stroke-linecap: square"/>
     </g>
     <g id="line2d_16">
      <g>
       <use xlink:href="#m600c093f4a" x="48.92" y="201.632" style="fill: #434c5e; stroke: #434c5e; stroke-width: 0.8"/>
      </g>
     </g>
     <g id="text_9">
      <!-- 0.1 -->
      <g style="fill: #434c5e" transform="translate(24.426563 205.811141) scale(0.11 -0.11)">
       <defs>
        <path id="DejaVuSans-31" d="M 794 531 
L 1825 531 
L 1825 4091 
L 703 3866 
L 703 4441 
L 1819 4666 
L 2450 4666 
L 2450 531 
L 3481 531 
L 3481 0 
L 794 0 
L 794 531 
z
" transform="scale(0.015625)"/>
       </defs>
       <use xlink:href="#DejaVuSans-30"/>
       <use xlink:href="#DejaVuSans-2e" transform="translate(63.623047 0)"/>
       <use xlink:href="#DejaVuSans-31" transform="translate(95.410156 0)"/>
      </g>
     </g>
    </g>
    <g id="ytick_3">
     <g id="line2d_17">
      <path d="M 48.92 157.704 
L 486.21 157.704 
" clip-path="url(#p44cb43c02f)" style="fill: none; stroke: #d8dee9; stroke-opacity: 0.4; stroke-width: 0.8; stroke-linecap: square"/>
     </g>
     <g id="line2d_18">
      <g>
       <use xlink:href="#m600c093f4a" x="48.92" y="157.704" style="fill: #434c5e; stroke: #434c5e; stroke-width: 0.8"/>
      </g>
     </g>
     <g id="text_10">
      <!-- 0.2 -->
      <g style="fill: #434c5e" transform="translate(24.426563 161.883141) scale(0.11 -0.11)">
       <use xlink:href="#DejaVuSans-30"/>
       <use xlink:href="#DejaVuSans-2e" transform="translate(63.623047 0)"/>
       <use xlink:href="#DejaVuSans-32" transform="translate(95.410156 0)"/>
      </g>
     </g>
    </g>
    <g id="ytick_4">
     <g id="line2d_19">
      <path d="M 48.92 113.776 
L 486.21 113.776 
" clip-path="url(#p44cb43c02f)" style="fill: none; stroke: #d8dee9; stroke-opacity: 0.4; stroke-width: 0.8; stroke-linecap: square"/>
     </g>
     <g id="line2d_20">
      <g>
       <use xlink:href="#m600c093f4a" x="48.92" y="113.776" style="fill: #434c5e; stroke: #434c5e; stroke-width: 0.8"/>
      </g>
     </g>
     <g id="text_11">
      <!-- 0.3 -->
      <g style="fill: #434c5e" transform="translate(24.426563 117.955141) scale(0.11 -0.11)">
       <use xlink:href="#DejaVuSans-30"/>
       <use xlink:href="#DejaVuSans-2e" transform="translate(63.623047 0)"/>
       <use xlink:href="#DejaVuSans-33" transform="translate(95.410156 0)"/>
      </g>
     </g>
    </g>
    <g id="ytick_5">
     <g id="line2d_21">
      <path d="M 48.92 69.848 
L 486.21 69.848 
" clip-path="url(#p44cb43c02f)" style="fill: none; stroke: #d8dee9; stroke-opacity: 0.4; stroke-width: 0.8; stroke-linecap: square"/>
     </g>
     <g id="line2d_22">
      <g>
       <use xlink:href="#m600c093f4a" x="48.92" y="69.848" style="fill: #434c5e; stroke: #434c5e; stroke-width: 0.8"/>
      </g>
     </g>
     <g id="text_12">
      <!-- 0.4 -->
      <g style="fill: #434c5e" transform="translate(24.426563 74.027141) scale(0.11 -0.11)">
       <use xlink:href="#DejaVuSans-30"/>
       <use xlink:href="#DejaVuSans-2e" transform="translate(63.623047 0)"/>
       <use xlink:href="#DejaVuSans-34" transform="translate(95.410156 0)"/>
      </g>
     </g>
    </g>
    <g id="ytick_6">
     <g id="line2d_23">
      <path d="M 48.92 25.92 
L 486.21 25.92 
" clip-path="url(#p44cb43c02f)" style="fill: none; stroke: #d8dee9; stroke-opacity: 0.4; stroke-width: 0.8; stroke-linecap: square"/>
     </g>
     <g id="line2d_24">
      <g>
       <use xlink:href="#m600c093f4a" x="48.92" y="25.92" style="fill: #434c5e; stroke: #434c5e; stroke-width: 0.8"/>
      </g>
     </g>
     <g id="text_13">
      <!-- 0.5 -->
      <g style="fill: #434c5e" transform="translate(24.426563 30.099141) scale(0.11 -0.11)">
       <use xlink:href="#DejaVuSans-30"/>
       <use xlink:href="#DejaVuSans-2e" transform="translate(63.623047 0)"/>
       <use xlink:href="#DejaVuSans-35" transform="translate(95.410156 0)"/>
      </g>
     </g>
    </g>
    <g id="text_14">
     <!-- Probabilité de Best Performer -->
     <g style="fill: #434c5e" transform="translate(18.346875 209.131406) rotate(-90) scale(0.1 -0.1)">
      <defs>
       <path id="DejaVuSans-50" d="M 1259 4147 
L 1259 2394 
L 2053 2394 
Q 2494 2394 2734 2622 
Q 2975 2850 2975 3272 
Q 2975 3691 2734 3919 
Q 2494 4147 2053 4147 
L 1259 4147 
z
M 628 4666 
L 2053 4666 
Q 2838 4666 3239 4311 
Q 3641 3956 3641 3272 
Q 3641 2581 3239 2228 
Q 2838 1875 2053 1875 
L 1259 1875 
L 1259 0 
L 628 0 
L 628 4666 
z
" transform="scale(0.015625)"/>
       <path id="DejaVuSans-72" d="M 2631 2963 
Q 2534 3019 2420 3045 
Q 2306 3072 2169 3072 
Q 1681 3072 1420 2755 
Q 1159 2438 1159 1844 
L 1159 0 
L 581 0 
L 581 3500 
L 1159 3500 
L 1159 2956 
Q 1341 3275 1631 3429 
Q 1922 3584 2338 3584 
Q 2397 3584 2469 3576 
Q 2541 3569 2628 3553 
L 2631 2963 
z
" transform="scale(0.015625)"/>
       <path id="DejaVuSans-6f" d="M 1959 3097 
Q 1497 3097 1228 2736 
Q 959 2375 959 1747 
Q 959 1119 1226 758 
Q 1494 397 1959 397 
Q 2419 397 2687 759 
Q 2956 1122 2956 1747 
Q 2956 2369 2687 2733 
Q 2419 3097 1959 3097 
z
M 1959 3584 
Q 2709 3584 3137 3096 
Q 3566 2609 3566 1747 
Q 3566 888 3137 398 
Q 2709 -91 1959 -91 
Q 1206 -91 779 398 
Q 353 888 353 1747 
Q 353 2609 779 3096 
Q 1206 3584 1959 3584 
z
" transform="scale(0.015625)"/>
       <path id="DejaVuSans-62" d="M 3116 1747 
Q 3116 2381 2855 2742 
Q 2594 3103 2138 3103 
Q 1681 3103 1420 2742 
Q 1159 2381 1159 1747 
Q 1159 1113 1420 752 
Q 1681 391 2138 391 
Q 2594 391 2855 752 
Q 3116 1113 3116 1747 
z
M 1159 2969 
Q 1341 3281 1617 3432 
Q 1894 3584 2278 3584 
Q 2916 3584 3314 3078 
Q 3713 2572 3713 1747 
Q 3713 922 3314 415 
Q 2916 -91 2278 -91 
Q 1894 -91 1617 61 
Q 1341 213 1159 525 
L 1159 0 
L 581 0 
L 581 4863 
L 1159 4863 
L 1159 2969 
z
" transform="scale(0.015625)"/>
       <path id="DejaVuSans-61" d="M 2194 1759 
Q 1497 1759 1228 1600 
Q 959 1441 959 1056 
Q 959 750 1161 570 
Q 1363 391 1709 391 
Q 2188 391 2477 730 
Q 2766 1069 2766 1631 
L 2766 1759 
L 2194 1759 
z
M 3341 1997 
L 3341 0 
L 2766 0 
L 2766 531 
Q 2569 213 2275 61 
Q 1981 -91 1556 -91 
Q 1019 -91 701 211 
Q 384 513 384 1019 
Q 384 1609 779 1909 
Q 1175 2209 1959 2209 
L 2766 2209 
L 2766 2266 
Q 2766 2663 2505 2880 
Q 2244 3097 1772 3097 
Q 1472 3097 1187 3025 
Q 903 2953 641 2809 
L 641 3341 
Q 956 3463 1253 3523 
Q 1550 3584 1831 3584 
Q 2591 3584 2966 3190 
Q 3341 2797 3341 1997 
z
" transform="scale(0.015625)"/>
       <path id="DejaVuSans-69" d="M 603 3500 
L 1178 3500 
L 1178 0 
L 603 0 
L 603 3500 
z
M 603 4863 
L 1178 4863 
L 1178 4134 
L 603 4134 
L 603 4863 
z
" transform="scale(0.015625)"/>
       <path id="DejaVuSans-6c" d="M 603 4863 
L 1178 4863 
L 1178 0 
L 603 0 
L 603 4863 
z
" transform="scale(0.015625)"/>
       <path id="DejaVuSans-74" d="M 1172 4494 
L 1172 3500 
L 2356 3500 
L 2356 3053 
L 1172 3053 
L 1172 1153 
Q 1172 725 1289 603 
Q 1406 481 1766 481 
L 2356 481 
L 2356 0 
L 1766 0 
Q 1100 0 847 248 
Q 594 497 594 1153 
L 594 3053 
L 172 3053 
L 172 3500 
L 594 3500 
L 594 4494 
L 1172 4494 
z
" transform="scale(0.015625)"/>
       <path id="DejaVuSans-e9" d="M 3597 1894 
L 3597 1613 
L 953 1613 
Q 991 1019 1311 708 
Q 1631 397 2203 397 
Q 2534 397 2845 478 
Q 3156 559 3463 722 
L 3463 178 
Q 3153 47 2828 -22 
Q 2503 -91 2169 -91 
Q 1331 -91 842 396 
Q 353 884 353 1716 
Q 353 2575 817 3079 
Q 1281 3584 2069 3584 
Q 2775 3584 3186 3129 
Q 3597 2675 3597 1894 
z
M 3022 2063 
Q 3016 2534 2758 2815 
Q 2500 3097 2075 3097 
Q 1594 3097 1305 2825 
Q 1016 2553 972 2059 
L 3022 2063 
z
M 2466 5119 
L 3088 5119 
L 2070 3944 
L 1591 3944 
L 2466 5119 
z
" transform="scale(0.015625)"/>
       <path id="DejaVuSans-64" d="M 2906 2969 
L 2906 4863 
L 3481 4863 
L 3481 0 
L 2906 0 
L 2906 525 
Q 2725 213 2448 61 
Q 2172 -91 1784 -91 
Q 1150 -91 751 415 
Q 353 922 353 1747 
Q 353 2572 751 3078 
Q 1150 3584 1784 3584 
Q 2172 3584 2448 3432 
Q 2725 3281 2906 2969 
z
M 947 1747 
Q 947 1113 1208 752 
Q 1469 391 1925 391 
Q 2381 391 2643 752 
Q 2906 1113 2906 1747 
Q 2906 2381 2643 2742 
Q 2381 3103 1925 3103 
Q 1469 3103 1208 2742 
Q 947 2381 947 1747 
z
" transform="scale(0.015625)"/>
       <path id="DejaVuSans-65" d="M 3597 1894 
L 3597 1613 
L 953 1613 
Q 991 1019 1311 708 
Q 1631 397 2203 397 
Q 2534 397 2845 478 
Q 3156 559 3463 722 
L 3463 178 
Q 3153 47 2828 -22 
Q 2503 -91 2169 -91 
Q 1331 -91 842 396 
Q 353 884 353 1716 
Q 353 2575 817 3079 
Q 1281 3584 2069 3584 
Q 2775 3584 3186 3129 
Q 3597 2675 3597 1894 
z
M 3022 2063 
Q 3016 2534 2758 2815 
Q 2500 3097 2075 3097 
Q 1594 3097 1305 2825 
Q 1016 2553 972 2059 
L 3022 2063 
z
" transform="scale(0.015625)"/>
       <path id="DejaVuSans-73" d="M 2834 3397 
L 2834 2853 
Q 2591 2978 2328 3040 
Q 2066 3103 1784 3103 
Q 1356 3103 1142 2972 
Q 928 2841 928 2578 
Q 928 2378 1081 2264 
Q 1234 2150 1697 2047 
L 1894 2003 
Q 2506 1872 2764 1633 
Q 3022 1394 3022 966 
Q 3022 478 2636 193 
Q 2250 -91 1575 -91 
Q 1294 -91 989 -36 
Q 684 19 347 128 
L 347 722 
Q 666 556 975 473 
Q 1284 391 1588 391 
Q 1994 391 2212 530 
Q 2431 669 2431 922 
Q 2431 1156 2273 1281 
Q 2116 1406 1581 1522 
L 1381 1569 
Q 847 1681 609 1914 
Q 372 2147 372 2553 
Q 372 3047 722 3315 
Q 1072 3584 1716 3584 
Q 2034 3584 2315 3537 
Q 2597 3491 2834 3397 
z
" transform="scale(0.015625)"/>
       <path id="DejaVuSans-66" d="M 2375 4863 
L 2375 4384 
L 1825 4384 
Q 1516 4384 1395 4259 
Q 1275 4134 1275 3809 
L 1275 3500 
L 2222 3500 
L 2222 3053 
L 1275 3053 
L 1275 0 
L 697 0 
L 697 3053 
L 147 3053 
L 147 3500 
L 697 3500 
L 697 3744 
Q 697 4328 969 4595 
Q 1241 4863 1831 4863 
L 2375 4863 
z
" transform="scale(0.015625)"/>
      </defs>
      <use xlink:href="#DejaVuSans-50"/>
      <use xlink:href="#DejaVuSans-72" transform="translate(58.552734 0)"/>
      <use xlink:href="#DejaVuSans-6f" transform="translate(97.416016 0)"/>
      <use xlink:href="#DejaVuSans-62" transform="translate(158.597656 0)"/>
      <use xlink:href="#DejaVuSans-61" transform="translate(222.074219 0)"/>
      <use xlink:href="#DejaVuSans-62" transform="translate(283.353516 0)"/>
      <use xlink:href="#DejaVuSans-69" transform="translate(346.830078 0)"/>
      <use xlink:href="#DejaVuSans-6c" transform="translate(374.613281 0)"/>
      <use xlink:href="#DejaVuSans-69" transform="translate(402.396484 0)"/>
      <use xlink:href="#DejaVuSans-74" transform="translate(430.179688 0)"/>
      <use xlink:href="#DejaVuSans-e9" transform="translate(469.388672 0)"/>
      <use xlink:href="#DejaVuSans-20" transform="translate(530.912109 0)"/>
      <use xlink:href="#DejaVuSans-64" transform="translate(562.699219 0)"/>
      <use xlink:href="#DejaVuSans-65" transform="translate(626.175781 0)"/>
      <use xlink:href="#DejaVuSans-20" transform="translate(687.699219 0)"/>
      <use xlink:href="#DejaVuSans-42" transform="translate(719.486328 0)"/>
      <use xlink:href="#DejaVuSans-65" transform="translate(788.089844 0)"/>
      <use xlink:href="#DejaVuSans-73" transform="translate(849.613281 0)"/>
      <use xlink:href="#DejaVuSans-74" transform="translate(901.712891 0)"/>
      <use xlink:href="#DejaVuSans-20" transform="translate(940.921875 0)"/>
      <use xlink:href="#DejaVuSans-50" transform="translate(972.708984 0)"/>
      <use xlink:href="#DejaVuSans-65" transform="translate(1029.386719 0)"/>
      <use xlink:href="#DejaVuSans-72" transform="translate(1090.910156 0)"/>
      <use xlink:href="#DejaVuSans-66" transform="translate(1132.023438 0)"/>
      <use xlink:href="#DejaVuSans-6f" transform="translate(1167.228516 0)"/>
      <use xlink:href="#DejaVuSans-72" transform="translate(1228.410156 0)"/>
      <use xlink:href="#DejaVuSans-6d" transform="translate(1267.773438 0)"/>
      <use xlink:href="#DejaVuSans-65" transform="translate(1365.185547 0)"/>
      <use xlink:href="#DejaVuSans-72" transform="translate(1426.708984 0)"/>
     </g>
    </g>
   </g>
   <g id="line2d_25">
    <path d="M 48.92 103.688058 
L 75.289246 111.438032 
L 101.658492 118.952293 
L 125.830302 125.621971 
L 150.002111 132.074011 
L 174.17392 138.301615 
L 198.345729 144.299597 
L 222.517538 150.064329 
L 246.689347 155.593672 
L 270.861156 160.886886 
L 295.032965 165.944537 
L 319.204774 170.768385 
L 343.376583 175.361277 
L 367.548392 179.727028 
L 391.720201 183.870304 
L 415.89201 187.796509 
L 440.063819 191.511668 
L 466.433065 195.331573 
L 486.21 198.042218 
L 486.21 198.042218 
" clip-path="url(#p44cb43c02f)" style="fill: none; stroke: #5e81ac; stroke-width: 1.5; stroke-linecap: square"/>
   </g>
   <g id="line2d_26">
    <path d="M 48.92 98.14367 
L 79.684121 106.478102 
L 108.250804 113.99238 
L 136.817487 121.275892 
L 165.384171 128.316934 
L 191.753417 134.592857 
L 218.122663 140.648132 
L 244.49191 146.478374 
L 270.861156 152.080652 
L 297.230402 157.453415 
L 323.599648 162.596407 
L 349.968894 167.510572 
L 376.338141 172.197954 
L 402.707387 176.661588 
L 429.076633 180.905396 
L 455.445879 184.934072 
L 481.815126 188.752976 
L 486.21 189.369474 
L 486.21 189.369474 
" clip-path="url(#p44cb43c02f)" style="fill: none; stroke: #d08770; stroke-width: 1.5; stroke-linecap: square"/>
   </g>
   <g id="line2d_27">
    <path d="M 48.92 57.585693 
L 200.543166 69.855824 
L 334.586834 80.482432 
L 457.643317 90.014066 
L 486.21 92.192445 
L 486.21 92.192445 
" clip-path="url(#p44cb43c02f)" style="fill: none; stroke: #a3be8c; stroke-width: 1.5; stroke-linecap: square"/>
   </g>
   <g id="patch_3">
    <path d="M 48.92 245.56 
L 48.92 25.92 
" style="fill: none; stroke: #434c5e; stroke-width: 0.8; stroke-linejoin: miter; stroke-linecap: square"/>
   </g>
   <g id="patch_4">
    <path d="M 486.21 245.56 
L 486.21 25.92 
" style="fill: none; stroke: #434c5e; stroke-width: 0.8; stroke-linejoin: miter; stroke-linecap: square"/>
   </g>
   <g id="patch_5">
    <path d="M 48.92 245.56 
L 486.21 245.56 
" style="fill: none; stroke: #434c5e; stroke-width: 0.8; stroke-linejoin: miter; stroke-linecap: square"/>
   </g>
   <g id="patch_6">
    <path d="M 48.92 25.92 
L 486.21 25.92 
" style="fill: none; stroke: #434c5e; stroke-width: 0.8; stroke-linejoin: miter; stroke-linecap: square"/>
   </g>
   <g id="text_15">
    <!-- Interaction p=0.005 -->
    <g style="fill: #4c566a" transform="translate(57.6658 221.3005) scale(0.1 -0.1)">
     <defs>
      <path id="DejaVuSans-6e" d="M 3513 2113 
L 3513 0 
L 2938 0 
L 2938 2094 
Q 2938 2591 2744 2837 
Q 2550 3084 2163 3084 
Q 1697 3084 1428 2787 
Q 1159 2491 1159 1978 
L 1159 0 
L 581 0 
L 581 3500 
L 1159 3500 
L 1159 2956 
Q 1366 3272 1645 3428 
Q 1925 3584 2291 3584 
Q 2894 3584 3203 3211 
Q 3513 2838 3513 2113 
z
" transform="scale(0.015625)"/>
      <path id="DejaVuSans-63" d="M 3122 3366 
L 3122 2828 
Q 2878 2963 2633 3030 
Q 2388 3097 2138 3097 
Q 1578 3097 1268 2742 
Q 959 2388 959 1747 
Q 959 1106 1268 751 
Q 1578 397 2138 397 
Q 2388 397 2633 464 
Q 2878 531 3122 666 
L 3122 134 
Q 2881 22 2623 -34 
Q 2366 -91 2075 -91 
Q 1284 -91 818 406 
Q 353 903 353 1747 
Q 353 2603 823 3093 
Q 1294 3584 2113 3584 
Q 2378 3584 2631 3529 
Q 2884 3475 3122 3366 
z
" transform="scale(0.015625)"/>
      <path id="DejaVuSans-70" d="M 1159 525 
L 1159 -1331 
L 581 -1331 
L 581 3500 
L 1159 3500 
L 1159 2969 
Q 1341 3281 1617 3432 
Q 1894 3584 2278 3584 
Q 2916 3584 3314 3078 
Q 3713 2572 3713 1747 
Q 3713 922 3314 415 
Q 2916 -91 2278 -91 
Q 1894 -91 1617 61 
Q 1341 213 1159 525 
z
M 3116 1747 
Q 3116 2381 2855 2742 
Q 2594 3103 2138 3103 
Q 1681 3103 1420 2742 
Q 1159 2381 1159 1747 
Q 1159 1113 1420 752 
Q 1681 391 2138 391 
Q 2594 391 2855 752 
Q 3116 1113 3116 1747 
z
" transform="scale(0.015625)"/>
      <path id="DejaVuSans-3d" d="M 678 2906 
L 4684 2906 
L 4684 2381 
L 678 2381 
L 678 2906 
z
M 678 1631 
L 4684 1631 
L 4684 1100 
L 678 1100 
L 678 1631 
z
" transform="scale(0.015625)"/>
     </defs>
     <use xlink:href="#DejaVuSans-49"/>
     <use xlink:href="#DejaVuSans-6e" transform="translate(29.492188 0)"/>
     <use xlink:href="#DejaVuSans-74" transform="translate(92.871094 0)"/>
     <use xlink:href="#DejaVuSans-65" transform="translate(132.080078 0)"/>
     <use xlink:href="#DejaVuSans-72" transform="translate(193.603516 0)"/>
     <use xlink:href="#DejaVuSans-61" transform="translate(234.716797 0)"/>
     <use xlink:href="#DejaVuSans-63" transform="translate(295.996094 0)"/>
     <use xlink:href="#DejaVuSans-74" transform="translate(350.976562 0)"/>
     <use xlink:href="#DejaVuSans-69" transform="translate(390.185547 0)"/>
     <use xlink:href="#DejaVuSans-6f" transform="translate(417.96875 0)"/>
     <use xlink:href="#DejaVuSans-6e" transform="translate(479.150391 0)"/>
     <use xlink:href="#DejaVuSans-20" transform="translate(542.529297 0)"/>
     <use xlink:href="#DejaVuSans-70" transform="translate(574.316406 0)"/>
     <use xlink:href="#DejaVuSans-3d" transform="translate(637.792969 0)"/>
     <use xlink:href="#DejaVuSans-30" transform="translate(721.582031 0)"/>
     <use xlink:href="#DejaVuSans-2e" transform="translate(785.205078 0)"/>
     <use xlink:href="#DejaVuSans-30" transform="translate(816.992188 0)"/>
     <use xlink:href="#DejaVuSans-30" transform="translate(880.615234 0)"/>
     <use xlink:href="#DejaVuSans-35" transform="translate(944.238281 0)"/>
    </g>
    <!-- BMI 40: ΔHigh-Low=0.27 (0.12,0.42); p=0.000 -->
    <g style="fill: #4c566a" transform="translate(57.6658 232.498312) scale(0.1 -0.1)">
     <defs>
      <path id="DejaVuSans-3a" d="M 750 794 
L 1409 794 
L 1409 0 
L 750 0 
L 750 794 
z
M 750 3309 
L 1409 3309 
L 1409 2516 
L 750 2516 
L 750 3309 
z
" transform="scale(0.015625)"/>
      <path id="DejaVuSans-394" d="M 2188 4044 
L 906 525 
L 3472 525 
L 2188 4044 
z
M 50 0 
L 1831 4666 
L 2547 4666 
L 4325 0 
L 50 0 
z
" transform="scale(0.015625)"/>
      <path id="DejaVuSans-48" d="M 628 4666 
L 1259 4666 
L 1259 2753 
L 3553 2753 
L 3553 4666 
L 4184 4666 
L 4184 0 
L 3553 0 
L 3553 2222 
L 1259 2222 
L 1259 0 
L 628 0 
L 628 4666 
z
" transform="scale(0.015625)"/>
      <path id="DejaVuSans-68" d="M 3513 2113 
L 3513 0 
L 2938 0 
L 2938 2094 
Q 2938 2591 2744 2837 
Q 2550 3084 2163 3084 
Q 1697 3084 1428 2787 
Q 1159 2491 1159 1978 
L 1159 0 
L 581 0 
L 581 4863 
L 1159 4863 
L 1159 2956 
Q 1366 3272 1645 3428 
Q 1925 3584 2291 3584 
Q 2894 3584 3203 3211 
Q 3513 2838 3513 2113 
z
" transform="scale(0.015625)"/>
      <path id="DejaVuSans-2d" d="M 313 2009 
L 1997 2009 
L 1997 1497 
L 313 1497 
L 313 2009 
z
" transform="scale(0.015625)"/>
      <path id="DejaVuSans-4c" d="M 628 4666 
L 1259 4666 
L 1259 531 
L 3531 531 
L 3531 0 
L 628 0 
L 628 4666 
z
" transform="scale(0.015625)"/>
      <path id="DejaVuSans-77" d="M 269 3500 
L 844 3500 
L 1563 769 
L 2278 3500 
L 2956 3500 
L 3675 769 
L 4391 3500 
L 4966 3500 
L 4050 0 
L 3372 0 
L 2619 2869 
L 1863 0 
L 1184 0 
L 269 3500 
z
" transform="scale(0.015625)"/>
      <path id="DejaVuSans-37" d="M 525 4666 
L 3525 4666 
L 3525 4397 
L 1831 0 
L 1172 0 
L 2766 4134 
L 525 4134 
L 525 4666 
z
" transform="scale(0.015625)"/>
      <path id="DejaVuSans-2c" d="M 750 794 
L 1409 794 
L 1409 256 
L 897 -744 
L 494 -744 
L 750 256 
L 750 794 
z
" transform="scale(0.015625)"/>
      <path id="DejaVuSans-3b" d="M 750 3309 
L 1409 3309 
L 1409 2516 
L 750 2516 
L 750 3309 
z
M 750 794 
L 1409 794 
L 1409 256 
L 897 -744 
L 494 -744 
L 750 256 
L 750 794 
z
" transform="scale(0.015625)"/>
     </defs>
     <use xlink:href="#DejaVuSans-42"/>
     <use xlink:href="#DejaVuSans-4d" transform="translate(68.603516 0)"/>
     <use xlink:href="#DejaVuSans-49" transform="translate(154.882812 0)"/>
     <use xlink:href="#DejaVuSans-20" transform="translate(184.375 0)"/>
     <use xlink:href="#DejaVuSans-34" transform="translate(216.162109 0)"/>
     <use xlink:href="#DejaVuSans-30" transform="translate(279.785156 0)"/>
     <use xlink:href="#DejaVuSans-3a" transform="translate(343.408203 0)"/>
     <use xlink:href="#DejaVuSans-20" transform="translate(377.099609 0)"/>
     <use xlink:href="#DejaVuSans-394" transform="translate(408.886719 0)"/>
     <use xlink:href="#DejaVuSans-48" transform="translate(477.294922 0)"/>
     <use xlink:href="#DejaVuSans-69" transform="translate(552.490234 0)"/>
     <use xlink:href="#DejaVuSans-67" transform="translate(580.273438 0)"/>
     <use xlink:href="#DejaVuSans-68" transform="translate(643.75 0)"/>
     <use xlink:href="#DejaVuSans-2d" transform="translate(707.128906 0)"/>
     <use xlink:href="#DejaVuSans-4c" transform="translate(743.212891 0)"/>
     <use xlink:href="#DejaVuSans-6f" transform="translate(797.175781 0)"/>
     <use xlink:href="#DejaVuSans-77" transform="translate(858.357422 0)"/>
     <use xlink:href="#DejaVuSans-3d" transform="translate(940.144531 0)"/>
     <use xlink:href="#DejaVuSans-30" transform="translate(1023.933594 0)"/>
     <use xlink:href="#DejaVuSans-2e" transform="translate(1087.556641 0)"/>
     <use xlink:href="#DejaVuSans-32" transform="translate(1119.34375 0)"/>
     <use xlink:href="#DejaVuSans-37" transform="translate(1182.966797 0)"/>
     <use xlink:href="#DejaVuSans-20" transform="translate(1246.589844 0)"/>
     <use xlink:href="#DejaVuSans-28" transform="translate(1278.376953 0)"/>
     <use xlink:href="#DejaVuSans-30" transform="translate(1317.390625 0)"/>
     <use xlink:href="#DejaVuSans-2e" transform="translate(1381.013672 0)"/>
     <use xlink:href="#DejaVuSans-31" transform="translate(1412.800781 0)"/>
     <use xlink:href="#DejaVuSans-32" transform="translate(1476.423828 0)"/>
     <use xlink:href="#DejaVuSans-2c" transform="translate(1540.046875 0)"/>
     <use xlink:href="#DejaVuSans-30" transform="translate(1571.833984 0)"/>
     <use xlink:href="#DejaVuSans-2e" transform="translate(1635.457031 0)"/>
     <use xlink:href="#DejaVuSans-34" transform="translate(1667.244141 0)"/>
     <use xlink:href="#DejaVuSans-32" transform="translate(1730.867188 0)"/>
     <use xlink:href="#DejaVuSans-29" transform="translate(1794.490234 0)"/>
     <use xlink:href="#DejaVuSans-3b" transform="translate(1833.503906 0)"/>
     <use xlink:href="#DejaVuSans-20" transform="translate(1867.195312 0)"/>
     <use xlink:href="#DejaVuSans-70" transform="translate(1898.982422 0)"/>
     <use xlink:href="#DejaVuSans-3d" transform="translate(1962.458984 0)"/>
     <use xlink:href="#DejaVuSans-30" transform="translate(2046.248047 0)"/>
     <use xlink:href="#DejaVuSans-2e" transform="translate(2109.871094 0)"/>
     <use xlink:href="#DejaVuSans-30" transform="translate(2141.658203 0)"/>
     <use xlink:href="#DejaVuSans-30" transform="translate(2205.28125 0)"/>
     <use xlink:href="#DejaVuSans-30" transform="translate(2268.904297 0)"/>
    </g>
   </g>
   <g id="text_16">
    <!-- Interaction BMI × volume : tiers de centre -->
    <g style="fill: #4c566a" transform="translate(141.35125 19.92) scale(0.12 -0.12)">
     <defs>
      <path id="DejaVuSans-d7" d="M 4488 3438 
L 3059 2003 
L 4488 575 
L 4116 197 
L 2681 1631 
L 1247 197 
L 878 575 
L 2303 2003 
L 878 3438 
L 1247 3816 
L 2681 2381 
L 4116 3816 
L 4488 3438 
z
" transform="scale(0.015625)"/>
      <path id="DejaVuSans-76" d="M 191 3500 
L 800 3500 
L 1894 563 
L 2988 3500 
L 3597 3500 
L 2284 0 
L 1503 0 
L 191 3500 
z
" transform="scale(0.015625)"/>
      <path id="DejaVuSans-75" d="M 544 1381 
L 544 3500 
L 1119 3500 
L 1119 1403 
Q 1119 906 1312 657 
Q 1506 409 1894 409 
Q 2359 409 2629 706 
Q 2900 1003 2900 1516 
L 2900 3500 
L 3475 3500 
L 3475 0 
L 2900 0 
L 2900 538 
Q 2691 219 2414 64 
Q 2138 -91 1772 -91 
Q 1169 -91 856 284 
Q 544 659 544 1381 
z
M 1991 3584 
L 1991 3584 
z
" transform="scale(0.015625)"/>
     </defs>
     <use xlink:href="#DejaVuSans-49"/>
     <use xlink:href="#DejaVuSans-6e" transform="translate(29.492188 0)"/>
     <use xlink:href="#DejaVuSans-74" transform="translate(92.871094 0)"/>
     <use xlink:href="#DejaVuSans-65" transform="translate(132.080078 0)"/>
     <use xlink:href="#DejaVuSans-72" transform="translate(193.603516 0)"/>
     <use xlink:href="#DejaVuSans-61" transform="translate(234.716797 0)"/>
     <use xlink:href="#DejaVuSans-63" transform="translate(295.996094 0)"/>
     <use xlink:href="#DejaVuSans-74" transform="translate(350.976562 0)"/>
     <use xlink:href="#DejaVuSans-69" transform="translate(390.185547 0)"/>
     <use xlink:href="#DejaVuSans-6f" transform="translate(417.96875 0)"/>
     <use xlink:href="#DejaVuSans-6e" transform="translate(479.150391 0)"/>
     <use xlink:href="#DejaVuSans-20" transform="translate(542.529297 0)"/>
     <use xlink:href="#DejaVuSans-42" transform="translate(574.316406 0)"/>
     <use xlink:href="#DejaVuSans-4d" transform="translate(642.919922 0)"/>
     <use xlink:href="#DejaVuSans-49" transform="translate(729.199219 0)"/>
     <use xlink:href="#DejaVuSans-20" transform="translate(758.691406 0)"/>
     <use xlink:href="#DejaVuSans-d7" transform="translate(790.478516 0)"/>
     <use xlink:href="#DejaVuSans-20" transform="translate(874.267578 0)"/>
     <use xlink:href="#DejaVuSans-76" transform="translate(906.054688 0)"/>
     <use xlink:href="#DejaVuSans-6f" transform="translate(965.234375 0)"/>
     <use xlink:href="#DejaVuSans-6c" transform="translate(1026.416016 0)"/>
     <use xlink:href="#DejaVuSans-75" transform="translate(1054.199219 0)"/>
     <use xlink:href="#DejaVuSans-6d" transform="translate(1117.578125 0)"/>
     <use xlink:href="#DejaVuSans-65" transform="translate(1214.990234 0)"/>
     <use xlink:href="#DejaVuSans-20" transform="translate(1276.513672 0)"/>
     <use xlink:href="#DejaVuSans-3a" transform="translate(1308.300781 0)"/>
     <use xlink:href="#DejaVuSans-20" transform="translate(1341.992188 0)"/>
     <use xlink:href="#DejaVuSans-74" transform="translate(1373.779297 0)"/>
     <use xlink:href="#DejaVuSans-69" transform="translate(1412.988281 0)"/>
     <use xlink:href="#DejaVuSans-65" transform="translate(1440.771484 0)"/>
     <use xlink:href="#DejaVuSans-72" transform="translate(1502.294922 0)"/>
     <use xlink:href="#DejaVuSans-73" transform="translate(1543.408203 0)"/>
     <use xlink:href="#DejaVuSans-20" transform="translate(1595.507812 0)"/>
     <use xlink:href="#DejaVuSans-64" transform="translate(1627.294922 0)"/>
     <use xlink:href="#DejaVuSans-65" transform="translate(1690.771484 0)"/>
     <use xlink:href="#DejaVuSans-20" transform="translate(1752.294922 0)"/>
     <use xlink:href="#DejaVuSans-63" transform="translate(1784.082031 0)"/>
     <use xlink:href="#DejaVuSans-65" transform="translate(1839.0625 0)"/>
     <use xlink:href="#DejaVuSans-6e" transform="translate(1900.585938 0)"/>
     <use xlink:href="#DejaVuSans-74" transform="translate(1963.964844 0)"/>
     <use xlink:href="#DejaVuSans-72" transform="translate(2003.173828 0)"/>
     <use xlink:href="#DejaVuSans-65" transform="translate(2042.037109 0)"/>
    </g>
   </g>
   <g id="legend_1">
    <g id="text_17">
     <!-- Volume -->
     <g transform="translate(64.815313 190.445937) scale(0.1 -0.1)">
      <defs>
       <path id="DejaVuSans-56" d="M 1831 0 
L 50 4666 
L 709 4666 
L 2188 738 
L 3669 4666 
L 4325 4666 
L 2547 0 
L 1831 0 
z
" transform="scale(0.015625)"/>
      </defs>
      <use xlink:href="#DejaVuSans-56"/>
      <use xlink:href="#DejaVuSans-6f" transform="translate(60.658203 0)"/>
      <use xlink:href="#DejaVuSans-6c" transform="translate(121.839844 0)"/>
      <use xlink:href="#DejaVuSans-75" transform="translate(149.623047 0)"/>
      <use xlink:href="#DejaVuSans-6d" transform="translate(213.001953 0)"/>
      <use xlink:href="#DejaVuSans-65" transform="translate(310.414062 0)"/>
     </g>
    </g>
    <g id="line2d_28">
     <path d="M 57.92 201.624062 
L 67.92 201.624062 
L 77.92 201.624062 
" style="fill: none; stroke: #5e81ac; stroke-width: 1.5; stroke-linecap: square"/>
    </g>
    <g id="text_18">
     <!-- Low -->
     <g transform="translate(85.92 205.124062) scale(0.1 -0.1)">
      <use xlink:href="#DejaVuSans-4c"/>
      <use xlink:href="#DejaVuSans-6f" transform="translate(53.962891 0)"/>
      <use xlink:href="#DejaVuSans-77" transform="translate(115.144531 0)"/>
     </g>
    </g>
    <g id="line2d_29">
     <path d="M 57.92 216.302187 
L 67.92 216.302187 
L 77.92 216.302187 
" style="fill: none; stroke: #d08770; stroke-width: 1.5; stroke-linecap: square"/>
    </g>
    <g id="text_19">
     <!-- Mid -->
     <g transform="translate(85.92 219.802187) scale(0.1 -0.1)">
      <use xlink:href="#DejaVuSans-4d"/>
      <use xlink:href="#DejaVuSans-69" transform="translate(86.279297 0)"/>
      <use xlink:href="#DejaVuSans-64" transform="translate(114.0625 0)"/>
     </g>
    </g>
    <g id="line2d_30">
     <path d="M 57.92 230.980312 
L 67.92 230.980312 
L 77.92 230.980312 
" style="fill: none; stroke: #a3be8c; stroke-width: 1.5; stroke-linecap: square"/>
    </g>
    <g id="text_20">
     <!-- High -->
     <g transform="translate(85.92 234.480312) scale(0.1 -0.1)">
      <use xlink:href="#DejaVuSans-48"/>
      <use xlink:href="#DejaVuSans-69" transform="translate(75.195312 0)"/>
      <use xlink:href="#DejaVuSans-67" transform="translate(102.978516 0)"/>
      <use xlink:href="#DejaVuSans-68" transform="translate(166.455078 0)"/>
     </g>
    </g>
   </g>
  </g>
 </g>
 <defs>
  <clipPath id="p44cb43c02f">
   <rect x="48.92" y="25.92" width="437.29" height="219.64"/>
  </clipPath>
 </defs>
</svg>
