<?xml version="1.0" encoding="utf-8" standalone="no"?>
<!DOCTYPE svg PUBLIC "-//W3C//DTD SVG 1.1//EN"
  "http://www.w3.org/Graphics/SVG/1.1/DTD/svg11.dtd">
<svg xmlns:xlink="http://www.w3.org/1999/xlink" width="792pt" height="273.6pt" viewBox="0 0 792 273.6" xmlns="http://www.w3.org/2000/svg" version="1.1">
 <metadata>
  <rdf:RDF xmlns:dc="http://purl.org/dc/elements/1.1/" xmlns:cc="http://creativecommons.org/ns#" xmlns:rdf="http://www.w3.org/1999/02/22-rdf-syntax-ns#">
   <cc:Work>
    <dc:type rdf:resource="http://purl.org/dc/dcmitype/StillImage"/>
    <dc:date>2025-12-10T09:08:43.944441</dc:date>
    <dc:format>image/svg+xml</dc:format>
    <dc:creator>
     <cc:Agent>
      <dc:title>Matplotlib v3.10.6, https://matplotlib.org/</dc:title>
     </cc:Agent>
    </dc:creator>
   </cc:Work>
  </rdf:RDF>
 </metadata>
 <defs>
  <style type="text/css">*{stroke-linejoin: round; stroke-linecap: butt}</style>
 </defs>
 <g id="figure_1">
  <g id="patch_1">
   <path d="M 0 273.6 
L 792 273.6 
L 792 0 
L 0 0 
z
" style="fill: #ffffff"/>
  </g>
  <g id="axes_1">
   <g id="patch_2">
    <path d="M 48.92 231.16 
L 283.48 231.16 
L 283.48 25.92 
L 48.92 25.92 
z
" style="fill: #ffffff"/>
   </g>
   <g id="FillBetweenPolyCollection_1">
    <defs>
     <path id="m0f49857e95" d="M 48.92 -208.383701 
L 48.92 -141.637416 
L 50.098693 -141.265955 
L 51.277387 -140.894075 
L 52.45608 -140.521762 
L 53.634774 -140.148999 
L 54.813467 -139.77577 
L 55.992161 -139.402062 
L 57.170854 -139.027858 
L 58.349548 -138.653143 
L 59.528241 -138.277904 
L 60.706935 -137.902124 
L 61.885628 -137.525791 
L 63.064322 -137.148889 
L 64.243015 -136.771406 
L 65.421709 -136.393326 
L 66.600402 -136.014638 
L 67.779095 -135.635327 
L 68.957789 -135.255381 
L 70.136482 -134.874788 
L 71.315176 -134.493535 
L 72.493869 -134.111611 
L 73.672563 -133.729004 
L 74.851256 -133.345702 
L 76.02995 -132.961696 
L 77.208643 -132.576975 
L 78.387337 -132.191529 
L 79.56603 -131.805349 
L 80.744724 -131.418426 
L 81.923417 -131.03075 
L 83.102111 -130.642316 
L 84.280804 -130.253114 
L 85.459497 -129.863137 
L 86.638191 -129.472381 
L 87.816884 -129.080838 
L 88.995578 -128.688504 
L 90.174271 -128.295373 
L 91.352965 -127.901443 
L 92.531658 -127.506708 
L 93.710352 -127.111168 
L 94.889045 -126.714819 
L 96.067739 -126.317661 
L 97.246432 -125.919693 
L 98.425126 -125.520914 
L 99.603819 -125.121326 
L 100.782513 -124.72093 
L 101.961206 -124.319729 
L 103.139899 -123.917726 
L 104.318593 -123.514924 
L 105.497286 -123.111328 
L 106.67598 -122.706944 
L 107.854673 -122.301778 
L 109.033367 -121.895838 
L 110.21206 -121.489131 
L 111.390754 -121.081665 
L 112.569447 -120.673452 
L 113.748141 -120.264501 
L 114.926834 -119.854823 
L 116.105528 -119.444431 
L 117.284221 -119.033339 
L 118.462915 -118.621559 
L 119.641608 -118.209108 
L 120.820302 -117.796 
L 121.998995 -117.382251 
L 123.177688 -116.967881 
L 124.356382 -116.552906 
L 125.535075 -116.137345 
L 126.713769 -115.721219 
L 127.892462 -115.304549 
L 129.071156 -114.887354 
L 130.249849 -114.469659 
L 131.428543 -114.051485 
L 132.607236 -113.632857 
L 133.78593 -113.213799 
L 134.964623 -112.794336 
L 136.143317 -112.374493 
L 137.32201 -111.954299 
L 138.500704 -111.533779 
L 139.679397 -111.112961 
L 140.85809 -110.691874 
L 142.036784 -110.270546 
L 143.215477 -109.849008 
L 144.394171 -109.427289 
L 145.572864 -109.005419 
L 146.751558 -108.58343 
L 147.930251 -108.161353 
L 149.108945 -107.73922 
L 150.287638 -107.317063 
L 151.466332 -106.894914 
L 152.645025 -106.472806 
L 153.823719 -106.050772 
L 155.002412 -105.628847 
L 156.181106 -105.207062 
L 157.359799 -104.785452 
L 158.538492 -104.364052 
L 159.717186 -103.942894 
L 160.895879 -103.522013 
L 162.074573 -103.101444 
L 163.253266 -102.68122 
L 164.43196 -102.261376 
L 165.610653 -101.841946 
L 166.789347 -101.422965 
L 167.96804 -101.004466 
L 169.146734 -100.586484 
L 170.325427 -100.169053 
L 171.504121 -99.752206 
L 172.682814 -99.335977 
L 173.861508 -98.920399 
L 175.040201 -98.505506 
L 176.218894 -98.091331 
L 177.397588 -97.677906 
L 178.576281 -97.265264 
L 179.754975 -96.853436 
L 180.933668 -96.442456 
L 182.112362 -96.032354 
L 183.291055 -95.623161 
L 184.469749 -95.214908 
L 185.648442 -94.807626 
L 186.827136 -94.401345 
L 188.005829 -93.996093 
L 189.184523 -93.591901 
L 190.363216 -93.188796 
L 191.54191 -92.786808 
L 192.720603 -92.385964 
L 193.899296 -91.98629 
L 195.07799 -91.587815 
L 196.256683 -91.190565 
L 197.435377 -90.794564 
L 198.61407 -90.39984 
L 199.792764 -90.006416 
L 200.971457 -89.614317 
L 202.150151 -89.223566 
L 203.328844 -88.834188 
L 204.507538 -88.446205 
L 205.686231 -88.059639 
L 206.864925 -87.674512 
L 208.043618 -87.290845 
L 209.222312 -86.908659 
L 210.401005 -86.527975 
L 211.579698 -86.148811 
L 212.758392 -85.771188 
L 213.937085 -85.395123 
L 215.115779 -85.020635 
L 216.294472 -84.647741 
L 217.473166 -84.276458 
L 218.651859 -83.906804 
L 219.830553 -83.538794 
L 221.009246 -83.172443 
L 222.18794 -82.807767 
L 223.366633 -82.444781 
L 224.545327 -82.083497 
L 225.72402 -81.723931 
L 226.902714 -81.366094 
L 228.081407 -81.01 
L 229.260101 -80.655661 
L 230.438794 -80.303088 
L 231.617487 -79.952292 
L 232.796181 -79.603285 
L 233.974874 -79.256076 
L 235.153568 -78.910675 
L 236.332261 -78.567092 
L 237.510955 -78.225336 
L 238.689648 -77.885415 
L 239.868342 -77.547338 
L 241.047035 -77.211111 
L 242.225729 -76.876743 
L 243.404422 -76.54424 
L 244.583116 -76.213609 
L 245.761809 -75.884855 
L 246.940503 -75.557985 
L 248.119196 -75.233003 
L 249.297889 -74.909916 
L 250.476583 -74.588726 
L 251.655276 -74.269439 
L 252.83397 -73.952059 
L 254.012663 -73.636588 
L 255.191357 -73.323031 
L 256.37005 -73.011389 
L 257.548744 -72.701667 
L 258.727437 -72.393864 
L 259.906131 -72.087985 
L 261.084824 -71.78403 
L 262.263518 -71.482 
L 263.442211 -71.181897 
L 264.620905 -70.883721 
L 265.799598 -70.587473 
L 266.978291 -70.293152 
L 268.156985 -70.000759 
L 269.335678 -69.710294 
L 270.514372 -69.421755 
L 271.693065 -69.135141 
L 272.871759 -68.850453 
L 274.050452 -68.567687 
L 275.229146 -68.286843 
L 276.407839 -68.007919 
L 277.586533 -67.730912 
L 278.765226 -67.45582 
L 279.94392 -67.182642 
L 281.122613 -66.911373 
L 282.301307 -66.642011 
L 283.48 -66.374553 
L 283.48 -107.310306 
L 283.48 -107.310306 
L 282.301307 -107.593786 
L 281.122613 -107.878322 
L 279.94392 -108.163922 
L 278.765226 -108.450591 
L 277.586533 -108.738339 
L 276.407839 -109.027172 
L 275.229146 -109.317099 
L 274.050452 -109.608128 
L 272.871759 -109.900266 
L 271.693065 -110.193523 
L 270.514372 -110.487907 
L 269.335678 -110.783427 
L 268.156985 -111.080092 
L 266.978291 -111.377911 
L 265.799598 -111.676893 
L 264.620905 -111.977049 
L 263.442211 -112.278388 
L 262.263518 -112.580921 
L 261.084824 -112.884657 
L 259.906131 -113.189608 
L 258.727437 -113.495784 
L 257.548744 -113.803197 
L 256.37005 -114.111858 
L 255.191357 -114.421778 
L 254.012663 -114.732969 
L 252.83397 -115.045444 
L 251.655276 -115.359215 
L 250.476583 -115.674295 
L 249.297889 -115.990697 
L 248.119196 -116.308434 
L 246.940503 -116.627519 
L 245.761809 -116.947968 
L 244.583116 -117.269793 
L 243.404422 -117.593009 
L 242.225729 -117.917632 
L 241.047035 -118.243676 
L 239.868342 -118.571157 
L 238.689648 -118.900091 
L 237.510955 -119.230494 
L 236.332261 -119.562382 
L 235.153568 -119.895772 
L 233.974874 -120.230682 
L 232.796181 -120.567129 
L 231.617487 -120.905131 
L 230.438794 -121.244706 
L 229.260101 -121.585874 
L 228.081407 -121.928652 
L 226.902714 -122.273061 
L 225.72402 -122.61912 
L 224.545327 -122.966849 
L 223.366633 -123.31627 
L 222.18794 -123.667403 
L 221.009246 -124.020269 
L 219.830553 -124.374891 
L 218.651859 -124.73129 
L 217.473166 -125.089489 
L 216.294472 -125.449511 
L 215.115779 -125.81138 
L 213.937085 -126.175119 
L 212.758392 -126.540753 
L 211.579698 -126.908306 
L 210.401005 -127.277804 
L 209.222312 -127.649272 
L 208.043618 -128.022735 
L 206.864925 -128.398221 
L 205.686231 -128.775756 
L 204.507538 -129.155368 
L 203.328844 -129.537083 
L 202.150151 -129.92093 
L 200.971457 -130.306937 
L 199.792764 -130.695134 
L 198.61407 -131.085549 
L 197.435377 -131.478211 
L 196.256683 -131.873152 
L 195.07799 -132.270402 
L 193.899296 -132.66999 
L 192.720603 -133.071949 
L 191.54191 -133.476309 
L 190.363216 -133.883104 
L 189.184523 -134.292364 
L 188.005829 -134.704122 
L 186.827136 -135.118412 
L 185.648442 -135.535266 
L 184.469749 -135.954718 
L 183.291055 -136.376802 
L 182.112362 -136.801551 
L 180.933668 -137.229 
L 179.754975 -137.659183 
L 178.576281 -138.092135 
L 177.397588 -138.527891 
L 176.218894 -138.966486 
L 175.040201 -139.407955 
L 173.861508 -139.852334 
L 172.682814 -140.299657 
L 171.504121 -140.749961 
L 170.325427 -141.203281 
L 169.146734 -141.659653 
L 167.96804 -142.119113 
L 166.789347 -142.581696 
L 165.610653 -143.047437 
L 164.43196 -143.516373 
L 163.253266 -143.98854 
L 162.074573 -144.463971 
L 160.895879 -144.942703 
L 159.717186 -145.424772 
L 158.538492 -145.91021 
L 157.359799 -146.399054 
L 156.181106 -146.891338 
L 155.002412 -147.387095 
L 153.823719 -147.88636 
L 152.645025 -148.389166 
L 151.466332 -148.895546 
L 150.287638 -149.405532 
L 149.108945 -149.919157 
L 147.930251 -150.436452 
L 146.751558 -150.957449 
L 145.572864 -151.482178 
L 144.394171 -152.010669 
L 143.215477 -152.542951 
L 142.036784 -153.079053 
L 140.85809 -153.619004 
L 139.679397 -154.162831 
L 138.500704 -154.710559 
L 137.32201 -155.262216 
L 136.143317 -155.817827 
L 134.964623 -156.377415 
L 133.78593 -156.941005 
L 132.607236 -157.508619 
L 131.428543 -158.080278 
L 130.249849 -158.656004 
L 129.071156 -159.235817 
L 127.892462 -159.819736 
L 126.713769 -160.407778 
L 125.535075 -160.999961 
L 124.356382 -161.596301 
L 123.177688 -162.196814 
L 121.998995 -162.801513 
L 120.820302 -163.410411 
L 119.641608 -164.023521 
L 118.462915 -164.640854 
L 117.284221 -165.262419 
L 116.105528 -165.888226 
L 114.926834 -166.518283 
L 113.748141 -167.152595 
L 112.569447 -167.79117 
L 111.390754 -168.434012 
L 110.21206 -169.081125 
L 109.033367 -169.73251 
L 107.854673 -170.38817 
L 106.67598 -171.048106 
L 105.497286 -171.712316 
L 104.318593 -172.380799 
L 103.139899 -173.053553 
L 101.961206 -173.730574 
L 100.782513 -174.411858 
L 99.603819 -175.097398 
L 98.425126 -175.787188 
L 97.246432 -176.481221 
L 96.067739 -177.179488 
L 94.889045 -177.881979 
L 93.710352 -178.588685 
L 92.531658 -179.299594 
L 91.352965 -180.014694 
L 90.174271 -180.733971 
L 88.995578 -181.457412 
L 87.816884 -182.185002 
L 86.638191 -182.916725 
L 85.459497 -183.652566 
L 84.280804 -184.392505 
L 83.102111 -185.136526 
L 81.923417 -185.884611 
L 80.744724 -186.636738 
L 79.56603 -187.392888 
L 78.387337 -188.15304 
L 77.208643 -188.917173 
L 76.02995 -189.685264 
L 74.851256 -190.457289 
L 73.672563 -191.233227 
L 72.493869 -192.013051 
L 71.315176 -192.796738 
L 70.136482 -193.584261 
L 68.957789 -194.375596 
L 67.779095 -195.170714 
L 66.600402 -195.96959 
L 65.421709 -196.772196 
L 64.243015 -197.578503 
L 63.064322 -198.388483 
L 61.885628 -199.202107 
L 60.706935 -200.019344 
L 59.528241 -200.840167 
L 58.349548 -201.664543 
L 57.170854 -202.492441 
L 55.992161 -203.323832 
L 54.813467 -204.158682 
L 53.634774 -204.996961 
L 52.45608 -205.838635 
L 51.277387 -206.683672 
L 50.098693 -207.532038 
L 48.92 -208.383701 
z
" style="stroke: #5e81ac; stroke-opacity: 0.15"/>
    </defs>
    <g clip-path="url(#pc5a2512d82)">
     <use xlink:href="#m0f49857e95" x="0" y="273.6" style="fill: #5e81ac; fill-opacity: 0.15; stroke: #5e81ac; stroke-opacity: 0.15"/>
    </g>
   </g>
   <g id="matplotlib.axis_1">
    <g id="xtick_1">
     <g id="line2d_1">
      <path d="M 66.294815 231.16 
L 66.294815 25.92 
" clip-path="url(#pc5a2512d82)" style="fill: none; stroke: #d8dee9; stroke-opacity: 0.4; stroke-width: 0.8; stroke-linecap: square"/>
     </g>
     <g id="line2d_2">
      <defs>
       <path id="mbf62936df1" d="M 0 0 
L 0 3.5 
" style="stroke: #434c5e; stroke-width: 0.8"/>
      </defs>
      <g>
       <use xlink:href="#mbf62936df1" x="66.294815" y="231.16" style="fill: #434c5e; stroke: #434c5e; stroke-width: 0.8"/>
      </g>
     </g>
     <g id="text_1">
      <!-- 20 -->
      <g style="fill: #434c5e" transform="translate(59.296065 246.518281) scale(0.11 -0.11)">
       <defs>
        <path id="DejaVuSans-32" d="M 1228 531 
L 3431 531 
L 3431 0 
L 469 0 
L 469 531 
Q 828 903 1448 1529 
Q 2069 2156 2228 2338 
Q 2531 2678 2651 2914 
Q 2772 3150 2772 3378 
Q 2772 3750 2511 3984 
Q 2250 4219 1831 4219 
Q 1534 4219 1204 4116 
Q 875 4013 500 3803 
L 500 4441 
Q 881 4594 1212 4672 
Q 1544 4750 1819 4750 
Q 2544 4750 2975 4387 
Q 3406 4025 3406 3419 
Q 3406 3131 3298 2873 
Q 3191 2616 2906 2266 
Q 2828 2175 2409 1742 
Q 1991 1309 1228 531 
z
" transform="scale(0.015625)"/>
        <path id="DejaVuSans-30" d="M 2034 4250 
Q 1547 4250 1301 3770 
Q 1056 3291 1056 2328 
Q 1056 1369 1301 889 
Q 1547 409 2034 409 
Q 2525 409 2770 889 
Q 3016 1369 3016 2328 
Q 3016 3291 2770 3770 
Q 2525 4250 2034 4250 
z
M 2034 4750 
Q 2819 4750 3233 4129 
Q 3647 3509 3647 2328 
Q 3647 1150 3233 529 
Q 2819 -91 2034 -91 
Q 1250 -91 836 529 
Q 422 1150 422 2328 
Q 422 3509 836 4129 
Q 1250 4750 2034 4750 
z
" transform="scale(0.015625)"/>
       </defs>
       <use xlink:href="#DejaVuSans-32"/>
       <use xlink:href="#DejaVuSans-30" transform="translate(63.623047 0)"/>
      </g>
     </g>
    </g>
    <g id="xtick_2">
     <g id="line2d_3">
      <path d="M 109.731852 231.16 
L 109.731852 25.92 
" clip-path="url(#pc5a2512d82)" style="fill: none; stroke: #d8dee9; stroke-opacity: 0.4; stroke-width: 0.8; stroke-linecap: square"/>
     </g>
     <g id="line2d_4">
      <g>
       <use xlink:href="#mbf62936df1" x="109.731852" y="231.16" style="fill: #434c5e; stroke: #434c5e; stroke-width: 0.8"/>
      </g>
     </g>
     <g id="text_2">
      <!-- 25 -->
      <g style="fill: #434c5e" transform="translate(102.733102 246.518281) scale(0.11 -0.11)">
       <defs>
        <path id="DejaVuSans-35" d="M 691 4666 
L 3169 4666 
L 3169 4134 
L 1269 4134 
L 1269 2991 
Q 1406 3038 1543 3061 
Q 1681 3084 1819 3084 
Q 2600 3084 3056 2656 
Q 3513 2228 3513 1497 
Q 3513 744 3044 326 
Q 2575 -91 1722 -91 
Q 1428 -91 1123 -41 
Q 819 9 494 109 
L 494 744 
Q 775 591 1075 516 
Q 1375 441 1709 441 
Q 2250 441 2565 725 
Q 2881 1009 2881 1497 
Q 2881 1984 2565 2268 
Q 2250 2553 1709 2553 
Q 1456 2553 1204 2497 
Q 953 2441 691 2322 
L 691 4666 
z
" transform="scale(0.015625)"/>
       </defs>
       <use xlink:href="#DejaVuSans-32"/>
       <use xlink:href="#DejaVuSans-35" transform="translate(63.623047 0)"/>
      </g>
     </g>
    </g>
    <g id="xtick_3">
     <g id="line2d_5">
      <path d="M 153.168889 231.16 
L 153.168889 25.92 
" clip-path="url(#pc5a2512d82)" style="fill: none; stroke: #d8dee9; stroke-opacity: 0.4; stroke-width: 0.8; stroke-linecap: square"/>
     </g>
     <g id="line2d_6">
      <g>
       <use xlink:href="#mbf62936df1" x="153.168889" y="231.16" style="fill: #434c5e; stroke: #434c5e; stroke-width: 0.8"/>
      </g>
     </g>
     <g id="text_3">
      <!-- 30 -->
      <g style="fill: #434c5e" transform="translate(146.170139 246.518281) scale(0.11 -0.11)">
       <defs>
        <path id="DejaVuSans-33" d="M 2597 2516 
Q 3050 2419 3304 2112 
Q 3559 1806 3559 1356 
Q 3559 666 3084 287 
Q 2609 -91 1734 -91 
Q 1441 -91 1130 -33 
Q 819 25 488 141 
L 488 750 
Q 750 597 1062 519 
Q 1375 441 1716 441 
Q 2309 441 2620 675 
Q 2931 909 2931 1356 
Q 2931 1769 2642 2001 
Q 2353 2234 1838 2234 
L 1294 2234 
L 1294 2753 
L 1863 2753 
Q 2328 2753 2575 2939 
Q 2822 3125 2822 3475 
Q 2822 3834 2567 4026 
Q 2313 4219 1838 4219 
Q 1578 4219 1281 4162 
Q 984 4106 628 3988 
L 628 4550 
Q 988 4650 1302 4700 
Q 1616 4750 1894 4750 
Q 2613 4750 3031 4423 
Q 3450 4097 3450 3541 
Q 3450 3153 3228 2886 
Q 3006 2619 2597 2516 
z
" transform="scale(0.015625)"/>
       </defs>
       <use xlink:href="#DejaVuSans-33"/>
       <use xlink:href="#DejaVuSans-30" transform="translate(63.623047 0)"/>
      </g>
     </g>
    </g>
    <g id="xtick_4">
     <g id="line2d_7">
      <path d="M 196.605926 231.16 
L 196.605926 25.92 
" clip-path="url(#pc5a2512d82)" style="fill: none; stroke: #d8dee9; stroke-opacity: 0.4; stroke-width: 0.8; stroke-linecap: square"/>
     </g>
     <g id="line2d_8">
      <g>
       <use xlink:href="#mbf62936df1" x="196.605926" y="231.16" style="fill: #434c5e; stroke: #434c5e; stroke-width: 0.8"/>
      </g>
     </g>
     <g id="text_4">
      <!-- 35 -->
      <g style="fill: #434c5e" transform="translate(189.607176 246.518281) scale(0.11 -0.11)">
       <use xlink:href="#DejaVuSans-33"/>
       <use xlink:href="#DejaVuSans-35" transform="translate(63.623047 0)"/>
      </g>
     </g>
    </g>
    <g id="xtick_5">
     <g id="line2d_9">
      <path d="M 240.042963 231.16 
L 240.042963 25.92 
" clip-path="url(#pc5a2512d82)" style="fill: none; stroke: #d8dee9; stroke-opacity: 0.4; stroke-width: 0.8; stroke-linecap: square"/>
     </g>
     <g id="line2d_10">
      <g>
       <use xlink:href="#mbf62936df1" x="240.042963" y="231.16" style="fill: #434c5e; stroke: #434c5e; stroke-width: 0.8"/>
      </g>
     </g>
     <g id="text_5">
      <!-- 40 -->
      <g style="fill: #434c5e" transform="translate(233.044213 246.518281) scale(0.11 -0.11)">
       <defs>
        <path id="DejaVuSans-34" d="M 2419 4116 
L 825 1625 
L 2419 1625 
L 2419 4116 
z
M 2253 4666 
L 3047 4666 
L 3047 1625 
L 3713 1625 
L 3713 1100 
L 3047 1100 
L 3047 0 
L 2419 0 
L 2419 1100 
L 313 1100 
L 313 1709 
L 2253 4666 
z
" transform="scale(0.015625)"/>
       </defs>
       <use xlink:href="#DejaVuSans-34"/>
       <use xlink:href="#DejaVuSans-30" transform="translate(63.623047 0)"/>
      </g>
     </g>
    </g>
    <g id="xtick_6">
     <g id="line2d_11">
      <path d="M 283.48 231.16 
L 283.48 25.92 
" clip-path="url(#pc5a2512d82)" style="fill: none; stroke: #d8dee9; stroke-opacity: 0.4; stroke-width: 0.8; stroke-linecap: square"/>
     </g>
     <g id="line2d_12">
      <g>
       <use xlink:href="#mbf62936df1" x="283.48" y="231.16" style="fill: #434c5e; stroke: #434c5e; stroke-width: 0.8"/>
      </g>
     </g>
     <g id="text_6">
      <!-- 45 -->
      <g style="fill: #434c5e" transform="translate(276.48125 246.518281) scale(0.11 -0.11)">
       <use xlink:href="#DejaVuSans-34"/>
       <use xlink:href="#DejaVuSans-35" transform="translate(63.623047 0)"/>
      </g>
     </g>
    </g>
    <g id="text_7">
     <!-- BMI (kg/m²) -->
     <g style="fill: #434c5e" transform="translate(136.860937 260.404375) scale(0.1 -0.1)">
      <defs>
       <path id="DejaVuSans-42" d="M 1259 2228 
L 1259 519 
L 2272 519 
Q 2781 519 3026 730 
Q 3272 941 3272 1375 
Q 3272 1813 3026 2020 
Q 2781 2228 2272 2228 
L 1259 2228 
z
M 1259 4147 
L 1259 2741 
L 2194 2741 
Q 2656 2741 2882 2914 
Q 3109 3088 3109 3444 
Q 3109 3797 2882 3972 
Q 2656 4147 2194 4147 
L 1259 4147 
z
M 628 4666 
L 2241 4666 
Q 2963 4666 3353 4366 
Q 3744 4066 3744 3513 
Q 3744 3084 3544 2831 
Q 3344 2578 2956 2516 
Q 3422 2416 3680 2098 
Q 3938 1781 3938 1306 
Q 3938 681 3513 340 
Q 3088 0 2303 0 
L 628 0 
L 628 4666 
z
" transform="scale(0.015625)"/>
       <path id="DejaVuSans-4d" d="M 628 4666 
L 1569 4666 
L 2759 1491 
L 3956 4666 
L 4897 4666 
L 4897 0 
L 4281 0 
L 4281 4097 
L 3078 897 
L 2444 897 
L 1241 4097 
L 1241 0 
L 628 0 
L 628 4666 
z
" transform="scale(0.015625)"/>
       <path id="DejaVuSans-49" d="M 628 4666 
L 1259 4666 
L 1259 0 
L 628 0 
L 628 4666 
z
" transform="scale(0.015625)"/>
       <path id="DejaVuSans-20" transform="scale(0.015625)"/>
       <path id="DejaVuSans-28" d="M 1984 4856 
Q 1566 4138 1362 3434 
Q 1159 2731 1159 2009 
Q 1159 1288 1364 580 
Q 1569 -128 1984 -844 
L 1484 -844 
Q 1016 -109 783 600 
Q 550 1309 550 2009 
Q 550 2706 781 3412 
Q 1013 4119 1484 4856 
L 1984 4856 
z
" transform="scale(0.015625)"/>
       <path id="DejaVuSans-6b" d="M 581 4863 
L 1159 4863 
L 1159 1991 
L 2875 3500 
L 3609 3500 
L 1753 1863 
L 3688 0 
L 2938 0 
L 1159 1709 
L 1159 0 
L 581 0 
L 581 4863 
z
" transform="scale(0.015625)"/>
       <path id="DejaVuSans-67" d="M 2906 1791 
Q 2906 2416 2648 2759 
Q 2391 3103 1925 3103 
Q 1463 3103 1205 2759 
Q 947 2416 947 1791 
Q 947 1169 1205 825 
Q 1463 481 1925 481 
Q 2391 481 2648 825 
Q 2906 1169 2906 1791 
z
M 3481 434 
Q 3481 -459 3084 -895 
Q 2688 -1331 1869 -1331 
Q 1566 -1331 1297 -1286 
Q 1028 -1241 775 -1147 
L 775 -588 
Q 1028 -725 1275 -790 
Q 1522 -856 1778 -856 
Q 2344 -856 2625 -561 
Q 2906 -266 2906 331 
L 2906 616 
Q 2728 306 2450 153 
Q 2172 0 1784 0 
Q 1141 0 747 490 
Q 353 981 353 1791 
Q 353 2603 747 3093 
Q 1141 3584 1784 3584 
Q 2172 3584 2450 3431 
Q 2728 3278 2906 2969 
L 2906 3500 
L 3481 3500 
L 3481 434 
z
" transform="scale(0.015625)"/>
       <path id="DejaVuSans-2f" d="M 1625 4666 
L 2156 4666 
L 531 -594 
L 0 -594 
L 1625 4666 
z
" transform="scale(0.015625)"/>
       <path id="DejaVuSans-6d" d="M 3328 2828 
Q 3544 3216 3844 3400 
Q 4144 3584 4550 3584 
Q 5097 3584 5394 3201 
Q 5691 2819 5691 2113 
L 5691 0 
L 5113 0 
L 5113 2094 
Q 5113 2597 4934 2840 
Q 4756 3084 4391 3084 
Q 3944 3084 3684 2787 
Q 3425 2491 3425 1978 
L 3425 0 
L 2847 0 
L 2847 2094 
Q 2847 2600 2669 2842 
Q 2491 3084 2119 3084 
Q 1678 3084 1418 2786 
Q 1159 2488 1159 1978 
L 1159 0 
L 581 0 
L 581 3500 
L 1159 3500 
L 1159 2956 
Q 1356 3278 1631 3431 
Q 1906 3584 2284 3584 
Q 2666 3584 2933 3390 
Q 3200 3197 3328 2828 
z
" transform="scale(0.015625)"/>
       <path id="DejaVuSans-b2" d="M 838 2444 
L 2163 2444 
L 2163 2088 
L 294 2088 
L 294 2431 
Q 400 2528 597 2703 
Q 1672 3656 1672 3950 
Q 1672 4156 1509 4282 
Q 1347 4409 1081 4409 
Q 919 4409 728 4354 
Q 538 4300 313 4191 
L 313 4575 
Q 553 4663 761 4706 
Q 969 4750 1147 4750 
Q 1600 4750 1872 4544 
Q 2144 4338 2144 4000 
Q 2144 3566 1109 2678 
Q 934 2528 838 2444 
z
" transform="scale(0.015625)"/>
       <path id="DejaVuSans-29" d="M 513 4856 
L 1013 4856 
Q 1481 4119 1714 3412 
Q 1947 2706 1947 2009 
Q 1947 1309 1714 600 
Q 1481 -109 1013 -844 
L 513 -844 
Q 928 -128 1133 580 
Q 1338 1288 1338 2009 
Q 1338 2731 1133 3434 
Q 928 4138 513 4856 
z
" transform="scale(0.015625)"/>
      </defs>
      <use xlink:href="#DejaVuSans-42"/>
      <use xlink:href="#DejaVuSans-4d" transform="translate(68.603516 0)"/>
      <use xlink:href="#DejaVuSans-49" transform="translate(154.882812 0)"/>
      <use xlink:href="#DejaVuSans-20" transform="translate(184.375 0)"/>
      <use xlink:href="#DejaVuSans-28" transform="translate(216.162109 0)"/>
      <use xlink:href="#DejaVuSans-6b" transform="translate(255.175781 0)"/>
      <use xlink:href="#DejaVuSans-67" transform="translate(313.085938 0)"/>
      <use xlink:href="#DejaVuSans-2f" transform="translate(376.5625 0)"/>
      <use xlink:href="#DejaVuSans-6d" transform="translate(410.253906 0)"/>
      <use xlink:href="#DejaVuSans-b2" transform="translate(507.666016 0)"/>
      <use xlink:href="#DejaVuSans-29" transform="translate(547.753906 0)"/>
     </g>
    </g>
   </g>
   <g id="matplotlib.axis_2">
    <g id="ytick_1">
     <g id="line2d_13">
      <path d="M 48.92 231.16 
L 283.48 231.16 
" clip-path="url(#pc5a2512d82)" style="fill: none; stroke: #d8dee9; stroke-opacity: 0.4; stroke-width: 0.8; stroke-linecap: square"/>
     </g>
     <g id="line2d_14">
      <defs>
       <path id="m06f56d8801" d="M 0 0 
L -3.5 0 
" style="stroke: #434c5e; stroke-width: 0.8"/>
      </defs>
      <g>
       <use xlink:href="#m06f56d8801" x="48.92" y="231.16" style="fill: #434c5e; stroke: #434c5e; stroke-width: 0.8"/>
      </g>
     </g>
     <g id="text_8">
      <!-- 0.0 -->
      <g style="fill: #434c5e" transform="translate(24.426563 235.339141) scale(0.11 -0.11)">
       <defs>
        <path id="DejaVuSans-2e" d="M 684 794 
L 1344 794 
L 1344 0 
L 684 0 
L 684 794 
z
" transform="scale(0.015625)"/>
       </defs>
       <use xlink:href="#DejaVuSans-30"/>
       <use xlink:href="#DejaVuSans-2e" transform="translate(63.623047 0)"/>
       <use xlink:href="#DejaVuSans-30" transform="translate(95.410156 0)"/>
      </g>
     </g>
    </g>
    <g id="ytick_2">
     <g id="line2d_15">
      <path d="M 48.92 190.112 
L 283.48 190.112 
" clip-path="url(#pc5a2512d82)" style="fill: none; stroke: #d8dee9; stroke-opacity: 0.4; stroke-width: 0.8; stroke-linecap: square"/>
     </g>
     <g id="line2d_16">
      <g>
       <use xlink:href="#m06f56d8801" x="48.92" y="190.112" style="fill: #434c5e; stroke: #434c5e; stroke-width: 0.8"/>
      </g>
     </g>
     <g id="text_9">
      <!-- 0.1 -->
      <g style="fill: #434c5e" transform="translate(24.426563 194.291141) scale(0.11 -0.11)">
       <defs>
        <path id="DejaVuSans-31" d="M 794 531 
L 1825 531 
L 1825 4091 
L 703 3866 
L 703 4441 
L 1819 4666 
L 2450 4666 
L 2450 531 
L 3481 531 
L 3481 0 
L 794 0 
L 794 531 
z
" transform="scale(0.015625)"/>
       </defs>
       <use xlink:href="#DejaVuSans-30"/>
       <use xlink:href="#DejaVuSans-2e" transform="translate(63.623047 0)"/>
       <use xlink:href="#DejaVuSans-31" transform="translate(95.410156 0)"/>
      </g>
     </g>
    </g>
    <g id="ytick_3">
     <g id="line2d_17">
      <path d="M 48.92 149.064 
L 283.48 149.064 
" clip-path="url(#pc5a2512d82)" style="fill: none; stroke: #d8dee9; stroke-opacity: 0.4; stroke-width: 0.8; stroke-linecap: square"/>
     </g>
     <g id="line2d_18">
      <g>
       <use xlink:href="#m06f56d8801" x="48.92" y="149.064" style="fill: #434c5e; stroke: #434c5e; stroke-width: 0.8"/>
      </g>
     </g>
     <g id="text_10">
      <!-- 0.2 -->
      <g style="fill: #434c5e" transform="translate(24.426563 153.243141) scale(0.11 -0.11)">
       <use xlink:href="#DejaVuSans-30"/>
       <use xlink:href="#DejaVuSans-2e" transform="translate(63.623047 0)"/>
       <use xlink:href="#DejaVuSans-32" transform="translate(95.410156 0)"/>
      </g>
     </g>
    </g>
    <g id="ytick_4">
     <g id="line2d_19">
      <path d="M 48.92 108.016 
L 283.48 108.016 
" clip-path="url(#pc5a2512d82)" style="fill: none; stroke: #d8dee9; stroke-opacity: 0.4; stroke-width: 0.8; stroke-linecap: square"/>
     </g>
     <g id="line2d_20">
      <g>
       <use xlink:href="#m06f56d8801" x="48.92" y="108.016" style="fill: #434c5e; stroke: #434c5e; stroke-width: 0.8"/>
      </g>
     </g>
     <g id="text_11">
      <!-- 0.3 -->
      <g style="fill: #434c5e" transform="translate(24.426563 112.195141) scale(0.11 -0.11)">
       <use xlink:href="#DejaVuSans-30"/>
       <use xlink:href="#DejaVuSans-2e" transform="translate(63.623047 0)"/>
       <use xlink:href="#DejaVuSans-33" transform="translate(95.410156 0)"/>
      </g>
     </g>
    </g>
    <g id="ytick_5">
     <g id="line2d_21">
      <path d="M 48.92 66.968 
L 283.48 66.968 
" clip-path="url(#pc5a2512d82)" style="fill: none; stroke: #d8dee9; stroke-opacity: 0.4; stroke-width: 0.8; stroke-linecap: square"/>
     </g>
     <g id="line2d_22">
      <g>
       <use xlink:href="#m06f56d8801" x="48.92" y="66.968" style="fill: #434c5e; stroke: #434c5e; stroke-width: 0.8"/>
      </g>
     </g>
     <g id="text_12">
      <!-- 0.4 -->
      <g style="fill: #434c5e" transform="translate(24.426563 71.147141) scale(0.11 -0.11)">
       <use xlink:href="#DejaVuSans-30"/>
       <use xlink:href="#DejaVuSans-2e" transform="translate(63.623047 0)"/>
       <use xlink:href="#DejaVuSans-34" transform="translate(95.410156 0)"/>
      </g>
     </g>
    </g>
    <g id="ytick_6">
     <g id="line2d_23">
      <path d="M 48.92 25.92 
L 283.48 25.92 
" clip-path="url(#pc5a2512d82)" style="fill: none; stroke: #d8dee9; stroke-opacity: 0.4; stroke-width: 0.8; stroke-linecap: square"/>
     </g>
     <g id="line2d_24">
      <g>
       <use xlink:href="#m06f56d8801" x="48.92" y="25.92" style="fill: #434c5e; stroke: #434c5e; stroke-width: 0.8"/>
      </g>
     </g>
     <g id="text_13">
      <!-- 0.5 -->
      <g style="fill: #434c5e" transform="translate(24.426563 30.099141) scale(0.11 -0.11)">
       <use xlink:href="#DejaVuSans-30"/>
       <use xlink:href="#DejaVuSans-2e" transform="translate(63.623047 0)"/>
       <use xlink:href="#DejaVuSans-35" transform="translate(95.410156 0)"/>
      </g>
     </g>
    </g>
    <g id="text_14">
     <!-- Probabilité BP -->
     <g style="fill: #434c5e" transform="translate(18.346875 163.120469) rotate(-90) scale(0.1 -0.1)">
      <defs>
       <path id="DejaVuSans-50" d="M 1259 4147 
L 1259 2394 
L 2053 2394 
Q 2494 2394 2734 2622 
Q 2975 2850 2975 3272 
Q 2975 3691 2734 3919 
Q 2494 4147 2053 4147 
L 1259 4147 
z
M 628 4666 
L 2053 4666 
Q 2838 4666 3239 4311 
Q 3641 3956 3641 3272 
Q 3641 2581 3239 2228 
Q 2838 1875 2053 1875 
L 1259 1875 
L 1259 0 
L 628 0 
L 628 4666 
z
" transform="scale(0.015625)"/>
       <path id="DejaVuSans-72" d="M 2631 2963 
Q 2534 3019 2420 3045 
Q 2306 3072 2169 3072 
Q 1681 3072 1420 2755 
Q 1159 2438 1159 1844 
L 1159 0 
L 581 0 
L 581 3500 
L 1159 3500 
L 1159 2956 
Q 1341 3275 1631 3429 
Q 1922 3584 2338 3584 
Q 2397 3584 2469 3576 
Q 2541 3569 2628 3553 
L 2631 2963 
z
" transform="scale(0.015625)"/>
       <path id="DejaVuSans-6f" d="M 1959 3097 
Q 1497 3097 1228 2736 
Q 959 2375 959 1747 
Q 959 1119 1226 758 
Q 1494 397 1959 397 
Q 2419 397 2687 759 
Q 2956 1122 2956 1747 
Q 2956 2369 2687 2733 
Q 2419 3097 1959 3097 
z
M 1959 3584 
Q 2709 3584 3137 3096 
Q 3566 2609 3566 1747 
Q 3566 888 3137 398 
Q 2709 -91 1959 -91 
Q 1206 -91 779 398 
Q 353 888 353 1747 
Q 353 2609 779 3096 
Q 1206 3584 1959 3584 
z
" transform="scale(0.015625)"/>
       <path id="DejaVuSans-62" d="M 3116 1747 
Q 3116 2381 2855 2742 
Q 2594 3103 2138 3103 
Q 1681 3103 1420 2742 
Q 1159 2381 1159 1747 
Q 1159 1113 1420 752 
Q 1681 391 2138 391 
Q 2594 391 2855 752 
Q 3116 1113 3116 1747 
z
M 1159 2969 
Q 1341 3281 1617 3432 
Q 1894 3584 2278 3584 
Q 2916 3584 3314 3078 
Q 3713 2572 3713 1747 
Q 3713 922 3314 415 
Q 2916 -91 2278 -91 
Q 1894 -91 1617 61 
Q 1341 213 1159 525 
L 1159 0 
L 581 0 
L 581 4863 
L 1159 4863 
L 1159 2969 
z
" transform="scale(0.015625)"/>
       <path id="DejaVuSans-61" d="M 2194 1759 
Q 1497 1759 1228 1600 
Q 959 1441 959 1056 
Q 959 750 1161 570 
Q 1363 391 1709 391 
Q 2188 391 2477 730 
Q 2766 1069 2766 1631 
L 2766 1759 
L 2194 1759 
z
M 3341 1997 
L 3341 0 
L 2766 0 
L 2766 531 
Q 2569 213 2275 61 
Q 1981 -91 1556 -91 
Q 1019 -91 701 211 
Q 384 513 384 1019 
Q 384 1609 779 1909 
Q 1175 2209 1959 2209 
L 2766 2209 
L 2766 2266 
Q 2766 2663 2505 2880 
Q 2244 3097 1772 3097 
Q 1472 3097 1187 3025 
Q 903 2953 641 2809 
L 641 3341 
Q 956 3463 1253 3523 
Q 1550 3584 1831 3584 
Q 2591 3584 2966 3190 
Q 3341 2797 3341 1997 
z
" transform="scale(0.015625)"/>
       <path id="DejaVuSans-69" d="M 603 3500 
L 1178 3500 
L 1178 0 
L 603 0 
L 603 3500 
z
M 603 4863 
L 1178 4863 
L 1178 4134 
L 603 4134 
L 603 4863 
z
" transform="scale(0.015625)"/>
       <path id="DejaVuSans-6c" d="M 603 4863 
L 1178 4863 
L 1178 0 
L 603 0 
L 603 4863 
z
" transform="scale(0.015625)"/>
       <path id="DejaVuSans-74" d="M 1172 4494 
L 1172 3500 
L 2356 3500 
L 2356 3053 
L 1172 3053 
L 1172 1153 
Q 1172 725 1289 603 
Q 1406 481 1766 481 
L 2356 481 
L 2356 0 
L 1766 0 
Q 1100 0 847 248 
Q 594 497 594 1153 
L 594 3053 
L 172 3053 
L 172 3500 
L 594 3500 
L 594 4494 
L 1172 4494 
z
" transform="scale(0.015625)"/>
       <path id="DejaVuSans-e9" d="M 3597 1894 
L 3597 1613 
L 953 1613 
Q 991 1019 1311 708 
Q 1631 397 2203 397 
Q 2534 397 2845 478 
Q 3156 559 3463 722 
L 3463 178 
Q 3153 47 2828 -22 
Q 2503 -91 2169 -91 
Q 1331 -91 842 396 
Q 353 884 353 1716 
Q 353 2575 817 3079 
Q 1281 3584 2069 3584 
Q 2775 3584 3186 3129 
Q 3597 2675 3597 1894 
z
M 3022 2063 
Q 3016 2534 2758 2815 
Q 2500 3097 2075 3097 
Q 1594 3097 1305 2825 
Q 1016 2553 972 2059 
L 3022 2063 
z
M 2466 5119 
L 3088 5119 
L 2070 3944 
L 1591 3944 
L 2466 5119 
z
" transform="scale(0.015625)"/>
      </defs>
      <use xlink:href="#DejaVuSans-50"/>
      <use xlink:href="#DejaVuSans-72" transform="translate(58.552734 0)"/>
      <use xlink:href="#DejaVuSans-6f" transform="translate(97.416016 0)"/>
      <use xlink:href="#DejaVuSans-62" transform="translate(158.597656 0)"/>
      <use xlink:href="#DejaVuSans-61" transform="translate(222.074219 0)"/>
      <use xlink:href="#DejaVuSans-62" transform="translate(283.353516 0)"/>
      <use xlink:href="#DejaVuSans-69" transform="translate(346.830078 0)"/>
      <use xlink:href="#DejaVuSans-6c" transform="translate(374.613281 0)"/>
      <use xlink:href="#DejaVuSans-69" transform="translate(402.396484 0)"/>
      <use xlink:href="#DejaVuSans-74" transform="translate(430.179688 0)"/>
      <use xlink:href="#DejaVuSans-e9" transform="translate(469.388672 0)"/>
      <use xlink:href="#DejaVuSans-20" transform="translate(530.912109 0)"/>
      <use xlink:href="#DejaVuSans-42" transform="translate(562.699219 0)"/>
      <use xlink:href="#DejaVuSans-50" transform="translate(631.302734 0)"/>
     </g>
    </g>
   </g>
   <g id="line2d_25">
    <path d="M 48.92 98.589441 
L 64.243015 106.425046 
L 79.56603 114.000881 
L 93.710352 120.750073 
L 107.854673 127.255026 
L 121.998995 133.508118 
L 136.143317 139.50384 
L 150.287638 145.238703 
L 163.253266 150.26512 
L 176.218894 155.071092 
L 189.184523 159.657868 
L 202.150151 164.027752 
L 216.294472 168.551374 
L 230.438794 172.826103 
L 244.583116 176.858299 
L 258.727437 180.655176 
L 272.871759 184.22464 
L 283.48 186.75757 
L 283.48 186.75757 
" clip-path="url(#pc5a2512d82)" style="fill: none; stroke: #5e81ac; stroke-width: 1.5; stroke-linecap: square"/>
   </g>
   <g id="patch_3">
    <path d="M 48.92 231.16 
L 48.92 25.92 
" style="fill: none; stroke: #434c5e; stroke-width: 0.8; stroke-linejoin: miter; stroke-linecap: square"/>
   </g>
   <g id="patch_4">
    <path d="M 283.48 231.16 
L 283.48 25.92 
" style="fill: none; stroke: #434c5e; stroke-width: 0.8; stroke-linejoin: miter; stroke-linecap: square"/>
   </g>
   <g id="patch_5">
    <path d="M 48.92 231.16 
L 283.48 231.16 
" style="fill: none; stroke: #434c5e; stroke-width: 0.8; stroke-linejoin: miter; stroke-linecap: square"/>
   </g>
   <g id="patch_6">
    <path d="M 48.92 25.92 
L 283.48 25.92 
" style="fill: none; stroke: #434c5e; stroke-width: 0.8; stroke-linejoin: miter; stroke-linecap: square"/>
   </g>
   <g id="text_15">
    <!-- Low -->
    <g style="fill: #4c566a" transform="translate(154.38375 19.92) scale(0.12 -0.12)">
     <defs>
      <path id="DejaVuSans-4c" d="M 628 4666 
L 1259 4666 
L 1259 531 
L 3531 531 
L 3531 0 
L 628 0 
L 628 4666 
z
" transform="scale(0.015625)"/>
      <path id="DejaVuSans-77" d="M 269 3500 
L 844 3500 
L 1563 769 
L 2278 3500 
L 2956 3500 
L 3675 769 
L 4391 3500 
L 4966 3500 
L 4050 0 
L 3372 0 
L 2619 2869 
L 1863 0 
L 1184 0 
L 269 3500 
z
" transform="scale(0.015625)"/>
     </defs>
     <use xlink:href="#DejaVuSans-4c"/>
     <use xlink:href="#DejaVuSans-6f" transform="translate(53.962891 0)"/>
     <use xlink:href="#DejaVuSans-77" transform="translate(115.144531 0)"/>
    </g>
   </g>
  </g>
  <g id="axes_2">
   <g id="patch_7">
    <path d="M 297.78 231.16 
L 532.34 231.16 
L 532.34 25.92 
L 297.78 25.92 
z
" style="fill: #ffffff"/>
   </g>
   <g id="FillBetweenPolyCollection_2">
    <defs>
     <path id="mafb85ef5c0" d="M 297.78 -212.246426 
L 297.78 -148.136465 
L 298.958693 -147.782693 
L 300.137387 -147.428543 
L 301.31608 -147.074002 
L 302.494774 -146.719059 
L 303.673467 -146.363701 
L 304.852161 -146.007914 
L 306.030854 -145.651688 
L 307.209548 -145.295009 
L 308.388241 -144.937866 
L 309.566935 -144.580247 
L 310.745628 -144.222139 
L 311.924322 -143.86353 
L 313.103015 -143.504411 
L 314.281709 -143.144767 
L 315.460402 -142.78459 
L 316.639095 -142.423866 
L 317.817789 -142.062586 
L 318.996482 -141.700739 
L 320.175176 -141.338313 
L 321.353869 -140.9753 
L 322.532563 -140.611687 
L 323.711256 -140.247466 
L 324.88995 -139.882628 
L 326.068643 -139.517162 
L 327.247337 -139.151059 
L 328.42603 -138.784311 
L 329.604724 -138.416909 
L 330.783417 -138.048844 
L 331.962111 -137.68011 
L 333.140804 -137.310698 
L 334.319497 -136.940601 
L 335.498191 -136.569812 
L 336.676884 -136.198325 
L 337.855578 -135.826134 
L 339.034271 -135.453233 
L 340.212965 -135.079616 
L 341.391658 -134.705279 
L 342.570352 -134.330217 
L 343.749045 -133.954426 
L 344.927739 -133.577904 
L 346.106432 -133.200646 
L 347.285126 -132.82265 
L 348.463819 -132.443915 
L 349.642513 -132.064438 
L 350.821206 -131.684218 
L 351.999899 -131.303256 
L 353.178593 -130.921552 
L 354.357286 -130.539105 
L 355.53598 -130.155917 
L 356.714673 -129.77199 
L 357.893367 -129.387327 
L 359.07206 -129.00193 
L 360.250754 -128.615803 
L 361.429447 -128.22895 
L 362.608141 -127.841376 
L 363.786834 -127.453087 
L 364.965528 -127.064088 
L 366.144221 -126.674387 
L 367.322915 -126.283991 
L 368.501608 -125.892907 
L 369.680302 -125.501145 
L 370.858995 -125.108714 
L 372.037688 -124.715623 
L 373.216382 -124.321884 
L 374.395075 -123.927508 
L 375.573769 -123.532507 
L 376.752462 -123.136893 
L 377.931156 -122.74068 
L 379.109849 -122.343882 
L 380.288543 -121.946512 
L 381.467236 -121.548587 
L 382.64593 -121.150122 
L 383.824623 -120.751134 
L 385.003317 -120.351639 
L 386.18201 -119.951656 
L 387.360704 -119.551201 
L 388.539397 -119.150295 
L 389.71809 -118.748956 
L 390.896784 -118.347205 
L 392.075477 -117.945061 
L 393.254171 -117.542546 
L 394.432864 -117.139681 
L 395.611558 -116.736488 
L 396.790251 -116.33299 
L 397.968945 -115.929209 
L 399.147638 -115.525168 
L 400.326332 -115.120892 
L 401.505025 -114.716405 
L 402.683719 -114.31173 
L 403.862412 -113.906893 
L 405.041106 -113.501918 
L 406.219799 -113.096833 
L 407.398492 -112.691661 
L 408.577186 -112.28643 
L 409.755879 -111.881165 
L 410.934573 -111.475894 
L 412.113266 -111.070642 
L 413.29196 -110.665437 
L 414.470653 -110.260307 
L 415.649347 -109.855278 
L 416.82804 -109.450377 
L 418.006734 -109.045633 
L 419.185427 -108.641073 
L 420.364121 -108.236724 
L 421.542814 -107.832614 
L 422.721508 -107.428772 
L 423.900201 -107.025224 
L 425.078894 -106.621998 
L 426.257588 -106.219123 
L 427.436281 -105.816625 
L 428.614975 -105.414533 
L 429.793668 -105.012874 
L 430.972362 -104.611674 
L 432.151055 -104.210963 
L 433.329749 -103.810765 
L 434.508442 -103.411109 
L 435.687136 -103.012022 
L 436.865829 -102.613529 
L 438.044523 -102.215657 
L 439.223216 -101.818433 
L 440.40191 -101.421882 
L 441.580603 -101.02603 
L 442.759296 -100.630902 
L 443.93799 -100.236524 
L 445.116683 -99.842921 
L 446.295377 -99.450117 
L 447.47407 -99.058136 
L 448.652764 -98.667003 
L 449.831457 -98.276741 
L 451.010151 -97.887374 
L 452.188844 -97.498925 
L 453.367538 -97.111416 
L 454.546231 -96.72487 
L 455.724925 -96.339309 
L 456.903618 -95.954755 
L 458.082312 -95.571228 
L 459.261005 -95.188751 
L 460.439698 -94.807343 
L 461.618392 -94.427025 
L 462.797085 -94.047817 
L 463.975779 -93.669737 
L 465.154472 -93.292807 
L 466.333166 -92.917043 
L 467.511859 -92.542464 
L 468.690553 -92.169089 
L 469.869246 -91.796935 
L 471.04794 -91.426019 
L 472.226633 -91.056358 
L 473.405327 -90.687968 
L 474.58402 -90.320866 
L 475.762714 -89.955067 
L 476.941407 -89.590586 
L 478.120101 -89.227439 
L 479.298794 -88.86564 
L 480.477487 -88.505202 
L 481.656181 -88.146141 
L 482.834874 -87.788468 
L 484.013568 -87.432198 
L 485.192261 -87.077343 
L 486.370955 -86.723915 
L 487.549648 -86.371926 
L 488.728342 -86.021388 
L 489.907035 -85.672312 
L 491.085729 -85.324709 
L 492.264422 -84.978589 
L 493.443116 -84.633962 
L 494.621809 -84.290839 
L 495.800503 -83.949229 
L 496.979196 -83.60914 
L 498.157889 -83.270583 
L 499.336583 -82.933564 
L 500.515276 -82.598093 
L 501.69397 -82.264178 
L 502.872663 -81.931825 
L 504.051357 -81.601042 
L 505.23005 -81.271837 
L 506.408744 -80.944215 
L 507.587437 -80.618182 
L 508.766131 -80.293746 
L 509.944824 -79.970911 
L 511.123518 -79.649684 
L 512.302211 -79.330069 
L 513.480905 -79.01207 
L 514.659598 -78.695694 
L 515.838291 -78.380943 
L 517.016985 -78.067823 
L 518.195678 -77.756337 
L 519.374372 -77.446488 
L 520.553065 -77.13828 
L 521.731759 -76.831716 
L 522.910452 -76.526799 
L 524.089146 -76.223531 
L 525.267839 -75.921914 
L 526.446533 -75.621951 
L 527.625226 -75.323644 
L 528.80392 -75.026994 
L 529.982613 -74.732003 
L 531.161307 -74.438672 
L 532.34 -74.147002 
L 532.34 -115.746142 
L 532.34 -115.746142 
L 531.161307 -116.029232 
L 529.982613 -116.3133 
L 528.80392 -116.598354 
L 527.625226 -116.884403 
L 526.446533 -117.171453 
L 525.267839 -117.459514 
L 524.089146 -117.748593 
L 522.910452 -118.0387 
L 521.731759 -118.329843 
L 520.553065 -118.622031 
L 519.374372 -118.915273 
L 518.195678 -119.209579 
L 517.016985 -119.504958 
L 515.838291 -119.80142 
L 514.659598 -120.098975 
L 513.480905 -120.397633 
L 512.302211 -120.697405 
L 511.123518 -120.9983 
L 509.944824 -121.300331 
L 508.766131 -121.603508 
L 507.587437 -121.907842 
L 506.408744 -122.213344 
L 505.23005 -122.520028 
L 504.051357 -122.827903 
L 502.872663 -123.136984 
L 501.69397 -123.447282 
L 500.515276 -123.758809 
L 499.336583 -124.07158 
L 498.157889 -124.385607 
L 496.979196 -124.700903 
L 495.800503 -125.017483 
L 494.621809 -125.33536 
L 493.443116 -125.654548 
L 492.264422 -125.975063 
L 491.085729 -126.296919 
L 489.907035 -126.620131 
L 488.728342 -126.944715 
L 487.549648 -127.270685 
L 486.370955 -127.598059 
L 485.192261 -127.926852 
L 484.013568 -128.257081 
L 482.834874 -128.588762 
L 481.656181 -128.921914 
L 480.477487 -129.256552 
L 479.298794 -129.592695 
L 478.120101 -129.930362 
L 476.941407 -130.269569 
L 475.762714 -130.610336 
L 474.58402 -130.952682 
L 473.405327 -131.296625 
L 472.226633 -131.642186 
L 471.04794 -131.989384 
L 469.869246 -132.338239 
L 468.690553 -132.688772 
L 467.511859 -133.041003 
L 466.333166 -133.394954 
L 465.154472 -133.750645 
L 463.975779 -134.108099 
L 462.797085 -134.467337 
L 461.618392 -134.828381 
L 460.439698 -135.191255 
L 459.261005 -135.55598 
L 458.082312 -135.922579 
L 456.903618 -136.291077 
L 455.724925 -136.661497 
L 454.546231 -137.033862 
L 453.367538 -137.408197 
L 452.188844 -137.784526 
L 451.010151 -138.162874 
L 449.831457 -138.543265 
L 448.652764 -138.925726 
L 447.47407 -139.310281 
L 446.295377 -139.696956 
L 445.116683 -140.085776 
L 443.93799 -140.476769 
L 442.759296 -140.869959 
L 441.580603 -141.265374 
L 440.40191 -141.66304 
L 439.223216 -142.062983 
L 438.044523 -142.465231 
L 436.865829 -142.869811 
L 435.687136 -143.276749 
L 434.508442 -143.686074 
L 433.329749 -144.097812 
L 432.151055 -144.511991 
L 430.972362 -144.928638 
L 429.793668 -145.347781 
L 428.614975 -145.769448 
L 427.436281 -146.193666 
L 426.257588 -146.620463 
L 425.078894 -147.049866 
L 423.900201 -147.481902 
L 422.721508 -147.9166 
L 421.542814 -148.353987 
L 420.364121 -148.79409 
L 419.185427 -149.236936 
L 418.006734 -149.682552 
L 416.82804 -150.130965 
L 415.649347 -150.582202 
L 414.470653 -151.03629 
L 413.29196 -151.493254 
L 412.113266 -151.953121 
L 410.934573 -152.415916 
L 409.755879 -152.881665 
L 408.577186 -153.350394 
L 407.398492 -153.822126 
L 406.219799 -154.296886 
L 405.041106 -154.7747 
L 403.862412 -155.255589 
L 402.683719 -155.739578 
L 401.505025 -156.226689 
L 400.326332 -156.716945 
L 399.147638 -157.210367 
L 397.968945 -157.706978 
L 396.790251 -158.206797 
L 395.611558 -158.709845 
L 394.432864 -159.216143 
L 393.254171 -159.725708 
L 392.075477 -160.238561 
L 390.896784 -160.754717 
L 389.71809 -161.274196 
L 388.539397 -161.797014 
L 387.360704 -162.323186 
L 386.18201 -162.852728 
L 385.003317 -163.385655 
L 383.824623 -163.92198 
L 382.64593 -164.461717 
L 381.467236 -165.004878 
L 380.288543 -165.551475 
L 379.109849 -166.10152 
L 377.931156 -166.655021 
L 376.752462 -167.211989 
L 375.573769 -167.772433 
L 374.395075 -168.33636 
L 373.216382 -168.903777 
L 372.037688 -169.474691 
L 370.858995 -170.049108 
L 369.680302 -170.627031 
L 368.501608 -171.208466 
L 367.322915 -171.793415 
L 366.144221 -172.381881 
L 364.965528 -172.973865 
L 363.786834 -173.569369 
L 362.608141 -174.168391 
L 361.429447 -174.770932 
L 360.250754 -175.37699 
L 359.07206 -175.986563 
L 357.893367 -176.599647 
L 356.714673 -177.216239 
L 355.53598 -177.836334 
L 354.357286 -178.459927 
L 353.178593 -179.087013 
L 351.999899 -179.717583 
L 350.821206 -180.351631 
L 349.642513 -180.989148 
L 348.463819 -181.630126 
L 347.285126 -182.274556 
L 346.106432 -182.922426 
L 344.927739 -183.573726 
L 343.749045 -184.228445 
L 342.570352 -184.886571 
L 341.391658 -185.548089 
L 340.212965 -186.212989 
L 339.034271 -186.881254 
L 337.855578 -187.552872 
L 336.676884 -188.227826 
L 335.498191 -188.906101 
L 334.319497 -189.58768 
L 333.140804 -190.272548 
L 331.962111 -190.960687 
L 330.783417 -191.652078 
L 329.604724 -192.346705 
L 328.42603 -193.044547 
L 327.247337 -193.745586 
L 326.068643 -194.449803 
L 324.88995 -195.157177 
L 323.711256 -195.867687 
L 322.532563 -196.581313 
L 321.353869 -197.298034 
L 320.175176 -198.017827 
L 318.996482 -198.740671 
L 317.817789 -199.466543 
L 316.639095 -200.195421 
L 315.460402 -200.927282 
L 314.281709 -201.662101 
L 313.103015 -202.399855 
L 311.924322 -203.14052 
L 310.745628 -203.884073 
L 309.566935 -204.630487 
L 308.388241 -205.379738 
L 307.209548 -206.131801 
L 306.030854 -206.88665 
L 304.852161 -207.644261 
L 303.673467 -208.404605 
L 302.494774 -209.167659 
L 301.31608 -209.933394 
L 300.137387 -210.701785 
L 298.958693 -211.472805 
L 297.78 -212.246426 
z
" style="stroke: #d08770; stroke-opacity: 0.15"/>
    </defs>
    <g clip-path="url(#p4779295cf9)">
     <use xlink:href="#mafb85ef5c0" x="0" y="273.6" style="fill: #d08770; fill-opacity: 0.15; stroke: #d08770; stroke-opacity: 0.15"/>
    </g>
   </g>
   <g id="matplotlib.axis_3">
    <g id="xtick_7">
     <g id="line2d_26">
      <path d="M 315.154815 231.16 
L 315.154815 25.92 
" clip-path="url(#p4779295cf9)" style="fill: none; stroke: #d8dee9; stroke-opacity: 0.4; stroke-width: 0.8; stroke-linecap: square"/>
     </g>
     <g id="line2d_27">
      <g>
       <use xlink:href="#mbf62936df1" x="315.154815" y="231.16" style="fill: #434c5e; stroke: #434c5e; stroke-width: 0.8"/>
      </g>
     </g>
     <g id="text_16">
      <!-- 20 -->
      <g style="fill: #434c5e" transform="translate(308.156065 246.518281) scale(0.11 -0.11)">
       <use xlink:href="#DejaVuSans-32"/>
       <use xlink:href="#DejaVuSans-30" transform="translate(63.623047 0)"/>
      </g>
     </g>
    </g>
    <g id="xtick_8">
     <g id="line2d_28">
      <path d="M 358.591852 231.16 
L 358.591852 25.92 
" clip-path="url(#p4779295cf9)" style="fill: none; stroke: #d8dee9; stroke-opacity: 0.4; stroke-width: 0.8; stroke-linecap: square"/>
     </g>
     <g id="line2d_29">
      <g>
       <use xlink:href="#mbf62936df1" x="358.591852" y="231.16" style="fill: #434c5e; stroke: #434c5e; stroke-width: 0.8"/>
      </g>
     </g>
     <g id="text_17">
      <!-- 25 -->
      <g style="fill: #434c5e" transform="translate(351.593102 246.518281) scale(0.11 -0.11)">
       <use xlink:href="#DejaVuSans-32"/>
       <use xlink:href="#DejaVuSans-35" transform="translate(63.623047 0)"/>
      </g>
     </g>
    </g>
    <g id="xtick_9">
     <g id="line2d_30">
      <path d="M 402.028889 231.16 
L 402.028889 25.92 
" clip-path="url(#p4779295cf9)" style="fill: none; stroke: #d8dee9; stroke-opacity: 0.4; stroke-width: 0.8; stroke-linecap: square"/>
     </g>
     <g id="line2d_31">
      <g>
       <use xlink:href="#mbf62936df1" x="402.028889" y="231.16" style="fill: #434c5e; stroke: #434c5e; stroke-width: 0.8"/>
      </g>
     </g>
     <g id="text_18">
      <!-- 30 -->
      <g style="fill: #434c5e" transform="translate(395.030139 246.518281) scale(0.11 -0.11)">
       <use xlink:href="#DejaVuSans-33"/>
       <use xlink:href="#DejaVuSans-30" transform="translate(63.623047 0)"/>
      </g>
     </g>
    </g>
    <g id="xtick_10">
     <g id="line2d_32">
      <path d="M 445.465926 231.16 
L 445.465926 25.92 
" clip-path="url(#p4779295cf9)" style="fill: none; stroke: #d8dee9; stroke-opacity: 0.4; stroke-width: 0.8; stroke-linecap: square"/>
     </g>
     <g id="line2d_33">
      <g>
       <use xlink:href="#mbf62936df1" x="445.465926" y="231.16" style="fill: #434c5e; stroke: #434c5e; stroke-width: 0.8"/>
      </g>
     </g>
     <g id="text_19">
      <!-- 35 -->
      <g style="fill: #434c5e" transform="translate(438.467176 246.518281) scale(0.11 -0.11)">
       <use xlink:href="#DejaVuSans-33"/>
       <use xlink:href="#DejaVuSans-35" transform="translate(63.623047 0)"/>
      </g>
     </g>
    </g>
    <g id="xtick_11">
     <g id="line2d_34">
      <path d="M 488.902963 231.16 
L 488.902963 25.92 
" clip-path="url(#p4779295cf9)" style="fill: none; stroke: #d8dee9; stroke-opacity: 0.4; stroke-width: 0.8; stroke-linecap: square"/>
     </g>
     <g id="line2d_35">
      <g>
       <use xlink:href="#mbf62936df1" x="488.902963" y="231.16" style="fill: #434c5e; stroke: #434c5e; stroke-width: 0.8"/>
      </g>
     </g>
     <g id="text_20">
      <!-- 40 -->
      <g style="fill: #434c5e" transform="translate(481.904213 246.518281) scale(0.11 -0.11)">
       <use xlink:href="#DejaVuSans-34"/>
       <use xlink:href="#DejaVuSans-30" transform="translate(63.623047 0)"/>
      </g>
     </g>
    </g>
    <g id="xtick_12">
     <g id="line2d_36">
      <path d="M 532.34 231.16 
L 532.34 25.92 
" clip-path="url(#p4779295cf9)" style="fill: none; stroke: #d8dee9; stroke-opacity: 0.4; stroke-width: 0.8; stroke-linecap: square"/>
     </g>
     <g id="line2d_37">
      <g>
       <use xlink:href="#mbf62936df1" x="532.34" y="231.16" style="fill: #434c5e; stroke: #434c5e; stroke-width: 0.8"/>
      </g>
     </g>
     <g id="text_21">
      <!-- 45 -->
      <g style="fill: #434c5e" transform="translate(525.34125 246.518281) scale(0.11 -0.11)">
       <use xlink:href="#DejaVuSans-34"/>
       <use xlink:href="#DejaVuSans-35" transform="translate(63.623047 0)"/>
      </g>
     </g>
    </g>
    <g id="text_22">
     <!-- BMI (kg/m²) -->
     <g style="fill: #434c5e" transform="translate(385.720937 260.404375) scale(0.1 -0.1)">
      <use xlink:href="#DejaVuSans-42"/>
      <use xlink:href="#DejaVuSans-4d" transform="translate(68.603516 0)"/>
      <use xlink:href="#DejaVuSans-49" transform="translate(154.882812 0)"/>
      <use xlink:href="#DejaVuSans-20" transform="translate(184.375 0)"/>
      <use xlink:href="#DejaVuSans-28" transform="translate(216.162109 0)"/>
      <use xlink:href="#DejaVuSans-6b" transform="translate(255.175781 0)"/>
      <use xlink:href="#DejaVuSans-67" transform="translate(313.085938 0)"/>
      <use xlink:href="#DejaVuSans-2f" transform="translate(376.5625 0)"/>
      <use xlink:href="#DejaVuSans-6d" transform="translate(410.253906 0)"/>
      <use xlink:href="#DejaVuSans-b2" transform="translate(507.666016 0)"/>
      <use xlink:href="#DejaVuSans-29" transform="translate(547.753906 0)"/>
     </g>
    </g>
   </g>
   <g id="matplotlib.axis_4">
    <g id="ytick_7">
     <g id="line2d_38">
      <path d="M 297.78 231.16 
L 532.34 231.16 
" clip-path="url(#p4779295cf9)" style="fill: none; stroke: #d8dee9; stroke-opacity: 0.4; stroke-width: 0.8; stroke-linecap: square"/>
     </g>
     <g id="line2d_39">
      <g>
       <use xlink:href="#m06f56d8801" x="297.78" y="231.16" style="fill: #434c5e; stroke: #434c5e; stroke-width: 0.8"/>
      </g>
     </g>
    </g>
    <g id="ytick_8">
     <g id="line2d_40">
      <path d="M 297.78 190.112 
L 532.34 190.112 
" clip-path="url(#p4779295cf9)" style="fill: none; stroke: #d8dee9; stroke-opacity: 0.4; stroke-width: 0.8; stroke-linecap: square"/>
     </g>
     <g id="line2d_41">
      <g>
       <use xlink:href="#m06f56d8801" x="297.78" y="190.112" style="fill: #434c5e; stroke: #434c5e; stroke-width: 0.8"/>
      </g>
     </g>
    </g>
    <g id="ytick_9">
     <g id="line2d_42">
      <path d="M 297.78 149.064 
L 532.34 149.064 
" clip-path="url(#p4779295cf9)" style="fill: none; stroke: #d8dee9; stroke-opacity: 0.4; stroke-width: 0.8; stroke-linecap: square"/>
     </g>
     <g id="line2d_43">
      <g>
       <use xlink:href="#m06f56d8801" x="297.78" y="149.064" style="fill: #434c5e; stroke: #434c5e; stroke-width: 0.8"/>
      </g>
     </g>
    </g>
    <g id="ytick_10">
     <g id="line2d_44">
      <path d="M 297.78 108.016 
L 532.34 108.016 
" clip-path="url(#p4779295cf9)" style="fill: none; stroke: #d8dee9; stroke-opacity: 0.4; stroke-width: 0.8; stroke-linecap: square"/>
     </g>
     <g id="line2d_45">
      <g>
       <use xlink:href="#m06f56d8801" x="297.78" y="108.016" style="fill: #434c5e; stroke: #434c5e; stroke-width: 0.8"/>
      </g>
     </g>
    </g>
    <g id="ytick_11">
     <g id="line2d_46">
      <path d="M 297.78 66.968 
L 532.34 66.968 
" clip-path="url(#p4779295cf9)" style="fill: none; stroke: #d8dee9; stroke-opacity: 0.4; stroke-width: 0.8; stroke-linecap: square"/>
     </g>
     <g id="line2d_47">
      <g>
       <use xlink:href="#m06f56d8801" x="297.78" y="66.968" style="fill: #434c5e; stroke: #434c5e; stroke-width: 0.8"/>
      </g>
     </g>
    </g>
    <g id="ytick_12">
     <g id="line2d_48">
      <path d="M 297.78 25.92 
L 532.34 25.92 
" clip-path="url(#p4779295cf9)" style="fill: none; stroke: #d8dee9; stroke-opacity: 0.4; stroke-width: 0.8; stroke-linecap: square"/>
     </g>
     <g id="line2d_49">
      <g>
       <use xlink:href="#m06f56d8801" x="297.78" y="25.92" style="fill: #434c5e; stroke: #434c5e; stroke-width: 0.8"/>
      </g>
     </g>
    </g>
   </g>
   <g id="line2d_50">
    <path d="M 297.78 93.408554 
L 315.460402 101.744064 
L 331.962111 109.279602 
L 348.463819 116.56298 
L 363.786834 123.088772 
L 379.109849 129.377299 
L 394.432864 135.422088 
L 409.755879 141.218585 
L 425.078894 146.764068 
L 440.40191 152.057539 
L 455.724925 157.099597 
L 471.04794 161.892299 
L 486.370955 166.439013 
L 501.69397 170.74427 
L 517.016985 174.813609 
L 532.34 178.653428 
L 532.34 178.653428 
" clip-path="url(#p4779295cf9)" style="fill: none; stroke: #d08770; stroke-width: 1.5; stroke-linecap: square"/>
   </g>
   <g id="patch_8">
    <path d="M 297.78 231.16 
L 297.78 25.92 
" style="fill: none; stroke: #434c5e; stroke-width: 0.8; stroke-linejoin: miter; stroke-linecap: square"/>
   </g>
   <g id="patch_9">
    <path d="M 532.34 231.16 
L 532.34 25.92 
" style="fill: none; stroke: #434c5e; stroke-width: 0.8; stroke-linejoin: miter; stroke-linecap: square"/>
   </g>
   <g id="patch_10">
    <path d="M 297.78 231.16 
L 532.34 231.16 
" style="fill: none; stroke: #434c5e; stroke-width: 0.8; stroke-linejoin: miter; stroke-linecap: square"/>
   </g>
   <g id="patch_11">
    <path d="M 297.78 25.92 
L 532.34 25.92 
" style="fill: none; stroke: #434c5e; stroke-width: 0.8; stroke-linejoin: miter; stroke-linecap: square"/>
   </g>
   <g id="text_23">
    <!-- Mid -->
    <g style="fill: #4c566a" transform="translate(404.407188 19.92) scale(0.12 -0.12)">
     <defs>
      <path id="DejaVuSans-64" d="M 2906 2969 
L 2906 4863 
L 3481 4863 
L 3481 0 
L 2906 0 
L 2906 525 
Q 2725 213 2448 61 
Q 2172 -91 1784 -91 
Q 1150 -91 751 415 
Q 353 922 353 1747 
Q 353 2572 751 3078 
Q 1150 3584 1784 3584 
Q 2172 3584 2448 3432 
Q 2725 3281 2906 2969 
z
M 947 1747 
Q 947 1113 1208 752 
Q 1469 391 1925 391 
Q 2381 391 2643 752 
Q 2906 1113 2906 1747 
Q 2906 2381 2643 2742 
Q 2381 3103 1925 3103 
Q 1469 3103 1208 2742 
Q 947 2381 947 1747 
z
" transform="scale(0.015625)"/>
     </defs>
     <use xlink:href="#DejaVuSans-4d"/>
     <use xlink:href="#DejaVuSans-69" transform="translate(86.279297 0)"/>
     <use xlink:href="#DejaVuSans-64" transform="translate(114.0625 0)"/>
    </g>
   </g>
  </g>
  <g id="axes_3">
   <g id="patch_12">
    <path d="M 546.64 231.16 
L 781.2 231.16 
L 781.2 25.92 
L 546.64 25.92 
z
" style="fill: #ffffff"/>
   </g>
   <g id="FillBetweenPolyCollection_3">
    <defs>
     <path id="mb3616bbe1b" d="M 546.64 -268.652268 
L 546.64 -167.528468 
L 547.818693 -167.398519 
L 548.997387 -167.267942 
L 550.17608 -167.136736 
L 551.354774 -167.004901 
L 552.533467 -166.872437 
L 553.712161 -166.739343 
L 554.890854 -166.605619 
L 556.069548 -166.471265 
L 557.248241 -166.336279 
L 558.426935 -166.200662 
L 559.605628 -166.064414 
L 560.784322 -165.927535 
L 561.963015 -165.790023 
L 563.141709 -165.65188 
L 564.320402 -165.513104 
L 565.499095 -165.373697 
L 566.677789 -165.233657 
L 567.856482 -165.092985 
L 569.035176 -164.951682 
L 570.213869 -164.809746 
L 571.392563 -164.667178 
L 572.571256 -164.523979 
L 573.74995 -164.380148 
L 574.928643 -164.235686 
L 576.107337 -164.090593 
L 577.28603 -163.94487 
L 578.464724 -163.798516 
L 579.643417 -163.651532 
L 580.822111 -163.503918 
L 582.000804 -163.355676 
L 583.179497 -163.206805 
L 584.358191 -163.057306 
L 585.536884 -162.907179 
L 586.715578 -162.756426 
L 587.894271 -162.605047 
L 589.072965 -162.453042 
L 590.251658 -162.300412 
L 591.430352 -162.147158 
L 592.609045 -161.993281 
L 593.787739 -161.838781 
L 594.966432 -161.68366 
L 596.145126 -161.527919 
L 597.323819 -161.371557 
L 598.502513 -161.214577 
L 599.681206 -161.05698 
L 600.859899 -160.898765 
L 602.038593 -160.739936 
L 603.217286 -160.580491 
L 604.39598 -160.420434 
L 605.574673 -160.259764 
L 606.753367 -160.098484 
L 607.93206 -159.936594 
L 609.110754 -159.774096 
L 610.289447 -159.610991 
L 611.468141 -159.447281 
L 612.646834 -159.282967 
L 613.825528 -159.118049 
L 615.004221 -158.952531 
L 616.182915 -158.786413 
L 617.361608 -158.619697 
L 618.540302 -158.452385 
L 619.718995 -158.284478 
L 620.897688 -158.115977 
L 622.076382 -157.946885 
L 623.255075 -157.777203 
L 624.433769 -157.606933 
L 625.612462 -157.436077 
L 626.791156 -157.264637 
L 627.969849 -157.092614 
L 629.148543 -156.92001 
L 630.327236 -156.746827 
L 631.50593 -156.573068 
L 632.684623 -156.398733 
L 633.863317 -156.223826 
L 635.04201 -156.048348 
L 636.220704 -155.872301 
L 637.399397 -155.695688 
L 638.57809 -155.51851 
L 639.756784 -155.34077 
L 640.935477 -155.162469 
L 642.114171 -154.983611 
L 643.292864 -154.804196 
L 644.471558 -154.624229 
L 645.650251 -154.44371 
L 646.828945 -154.262642 
L 648.007638 -154.081028 
L 649.186332 -153.89887 
L 650.365025 -153.71617 
L 651.543719 -153.532931 
L 652.722412 -153.349155 
L 653.901106 -153.164845 
L 655.079799 -152.980002 
L 656.258492 -152.794631 
L 657.437186 -152.608733 
L 658.615879 -152.422311 
L 659.794573 -152.235367 
L 660.973266 -152.047904 
L 662.15196 -151.859925 
L 663.330653 -151.671432 
L 664.509347 -151.482428 
L 665.68804 -151.292917 
L 666.866734 -151.102899 
L 668.045427 -150.912379 
L 669.224121 -150.721359 
L 670.402814 -150.529842 
L 671.581508 -150.33783 
L 672.760201 -150.145327 
L 673.938894 -149.952335 
L 675.117588 -149.758858 
L 676.296281 -149.564897 
L 677.474975 -149.370457 
L 678.653668 -149.175539 
L 679.832362 -148.980147 
L 681.011055 -148.784284 
L 682.189749 -148.587953 
L 683.368442 -148.391157 
L 684.547136 -148.193898 
L 685.725829 -147.99618 
L 686.904523 -147.798006 
L 688.083216 -147.599378 
L 689.26191 -147.400301 
L 690.440603 -147.200776 
L 691.619296 -147.000808 
L 692.79799 -146.800398 
L 693.976683 -146.599551 
L 695.155377 -146.398269 
L 696.33407 -146.196556 
L 697.512764 -145.994414 
L 698.691457 -145.791847 
L 699.870151 -145.588858 
L 701.048844 -145.38545 
L 702.227538 -145.181626 
L 703.406231 -144.97739 
L 704.584925 -144.772744 
L 705.763618 -144.567693 
L 706.942312 -144.362238 
L 708.121005 -144.156384 
L 709.299698 -143.950133 
L 710.478392 -143.743489 
L 711.657085 -143.536455 
L 712.835779 -143.329034 
L 714.014472 -143.121229 
L 715.193166 -142.913045 
L 716.371859 -142.704483 
L 717.550553 -142.495548 
L 718.729246 -142.286242 
L 719.90794 -142.076569 
L 721.086633 -141.866533 
L 722.265327 -141.656135 
L 723.44402 -141.445381 
L 724.622714 -141.234272 
L 725.801407 -141.022813 
L 726.980101 -140.811006 
L 728.158794 -140.598855 
L 729.337487 -140.386363 
L 730.516181 -140.173534 
L 731.694874 -139.960371 
L 732.873568 -139.746876 
L 734.052261 -139.533054 
L 735.230955 -139.318908 
L 736.409648 -139.10444 
L 737.588342 -138.889655 
L 738.767035 -138.674556 
L 739.945729 -138.459145 
L 741.124422 -138.243426 
L 742.303116 -138.027403 
L 743.481809 -137.811079 
L 744.660503 -137.594457 
L 745.839196 -137.37754 
L 747.017889 -137.160332 
L 748.196583 -136.942836 
L 749.375276 -136.725055 
L 750.55397 -136.506992 
L 751.732663 -136.288652 
L 752.911357 -136.070036 
L 754.09005 -135.851149 
L 755.268744 -135.631993 
L 756.447437 -135.412572 
L 757.626131 -135.192889 
L 758.804824 -134.972948 
L 759.983518 -134.752751 
L 761.162211 -134.532302 
L 762.340905 -134.311604 
L 763.519598 -134.09066 
L 764.698291 -133.869474 
L 765.876985 -133.648049 
L 767.055678 -133.426388 
L 768.234372 -133.204493 
L 769.413065 -132.98237 
L 770.591759 -132.760019 
L 771.770452 -132.537446 
L 772.949146 -132.314652 
L 774.127839 -132.091641 
L 775.306533 -131.868417 
L 776.485226 -131.644982 
L 777.66392 -131.42134 
L 778.842613 -131.197493 
L 780.021307 -130.973446 
L 781.2 -130.7492 
L 781.2 -240.755795 
L 781.2 -240.755795 
L 780.021307 -240.843809 
L 778.842613 -240.932173 
L 777.66392 -241.020889 
L 776.485226 -241.109961 
L 775.306533 -241.199391 
L 774.127839 -241.289182 
L 772.949146 -241.379337 
L 771.770452 -241.469858 
L 770.591759 -241.560749 
L 769.413065 -241.652013 
L 768.234372 -241.743652 
L 767.055678 -241.835669 
L 765.876985 -241.928067 
L 764.698291 -242.020848 
L 763.519598 -242.114017 
L 762.340905 -242.207575 
L 761.162211 -242.301526 
L 759.983518 -242.395872 
L 758.804824 -242.490617 
L 757.626131 -242.585762 
L 756.447437 -242.681312 
L 755.268744 -242.77727 
L 754.09005 -242.873637 
L 752.911357 -242.970417 
L 751.732663 -243.067613 
L 750.55397 -243.165228 
L 749.375276 -243.263264 
L 748.196583 -243.361726 
L 747.017889 -243.460614 
L 745.839196 -243.559934 
L 744.660503 -243.659687 
L 743.481809 -243.759877 
L 742.303116 -243.860506 
L 741.124422 -243.961577 
L 739.945729 -244.063094 
L 738.767035 -244.165059 
L 737.588342 -244.267475 
L 736.409648 -244.370346 
L 735.230955 -244.473673 
L 734.052261 -244.577461 
L 732.873568 -244.681712 
L 731.694874 -244.786429 
L 730.516181 -244.891616 
L 729.337487 -244.997274 
L 728.158794 -245.103407 
L 726.980101 -245.210017 
L 725.801407 -245.317109 
L 724.622714 -245.424685 
L 723.44402 -245.532747 
L 722.265327 -245.641299 
L 721.086633 -245.750343 
L 719.90794 -245.859883 
L 718.729246 -245.969922 
L 717.550553 -246.080462 
L 716.371859 -246.191506 
L 715.193166 -246.303057 
L 714.014472 -246.415119 
L 712.835779 -246.527694 
L 711.657085 -246.640784 
L 710.478392 -246.754394 
L 709.299698 -246.868525 
L 708.121005 -246.983181 
L 706.942312 -247.098365 
L 705.763618 -247.214079 
L 704.584925 -247.330326 
L 703.406231 -247.447109 
L 702.227538 -247.564432 
L 701.048844 -247.682296 
L 699.870151 -247.800704 
L 698.691457 -247.91966 
L 697.512764 -248.039167 
L 696.33407 -248.159226 
L 695.155377 -248.279841 
L 693.976683 -248.401015 
L 692.79799 -248.52275 
L 691.619296 -248.645049 
L 690.440603 -248.767916 
L 689.26191 -248.891351 
L 688.083216 -249.015359 
L 686.904523 -249.139942 
L 685.725829 -249.265103 
L 684.547136 -249.390844 
L 683.368442 -249.517168 
L 682.189749 -249.644078 
L 681.011055 -249.771576 
L 679.832362 -249.899664 
L 678.653668 -250.028347 
L 677.474975 -250.157625 
L 676.296281 -250.287502 
L 675.117588 -250.417981 
L 673.938894 -250.549063 
L 672.760201 -250.680751 
L 671.581508 -250.813048 
L 670.402814 -250.945956 
L 669.224121 -251.079477 
L 668.045427 -251.213615 
L 666.866734 -251.348372 
L 665.68804 -251.483749 
L 664.509347 -251.619749 
L 663.330653 -251.756375 
L 662.15196 -251.893629 
L 660.973266 -252.031513 
L 659.794573 -252.17003 
L 658.615879 -252.309182 
L 657.437186 -252.44897 
L 656.258492 -252.589398 
L 655.079799 -252.730467 
L 653.901106 -252.87218 
L 652.722412 -253.014539 
L 651.543719 -253.157546 
L 650.365025 -253.301202 
L 649.186332 -253.445511 
L 648.007638 -253.590474 
L 646.828945 -253.736092 
L 645.650251 -253.882369 
L 644.471558 -254.029306 
L 643.292864 -254.176905 
L 642.114171 -254.325168 
L 640.935477 -254.474097 
L 639.756784 -254.623694 
L 638.57809 -254.773959 
L 637.399397 -254.924897 
L 636.220704 -255.076507 
L 635.04201 -255.228792 
L 633.863317 -255.381753 
L 632.684623 -255.535393 
L 631.50593 -255.689712 
L 630.327236 -255.844713 
L 629.148543 -256.000396 
L 627.969849 -256.156765 
L 626.791156 -256.313819 
L 625.612462 -256.471561 
L 624.433769 -256.629992 
L 623.255075 -256.789113 
L 622.076382 -256.948926 
L 620.897688 -257.109433 
L 619.718995 -257.270633 
L 618.540302 -257.43253 
L 617.361608 -257.595124 
L 616.182915 -257.758415 
L 615.004221 -257.922407 
L 613.825528 -258.087099 
L 612.646834 -258.252492 
L 611.468141 -258.418588 
L 610.289447 -258.585389 
L 609.110754 -258.752894 
L 607.93206 -258.921105 
L 606.753367 -259.090022 
L 605.574673 -259.259647 
L 604.39598 -259.429981 
L 603.217286 -259.601024 
L 602.038593 -259.772778 
L 600.859899 -259.945242 
L 599.681206 -260.118418 
L 598.502513 -260.292306 
L 597.323819 -260.466907 
L 596.145126 -260.642222 
L 594.966432 -260.818251 
L 593.787739 -260.994995 
L 592.609045 -261.172453 
L 591.430352 -261.350628 
L 590.251658 -261.529518 
L 589.072965 -261.709125 
L 587.894271 -261.889449 
L 586.715578 -262.07049 
L 585.536884 -262.252248 
L 584.358191 -262.434724 
L 583.179497 -262.617917 
L 582.000804 -262.801829 
L 580.822111 -262.986459 
L 579.643417 -263.171806 
L 578.464724 -263.357873 
L 577.28603 -263.544657 
L 576.107337 -263.732159 
L 574.928643 -263.92038 
L 573.74995 -264.109318 
L 572.571256 -264.298975 
L 571.392563 -264.489349 
L 570.213869 -264.680441 
L 569.035176 -264.872249 
L 567.856482 -265.064775 
L 566.677789 -265.258017 
L 565.499095 -265.451976 
L 564.320402 -265.64665 
L 563.141709 -265.84204 
L 561.963015 -266.038144 
L 560.784322 -266.234963 
L 559.605628 -266.432496 
L 558.426935 -266.630741 
L 557.248241 -266.8297 
L 556.069548 -267.02937 
L 554.890854 -267.229751 
L 553.712161 -267.430843 
L 552.533467 -267.632645 
L 551.354774 -267.835155 
L 550.17608 -268.038373 
L 548.997387 -268.242299 
L 547.818693 -268.446931 
L 546.64 -268.652268 
z
" style="stroke: #a3be8c; stroke-opacity: 0.15"/>
    </defs>
    <g clip-path="url(#p85e5ab45d2)">
     <use xlink:href="#mb3616bbe1b" x="0" y="273.6" style="fill: #a3be8c; fill-opacity: 0.15; stroke: #a3be8c; stroke-opacity: 0.15"/>
    </g>
   </g>
   <g id="matplotlib.axis_5">
    <g id="xtick_13">
     <g id="line2d_51">
      <path d="M 564.014815 231.16 
L 564.014815 25.92 
" clip-path="url(#p85e5ab45d2)" style="fill: none; stroke: #d8dee9; stroke-opacity: 0.4; stroke-width: 0.8; stroke-linecap: square"/>
     </g>
     <g id="line2d_52">
      <g>
       <use xlink:href="#mbf62936df1" x="564.014815" y="231.16" style="fill: #434c5e; stroke: #434c5e; stroke-width: 0.8"/>
      </g>
     </g>
     <g id="text_24">
      <!-- 20 -->
      <g style="fill: #434c5e" transform="translate(557.016065 246.518281) scale(0.11 -0.11)">
       <use xlink:href="#DejaVuSans-32"/>
       <use xlink:href="#DejaVuSans-30" transform="translate(63.623047 0)"/>
      </g>
     </g>
    </g>
    <g id="xtick_14">
     <g id="line2d_53">
      <path d="M 607.451852 231.16 
L 607.451852 25.92 
" clip-path="url(#p85e5ab45d2)" style="fill: none; stroke: #d8dee9; stroke-opacity: 0.4; stroke-width: 0.8; stroke-linecap: square"/>
     </g>
     <g id="line2d_54">
      <g>
       <use xlink:href="#mbf62936df1" x="607.451852" y="231.16" style="fill: #434c5e; stroke: #434c5e; stroke-width: 0.8"/>
      </g>
     </g>
     <g id="text_25">
      <!-- 25 -->
      <g style="fill: #434c5e" transform="translate(600.453102 246.518281) scale(0.11 -0.11)">
       <use xlink:href="#DejaVuSans-32"/>
       <use xlink:href="#DejaVuSans-35" transform="translate(63.623047 0)"/>
      </g>
     </g>
    </g>
    <g id="xtick_15">
     <g id="line2d_55">
      <path d="M 650.888889 231.16 
L 650.888889 25.92 
" clip-path="url(#p85e5ab45d2)" style="fill: none; stroke: #d8dee9; stroke-opacity: 0.4; stroke-width: 0.8; stroke-linecap: square"/>
     </g>
     <g id="line2d_56">
      <g>
       <use xlink:href="#mbf62936df1" x="650.888889" y="231.16" style="fill: #434c5e; stroke: #434c5e; stroke-width: 0.8"/>
      </g>
     </g>
     <g id="text_26">
      <!-- 30 -->
      <g style="fill: #434c5e" transform="translate(643.890139 246.518281) scale(0.11 -0.11)">
       <use xlink:href="#DejaVuSans-33"/>
       <use xlink:href="#DejaVuSans-30" transform="translate(63.623047 0)"/>
      </g>
     </g>
    </g>
    <g id="xtick_16">
     <g id="line2d_57">
      <path d="M 694.325926 231.16 
L 694.325926 25.92 
" clip-path="url(#p85e5ab45d2)" style="fill: none; stroke: #d8dee9; stroke-opacity: 0.4; stroke-width: 0.8; stroke-linecap: square"/>
     </g>
     <g id="line2d_58">
      <g>
       <use xlink:href="#mbf62936df1" x="694.325926" y="231.16" style="fill: #434c5e; stroke: #434c5e; stroke-width: 0.8"/>
      </g>
     </g>
     <g id="text_27">
      <!-- 35 -->
      <g style="fill: #434c5e" transform="translate(687.327176 246.518281) scale(0.11 -0.11)">
       <use xlink:href="#DejaVuSans-33"/>
       <use xlink:href="#DejaVuSans-35" transform="translate(63.623047 0)"/>
      </g>
     </g>
    </g>
    <g id="xtick_17">
     <g id="line2d_59">
      <path d="M 737.762963 231.16 
L 737.762963 25.92 
" clip-path="url(#p85e5ab45d2)" style="fill: none; stroke: #d8dee9; stroke-opacity: 0.4; stroke-width: 0.8; stroke-linecap: square"/>
     </g>
     <g id="line2d_60">
      <g>
       <use xlink:href="#mbf62936df1" x="737.762963" y="231.16" style="fill: #434c5e; stroke: #434c5e; stroke-width: 0.8"/>
      </g>
     </g>
     <g id="text_28">
      <!-- 40 -->
      <g style="fill: #434c5e" transform="translate(730.764213 246.518281) scale(0.11 -0.11)">
       <use xlink:href="#DejaVuSans-34"/>
       <use xlink:href="#DejaVuSans-30" transform="translate(63.623047 0)"/>
      </g>
     </g>
    </g>
    <g id="xtick_18">
     <g id="line2d_61">
      <path d="M 781.2 231.16 
L 781.2 25.92 
" clip-path="url(#p85e5ab45d2)" style="fill: none; stroke: #d8dee9; stroke-opacity: 0.4; stroke-width: 0.8; stroke-linecap: square"/>
     </g>
     <g id="line2d_62">
      <g>
       <use xlink:href="#mbf62936df1" x="781.2" y="231.16" style="fill: #434c5e; stroke: #434c5e; stroke-width: 0.8"/>
      </g>
     </g>
     <g id="text_29">
      <!-- 45 -->
      <g style="fill: #434c5e" transform="translate(774.20125 246.518281) scale(0.11 -0.11)">
       <use xlink:href="#DejaVuSans-34"/>
       <use xlink:href="#DejaVuSans-35" transform="translate(63.623047 0)"/>
      </g>
     </g>
    </g>
    <g id="text_30">
     <!-- BMI (kg/m²) -->
     <g style="fill: #434c5e" transform="translate(634.580938 260.404375) scale(0.1 -0.1)">
      <use xlink:href="#DejaVuSans-42"/>
      <use xlink:href="#DejaVuSans-4d" transform="translate(68.603516 0)"/>
      <use xlink:href="#DejaVuSans-49" transform="translate(154.882812 0)"/>
      <use xlink:href="#DejaVuSans-20" transform="translate(184.375 0)"/>
      <use xlink:href="#DejaVuSans-28" transform="translate(216.162109 0)"/>
      <use xlink:href="#DejaVuSans-6b" transform="translate(255.175781 0)"/>
      <use xlink:href="#DejaVuSans-67" transform="translate(313.085938 0)"/>
      <use xlink:href="#DejaVuSans-2f" transform="translate(376.5625 0)"/>
      <use xlink:href="#DejaVuSans-6d" transform="translate(410.253906 0)"/>
      <use xlink:href="#DejaVuSans-b2" transform="translate(507.666016 0)"/>
      <use xlink:href="#DejaVuSans-29" transform="translate(547.753906 0)"/>
     </g>
    </g>
   </g>
   <g id="matplotlib.axis_6">
    <g id="ytick_13">
     <g id="line2d_63">
      <path d="M 546.64 231.16 
L 781.2 231.16 
" clip-path="url(#p85e5ab45d2)" style="fill: none; stroke: #d8dee9; stroke-opacity: 0.4; stroke-width: 0.8; stroke-linecap: square"/>
     </g>
     <g id="line2d_64">
      <g>
       <use xlink:href="#m06f56d8801" x="546.64" y="231.16" style="fill: #434c5e; stroke: #434c5e; stroke-width: 0.8"/>
      </g>
     </g>
    </g>
    <g id="ytick_14">
     <g id="line2d_65">
      <path d="M 546.64 190.112 
L 781.2 190.112 
" clip-path="url(#p85e5ab45d2)" style="fill: none; stroke: #d8dee9; stroke-opacity: 0.4; stroke-width: 0.8; stroke-linecap: square"/>
     </g>
     <g id="line2d_66">
      <g>
       <use xlink:href="#m06f56d8801" x="546.64" y="190.112" style="fill: #434c5e; stroke: #434c5e; stroke-width: 0.8"/>
      </g>
     </g>
    </g>
    <g id="ytick_15">
     <g id="line2d_67">
      <path d="M 546.64 149.064 
L 781.2 149.064 
" clip-path="url(#p85e5ab45d2)" style="fill: none; stroke: #d8dee9; stroke-opacity: 0.4; stroke-width: 0.8; stroke-linecap: square"/>
     </g>
     <g id="line2d_68">
      <g>
       <use xlink:href="#m06f56d8801" x="546.64" y="149.064" style="fill: #434c5e; stroke: #434c5e; stroke-width: 0.8"/>
      </g>
     </g>
    </g>
    <g id="ytick_16">
     <g id="line2d_69">
      <path d="M 546.64 108.016 
L 781.2 108.016 
" clip-path="url(#p85e5ab45d2)" style="fill: none; stroke: #d8dee9; stroke-opacity: 0.4; stroke-width: 0.8; stroke-linecap: square"/>
     </g>
     <g id="line2d_70">
      <g>
       <use xlink:href="#m06f56d8801" x="546.64" y="108.016" style="fill: #434c5e; stroke: #434c5e; stroke-width: 0.8"/>
      </g>
     </g>
    </g>
    <g id="ytick_17">
     <g id="line2d_71">
      <path d="M 546.64 66.968 
L 781.2 66.968 
" clip-path="url(#p85e5ab45d2)" style="fill: none; stroke: #d8dee9; stroke-opacity: 0.4; stroke-width: 0.8; stroke-linecap: square"/>
     </g>
     <g id="line2d_72">
      <g>
       <use xlink:href="#m06f56d8801" x="546.64" y="66.968" style="fill: #434c5e; stroke: #434c5e; stroke-width: 0.8"/>
      </g>
     </g>
    </g>
    <g id="ytick_18">
     <g id="line2d_73">
      <path d="M 546.64 25.92 
L 781.2 25.92 
" clip-path="url(#p85e5ab45d2)" style="fill: none; stroke: #d8dee9; stroke-opacity: 0.4; stroke-width: 0.8; stroke-linecap: square"/>
     </g>
     <g id="line2d_74">
      <g>
       <use xlink:href="#m06f56d8801" x="546.64" y="25.92" style="fill: #434c5e; stroke: #434c5e; stroke-width: 0.8"/>
      </g>
     </g>
    </g>
   </g>
   <g id="line2d_75">
    <path d="M 546.64 55.509632 
L 631.50593 67.46861 
L 705.763618 77.709114 
L 772.949146 86.753006 
L 781.2 87.847503 
L 781.2 87.847503 
" clip-path="url(#p85e5ab45d2)" style="fill: none; stroke: #a3be8c; stroke-width: 1.5; stroke-linecap: square"/>
   </g>
   <g id="patch_13">
    <path d="M 546.64 231.16 
L 546.64 25.92 
" style="fill: none; stroke: #434c5e; stroke-width: 0.8; stroke-linejoin: miter; stroke-linecap: square"/>
   </g>
   <g id="patch_14">
    <path d="M 781.2 231.16 
L 781.2 25.92 
" style="fill: none; stroke: #434c5e; stroke-width: 0.8; stroke-linejoin: miter; stroke-linecap: square"/>
   </g>
   <g id="patch_15">
    <path d="M 546.64 231.16 
L 781.2 231.16 
" style="fill: none; stroke: #434c5e; stroke-width: 0.8; stroke-linejoin: miter; stroke-linecap: square"/>
   </g>
   <g id="patch_16">
    <path d="M 546.64 25.92 
L 781.2 25.92 
" style="fill: none; stroke: #434c5e; stroke-width: 0.8; stroke-linejoin: miter; stroke-linecap: square"/>
   </g>
   <g id="text_31">
    <!-- High -->
    <g style="fill: #4c566a" transform="translate(650.129375 19.92) scale(0.12 -0.12)">
     <defs>
      <path id="DejaVuSans-48" d="M 628 4666 
L 1259 4666 
L 1259 2753 
L 3553 2753 
L 3553 4666 
L 4184 4666 
L 4184 0 
L 3553 0 
L 3553 2222 
L 1259 2222 
L 1259 0 
L 628 0 
L 628 4666 
z
" transform="scale(0.015625)"/>
      <path id="DejaVuSans-68" d="M 3513 2113 
L 3513 0 
L 2938 0 
L 2938 2094 
Q 2938 2591 2744 2837 
Q 2550 3084 2163 3084 
Q 1697 3084 1428 2787 
Q 1159 2491 1159 1978 
L 1159 0 
L 581 0 
L 581 4863 
L 1159 4863 
L 1159 2956 
Q 1366 3272 1645 3428 
Q 1925 3584 2291 3584 
Q 2894 3584 3203 3211 
Q 3513 2838 3513 2113 
z
" transform="scale(0.015625)"/>
     </defs>
     <use xlink:href="#DejaVuSans-48"/>
     <use xlink:href="#DejaVuSans-69" transform="translate(75.195312 0)"/>
     <use xlink:href="#DejaVuSans-67" transform="translate(102.978516 0)"/>
     <use xlink:href="#DejaVuSans-68" transform="translate(166.455078 0)"/>
    </g>
   </g>
  </g>
 </g>
 <defs>
  <clipPath id="pc5a2512d82">
   <rect x="48.92" y="25.92" width="234.56" height="205.24"/>
  </clipPath>
  <clipPath id="p4779295cf9">
   <rect x="297.78" y="25.92" width="234.56" height="205.24"/>
  </clipPath>
  <clipPath id="p85e5ab45d2">
   <rect x="546.64" y="25.92" width="234.56" height="205.24"/>
  </clipPath>
 </defs>
</svg>
