<?xml version="1.0" encoding="utf-8" standalone="no"?>
<!DOCTYPE svg PUBLIC "-//W3C//DTD SVG 1.1//EN"
  "http://www.w3.org/Graphics/SVG/1.1/DTD/svg11.dtd">
<svg xmlns:xlink="http://www.w3.org/1999/xlink" width="504pt" height="288pt" viewBox="0 0 504 288" xmlns="http://www.w3.org/2000/svg" version="1.1">
 <metadata>
  <rdf:RDF xmlns:dc="http://purl.org/dc/elements/1.1/" xmlns:cc="http://creativecommons.org/ns#" xmlns:rdf="http://www.w3.org/1999/02/22-rdf-syntax-ns#">
   <cc:Work>
    <dc:type rdf:resource="http://purl.org/dc/dcmitype/StillImage"/>
    <dc:date>2025-12-10T09:08:44.035379</dc:date>
    <dc:format>image/svg+xml</dc:format>
    <dc:creator>
     <cc:Agent>
      <dc:title>Matplotlib v3.10.6, https://matplotlib.org/</dc:title>
     </cc:Agent>
    </dc:creator>
   </cc:Work>
  </rdf:RDF>
 </metadata>
 <defs>
  <style type="text/css">*{stroke-linejoin: round; stroke-linecap: butt}</style>
 </defs>
 <g id="figure_1">
  <g id="patch_1">
   <path d="M 0 288 
L 504 288 
L 504 0 
L 0 0 
z
" style="fill: #ffffff"/>
  </g>
  <g id="axes_1">
   <g id="patch_2">
    <path d="M 48.92 245.56 
L 493.2 245.56 
L 493.2 15.12 
L 48.92 15.12 
z
" style="fill: #ffffff"/>
   </g>
   <g id="matplotlib.axis_1">
    <g id="xtick_1">
     <g id="line2d_1">
      <path d="M 75.628915 245.56 
L 75.628915 15.12 
" clip-path="url(#pd69596680c)" style="fill: none; stroke: #d8dee9; stroke-opacity: 0.4; stroke-width: 0.8; stroke-linecap: square"/>
     </g>
     <g id="line2d_2">
      <defs>
       <path id="m558d2a8ab0" d="M 0 0 
L 0 3.5 
" style="stroke: #434c5e; stroke-width: 0.8"/>
      </defs>
      <g>
       <use xlink:href="#m558d2a8ab0" x="75.628915" y="245.56" style="fill: #434c5e; stroke: #434c5e; stroke-width: 0.8"/>
      </g>
     </g>
     <g id="text_1">
      <!-- 25 -->
      <g style="fill: #434c5e" transform="translate(68.630165 260.918281) scale(0.11 -0.11)">
       <defs>
        <path id="DejaVuSans-32" d="M 1228 531 
L 3431 531 
L 3431 0 
L 469 0 
L 469 531 
Q 828 903 1448 1529 
Q 2069 2156 2228 2338 
Q 2531 2678 2651 2914 
Q 2772 3150 2772 3378 
Q 2772 3750 2511 3984 
Q 2250 4219 1831 4219 
Q 1534 4219 1204 4116 
Q 875 4013 500 3803 
L 500 4441 
Q 881 4594 1212 4672 
Q 1544 4750 1819 4750 
Q 2544 4750 2975 4387 
Q 3406 4025 3406 3419 
Q 3406 3131 3298 2873 
Q 3191 2616 2906 2266 
Q 2828 2175 2409 1742 
Q 1991 1309 1228 531 
z
" transform="scale(0.015625)"/>
        <path id="DejaVuSans-35" d="M 691 4666 
L 3169 4666 
L 3169 4134 
L 1269 4134 
L 1269 2991 
Q 1406 3038 1543 3061 
Q 1681 3084 1819 3084 
Q 2600 3084 3056 2656 
Q 3513 2228 3513 1497 
Q 3513 744 3044 326 
Q 2575 -91 1722 -91 
Q 1428 -91 1123 -41 
Q 819 9 494 109 
L 494 744 
Q 775 591 1075 516 
Q 1375 441 1709 441 
Q 2250 441 2565 725 
Q 2881 1009 2881 1497 
Q 2881 1984 2565 2268 
Q 2250 2553 1709 2553 
Q 1456 2553 1204 2497 
Q 953 2441 691 2322 
L 691 4666 
z
" transform="scale(0.015625)"/>
       </defs>
       <use xlink:href="#DejaVuSans-32"/>
       <use xlink:href="#DejaVuSans-35" transform="translate(63.623047 0)"/>
      </g>
     </g>
    </g>
    <g id="xtick_2">
     <g id="line2d_3">
      <path d="M 205.916305 245.56 
L 205.916305 15.12 
" clip-path="url(#pd69596680c)" style="fill: none; stroke: #d8dee9; stroke-opacity: 0.4; stroke-width: 0.8; stroke-linecap: square"/>
     </g>
     <g id="line2d_4">
      <g>
       <use xlink:href="#m558d2a8ab0" x="205.916305" y="245.56" style="fill: #434c5e; stroke: #434c5e; stroke-width: 0.8"/>
      </g>
     </g>
     <g id="text_2">
      <!-- 30 -->
      <g style="fill: #434c5e" transform="translate(198.917555 260.918281) scale(0.11 -0.11)">
       <defs>
        <path id="DejaVuSans-33" d="M 2597 2516 
Q 3050 2419 3304 2112 
Q 3559 1806 3559 1356 
Q 3559 666 3084 287 
Q 2609 -91 1734 -91 
Q 1441 -91 1130 -33 
Q 819 25 488 141 
L 488 750 
Q 750 597 1062 519 
Q 1375 441 1716 441 
Q 2309 441 2620 675 
Q 2931 909 2931 1356 
Q 2931 1769 2642 2001 
Q 2353 2234 1838 2234 
L 1294 2234 
L 1294 2753 
L 1863 2753 
Q 2328 2753 2575 2939 
Q 2822 3125 2822 3475 
Q 2822 3834 2567 4026 
Q 2313 4219 1838 4219 
Q 1578 4219 1281 4162 
Q 984 4106 628 3988 
L 628 4550 
Q 988 4650 1302 4700 
Q 1616 4750 1894 4750 
Q 2613 4750 3031 4423 
Q 3450 4097 3450 3541 
Q 3450 3153 3228 2886 
Q 3006 2619 2597 2516 
z
" transform="scale(0.015625)"/>
        <path id="DejaVuSans-30" d="M 2034 4250 
Q 1547 4250 1301 3770 
Q 1056 3291 1056 2328 
Q 1056 1369 1301 889 
Q 1547 409 2034 409 
Q 2525 409 2770 889 
Q 3016 1369 3016 2328 
Q 3016 3291 2770 3770 
Q 2525 4250 2034 4250 
z
M 2034 4750 
Q 2819 4750 3233 4129 
Q 3647 3509 3647 2328 
Q 3647 1150 3233 529 
Q 2819 -91 2034 -91 
Q 1250 -91 836 529 
Q 422 1150 422 2328 
Q 422 3509 836 4129 
Q 1250 4750 2034 4750 
z
" transform="scale(0.015625)"/>
       </defs>
       <use xlink:href="#DejaVuSans-33"/>
       <use xlink:href="#DejaVuSans-30" transform="translate(63.623047 0)"/>
      </g>
     </g>
    </g>
    <g id="xtick_3">
     <g id="line2d_5">
      <path d="M 336.203695 245.56 
L 336.203695 15.12 
" clip-path="url(#pd69596680c)" style="fill: none; stroke: #d8dee9; stroke-opacity: 0.4; stroke-width: 0.8; stroke-linecap: square"/>
     </g>
     <g id="line2d_6">
      <g>
       <use xlink:href="#m558d2a8ab0" x="336.203695" y="245.56" style="fill: #434c5e; stroke: #434c5e; stroke-width: 0.8"/>
      </g>
     </g>
     <g id="text_3">
      <!-- 35 -->
      <g style="fill: #434c5e" transform="translate(329.204945 260.918281) scale(0.11 -0.11)">
       <use xlink:href="#DejaVuSans-33"/>
       <use xlink:href="#DejaVuSans-35" transform="translate(63.623047 0)"/>
      </g>
     </g>
    </g>
    <g id="xtick_4">
     <g id="line2d_7">
      <path d="M 466.491085 245.56 
L 466.491085 15.12 
" clip-path="url(#pd69596680c)" style="fill: none; stroke: #d8dee9; stroke-opacity: 0.4; stroke-width: 0.8; stroke-linecap: square"/>
     </g>
     <g id="line2d_8">
      <g>
       <use xlink:href="#m558d2a8ab0" x="466.491085" y="245.56" style="fill: #434c5e; stroke: #434c5e; stroke-width: 0.8"/>
      </g>
     </g>
     <g id="text_4">
      <!-- 40 -->
      <g style="fill: #434c5e" transform="translate(459.492335 260.918281) scale(0.11 -0.11)">
       <defs>
        <path id="DejaVuSans-34" d="M 2419 4116 
L 825 1625 
L 2419 1625 
L 2419 4116 
z
M 2253 4666 
L 3047 4666 
L 3047 1625 
L 3713 1625 
L 3713 1100 
L 3047 1100 
L 3047 0 
L 2419 0 
L 2419 1100 
L 313 1100 
L 313 1709 
L 2253 4666 
z
" transform="scale(0.015625)"/>
       </defs>
       <use xlink:href="#DejaVuSans-34"/>
       <use xlink:href="#DejaVuSans-30" transform="translate(63.623047 0)"/>
      </g>
     </g>
    </g>
    <g id="text_5">
     <!-- BMI (kg/m²) -->
     <g style="fill: #434c5e" transform="translate(241.720937 274.804375) scale(0.1 -0.1)">
      <defs>
       <path id="DejaVuSans-42" d="M 1259 2228 
L 1259 519 
L 2272 519 
Q 2781 519 3026 730 
Q 3272 941 3272 1375 
Q 3272 1813 3026 2020 
Q 2781 2228 2272 2228 
L 1259 2228 
z
M 1259 4147 
L 1259 2741 
L 2194 2741 
Q 2656 2741 2882 2914 
Q 3109 3088 3109 3444 
Q 3109 3797 2882 3972 
Q 2656 4147 2194 4147 
L 1259 4147 
z
M 628 4666 
L 2241 4666 
Q 2963 4666 3353 4366 
Q 3744 4066 3744 3513 
Q 3744 3084 3544 2831 
Q 3344 2578 2956 2516 
Q 3422 2416 3680 2098 
Q 3938 1781 3938 1306 
Q 3938 681 3513 340 
Q 3088 0 2303 0 
L 628 0 
L 628 4666 
z
" transform="scale(0.015625)"/>
       <path id="DejaVuSans-4d" d="M 628 4666 
L 1569 4666 
L 2759 1491 
L 3956 4666 
L 4897 4666 
L 4897 0 
L 4281 0 
L 4281 4097 
L 3078 897 
L 2444 897 
L 1241 4097 
L 1241 0 
L 628 0 
L 628 4666 
z
" transform="scale(0.015625)"/>
       <path id="DejaVuSans-49" d="M 628 4666 
L 1259 4666 
L 1259 0 
L 628 0 
L 628 4666 
z
" transform="scale(0.015625)"/>
       <path id="DejaVuSans-20" transform="scale(0.015625)"/>
       <path id="DejaVuSans-28" d="M 1984 4856 
Q 1566 4138 1362 3434 
Q 1159 2731 1159 2009 
Q 1159 1288 1364 580 
Q 1569 -128 1984 -844 
L 1484 -844 
Q 1016 -109 783 600 
Q 550 1309 550 2009 
Q 550 2706 781 3412 
Q 1013 4119 1484 4856 
L 1984 4856 
z
" transform="scale(0.015625)"/>
       <path id="DejaVuSans-6b" d="M 581 4863 
L 1159 4863 
L 1159 1991 
L 2875 3500 
L 3609 3500 
L 1753 1863 
L 3688 0 
L 2938 0 
L 1159 1709 
L 1159 0 
L 581 0 
L 581 4863 
z
" transform="scale(0.015625)"/>
       <path id="DejaVuSans-67" d="M 2906 1791 
Q 2906 2416 2648 2759 
Q 2391 3103 1925 3103 
Q 1463 3103 1205 2759 
Q 947 2416 947 1791 
Q 947 1169 1205 825 
Q 1463 481 1925 481 
Q 2391 481 2648 825 
Q 2906 1169 2906 1791 
z
M 3481 434 
Q 3481 -459 3084 -895 
Q 2688 -1331 1869 -1331 
Q 1566 -1331 1297 -1286 
Q 1028 -1241 775 -1147 
L 775 -588 
Q 1028 -725 1275 -790 
Q 1522 -856 1778 -856 
Q 2344 -856 2625 -561 
Q 2906 -266 2906 331 
L 2906 616 
Q 2728 306 2450 153 
Q 2172 0 1784 0 
Q 1141 0 747 490 
Q 353 981 353 1791 
Q 353 2603 747 3093 
Q 1141 3584 1784 3584 
Q 2172 3584 2450 3431 
Q 2728 3278 2906 2969 
L 2906 3500 
L 3481 3500 
L 3481 434 
z
" transform="scale(0.015625)"/>
       <path id="DejaVuSans-2f" d="M 1625 4666 
L 2156 4666 
L 531 -594 
L 0 -594 
L 1625 4666 
z
" transform="scale(0.015625)"/>
       <path id="DejaVuSans-6d" d="M 3328 2828 
Q 3544 3216 3844 3400 
Q 4144 3584 4550 3584 
Q 5097 3584 5394 3201 
Q 5691 2819 5691 2113 
L 5691 0 
L 5113 0 
L 5113 2094 
Q 5113 2597 4934 2840 
Q 4756 3084 4391 3084 
Q 3944 3084 3684 2787 
Q 3425 2491 3425 1978 
L 3425 0 
L 2847 0 
L 2847 2094 
Q 2847 2600 2669 2842 
Q 2491 3084 2119 3084 
Q 1678 3084 1418 2786 
Q 1159 2488 1159 1978 
L 1159 0 
L 581 0 
L 581 3500 
L 1159 3500 
L 1159 2956 
Q 1356 3278 1631 3431 
Q 1906 3584 2284 3584 
Q 2666 3584 2933 3390 
Q 3200 3197 3328 2828 
z
" transform="scale(0.015625)"/>
       <path id="DejaVuSans-b2" d="M 838 2444 
L 2163 2444 
L 2163 2088 
L 294 2088 
L 294 2431 
Q 400 2528 597 2703 
Q 1672 3656 1672 3950 
Q 1672 4156 1509 4282 
Q 1347 4409 1081 4409 
Q 919 4409 728 4354 
Q 538 4300 313 4191 
L 313 4575 
Q 553 4663 761 4706 
Q 969 4750 1147 4750 
Q 1600 4750 1872 4544 
Q 2144 4338 2144 4000 
Q 2144 3566 1109 2678 
Q 934 2528 838 2444 
z
" transform="scale(0.015625)"/>
       <path id="DejaVuSans-29" d="M 513 4856 
L 1013 4856 
Q 1481 4119 1714 3412 
Q 1947 2706 1947 2009 
Q 1947 1309 1714 600 
Q 1481 -109 1013 -844 
L 513 -844 
Q 928 -128 1133 580 
Q 1338 1288 1338 2009 
Q 1338 2731 1133 3434 
Q 928 4138 513 4856 
z
" transform="scale(0.015625)"/>
      </defs>
      <use xlink:href="#DejaVuSans-42"/>
      <use xlink:href="#DejaVuSans-4d" transform="translate(68.603516 0)"/>
      <use xlink:href="#DejaVuSans-49" transform="translate(154.882812 0)"/>
      <use xlink:href="#DejaVuSans-20" transform="translate(184.375 0)"/>
      <use xlink:href="#DejaVuSans-28" transform="translate(216.162109 0)"/>
      <use xlink:href="#DejaVuSans-6b" transform="translate(255.175781 0)"/>
      <use xlink:href="#DejaVuSans-67" transform="translate(313.085938 0)"/>
      <use xlink:href="#DejaVuSans-2f" transform="translate(376.5625 0)"/>
      <use xlink:href="#DejaVuSans-6d" transform="translate(410.253906 0)"/>
      <use xlink:href="#DejaVuSans-b2" transform="translate(507.666016 0)"/>
      <use xlink:href="#DejaVuSans-29" transform="translate(547.753906 0)"/>
     </g>
    </g>
   </g>
   <g id="matplotlib.axis_2">
    <g id="ytick_1">
     <g id="line2d_9">
      <path d="M 48.92 245.56 
L 493.2 245.56 
" clip-path="url(#pd69596680c)" style="fill: none; stroke: #d8dee9; stroke-opacity: 0.4; stroke-width: 0.8; stroke-linecap: square"/>
     </g>
     <g id="line2d_10">
      <defs>
       <path id="m256404a309" d="M 0 0 
L -3.5 0 
" style="stroke: #434c5e; stroke-width: 0.8"/>
      </defs>
      <g>
       <use xlink:href="#m256404a309" x="48.92" y="245.56" style="fill: #434c5e; stroke: #434c5e; stroke-width: 0.8"/>
      </g>
     </g>
     <g id="text_6">
      <!-- 0.0 -->
      <g style="fill: #434c5e" transform="translate(24.426563 249.739141) scale(0.11 -0.11)">
       <defs>
        <path id="DejaVuSans-2e" d="M 684 794 
L 1344 794 
L 1344 0 
L 684 0 
L 684 794 
z
" transform="scale(0.015625)"/>
       </defs>
       <use xlink:href="#DejaVuSans-30"/>
       <use xlink:href="#DejaVuSans-2e" transform="translate(63.623047 0)"/>
       <use xlink:href="#DejaVuSans-30" transform="translate(95.410156 0)"/>
      </g>
     </g>
    </g>
    <g id="ytick_2">
     <g id="line2d_11">
      <path d="M 48.92 199.472 
L 493.2 199.472 
" clip-path="url(#pd69596680c)" style="fill: none; stroke: #d8dee9; stroke-opacity: 0.4; stroke-width: 0.8; stroke-linecap: square"/>
     </g>
     <g id="line2d_12">
      <g>
       <use xlink:href="#m256404a309" x="48.92" y="199.472" style="fill: #434c5e; stroke: #434c5e; stroke-width: 0.8"/>
      </g>
     </g>
     <g id="text_7">
      <!-- 0.1 -->
      <g style="fill: #434c5e" transform="translate(24.426563 203.651141) scale(0.11 -0.11)">
       <defs>
        <path id="DejaVuSans-31" d="M 794 531 
L 1825 531 
L 1825 4091 
L 703 3866 
L 703 4441 
L 1819 4666 
L 2450 4666 
L 2450 531 
L 3481 531 
L 3481 0 
L 794 0 
L 794 531 
z
" transform="scale(0.015625)"/>
       </defs>
       <use xlink:href="#DejaVuSans-30"/>
       <use xlink:href="#DejaVuSans-2e" transform="translate(63.623047 0)"/>
       <use xlink:href="#DejaVuSans-31" transform="translate(95.410156 0)"/>
      </g>
     </g>
    </g>
    <g id="ytick_3">
     <g id="line2d_13">
      <path d="M 48.92 153.384 
L 493.2 153.384 
" clip-path="url(#pd69596680c)" style="fill: none; stroke: #d8dee9; stroke-opacity: 0.4; stroke-width: 0.8; stroke-linecap: square"/>
     </g>
     <g id="line2d_14">
      <g>
       <use xlink:href="#m256404a309" x="48.92" y="153.384" style="fill: #434c5e; stroke: #434c5e; stroke-width: 0.8"/>
      </g>
     </g>
     <g id="text_8">
      <!-- 0.2 -->
      <g style="fill: #434c5e" transform="translate(24.426563 157.563141) scale(0.11 -0.11)">
       <use xlink:href="#DejaVuSans-30"/>
       <use xlink:href="#DejaVuSans-2e" transform="translate(63.623047 0)"/>
       <use xlink:href="#DejaVuSans-32" transform="translate(95.410156 0)"/>
      </g>
     </g>
    </g>
    <g id="ytick_4">
     <g id="line2d_15">
      <path d="M 48.92 107.296 
L 493.2 107.296 
" clip-path="url(#pd69596680c)" style="fill: none; stroke: #d8dee9; stroke-opacity: 0.4; stroke-width: 0.8; stroke-linecap: square"/>
     </g>
     <g id="line2d_16">
      <g>
       <use xlink:href="#m256404a309" x="48.92" y="107.296" style="fill: #434c5e; stroke: #434c5e; stroke-width: 0.8"/>
      </g>
     </g>
     <g id="text_9">
      <!-- 0.3 -->
      <g style="fill: #434c5e" transform="translate(24.426563 111.475141) scale(0.11 -0.11)">
       <use xlink:href="#DejaVuSans-30"/>
       <use xlink:href="#DejaVuSans-2e" transform="translate(63.623047 0)"/>
       <use xlink:href="#DejaVuSans-33" transform="translate(95.410156 0)"/>
      </g>
     </g>
    </g>
    <g id="ytick_5">
     <g id="line2d_17">
      <path d="M 48.92 61.208 
L 493.2 61.208 
" clip-path="url(#pd69596680c)" style="fill: none; stroke: #d8dee9; stroke-opacity: 0.4; stroke-width: 0.8; stroke-linecap: square"/>
     </g>
     <g id="line2d_18">
      <g>
       <use xlink:href="#m256404a309" x="48.92" y="61.208" style="fill: #434c5e; stroke: #434c5e; stroke-width: 0.8"/>
      </g>
     </g>
     <g id="text_10">
      <!-- 0.4 -->
      <g style="fill: #434c5e" transform="translate(24.426563 65.387141) scale(0.11 -0.11)">
       <use xlink:href="#DejaVuSans-30"/>
       <use xlink:href="#DejaVuSans-2e" transform="translate(63.623047 0)"/>
       <use xlink:href="#DejaVuSans-34" transform="translate(95.410156 0)"/>
      </g>
     </g>
    </g>
    <g id="ytick_6">
     <g id="line2d_19">
      <path d="M 48.92 15.12 
L 493.2 15.12 
" clip-path="url(#pd69596680c)" style="fill: none; stroke: #d8dee9; stroke-opacity: 0.4; stroke-width: 0.8; stroke-linecap: square"/>
     </g>
     <g id="line2d_20">
      <g>
       <use xlink:href="#m256404a309" x="48.92" y="15.12" style="fill: #434c5e; stroke: #434c5e; stroke-width: 0.8"/>
      </g>
     </g>
     <g id="text_11">
      <!-- 0.5 -->
      <g style="fill: #434c5e" transform="translate(24.426563 19.299141) scale(0.11 -0.11)">
       <use xlink:href="#DejaVuSans-30"/>
       <use xlink:href="#DejaVuSans-2e" transform="translate(63.623047 0)"/>
       <use xlink:href="#DejaVuSans-35" transform="translate(95.410156 0)"/>
      </g>
     </g>
    </g>
    <g id="text_12">
     <!-- Probabilité BP -->
     <g style="fill: #434c5e" transform="translate(18.346875 164.920469) rotate(-90) scale(0.1 -0.1)">
      <defs>
       <path id="DejaVuSans-50" d="M 1259 4147 
L 1259 2394 
L 2053 2394 
Q 2494 2394 2734 2622 
Q 2975 2850 2975 3272 
Q 2975 3691 2734 3919 
Q 2494 4147 2053 4147 
L 1259 4147 
z
M 628 4666 
L 2053 4666 
Q 2838 4666 3239 4311 
Q 3641 3956 3641 3272 
Q 3641 2581 3239 2228 
Q 2838 1875 2053 1875 
L 1259 1875 
L 1259 0 
L 628 0 
L 628 4666 
z
" transform="scale(0.015625)"/>
       <path id="DejaVuSans-72" d="M 2631 2963 
Q 2534 3019 2420 3045 
Q 2306 3072 2169 3072 
Q 1681 3072 1420 2755 
Q 1159 2438 1159 1844 
L 1159 0 
L 581 0 
L 581 3500 
L 1159 3500 
L 1159 2956 
Q 1341 3275 1631 3429 
Q 1922 3584 2338 3584 
Q 2397 3584 2469 3576 
Q 2541 3569 2628 3553 
L 2631 2963 
z
" transform="scale(0.015625)"/>
       <path id="DejaVuSans-6f" d="M 1959 3097 
Q 1497 3097 1228 2736 
Q 959 2375 959 1747 
Q 959 1119 1226 758 
Q 1494 397 1959 397 
Q 2419 397 2687 759 
Q 2956 1122 2956 1747 
Q 2956 2369 2687 2733 
Q 2419 3097 1959 3097 
z
M 1959 3584 
Q 2709 3584 3137 3096 
Q 3566 2609 3566 1747 
Q 3566 888 3137 398 
Q 2709 -91 1959 -91 
Q 1206 -91 779 398 
Q 353 888 353 1747 
Q 353 2609 779 3096 
Q 1206 3584 1959 3584 
z
" transform="scale(0.015625)"/>
       <path id="DejaVuSans-62" d="M 3116 1747 
Q 3116 2381 2855 2742 
Q 2594 3103 2138 3103 
Q 1681 3103 1420 2742 
Q 1159 2381 1159 1747 
Q 1159 1113 1420 752 
Q 1681 391 2138 391 
Q 2594 391 2855 752 
Q 3116 1113 3116 1747 
z
M 1159 2969 
Q 1341 3281 1617 3432 
Q 1894 3584 2278 3584 
Q 2916 3584 3314 3078 
Q 3713 2572 3713 1747 
Q 3713 922 3314 415 
Q 2916 -91 2278 -91 
Q 1894 -91 1617 61 
Q 1341 213 1159 525 
L 1159 0 
L 581 0 
L 581 4863 
L 1159 4863 
L 1159 2969 
z
" transform="scale(0.015625)"/>
       <path id="DejaVuSans-61" d="M 2194 1759 
Q 1497 1759 1228 1600 
Q 959 1441 959 1056 
Q 959 750 1161 570 
Q 1363 391 1709 391 
Q 2188 391 2477 730 
Q 2766 1069 2766 1631 
L 2766 1759 
L 2194 1759 
z
M 3341 1997 
L 3341 0 
L 2766 0 
L 2766 531 
Q 2569 213 2275 61 
Q 1981 -91 1556 -91 
Q 1019 -91 701 211 
Q 384 513 384 1019 
Q 384 1609 779 1909 
Q 1175 2209 1959 2209 
L 2766 2209 
L 2766 2266 
Q 2766 2663 2505 2880 
Q 2244 3097 1772 3097 
Q 1472 3097 1187 3025 
Q 903 2953 641 2809 
L 641 3341 
Q 956 3463 1253 3523 
Q 1550 3584 1831 3584 
Q 2591 3584 2966 3190 
Q 3341 2797 3341 1997 
z
" transform="scale(0.015625)"/>
       <path id="DejaVuSans-69" d="M 603 3500 
L 1178 3500 
L 1178 0 
L 603 0 
L 603 3500 
z
M 603 4863 
L 1178 4863 
L 1178 4134 
L 603 4134 
L 603 4863 
z
" transform="scale(0.015625)"/>
       <path id="DejaVuSans-6c" d="M 603 4863 
L 1178 4863 
L 1178 0 
L 603 0 
L 603 4863 
z
" transform="scale(0.015625)"/>
       <path id="DejaVuSans-74" d="M 1172 4494 
L 1172 3500 
L 2356 3500 
L 2356 3053 
L 1172 3053 
L 1172 1153 
Q 1172 725 1289 603 
Q 1406 481 1766 481 
L 2356 481 
L 2356 0 
L 1766 0 
Q 1100 0 847 248 
Q 594 497 594 1153 
L 594 3053 
L 172 3053 
L 172 3500 
L 594 3500 
L 594 4494 
L 1172 4494 
z
" transform="scale(0.015625)"/>
       <path id="DejaVuSans-e9" d="M 3597 1894 
L 3597 1613 
L 953 1613 
Q 991 1019 1311 708 
Q 1631 397 2203 397 
Q 2534 397 2845 478 
Q 3156 559 3463 722 
L 3463 178 
Q 3153 47 2828 -22 
Q 2503 -91 2169 -91 
Q 1331 -91 842 396 
Q 353 884 353 1716 
Q 353 2575 817 3079 
Q 1281 3584 2069 3584 
Q 2775 3584 3186 3129 
Q 3597 2675 3597 1894 
z
M 3022 2063 
Q 3016 2534 2758 2815 
Q 2500 3097 2075 3097 
Q 1594 3097 1305 2825 
Q 1016 2553 972 2059 
L 3022 2063 
z
M 2466 5119 
L 3088 5119 
L 2070 3944 
L 1591 3944 
L 2466 5119 
z
" transform="scale(0.015625)"/>
      </defs>
      <use xlink:href="#DejaVuSans-50"/>
      <use xlink:href="#DejaVuSans-72" transform="translate(58.552734 0)"/>
      <use xlink:href="#DejaVuSans-6f" transform="translate(97.416016 0)"/>
      <use xlink:href="#DejaVuSans-62" transform="translate(158.597656 0)"/>
      <use xlink:href="#DejaVuSans-61" transform="translate(222.074219 0)"/>
      <use xlink:href="#DejaVuSans-62" transform="translate(283.353516 0)"/>
      <use xlink:href="#DejaVuSans-69" transform="translate(346.830078 0)"/>
      <use xlink:href="#DejaVuSans-6c" transform="translate(374.613281 0)"/>
      <use xlink:href="#DejaVuSans-69" transform="translate(402.396484 0)"/>
      <use xlink:href="#DejaVuSans-74" transform="translate(430.179688 0)"/>
      <use xlink:href="#DejaVuSans-e9" transform="translate(469.388672 0)"/>
      <use xlink:href="#DejaVuSans-20" transform="translate(530.912109 0)"/>
      <use xlink:href="#DejaVuSans-42" transform="translate(562.699219 0)"/>
      <use xlink:href="#DejaVuSans-50" transform="translate(631.302734 0)"/>
     </g>
    </g>
   </g>
   <g id="LineCollection_1">
    <path d="M 69.114545 156.804973 
L 69.114545 103.369488 
" clip-path="url(#pd69596680c)" style="fill: none; stroke: #5e81ac; stroke-width: 1.5"/>
    <path d="M 199.401935 173.665049 
L 199.401935 126.602069 
" clip-path="url(#pd69596680c)" style="fill: none; stroke: #5e81ac; stroke-width: 1.5"/>
    <path d="M 329.689326 190.823691 
L 329.689326 145.145969 
" clip-path="url(#pd69596680c)" style="fill: none; stroke: #5e81ac; stroke-width: 1.5"/>
    <path d="M 459.976716 206.142075 
L 459.976716 160.081225 
" clip-path="url(#pd69596680c)" style="fill: none; stroke: #5e81ac; stroke-width: 1.5"/>
   </g>
   <g id="line2d_21">
    <defs>
     <path id="m7ed85d39d3" d="M 3 0 
L -3 -0 
" style="stroke: #5e81ac"/>
    </defs>
    <g clip-path="url(#pd69596680c)">
     <use xlink:href="#m7ed85d39d3" x="69.114545" y="156.804973" style="fill: #5e81ac; stroke: #5e81ac"/>
     <use xlink:href="#m7ed85d39d3" x="199.401935" y="173.665049" style="fill: #5e81ac; stroke: #5e81ac"/>
     <use xlink:href="#m7ed85d39d3" x="329.689326" y="190.823691" style="fill: #5e81ac; stroke: #5e81ac"/>
     <use xlink:href="#m7ed85d39d3" x="459.976716" y="206.142075" style="fill: #5e81ac; stroke: #5e81ac"/>
    </g>
   </g>
   <g id="line2d_22">
    <g clip-path="url(#pd69596680c)">
     <use xlink:href="#m7ed85d39d3" x="69.114545" y="103.369488" style="fill: #5e81ac; stroke: #5e81ac"/>
     <use xlink:href="#m7ed85d39d3" x="199.401935" y="126.602069" style="fill: #5e81ac; stroke: #5e81ac"/>
     <use xlink:href="#m7ed85d39d3" x="329.689326" y="145.145969" style="fill: #5e81ac; stroke: #5e81ac"/>
     <use xlink:href="#m7ed85d39d3" x="459.976716" y="160.081225" style="fill: #5e81ac; stroke: #5e81ac"/>
    </g>
   </g>
   <g id="LineCollection_2">
    <path d="M 75.628915 148.369729 
L 75.628915 95.616178 
" clip-path="url(#pd69596680c)" style="fill: none; stroke: #d08770; stroke-width: 1.5"/>
    <path d="M 205.916305 164.409276 
L 205.916305 117.802231 
" clip-path="url(#pd69596680c)" style="fill: none; stroke: #d08770; stroke-width: 1.5"/>
    <path d="M 336.203695 181.108972 
L 336.203695 135.924974 
" clip-path="url(#pd69596680c)" style="fill: none; stroke: #d08770; stroke-width: 1.5"/>
    <path d="M 466.491085 196.627555 
L 466.491085 150.679536 
" clip-path="url(#pd69596680c)" style="fill: none; stroke: #d08770; stroke-width: 1.5"/>
   </g>
   <g id="line2d_23">
    <defs>
     <path id="m600d00d321" d="M 3 0 
L -3 -0 
" style="stroke: #d08770"/>
    </defs>
    <g clip-path="url(#pd69596680c)">
     <use xlink:href="#m600d00d321" x="75.628915" y="148.369729" style="fill: #d08770; stroke: #d08770"/>
     <use xlink:href="#m600d00d321" x="205.916305" y="164.409276" style="fill: #d08770; stroke: #d08770"/>
     <use xlink:href="#m600d00d321" x="336.203695" y="181.108972" style="fill: #d08770; stroke: #d08770"/>
     <use xlink:href="#m600d00d321" x="466.491085" y="196.627555" style="fill: #d08770; stroke: #d08770"/>
    </g>
   </g>
   <g id="line2d_24">
    <g clip-path="url(#pd69596680c)">
     <use xlink:href="#m600d00d321" x="75.628915" y="95.616178" style="fill: #d08770; stroke: #d08770"/>
     <use xlink:href="#m600d00d321" x="205.916305" y="117.802231" style="fill: #d08770; stroke: #d08770"/>
     <use xlink:href="#m600d00d321" x="336.203695" y="135.924974" style="fill: #d08770; stroke: #d08770"/>
     <use xlink:href="#m600d00d321" x="466.491085" y="150.679536" style="fill: #d08770; stroke: #d08770"/>
    </g>
   </g>
   <g id="LineCollection_3">
    <path d="M 82.143284 113.636812 
L 82.143284 2.498678 
" clip-path="url(#pd69596680c)" style="fill: none; stroke: #a3be8c; stroke-width: 1.5"/>
    <path d="M 212.430674 120.620999 
L 212.430674 8.808609 
" clip-path="url(#pd69596680c)" style="fill: none; stroke: #a3be8c; stroke-width: 1.5"/>
    <path d="M 342.718065 128.611418 
L 342.718065 14.310457 
" clip-path="url(#pd69596680c)" style="fill: none; stroke: #a3be8c; stroke-width: 1.5"/>
    <path d="M 473.005455 137.267959 
L 473.005455 18.951525 
" clip-path="url(#pd69596680c)" style="fill: none; stroke: #a3be8c; stroke-width: 1.5"/>
   </g>
   <g id="line2d_25">
    <defs>
     <path id="mf04d39cfa6" d="M 3 0 
L -3 -0 
" style="stroke: #a3be8c"/>
    </defs>
    <g clip-path="url(#pd69596680c)">
     <use xlink:href="#mf04d39cfa6" x="82.143284" y="113.636812" style="fill: #a3be8c; stroke: #a3be8c"/>
     <use xlink:href="#mf04d39cfa6" x="212.430674" y="120.620999" style="fill: #a3be8c; stroke: #a3be8c"/>
     <use xlink:href="#mf04d39cfa6" x="342.718065" y="128.611418" style="fill: #a3be8c; stroke: #a3be8c"/>
     <use xlink:href="#mf04d39cfa6" x="473.005455" y="137.267959" style="fill: #a3be8c; stroke: #a3be8c"/>
    </g>
   </g>
   <g id="line2d_26">
    <g clip-path="url(#pd69596680c)">
     <use xlink:href="#mf04d39cfa6" x="82.143284" y="2.498678" style="fill: #a3be8c; stroke: #a3be8c"/>
     <use xlink:href="#mf04d39cfa6" x="212.430674" y="8.808609" style="fill: #a3be8c; stroke: #a3be8c"/>
     <use xlink:href="#mf04d39cfa6" x="342.718065" y="14.310457" style="fill: #a3be8c; stroke: #a3be8c"/>
     <use xlink:href="#mf04d39cfa6" x="473.005455" y="18.951525" style="fill: #a3be8c; stroke: #a3be8c"/>
    </g>
   </g>
   <g id="line2d_27">
    <defs>
     <path id="ma5328aab86" d="M 0 3 
C 0.795609 3 1.55874 2.683901 2.12132 2.12132 
C 2.683901 1.55874 3 0.795609 3 0 
C 3 -0.795609 2.683901 -1.55874 2.12132 -2.12132 
C 1.55874 -2.683901 0.795609 -3 0 -3 
C -0.795609 -3 -1.55874 -2.683901 -2.12132 -2.12132 
C -2.683901 -1.55874 -3 -0.795609 -3 0 
C -3 0.795609 -2.683901 1.55874 -2.12132 2.12132 
C -1.55874 2.683901 -0.795609 3 0 3 
z
" style="stroke: #5e81ac"/>
    </defs>
    <g clip-path="url(#pd69596680c)">
     <use xlink:href="#ma5328aab86" x="69.114545" y="130.087231" style="fill: #5e81ac; stroke: #5e81ac"/>
     <use xlink:href="#ma5328aab86" x="199.401935" y="150.133559" style="fill: #5e81ac; stroke: #5e81ac"/>
     <use xlink:href="#ma5328aab86" x="329.689326" y="167.98483" style="fill: #5e81ac; stroke: #5e81ac"/>
     <use xlink:href="#ma5328aab86" x="459.976716" y="183.11165" style="fill: #5e81ac; stroke: #5e81ac"/>
    </g>
   </g>
   <g id="line2d_28">
    <defs>
     <path id="mc9f30c6bc7" d="M 0 3 
C 0.795609 3 1.55874 2.683901 2.12132 2.12132 
C 2.683901 1.55874 3 0.795609 3 0 
C 3 -0.795609 2.683901 -1.55874 2.12132 -2.12132 
C 1.55874 -2.683901 0.795609 -3 0 -3 
C -0.795609 -3 -1.55874 -2.683901 -2.12132 -2.12132 
C -2.683901 -1.55874 -3 -0.795609 -3 0 
C -3 0.795609 -2.683901 1.55874 -2.12132 2.12132 
C -1.55874 2.683901 -0.795609 3 0 3 
z
" style="stroke: #d08770"/>
    </defs>
    <g clip-path="url(#pd69596680c)">
     <use xlink:href="#mc9f30c6bc7" x="75.628915" y="121.992954" style="fill: #d08770; stroke: #d08770"/>
     <use xlink:href="#mc9f30c6bc7" x="205.916305" y="141.105753" style="fill: #d08770; stroke: #d08770"/>
     <use xlink:href="#mc9f30c6bc7" x="336.203695" y="158.516973" style="fill: #d08770; stroke: #d08770"/>
     <use xlink:href="#mc9f30c6bc7" x="466.491085" y="173.653545" style="fill: #d08770; stroke: #d08770"/>
    </g>
   </g>
   <g id="line2d_29">
    <defs>
     <path id="m729dad1132" d="M 0 3 
C 0.795609 3 1.55874 2.683901 2.12132 2.12132 
C 2.683901 1.55874 3 0.795609 3 0 
C 3 -0.795609 2.683901 -1.55874 2.12132 -2.12132 
C 1.55874 -2.683901 0.795609 -3 0 -3 
C -0.795609 -3 -1.55874 -2.683901 -2.12132 -2.12132 
C -2.683901 -1.55874 -3 -0.795609 -3 0 
C -3 0.795609 -2.683901 1.55874 -2.12132 2.12132 
C -1.55874 2.683901 -0.795609 3 0 3 
z
" style="stroke: #a3be8c"/>
    </defs>
    <g clip-path="url(#pd69596680c)">
     <use xlink:href="#m729dad1132" x="82.143284" y="58.067745" style="fill: #a3be8c; stroke: #a3be8c"/>
     <use xlink:href="#m729dad1132" x="212.430674" y="64.714804" style="fill: #a3be8c; stroke: #a3be8c"/>
     <use xlink:href="#m729dad1132" x="342.718065" y="71.460937" style="fill: #a3be8c; stroke: #a3be8c"/>
     <use xlink:href="#m729dad1132" x="473.005455" y="78.109742" style="fill: #a3be8c; stroke: #a3be8c"/>
    </g>
   </g>
   <g id="patch_3">
    <path d="M 48.92 245.56 
L 48.92 15.12 
" style="fill: none; stroke: #434c5e; stroke-width: 0.8; stroke-linejoin: miter; stroke-linecap: square"/>
   </g>
   <g id="patch_4">
    <path d="M 493.2 245.56 
L 493.2 15.12 
" style="fill: none; stroke: #434c5e; stroke-width: 0.8; stroke-linejoin: miter; stroke-linecap: square"/>
   </g>
   <g id="patch_5">
    <path d="M 48.92 245.56 
L 493.2 245.56 
" style="fill: none; stroke: #434c5e; stroke-width: 0.8; stroke-linejoin: miter; stroke-linecap: square"/>
   </g>
   <g id="patch_6">
    <path d="M 48.92 15.12 
L 493.2 15.12 
" style="fill: none; stroke: #434c5e; stroke-width: 0.8; stroke-linejoin: miter; stroke-linecap: square"/>
   </g>
   <g id="legend_1">
    <g id="text_13">
     <!-- Volume -->
     <g transform="translate(64.815313 190.445937) scale(0.1 -0.1)">
      <defs>
       <path id="DejaVuSans-56" d="M 1831 0 
L 50 4666 
L 709 4666 
L 2188 738 
L 3669 4666 
L 4325 4666 
L 2547 0 
L 1831 0 
z
" transform="scale(0.015625)"/>
       <path id="DejaVuSans-75" d="M 544 1381 
L 544 3500 
L 1119 3500 
L 1119 1403 
Q 1119 906 1312 657 
Q 1506 409 1894 409 
Q 2359 409 2629 706 
Q 2900 1003 2900 1516 
L 2900 3500 
L 3475 3500 
L 3475 0 
L 2900 0 
L 2900 538 
Q 2691 219 2414 64 
Q 2138 -91 1772 -91 
Q 1169 -91 856 284 
Q 544 659 544 1381 
z
M 1991 3584 
L 1991 3584 
z
" transform="scale(0.015625)"/>
       <path id="DejaVuSans-65" d="M 3597 1894 
L 3597 1613 
L 953 1613 
Q 991 1019 1311 708 
Q 1631 397 2203 397 
Q 2534 397 2845 478 
Q 3156 559 3463 722 
L 3463 178 
Q 3153 47 2828 -22 
Q 2503 -91 2169 -91 
Q 1331 -91 842 396 
Q 353 884 353 1716 
Q 353 2575 817 3079 
Q 1281 3584 2069 3584 
Q 2775 3584 3186 3129 
Q 3597 2675 3597 1894 
z
M 3022 2063 
Q 3016 2534 2758 2815 
Q 2500 3097 2075 3097 
Q 1594 3097 1305 2825 
Q 1016 2553 972 2059 
L 3022 2063 
z
" transform="scale(0.015625)"/>
      </defs>
      <use xlink:href="#DejaVuSans-56"/>
      <use xlink:href="#DejaVuSans-6f" transform="translate(60.658203 0)"/>
      <use xlink:href="#DejaVuSans-6c" transform="translate(121.839844 0)"/>
      <use xlink:href="#DejaVuSans-75" transform="translate(149.623047 0)"/>
      <use xlink:href="#DejaVuSans-6d" transform="translate(213.001953 0)"/>
      <use xlink:href="#DejaVuSans-65" transform="translate(310.414062 0)"/>
     </g>
    </g>
    <g id="LineCollection_4">
     <path d="M 67.92 206.624062 
L 67.92 196.624062 
" style="fill: none; stroke: #5e81ac; stroke-width: 1.5"/>
    </g>
    <g id="line2d_30">
     <g>
      <use xlink:href="#m7ed85d39d3" x="67.92" y="206.624062" style="fill: #5e81ac; stroke: #5e81ac"/>
     </g>
    </g>
    <g id="line2d_31">
     <g>
      <use xlink:href="#m7ed85d39d3" x="67.92" y="196.624062" style="fill: #5e81ac; stroke: #5e81ac"/>
     </g>
    </g>
    <g id="line2d_32"/>
    <g id="line2d_33">
     <g>
      <use xlink:href="#ma5328aab86" x="67.92" y="201.624062" style="fill: #5e81ac; stroke: #5e81ac"/>
     </g>
    </g>
    <g id="text_14">
     <!-- Low -->
     <g transform="translate(85.92 205.124062) scale(0.1 -0.1)">
      <defs>
       <path id="DejaVuSans-4c" d="M 628 4666 
L 1259 4666 
L 1259 531 
L 3531 531 
L 3531 0 
L 628 0 
L 628 4666 
z
" transform="scale(0.015625)"/>
       <path id="DejaVuSans-77" d="M 269 3500 
L 844 3500 
L 1563 769 
L 2278 3500 
L 2956 3500 
L 3675 769 
L 4391 3500 
L 4966 3500 
L 4050 0 
L 3372 0 
L 2619 2869 
L 1863 0 
L 1184 0 
L 269 3500 
z
" transform="scale(0.015625)"/>
      </defs>
      <use xlink:href="#DejaVuSans-4c"/>
      <use xlink:href="#DejaVuSans-6f" transform="translate(53.962891 0)"/>
      <use xlink:href="#DejaVuSans-77" transform="translate(115.144531 0)"/>
     </g>
    </g>
    <g id="LineCollection_5">
     <path d="M 67.92 221.302187 
L 67.92 211.302187 
" style="fill: none; stroke: #d08770; stroke-width: 1.5"/>
    </g>
    <g id="line2d_34">
     <g>
      <use xlink:href="#m600d00d321" x="67.92" y="221.302187" style="fill: #d08770; stroke: #d08770"/>
     </g>
    </g>
    <g id="line2d_35">
     <g>
      <use xlink:href="#m600d00d321" x="67.92" y="211.302187" style="fill: #d08770; stroke: #d08770"/>
     </g>
    </g>
    <g id="line2d_36"/>
    <g id="line2d_37">
     <g>
      <use xlink:href="#mc9f30c6bc7" x="67.92" y="216.302187" style="fill: #d08770; stroke: #d08770"/>
     </g>
    </g>
    <g id="text_15">
     <!-- Mid -->
     <g transform="translate(85.92 219.802187) scale(0.1 -0.1)">
      <defs>
       <path id="DejaVuSans-64" d="M 2906 2969 
L 2906 4863 
L 3481 4863 
L 3481 0 
L 2906 0 
L 2906 525 
Q 2725 213 2448 61 
Q 2172 -91 1784 -91 
Q 1150 -91 751 415 
Q 353 922 353 1747 
Q 353 2572 751 3078 
Q 1150 3584 1784 3584 
Q 2172 3584 2448 3432 
Q 2725 3281 2906 2969 
z
M 947 1747 
Q 947 1113 1208 752 
Q 1469 391 1925 391 
Q 2381 391 2643 752 
Q 2906 1113 2906 1747 
Q 2906 2381 2643 2742 
Q 2381 3103 1925 3103 
Q 1469 3103 1208 2742 
Q 947 2381 947 1747 
z
" transform="scale(0.015625)"/>
      </defs>
      <use xlink:href="#DejaVuSans-4d"/>
      <use xlink:href="#DejaVuSans-69" transform="translate(86.279297 0)"/>
      <use xlink:href="#DejaVuSans-64" transform="translate(114.0625 0)"/>
     </g>
    </g>
    <g id="LineCollection_6">
     <path d="M 67.92 235.980312 
L 67.92 225.980312 
" style="fill: none; stroke: #a3be8c; stroke-width: 1.5"/>
    </g>
    <g id="line2d_38">
     <g>
      <use xlink:href="#mf04d39cfa6" x="67.92" y="235.980312" style="fill: #a3be8c; stroke: #a3be8c"/>
     </g>
    </g>
    <g id="line2d_39">
     <g>
      <use xlink:href="#mf04d39cfa6" x="67.92" y="225.980312" style="fill: #a3be8c; stroke: #a3be8c"/>
     </g>
    </g>
    <g id="line2d_40"/>
    <g id="line2d_41">
     <g>
      <use xlink:href="#m729dad1132" x="67.92" y="230.980312" style="fill: #a3be8c; stroke: #a3be8c"/>
     </g>
    </g>
    <g id="text_16">
     <!-- High -->
     <g transform="translate(85.92 234.480312) scale(0.1 -0.1)">
      <defs>
       <path id="DejaVuSans-48" d="M 628 4666 
L 1259 4666 
L 1259 2753 
L 3553 2753 
L 3553 4666 
L 4184 4666 
L 4184 0 
L 3553 0 
L 3553 2222 
L 1259 2222 
L 1259 0 
L 628 0 
L 628 4666 
z
" transform="scale(0.015625)"/>
       <path id="DejaVuSans-68" d="M 3513 2113 
L 3513 0 
L 2938 0 
L 2938 2094 
Q 2938 2591 2744 2837 
Q 2550 3084 2163 3084 
Q 1697 3084 1428 2787 
Q 1159 2491 1159 1978 
L 1159 0 
L 581 0 
L 581 4863 
L 1159 4863 
L 1159 2956 
Q 1366 3272 1645 3428 
Q 1925 3584 2291 3584 
Q 2894 3584 3203 3211 
Q 3513 2838 3513 2113 
z
" transform="scale(0.015625)"/>
      </defs>
      <use xlink:href="#DejaVuSans-48"/>
      <use xlink:href="#DejaVuSans-69" transform="translate(75.195312 0)"/>
      <use xlink:href="#DejaVuSans-67" transform="translate(102.978516 0)"/>
      <use xlink:href="#DejaVuSans-68" transform="translate(166.455078 0)"/>
     </g>
    </g>
   </g>
  </g>
 </g>
 <defs>
  <clipPath id="pd69596680c">
   <rect x="48.92" y="15.12" width="444.28" height="230.44"/>
  </clipPath>
 </defs>
</svg>
